<svg viewBox="0 0 53 24" fill="none" xmlns="http://www.w3.org/2000/svg">
<path d="M46.3133 21.9089V21.3477H46.7263C47.0011 21.3477 47.0755 21.4323 47.0755 21.5963C47.0755 21.7643 47.0011 21.8997 46.6774 21.9089H46.3133ZM46.6031 22.2513C46.7218 22.2617 46.836 22.2513 46.9221 22.3411C47.0207 22.4453 47.0207 22.6198 47.0455 22.8086C47.0611 22.9375 47.0957 23.0768 47.1205 23.2005H47.559C47.484 23.0026 47.4592 22.7735 47.4292 22.5651C47.394 22.3268 47.36 22.1927 47.0559 22.1328V22.1224C47.3502 22.0625 47.5042 21.8646 47.5042 21.6107C47.5042 21.1146 47.0852 21.0052 46.6826 21.0052H45.97V23.2005H46.3133V22.2513H46.6031ZM46.7121 24C47.7489 24 48.5796 23.1667 48.5796 22.1276C48.5796 21.0989 47.7489 20.2643 46.7121 20.2643C45.6712 20.2643 44.8346 21.0989 44.8346 22.1276C44.8346 23.1667 45.6712 24 46.7121 24ZM46.7121 23.6732C45.8558 23.6732 45.1642 22.9818 45.1642 22.1276C45.1642 21.2839 45.8558 20.5925 46.7121 20.5925C47.5643 20.5925 48.252 21.2839 48.252 22.1276C48.252 22.9818 47.5643 23.6732 46.7121 23.6732Z" fill="#EE2722"/>
<path d="M43.5465 5.14421H40.5389V8.1416H43.5465C44.2603 8.1416 44.8346 8.72167 44.8346 9.42967C44.8346 10.1426 44.2603 10.7155 43.5465 10.7155H40.5389V13.7155H43.5465C45.9199 13.7155 47.8423 11.7956 47.8423 9.42967C47.8423 7.06313 45.9199 5.14421 43.5465 5.14421ZM26.4066 21.0052C30.0067 21.0052 33.1095 18.9017 34.559 15.8574H38.3927V21.0052H40.5389V15.8574H43.5465C47.1075 15.8574 49.9924 12.9792 49.9924 9.42967C49.9924 5.87927 47.1075 3 43.5465 3H38.3927V10.7155H35.3341C34.7103 6.35514 30.9509 3 26.4066 3H15.8299L5.30918 21.0052H7.81894L10.8259 15.8574H21.6377V21.0052H26.4066ZM53 9.42967C53 14.6367 48.7669 18.8574 43.5465 18.8574V24H35.3863V19.9883C33.1787 22.4505 29.9767 24 26.4066 24H18.6301V18.8574H12.5522L9.54527 24H0L14.0306 0H26.4066C29.9767 0 33.1787 1.55374 35.3863 4.01628V0H43.5465C48.7669 0 53 4.224 53 9.42967ZM18.6301 5.14421V10.7155H13.8329L12.0807 13.7155H21.6377V5.14421H18.6301ZM33.2819 12C33.2819 15.7877 30.2025 18.8574 26.4066 18.8574H23.7852V15.8574H26.4066C28.5437 15.8574 30.2755 14.1328 30.2755 12C30.2755 9.87173 28.5437 8.1416 26.4066 8.1416H23.7852V5.14421H26.4066C30.2025 5.14421 33.2819 8.21387 33.2819 12Z" fill="#EE2722"/>
<path d="M43.5465 5.14421H40.5389V8.1416H43.5465C44.2603 8.1416 44.8346 8.72167 44.8346 9.42967C44.8346 10.1426 44.2603 10.7155 43.5465 10.7155H40.5389V13.7155H43.5465C45.9199 13.7155 47.8423 11.7956 47.8423 9.42967C47.8423 7.06313 45.9199 5.14421 43.5465 5.14421ZM26.4066 21.0052C30.0067 21.0052 33.1095 18.9017 34.559 15.8574H38.3927V21.0052H40.5389V15.8574H43.5465C47.1075 15.8574 49.9924 12.9792 49.9924 9.42967C49.9924 5.87927 47.1075 3 43.5465 3H38.3927V10.7155H35.3341C34.7103 6.35514 30.9509 3 26.4066 3H15.8299L5.30918 21.0052H7.81894L10.8259 15.8574H21.6377V21.0052H26.4066ZM53 9.42967C53 14.6367 48.7669 18.8574 43.5465 18.8574V24H35.3863V19.9883C33.1787 22.4505 29.9767 24 26.4066 24H18.6301V18.8574H12.5522L9.54527 24H0L14.0306 0H26.4066C29.9767 0 33.1787 1.55374 35.3863 4.01628V0H43.5465C48.7669 0 53 4.224 53 9.42967ZM18.6301 5.14421V10.7155H13.8329L12.0807 13.7155H21.6377V5.14421H18.6301ZM33.2819 12C33.2819 15.7877 30.2025 18.8574 26.4066 18.8574H23.7852V15.8574H26.4066C28.5437 15.8574 30.2755 14.1328 30.2755 12C30.2755 9.87173 28.5437 8.1416 26.4066 8.1416H23.7852V5.14421H26.4066C30.2025 5.14421 33.2819 8.21387 33.2819 12Z" fill="#EE2722"/>
<path d="M43.5465 5.14421H40.5389V8.1416H43.5465C44.2603 8.1416 44.8346 8.72167 44.8346 9.42967C44.8346 10.1426 44.2603 10.7155 43.5465 10.7155H40.5389V13.7155H43.5465C45.9199 13.7155 47.8423 11.7956 47.8423 9.42967C47.8423 7.06313 45.9199 5.14421 43.5465 5.14421ZM26.4066 21.0052C30.0067 21.0052 33.1095 18.9017 34.559 15.8574H38.3927V21.0052H40.5389V15.8574H43.5465C47.1075 15.8574 49.9924 12.9792 49.9924 9.42967C49.9924 5.87927 47.1075 3 43.5465 3H38.3927V10.7155H35.3341C34.7103 6.35514 30.9509 3 26.4066 3H15.8299L5.30918 21.0052H7.81894L10.8259 15.8574H21.6377V21.0052H26.4066ZM53 9.42967C53 14.6367 48.7669 18.8574 43.5465 18.8574V24H35.3863V19.9883C33.1787 22.4505 29.9767 24 26.4066 24H18.6301V18.8574H12.5522L9.54527 24H0L14.0306 0H26.4066C29.9767 0 33.1787 1.55374 35.3863 4.01628V0H43.5465C48.7669 0 53 4.224 53 9.42967ZM18.6301 5.14421V10.7155H13.8329L12.0807 13.7155H21.6377V5.14421H18.6301ZM33.2819 12C33.2819 15.7877 30.2025 18.8574 26.4066 18.8574H23.7852V15.8574H26.4066C28.5437 15.8574 30.2755 14.1328 30.2755 12C30.2755 9.87173 28.5437 8.1416 26.4066 8.1416H23.7852V5.14421H26.4066C30.2025 5.14421 33.2819 8.21387 33.2819 12Z" fill="#EE2722"/>
</svg>
