<svg viewBox="0 0 24 24" fill="none" xmlns="http://www.w3.org/2000/svg">
  <path
    fill-rule="evenodd"
    clip-rule="evenodd"
    d="M24 0H0V24H24V20.2163H21.1758L19.6747 18.5599L18.1843 20.2227L8.69434 20.2024V12.5695H5.61816L9.4075 3.96986H13.097L14.3928 6.9124V3.96986H18.9478L19.7332 6.17453L20.5214 3.96986H23.9995V4.90308H21.2376L19.7509 9.03481L18.2739 4.91295L15.4033 4.90308V11.5469L12.4657 4.90415H10.1064L7.12891 11.609H8.69434V11.6028L9.17344 11.6032L9.73277 10.2663H12.7765L13.337 11.607L15.4307 11.6088L15.4302 11.6077L17.2088 11.6079V7.00228L18.9217 11.6079H20.5444L22.2225 7.01788V11.6149L23.1064 11.6157L23.9995 11.6079V11.6165L24 11.6165V0ZM24 12.5493V12.6022L20.9187 15.9005L24 19.1643V19.2596H21.6445L19.6865 17.1115L17.7486 19.2596H15.4067H15.3779H9.7168V12.5695H17.833L19.7386 14.6761L21.6497 12.5695H23.9995V12.5493H24ZM24 17.79L22.2313 15.8825L24 13.9923V17.79ZM10.3622 8.76162L11.2552 6.62722L12.1474 8.76162H10.3622ZM15.4067 14.0949V12.5799L18.5263 15.9005L15.4067 19.2289V17.6952H11.5591V16.6645H15.3149V15.1443H11.5591V14.0949H15.4067Z"
    fill="white"
  />
</svg>
