<svg viewBox="0 0 26 24" fill="none" xmlns="http://www.w3.org/2000/svg">
<path fill-rule="evenodd" clip-rule="evenodd" d="M13.6594 11.5558V6.07278H19.0526C19.0526 9.10098 16.6379 11.5558 13.6594 11.5558ZM13.6594 17.9273V12.4443C16.6379 12.4443 19.0526 14.8991 19.0526 17.9273H13.6594ZM12.7852 11.5558H7.39189C7.39189 8.52768 9.80652 6.07278 12.7852 6.07278V11.5558ZM12.7852 17.9273C9.80652 17.9273 7.39189 15.4725 7.39189 12.4443H12.7852V17.9273ZM21.5827 4.90732L13.2222 0L4.8617 4.90732C3.7097 5.5834 3 6.83304 3 8.1855V15.8145C3 17.167 3.7097 18.4166 4.8617 19.0928L13.2222 24L21.5827 19.0928C22.7347 18.4166 23.4445 17.167 23.4445 15.8145V8.1855C23.4445 6.83304 22.7347 5.5834 21.5827 4.90732Z" fill="#646F87"/>
</svg>
