  <svg viewBox="0 0 26 24" fill="none" xmlns="http://www.w3.org/2000/svg">
    <path
      fill-rule="evenodd"
      clip-rule="evenodd"
      d="M13.6594 11.5722V6.0892H19.0526C19.0526 9.1174 16.6379 11.5722 13.6594 11.5722ZM13.6594 17.9437V12.4607C16.6379 12.4607 19.0526 14.9155 19.0526 17.9437H13.6594ZM12.7852 11.5722H7.39189C7.39189 8.5441 9.80652 6.0892 12.7852 6.0892V11.5722ZM12.7852 17.9437C9.80652 17.9437 7.39189 15.4889 7.39189 12.4607H12.7852V17.9437ZM21.5827 4.92374L13.2222 0.0164185L4.8617 4.92374C3.7097 5.59981 3 6.84946 3 8.20192V15.8309C3 17.1834 3.7097 18.433 4.8617 19.1093L13.2222 24.0164L21.5827 19.1093C22.7347 18.433 23.4445 17.1834 23.4445 15.8309V8.20192C23.4445 6.84946 22.7347 5.59981 21.5827 4.92374Z"
      fill="white"
    />
  </svg>