  <svg viewBox="0 0 92 24" fill="none" xmlns="http://www.w3.org/2000/svg">
    <path
      d="M34.1486 5.1634C34.1486 4.02829 33.5561 4.10275 32.9885 4.09074V3.76269C33.4804 3.78673 33.985 3.78673 34.4781 3.78673C35.0079 3.78673 35.7276 3.76269 36.6622 3.76269C39.9308 3.76269 41.7104 5.94554 41.7104 8.18086C41.7104 9.43058 40.9789 12.5732 36.5101 12.5732C35.8669 12.5732 35.2726 12.5483 34.6798 12.5483C34.1122 12.5483 33.5561 12.5603 32.9885 12.5732V12.2449C33.7452 12.169 34.1122 12.1437 34.1486 11.2854V5.1634ZM35.3858 11.0837C35.3858 12.0555 36.0809 12.169 36.6989 12.169C39.426 12.169 40.3216 10.1116 40.3216 8.23069C40.3216 5.87108 38.8068 4.16725 36.3708 4.16725C35.8525 4.16725 35.6141 4.20419 35.3858 4.21767V11.0837ZM42.1531 12.2452H42.3926C42.7456 12.2452 42.9983 12.2452 42.9983 11.8277V8.40776C42.9983 7.85281 42.8092 7.77571 42.3416 7.52477V7.32249C42.935 7.14484 43.6424 6.90621 43.6922 6.86839C43.7811 6.81797 43.8564 6.80449 43.9197 6.80449C43.9822 6.80449 44.0083 6.88041 44.0083 6.98214V11.8277C44.0083 12.2452 44.2859 12.2452 44.6398 12.2452H44.8538V12.5735C44.4243 12.5735 43.9822 12.5483 43.5289 12.5483C43.0742 12.5483 42.6195 12.5606 42.1531 12.5735V12.2452ZM43.5037 4.86115C43.1748 4.86115 42.8851 4.55832 42.8851 4.22998C42.8851 3.91396 43.1886 3.62286 43.5037 3.62286C43.8309 3.62286 44.122 3.88904 44.122 4.22998C44.122 4.57122 43.8438 4.86115 43.5037 4.86115ZM46.0531 8.4831C46.0531 8.0164 45.9136 7.89063 45.3217 7.65083V7.41103C45.8638 7.23455 46.3809 7.06979 46.9875 6.80449C47.025 6.80449 47.062 6.83028 47.062 6.93054V7.75138C47.7826 7.23455 48.4015 6.80449 49.2481 6.80449C50.3203 6.80449 50.6988 7.58721 50.6988 8.57193V11.8277C50.6988 12.2452 50.9761 12.2452 51.33 12.2452H51.5572V12.5735C51.1145 12.5735 50.6727 12.5483 50.2194 12.5483C49.7644 12.5483 49.3097 12.5606 48.8556 12.5735V12.2452H49.0825C49.4367 12.2452 49.6879 12.2452 49.6879 11.8277V8.55962C49.6879 7.83933 49.2481 7.48666 48.5275 7.48666C48.1238 7.48666 47.48 7.81441 47.062 8.09232V11.8277C47.062 12.2452 47.3414 12.2452 47.6949 12.2452H47.9218V12.5735C47.48 12.5735 47.0376 12.5483 46.5832 12.5483C46.1294 12.5483 45.6741 12.5606 45.2202 12.5735V12.2452H45.448C45.8013 12.2452 46.0531 12.2452 46.0531 11.8277V8.4831ZM52.517 9.08994C52.4909 9.20368 52.4909 9.39247 52.517 9.82195C52.5912 11.0207 53.3634 12.0048 54.3716 12.0048C55.067 12.0048 55.6106 11.626 56.0764 11.1596L56.2529 11.3364C55.6722 12.1065 54.9524 12.7626 53.9184 12.7626C51.9105 12.7626 51.507 10.8184 51.507 10.011C51.507 7.53679 53.1726 6.80449 54.0556 6.80449C55.0791 6.80449 56.1782 7.44796 56.1893 8.78593C56.1893 8.86274 56.1893 8.93749 56.1782 9.01401L56.0635 9.08994H52.517ZM54.7516 8.68567C55.067 8.68567 55.1037 8.52121 55.1037 8.36994C55.1037 7.72646 54.7129 7.20904 54.0055 7.20904C53.2359 7.20904 52.7058 7.77571 52.5546 8.68567H54.7516ZM56.4804 12.2452H56.8214C57.1735 12.2452 57.4262 12.2452 57.4262 11.8277V8.2817C57.4262 7.89063 56.9598 7.81441 56.7701 7.71356V7.52477C57.6915 7.13311 58.1967 6.80449 58.3119 6.80449C58.3861 6.80449 58.4236 6.8423 58.4236 6.96924V8.10493H58.4506C58.7648 7.61272 59.2961 6.80449 60.0656 6.80449C60.3814 6.80449 60.7848 7.01878 60.7848 7.47347C60.7848 7.81441 60.5456 8.11812 60.1923 8.11812C59.7994 8.11812 59.7994 7.81441 59.3582 7.81441C59.1433 7.81441 58.4368 8.10493 58.4368 8.86274V11.8277C58.4368 12.2452 58.6886 12.2452 59.0425 12.2452H59.749V12.5735C59.0545 12.5606 58.5262 12.5483 57.9826 12.5483C57.4652 12.5483 56.9349 12.5606 56.4804 12.5735V12.2452ZM61.3401 10.8184C61.5045 11.6512 62.0091 12.3586 62.9311 12.3586C63.6746 12.3586 63.9522 11.9042 63.9522 11.4627C63.9522 9.97292 61.2014 10.4522 61.2014 8.42066C61.2014 7.71327 61.7702 6.80449 63.158 6.80449C63.5614 6.80449 64.1041 6.91852 64.596 7.17123L64.6852 8.4576H64.3946C64.2686 7.66314 63.8271 7.20875 63.0188 7.20875C62.5133 7.20875 62.0343 7.49897 62.0343 8.04161C62.0343 9.51941 64.9628 9.06414 64.9628 11.0456C64.9628 11.8784 64.2938 12.7629 62.7913 12.7629C62.2864 12.7629 61.693 12.5858 61.2518 12.3337L61.1126 10.882L61.3401 10.8184ZM76.3611 6.04697H76.0462C75.8058 4.57122 74.758 3.97728 73.3449 3.97728C71.8925 3.97728 69.784 4.9488 69.784 7.97799C69.784 10.529 71.6032 12.3586 73.5463 12.3586C74.7955 12.3586 75.8316 11.5006 76.0843 10.1746L76.374 10.2502L76.0843 12.093C75.554 12.4222 74.1274 12.7626 73.2936 12.7626C70.3408 12.7626 68.473 10.8565 68.473 8.0164C68.473 5.4287 70.7823 3.57273 73.2564 3.57273C74.2784 3.57273 75.2634 3.90194 76.235 4.24288L76.3611 6.04697ZM76.8164 12.2452H77.055C77.4095 12.2452 77.6622 12.2452 77.6622 11.8277V4.79842C77.6622 3.97728 77.4728 3.95207 76.9932 3.81341V3.61142C77.4977 3.44755 78.0281 3.22035 78.2931 3.0682C78.4309 2.99316 78.5326 2.92896 78.5698 2.92896C78.6466 2.92896 78.6722 3.00547 78.6722 3.10661V11.8277C78.6722 12.2452 78.9495 12.2452 79.3034 12.2452H79.5165V12.5735C79.0887 12.5735 78.6466 12.5483 78.1922 12.5483C77.7381 12.5483 77.2837 12.5606 76.8164 12.5735V12.2452ZM84.9211 11.8784C84.9211 12.1065 85.0595 12.1185 85.2738 12.1185C85.4257 12.1185 85.6142 12.1065 85.779 12.1065V12.3721C85.2354 12.4222 84.2008 12.6873 83.9607 12.7629L83.8971 12.7248V11.7028C83.141 12.3211 82.5593 12.7629 81.6622 12.7629C80.9812 12.7629 80.2743 12.3211 80.2743 11.2613V8.02929C80.2743 7.70096 80.2242 7.38523 79.518 7.32249V7.0824C79.973 7.07009 80.9812 6.99445 81.1459 6.99445C81.2858 6.99445 81.2858 7.0824 81.2858 7.36031V10.6161C81.2858 10.9955 81.2858 12.0807 82.3831 12.0807C82.8123 12.0807 83.3802 11.7527 83.9097 11.3118V7.91496C83.9097 7.66314 83.3043 7.52477 82.8507 7.39842V7.17123C83.9856 7.095 84.6936 6.99445 84.8191 6.99445C84.9211 6.99445 84.9211 7.0824 84.9211 7.22194V11.8784ZM87.4327 7.71356C87.937 7.28438 88.6189 6.80449 89.3137 6.80449C90.7781 6.80449 91.6606 8.0803 91.6606 9.4555C91.6606 11.1089 90.4495 12.7629 88.6433 12.7629C87.7101 12.7629 87.2179 12.4595 86.8892 12.3211L86.511 12.6107L86.2469 12.4724C86.3586 11.7278 86.4231 10.9955 86.4231 10.2256V4.79842C86.4231 3.97728 86.2328 3.95207 85.7534 3.81341V3.61142C86.2595 3.44755 86.7883 3.22035 87.054 3.0682C87.1926 2.99316 87.2929 2.92896 87.3322 2.92896C87.4078 2.92896 87.4327 3.00547 87.4327 3.10661V7.71356ZM87.4327 11.1464C87.4327 11.626 87.8869 12.4349 88.7327 12.4349C90.0836 12.4349 90.6512 11.1089 90.6512 9.98494C90.6512 8.62206 89.6172 7.48666 88.6321 7.48666C88.1639 7.48666 87.7734 7.78979 87.4327 8.0803V11.1464ZM32.9741 19.9121H33.0709C33.3177 19.9121 33.5786 19.8787 33.5786 19.521V15.9231C33.5786 15.5649 33.3177 15.5309 33.0709 15.5309H32.9741V15.3248C33.2421 15.3248 33.6543 15.3518 33.9917 15.3518C34.3347 15.3518 34.7464 15.3248 35.0691 15.3248V15.5309H34.9727C34.7264 15.5309 34.4649 15.5649 34.4649 15.9231V19.521C34.4649 19.8787 34.7264 19.9121 34.9727 19.9121H35.0691V20.1191C34.7396 20.1191 34.3265 20.0921 33.9844 20.0921C33.6475 20.0921 33.2421 20.1191 32.9741 20.1191V19.9121ZM39.788 18.7653L39.8018 18.7518V16.1767C39.8018 15.6133 39.4099 15.5309 39.204 15.5309H39.0528V15.3248C39.3758 15.3248 39.6919 15.3521 40.0144 15.3521C40.2958 15.3521 40.5784 15.3248 40.8593 15.3248V15.5309H40.757C40.4676 15.5309 40.1448 15.586 40.1448 16.403V19.5287C40.1448 19.7688 40.1519 20.0088 40.1856 20.2217H39.9247L36.3878 16.279V19.1092C36.3878 19.7066 36.5036 19.9121 37.0331 19.9121H37.1495V20.1191C36.8546 20.1191 36.5596 20.0921 36.2638 20.0921C35.9557 20.0921 35.6394 20.1191 35.3301 20.1191V19.9121H35.4262C35.9 19.9121 36.0439 19.5899 36.0439 19.0411V16.1483C36.0439 15.7642 35.7273 15.5309 35.4195 15.5309H35.3301V15.3248C35.5907 15.3248 35.8586 15.3521 36.119 15.3521C36.3254 15.3521 36.525 15.3248 36.7308 15.3248L39.788 18.7653ZM41.888 15.6681C41.3721 15.6681 41.3527 15.7918 41.2495 16.2925H41.0437C41.0704 16.1005 41.1053 15.9085 41.1261 15.7088C41.1539 15.5162 41.1671 15.3248 41.1671 15.1257H41.3319C41.3873 15.3321 41.5588 15.3248 41.7453 15.3248H45.2883C45.4741 15.3248 45.6453 15.318 45.6597 15.1117L45.8236 15.1392C45.7969 15.3248 45.7691 15.5098 45.7483 15.6956C45.7356 15.8812 45.7356 16.0668 45.7356 16.2518L45.5293 16.328C45.5152 16.0741 45.4806 15.6681 45.0209 15.6681H43.8945V19.322C43.8945 19.8517 44.1352 19.9121 44.4642 19.9121H44.5946V20.1191C44.327 20.1191 43.8459 20.0921 43.4756 20.0921C43.0634 20.0921 42.5823 20.1191 42.314 20.1191V19.9121H42.4445C42.8236 19.9121 43.0147 19.8784 43.0147 19.3363V15.6681H41.888ZM46.0432 19.9121H46.1396C46.3868 19.9121 46.648 19.8787 46.648 19.521V15.9231C46.648 15.5649 46.3868 15.5309 46.1396 15.5309H46.0432V15.3248C46.4612 15.3248 47.1772 15.3518 47.753 15.3518C48.3308 15.3518 49.0441 15.3248 49.5108 15.3248C49.4991 15.6197 49.5058 16.0738 49.5258 16.3758L49.3188 16.4309C49.2857 15.9847 49.2036 15.6276 48.4818 15.6276H47.5281V17.4264H48.3443C48.7562 17.4264 48.8462 17.1937 48.887 16.8219H49.0925C49.079 17.0905 49.072 17.3581 49.072 17.6255C49.072 17.8873 49.079 18.1479 49.0925 18.4088L48.887 18.4495C48.8462 18.038 48.8254 17.77 48.3507 17.77H47.5281V19.3701C47.5281 19.8165 47.9248 19.8165 48.3645 19.8165C49.1892 19.8165 49.5528 19.7611 49.7591 18.9793L49.9512 19.0265C49.8615 19.3915 49.7794 19.7544 49.7184 20.1191C49.2781 20.1191 48.4882 20.0921 47.8708 20.0921C47.2519 20.0921 46.4346 20.1191 46.0432 20.1191V19.9121ZM50.8782 16.0524C50.8782 15.5514 50.6035 15.5309 50.3901 15.5309H50.2663V15.3245C50.4862 15.3245 50.9119 15.3521 51.3311 15.3521C51.7428 15.3521 52.0729 15.3245 52.4367 15.3245C53.3016 15.3245 54.0717 15.5579 54.0717 16.5341C54.0717 17.1512 53.6598 17.529 53.1172 17.743L54.2913 19.4999C54.4839 19.7904 54.6205 19.8719 54.9577 19.9118V20.1191C54.7308 20.1191 54.5109 20.0921 54.2846 20.0921C54.0717 20.0921 53.8513 20.1191 53.6393 20.1191C53.1104 19.4255 52.656 18.6838 52.2101 17.8928H51.7577V19.3633C51.7577 19.8928 52.0043 19.9118 52.3197 19.9118H52.4437V20.1191C52.0515 20.1191 51.6545 20.0921 51.2625 20.0921C50.9324 20.0921 50.6096 20.1191 50.2663 20.1191V19.9118H50.3901C50.6451 19.9118 50.8782 19.7966 50.8782 19.5421V16.0524ZM51.7577 17.6454H52.0931C52.7806 17.6454 53.1506 17.3851 53.1506 16.5742C53.1506 15.9639 52.7595 15.5722 52.1476 15.5722C51.9412 15.5722 51.8533 15.5933 51.7577 15.5995V17.6454ZM59.6209 18.7653L59.6332 18.7518V16.1767C59.6332 15.6133 59.2424 15.5309 59.0366 15.5309H58.8859V15.3248C59.2087 15.3248 59.5236 15.3521 59.8472 15.3521C60.1293 15.3521 60.4095 15.3248 60.6933 15.3248V15.5309H60.5895C60.3014 15.5309 59.9783 15.586 59.9783 16.403V19.5287C59.9783 19.7688 59.9847 20.0088 60.0187 20.2217H59.7584L56.2213 16.279V19.1092C56.2213 19.7066 56.3377 19.9121 56.8665 19.9121H56.9832V20.1191C56.6883 20.1191 56.3928 20.0921 56.0978 20.0921C55.7877 20.0921 55.4719 20.1191 55.1632 20.1191V19.9121H55.2585C55.7331 19.9121 55.8774 19.5899 55.8774 19.0411V16.1483C55.8774 15.7642 55.5613 15.5309 55.2526 15.5309H55.1632V15.3248C55.4233 15.3248 55.6924 15.3521 55.9533 15.3521C56.1576 15.3521 56.3576 15.3248 56.5643 15.3248L59.6209 18.7653ZM61.7977 19.137C61.7279 19.3701 61.6453 19.5498 61.6453 19.6723C61.6453 19.8787 61.934 19.9121 62.1601 19.9121H62.2369V20.1191C61.9616 20.1041 61.681 20.0924 61.4043 20.0924C61.1574 20.0924 60.9117 20.1041 60.6634 20.1191V19.9121H60.7051C60.9727 19.9121 61.1999 19.7544 61.3014 19.4653L62.4016 16.3142C62.4899 16.06 62.6148 15.7164 62.6561 15.4614C62.8748 15.3869 63.1501 15.2497 63.2806 15.1671C63.3017 15.1597 63.3137 15.1527 63.3354 15.1527C63.3559 15.1527 63.3685 15.1527 63.3841 15.1738C63.4046 15.2286 63.4239 15.2905 63.4462 15.3453L64.7098 18.9377C64.7919 19.1778 64.8737 19.4316 64.9625 19.6386C65.0458 19.8309 65.19 19.9121 65.4169 19.9121H65.458V20.1191C65.149 20.1041 64.8394 20.0924 64.5104 20.0924C64.1742 20.0924 63.8297 20.1041 63.4793 20.1191V19.9121H63.5556C63.7127 19.9121 63.9816 19.8854 63.9816 19.7133C63.9816 19.6245 63.9197 19.4392 63.8429 19.2188L63.5758 18.4223H62.0167L61.7977 19.137ZM62.8001 16.094H62.786L62.1472 18.038H63.4307L62.8001 16.094ZM65.7602 15.6681C65.2448 15.6681 65.2243 15.7918 65.1211 16.2925H64.9147C64.9417 16.1005 64.9766 15.9085 64.998 15.7088C65.0252 15.5162 65.0382 15.3248 65.0382 15.1257H65.2038C65.2583 15.3321 65.4307 15.3248 65.6154 15.3248H69.1602C69.3449 15.3248 69.5164 15.318 69.5304 15.1117L69.6949 15.1392C69.6685 15.3248 69.641 15.5098 69.6204 15.6956C69.6052 15.8812 69.6052 16.0668 69.6052 16.2518L69.3997 16.328C69.3871 16.0741 69.3525 15.6681 68.8922 15.6681H67.7655V19.322C67.7655 19.8517 68.0065 19.9121 68.3355 19.9121H68.4662V20.1191C68.1983 20.1191 67.7178 20.0921 67.3466 20.0921C66.9353 20.0921 66.4533 20.1191 66.1856 20.1191V19.9121H66.3161C66.6946 19.9121 66.8866 19.8784 66.8866 19.3363V15.6681H65.7602ZM69.9482 19.9121H70.0444C70.2924 19.9121 70.5521 19.8787 70.5521 19.521V15.9231C70.5521 15.5649 70.2924 15.5309 70.0444 15.5309H69.9482V15.3248C70.2168 15.3248 70.6281 15.3518 70.9641 15.3518C71.3085 15.3518 71.7204 15.3248 72.0438 15.3248V15.5309H71.9477C71.6999 15.5309 71.4384 15.5649 71.4384 15.9231V19.521C71.4384 19.8787 71.6999 19.9121 71.9477 19.9121H72.0438V20.1191C71.7137 20.1191 71.3015 20.0921 70.9585 20.0921C70.6213 20.0921 70.2168 20.1191 69.9482 20.1191V19.9121ZM74.7829 15.2222C76.2473 15.2222 77.4142 16.1292 77.4142 17.5921C77.4142 19.1719 76.2807 20.222 74.8184 20.222C73.361 20.222 72.249 19.2332 72.249 17.7565C72.249 16.3283 73.3546 15.2222 74.7829 15.2222ZM74.8867 19.9197C76.2195 19.9197 76.4514 18.7445 76.4514 17.7433C76.4514 16.739 75.9105 15.5238 74.7697 15.5238C73.5674 15.5238 73.2106 16.5956 73.2106 17.515C73.2106 18.7445 73.7738 19.9197 74.8867 19.9197ZM82.0425 18.7653L82.0565 18.7518V16.1767C82.0565 15.6133 81.664 15.5309 81.4579 15.5309H81.309V15.3248C81.6306 15.3248 81.9469 15.3521 82.2685 15.3521C82.5514 15.3521 82.8329 15.3248 83.1149 15.3248V15.5309H83.0111C82.7232 15.5309 82.3998 15.586 82.3998 16.403V19.5287C82.3998 19.7688 82.4063 20.0088 82.4412 20.2217H82.1806L78.6425 16.279V19.1092C78.6425 19.7066 78.7595 19.9121 79.2878 19.9121H79.4051V20.1191C79.1096 20.1191 78.8149 20.0921 78.5194 20.0921C78.2104 20.0921 77.8935 20.1191 77.5842 20.1191V19.9121H77.6812C78.1559 19.9121 78.2987 19.5899 78.2987 19.0411V16.1483C78.2987 15.7642 77.9844 15.5309 77.6739 15.5309H77.5842V15.3248C77.8457 15.3248 78.1137 15.3521 78.3743 15.3521C78.5801 15.3521 78.7789 15.3248 78.9856 15.3248L82.0425 18.7653ZM84.2184 19.137C84.151 19.3701 84.0677 19.5498 84.0677 19.6723C84.0677 19.8787 84.3571 19.9121 84.5822 19.9121H84.659V20.1191C84.384 20.1041 84.102 20.0924 83.8273 20.0924C83.5793 20.0924 83.333 20.1041 83.0868 20.1191V19.9121H83.1257C83.3946 19.9121 83.6221 19.7544 83.7235 19.4653L84.8241 16.3142C84.9129 16.06 85.0372 15.7164 85.0771 15.4614C85.2973 15.3869 85.5717 15.2497 85.7033 15.1671C85.723 15.1597 85.7367 15.1527 85.7576 15.1527C85.7781 15.1527 85.7913 15.1527 85.805 15.1738C85.8259 15.2286 85.847 15.2905 85.8678 15.3453L87.1308 18.9377C87.2132 19.1778 87.2952 19.4316 87.3855 19.6386C87.4679 19.8309 87.6128 19.9121 87.8388 19.9121H87.8807V20.1191C87.5711 20.1041 87.2618 20.0924 86.9317 20.0924C86.596 20.0924 86.2518 20.1041 85.9015 20.1191V19.9121H85.9774C86.1343 19.9121 86.404 19.8854 86.404 19.7133C86.404 19.6245 86.3416 19.4392 86.265 19.2188L85.9982 18.4223H84.4389L84.2184 19.137ZM85.2222 16.094H85.2084L84.5687 18.038H85.8543L85.2222 16.094ZM89.6113 19.4457C89.6113 19.721 89.8022 19.8028 90.022 19.8309C90.3038 19.8517 90.6128 19.8517 90.9297 19.8168C91.2176 19.7822 91.4648 19.6178 91.5882 19.4457C91.6978 19.2944 91.7594 19.1024 91.8013 18.9511H92.0004C91.925 19.3425 91.8286 19.728 91.7456 20.1191C91.1428 20.1191 90.5363 20.0924 89.9335 20.0924C89.3281 20.0924 88.7245 20.1191 88.1199 20.1191V19.9121H88.2146C88.463 19.9121 88.7315 19.8787 88.7315 19.4524V15.9228C88.7315 15.5649 88.463 15.5309 88.2146 15.5309H88.1199V15.3248C88.4832 15.3248 88.8409 15.3521 89.2044 15.3521C89.5559 15.3521 89.8986 15.3248 90.2493 15.3248V15.5309H90.0766C89.8162 15.5309 89.6113 15.5385 89.6113 15.9017V19.4457Z"
      fill="#1A1918"
    />
    <path
      d="M17.7507 23.9999C24.3117 24.0318 30.3006 18.6506 30.3006 12.1041C30.3006 4.94585 24.3117 -0.00205146 17.7507 6.38076e-07H12.1045C5.46504 -0.00205146 0 4.94702 0 12.1041C0 18.6521 5.46504 24.0318 12.1045 23.9999H17.7507Z"
      fill="#006095"
    />
    <path
      d="M14.6231 18.4786V5.47971C17.2364 6.48201 19.0916 9.01166 19.096 11.9787C19.0916 14.9463 17.2364 17.4745 14.6231 18.4786ZM5.16823 11.9787C5.17409 9.01342 7.02636 6.48524 9.63824 5.48V18.4759C7.02636 17.4716 5.17409 14.9449 5.16823 11.9787ZM12.1311 0.992065C6.06417 0.994118 1.14795 5.91094 1.14648 11.9787C1.14795 18.0459 6.06417 22.9618 12.1311 22.9636C18.2001 22.9618 23.1172 18.0459 23.118 11.9787C23.1172 5.91094 18.2001 0.994118 12.1311 0.992065Z"
      fill="white"
    />
  </svg>
