  <svg height="100%" viewBox="0 0 92 24" fill="none" xmlns="http://www.w3.org/2000/svg">
    <path
      d="M34.1486 5.17981C34.1486 4.04471 33.5561 4.11917 32.9885 4.10715V3.77911C33.4804 3.80315 33.985 3.80315 34.4781 3.80315C35.0079 3.80315 35.7276 3.77911 36.6622 3.77911C39.9308 3.77911 41.7104 5.96196 41.7104 8.19728C41.7104 9.447 40.9789 12.5896 36.5101 12.5896C35.8669 12.5896 35.2726 12.5647 34.6798 12.5647C34.1122 12.5647 33.5561 12.5767 32.9885 12.5896V12.2613C33.7452 12.1854 34.1122 12.1602 34.1486 11.3018V5.17981ZM35.3858 11.1001C35.3858 12.0719 36.0809 12.1854 36.6989 12.1854C39.426 12.1854 40.3216 10.128 40.3216 8.24711C40.3216 5.88749 38.8068 4.18367 36.3708 4.18367C35.8525 4.18367 35.6141 4.22061 35.3858 4.23409V11.1001ZM42.1531 12.2616H42.3926C42.7456 12.2616 42.9983 12.2616 42.9983 11.8441V8.42418C42.9983 7.86923 42.8092 7.79213 42.3416 7.54119V7.33891C42.935 7.16126 43.6424 6.92263 43.6922 6.88481C43.7811 6.83439 43.8564 6.8209 43.9197 6.8209C43.9822 6.8209 44.0083 6.89683 44.0083 6.99856V11.8441C44.0083 12.2616 44.2859 12.2616 44.6398 12.2616H44.8538V12.5899C44.4243 12.5899 43.9822 12.5647 43.5289 12.5647C43.0742 12.5647 42.6195 12.577 42.1531 12.5899V12.2616ZM43.5037 4.87757C43.1748 4.87757 42.8851 4.57474 42.8851 4.2464C42.8851 3.93038 43.1886 3.63928 43.5037 3.63928C43.8309 3.63928 44.122 3.90546 44.122 4.2464C44.122 4.58764 43.8438 4.87757 43.5037 4.87757ZM46.0531 8.49952C46.0531 8.03281 45.9136 7.90705 45.3217 7.66725V7.42745C45.8638 7.25097 46.3809 7.08621 46.9875 6.8209C47.025 6.8209 47.062 6.8467 47.062 6.94696V7.7678C47.7826 7.25097 48.4015 6.8209 49.2481 6.8209C50.3203 6.8209 50.6988 7.60363 50.6988 8.58835V11.8441C50.6988 12.2616 50.9761 12.2616 51.33 12.2616H51.5572V12.5899C51.1145 12.5899 50.6727 12.5647 50.2194 12.5647C49.7644 12.5647 49.3097 12.577 48.8556 12.5899V12.2616H49.0825C49.4367 12.2616 49.6879 12.2616 49.6879 11.8441V8.57603C49.6879 7.85575 49.2481 7.50308 48.5275 7.50308C48.1238 7.50308 47.48 7.83083 47.062 8.10874V11.8441C47.062 12.2616 47.3414 12.2616 47.6949 12.2616H47.9218V12.5899C47.48 12.5899 47.0376 12.5647 46.5832 12.5647C46.1294 12.5647 45.6741 12.577 45.2202 12.5899V12.2616H45.448C45.8013 12.2616 46.0531 12.2616 46.0531 11.8441V8.49952ZM52.517 9.10635C52.4909 9.2201 52.4909 9.40889 52.517 9.83837C52.5912 11.0371 53.3634 12.0212 54.3716 12.0212C55.067 12.0212 55.6106 11.6425 56.0764 11.176L56.2529 11.3528C55.6722 12.1229 54.9524 12.779 53.9184 12.779C51.9105 12.779 51.507 10.8348 51.507 10.0275C51.507 7.55321 53.1726 6.8209 54.0556 6.8209C55.0791 6.8209 56.1782 7.46438 56.1893 8.80235C56.1893 8.87916 56.1893 8.95391 56.1782 9.03043L56.0635 9.10635H52.517ZM54.7516 8.70209C55.067 8.70209 55.1037 8.53763 55.1037 8.38636C55.1037 7.74288 54.7129 7.22546 54.0055 7.22546C53.2359 7.22546 52.7058 7.79213 52.5546 8.70209H54.7516ZM56.4804 12.2616H56.8214C57.1735 12.2616 57.4262 12.2616 57.4262 11.8441V8.29812C57.4262 7.90705 56.9598 7.83083 56.7701 7.72998V7.54119C57.6915 7.14953 58.1967 6.8209 58.3119 6.8209C58.3861 6.8209 58.4236 6.85872 58.4236 6.98566V8.12135H58.4506C58.7648 7.62914 59.2961 6.8209 60.0656 6.8209C60.3814 6.8209 60.7848 7.0352 60.7848 7.48989C60.7848 7.83083 60.5456 8.13454 60.1923 8.13454C59.7994 8.13454 59.7994 7.83083 59.3582 7.83083C59.1433 7.83083 58.4368 8.12135 58.4368 8.87916V11.8441C58.4368 12.2616 58.6886 12.2616 59.0425 12.2616H59.749V12.5899C59.0545 12.577 58.5262 12.5647 57.9826 12.5647C57.4652 12.5647 56.9349 12.577 56.4804 12.5899V12.2616ZM61.3401 10.8348C61.5045 11.6677 62.0091 12.3751 62.9311 12.3751C63.6746 12.3751 63.9522 11.9207 63.9522 11.4792C63.9522 9.98934 61.2014 10.4687 61.2014 8.43708C61.2014 7.72969 61.7702 6.8209 63.158 6.8209C63.5614 6.8209 64.1041 6.93494 64.596 7.18764L64.6852 8.47401H64.3946C64.2686 7.67956 63.8271 7.22517 63.0188 7.22517C62.5133 7.22517 62.0343 7.51539 62.0343 8.05803C62.0343 9.53583 64.9628 9.08056 64.9628 11.062C64.9628 11.8949 64.2938 12.7793 62.7913 12.7793C62.2864 12.7793 61.693 12.6022 61.2518 12.3501L61.1126 10.8984L61.3401 10.8348ZM76.3611 6.06339H76.0462C75.8058 4.58764 74.758 3.9937 73.3449 3.9937C71.8925 3.9937 69.784 4.96522 69.784 7.99441C69.784 10.5455 71.6032 12.3751 73.5463 12.3751C74.7955 12.3751 75.8316 11.517 76.0843 10.191L76.374 10.2667L76.0843 12.1095C75.554 12.4387 74.1274 12.779 73.2936 12.779C70.3408 12.779 68.473 10.8729 68.473 8.03281C68.473 5.44512 70.7823 3.58915 73.2564 3.58915C74.2784 3.58915 75.2634 3.91836 76.235 4.2593L76.3611 6.06339ZM76.8164 12.2616H77.055C77.4095 12.2616 77.6622 12.2616 77.6622 11.8441V4.81483C77.6622 3.9937 77.4728 3.96849 76.9932 3.82983V3.62784C77.4977 3.46397 78.0281 3.23677 78.2931 3.08462C78.4309 3.00957 78.5326 2.94537 78.5698 2.94537C78.6466 2.94537 78.6722 3.02189 78.6722 3.12303V11.8441C78.6722 12.2616 78.9495 12.2616 79.3034 12.2616H79.5165V12.5899C79.0887 12.5899 78.6466 12.5647 78.1922 12.5647C77.7381 12.5647 77.2837 12.577 76.8164 12.5899V12.2616ZM84.9211 11.8949C84.9211 12.1229 85.0595 12.135 85.2738 12.135C85.4257 12.135 85.6142 12.1229 85.779 12.1229V12.3885C85.2354 12.4387 84.2008 12.7037 83.9607 12.7793L83.8971 12.7412V11.7193C83.141 12.3375 82.5593 12.7793 81.6622 12.7793C80.9812 12.7793 80.2743 12.3375 80.2743 11.2778V8.04571C80.2743 7.71738 80.2242 7.40165 79.518 7.33891V7.09882C79.973 7.0865 80.9812 7.01087 81.1459 7.01087C81.2858 7.01087 81.2858 7.09882 81.2858 7.37673V10.6325C81.2858 11.0119 81.2858 12.0971 82.3831 12.0971C82.8123 12.0971 83.3802 11.7691 83.9097 11.3282V7.93138C83.9097 7.67956 83.3043 7.54119 82.8507 7.41484V7.18764C83.9856 7.11142 84.6936 7.01087 84.8191 7.01087C84.9211 7.01087 84.9211 7.09882 84.9211 7.23836V11.8949ZM87.4327 7.72998C87.937 7.3008 88.6189 6.8209 89.3137 6.8209C90.7781 6.8209 91.6606 8.09672 91.6606 9.47192C91.6606 11.1253 90.4495 12.7793 88.6433 12.7793C87.7101 12.7793 87.2179 12.4759 86.8892 12.3375L86.511 12.6272L86.2469 12.4888C86.3586 11.7442 86.4231 11.0119 86.4231 10.242V4.81483C86.4231 3.9937 86.2328 3.96849 85.7534 3.82983V3.62784C86.2595 3.46397 86.7883 3.23677 87.054 3.08462C87.1926 3.00957 87.2929 2.94537 87.3322 2.94537C87.4078 2.94537 87.4327 3.02189 87.4327 3.12303V7.72998ZM87.4327 11.1628C87.4327 11.6425 87.8869 12.4513 88.7327 12.4513C90.0836 12.4513 90.6512 11.1253 90.6512 10.0014C90.6512 8.63848 89.6172 7.50308 88.6321 7.50308C88.1639 7.50308 87.7734 7.8062 87.4327 8.09672V11.1628ZM32.9741 19.9285H33.0709C33.3177 19.9285 33.5786 19.8951 33.5786 19.5375V15.9395C33.5786 15.5813 33.3177 15.5473 33.0709 15.5473H32.9741V15.3412C33.2421 15.3412 33.6543 15.3682 33.9917 15.3682C34.3347 15.3682 34.7464 15.3412 35.0691 15.3412V15.5473H34.9727C34.7264 15.5473 34.4649 15.5813 34.4649 15.9395V19.5375C34.4649 19.8951 34.7264 19.9285 34.9727 19.9285H35.0691V20.1355C34.7396 20.1355 34.3265 20.1085 33.9844 20.1085C33.6475 20.1085 33.2421 20.1355 32.9741 20.1355V19.9285ZM39.788 18.7817L39.8018 18.7682V16.1931C39.8018 15.6297 39.4099 15.5473 39.204 15.5473H39.0528V15.3412C39.3758 15.3412 39.6919 15.3685 40.0144 15.3685C40.2958 15.3685 40.5784 15.3412 40.8593 15.3412V15.5473H40.757C40.4676 15.5473 40.1448 15.6024 40.1448 16.4194V19.5451C40.1448 19.7852 40.1519 20.0253 40.1856 20.2381H39.9247L36.3878 16.2954V19.1256C36.3878 19.723 36.5036 19.9285 37.0331 19.9285H37.1495V20.1355C36.8546 20.1355 36.5596 20.1085 36.2638 20.1085C35.9557 20.1085 35.6394 20.1355 35.3301 20.1355V19.9285H35.4262C35.9 19.9285 36.0439 19.6063 36.0439 19.0576V16.1647C36.0439 15.7807 35.7273 15.5473 35.4195 15.5473H35.3301V15.3412C35.5907 15.3412 35.8586 15.3685 36.119 15.3685C36.3254 15.3685 36.525 15.3412 36.7308 15.3412L39.788 18.7817ZM41.888 15.6845C41.3721 15.6845 41.3527 15.8082 41.2495 16.3089H41.0437C41.0704 16.1169 41.1053 15.9249 41.1261 15.7252C41.1539 15.5326 41.1671 15.3412 41.1671 15.1422H41.3319C41.3873 15.3485 41.5588 15.3412 41.7453 15.3412H45.2883C45.4741 15.3412 45.6453 15.3345 45.6597 15.1281L45.8236 15.1556C45.7969 15.3412 45.7691 15.5262 45.7483 15.7121C45.7356 15.8976 45.7356 16.0832 45.7356 16.2682L45.5293 16.3444C45.5152 16.0905 45.4806 15.6845 45.0209 15.6845H43.8945V19.3384C43.8945 19.8681 44.1352 19.9285 44.4642 19.9285H44.5946V20.1355C44.327 20.1355 43.8459 20.1085 43.4756 20.1085C43.0634 20.1085 42.5823 20.1355 42.314 20.1355V19.9285H42.4445C42.8236 19.9285 43.0147 19.8948 43.0147 19.3528V15.6845H41.888ZM46.0432 19.9285H46.1396C46.3868 19.9285 46.648 19.8951 46.648 19.5375V15.9395C46.648 15.5813 46.3868 15.5473 46.1396 15.5473H46.0432V15.3412C46.4612 15.3412 47.1772 15.3682 47.753 15.3682C48.3308 15.3682 49.0441 15.3412 49.5108 15.3412C49.4991 15.6361 49.5058 16.0902 49.5258 16.3922L49.3188 16.4473C49.2857 16.0011 49.2036 15.644 48.4818 15.644H47.5281V17.4429H48.3443C48.7562 17.4429 48.8462 17.2101 48.887 16.8384H49.0925C49.079 17.1069 49.072 17.3745 49.072 17.6419C49.072 17.9037 49.079 18.1643 49.0925 18.4252L48.887 18.466C48.8462 18.0544 48.8254 17.7864 48.3507 17.7864H47.5281V19.3865C47.5281 19.833 47.9248 19.833 48.3645 19.833C49.1892 19.833 49.5528 19.7775 49.7591 18.9957L49.9512 19.0429C49.8615 19.4079 49.7794 19.7708 49.7184 20.1355C49.2781 20.1355 48.4882 20.1085 47.8708 20.1085C47.2519 20.1085 46.4346 20.1355 46.0432 20.1355V19.9285ZM50.8782 16.0688C50.8782 15.5678 50.6035 15.5473 50.3901 15.5473H50.2663V15.3409C50.4862 15.3409 50.9119 15.3685 51.3311 15.3685C51.7428 15.3685 52.0729 15.3409 52.4367 15.3409C53.3016 15.3409 54.0717 15.5743 54.0717 16.5505C54.0717 17.1676 53.6598 17.5455 53.1172 17.7595L54.2913 19.5163C54.4839 19.8069 54.6205 19.8884 54.9577 19.9282V20.1355C54.7308 20.1355 54.5109 20.1085 54.2846 20.1085C54.0717 20.1085 53.8513 20.1355 53.6393 20.1355C53.1104 19.4419 52.656 18.7002 52.2101 17.9093H51.7577V19.3797C51.7577 19.9092 52.0043 19.9282 52.3197 19.9282H52.4437V20.1355C52.0515 20.1355 51.6545 20.1085 51.2625 20.1085C50.9324 20.1085 50.6096 20.1355 50.2663 20.1355V19.9282H50.3901C50.6451 19.9282 50.8782 19.813 50.8782 19.5586V16.0688ZM51.7577 17.6618H52.0931C52.7806 17.6618 53.1506 17.4015 53.1506 16.5906C53.1506 15.9803 52.7595 15.5886 52.1476 15.5886C51.9412 15.5886 51.8533 15.6097 51.7577 15.6159V17.6618ZM59.6209 18.7817L59.6332 18.7682V16.1931C59.6332 15.6297 59.2424 15.5473 59.0366 15.5473H58.8859V15.3412C59.2087 15.3412 59.5236 15.3685 59.8472 15.3685C60.1293 15.3685 60.4095 15.3412 60.6933 15.3412V15.5473H60.5895C60.3014 15.5473 59.9783 15.6024 59.9783 16.4194V19.5451C59.9783 19.7852 59.9847 20.0253 60.0187 20.2381H59.7584L56.2213 16.2954V19.1256C56.2213 19.723 56.3377 19.9285 56.8665 19.9285H56.9832V20.1355C56.6883 20.1355 56.3928 20.1085 56.0978 20.1085C55.7877 20.1085 55.4719 20.1355 55.1632 20.1355V19.9285H55.2585C55.7331 19.9285 55.8774 19.6063 55.8774 19.0576V16.1647C55.8774 15.7807 55.5613 15.5473 55.2526 15.5473H55.1632V15.3412C55.4233 15.3412 55.6924 15.3685 55.9533 15.3685C56.1576 15.3685 56.3576 15.3412 56.5643 15.3412L59.6209 18.7817ZM61.7977 19.1534C61.7279 19.3865 61.6453 19.5662 61.6453 19.6887C61.6453 19.8951 61.934 19.9285 62.1601 19.9285H62.2369V20.1355C61.9616 20.1205 61.681 20.1088 61.4043 20.1088C61.1574 20.1088 60.9117 20.1205 60.6634 20.1355V19.9285H60.7051C60.9727 19.9285 61.1999 19.7708 61.3014 19.4818L62.4016 16.3306C62.4899 16.0764 62.6148 15.7329 62.6561 15.4778C62.8748 15.4034 63.1501 15.2662 63.2806 15.1835C63.3017 15.1762 63.3137 15.1691 63.3354 15.1691C63.3559 15.1691 63.3685 15.1691 63.3841 15.1902C63.4046 15.2451 63.4239 15.3069 63.4462 15.3617L64.7098 18.9541C64.7919 19.1942 64.8737 19.448 64.9625 19.655C65.0458 19.8473 65.19 19.9285 65.4169 19.9285H65.458V20.1355C65.149 20.1205 64.8394 20.1088 64.5104 20.1088C64.1742 20.1088 63.8297 20.1205 63.4793 20.1355V19.9285H63.5556C63.7127 19.9285 63.9816 19.9018 63.9816 19.7298C63.9816 19.6409 63.9197 19.4557 63.8429 19.2352L63.5758 18.4387H62.0167L61.7977 19.1534ZM62.8001 16.1105H62.786L62.1472 18.0544H63.4307L62.8001 16.1105ZM65.7602 15.6845C65.2448 15.6845 65.2243 15.8082 65.1211 16.3089H64.9147C64.9417 16.1169 64.9766 15.9249 64.998 15.7252C65.0252 15.5326 65.0382 15.3412 65.0382 15.1422H65.2038C65.2583 15.3485 65.4307 15.3412 65.6154 15.3412H69.1602C69.3449 15.3412 69.5164 15.3345 69.5304 15.1281L69.6949 15.1556C69.6685 15.3412 69.641 15.5262 69.6204 15.7121C69.6052 15.8976 69.6052 16.0832 69.6052 16.2682L69.3997 16.3444C69.3871 16.0905 69.3525 15.6845 68.8922 15.6845H67.7655V19.3384C67.7655 19.8681 68.0065 19.9285 68.3355 19.9285H68.4662V20.1355C68.1983 20.1355 67.7178 20.1085 67.3466 20.1085C66.9353 20.1085 66.4533 20.1355 66.1856 20.1355V19.9285H66.3161C66.6946 19.9285 66.8866 19.8948 66.8866 19.3528V15.6845H65.7602ZM69.9482 19.9285H70.0444C70.2924 19.9285 70.5521 19.8951 70.5521 19.5375V15.9395C70.5521 15.5813 70.2924 15.5473 70.0444 15.5473H69.9482V15.3412C70.2168 15.3412 70.6281 15.3682 70.9641 15.3682C71.3085 15.3682 71.7204 15.3412 72.0438 15.3412V15.5473H71.9477C71.6999 15.5473 71.4384 15.5813 71.4384 15.9395V19.5375C71.4384 19.8951 71.6999 19.9285 71.9477 19.9285H72.0438V20.1355C71.7137 20.1355 71.3015 20.1085 70.9585 20.1085C70.6213 20.1085 70.2168 20.1355 69.9482 20.1355V19.9285ZM74.7829 15.2386C76.2473 15.2386 77.4142 16.1456 77.4142 17.6085C77.4142 19.1883 76.2807 20.2384 74.8184 20.2384C73.361 20.2384 72.249 19.2496 72.249 17.7729C72.249 16.3447 73.3546 15.2386 74.7829 15.2386ZM74.8867 19.9361C76.2195 19.9361 76.4514 18.7609 76.4514 17.7598C76.4514 16.7554 75.9105 15.5403 74.7697 15.5403C73.5674 15.5403 73.2106 16.612 73.2106 17.5314C73.2106 18.7609 73.7738 19.9361 74.8867 19.9361ZM82.0425 18.7817L82.0565 18.7682V16.1931C82.0565 15.6297 81.664 15.5473 81.4579 15.5473H81.309V15.3412C81.6306 15.3412 81.9469 15.3685 82.2685 15.3685C82.5514 15.3685 82.8329 15.3412 83.1149 15.3412V15.5473H83.0111C82.7232 15.5473 82.3998 15.6024 82.3998 16.4194V19.5451C82.3998 19.7852 82.4063 20.0253 82.4412 20.2381H82.1806L78.6425 16.2954V19.1256C78.6425 19.723 78.7595 19.9285 79.2878 19.9285H79.4051V20.1355C79.1096 20.1355 78.8149 20.1085 78.5194 20.1085C78.2104 20.1085 77.8935 20.1355 77.5842 20.1355V19.9285H77.6812C78.1559 19.9285 78.2987 19.6063 78.2987 19.0576V16.1647C78.2987 15.7807 77.9844 15.5473 77.6739 15.5473H77.5842V15.3412C77.8457 15.3412 78.1137 15.3685 78.3743 15.3685C78.5801 15.3685 78.7789 15.3412 78.9856 15.3412L82.0425 18.7817ZM84.2184 19.1534C84.151 19.3865 84.0677 19.5662 84.0677 19.6887C84.0677 19.8951 84.3571 19.9285 84.5822 19.9285H84.659V20.1355C84.384 20.1205 84.102 20.1088 83.8273 20.1088C83.5793 20.1088 83.333 20.1205 83.0868 20.1355V19.9285H83.1257C83.3946 19.9285 83.6221 19.7708 83.7235 19.4818L84.8241 16.3306C84.9129 16.0764 85.0372 15.7329 85.0771 15.4778C85.2973 15.4034 85.5717 15.2662 85.7033 15.1835C85.723 15.1762 85.7367 15.1691 85.7576 15.1691C85.7781 15.1691 85.7913 15.1691 85.805 15.1902C85.8259 15.2451 85.847 15.3069 85.8678 15.3617L87.1308 18.9541C87.2132 19.1942 87.2952 19.448 87.3855 19.655C87.4679 19.8473 87.6128 19.9285 87.8388 19.9285H87.8807V20.1355C87.5711 20.1205 87.2618 20.1088 86.9317 20.1088C86.596 20.1088 86.2518 20.1205 85.9015 20.1355V19.9285H85.9774C86.1343 19.9285 86.404 19.9018 86.404 19.7298C86.404 19.6409 86.3416 19.4557 86.265 19.2352L85.9982 18.4387H84.4389L84.2184 19.1534ZM85.2222 16.1105H85.2084L84.5687 18.0544H85.8543L85.2222 16.1105ZM89.6113 19.4621C89.6113 19.7374 89.8022 19.8192 90.022 19.8473C90.3038 19.8681 90.6128 19.8681 90.9297 19.8333C91.2176 19.7987 91.4648 19.6342 91.5882 19.4621C91.6978 19.3108 91.7594 19.1188 91.8013 18.9676H92.0004C91.925 19.3589 91.8286 19.7444 91.7456 20.1355C91.1428 20.1355 90.5363 20.1088 89.9335 20.1088C89.3281 20.1088 88.7245 20.1355 88.1199 20.1355V19.9285H88.2146C88.463 19.9285 88.7315 19.8951 88.7315 19.4689V15.9392C88.7315 15.5813 88.463 15.5473 88.2146 15.5473H88.1199V15.3412C88.4832 15.3412 88.8409 15.3685 89.2044 15.3685C89.5559 15.3685 89.8986 15.3412 90.2493 15.3412V15.5473H90.0766C89.8162 15.5473 89.6113 15.5549 89.6113 15.9181V19.4621Z"
      fill="white"
    />
    <path
      fill-rule="evenodd"
      clip-rule="evenodd"
      d="M30.3006 12.1206C30.3006 18.667 24.3117 24.0482 17.7507 24.0163H12.1045C5.46504 24.0482 0 18.6685 0 12.1206C0 4.96344 5.46504 0.014367 12.1045 0.0164185H17.7507C24.3117 0.014367 30.3006 4.96227 30.3006 12.1206ZM14.6231 5.49613V18.495C17.2364 17.4909 19.0916 14.9627 19.096 11.9951C19.0916 9.02808 17.2364 6.49843 14.6231 5.49613ZM9.63824 5.49642C7.02636 6.50165 5.17409 9.02984 5.16823 11.9951C5.17409 14.9613 7.02636 17.488 9.63824 18.4923V5.49642ZM1.14648 11.9951C1.14795 5.92736 6.06417 1.01054 12.1311 1.00848C18.2001 1.01054 23.1172 5.92736 23.118 11.9951C23.1172 18.0623 18.2001 22.9782 12.1311 22.98C6.06417 22.9782 1.14795 18.0623 1.14648 11.9951Z"
      fill="white"
    />
  </svg>
