  <svg viewBox="0 0 143 24" fill="none" xmlns="http://www.w3.org/2000/svg">
    <path
      d="M96.241 15.6864L90.2067 0.534409H85.3848L94.9873 23.6707H97.3626L107.139 0.534409H102.354L96.241 15.6864Z"
      fill="white"
    />
    <path
      d="M35.8643 9.1907C33.2156 8.21367 32.4378 7.56923 32.4378 6.35048C32.4378 4.92984 33.8234 3.85021 35.726 3.85021C37.0485 3.85021 38.1354 4.39172 39.2854 5.67712L41.5948 2.6624C39.697 1.00756 37.4263 0.161478 34.9453 0.161478C30.9417 0.161478 27.8877 2.93319 27.8877 6.62507C27.8877 9.73286 29.3098 11.324 33.4553 12.8112C35.1831 13.4188 36.0624 13.8236 36.5063 14.0959C37.3883 14.67 37.8299 15.4826 37.8299 16.4299C37.8299 18.2577 36.3721 19.6119 34.4027 19.6119C32.2975 19.6119 30.6017 18.5623 29.5856 16.6032L26.7339 19.3402C28.7675 22.316 31.2099 23.6348 34.5683 23.6348C39.1554 23.6348 42.3729 20.5946 42.3729 16.2276C42.3729 12.6437 40.8853 11.0213 35.8643 9.1907Z"
      fill="white"
    />
    <path
      d="M43.7656 11.8288C43.7656 18.4593 48.9884 23.6006 55.7097 23.6006C57.6097 23.6006 59.2368 23.2282 61.2436 22.2859V17.1064C59.4791 18.867 57.9162 19.5771 55.9148 19.5771C51.4696 19.5771 48.3144 16.3642 48.3144 11.7963C48.3144 7.46533 51.5693 4.04893 55.7097 4.04893C57.8149 4.04893 59.4085 4.79783 61.2436 6.5871V1.41011C59.3062 0.430246 57.7129 0.0244541 55.8138 0.0244541C49.1267 0.0244541 43.7656 5.26986 43.7656 11.8288Z"
      fill="white"
    />
    <path
      d="M130.273 10.9195H128.984V4.08739H130.343C133.092 4.08739 134.586 5.23546 134.586 7.43084C134.586 9.69861 133.092 10.9195 130.273 10.9195ZM139.129 7.19389C139.129 2.97084 136.21 0.534309 131.12 0.534309H124.575V23.0919H128.984V14.0302H129.559L135.669 23.0919H141.097L133.974 13.5887C137.298 12.9149 139.129 10.6479 139.129 7.19389Z"
      fill="white"
    />
    <path
      d="M109.135 23.0919H121.652V19.2731H113.545V13.1841H121.353V9.3631H113.545V4.35625H121.652V0.534309H109.135V23.0919Z"
      fill="white"
    />
    <path d="M20.6577 23.0919H25.0716V0.534309H20.6577V23.0919Z" fill="white" />
    <path
      d="M11.6354 17.48C10.2485 18.7284 8.44697 19.2731 5.595 19.2731H4.4104V4.35625H5.595C8.44697 4.35625 10.1776 4.86497 11.6354 6.18058C13.1619 7.53562 14.0802 9.63519 14.0802 11.7962C14.0802 13.9616 13.1619 16.1255 11.6354 17.48ZM6.47917 0.534309H0V23.0919H6.44498C9.87215 23.0919 12.3467 22.2858 14.519 20.4878C17.1003 18.3582 18.6268 15.1486 18.6268 11.8287C18.6268 5.17172 13.6374 0.534309 6.47917 0.534309Z"
      fill="white"
    />
    <path
      d="M141.109 1.65276H141.029V1.13459H141.114C141.349 1.13459 141.471 1.21885 141.471 1.38955C141.471 1.56502 141.348 1.65276 141.109 1.65276ZM141.946 1.38228C141.946 0.986913 141.673 0.770727 141.193 0.770727H140.554V2.75348H141.029V1.98447L141.586 2.75348H142.165L141.511 1.93584C141.791 1.8607 141.946 1.65753 141.946 1.38228Z"
      fill="white"
    />
    <path
      d="M141.282 3.17795C140.522 3.17795 139.9 2.54741 139.9 1.7607C139.9 0.971174 140.514 0.340955 141.282 0.340955C142.038 0.340955 142.655 0.985635 142.655 1.7607C142.655 2.54078 142.038 3.17795 141.282 3.17795ZM141.288 0.0297651C140.322 0.0297651 139.556 0.798209 139.556 1.7582C139.556 2.71754 140.331 3.48688 141.288 3.48688C142.229 3.48688 143 2.7093 143 1.7582C143 0.811781 142.229 0.0297651 141.288 0.0297651Z"
      fill="white"
    />
    <circle cx="75" cy="12.0164" r="12" fill="white" />
  </svg>
