<svg viewBox="0 0 143 24" fill="none" xmlns="http://www.w3.org/2000/svg">
<path d="M96.241 15.67L90.2067 0.51799H85.3848L94.9873 23.6543H97.3626L107.139 0.51799H102.354L96.241 15.67Z" fill="#646F87"/>
<path d="M35.8643 9.17428C33.2156 8.19725 32.4378 7.55281 32.4378 6.33406C32.4378 4.91342 33.8234 3.83379 35.726 3.83379C37.0485 3.83379 38.1354 4.3753 39.2854 5.6607L41.5948 2.64598C39.697 0.99114 37.4263 0.14506 34.9453 0.14506C30.9417 0.14506 27.8877 2.91677 27.8877 6.60865C27.8877 9.71644 29.3098 11.3075 33.4553 12.7948C35.1831 13.4023 36.0624 13.8072 36.5063 14.0795C37.3883 14.6536 37.8299 15.4662 37.8299 16.4135C37.8299 18.2413 36.3721 19.5955 34.4027 19.5955C32.2975 19.5955 30.6017 18.5459 29.5856 16.5868L26.7339 19.3238C28.7675 22.2996 31.2099 23.6184 34.5683 23.6184C39.1554 23.6184 42.3729 20.5782 42.3729 16.2112C42.3729 12.6273 40.8853 11.0049 35.8643 9.17428Z" fill="#646F87"/>
<path d="M43.7656 11.8124C43.7656 18.4429 48.9884 23.5842 55.7097 23.5842C57.6097 23.5842 59.2368 23.2118 61.2436 22.2695V17.09C59.4791 18.8506 57.9162 19.5606 55.9148 19.5606C51.4696 19.5606 48.3144 16.3478 48.3144 11.7799C48.3144 7.44891 51.5693 4.03251 55.7097 4.03251C57.8149 4.03251 59.4085 4.78141 61.2436 6.57068V1.39369C59.3062 0.413828 57.7129 0.00803566 55.8138 0.00803566C49.1267 0.00803566 43.7656 5.25344 43.7656 11.8124Z" fill="#646F87"/>
<path d="M130.273 10.9031H128.984V4.07098H130.343C133.092 4.07098 134.586 5.21904 134.586 7.41442C134.586 9.68219 133.092 10.9031 130.273 10.9031ZM139.129 7.17747C139.129 2.95442 136.21 0.517891 131.12 0.517891H124.575V23.0754H128.984V14.0137H129.559L135.669 23.0754H141.097L133.974 13.5722C137.298 12.8985 139.129 10.6314 139.129 7.17747Z" fill="#646F87"/>
<path d="M109.135 23.0754H121.652V19.2566H113.545V13.1677H121.353V9.34668H113.545V4.33983H121.652V0.517891H109.135V23.0754Z" fill="#646F87"/>
<path d="M20.6577 23.0754H25.0716V0.517891H20.6577V23.0754Z" fill="#646F87"/>
<path d="M11.6354 17.4636C10.2485 18.712 8.44697 19.2566 5.595 19.2566H4.4104V4.33983H5.595C8.44697 4.33983 10.1776 4.84855 11.6354 6.16416C13.1619 7.5192 14.0802 9.61877 14.0802 11.7798C14.0802 13.9452 13.1619 16.1091 11.6354 17.4636ZM6.47917 0.517891H0V23.0754H6.44498C9.87215 23.0754 12.3467 22.2694 14.519 20.4714C17.1003 18.3418 18.6268 15.1322 18.6268 11.8123C18.6268 5.1553 13.6374 0.517891 6.47917 0.517891Z" fill="#646F87"/>
<path d="M141.109 1.63634H141.029V1.11817H141.114C141.349 1.11817 141.471 1.20243 141.471 1.37314C141.471 1.54861 141.348 1.63634 141.109 1.63634ZM141.946 1.36587C141.946 0.970495 141.673 0.754309 141.193 0.754309H140.554V2.73706H141.029V1.96805L141.586 2.73706H142.165L141.511 1.91942C141.791 1.84428 141.946 1.64111 141.946 1.36587Z" fill="#646F87"/>
<path d="M141.282 3.16153C140.522 3.16153 139.9 2.53099 139.9 1.74429C139.9 0.954756 140.514 0.324537 141.282 0.324537C142.038 0.324537 142.655 0.969216 142.655 1.74429C142.655 2.52436 142.038 3.16153 141.282 3.16153ZM141.288 0.0133467C140.322 0.0133467 139.556 0.78179 139.556 1.74178C139.556 2.70112 140.331 3.47046 141.288 3.47046C142.229 3.47046 143 2.69288 143 1.74178C143 0.795362 142.229 0.0133467 141.288 0.0133467Z" fill="#646F87"/>
<circle cx="75" cy="12" r="12" fill="#646F87"/>
</svg>
