  <svg viewBox="0 0 44 24" fill="none" xmlns="http://www.w3.org/2000/svg">
    <path
      d="M4.07477 17.5176H4.2544L4.14095 19.1145H0V18.9339H0.103997C0.349807 18.9339 0.510529 18.8958 0.586163 18.8293C0.661796 18.7628 0.699613 18.6772 0.727976 18.5727C0.746884 18.4681 0.756339 18.202 0.756339 17.7743V15.2649C0.756339 14.8752 0.746884 14.6186 0.727976 14.4951C0.709068 14.3715 0.661796 14.2859 0.586163 14.2384C0.510529 14.1909 0.349807 14.1624 0.113451 14.1624V13.9913H3.6966L3.81006 15.2649H3.63988C3.56425 14.9038 3.46025 14.6566 3.3468 14.5046C3.23335 14.3525 3.10099 14.2574 2.94027 14.2194C2.77954 14.1814 2.53373 14.1624 2.18393 14.1624H1.49377V16.3105H2.02321C2.26902 16.3105 2.43919 16.2915 2.53373 16.244C2.62828 16.2059 2.69446 16.1394 2.72282 16.0539C2.75118 15.9683 2.77009 15.7972 2.77009 15.5406H2.94027V17.299H2.77009C2.77009 17.0139 2.75118 16.8238 2.70391 16.7287C2.65664 16.6337 2.59046 16.5671 2.49592 16.5386C2.40138 16.5101 2.25011 16.4911 2.04211 16.4911H1.49377V17.7077C1.49377 18.316 1.53159 18.6677 1.60722 18.7818C1.68285 18.8863 1.89085 18.9434 2.22174 18.9434H2.59046C2.85518 18.9434 3.07263 18.9053 3.2428 18.8388C3.41298 18.7723 3.5737 18.6297 3.72497 18.4111C3.86678 18.1925 3.98969 17.8978 4.07477 17.5176ZM11.5625 15.6166L11.9029 14.8087C11.988 14.5996 12.092 14.438 12.2054 14.3335C12.3189 14.2289 12.4607 14.1719 12.6119 14.1624V13.9913H11.0898V14.1624C11.4869 14.1719 11.6854 14.324 11.6854 14.6091C11.6854 14.7517 11.5909 15.0653 11.3924 15.5311L10.2389 18.3636L8.80189 14.9608C8.68844 14.6947 8.63171 14.5236 8.63171 14.4475C8.63171 14.3335 8.67899 14.2574 8.77353 14.2194C8.86807 14.1814 9.0477 14.1624 9.31242 14.1624V13.9913H7.15685V14.1624C7.39321 14.1719 7.56339 14.2099 7.66738 14.2954C7.77138 14.381 7.87538 14.5426 7.96992 14.7802C8.0361 14.9608 8.09282 15.0844 8.12119 15.1604L9.84186 19.238H10.0688L11.5625 15.6166ZM15.6751 16.5196C15.6751 17.3275 15.9304 17.9834 16.4409 18.4681C16.9514 18.9624 17.6038 19.2095 18.3979 19.2095C19.211 19.2095 19.8728 18.9624 20.3739 18.4681C20.8749 17.9739 21.1208 17.337 21.1208 16.5386C21.1208 15.7212 20.856 15.0749 20.3361 14.5996C19.8161 14.1244 19.1637 13.8867 18.379 13.8867C17.6038 13.8867 16.9609 14.1244 16.4504 14.6091C15.9304 15.0939 15.6751 15.7212 15.6751 16.5196ZM16.5165 16.5386C16.5165 15.7307 16.6773 15.1129 16.9987 14.7042C17.3202 14.2859 17.7834 14.0863 18.3885 14.0863C19.003 14.0863 19.4663 14.2954 19.7877 14.7232C20.1092 15.1509 20.2699 15.7592 20.2699 16.5576C20.2699 17.3751 20.1092 17.9929 19.7783 18.4016C19.4474 18.8103 19.003 19.0194 18.4452 19.0194C17.8023 19.0194 17.3202 18.8103 16.9987 18.4016C16.6773 17.9834 16.5165 17.3655 16.5165 16.5386ZM28.4856 17.6032C28.3722 18.0119 28.2492 18.3065 28.1169 18.4966C27.9845 18.6867 27.8427 18.8008 27.6914 18.8578C27.5402 18.9149 27.3133 18.9434 27.0107 18.9434H26.6326C26.3489 18.9434 26.1599 18.9149 26.0748 18.8673C25.9897 18.8198 25.933 18.7438 25.9141 18.6487C25.8951 18.5537 25.8857 18.3255 25.8857 17.9549V15.2745C25.8857 14.8467 25.8951 14.5806 25.9235 14.4665C25.9519 14.3525 25.9991 14.2764 26.0748 14.2384C26.1504 14.2004 26.3111 14.1719 26.5569 14.1719H26.7744V13.9913H24.373V14.1624H24.4865C24.7417 14.1624 24.9024 14.1814 24.9781 14.2289C25.0537 14.2764 25.101 14.3525 25.1294 14.476C25.1483 14.5901 25.1672 14.8562 25.1672 15.2649V17.7743C25.1672 18.202 25.1577 18.4776 25.1294 18.5917C25.101 18.7057 25.0537 18.7913 24.9686 18.8483C24.8835 18.9053 24.7417 18.9339 24.5243 18.9339H24.373V19.1049H28.618L28.6558 17.5937H28.4856V17.6032ZM35.7937 15.6166L36.1246 14.8087C36.2097 14.5996 36.3137 14.438 36.4272 14.3335C36.5406 14.2289 36.6824 14.1719 36.8337 14.1624V13.9913H35.3116V14.1624C35.7086 14.1719 35.9072 14.324 35.9072 14.6091C35.9072 14.7517 35.8126 15.0653 35.6141 15.5311L34.4796 18.3731L33.0425 14.9703C32.9291 14.7042 32.8724 14.5331 32.8724 14.457C32.8724 14.343 32.9196 14.2669 33.0142 14.2289C33.1087 14.1909 33.2884 14.1719 33.5531 14.1719V13.9913H31.3975V14.1624C31.6339 14.1719 31.804 14.2099 31.908 14.2954C32.012 14.381 32.116 14.5426 32.2106 14.7802C32.2768 14.9608 32.3335 15.0844 32.3618 15.1604L34.0825 19.238H34.3094L35.7937 15.6166ZM43.8298 17.5176C43.7447 17.8978 43.6218 18.1925 43.4706 18.4111C43.3193 18.6297 43.1586 18.7723 42.9884 18.8388C42.8182 18.9053 42.6008 18.9434 42.3361 18.9434H41.9673C41.6364 18.9434 41.4284 18.8863 41.3528 18.7818C41.2772 18.6772 41.2394 18.316 41.2394 17.7077V16.4911H41.7877C42.0052 16.4911 42.1564 16.5101 42.2415 16.5386C42.3361 16.5671 42.4022 16.6337 42.4495 16.7287C42.4968 16.8238 42.5157 17.0139 42.5157 17.299H42.6859V15.5406H42.5157C42.5157 15.7972 42.4968 15.9588 42.4684 16.0539C42.4401 16.1394 42.3739 16.2059 42.2793 16.244C42.1848 16.2915 42.0146 16.3105 41.7688 16.3105H41.2394V14.1624H41.9295C42.2793 14.1624 42.5346 14.1814 42.6859 14.2194C42.8466 14.2574 42.9789 14.3525 43.0924 14.5046C43.2058 14.6566 43.3004 14.9038 43.3855 15.2649H43.5556L43.4422 13.9913H39.859V14.1624C40.1049 14.1624 40.2561 14.1909 40.3318 14.2384C40.4074 14.2859 40.4547 14.3715 40.4736 14.4951C40.4925 14.6186 40.5019 14.8752 40.5019 15.2649V17.7743C40.5019 18.202 40.4925 18.4681 40.4736 18.5727C40.4547 18.6772 40.4074 18.7628 40.3318 18.8293C40.2561 18.8958 40.0954 18.9339 39.8496 18.9339H39.7456V19.1049H43.8865L44 17.5081H43.8298V17.5176ZM28.7881 0H15.3442V1.02653C17.0271 1.30218 18.1143 3.35525 18.1143 3.35525C18.1143 3.35525 19.4284 2.96554 20.6291 3.08911C20.7804 2.62337 22.2742 0.722376 24.581 0.722376C26.8878 0.722376 27.9656 2.1101 27.9656 2.1101L28.7881 2.06257V0ZM18.5019 6.39683C18.5019 6.39683 18.2939 8.90614 15.3253 9.94218L15.2875 11.0352H28.807V8.64951L28.1074 8.6305C28.1074 8.6305 26.7366 10.3129 24.4865 10.2178C22.2269 10.1228 20.7615 8.55446 20.0052 6.83406L18.5019 6.39683Z"
      fill="#717174"
    />
    <path
      d="M16.4576 4.91862L16.2496 4.66198C16.6561 4.16773 19.4262 2.5804 22.6974 4.23426C25.9686 5.89763 28.2187 4.60495 28.2187 4.60495L28.3983 4.95664C27.1787 5.91664 24.3519 6.66753 21.7898 5.19426C19.2277 3.72099 16.4576 4.91862 16.4576 4.91862Z"
      fill="#002D62"
    />
    <path
      d="M15.3987 6.34436L15.2002 6.08773C15.6067 5.58396 18.3768 3.99664 21.6291 5.66C24.9002 7.32337 27.1503 6.0307 27.1503 6.0307L27.3394 6.38238C26.1198 7.34238 23.293 8.10278 20.7309 6.62C18.1688 5.14674 15.3987 6.34436 15.3987 6.34436Z"
      fill="#002D62"
    />
    <path
      d="M18.0254 22.3596C18.0254 22.3026 18.0065 22.2551 17.9687 22.217C17.9308 22.1885 17.8836 22.1695 17.8268 22.1695C17.7701 22.1695 17.7134 22.1885 17.6661 22.217C17.6189 22.2456 17.5527 22.3026 17.4676 22.3786L17.4391 22.4051C17.3271 22.5089 17.2231 22.6054 17.1272 22.7018C17.0214 22.7993 16.9157 22.9133 16.7945 23.0439L16.768 23.0725H16.7585L17.1934 21.2285L17.1745 21.2L16.5127 21.238L16.4843 21.3426C16.5222 21.3521 16.56 21.3521 16.5978 21.3521C16.6356 21.3521 16.664 21.3616 16.6923 21.3711C16.7207 21.3806 16.7396 21.3996 16.7491 21.4281C16.768 21.4471 16.768 21.4852 16.768 21.5232V21.5802C16.768 21.592 16.7644 21.6037 16.7594 21.6199C16.7563 21.63 16.7527 21.6417 16.7491 21.6562L16.2196 23.9469H16.5505L16.7018 23.2531L16.9098 23.082C16.9476 23.177 16.9854 23.2721 17.0232 23.3766C17.061 23.4811 17.1082 23.5855 17.1555 23.69C17.2027 23.8041 17.2596 23.8804 17.3069 23.9184C17.3636 23.9564 17.4203 23.985 17.4959 23.985C17.5547 23.985 17.606 23.9775 17.663 23.9691L17.685 23.966C17.7512 23.9469 17.8363 23.9184 17.9403 23.8709L17.9687 23.7568C17.9403 23.7663 17.9025 23.7759 17.8552 23.7854C17.8079 23.7949 17.7701 23.7949 17.7418 23.7949C17.6756 23.7949 17.6283 23.7759 17.5716 23.7378C17.5243 23.6998 17.477 23.6333 17.4298 23.5477C17.4185 23.5213 17.4043 23.4904 17.3882 23.4556C17.3639 23.4028 17.3354 23.3408 17.3069 23.2721C17.2596 23.158 17.2029 23.0155 17.1367 22.8444C17.2123 22.7683 17.288 22.7018 17.3636 22.6448C17.4298 22.5877 17.4959 22.5497 17.5621 22.5117C17.5762 22.5174 17.5895 22.523 17.6022 22.5285C17.632 22.5412 17.6585 22.5525 17.685 22.5592C17.7228 22.5687 17.7607 22.5782 17.7985 22.5782C17.8552 22.5782 17.9119 22.5592 17.9497 22.5117C18.0065 22.4642 18.0254 22.4071 18.0254 22.3596Z"
      fill="#002D62"
    />
    <path
      fill-rule="evenodd"
      clip-rule="evenodd"
      d="M9.63948 22.8349C9.63948 22.6258 9.59221 22.4642 9.48821 22.3406C9.38422 22.217 9.2424 22.16 9.06277 22.16C8.98714 22.16 8.9115 22.179 8.82642 22.217C8.74133 22.2551 8.65624 22.3216 8.54279 22.4166H8.53334L8.79805 21.238L8.77915 21.2095L8.1268 21.2475L8.09844 21.3521C8.13626 21.3616 8.17407 21.3616 8.21188 21.3616C8.24969 21.3616 8.27806 21.3711 8.30642 21.3806C8.33478 21.3901 8.35371 21.4091 8.36316 21.4376C8.38207 21.4566 8.38207 21.4947 8.38207 21.5327C8.38207 21.5517 8.38207 21.5707 8.37261 21.5897C8.37261 21.6087 8.36316 21.6372 8.3537 21.6562L7.8999 23.6713C7.91827 23.7021 7.9406 23.7289 7.96177 23.7543C7.97328 23.7681 7.98445 23.7815 7.99444 23.7949C8.03226 23.8329 8.07953 23.8709 8.13626 23.8994C8.19298 23.9279 8.25916 23.9564 8.3348 23.966C8.41043 23.985 8.50497 23.9945 8.59952 23.9945C8.73187 23.9945 8.86423 23.966 8.97768 23.8994C9.10059 23.8424 9.20459 23.7568 9.29913 23.6523C9.39367 23.5477 9.4693 23.4242 9.52603 23.2816C9.61112 23.139 9.63948 22.9964 9.63948 22.8349ZM9.279 22.8347C9.279 22.9677 9.2601 23.0913 9.23173 23.2244C9.20337 23.3479 9.1561 23.462 9.08992 23.5666C9.03319 23.6616 8.95756 23.7376 8.88193 23.7852C8.79684 23.8422 8.71175 23.8707 8.61721 23.8707C8.56994 23.8707 8.52266 23.8612 8.48485 23.8517L8.3714 23.7947C8.34304 23.7757 8.32413 23.7472 8.30522 23.7186C8.28631 23.6901 8.27686 23.6616 8.27686 23.6426L8.51321 22.5875C8.52267 22.578 8.53212 22.5696 8.54157 22.5611C8.56048 22.5442 8.57939 22.5273 8.5983 22.502C8.62666 22.4735 8.66448 22.445 8.7023 22.426L8.81575 22.3689C8.85356 22.3499 8.89138 22.3499 8.9292 22.3499C8.99538 22.3499 9.06156 22.3594 9.10883 22.3879C9.1561 22.4165 9.19392 22.445 9.22228 22.4925C9.25064 22.5305 9.26955 22.5875 9.279 22.6541C9.27281 22.6915 9.27473 22.7288 9.2768 22.7689C9.27788 22.7899 9.279 22.8117 9.279 22.8347Z"
      fill="#002D62"
    />
    <path
      fill-rule="evenodd"
      clip-rule="evenodd"
      d="M11.71 23.7188C11.7194 23.7949 11.7383 23.8614 11.795 23.9089C11.8423 23.9564 11.9085 23.985 11.9936 23.985C12.0692 23.985 12.1259 23.9755 12.1827 23.9564C12.1959 23.9511 12.2122 23.945 12.231 23.938C12.2792 23.9199 12.3442 23.8956 12.419 23.8614L12.4474 23.7473C12.4285 23.7568 12.3907 23.7663 12.3528 23.7663C12.315 23.7759 12.2772 23.7759 12.2583 23.7759C12.1921 23.7759 12.1449 23.7663 12.1165 23.7378C12.0881 23.7093 12.0692 23.6713 12.0692 23.6048C12.0692 23.5822 12.0751 23.5537 12.0823 23.5192L12.0881 23.4907C12.0976 23.4337 12.107 23.3957 12.1165 23.3576L12.3812 22.2075L12.3623 22.179L12.0409 22.2646C11.9936 22.236 11.9369 22.2075 11.8612 22.1885C11.7856 22.1695 11.71 22.1505 11.6249 22.1505C11.4925 22.1505 11.3696 22.179 11.2372 22.2456C11.1143 22.3121 11.0009 22.3976 10.9158 22.5022C10.8213 22.6162 10.7456 22.7398 10.6889 22.8729C10.6322 23.0155 10.6038 23.158 10.6038 23.3006C10.6038 23.5097 10.6511 23.6808 10.7456 23.8044C10.8402 23.9279 10.9725 23.985 11.1427 23.985C11.2089 23.985 11.2656 23.9755 11.3223 23.9564C11.3791 23.9374 11.4263 23.9089 11.4736 23.8804C11.5208 23.8519 11.5681 23.8234 11.5965 23.7854C11.6343 23.7568 11.6627 23.7283 11.691 23.6998L11.71 23.6998V23.7188ZM11.7371 23.538C11.652 23.6331 11.5669 23.6996 11.4913 23.7376C11.4157 23.7757 11.3495 23.7947 11.2833 23.7947C11.2171 23.7947 11.1699 23.7852 11.1226 23.7567C11.0848 23.7281 11.0469 23.6996 11.028 23.6521C10.9997 23.6046 10.9902 23.5571 10.9808 23.5C10.9713 23.443 10.9713 23.3765 10.9713 23.3099C10.9713 23.1769 10.9902 23.0533 11.028 22.9202C11.0659 22.7967 11.1131 22.6826 11.1793 22.5971C11.2455 22.502 11.3211 22.426 11.3968 22.3689C11.4818 22.3119 11.5575 22.2834 11.652 22.2834C11.7087 22.2834 11.7655 22.2929 11.8033 22.3119C11.8411 22.3309 11.8789 22.3499 11.8978 22.3879C11.9227 22.413 11.9331 22.4454 11.9416 22.4722L11.9451 22.483C11.9546 22.521 11.9546 22.559 11.9546 22.597L11.7371 23.538Z"
      fill="#002D62"
    />
    <path
      d="M15.2175 23.7663C15.2553 23.7663 15.2931 23.7568 15.312 23.7473L15.2931 23.8614C15.1891 23.9089 15.104 23.9374 15.0473 23.9564C14.9906 23.9755 14.9244 23.985 14.8677 23.985C14.7731 23.985 14.6975 23.9564 14.6502 23.9089C14.6124 23.8614 14.584 23.8044 14.584 23.7283C14.584 23.7141 14.5864 23.6998 14.5888 23.6856C14.5911 23.6713 14.5935 23.657 14.5935 23.6428C14.5935 23.6048 14.603 23.5667 14.6124 23.5287L14.792 22.8634C14.8015 22.8063 14.8109 22.7588 14.8204 22.7208C14.8299 22.6828 14.8299 22.6543 14.8299 22.6258C14.8299 22.5402 14.8109 22.4832 14.7731 22.4357C14.7353 22.3881 14.6786 22.3691 14.603 22.3691C14.5368 22.3691 14.4517 22.3976 14.3666 22.4452C14.2721 22.4927 14.187 22.5687 14.1113 22.6543L13.8088 23.9564H13.4779L13.7426 22.8063C13.7521 22.7778 13.7615 22.7398 13.771 22.6828L13.7768 22.6484C13.784 22.6067 13.7899 22.5723 13.7899 22.5497C13.7899 22.4832 13.771 22.4357 13.7521 22.4166C13.7332 22.3881 13.6859 22.3786 13.6197 22.3786C13.6008 22.3786 13.563 22.3786 13.5252 22.3881C13.5086 22.3923 13.492 22.3946 13.477 22.3968C13.4578 22.3995 13.4412 22.4018 13.4306 22.4071L13.459 22.2931C13.5535 22.2456 13.6292 22.217 13.7048 22.198C13.771 22.179 13.8372 22.1695 13.8844 22.1695C13.979 22.1695 14.0452 22.198 14.083 22.2456C14.1208 22.2931 14.1491 22.3596 14.1491 22.4547H14.1586C14.2815 22.3596 14.395 22.2741 14.4895 22.2265C14.584 22.179 14.688 22.1505 14.8109 22.1505C14.9244 22.1505 15.0095 22.179 15.0757 22.2456C15.1418 22.3121 15.1702 22.3976 15.1702 22.5022C15.1702 22.5212 15.1702 22.5592 15.1608 22.6162C15.1608 22.6733 15.1513 22.7208 15.1324 22.7778L14.9811 23.3481C14.9717 23.3861 14.9622 23.4336 14.9528 23.4811L14.9469 23.5097C14.9398 23.5442 14.9339 23.5727 14.9339 23.5953C14.9339 23.6618 14.9528 23.7093 14.9811 23.7378C15.0095 23.7663 15.0568 23.7759 15.1229 23.7759C15.1418 23.7759 15.1797 23.7759 15.2175 23.7663Z"
      fill="#002D62"
    />
    <path
      fill-rule="evenodd"
      clip-rule="evenodd"
      d="M22.138 22.3501V22.3596H23.1023L23.0739 22.4737L23.0456 22.4783C22.9955 22.4865 22.9388 22.4958 22.8754 22.5117C22.7998 22.5307 22.7241 22.5687 22.6674 22.6258C22.6391 22.6448 22.6012 22.6923 22.5634 22.7493C22.5359 22.7825 22.5084 22.8222 22.479 22.8645C22.4579 22.8949 22.4358 22.9267 22.4121 22.9584C22.3649 23.0155 22.3082 23.0915 22.242 23.1865C22.1758 23.2816 22.1096 23.3576 22.0529 23.4147C22.0907 23.4907 22.138 23.5572 22.1852 23.6143C22.2325 23.6808 22.2798 23.7188 22.3176 23.7473C22.3554 23.7759 22.4121 23.7949 22.4972 23.8139C22.5823 23.8329 22.6485 23.8424 22.7052 23.8424L22.6769 23.9564H21.9962L21.7976 23.6333C21.7693 23.657 21.7433 23.6784 21.7173 23.6998C21.6913 23.7212 21.6653 23.7426 21.6369 23.7663C21.5802 23.8139 21.5235 23.8519 21.4478 23.8899C21.3816 23.9374 21.306 23.966 21.2398 23.985C21.1642 24.004 21.098 24.0135 21.0224 24.0135C20.8427 24.0135 20.6915 23.966 20.578 23.8614C20.4551 23.7568 20.3984 23.6143 20.3984 23.4432C20.3984 23.2626 20.4646 23.101 20.5875 22.9584C20.7198 22.8159 20.9089 22.6828 21.1642 22.5497C21.1498 22.5178 21.1353 22.4868 21.1215 22.457C21.0899 22.389 21.061 22.3269 21.0413 22.2741C21.0129 22.198 20.994 22.1125 20.994 22.0269C20.994 21.9224 21.0129 21.8368 21.0507 21.7513C21.0886 21.6753 21.1453 21.5992 21.2115 21.5422C21.2682 21.4852 21.3438 21.4376 21.4384 21.4091C21.5329 21.3806 21.618 21.3616 21.7125 21.3616C21.8543 21.3616 21.9678 21.3996 22.0529 21.4757C22.138 21.5422 22.1852 21.6467 22.1852 21.7798C22.1852 21.9319 22.1285 22.0555 22.034 22.1695C21.93 22.2836 21.7598 22.3976 21.514 22.5117C21.5707 22.6194 21.6232 22.7145 21.6688 22.7968C21.6915 22.838 21.7125 22.8761 21.7314 22.9109C21.7645 22.9632 21.8 23.0226 21.839 23.0879C21.878 23.1533 21.9205 23.2246 21.9678 23.3006C22.034 23.2341 22.0907 23.158 22.138 23.0915L22.1584 23.063C22.201 23.0035 22.2486 22.9369 22.2892 22.8634C22.2991 22.8436 22.3089 22.825 22.3183 22.8071C22.3361 22.7734 22.3525 22.7423 22.3649 22.7113C22.3838 22.6638 22.3932 22.6258 22.3932 22.5972C22.3932 22.5687 22.3649 22.5402 22.3176 22.5212C22.2703 22.5022 22.1947 22.4832 22.1096 22.4642L22.138 22.3501ZM21.9477 21.7891C21.9477 21.9222 21.9099 22.0363 21.8342 22.1313C21.7586 22.2264 21.6357 22.3214 21.4655 22.407C21.4182 22.3119 21.3804 22.2264 21.3521 22.1503C21.3237 22.0743 21.3142 21.9982 21.3142 21.9222C21.3142 21.8081 21.3426 21.7131 21.4182 21.6371C21.4844 21.5515 21.579 21.5135 21.683 21.5135C21.768 21.5135 21.8342 21.542 21.8815 21.5895C21.9193 21.6275 21.9477 21.7036 21.9477 21.7891ZM21.4655 23.6996C21.5506 23.6521 21.6357 23.5951 21.7113 23.519C21.6758 23.4584 21.6403 23.399 21.6053 23.3405C21.5471 23.2432 21.4903 23.1483 21.4371 23.0533C21.3615 22.9107 21.2859 22.7681 21.2102 22.6351C21.0779 22.7111 20.9739 22.8062 20.8983 22.9202C20.8226 23.0438 20.7848 23.1673 20.7848 23.3099C20.7848 23.4525 20.8226 23.5571 20.8888 23.6426C20.9644 23.7281 21.059 23.7662 21.1913 23.7662C21.2859 23.7662 21.3804 23.7472 21.4655 23.6996Z"
      fill="#002D62"
    />
    <path
      d="M25.7873 23.985C25.8819 23.985 25.9764 23.9755 26.0426 23.9469C26.1182 23.9279 26.1938 23.8994 26.2789 23.8614L26.3073 23.7283C26.2789 23.7378 26.2317 23.7473 26.1749 23.7568C26.1182 23.7663 26.0804 23.7663 26.0426 23.7663C25.9575 23.7663 25.9008 23.7473 25.8629 23.7188C25.8346 23.6903 25.8157 23.6428 25.8157 23.5763C25.8157 23.5477 25.8157 23.5097 25.8251 23.4717C25.8346 23.4337 25.844 23.3861 25.8535 23.3386L26.0804 22.3596H26.572L26.6098 22.198H26.1182L26.2411 21.6753H25.9197L25.7968 22.198H25.4753L25.4375 22.3596H25.7495L25.4753 23.5477C25.4706 23.562 25.4682 23.5762 25.4659 23.5905C25.4635 23.6048 25.4611 23.619 25.4564 23.6333V23.7093C25.4564 23.7949 25.4848 23.8614 25.532 23.9089C25.5982 23.966 25.6833 23.985 25.7873 23.985Z"
      fill="#002D62"
    />
    <path
      d="M28.8978 22.3026C28.9072 22.3406 28.9167 22.3881 28.9167 22.4452C28.9167 22.4832 28.9167 22.5117 28.8694 22.5497C28.8599 22.5877 28.8505 22.6162 28.8316 22.6448C28.8127 22.6828 28.7938 22.7018 28.7654 22.7208C28.7465 22.7398 28.7087 22.7493 28.6614 22.7493C28.5952 22.7493 28.5479 22.7303 28.5196 22.7018C28.4912 22.6733 28.4723 22.6353 28.4723 22.5972C28.4723 22.5592 28.4818 22.5212 28.5007 22.4737C28.5196 22.4357 28.5385 22.3881 28.5574 22.3406C28.5479 22.3406 28.5196 22.3406 28.4912 22.3501C28.4753 22.3554 28.4564 22.3638 28.4346 22.3734C28.4175 22.3809 28.3985 22.3893 28.3778 22.3976C28.3632 22.4086 28.3458 22.4196 28.3266 22.4317C28.2962 22.451 28.2613 22.473 28.2265 22.5022C28.1698 22.5497 28.1036 22.6067 28.0374 22.6828L27.7538 23.9564H27.4229L27.6782 22.8063C27.6876 22.7778 27.6971 22.7398 27.7065 22.6828C27.7095 22.6649 27.7125 22.6489 27.7151 22.6344C27.721 22.6028 27.7254 22.5788 27.7254 22.5592C27.7254 22.4927 27.7065 22.4452 27.6876 22.4261C27.6687 22.3976 27.6214 22.3881 27.5553 22.3881C27.5363 22.3881 27.4985 22.3881 27.4607 22.3976C27.4441 22.4018 27.4275 22.4041 27.4126 22.4063C27.3934 22.409 27.3768 22.4113 27.3662 22.4166L27.3945 22.3026C27.4891 22.2551 27.5742 22.2265 27.6403 22.2075C27.7065 22.1885 27.7727 22.179 27.82 22.179C27.9145 22.179 27.9807 22.2075 28.0185 22.2551C28.0563 22.3026 28.0752 22.3786 28.0752 22.4832H28.0847C28.2265 22.3596 28.3305 22.2741 28.4061 22.2265C28.4818 22.179 28.5574 22.1505 28.633 22.1505C28.6709 22.1505 28.7087 22.16 28.7465 22.1695C28.7843 22.179 28.8127 22.198 28.841 22.217C28.8694 22.2456 28.8883 22.2741 28.8978 22.3026Z"
      fill="#002D62"
    />
    <path
      d="M30.8737 23.6998C30.8737 23.7759 30.8926 23.8424 30.9399 23.8994C30.9871 23.9564 31.0533 23.985 31.1573 23.985C31.214 23.985 31.2708 23.9755 31.3369 23.9564C31.4031 23.9374 31.4788 23.9089 31.5828 23.8614L31.6111 23.7473C31.5922 23.7568 31.5544 23.7663 31.5166 23.7663C31.4788 23.7759 31.441 23.7759 31.4221 23.7759C31.3559 23.7759 31.3086 23.7663 31.2802 23.7378C31.2519 23.7093 31.2329 23.6713 31.2329 23.6048C31.2329 23.5909 31.238 23.5668 31.2444 23.5364L31.2519 23.5002L31.2802 23.3576L31.5449 22.217L31.526 22.1885L31.214 22.2075L30.9021 23.5477C30.8264 23.6238 30.7413 23.6903 30.6657 23.7283C30.5901 23.7663 30.505 23.7854 30.4293 23.7854C30.3537 23.7854 30.297 23.7663 30.2686 23.7188C30.2308 23.6713 30.2213 23.6143 30.2213 23.5287C30.2213 23.5097 30.2213 23.4717 30.2308 23.4337C30.2403 23.3957 30.2497 23.3481 30.2592 23.2911L30.4104 22.6353C30.4199 22.5972 30.4293 22.5592 30.4293 22.5212C30.4293 22.4989 30.4326 22.4799 30.4353 22.4642C30.4372 22.453 30.4388 22.4435 30.4388 22.4357C30.4388 22.3501 30.4199 22.2931 30.3726 22.2456C30.3253 22.198 30.2592 22.179 30.1646 22.179C30.1173 22.179 30.0606 22.1885 29.9944 22.2075C29.9454 22.2216 29.8859 22.2462 29.8199 22.2734C29.7969 22.2829 29.7731 22.2928 29.7486 22.3026L29.7203 22.4166C29.7392 22.4071 29.777 22.3976 29.8148 22.3881C29.8526 22.3786 29.8904 22.3691 29.9094 22.3691C29.9755 22.3691 30.0228 22.3786 30.0417 22.3976C30.0606 22.4166 30.0701 22.4642 30.0701 22.5307C30.0701 22.5687 30.0701 22.6067 30.0606 22.6448C30.0512 22.6828 30.0417 22.7303 30.0323 22.7873L29.8999 23.3481C29.8888 23.3927 29.881 23.4307 29.8745 23.4622C29.8699 23.4845 29.866 23.5035 29.8621 23.5192C29.8621 23.5396 29.8594 23.56 29.8568 23.5789C29.8547 23.5952 29.8526 23.6105 29.8526 23.6238C29.8526 23.7283 29.881 23.8139 29.9472 23.8804C30.0134 23.9469 30.0984 23.9755 30.2119 23.9755C30.2875 23.9755 30.3442 23.966 30.3915 23.9564C30.4388 23.9469 30.4861 23.9279 30.5428 23.8994C30.5901 23.8709 30.6373 23.8424 30.6846 23.8044C30.6988 23.7929 30.7138 23.7815 30.7292 23.7699C30.765 23.7427 30.8028 23.714 30.8359 23.6808H30.8737V23.6998Z"
      fill="#002D62"
    />
    <path
      d="M33.587 23.8329C33.4547 23.9469 33.2751 24.004 33.0671 24.004C32.8969 24.004 32.7551 23.9755 32.6511 23.8899C32.5376 23.8234 32.4809 23.7473 32.4809 23.6428C32.4809 23.5953 32.4904 23.5477 32.5282 23.5097C32.5565 23.4622 32.6038 23.4432 32.6511 23.4432C32.6984 23.4432 32.7362 23.4622 32.7645 23.4812C32.7929 23.5002 32.8118 23.5287 32.8307 23.5572C32.8402 23.5762 32.8473 23.5953 32.8543 23.6143C32.8614 23.6333 32.8685 23.6523 32.878 23.6713C32.8924 23.7003 32.9014 23.7294 32.909 23.7542L32.913 23.7671L32.9158 23.7759C32.9347 23.7949 32.9631 23.8139 32.9914 23.8329C33.0198 23.8519 33.0671 23.8614 33.1238 23.8614C33.2467 23.8614 33.3412 23.8329 33.4074 23.7663C33.4736 23.7093 33.502 23.6238 33.502 23.5097C33.502 23.4337 33.4641 23.3671 33.4074 23.3196C33.3507 23.2721 33.2562 23.2246 33.1332 23.1865C33.1163 23.178 33.0954 23.1695 33.0725 23.1601C33.0445 23.1485 33.0132 23.1357 32.982 23.12C32.9253 23.0915 32.878 23.063 32.8402 23.025C32.7929 22.9869 32.7645 22.9489 32.7362 22.8919C32.7078 22.8444 32.6984 22.7778 32.6984 22.7113C32.6984 22.5592 32.7645 22.4261 32.8969 22.3121C33.0387 22.2075 33.1994 22.1505 33.398 22.1505C33.4452 22.1505 33.4925 22.1505 33.5492 22.16C33.5896 22.16 33.6369 22.1739 33.691 22.1898L33.7194 22.198C33.7761 22.217 33.8234 22.2456 33.8612 22.2836C33.899 22.3216 33.9179 22.3691 33.9179 22.4261C33.9179 22.4737 33.899 22.5212 33.8707 22.5592C33.8329 22.5972 33.795 22.6162 33.7383 22.6162C33.7005 22.6162 33.6627 22.6067 33.6343 22.5877C33.606 22.5687 33.5776 22.5402 33.5587 22.5117C33.5538 22.5019 33.5489 22.4927 33.5442 22.4838C33.5306 22.4583 33.5184 22.4353 33.5114 22.4071C33.5092 22.4004 33.507 22.3931 33.5046 22.3855C33.497 22.3607 33.488 22.3316 33.4736 22.3026C33.4547 22.2931 33.4358 22.2836 33.4169 22.2836H33.3507C33.2372 22.2836 33.1427 22.3121 33.086 22.3786C33.0293 22.4357 33.0009 22.5117 33.0009 22.5972C33.0009 22.6828 33.0198 22.7493 33.0765 22.7873C33.1332 22.8349 33.2183 22.8729 33.3412 22.9204C33.502 22.9774 33.6154 23.044 33.691 23.12C33.7572 23.196 33.795 23.2816 33.795 23.3957C33.795 23.5762 33.7289 23.7188 33.587 23.8329Z"
      fill="#002D62"
    />
    <path
      d="M35.251 23.985C35.355 23.985 35.4401 23.9755 35.5063 23.9469C35.5819 23.9279 35.6575 23.8994 35.7426 23.8614L35.771 23.7283C35.7426 23.7378 35.6953 23.7473 35.6386 23.7568C35.5819 23.7663 35.5441 23.7663 35.5063 23.7663C35.4212 23.7663 35.3644 23.7473 35.3266 23.7188C35.2983 23.6903 35.2794 23.6428 35.2794 23.5763C35.2794 23.5477 35.2794 23.5097 35.2888 23.4717C35.2983 23.4337 35.3077 23.3861 35.3172 23.3386L35.5441 22.3596H36.0357L36.0735 22.198H35.5819L35.7048 21.6753H35.3834L35.2605 22.198H34.939L34.9012 22.3596H35.2132L34.939 23.5477C34.9343 23.562 34.9319 23.5762 34.9296 23.5905C34.9272 23.6048 34.9248 23.619 34.9201 23.6333C34.9201 23.6475 34.9177 23.6594 34.9154 23.6713C34.913 23.6832 34.9106 23.6951 34.9106 23.7093C34.9106 23.7949 34.939 23.8614 34.9863 23.9089C35.0525 23.966 35.1375 23.985 35.251 23.985Z"
      fill="#002D62"
    />
  </svg>
