<svg viewBox="0 0 44 24" fill="none" xmlns="http://www.w3.org/2000/svg">
<path d="M4.07477 17.5176H4.2544L4.14095 19.1145H0V18.9339H0.103997C0.349807 18.9339 0.510529 18.8958 0.586163 18.8293C0.661796 18.7628 0.699613 18.6772 0.727976 18.5727C0.746884 18.4681 0.756339 18.202 0.756339 17.7743V15.2649C0.756339 14.8752 0.746884 14.6186 0.727976 14.4951C0.709068 14.3715 0.661796 14.2859 0.586163 14.2384C0.510529 14.1909 0.349807 14.1624 0.113451 14.1624V13.9913H3.6966L3.81006 15.2649H3.63988C3.56425 14.9038 3.46025 14.6566 3.3468 14.5046C3.23335 14.3525 3.10099 14.2574 2.94027 14.2194C2.77954 14.1814 2.53373 14.1624 2.18393 14.1624H1.49377V16.3105H2.02321C2.26902 16.3105 2.43919 16.2915 2.53373 16.244C2.62828 16.2059 2.69446 16.1394 2.72282 16.0539C2.75118 15.9683 2.77009 15.7972 2.77009 15.5406H2.94027V17.299H2.77009C2.77009 17.0139 2.75118 16.8238 2.70391 16.7287C2.65664 16.6337 2.59046 16.5671 2.49592 16.5386C2.40138 16.5101 2.25011 16.4911 2.04211 16.4911H1.49377V17.7077C1.49377 18.316 1.53159 18.6677 1.60722 18.7818C1.68285 18.8863 1.89085 18.9434 2.22174 18.9434H2.59046C2.85518 18.9434 3.07263 18.9053 3.2428 18.8388C3.41298 18.7723 3.5737 18.6297 3.72497 18.4111C3.86678 18.1925 3.98969 17.8978 4.07477 17.5176ZM11.5625 15.6166L11.9029 14.8087C11.988 14.5996 12.092 14.438 12.2054 14.3335C12.3189 14.2289 12.4607 14.1719 12.6119 14.1624V13.9913H11.0898V14.1624C11.4869 14.1719 11.6854 14.324 11.6854 14.6091C11.6854 14.7517 11.5909 15.0653 11.3924 15.5311L10.2389 18.3636L8.80189 14.9608C8.68844 14.6947 8.63171 14.5236 8.63171 14.4475C8.63171 14.3335 8.67899 14.2574 8.77353 14.2194C8.86807 14.1814 9.0477 14.1624 9.31242 14.1624V13.9913H7.15685V14.1624C7.39321 14.1719 7.56339 14.2099 7.66738 14.2954C7.77138 14.381 7.87538 14.5426 7.96992 14.7802C8.0361 14.9608 8.09282 15.0844 8.12119 15.1604L9.84186 19.238H10.0688L11.5625 15.6166ZM15.6751 16.5196C15.6751 17.3275 15.9304 17.9834 16.4409 18.4681C16.9514 18.9624 17.6038 19.2095 18.3979 19.2095C19.211 19.2095 19.8728 18.9624 20.3739 18.4681C20.8749 17.9739 21.1208 17.337 21.1208 16.5386C21.1208 15.7212 20.856 15.0749 20.3361 14.5996C19.8161 14.1244 19.1637 13.8867 18.379 13.8867C17.6038 13.8867 16.9609 14.1244 16.4504 14.6091C15.9304 15.0939 15.6751 15.7212 15.6751 16.5196ZM16.5165 16.5386C16.5165 15.7307 16.6773 15.1129 16.9987 14.7042C17.3202 14.2859 17.7834 14.0863 18.3885 14.0863C19.003 14.0863 19.4663 14.2954 19.7877 14.7232C20.1092 15.1509 20.2699 15.7592 20.2699 16.5576C20.2699 17.3751 20.1092 17.9929 19.7783 18.4016C19.4474 18.8103 19.003 19.0194 18.4452 19.0194C17.8023 19.0194 17.3202 18.8103 16.9987 18.4016C16.6773 17.9834 16.5165 17.3655 16.5165 16.5386ZM28.4856 17.6032C28.3722 18.0119 28.2492 18.3065 28.1169 18.4966C27.9845 18.6867 27.8427 18.8008 27.6914 18.8578C27.5402 18.9149 27.3133 18.9434 27.0107 18.9434H26.6326C26.3489 18.9434 26.1599 18.9149 26.0748 18.8673C25.9897 18.8198 25.933 18.7438 25.9141 18.6487C25.8951 18.5537 25.8857 18.3255 25.8857 17.9549V15.2745C25.8857 14.8467 25.8951 14.5806 25.9235 14.4665C25.9519 14.3525 25.9991 14.2764 26.0748 14.2384C26.1504 14.2004 26.3111 14.1719 26.5569 14.1719H26.7744V13.9913H24.373V14.1624H24.4865C24.7417 14.1624 24.9024 14.1814 24.9781 14.2289C25.0537 14.2764 25.101 14.3525 25.1294 14.476C25.1483 14.5901 25.1672 14.8562 25.1672 15.2649V17.7743C25.1672 18.202 25.1577 18.4776 25.1294 18.5917C25.101 18.7057 25.0537 18.7913 24.9686 18.8483C24.8835 18.9053 24.7417 18.9339 24.5243 18.9339H24.373V19.1049H28.618L28.6558 17.5937H28.4856V17.6032ZM35.7937 15.6166L36.1246 14.8087C36.2097 14.5996 36.3137 14.438 36.4272 14.3335C36.5406 14.2289 36.6824 14.1719 36.8337 14.1624V13.9913H35.3116V14.1624C35.7086 14.1719 35.9072 14.324 35.9072 14.6091C35.9072 14.7517 35.8126 15.0653 35.6141 15.5311L34.4796 18.3731L33.0425 14.9703C32.9291 14.7042 32.8724 14.5331 32.8724 14.457C32.8724 14.343 32.9196 14.2669 33.0142 14.2289C33.1087 14.1909 33.2884 14.1719 33.5531 14.1719V13.9913H31.3975V14.1624C31.6339 14.1719 31.804 14.2099 31.908 14.2954C32.012 14.381 32.116 14.5426 32.2106 14.7802C32.2768 14.9608 32.3335 15.0844 32.3618 15.1604L34.0825 19.238H34.3094L35.7937 15.6166ZM43.8298 17.5176C43.7447 17.8978 43.6218 18.1925 43.4706 18.4111C43.3193 18.6297 43.1586 18.7723 42.9884 18.8388C42.8182 18.9053 42.6008 18.9434 42.3361 18.9434H41.9673C41.6364 18.9434 41.4284 18.8863 41.3528 18.7818C41.2772 18.6772 41.2394 18.316 41.2394 17.7077V16.4911H41.7877C42.0052 16.4911 42.1564 16.5101 42.2415 16.5386C42.3361 16.5671 42.4022 16.6337 42.4495 16.7287C42.4968 16.8238 42.5157 17.0139 42.5157 17.299H42.6859V15.5406H42.5157C42.5157 15.7972 42.4968 15.9588 42.4684 16.0539C42.4401 16.1394 42.3739 16.2059 42.2793 16.244C42.1848 16.2915 42.0146 16.3105 41.7688 16.3105H41.2394V14.1624H41.9295C42.2793 14.1624 42.5346 14.1814 42.6859 14.2194C42.8466 14.2574 42.9789 14.3525 43.0924 14.5046C43.2058 14.6566 43.3004 14.9038 43.3855 15.2649H43.5556L43.4422 13.9913H39.859V14.1624C40.1049 14.1624 40.2561 14.1909 40.3318 14.2384C40.4074 14.2859 40.4547 14.3715 40.4736 14.4951C40.4925 14.6186 40.5019 14.8752 40.5019 15.2649V17.7743C40.5019 18.202 40.4925 18.4681 40.4736 18.5727C40.4547 18.6772 40.4074 18.7628 40.3318 18.8293C40.2561 18.8958 40.0954 18.9339 39.8496 18.9339H39.7456V19.1049H43.8865L44 17.5081H43.8298V17.5176ZM28.7881 0H15.3442V1.02653C17.0271 1.30218 18.1143 3.35525 18.1143 3.35525C18.1143 3.35525 19.4284 2.96554 20.6291 3.08911C20.7804 2.62337 22.2742 0.722376 24.581 0.722376C26.8878 0.722376 27.9656 2.1101 27.9656 2.1101L28.7881 2.06257V0ZM16.2518 4.71445L16.4598 4.97109C16.4598 4.97109 19.2299 3.77347 21.792 5.24673C24.3541 6.72 27.1809 5.96911 28.4005 5.00911L28.2209 4.65743C28.2209 4.65743 25.9708 5.9501 22.6996 4.28673C19.4284 2.63287 16.6584 4.2202 16.2518 4.71445ZM18.5019 6.39683C18.5019 6.39683 18.2939 8.90614 15.3253 9.94218L15.2875 11.0352H28.807V8.64951L28.1074 8.6305C28.1074 8.6305 26.7366 10.3129 24.4865 10.2178C22.2269 10.1228 20.7615 8.55446 20.0052 6.83406L18.5019 6.39683ZM15.2024 6.1402L15.4009 6.39683C15.4009 6.39683 18.171 5.19921 20.7331 6.67248C23.2952 8.15525 26.122 7.39485 27.3416 6.43485L27.1526 6.08317C27.1526 6.08317 24.9024 7.37584 21.6313 5.71247C18.379 4.04911 15.6089 5.63644 15.2024 6.1402ZM9.66223 22.8214C9.66223 22.6123 9.61495 22.4507 9.51096 22.3271C9.40696 22.2036 9.26515 22.1465 9.08552 22.1465C9.00988 22.1465 8.93425 22.1655 8.84916 22.2036C8.76407 22.2416 8.67899 22.3081 8.56553 22.4032H8.55608L8.8208 21.2246L8.80189 21.196L8.14955 21.2341L8.12119 21.3386C8.159 21.3481 8.19682 21.3481 8.23464 21.3481C8.27245 21.3481 8.30082 21.3576 8.32918 21.3671C8.35754 21.3766 8.37645 21.3956 8.3859 21.4242C8.40481 21.4432 8.40481 21.4812 8.40481 21.5192C8.40481 21.5382 8.40481 21.5572 8.39536 21.5762C8.39536 21.5952 8.3859 21.6238 8.37645 21.6428L7.92265 23.6578C7.95101 23.7053 7.98883 23.7434 8.01719 23.7814C8.05501 23.8194 8.10228 23.8574 8.159 23.8859C8.21573 23.9145 8.28191 23.943 8.35754 23.9525C8.43318 23.9715 8.52772 23.981 8.62226 23.981C8.75462 23.981 8.88698 23.9525 9.00043 23.8859C9.12333 23.8289 9.22733 23.7434 9.32187 23.6388C9.41642 23.5343 9.49205 23.4107 9.54877 23.2681C9.63386 23.1255 9.66223 22.983 9.66223 22.8214ZM9.30297 22.8309C9.30297 22.964 9.28406 23.0875 9.25569 23.2206C9.22733 23.3442 9.18006 23.4582 9.11388 23.5628C9.05715 23.6578 8.98152 23.7339 8.90589 23.7814C8.8208 23.8384 8.73571 23.8669 8.64117 23.8669C8.5939 23.8669 8.54663 23.8574 8.50881 23.8479C8.47099 23.8289 8.43318 23.8099 8.39536 23.7909C8.367 23.7719 8.34809 23.7434 8.32918 23.7149C8.31027 23.6863 8.30082 23.6578 8.30082 23.6388L8.53717 22.5838C8.56553 22.5552 8.5939 22.5362 8.62226 22.4982C8.65062 22.4697 8.68844 22.4412 8.72626 22.4222C8.76407 22.4032 8.80189 22.3842 8.83971 22.3652C8.87752 22.3461 8.91534 22.3461 8.95316 22.3461C9.01934 22.3461 9.08552 22.3556 9.13279 22.3842C9.18006 22.4127 9.21788 22.4412 9.24624 22.4887C9.2746 22.5267 9.29351 22.5838 9.30297 22.6503C9.29351 22.7073 9.30297 22.7644 9.30297 22.8309ZM11.7327 23.7053C11.7422 23.7814 11.7611 23.8479 11.8178 23.8954C11.8651 23.943 11.9312 23.9715 12.0163 23.9715C12.092 23.9715 12.1487 23.962 12.2054 23.943C12.2527 23.924 12.3378 23.8954 12.4418 23.8479L12.4701 23.7339C12.4512 23.7434 12.4134 23.7529 12.3756 23.7529C12.3378 23.7624 12.3 23.7624 12.281 23.7624C12.2149 23.7624 12.1676 23.7529 12.1392 23.7244C12.1109 23.6958 12.092 23.6578 12.092 23.5913C12.092 23.5628 12.1014 23.5248 12.1109 23.4772C12.1203 23.4202 12.1298 23.3822 12.1392 23.3442L12.404 22.1941L12.385 22.1655L12.0636 22.2511C12.0163 22.2226 11.9596 22.1941 11.884 22.1751C11.8083 22.156 11.7327 22.137 11.6476 22.137C11.5153 22.137 11.3924 22.1655 11.26 22.2321C11.1371 22.2986 11.0236 22.3842 10.9385 22.4887C10.844 22.6028 10.7684 22.7263 10.7116 22.8594C10.6549 23.002 10.6266 23.1446 10.6266 23.2871C10.6266 23.4962 10.6738 23.6673 10.7684 23.7909C10.8629 23.9145 10.9953 23.9715 11.1654 23.9715C11.2316 23.9715 11.2884 23.962 11.3451 23.943C11.4018 23.924 11.4491 23.8954 11.4963 23.8669C11.5436 23.8384 11.5909 23.8099 11.6193 23.7719C11.6571 23.7434 11.6854 23.7149 11.7138 23.6863H11.7327V23.7053ZM11.7611 23.5343C11.676 23.6293 11.5909 23.6958 11.5153 23.7339C11.4396 23.7719 11.3734 23.7909 11.3073 23.7909C11.2411 23.7909 11.1938 23.7814 11.1465 23.7529C11.1087 23.7244 11.0709 23.6958 11.052 23.6483C11.0236 23.6008 11.0142 23.5533 11.0047 23.4962C10.9953 23.4392 10.9953 23.3727 10.9953 23.3061C10.9953 23.1731 11.0142 23.0495 11.052 22.9164C11.0898 22.7929 11.1371 22.6788 11.2033 22.5933C11.2694 22.4982 11.3451 22.4222 11.4207 22.3652C11.5058 22.3081 11.5814 22.2796 11.676 22.2796C11.7327 22.2796 11.7894 22.2891 11.8272 22.3081C11.8651 22.3271 11.9029 22.3461 11.9218 22.3842C11.9501 22.4127 11.9596 22.4507 11.9691 22.4792C11.9785 22.5172 11.9785 22.5552 11.9785 22.5933L11.7611 23.5343ZM15.3348 23.7339C15.3159 23.7434 15.278 23.7529 15.2402 23.7529C15.2024 23.7624 15.1646 23.7624 15.1457 23.7624C15.0795 23.7624 15.0322 23.7529 15.0039 23.7244C14.9755 23.6958 14.9566 23.6483 14.9566 23.5818C14.9566 23.5533 14.9661 23.5152 14.9755 23.4677C14.985 23.4202 14.9944 23.3727 15.0039 23.3347L15.1551 22.7644C15.174 22.7073 15.1835 22.6598 15.1835 22.6028C15.193 22.5457 15.193 22.5077 15.193 22.4887C15.193 22.3842 15.1646 22.2986 15.0984 22.2321C15.0322 22.1655 14.9471 22.137 14.8337 22.137C14.7108 22.137 14.6068 22.1655 14.5122 22.2131C14.4177 22.2606 14.3043 22.3461 14.1813 22.4412H14.1719C14.1719 22.3461 14.1435 22.2796 14.1057 22.2321C14.0679 22.1846 14.0017 22.156 13.9072 22.156C13.8599 22.156 13.7937 22.1655 13.7275 22.1846C13.6519 22.2036 13.5763 22.2321 13.4817 22.2796L13.4534 22.3937C13.4723 22.3842 13.5101 22.3842 13.5479 22.3747C13.5857 22.3652 13.6235 22.3652 13.6425 22.3652C13.7086 22.3652 13.7559 22.3747 13.7748 22.4032C13.7937 22.4222 13.8126 22.4697 13.8126 22.5362C13.8126 22.5648 13.8032 22.6123 13.7937 22.6693C13.7843 22.7263 13.7748 22.7644 13.7654 22.7929L13.5006 23.943H13.8315L14.1341 22.6408C14.2097 22.5552 14.2948 22.4792 14.3893 22.4317C14.4744 22.3842 14.5595 22.3556 14.6257 22.3556C14.7013 22.3556 14.7581 22.3747 14.7959 22.4222C14.8337 22.4697 14.8526 22.5267 14.8526 22.6123C14.8526 22.6408 14.8526 22.6693 14.8431 22.7073C14.8337 22.7453 14.8242 22.7929 14.8148 22.8499L14.6352 23.5152C14.6257 23.5533 14.6162 23.5913 14.6162 23.6293C14.6162 23.6578 14.6068 23.6863 14.6068 23.7149C14.6068 23.7909 14.6352 23.8479 14.673 23.8954C14.7202 23.943 14.7959 23.9715 14.8904 23.9715C14.9471 23.9715 15.0133 23.962 15.07 23.943C15.1268 23.924 15.2119 23.8954 15.3159 23.8479L15.3348 23.7339ZM18.0481 22.3461C18.0481 22.2891 18.0292 22.2416 17.9914 22.2036C17.9536 22.175 17.9063 22.156 17.8496 22.156C17.7929 22.156 17.7361 22.175 17.6889 22.2036C17.6416 22.2321 17.5754 22.2891 17.4903 22.3652C17.3674 22.4792 17.254 22.5838 17.15 22.6883C17.0365 22.7929 16.9231 22.9164 16.7907 23.059H16.7813L17.2162 21.215L17.1972 21.1865L16.5355 21.2246L16.5071 21.3291C16.5449 21.3386 16.5827 21.3386 16.6205 21.3386C16.6584 21.3386 16.6867 21.3481 16.7151 21.3576C16.7434 21.3671 16.7624 21.3861 16.7718 21.4147C16.7907 21.4337 16.7907 21.4717 16.7907 21.5097C16.7907 21.5287 16.7907 21.5477 16.7907 21.5667C16.7907 21.5857 16.7813 21.6048 16.7718 21.6428L16.2424 23.9335H16.5733L16.7245 23.2396L16.9325 23.0685C16.9703 23.1636 17.0082 23.2586 17.046 23.3632C17.0838 23.4677 17.1311 23.5723 17.1783 23.6768C17.2256 23.7909 17.2823 23.8669 17.3296 23.9049C17.3863 23.943 17.4431 23.9715 17.5187 23.9715C17.5849 23.9715 17.6416 23.962 17.7078 23.9525C17.774 23.9335 17.859 23.905 17.963 23.8574L17.9914 23.7434C17.963 23.7529 17.9252 23.7624 17.878 23.7719C17.8307 23.7814 17.7929 23.7814 17.7645 23.7814C17.6983 23.7814 17.6511 23.7624 17.5943 23.7244C17.5471 23.6863 17.4998 23.6198 17.4525 23.5343C17.4242 23.4677 17.3769 23.3727 17.3296 23.2586C17.2823 23.1446 17.2256 23.002 17.1594 22.8309C17.2351 22.7549 17.3107 22.6883 17.3863 22.6313C17.4525 22.5743 17.5187 22.5362 17.5849 22.4982C17.6321 22.5172 17.67 22.5362 17.7078 22.5457C17.7456 22.5552 17.7834 22.5648 17.8212 22.5648C17.878 22.5648 17.9347 22.5457 17.9725 22.4982C18.0292 22.4507 18.0481 22.3937 18.0481 22.3461ZM22.1607 22.3366L22.1324 22.4507C22.2174 22.4697 22.2931 22.4887 22.3404 22.5077C22.3876 22.5267 22.416 22.5552 22.416 22.5838C22.416 22.6123 22.4065 22.6503 22.3876 22.6978C22.3687 22.7453 22.3404 22.7929 22.312 22.8499C22.2647 22.9354 22.208 23.0115 22.1607 23.078C22.1134 23.1446 22.0567 23.2206 21.9905 23.2871C21.896 23.135 21.8204 23.002 21.7542 22.8974C21.6975 22.7929 21.6218 22.6598 21.5367 22.4982C21.7826 22.3842 21.9527 22.2701 22.0567 22.156C22.1513 22.042 22.208 21.9184 22.208 21.7663C22.208 21.6333 22.1607 21.5287 22.0756 21.4622C21.9905 21.3861 21.8771 21.3481 21.7353 21.3481C21.6407 21.3481 21.5556 21.3671 21.4611 21.3956C21.3666 21.4242 21.2909 21.4717 21.2342 21.5287C21.168 21.5857 21.1113 21.6618 21.0735 21.7378C21.0357 21.8234 21.0168 21.9089 21.0168 22.0135C21.0168 22.099 21.0357 22.1846 21.064 22.2606C21.0924 22.3366 21.1397 22.4317 21.1869 22.5362C20.9317 22.6693 20.7426 22.8024 20.6102 22.945C20.4873 23.0875 20.4211 23.2491 20.4211 23.4297C20.4211 23.6008 20.4779 23.7434 20.6008 23.8479C20.7142 23.9525 20.8655 24 21.0451 24C21.1208 24 21.1869 23.9905 21.2626 23.9715C21.3287 23.9525 21.4044 23.924 21.4706 23.8764C21.5462 23.8384 21.6029 23.8004 21.6596 23.7529C21.7164 23.7053 21.7636 23.6673 21.8204 23.6198L22.0189 23.943H22.6996L22.728 23.8289C22.6712 23.8289 22.6051 23.8194 22.52 23.8004C22.4349 23.7814 22.3782 23.7624 22.3404 23.7339C22.3025 23.7053 22.2553 23.6673 22.208 23.6008C22.1607 23.5438 22.1134 23.4772 22.0756 23.4012C22.1324 23.3442 22.1985 23.2681 22.2647 23.1731C22.3309 23.078 22.3876 23.002 22.4349 22.945C22.4916 22.8689 22.5389 22.7929 22.5862 22.7358C22.624 22.6788 22.6618 22.6313 22.6902 22.6123C22.7469 22.5552 22.8225 22.5172 22.8982 22.4982C22.9738 22.4792 23.04 22.4697 23.0967 22.4602L23.1251 22.3461H22.1607V22.3366ZM21.7353 23.5152C21.6596 23.5913 21.5746 23.6483 21.4895 23.6958C21.4044 23.7434 21.3098 23.7624 21.2153 23.7624C21.0829 23.7624 20.9884 23.7244 20.9128 23.6388C20.8466 23.5533 20.8088 23.4487 20.8088 23.3061C20.8088 23.1636 20.8466 23.04 20.9222 22.9164C20.9979 22.8024 21.1018 22.7073 21.2342 22.6313C21.3098 22.7644 21.3855 22.9069 21.4611 23.0495C21.5462 23.2016 21.6407 23.3537 21.7353 23.5152ZM21.9716 21.7853C21.9716 21.9184 21.9338 22.0325 21.8582 22.1275C21.7826 22.2226 21.6596 22.3176 21.4895 22.4032C21.4422 22.3081 21.4044 22.2226 21.376 22.1465C21.3477 22.0705 21.3382 21.9945 21.3382 21.9184C21.3382 21.8044 21.3666 21.7093 21.4422 21.6333C21.5084 21.5477 21.6029 21.5097 21.7069 21.5097C21.792 21.5097 21.8582 21.5382 21.9055 21.5857C21.9433 21.6238 21.9716 21.6998 21.9716 21.7853ZM25.8101 23.9715C25.9046 23.9715 25.9991 23.962 26.0653 23.9335C26.141 23.9145 26.2166 23.8859 26.3017 23.8479L26.33 23.7149C26.3017 23.7244 26.2544 23.7339 26.1977 23.7434C26.141 23.7529 26.1031 23.7529 26.0653 23.7529C25.9802 23.7529 25.9235 23.7339 25.8857 23.7053C25.8573 23.6768 25.8384 23.6293 25.8384 23.5628C25.8384 23.5343 25.8384 23.4962 25.8479 23.4582C25.8573 23.4202 25.8668 23.3727 25.8762 23.3251L26.1031 22.3461H26.5948L26.6326 22.1846H26.141L26.2639 21.6618H25.9424L25.8195 22.1846H25.4981L25.4602 22.3461H25.7722L25.4981 23.5343C25.4886 23.5628 25.4886 23.5913 25.4792 23.6198C25.4792 23.6483 25.4792 23.6673 25.4792 23.6958C25.4792 23.7814 25.5075 23.8479 25.5548 23.8954C25.621 23.9525 25.7061 23.9715 25.8101 23.9715ZM28.9394 22.4317C28.9394 22.3747 28.93 22.3271 28.9205 22.2891C28.911 22.2606 28.8921 22.2321 28.8638 22.2036C28.8354 22.1846 28.807 22.1655 28.7692 22.156C28.7314 22.1465 28.6936 22.137 28.6558 22.137C28.5801 22.137 28.5045 22.1655 28.4289 22.2131C28.3532 22.2606 28.2492 22.3461 28.1074 22.4697H28.098C28.098 22.3651 28.0791 22.2891 28.0413 22.2416C28.0034 22.1941 27.9373 22.1655 27.8427 22.1655C27.7954 22.1655 27.7293 22.175 27.6631 22.1941C27.5969 22.2131 27.5118 22.2416 27.4173 22.2891L27.3889 22.4032C27.4078 22.3937 27.4456 22.3937 27.4835 22.3842C27.5213 22.3747 27.5591 22.3747 27.578 22.3747C27.6442 22.3747 27.6914 22.3842 27.7104 22.4127C27.7293 22.4317 27.7482 22.4792 27.7482 22.5457C27.7482 22.5743 27.7387 22.6123 27.7293 22.6693C27.7198 22.7263 27.7104 22.7644 27.7009 22.7929L27.4456 23.943H27.7765L28.0602 22.6693C28.1263 22.5933 28.1925 22.5362 28.2492 22.4887C28.306 22.4412 28.3627 22.4127 28.4005 22.3842C28.4478 22.3651 28.4856 22.3461 28.514 22.3366C28.5423 22.3271 28.5707 22.3271 28.5801 22.3271C28.5612 22.3747 28.5423 22.4222 28.5234 22.4602C28.5045 22.5077 28.4951 22.5457 28.4951 22.5838C28.4951 22.6218 28.514 22.6598 28.5423 22.6883C28.5707 22.7168 28.618 22.7358 28.6841 22.7358C28.7314 22.7358 28.7692 22.7263 28.7881 22.7073C28.8165 22.6883 28.8354 22.6693 28.8543 22.6313C28.8732 22.6028 28.8827 22.5743 28.8921 22.5362C28.9394 22.4982 28.9394 22.4697 28.9394 22.4317ZM30.8964 23.6863C30.8964 23.7624 30.9153 23.8289 30.9626 23.8859C31.0099 23.943 31.0761 23.9715 31.1801 23.9715C31.2368 23.9715 31.2935 23.962 31.3597 23.943C31.4259 23.924 31.5015 23.8954 31.6055 23.8479L31.6339 23.7339C31.615 23.7434 31.5771 23.7529 31.5393 23.7529C31.5015 23.7624 31.4637 23.7624 31.4448 23.7624C31.3786 23.7624 31.3313 23.7529 31.303 23.7244C31.2746 23.6958 31.2557 23.6578 31.2557 23.5913C31.2557 23.5723 31.2651 23.5343 31.2746 23.4867C31.2841 23.4392 31.2935 23.3917 31.303 23.3442L31.5677 22.2036L31.5488 22.1751L31.2368 22.1941L30.9248 23.5343C30.8492 23.6103 30.7641 23.6768 30.6884 23.7149C30.6128 23.7529 30.5277 23.7719 30.4521 23.7719C30.3764 23.7719 30.3197 23.7529 30.2914 23.7053C30.2535 23.6578 30.2441 23.6008 30.2441 23.5152C30.2441 23.4962 30.2441 23.4582 30.2535 23.4202C30.263 23.3822 30.2725 23.3347 30.2819 23.2776L30.4332 22.6218C30.4426 22.5838 30.4521 22.5457 30.4521 22.5077C30.4521 22.4697 30.4615 22.4412 30.4615 22.4222C30.4615 22.3366 30.4426 22.2796 30.3954 22.2321C30.3481 22.1846 30.2819 22.1655 30.1874 22.1655C30.1401 22.1655 30.0834 22.175 30.0172 22.1941C29.951 22.2131 29.8659 22.2511 29.7714 22.2891L29.743 22.4032C29.7619 22.3937 29.7997 22.3842 29.8376 22.3747C29.8754 22.3652 29.9132 22.3556 29.9321 22.3556C29.9983 22.3556 30.0456 22.3651 30.0645 22.3842C30.0834 22.4032 30.0928 22.4507 30.0928 22.5172C30.0928 22.5552 30.0928 22.5933 30.0834 22.6313C30.0739 22.6693 30.0645 22.7168 30.055 22.7739L29.9226 23.3347C29.9037 23.4107 29.8943 23.4677 29.8848 23.5057C29.8848 23.5438 29.8754 23.5818 29.8754 23.6103C29.8754 23.7149 29.9037 23.8004 29.9699 23.8669C30.0361 23.9335 30.1212 23.962 30.2346 23.962C30.3103 23.962 30.367 23.9525 30.4143 23.943C30.4615 23.9335 30.5088 23.9145 30.5655 23.8859C30.6128 23.8574 30.6601 23.8289 30.7073 23.7909C30.7546 23.7529 30.8113 23.7149 30.8586 23.6673H30.8964V23.6863ZM33.0898 23.9905C33.2978 23.9905 33.4774 23.9335 33.6098 23.8194C33.7516 23.7053 33.8178 23.5628 33.8178 23.3822C33.8178 23.2681 33.78 23.1826 33.7138 23.1065C33.6382 23.0305 33.5247 22.964 33.364 22.9069C33.2411 22.8594 33.156 22.8214 33.0993 22.7739C33.0425 22.7358 33.0236 22.6693 33.0236 22.5838C33.0236 22.4982 33.052 22.4222 33.1087 22.3652C33.1654 22.2986 33.26 22.2701 33.3734 22.2701C33.4018 22.2701 33.4302 22.2701 33.4396 22.2701C33.4585 22.2701 33.4774 22.2796 33.4963 22.2891C33.5153 22.3271 33.5247 22.3651 33.5342 22.3937C33.5436 22.4317 33.5625 22.4602 33.5814 22.4982C33.6003 22.5267 33.6287 22.5552 33.6571 22.5743C33.6854 22.5933 33.7233 22.6028 33.7611 22.6028C33.8178 22.6028 33.8556 22.5838 33.8934 22.5457C33.9218 22.5077 33.9407 22.4602 33.9407 22.4127C33.9407 22.3556 33.9218 22.3081 33.884 22.2701C33.8462 22.2321 33.7989 22.2036 33.7422 22.1846C33.676 22.1655 33.6193 22.1465 33.572 22.1465C33.5153 22.137 33.468 22.137 33.4207 22.137C33.2222 22.137 33.0615 22.1941 32.9196 22.2986C32.7873 22.4127 32.7211 22.5457 32.7211 22.6978C32.7211 22.7644 32.7306 22.8309 32.7589 22.8784C32.7873 22.9354 32.8156 22.9735 32.8629 23.0115C32.9007 23.0495 32.948 23.078 33.0047 23.1065C33.0615 23.135 33.1182 23.1541 33.156 23.1731C33.2789 23.2111 33.3734 23.2586 33.4302 23.3061C33.4869 23.3537 33.5247 23.4202 33.5247 23.4962C33.5247 23.6103 33.4963 23.6958 33.4302 23.7529C33.364 23.8194 33.2694 23.8479 33.1465 23.8479C33.0898 23.8479 33.0425 23.8384 33.0142 23.8194C32.9858 23.8004 32.9575 23.7814 32.9385 23.7624C32.9291 23.7339 32.9196 23.6958 32.9007 23.6578C32.8818 23.6198 32.8724 23.5818 32.8535 23.5438C32.8345 23.5152 32.8156 23.4867 32.7873 23.4677C32.7589 23.4487 32.7211 23.4297 32.6738 23.4297C32.6266 23.4297 32.5793 23.4487 32.5509 23.4962C32.5131 23.5343 32.5037 23.5818 32.5037 23.6293C32.5037 23.7339 32.5604 23.8099 32.6738 23.8764C32.7778 23.962 32.9196 23.9905 33.0898 23.9905ZM35.2737 23.9715C35.3777 23.9715 35.4628 23.962 35.529 23.9335C35.6046 23.9145 35.6803 23.8859 35.7654 23.8479L35.7937 23.7149C35.7654 23.7244 35.7181 23.7339 35.6614 23.7434C35.6046 23.7529 35.5668 23.7529 35.529 23.7529C35.4439 23.7529 35.3872 23.7339 35.3494 23.7053C35.321 23.6768 35.3021 23.6293 35.3021 23.5628C35.3021 23.5343 35.3021 23.4962 35.3116 23.4582C35.321 23.4202 35.3305 23.3727 35.3399 23.3251L35.5668 22.3461H36.0584L36.0963 22.1846H35.6046L35.7275 21.6618H35.4061L35.2832 22.1846H34.9618L34.9239 22.3461H35.2359L34.9618 23.5343C34.9523 23.5628 34.9523 23.5913 34.9428 23.6198C34.9428 23.6483 34.9334 23.6673 34.9334 23.6958C34.9334 23.7814 34.9618 23.8479 35.009 23.8954C35.0752 23.9525 35.1603 23.9715 35.2737 23.9715Z" fill="#646F87"/>
</svg>
