  <svg viewBox="0 0 44 24" fill="none" xmlns="http://www.w3.org/2000/svg">
    <path
      d="M4.07477 17.534H4.2544L4.14095 19.1309H0V18.9503H0.103997C0.349807 18.9503 0.510529 18.9123 0.586163 18.8457C0.661796 18.7792 0.699613 18.6936 0.727976 18.5891C0.746884 18.4845 0.756339 18.2184 0.756339 17.7907V15.2814C0.756339 14.8917 0.746884 14.635 0.727976 14.5115C0.709068 14.3879 0.661796 14.3024 0.586163 14.2548C0.510529 14.2073 0.349807 14.1788 0.113451 14.1788V14.0077H3.6966L3.81006 15.2814H3.63988C3.56425 14.9202 3.46025 14.6731 3.3468 14.521C3.23335 14.3689 3.10099 14.2738 2.94027 14.2358C2.77954 14.1978 2.53373 14.1788 2.18393 14.1788H1.49377V16.3269H2.02321C2.26902 16.3269 2.43919 16.3079 2.53373 16.2604C2.62828 16.2224 2.69446 16.1558 2.72282 16.0703C2.75118 15.9847 2.77009 15.8136 2.77009 15.557H2.94027V17.3154H2.77009C2.77009 17.0303 2.75118 16.8402 2.70391 16.7451C2.65664 16.6501 2.59046 16.5835 2.49592 16.555C2.40138 16.5265 2.25011 16.5075 2.04211 16.5075H1.49377V17.7241C1.49377 18.3325 1.53159 18.6841 1.60722 18.7982C1.68285 18.9028 1.89085 18.9598 2.22174 18.9598H2.59046C2.85518 18.9598 3.07263 18.9218 3.2428 18.8552C3.41298 18.7887 3.5737 18.6461 3.72497 18.4275C3.86678 18.2089 3.98969 17.9142 4.07477 17.534ZM11.5625 15.6331L11.9029 14.8251C11.988 14.616 12.092 14.4544 12.2054 14.3499C12.3189 14.2453 12.4607 14.1883 12.6119 14.1788V14.0077H11.0898V14.1788C11.4869 14.1883 11.6854 14.3404 11.6854 14.6255C11.6854 14.7681 11.5909 15.0818 11.3924 15.5475L10.2389 18.38L8.80189 14.9772C8.68844 14.7111 8.63171 14.54 8.63171 14.4639C8.63171 14.3499 8.67899 14.2738 8.77353 14.2358C8.86807 14.1978 9.0477 14.1788 9.31242 14.1788V14.0077H7.15685V14.1788C7.39321 14.1883 7.56339 14.2263 7.66738 14.3119C7.77138 14.3974 7.87538 14.559 7.96992 14.7966C8.0361 14.9772 8.09282 15.1008 8.12119 15.1768L9.84186 19.2544H10.0688L11.5625 15.6331ZM15.6751 16.536C15.6751 17.3439 15.9304 17.9998 16.4409 18.4845C16.9514 18.9788 17.6038 19.2259 18.3979 19.2259C19.211 19.2259 19.8728 18.9788 20.3739 18.4845C20.8749 17.9903 21.1208 17.3534 21.1208 16.555C21.1208 15.7376 20.856 15.0913 20.3361 14.616C19.8161 14.1408 19.1637 13.9032 18.379 13.9032C17.6038 13.9032 16.9609 14.1408 16.4504 14.6255C15.9304 15.1103 15.6751 15.7376 15.6751 16.536ZM16.5165 16.555C16.5165 15.7471 16.6773 15.1293 16.9987 14.7206C17.3202 14.3024 17.7834 14.1028 18.3885 14.1028C19.003 14.1028 19.4663 14.3119 19.7877 14.7396C20.1092 15.1673 20.2699 15.7756 20.2699 16.574C20.2699 17.3915 20.1092 18.0093 19.7783 18.418C19.4474 18.8267 19.003 19.0358 18.4452 19.0358C17.8023 19.0358 17.3202 18.8267 16.9987 18.418C16.6773 17.9998 16.5165 17.382 16.5165 16.555ZM28.4856 17.6196C28.3722 18.0283 28.2492 18.323 28.1169 18.5131C27.9845 18.7032 27.8427 18.8172 27.6914 18.8742C27.5402 18.9313 27.3133 18.9598 27.0107 18.9598H26.6326C26.3489 18.9598 26.1599 18.9313 26.0748 18.8837C25.9897 18.8362 25.933 18.7602 25.9141 18.6651C25.8951 18.5701 25.8857 18.342 25.8857 17.9713V15.2909C25.8857 14.8632 25.8951 14.597 25.9235 14.483C25.9519 14.3689 25.9991 14.2929 26.0748 14.2548C26.1504 14.2168 26.3111 14.1883 26.5569 14.1883H26.7744V14.0077H24.373V14.1788H24.4865C24.7417 14.1788 24.9024 14.1978 24.9781 14.2453C25.0537 14.2929 25.101 14.3689 25.1294 14.4925C25.1483 14.6065 25.1672 14.8727 25.1672 15.2814V17.7907C25.1672 18.2184 25.1577 18.494 25.1294 18.6081C25.101 18.7222 25.0537 18.8077 24.9686 18.8647C24.8835 18.9218 24.7417 18.9503 24.5243 18.9503H24.373V19.1214H28.618L28.6558 17.6101H28.4856V17.6196ZM35.7937 15.6331L36.1246 14.8251C36.2097 14.616 36.3137 14.4544 36.4272 14.3499C36.5406 14.2453 36.6824 14.1883 36.8337 14.1788V14.0077H35.3116V14.1788C35.7086 14.1883 35.9072 14.3404 35.9072 14.6255C35.9072 14.7681 35.8126 15.0818 35.6141 15.5475L34.4796 18.3895L33.0425 14.9867C32.9291 14.7206 32.8724 14.5495 32.8724 14.4734C32.8724 14.3594 32.9196 14.2833 33.0142 14.2453C33.1087 14.2073 33.2884 14.1883 33.5531 14.1883V14.0077H31.3975V14.1788C31.6339 14.1883 31.804 14.2263 31.908 14.3119C32.012 14.3974 32.116 14.559 32.2106 14.7966C32.2768 14.9772 32.3335 15.1008 32.3618 15.1768L34.0825 19.2544H34.3094L35.7937 15.6331ZM43.8298 17.534C43.7447 17.9142 43.6218 18.2089 43.4706 18.4275C43.3193 18.6461 43.1586 18.7887 42.9884 18.8552C42.8182 18.9218 42.6008 18.9598 42.3361 18.9598H41.9673C41.6364 18.9598 41.4284 18.9028 41.3528 18.7982C41.2772 18.6936 41.2394 18.3325 41.2394 17.7241V16.5075H41.7877C42.0052 16.5075 42.1564 16.5265 42.2415 16.555C42.3361 16.5835 42.4022 16.6501 42.4495 16.7451C42.4968 16.8402 42.5157 17.0303 42.5157 17.3154H42.6859V15.557H42.5157C42.5157 15.8136 42.4968 15.9752 42.4684 16.0703C42.4401 16.1558 42.3739 16.2224 42.2793 16.2604C42.1848 16.3079 42.0146 16.3269 41.7688 16.3269H41.2394V14.1788H41.9295C42.2793 14.1788 42.5346 14.1978 42.6859 14.2358C42.8466 14.2738 42.9789 14.3689 43.0924 14.521C43.2058 14.6731 43.3004 14.9202 43.3855 15.2814H43.5556L43.4422 14.0077H39.859V14.1788C40.1049 14.1788 40.2561 14.2073 40.3318 14.2548C40.4074 14.3024 40.4547 14.3879 40.4736 14.5115C40.4925 14.635 40.5019 14.8917 40.5019 15.2814V17.7907C40.5019 18.2184 40.4925 18.4845 40.4736 18.5891C40.4547 18.6936 40.4074 18.7792 40.3318 18.8457C40.2561 18.9123 40.0954 18.9503 39.8496 18.9503H39.7456V19.1214H43.8865L44 17.5245H43.8298V17.534ZM28.7881 0.0164185H15.3442V1.04295C17.0271 1.3186 18.1143 3.37167 18.1143 3.37167C18.1143 3.37167 19.4284 2.98196 20.6291 3.10553C20.7804 2.63978 22.2742 0.738795 24.581 0.738795C26.8878 0.738795 27.9656 2.12652 27.9656 2.12652L28.7881 2.07899V0.0164185ZM16.2518 4.73087L16.4598 4.98751C16.4598 4.98751 19.2299 3.78988 21.792 5.26315C24.3541 6.73642 27.1809 5.98553 28.4005 5.02553L28.2209 4.67384C28.2209 4.67384 25.9708 5.96652 22.6996 4.30315C19.4284 2.64929 16.6584 4.23662 16.2518 4.73087ZM18.5019 6.41325C18.5019 6.41325 18.2939 8.92256 15.3253 9.9586L15.2875 11.0517H28.807V8.66592L28.1074 8.64691C28.1074 8.64691 26.7366 10.3293 24.4865 10.2342C22.2269 10.1392 20.7615 8.57087 20.0052 6.85048L18.5019 6.41325ZM15.2024 6.15662L15.4009 6.41325C15.4009 6.41325 18.171 5.21563 20.7331 6.68889C23.2952 8.17167 26.122 7.41127 27.3416 6.45127L27.1526 6.09959C27.1526 6.09959 24.9024 7.39226 21.6313 5.72889C18.379 4.06553 15.6089 5.65285 15.2024 6.15662ZM9.66223 22.8378C9.66223 22.6287 9.61495 22.4671 9.51096 22.3435C9.40696 22.22 9.26515 22.163 9.08552 22.163C9.00988 22.163 8.93425 22.182 8.84916 22.22C8.76407 22.258 8.67899 22.3245 8.56553 22.4196H8.55608L8.8208 21.241L8.80189 21.2125L8.14955 21.2505L8.12119 21.355C8.159 21.3645 8.19682 21.3645 8.23464 21.3645C8.27245 21.3645 8.30082 21.374 8.32918 21.3835C8.35754 21.3931 8.37645 21.4121 8.3859 21.4406C8.40481 21.4596 8.40481 21.4976 8.40481 21.5356C8.40481 21.5546 8.40481 21.5736 8.39536 21.5927C8.39536 21.6117 8.3859 21.6402 8.37645 21.6592L7.92265 23.6742C7.95101 23.7218 7.98883 23.7598 8.01719 23.7978C8.05501 23.8358 8.10228 23.8738 8.159 23.9024C8.21573 23.9309 8.28191 23.9594 8.35754 23.9689C8.43318 23.9879 8.52772 23.9974 8.62226 23.9974C8.75462 23.9974 8.88698 23.9689 9.00043 23.9024C9.12333 23.8453 9.22733 23.7598 9.32187 23.6552C9.41642 23.5507 9.49205 23.4271 9.54877 23.2845C9.63386 23.142 9.66223 22.9994 9.66223 22.8378ZM9.30297 22.8473C9.30297 22.9804 9.28406 23.1039 9.25569 23.237C9.22733 23.3606 9.18006 23.4746 9.11388 23.5792C9.05715 23.6742 8.98152 23.7503 8.90589 23.7978C8.8208 23.8548 8.73571 23.8833 8.64117 23.8833C8.5939 23.8833 8.54663 23.8738 8.50881 23.8643C8.47099 23.8453 8.43318 23.8263 8.39536 23.8073C8.367 23.7883 8.34809 23.7598 8.32918 23.7313C8.31027 23.7028 8.30082 23.6742 8.30082 23.6552L8.53717 22.6002C8.56553 22.5717 8.5939 22.5527 8.62226 22.5146C8.65062 22.4861 8.68844 22.4576 8.72626 22.4386C8.76407 22.4196 8.80189 22.4006 8.83971 22.3816C8.87752 22.3626 8.91534 22.3626 8.95316 22.3626C9.01934 22.3626 9.08552 22.3721 9.13279 22.4006C9.18006 22.4291 9.21788 22.4576 9.24624 22.5051C9.2746 22.5431 9.29351 22.6002 9.30297 22.6667C9.29351 22.7237 9.30297 22.7808 9.30297 22.8473ZM11.7327 23.7218C11.7422 23.7978 11.7611 23.8643 11.8178 23.9119C11.8651 23.9594 11.9312 23.9879 12.0163 23.9879C12.092 23.9879 12.1487 23.9784 12.2054 23.9594C12.2527 23.9404 12.3378 23.9119 12.4418 23.8643L12.4701 23.7503C12.4512 23.7598 12.4134 23.7693 12.3756 23.7693C12.3378 23.7788 12.3 23.7788 12.281 23.7788C12.2149 23.7788 12.1676 23.7693 12.1392 23.7408C12.1109 23.7123 12.092 23.6742 12.092 23.6077C12.092 23.5792 12.1014 23.5412 12.1109 23.4936C12.1203 23.4366 12.1298 23.3986 12.1392 23.3606L12.404 22.2105L12.385 22.182L12.0636 22.2675C12.0163 22.239 11.9596 22.2105 11.884 22.1915C11.8083 22.1725 11.7327 22.1535 11.6476 22.1535C11.5153 22.1535 11.3924 22.182 11.26 22.2485C11.1371 22.315 11.0236 22.4006 10.9385 22.5051C10.844 22.6192 10.7684 22.7428 10.7116 22.8758C10.6549 23.0184 10.6266 23.161 10.6266 23.3035C10.6266 23.5127 10.6738 23.6837 10.7684 23.8073C10.8629 23.9309 10.9953 23.9879 11.1654 23.9879C11.2316 23.9879 11.2884 23.9784 11.3451 23.9594C11.4018 23.9404 11.4491 23.9119 11.4963 23.8833C11.5436 23.8548 11.5909 23.8263 11.6193 23.7883C11.6571 23.7598 11.6854 23.7313 11.7138 23.7028H11.7327V23.7218ZM11.7611 23.5507C11.676 23.6457 11.5909 23.7123 11.5153 23.7503C11.4396 23.7883 11.3734 23.8073 11.3073 23.8073C11.2411 23.8073 11.1938 23.7978 11.1465 23.7693C11.1087 23.7408 11.0709 23.7123 11.052 23.6647C11.0236 23.6172 11.0142 23.5697 11.0047 23.5127C10.9953 23.4556 10.9953 23.3891 10.9953 23.3226C10.9953 23.1895 11.0142 23.0659 11.052 22.9329C11.0898 22.8093 11.1371 22.6952 11.2033 22.6097C11.2694 22.5146 11.3451 22.4386 11.4207 22.3816C11.5058 22.3245 11.5814 22.296 11.676 22.296C11.7327 22.296 11.7894 22.3055 11.8272 22.3245C11.8651 22.3435 11.9029 22.3626 11.9218 22.4006C11.9501 22.4291 11.9596 22.4671 11.9691 22.4956C11.9785 22.5336 11.9785 22.5717 11.9785 22.6097L11.7611 23.5507ZM15.3348 23.7503C15.3159 23.7598 15.278 23.7693 15.2402 23.7693C15.2024 23.7788 15.1646 23.7788 15.1457 23.7788C15.0795 23.7788 15.0322 23.7693 15.0039 23.7408C14.9755 23.7123 14.9566 23.6647 14.9566 23.5982C14.9566 23.5697 14.9661 23.5317 14.9755 23.4841C14.985 23.4366 14.9944 23.3891 15.0039 23.3511L15.1551 22.7808C15.174 22.7237 15.1835 22.6762 15.1835 22.6192C15.193 22.5622 15.193 22.5241 15.193 22.5051C15.193 22.4006 15.1646 22.315 15.0984 22.2485C15.0322 22.182 14.9471 22.1535 14.8337 22.1535C14.7108 22.1535 14.6068 22.182 14.5122 22.2295C14.4177 22.277 14.3043 22.3626 14.1813 22.4576H14.1719C14.1719 22.3626 14.1435 22.296 14.1057 22.2485C14.0679 22.201 14.0017 22.1725 13.9072 22.1725C13.8599 22.1725 13.7937 22.182 13.7275 22.201C13.6519 22.22 13.5763 22.2485 13.4817 22.296L13.4534 22.4101C13.4723 22.4006 13.5101 22.4006 13.5479 22.3911C13.5857 22.3816 13.6235 22.3816 13.6425 22.3816C13.7086 22.3816 13.7559 22.3911 13.7748 22.4196C13.7937 22.4386 13.8126 22.4861 13.8126 22.5527C13.8126 22.5812 13.8032 22.6287 13.7937 22.6857C13.7843 22.7428 13.7748 22.7808 13.7654 22.8093L13.5006 23.9594H13.8315L14.1341 22.6572C14.2097 22.5717 14.2948 22.4956 14.3893 22.4481C14.4744 22.4006 14.5595 22.3721 14.6257 22.3721C14.7013 22.3721 14.7581 22.3911 14.7959 22.4386C14.8337 22.4861 14.8526 22.5432 14.8526 22.6287C14.8526 22.6572 14.8526 22.6857 14.8431 22.7237C14.8337 22.7618 14.8242 22.8093 14.8148 22.8663L14.6352 23.5317C14.6257 23.5697 14.6162 23.6077 14.6162 23.6457C14.6162 23.6742 14.6068 23.7028 14.6068 23.7313C14.6068 23.8073 14.6352 23.8643 14.673 23.9119C14.7202 23.9594 14.7959 23.9879 14.8904 23.9879C14.9471 23.9879 15.0133 23.9784 15.07 23.9594C15.1268 23.9404 15.2119 23.9119 15.3159 23.8643L15.3348 23.7503ZM18.0481 22.3626C18.0481 22.3055 18.0292 22.258 17.9914 22.22C17.9536 22.1915 17.9063 22.1725 17.8496 22.1725C17.7929 22.1725 17.7361 22.1915 17.6889 22.22C17.6416 22.2485 17.5754 22.3055 17.4903 22.3816C17.3674 22.4956 17.254 22.6002 17.15 22.7047C17.0365 22.8093 16.9231 22.9329 16.7907 23.0754H16.7813L17.2162 21.2315L17.1972 21.203L16.5355 21.241L16.5071 21.3455C16.5449 21.355 16.5827 21.355 16.6205 21.355C16.6584 21.355 16.6867 21.3645 16.7151 21.374C16.7434 21.3835 16.7624 21.4026 16.7718 21.4311C16.7907 21.4501 16.7907 21.4881 16.7907 21.5261C16.7907 21.5451 16.7907 21.5641 16.7907 21.5832C16.7907 21.6022 16.7813 21.6212 16.7718 21.6592L16.2424 23.9499H16.5733L16.7245 23.256L16.9325 23.0849C16.9703 23.18 17.0082 23.275 17.046 23.3796C17.0838 23.4841 17.1311 23.5887 17.1783 23.6933C17.2256 23.8073 17.2823 23.8833 17.3296 23.9214C17.3863 23.9594 17.4431 23.9879 17.5187 23.9879C17.5849 23.9879 17.6416 23.9784 17.7078 23.9689C17.774 23.9499 17.859 23.9214 17.963 23.8738L17.9914 23.7598C17.963 23.7693 17.9252 23.7788 17.878 23.7883C17.8307 23.7978 17.7929 23.7978 17.7645 23.7978C17.6983 23.7978 17.6511 23.7788 17.5943 23.7408C17.5471 23.7028 17.4998 23.6362 17.4525 23.5507C17.4242 23.4841 17.3769 23.3891 17.3296 23.275C17.2823 23.161 17.2256 23.0184 17.1594 22.8473C17.2351 22.7713 17.3107 22.7047 17.3863 22.6477C17.4525 22.5907 17.5187 22.5527 17.5849 22.5146C17.6321 22.5336 17.67 22.5527 17.7078 22.5622C17.7456 22.5717 17.7834 22.5812 17.8212 22.5812C17.878 22.5812 17.9347 22.5622 17.9725 22.5146C18.0292 22.4671 18.0481 22.4101 18.0481 22.3626ZM22.1607 22.3531L22.1324 22.4671C22.2174 22.4861 22.2931 22.5051 22.3404 22.5241C22.3876 22.5432 22.416 22.5717 22.416 22.6002C22.416 22.6287 22.4065 22.6667 22.3876 22.7142C22.3687 22.7618 22.3404 22.8093 22.312 22.8663C22.2647 22.9519 22.208 23.0279 22.1607 23.0944C22.1134 23.161 22.0567 23.237 21.9905 23.3035C21.896 23.1515 21.8204 23.0184 21.7542 22.9138C21.6975 22.8093 21.6218 22.6762 21.5367 22.5146C21.7826 22.4006 21.9527 22.2865 22.0567 22.1725C22.1513 22.0584 22.208 21.9348 22.208 21.7828C22.208 21.6497 22.1607 21.5451 22.0756 21.4786C21.9905 21.4026 21.8771 21.3645 21.7353 21.3645C21.6407 21.3645 21.5556 21.3835 21.4611 21.4121C21.3666 21.4406 21.2909 21.4881 21.2342 21.5451C21.168 21.6022 21.1113 21.6782 21.0735 21.7542C21.0357 21.8398 21.0168 21.9253 21.0168 22.0299C21.0168 22.1154 21.0357 22.201 21.064 22.277C21.0924 22.3531 21.1397 22.4481 21.1869 22.5527C20.9317 22.6857 20.7426 22.8188 20.6102 22.9614C20.4873 23.1039 20.4211 23.2655 20.4211 23.4461C20.4211 23.6172 20.4779 23.7598 20.6008 23.8643C20.7142 23.9689 20.8655 24.0164 21.0451 24.0164C21.1208 24.0164 21.1869 24.0069 21.2626 23.9879C21.3287 23.9689 21.4044 23.9404 21.4706 23.8929C21.5462 23.8548 21.6029 23.8168 21.6596 23.7693C21.7164 23.7218 21.7636 23.6837 21.8204 23.6362L22.0189 23.9594H22.6996L22.728 23.8453C22.6712 23.8453 22.6051 23.8358 22.52 23.8168C22.4349 23.7978 22.3782 23.7788 22.3404 23.7503C22.3025 23.7218 22.2553 23.6837 22.208 23.6172C22.1607 23.5602 22.1134 23.4936 22.0756 23.4176C22.1324 23.3606 22.1985 23.2845 22.2647 23.1895C22.3309 23.0944 22.3876 23.0184 22.4349 22.9614C22.4916 22.8853 22.5389 22.8093 22.5862 22.7523C22.624 22.6952 22.6618 22.6477 22.6902 22.6287C22.7469 22.5717 22.8225 22.5336 22.8982 22.5146C22.9738 22.4956 23.04 22.4861 23.0967 22.4766L23.1251 22.3626H22.1607V22.3531ZM21.7353 23.5317C21.6596 23.6077 21.5746 23.6647 21.4895 23.7123C21.4044 23.7598 21.3098 23.7788 21.2153 23.7788C21.0829 23.7788 20.9884 23.7408 20.9128 23.6552C20.8466 23.5697 20.8088 23.4651 20.8088 23.3226C20.8088 23.18 20.8466 23.0564 20.9222 22.9329C20.9979 22.8188 21.1018 22.7237 21.2342 22.6477C21.3098 22.7808 21.3855 22.9233 21.4611 23.0659C21.5462 23.218 21.6407 23.3701 21.7353 23.5317ZM21.9716 21.8018C21.9716 21.9348 21.9338 22.0489 21.8582 22.1439C21.7826 22.239 21.6596 22.334 21.4895 22.4196C21.4422 22.3245 21.4044 22.239 21.376 22.163C21.3477 22.0869 21.3382 22.0109 21.3382 21.9348C21.3382 21.8208 21.3666 21.7257 21.4422 21.6497C21.5084 21.5641 21.6029 21.5261 21.7069 21.5261C21.792 21.5261 21.8582 21.5546 21.9055 21.6022C21.9433 21.6402 21.9716 21.7162 21.9716 21.8018ZM25.8101 23.9879C25.9046 23.9879 25.9991 23.9784 26.0653 23.9499C26.141 23.9309 26.2166 23.9024 26.3017 23.8643L26.33 23.7313C26.3017 23.7408 26.2544 23.7503 26.1977 23.7598C26.141 23.7693 26.1031 23.7693 26.0653 23.7693C25.9802 23.7693 25.9235 23.7503 25.8857 23.7218C25.8573 23.6933 25.8384 23.6457 25.8384 23.5792C25.8384 23.5507 25.8384 23.5127 25.8479 23.4746C25.8573 23.4366 25.8668 23.3891 25.8762 23.3416L26.1031 22.3626H26.5948L26.6326 22.201H26.141L26.2639 21.6782H25.9424L25.8195 22.201H25.4981L25.4602 22.3626H25.7722L25.4981 23.5507C25.4886 23.5792 25.4886 23.6077 25.4792 23.6362C25.4792 23.6647 25.4792 23.6837 25.4792 23.7123C25.4792 23.7978 25.5075 23.8643 25.5548 23.9119C25.621 23.9689 25.7061 23.9879 25.8101 23.9879ZM28.9394 22.4481C28.9394 22.3911 28.93 22.3435 28.9205 22.3055C28.911 22.277 28.8921 22.2485 28.8638 22.22C28.8354 22.201 28.807 22.182 28.7692 22.1725C28.7314 22.163 28.6936 22.1535 28.6558 22.1535C28.5801 22.1535 28.5045 22.182 28.4289 22.2295C28.3532 22.277 28.2492 22.3626 28.1074 22.4861H28.098C28.098 22.3816 28.0791 22.3055 28.0413 22.258C28.0034 22.2105 27.9373 22.182 27.8427 22.182C27.7954 22.182 27.7293 22.1915 27.6631 22.2105C27.5969 22.2295 27.5118 22.258 27.4173 22.3055L27.3889 22.4196C27.4078 22.4101 27.4456 22.4101 27.4835 22.4006C27.5213 22.3911 27.5591 22.3911 27.578 22.3911C27.6442 22.3911 27.6914 22.4006 27.7104 22.4291C27.7293 22.4481 27.7482 22.4956 27.7482 22.5622C27.7482 22.5907 27.7387 22.6287 27.7293 22.6857C27.7198 22.7428 27.7104 22.7808 27.7009 22.8093L27.4456 23.9594H27.7765L28.0602 22.6857C28.1263 22.6097 28.1925 22.5527 28.2492 22.5051C28.306 22.4576 28.3627 22.4291 28.4005 22.4006C28.4478 22.3816 28.4856 22.3626 28.514 22.3531C28.5423 22.3435 28.5707 22.3435 28.5801 22.3435C28.5612 22.3911 28.5423 22.4386 28.5234 22.4766C28.5045 22.5241 28.4951 22.5622 28.4951 22.6002C28.4951 22.6382 28.514 22.6762 28.5423 22.7047C28.5707 22.7332 28.618 22.7523 28.6841 22.7523C28.7314 22.7523 28.7692 22.7428 28.7881 22.7237C28.8165 22.7047 28.8354 22.6857 28.8543 22.6477C28.8732 22.6192 28.8827 22.5907 28.8921 22.5527C28.9394 22.5146 28.9394 22.4861 28.9394 22.4481ZM30.8964 23.7028C30.8964 23.7788 30.9153 23.8453 30.9626 23.9024C31.0099 23.9594 31.0761 23.9879 31.1801 23.9879C31.2368 23.9879 31.2935 23.9784 31.3597 23.9594C31.4259 23.9404 31.5015 23.9119 31.6055 23.8643L31.6339 23.7503C31.615 23.7598 31.5771 23.7693 31.5393 23.7693C31.5015 23.7788 31.4637 23.7788 31.4448 23.7788C31.3786 23.7788 31.3313 23.7693 31.303 23.7408C31.2746 23.7123 31.2557 23.6742 31.2557 23.6077C31.2557 23.5887 31.2651 23.5507 31.2746 23.5032C31.2841 23.4556 31.2935 23.4081 31.303 23.3606L31.5677 22.22L31.5488 22.1915L31.2368 22.2105L30.9248 23.5507C30.8492 23.6267 30.7641 23.6933 30.6884 23.7313C30.6128 23.7693 30.5277 23.7883 30.4521 23.7883C30.3764 23.7883 30.3197 23.7693 30.2914 23.7218C30.2535 23.6742 30.2441 23.6172 30.2441 23.5317C30.2441 23.5127 30.2441 23.4746 30.2535 23.4366C30.263 23.3986 30.2725 23.3511 30.2819 23.294L30.4332 22.6382C30.4426 22.6002 30.4521 22.5622 30.4521 22.5241C30.4521 22.4861 30.4615 22.4576 30.4615 22.4386C30.4615 22.3531 30.4426 22.296 30.3954 22.2485C30.3481 22.201 30.2819 22.182 30.1874 22.182C30.1401 22.182 30.0834 22.1915 30.0172 22.2105C29.951 22.2295 29.8659 22.2675 29.7714 22.3055L29.743 22.4196C29.7619 22.4101 29.7997 22.4006 29.8376 22.3911C29.8754 22.3816 29.9132 22.3721 29.9321 22.3721C29.9983 22.3721 30.0456 22.3816 30.0645 22.4006C30.0834 22.4196 30.0928 22.4671 30.0928 22.5336C30.0928 22.5717 30.0928 22.6097 30.0834 22.6477C30.0739 22.6857 30.0645 22.7332 30.055 22.7903L29.9226 23.3511C29.9037 23.4271 29.8943 23.4841 29.8848 23.5222C29.8848 23.5602 29.8754 23.5982 29.8754 23.6267C29.8754 23.7313 29.9037 23.8168 29.9699 23.8833C30.0361 23.9499 30.1212 23.9784 30.2346 23.9784C30.3103 23.9784 30.367 23.9689 30.4143 23.9594C30.4615 23.9499 30.5088 23.9309 30.5655 23.9024C30.6128 23.8738 30.6601 23.8453 30.7073 23.8073C30.7546 23.7693 30.8113 23.7313 30.8586 23.6837H30.8964V23.7028ZM33.0898 24.0069C33.2978 24.0069 33.4774 23.9499 33.6098 23.8358C33.7516 23.7218 33.8178 23.5792 33.8178 23.3986C33.8178 23.2845 33.78 23.199 33.7138 23.123C33.6382 23.0469 33.5247 22.9804 33.364 22.9233C33.2411 22.8758 33.156 22.8378 33.0993 22.7903C33.0425 22.7523 33.0236 22.6857 33.0236 22.6002C33.0236 22.5146 33.052 22.4386 33.1087 22.3816C33.1654 22.315 33.26 22.2865 33.3734 22.2865C33.4018 22.2865 33.4302 22.2865 33.4396 22.2865C33.4585 22.2865 33.4774 22.296 33.4963 22.3055C33.5153 22.3435 33.5247 22.3816 33.5342 22.4101C33.5436 22.4481 33.5625 22.4766 33.5814 22.5146C33.6003 22.5432 33.6287 22.5717 33.6571 22.5907C33.6854 22.6097 33.7233 22.6192 33.7611 22.6192C33.8178 22.6192 33.8556 22.6002 33.8934 22.5622C33.9218 22.5241 33.9407 22.4766 33.9407 22.4291C33.9407 22.3721 33.9218 22.3245 33.884 22.2865C33.8462 22.2485 33.7989 22.22 33.7422 22.201C33.676 22.182 33.6193 22.163 33.572 22.163C33.5153 22.1534 33.468 22.1535 33.4207 22.1535C33.2222 22.1535 33.0615 22.2105 32.9196 22.315C32.7873 22.4291 32.7211 22.5622 32.7211 22.7142C32.7211 22.7808 32.7306 22.8473 32.7589 22.8948C32.7873 22.9519 32.8156 22.9899 32.8629 23.0279C32.9007 23.0659 32.948 23.0944 33.0047 23.123C33.0615 23.1515 33.1182 23.1705 33.156 23.1895C33.2789 23.2275 33.3734 23.275 33.4302 23.3226C33.4869 23.3701 33.5247 23.4366 33.5247 23.5127C33.5247 23.6267 33.4963 23.7123 33.4302 23.7693C33.364 23.8358 33.2694 23.8643 33.1465 23.8643C33.0898 23.8643 33.0425 23.8548 33.0142 23.8358C32.9858 23.8168 32.9575 23.7978 32.9385 23.7788C32.9291 23.7503 32.9196 23.7123 32.9007 23.6742C32.8818 23.6362 32.8724 23.5982 32.8535 23.5602C32.8345 23.5317 32.8156 23.5032 32.7873 23.4841C32.7589 23.4651 32.7211 23.4461 32.6738 23.4461C32.6266 23.4461 32.5793 23.4651 32.5509 23.5127C32.5131 23.5507 32.5037 23.5982 32.5037 23.6457C32.5037 23.7503 32.5604 23.8263 32.6738 23.8929C32.7778 23.9784 32.9196 24.0069 33.0898 24.0069ZM35.2737 23.9879C35.3777 23.9879 35.4628 23.9784 35.529 23.9499C35.6046 23.9309 35.6803 23.9024 35.7654 23.8643L35.7937 23.7313C35.7654 23.7408 35.7181 23.7503 35.6614 23.7598C35.6046 23.7693 35.5668 23.7693 35.529 23.7693C35.4439 23.7693 35.3872 23.7503 35.3494 23.7218C35.321 23.6933 35.3021 23.6457 35.3021 23.5792C35.3021 23.5507 35.3021 23.5127 35.3116 23.4746C35.321 23.4366 35.3305 23.3891 35.3399 23.3416L35.5668 22.3626H36.0584L36.0963 22.201H35.6046L35.7275 21.6782H35.4061L35.2832 22.201H34.9618L34.9239 22.3626H35.2359L34.9618 23.5507C34.9523 23.5792 34.9523 23.6077 34.9428 23.6362C34.9428 23.6647 34.9334 23.6837 34.9334 23.7123C34.9334 23.7978 34.9618 23.8643 35.009 23.9119C35.0752 23.9689 35.1603 23.9879 35.2737 23.9879Z"
      fill="white"
    />
  </svg>
