<svg viewBox="0 0 164 24" fill="none" xmlns="http://www.w3.org/2000/svg">
<g clip-path="url(#clip0_29630_88825)">
<path fill-rule="evenodd" clip-rule="evenodd" d="M18.0671 3.168L17.4191 6.24H21.2591L21.9071 3.168H18.0671ZM16.1231 7.776L15.4751 10.848C16.8911 10.848 16.9151 10.848 16.5551 12.144L15.2831 16.896C14.5391 19.752 15.2351 20.448 17.7791 20.448H20.7311L21.3791 17.376H20.4671C19.1231 17.376 19.0991 17.064 19.4831 15.552L20.8031 10.56C21.5231 7.896 21.0191 7.776 16.1231 7.776ZM49.4743 16.128L50.6023 10.848H54.0583L54.7063 7.776H51.2503L51.9943 4.32H48.1543L47.4103 7.776H45.1063L44.4583 10.848H46.7623L45.5383 16.56C44.8903 19.608 45.9223 20.448 48.4663 20.448H52.0183L52.6663 17.376H50.3623C49.2583 17.376 49.2343 17.328 49.4743 16.128ZM34.7351 16.032H30.9431C30.5831 19.008 32.3111 20.832 36.1991 20.832C40.0631 20.832 42.7031 18.984 43.1351 16.56C43.6391 13.824 41.5991 12.72 38.1431 12.384C36.1031 12.192 35.9351 11.784 35.9831 11.352C36.1031 10.728 36.7031 10.272 38.0711 10.272C39.4631 10.272 39.9191 10.872 39.7991 11.808H43.5911C43.9271 8.784 41.7191 7.392 38.6711 7.392C34.8791 7.392 32.5031 9.384 32.1191 11.52C31.8791 12.84 31.8311 15.072 36.1751 15.576C38.2631 15.816 39.3911 16.032 39.2471 16.8C39.1271 17.448 38.4791 17.952 36.8231 17.952C34.9991 17.952 34.5671 17.016 34.7351 16.032ZM26.6327 11.76C26.8007 11.808 26.9927 11.664 27.0647 11.568C27.242 11.3184 27.4153 11.0589 27.5903 10.7969C28.694 9.14435 29.8643 7.392 32.5367 7.392L31.7447 11.088C28.8887 10.848 26.6567 13.344 25.5527 18.552L25.1447 20.448H21.3047L23.9927 7.776H27.8327L27.5687 9.072C27.3895 9.85391 27.1329 10.282 26.8815 10.7015C26.7625 10.9001 26.6446 11.0967 26.5367 11.328C26.4407 11.52 26.4167 11.712 26.6327 11.76ZM0 20.448L3.6 3.552H16.272L15.528 7.008H6.888L6.168 10.368H13.272L12.576 13.632H5.472L4.032 20.448H0ZM158.704 3.168L158.056 6.24C159.4 6.24 159.424 6.24 159.112 7.536L156.928 16.896C156.28 19.752 157 20.448 159.544 20.448H162.328L162.976 17.376H162.112C160.72 17.376 160.672 17.328 161.056 15.552L163.288 5.952C163.912 3.288 163.408 3.168 158.704 3.168ZM141.89 14.4C142.706 10.608 145.73 7.392 149.33 7.392C150.914 7.392 151.634 8.28 152.114 9.048C152.21 9.192 152.354 9.408 152.594 9.288C152.81 9.192 152.858 8.976 152.762 8.76C152.715 8.65416 152.671 8.57136 152.632 8.49927C152.514 8.27711 152.45 8.15652 152.522 7.776H156.362L154.946 14.496C154.226 17.856 154.01 19.128 154.442 20.448H150.554C150.194 19.0894 150.799 18.0801 151.261 17.3093C151.354 17.1542 151.442 17.0087 151.514 16.872C151.61 16.656 151.61 16.488 151.442 16.416C151.274 16.344 151.058 16.464 150.986 16.608C149.618 19.08 147.866 20.832 145.466 20.832C142.85 20.832 141.074 18.312 141.89 14.4ZM147.194 17.568C148.994 17.568 150.914 15.36 151.634 11.952C151.01 11.04 150.482 10.656 149.426 10.656C147.554 10.656 146.21 12.168 145.706 14.544C145.274 16.608 146.066 17.568 147.194 17.568ZM138.148 3.168L137.5 6.24H141.34L141.988 3.168H138.148ZM136.204 7.776L135.556 10.848C136.972 10.848 136.996 10.848 136.636 12.144L135.364 16.896C134.62 19.752 135.316 20.448 137.86 20.448H140.812L141.46 17.376H140.548C139.204 17.376 139.18 17.064 139.564 15.552L140.884 10.56C141.604 7.896 141.1 7.776 136.204 7.776ZM121.407 14.112C122.079 10.416 125.079 7.392 129.423 7.392C133.263 7.392 134.991 10.032 134.703 12.792L130.887 12.816C130.887 11.64 130.263 10.656 128.871 10.656C127.023 10.656 125.583 12.24 125.247 14.112C124.911 15.984 125.775 17.568 127.623 17.568C129.015 17.568 130.023 16.56 130.455 15.384L134.247 15.408C133.551 18.168 130.887 20.832 127.023 20.832C122.751 20.832 120.735 17.808 121.407 14.112ZM109.316 7.776L106.628 20.448H110.468L110.78 18.936C111.5 15.624 114.716 10.56 116.084 10.56C117.092 10.56 116.996 11.448 116.444 14.016L115.076 20.448H118.916L120.476 13.152C121.292 9.264 121.364 7.392 118.484 7.392C115.844 7.392 113.516 9.912 112.22 12.288C112.196 12.36 112.004 12.6 111.764 12.504C111.548 12.408 111.596 12.24 111.692 12.024C111.744 11.9332 111.805 11.8307 111.872 11.7195C112.174 11.2141 112.582 10.5306 112.7 9.96L113.156 7.776H109.316ZM92.7181 14.4C93.5341 10.608 96.5581 7.392 100.158 7.392C101.742 7.392 102.462 8.28 102.942 9.048C103.038 9.192 103.182 9.408 103.422 9.288C103.638 9.192 103.686 8.976 103.59 8.76C103.543 8.65415 103.499 8.57136 103.46 8.49926C103.342 8.2771 103.278 8.15651 103.35 7.776H107.19L105.774 14.496C105.054 17.856 104.838 19.128 105.27 20.448H101.382C101.022 19.0894 101.627 18.0801 102.09 17.3093C102.183 17.1542 102.27 17.0087 102.342 16.872C102.438 16.656 102.438 16.488 102.27 16.416C102.102 16.344 101.886 16.464 101.814 16.608C100.446 19.08 98.6941 20.832 96.2941 20.832C93.6781 20.832 91.9021 18.312 92.7181 14.4ZM98.0221 17.568C99.8221 17.568 101.742 15.36 102.462 11.952C101.838 11.04 101.31 10.656 100.254 10.656C98.3821 10.656 97.0381 12.168 96.5341 14.544C96.1021 16.608 96.8941 17.568 98.0221 17.568ZM80.699 7.776L78.011 20.448H81.851L82.163 18.936C82.883 15.624 86.099 10.56 87.467 10.56C88.475 10.56 88.379 11.448 87.827 14.016L86.459 20.448H90.299L91.859 13.152C92.675 9.264 92.747 7.392 89.867 7.392C87.227 7.392 84.899 9.912 83.603 12.288C83.579 12.36 83.387 12.6 83.147 12.504C82.931 12.408 82.979 12.24 83.075 12.024C83.1269 11.9332 83.1881 11.8307 83.2545 11.7195C83.5566 11.214 83.9649 10.5306 84.083 9.96L84.539 7.776H80.699ZM74.1254 6.24L74.7734 3.168H78.6134L77.9654 6.24H74.1254ZM72.1814 10.848L72.8294 7.776C77.7254 7.776 78.2294 7.896 77.5094 10.56L76.1894 15.552C75.8054 17.064 75.8294 17.376 77.1734 17.376H78.0854L77.4374 20.448H74.4854C71.9414 20.448 71.2454 19.752 71.9894 16.896L73.2614 12.144C73.6214 10.848 73.5974 10.848 72.1814 10.848ZM60.3063 3.552L56.7063 20.448H60.7383L62.1783 13.632H69.2823L69.9783 10.368H62.8743L63.5943 7.008H72.2343L72.9783 3.552H60.3063Z" fill="white"/>
</g>
<defs>
<clipPath>
<rect fill="white"/>
</clipPath>
</defs>
</svg>
