  <svg viewBox="0 0 65 24" fill="none" xmlns="http://www.w3.org/2000/svg">
    <path
      d="M7.13514 0.0864849C7.13514 0.129728 7.48109 0.367567 7.8919 0.627026C8.88649 1.21081 9.51352 2.27027 9.51352 3.39459C9.51352 4 8.64865 6.74594 6.91892 11.6757C5.4919 15.7405 4.1946 19.3081 4.02163 19.6324C3.50271 20.627 1.94595 22.2486 0.951357 22.8324C0.432438 23.1351 0.06487 23.4811 0.129735 23.5892C0.1946 23.6973 2.52974 23.7838 5.31892 23.7838C9.55676 23.7838 10.3784 23.7405 10.3784 23.4811C10.3784 23.3081 10.1838 23.1135 9.96757 23.027C9.2973 22.8108 8.25947 21.4919 8.08649 20.6486C7.97838 20.0216 8.1946 19.1784 9.23244 16.2595L10.5297 12.6486L12.346 12.5838C15.4378 12.4757 16.5405 13.0378 16.8432 14.8757C16.9297 15.3297 17.0811 15.6541 17.1892 15.6541C17.4054 15.6108 19.8487 8.84324 19.8703 8.21622C19.8919 8.04324 19.373 8.41081 18.7676 9.01622C17.0378 10.6811 16.4973 10.8973 13.6865 10.9838C11.7189 11.0486 11.2432 11.0054 11.2649 10.7892C11.2649 10.6162 11.9351 8.62703 12.7351 6.37838L14.2054 2.27027L18.7243 2.2054C23.0487 2.16216 23.2865 2.18378 24.2162 2.63784C25.1892 3.13513 25.6 3.6973 25.8378 4.8C25.9027 5.14594 26.0324 5.40541 26.1405 5.40541C26.2919 5.40541 28.1081 0.497295 28.1081 0.108107C28.1081 0.0432415 23.3946 -1.90735e-06 17.6216 -1.90735e-06C11.8487 -1.90735e-06 7.13514 0.0432415 7.13514 0.0864849Z"
      fill="#6A7281"
    />
    <path
      d="M26.5082 10.6162C24.4974 16.4757 22.8109 21.6432 22.7676 22.1405C22.6379 23.3946 23.0271 23.8486 24.2595 23.827C24.7784 23.8054 25.5136 23.6973 25.8595 23.5676C26.9622 23.1568 29.8379 21.3405 29.8379 21.0378C29.8379 20.6703 29.8595 20.6703 28.4974 21.2973C27.1568 21.9243 26.6811 21.9676 26.5082 21.4919C26.3568 21.1243 26.2703 21.427 30.4649 9.21081C32.1514 4.34594 33.5136 0.302698 33.5136 0.19459C33.5136 0.0864811 32.7568 -3.8147e-06 31.8487 -3.8147e-06H30.1622L26.5082 10.6162Z"
      fill="#6A7281"
    />
    <path
      d="M38.0324 6.89731C35.827 7.76217 33.881 9.6865 32.7783 12.1081C31.0486 15.9135 31.2216 19.546 33.2756 21.8811C35.6324 24.5838 40.8864 24.4757 43.481 21.6865C45.2756 19.7622 45.3405 18.7676 43.5675 20.1946C42.1621 21.3406 41.1675 21.7081 39.4162 21.6649C37.4702 21.6433 36.4756 21.0162 35.7837 19.3946C35.2864 18.1622 35.3729 17.8595 36.3891 17.2973C38.7026 16 43.4378 12.8649 44.2594 12.0649C44.7567 11.5676 45.2756 10.8973 45.427 10.573C46.0108 9.14596 44.8648 7.2865 43.0918 6.74596C41.7945 6.35677 39.1999 6.44325 38.0324 6.89731ZM42.0108 9.53515C42.2054 9.79461 42.3783 10.3351 42.3783 10.746C42.3783 11.7838 40.7351 13.4703 37.7297 15.5027L35.3513 17.0811L35.2864 16.3892C35.0918 14.5514 36.4108 11.3081 37.8594 10.0973C39.3729 8.82163 41.2108 8.56217 42.0108 9.53515Z"
      fill="#6A7281"
    />
    <path
      d="M48.8 7.07028C48.7135 7.13515 49.0378 7.52434 49.4919 7.91353C50.4 8.6919 51.6973 11.0703 53.081 14.4216L53.9027 16.4324L53.0594 17.6433C51.9135 19.3081 50.227 21.146 49.4919 21.5351C48.8648 21.8378 48.8648 21.8378 48.8648 21.2108C48.8648 20.6703 48.7783 20.5622 48.1081 20.4541C46.6594 20.173 45.6216 20.8216 45.6216 21.9892C45.6216 23.7838 47.8486 24.4108 49.7513 23.1351C50.3351 22.7676 51.4378 21.5784 52.5189 20.1081C53.5135 18.8108 54.3567 17.7297 54.4216 17.7297C54.4648 17.7297 55.1567 19.0703 55.9567 20.6919L57.427 23.6757L59.7405 23.7406C61.0162 23.7622 62.054 23.7189 62.054 23.6108C62.054 23.5027 61.6648 23.0054 61.1891 22.4865C60.3891 21.6216 58.4216 18.0324 57.2973 15.4162L56.8216 14.2919L57.9459 12.6703C59.2216 10.8324 60.7783 9.08109 61.1459 9.08109C61.2756 9.08109 61.4054 9.34055 61.4486 9.66488C61.5135 10.227 61.6 10.2703 62.5513 10.3351C63.7621 10.4216 64.5189 10.0324 64.7351 9.21082C64.9297 8.41082 64.5189 7.61082 63.6973 7.22163C62.0324 6.42163 60.5837 7.37298 57.8378 11.0703L56.281 13.1892L55.5027 11.5027C55.0702 10.5946 54.4216 9.1892 54.0756 8.36758L53.427 6.91893H51.1783C49.9459 6.91893 48.8648 6.9838 48.8 7.07028Z"
      fill="#6A7281"
    />
  </svg>
