<svg viewBox="0 0 96 24" fill="none" xmlns="http://www.w3.org/2000/svg">
<path d="M81.8239 10.2316C81.0778 9.47369 80.0208 9.03159 78.9017 9.03159C76.6011 9.09474 74.798 10.9895 74.8602 13.3263C74.9224 15.5368 76.6633 17.3684 78.8395 17.4316H78.9017C79.9586 17.4316 81.0156 16.9895 81.7618 16.2316C83.3783 14.6526 83.4405 12 81.8861 10.3579C81.8861 10.2947 81.8239 10.2316 81.8239 10.2316ZM80.5182 14.7158C80.1452 15.1579 79.5856 15.4105 79.026 15.4105C78.4664 15.4105 77.9068 15.2211 77.5338 14.779C77.0985 14.3368 76.8498 13.7684 76.8498 13.1368C76.8498 11.9368 77.7825 10.9895 78.9638 10.9263H79.026C80.2073 10.9263 81.14 11.8737 81.14 13.0737C81.0778 13.7684 80.8913 14.3368 80.5182 14.7158Z" fill="#646F87"/>
<path d="M73.057 10.2316C72.3109 9.47369 71.2539 9.03159 70.1347 9.03159C67.8342 9.09474 66.0311 10.9895 66.0932 13.3263C66.1554 15.5368 67.8963 17.3684 70.0725 17.4316H70.1347C71.1917 17.4316 72.2487 16.9895 72.9948 16.2316C74.6114 14.6526 74.6735 12 73.1191 10.3579C73.1813 10.2947 73.1191 10.2316 73.057 10.2316ZM70.259 15.4737C69.6995 15.4737 69.1399 15.2842 68.7668 14.8421C68.3316 14.4 68.0829 13.8316 68.0829 13.2C68.0829 12 69.0155 11.0526 70.1969 10.9895H70.259C71.4404 10.9895 72.373 11.9368 72.4352 13.1368C72.373 14.3368 71.5026 15.4105 70.259 15.4737Z" fill="#646F87"/>
<path d="M32.456 9.22108V17.1158H34.5078V12.8211C34.5078 12.5684 34.5078 11.8106 34.8187 11.4948C35.1295 11.1158 35.5648 10.9263 36.0622 10.9895H36.1244V9.03161H36.0622C35.4404 8.96845 34.8808 9.22108 34.6321 9.47371L34.5078 9.60003C34.4456 9.66318 34.3834 9.72634 34.3212 9.7895V9.28424L32.456 9.22108Z" fill="#646F87"/>
<path d="M85.5544 13.579L85.6788 13.3895H85.8653L88.1036 17.179H90.2798L87.2332 12L90.2798 9.22108H87.5441L85.5544 11.0527V6.56845H83.627V17.179H85.5544V13.579Z" fill="#646F87"/>
<path d="M96 14.779C96 13.0737 94.6321 12.6316 93.5751 12.3158V12.379V12.3158C92.8912 12.1263 92.3316 11.9369 92.3316 11.4948C92.3316 11.179 92.5803 10.9895 93.0155 10.9895C93.2643 10.9895 93.5129 11.0527 93.6995 11.2421L93.7617 11.3053L95.0674 9.97898L95.0052 9.91582C94.5078 9.41056 93.7617 9.15793 93.0777 9.15793C91.4611 9.15793 90.4663 10.1053 90.4663 11.5579C90.4663 13.2632 91.772 13.6421 92.829 13.9579C93.5751 14.1474 94.1347 14.3369 94.1347 14.8421C94.1347 15.2842 93.6995 15.6 93.0777 15.6C92.456 15.6 92.0829 15.2842 92.0829 14.779V14.6527H90.0933V14.779C90.0933 16.2948 91.3368 17.4316 93.0777 17.4316C94.7565 17.4316 96 16.2948 96 14.779Z" fill="#646F87"/>
<path d="M48.0622 12.3158C47.3782 12.1263 46.8186 11.9369 46.8186 11.4316C46.8186 11.1158 47.0673 10.9263 47.5026 10.9263C47.7513 10.9263 48 10.9895 48.1865 11.179L48.2487 11.2421L49.5544 9.91581L49.4922 9.85265C48.9948 9.34739 48.2487 9.09476 47.5647 9.09476C45.9482 9.09476 44.9534 10.0421 44.9534 11.4948C44.9534 13.2 46.259 13.579 47.316 13.8948C48.0622 14.0842 48.6217 14.2737 48.6217 14.779C48.6217 15.2211 48.1865 15.5369 47.5647 15.5369C46.943 15.5369 46.5699 15.2211 46.5699 14.7158V14.5895H44.5803V14.7158C44.5803 16.2316 45.8238 17.3684 47.5647 17.3684C49.3057 17.3684 50.5492 16.2316 50.5492 14.7158C50.487 13.0737 49.1192 12.6948 48.0622 12.3158Z" fill="#646F87"/>
<path d="M44.3316 13.2632C44.3316 10.6737 42.9016 9.09476 40.6011 9.09476C38.2384 9.09476 36.5596 10.8 36.5596 13.1369C36.5596 15.6 38.3006 17.4316 40.5389 17.4316C41.7202 17.4316 42.9016 16.9263 43.7099 16.0421L43.7721 15.979L42.342 14.7158L42.2798 14.779C41.8446 15.3474 41.1607 15.6632 40.4767 15.6632C39.4197 15.6632 38.6114 14.9684 38.4249 13.8316V13.6421H44.2695L44.3316 13.2632ZM38.6114 11.8737L38.6736 11.7474C39.0467 11.1158 39.6684 10.8 40.4767 10.8C41.3472 10.8 42.0311 11.179 42.2177 11.8737H38.6114Z" fill="#646F87"/>
<path d="M27.9793 8.7158V10.9895H31.399V13.0105H28.0415V17.179H25.9897V6.63159H31.5855V8.7158H27.9793Z" fill="#646F87"/>
<path d="M64.1658 11.3685H64.1036L64.1658 11.3053C64.9741 10.8 65.2228 9.72635 65.0984 8.96845C64.7875 7.45266 63.6062 6.56845 61.7409 6.56845H59.0052V17.1158H61.9274C64.1036 17.1158 65.4093 16.1685 65.7824 14.4C65.9067 13.3895 65.2849 11.8106 64.1658 11.3685ZM60.9948 8.65266H61.8653C62.2383 8.65266 62.9844 8.71582 63.0466 9.53687C63.0466 9.7895 62.9844 10.0421 62.7979 10.2316C62.487 10.5474 61.9896 10.6106 61.5544 10.6106H60.9326L60.9948 8.65266ZM63.4197 14.6527C63.1088 14.9685 62.5492 15.1579 61.6787 15.1579H60.9948V12.6316H62.114C62.7979 12.6316 63.6062 12.9474 63.6684 13.7685C63.7305 14.0842 63.6062 14.4 63.4197 14.6527Z" fill="#646F87"/>
<path d="M52.9741 17.179V12.8211C52.9741 11.6211 53.5337 10.9263 54.4663 10.9263C54.8394 10.9263 55.1503 11.0527 55.399 11.3053C55.7099 11.6211 55.8964 12.1263 55.8964 12.7579V17.1158H57.886V12.1895C57.886 10.4842 56.7047 9.09477 55.1503 8.96845C54.2798 8.90529 53.5337 9.09477 52.9741 9.66319V6.56845H50.9845V17.1158H52.9741V17.179Z" fill="#646F87"/>
<path d="M6.09329 3.72632H16.9119V20.0842H6.09329V3.72632Z" fill="white"/>
<path d="M8.76684 1.45264C3.9171 1.45264 0 5.43158 0 10.3579V22.5474H12C16.8497 22.5474 20.7668 18.5684 20.7668 13.6421V1.45264H8.76684ZM15.8549 5.17895C15.8549 6.82106 14.5492 8.08422 12.9948 8.08422H9.88601V10.6105H14.0518V13.5158H9.94819V19.579H6.5285V4.42106H9.88601V7.13685C10.0104 5.62106 11.2539 4.42106 12.7461 4.42106H15.8549V5.17895Z" fill="#646F87"/>
</svg>
