  <svg viewBox="0 0 96 24" fill="none" xmlns="http://www.w3.org/2000/svg">
    <path
      d="M81.8239 10.248C81.0778 9.49011 80.0208 9.048 78.9017 9.048C76.6011 9.11116 74.798 11.0059 74.8602 13.3427C74.9224 15.5533 76.6633 17.3848 78.8395 17.448H78.9017C79.9586 17.448 81.0156 17.0059 81.7618 16.248C83.3783 14.6691 83.4405 12.0164 81.8861 10.3743C81.8861 10.3112 81.8239 10.248 81.8239 10.248ZM80.5182 14.7322C80.1452 15.1743 79.5856 15.4269 79.026 15.4269C78.4664 15.4269 77.9068 15.2375 77.5338 14.7954C77.0985 14.3533 76.8498 13.7848 76.8498 13.1533C76.8498 11.9533 77.7825 11.0059 78.9638 10.9427H79.026C80.2073 10.9427 81.14 11.8901 81.14 13.0901C81.0778 13.7848 80.8913 14.3533 80.5182 14.7322Z"
      fill="white"
    />
    <path
      d="M73.057 10.248C72.3109 9.49011 71.2539 9.048 70.1347 9.048C67.8342 9.11116 66.0311 11.0059 66.0932 13.3427C66.1554 15.5533 67.8963 17.3848 70.0725 17.448H70.1347C71.1917 17.448 72.2487 17.0059 72.9948 16.248C74.6114 14.6691 74.6735 12.0164 73.1191 10.3743C73.1813 10.3112 73.1191 10.248 73.057 10.248ZM70.259 15.4901C69.6995 15.4901 69.1399 15.3006 68.7668 14.8585C68.3316 14.4164 68.0829 13.848 68.0829 13.2164C68.0829 12.0164 69.0155 11.0691 70.1969 11.0059H70.259C71.4404 11.0059 72.373 11.9533 72.4352 13.1533C72.373 14.3533 71.5026 15.4269 70.259 15.4901Z"
      fill="white"
    />
    <path
      d="M32.4559 9.2375V17.1322H34.5077V12.8375C34.5077 12.5849 34.5077 11.827 34.8186 11.5112C35.1295 11.1322 35.5647 10.9428 36.0621 11.0059H36.1243V9.04802H36.0621C35.4404 8.98487 34.8808 9.2375 34.6321 9.49013L34.5077 9.61644C34.4456 9.6796 34.3834 9.74276 34.3212 9.80592V9.30066L32.4559 9.2375Z"
      fill="white"
    />
    <path
      d="M85.5544 13.5954L85.6788 13.4059H85.8653L88.1036 17.1954H90.2798L87.2332 12.0164L90.2798 9.23748H87.5441L85.5544 11.0691V6.58485H83.627V17.1954H85.5544V13.5954Z"
      fill="white"
    />
    <path
      d="M96 14.7954C96 13.0901 94.6321 12.648 93.5751 12.3322V12.3954V12.3322C92.8912 12.1428 92.3316 11.9533 92.3316 11.5112C92.3316 11.1954 92.5803 11.0059 93.0155 11.0059C93.2643 11.0059 93.5129 11.0691 93.6995 11.2585L93.7617 11.3217L95.0674 9.99538L95.0052 9.93223C94.5078 9.42696 93.7617 9.17433 93.0777 9.17433C91.4611 9.17433 90.4663 10.1217 90.4663 11.5743C90.4663 13.2796 91.772 13.6585 92.829 13.9743C93.5751 14.1638 94.1347 14.3533 94.1347 14.8585C94.1347 15.3006 93.6995 15.6164 93.0777 15.6164C92.456 15.6164 92.0829 15.3006 92.0829 14.7954V14.6691H90.0933V14.7954C90.0933 16.3112 91.3368 17.448 93.0777 17.448C94.7565 17.448 96 16.3112 96 14.7954Z"
      fill="white"
    />
    <path
      d="M48.0622 12.3322C47.3783 12.1427 46.8187 11.9533 46.8187 11.448C46.8187 11.1322 47.0674 10.9427 47.5026 10.9427C47.7513 10.9427 48 11.0059 48.1865 11.1954L48.2487 11.2585L49.5544 9.93222L49.4922 9.86906C48.9948 9.3638 48.2487 9.11116 47.5648 9.11116C45.9482 9.11116 44.9534 10.0585 44.9534 11.5112C44.9534 13.2164 46.2591 13.5954 47.3161 13.9112C48.0622 14.1006 48.6218 14.2901 48.6218 14.7954C48.6218 15.2375 48.1865 15.5533 47.5648 15.5533C46.943 15.5533 46.57 15.2375 46.57 14.7322V14.6059H44.5803V14.7322C44.5803 16.248 45.8238 17.3848 47.5648 17.3848C49.3057 17.3848 50.5492 16.248 50.5492 14.7322C50.4871 13.0901 49.1192 12.7112 48.0622 12.3322Z"
      fill="white"
    />
    <path
      d="M44.3316 13.2796C44.3316 10.6901 42.9015 9.11116 40.601 9.11116C38.2383 9.11116 36.5596 10.8164 36.5596 13.1533C36.5596 15.6164 38.3005 17.448 40.5388 17.448C41.7202 17.448 42.9015 16.9427 43.7098 16.0585L43.772 15.9954L42.3419 14.7322L42.2798 14.7954C41.8445 15.3638 41.1606 15.6796 40.4767 15.6796C39.4197 15.6796 38.6114 14.9848 38.4249 13.848V13.6585H44.2694L44.3316 13.2796ZM38.6114 11.8901L38.6736 11.7638C39.0466 11.1322 39.6684 10.8164 40.4767 10.8164C41.3471 10.8164 42.0311 11.1954 42.2176 11.8901H38.6114Z"
      fill="white"
    />
    <path
      d="M27.9793 8.73222V11.0059H31.399V13.027H28.0414V17.1954H25.9896V6.64801H31.5855V8.73222H27.9793Z"
      fill="white"
    />
    <path
      d="M64.1657 11.3849H64.1036L64.1657 11.3217C64.974 10.8164 65.2227 9.74275 65.0984 8.98485C64.7875 7.46906 63.6062 6.58485 61.7409 6.58485H59.0051V17.1322H61.9274C64.1036 17.1322 65.4093 16.1849 65.7823 14.4164C65.9067 13.4059 65.2849 11.827 64.1657 11.3849ZM60.9948 8.66906H61.8652C62.2383 8.66906 62.9844 8.73222 63.0466 9.55327C63.0466 9.8059 62.9844 10.0585 62.7979 10.248C62.487 10.5638 61.9896 10.627 61.5543 10.627H60.9326L60.9948 8.66906ZM63.4196 14.6691C63.1088 14.9849 62.5492 15.1743 61.6787 15.1743H60.9948V12.648H62.1139C62.7979 12.648 63.6062 12.9638 63.6683 13.7849C63.7305 14.1006 63.6062 14.4164 63.4196 14.6691Z"
      fill="white"
    />
    <path
      d="M52.9741 17.1954V12.8375C52.9741 11.6375 53.5337 10.9427 54.4664 10.9427C54.8394 10.9427 55.1503 11.0691 55.399 11.3217C55.7099 11.6375 55.8964 12.1427 55.8964 12.7743V17.1322H57.8861V12.2059C57.8861 10.5006 56.7047 9.11117 55.1503 8.98485C54.2798 8.92169 53.5337 9.11117 52.9741 9.67959V6.58485H50.9845V17.1322H52.9741V17.1954Z"
      fill="white"
    />
    <path
      d="M8.76684 1.46905C3.9171 1.46905 0 5.44799 0 10.3743V22.5638H12C16.8497 22.5638 20.7668 18.5848 20.7668 13.6585V1.46905H8.76684ZM15.8549 5.19536C15.8549 6.83747 14.5492 8.10063 12.9948 8.10063H9.88601V10.6269H14.0518V13.5322H9.94819V19.5954H6.5285V4.43747H9.88601V7.15326C10.0104 5.63747 11.2539 4.43747 12.7461 4.43747H15.8549V5.19536Z"
      fill="white"
    />
  </svg>
