  <svg viewBox="0 0 96 24" fill="none" xmlns="http://www.w3.org/2000/svg">
    <path
      d="M81.8239 9.77895C81.0778 9.02106 80.0208 8.57895 78.9017 8.57895C76.6011 8.64211 74.798 10.5368 74.8602 12.8737C74.9224 15.0842 76.6633 16.9158 78.8395 16.979H78.9017C79.9586 16.979 81.0156 16.5368 81.7618 15.779C83.3783 14.2 83.4405 11.5474 81.8861 9.90527C81.8861 9.84211 81.8239 9.77895 81.8239 9.77895ZM80.5182 14.2632C80.1452 14.7053 79.5856 14.9579 79.026 14.9579C78.4664 14.9579 77.9068 14.7684 77.5338 14.3263C77.0985 13.8842 76.8498 13.3158 76.8498 12.6842C76.8498 11.4842 77.7825 10.5368 78.9638 10.4737H79.026C80.2073 10.4737 81.14 11.4211 81.14 12.6211C81.0778 13.3158 80.8913 13.8842 80.5182 14.2632Z"
      fill="#212124"
    />
    <path
      d="M73.057 9.77895C72.3109 9.02106 71.2539 8.57895 70.1347 8.57895C67.8342 8.64211 66.0311 10.5368 66.0932 12.8737C66.1554 15.0842 67.8963 16.9158 70.0725 16.979H70.1347C71.1917 16.979 72.2487 16.5368 72.9948 15.779C74.6114 14.2 74.6735 11.5474 73.1191 9.90527C73.1813 9.84211 73.1191 9.77895 73.057 9.77895ZM70.259 15.0211C69.6995 15.0211 69.1399 14.8316 68.7668 14.3895C68.3316 13.9474 68.0829 13.379 68.0829 12.7474C68.0829 11.5474 69.0155 10.6 70.1969 10.5368H70.259C71.4404 10.5368 72.373 11.4842 72.4352 12.6842C72.373 13.8842 71.5026 14.9579 70.259 15.0211Z"
      fill="#212124"
    />
    <path
      d="M32.4559 8.76845V16.6632H34.5077V12.3684C34.5077 12.1158 34.5077 11.3579 34.8186 11.0421C35.1295 10.6632 35.5647 10.4737 36.0621 10.5369H36.1243V8.57898H36.0621C35.4404 8.51582 34.8808 8.76845 34.6321 9.02108L34.5077 9.1474C34.4456 9.21055 34.3834 9.27371 34.3212 9.33687V8.83161L32.4559 8.76845Z"
      fill="#212124"
    />
    <path
      d="M85.5544 13.1263L85.6788 12.9369H85.8653L88.1036 16.7263H90.2798L87.2332 11.5474L90.2798 8.76843H87.5441L85.5544 10.6V6.1158H83.627V16.7263H85.5544V13.1263Z"
      fill="#212124"
    />
    <path
      d="M96 14.3263C96 12.6211 94.6321 12.179 93.5751 11.8632V11.9263V11.8632C92.8912 11.6737 92.3316 11.4842 92.3316 11.0421C92.3316 10.7263 92.5803 10.5369 93.0155 10.5369C93.2643 10.5369 93.5129 10.6 93.6995 10.7895L93.7617 10.8527L95.0674 9.52633L95.0052 9.46318C94.5078 8.95791 93.7617 8.70528 93.0777 8.70528C91.4611 8.70528 90.4663 9.65265 90.4663 11.1053C90.4663 12.8105 91.772 13.1895 92.829 13.5053C93.5751 13.6948 94.1347 13.8842 94.1347 14.3895C94.1347 14.8316 93.6995 15.1474 93.0777 15.1474C92.456 15.1474 92.0829 14.8316 92.0829 14.3263V14.2H90.0933V14.3263C90.0933 15.8421 91.3368 16.979 93.0777 16.979C94.7565 16.979 96 15.8421 96 14.3263Z"
      fill="#212124"
    />
    <path
      d="M48.0622 11.8632C47.3783 11.6737 46.8187 11.4842 46.8187 10.979C46.8187 10.6632 47.0674 10.4737 47.5026 10.4737C47.7513 10.4737 48 10.5369 48.1865 10.7263L48.2487 10.7895L49.5544 9.46317L49.4922 9.40001C48.9948 8.89475 48.2487 8.64212 47.5648 8.64212C45.9482 8.64212 44.9534 9.58949 44.9534 11.0421C44.9534 12.7474 46.2591 13.1263 47.3161 13.4421C48.0622 13.6316 48.6218 13.8211 48.6218 14.3263C48.6218 14.7684 48.1865 15.0842 47.5648 15.0842C46.943 15.0842 46.57 14.7684 46.57 14.2632V14.1369H44.5803V14.2632C44.5803 15.779 45.8238 16.9158 47.5648 16.9158C49.3057 16.9158 50.5492 15.779 50.5492 14.2632C50.4871 12.6211 49.1192 12.2421 48.0622 11.8632Z"
      fill="#212124"
    />
    <path
      d="M44.3316 12.8105C44.3316 10.2211 42.9015 8.64212 40.601 8.64212C38.2383 8.64212 36.5596 10.3474 36.5596 12.6842C36.5596 15.1474 38.3005 16.979 40.5388 16.979C41.7202 16.979 42.9015 16.4737 43.7098 15.5895L43.772 15.5263L42.3419 14.2632L42.2798 14.3263C41.8445 14.8947 41.1606 15.2105 40.4767 15.2105C39.4197 15.2105 38.6114 14.5158 38.4249 13.379V13.1895H44.2694L44.3316 12.8105ZM38.6114 11.4211L38.6736 11.2947C39.0466 10.6632 39.6684 10.3474 40.4767 10.3474C41.3471 10.3474 42.0311 10.7263 42.2176 11.4211H38.6114Z"
      fill="#212124"
    />
    <path
      d="M27.9793 8.26318V10.5369H31.399V12.5579H28.0414V16.7263H25.9896V6.17897H31.5855V8.26318H27.9793Z"
      fill="#212124"
    />
    <path
      d="M64.1657 10.9158H64.1036L64.1657 10.8526C64.974 10.3474 65.2227 9.2737 65.0984 8.5158C64.7875 7.00001 63.6062 6.1158 61.7409 6.1158H59.0051V16.6632H61.9274C64.1036 16.6632 65.4093 15.7158 65.7823 13.9474C65.9067 12.9369 65.2849 11.3579 64.1657 10.9158ZM60.9948 8.20001H61.8652C62.2383 8.20001 62.9844 8.26317 63.0466 9.08422C63.0466 9.33685 62.9844 9.58949 62.7979 9.77896C62.487 10.0947 61.9896 10.1579 61.5543 10.1579H60.9326L60.9948 8.20001ZM63.4196 14.2C63.1088 14.5158 62.5492 14.7053 61.6787 14.7053H60.9948V12.179H62.1139C62.7979 12.179 63.6062 12.4947 63.6683 13.3158C63.7305 13.6316 63.6062 13.9474 63.4196 14.2Z"
      fill="#212124"
    />
    <path
      d="M52.9741 16.7263V12.3684C52.9741 11.1684 53.5337 10.4737 54.4664 10.4737C54.8394 10.4737 55.1503 10.6 55.399 10.8526C55.7099 11.1684 55.8964 11.6737 55.8964 12.3053V16.6632H57.8861V11.7369C57.8861 10.0316 56.7047 8.64212 55.1503 8.5158C54.2798 8.45264 53.5337 8.64212 52.9741 9.21054V6.1158H50.9845V16.6632H52.9741V16.7263Z"
      fill="#212124"
    />
    <path d="M6.09326 3.27369H16.9119V19.6316H6.09326V3.27369Z" fill="white" />
    <path
      d="M8.76684 1C3.9171 1 0 4.97895 0 9.90526V22.0947H12C16.8497 22.0947 20.7668 18.1158 20.7668 13.1895V1H8.76684ZM15.8549 4.72632C15.8549 6.36842 14.5492 7.63158 12.9948 7.63158H9.88601V10.1579H14.0518V13.0632H9.94819V19.1263H6.5285V3.96842H9.88601V6.68421C10.0104 5.16842 11.2539 3.96842 12.7461 3.96842H15.8549V4.72632Z"
      fill="#0075DB"
    />
  </svg>
