  <svg viewBox="0 0 110 24" fill="none" xmlns="http://www.w3.org/2000/svg">
    <path
      d="M56.4732 12.7488C56.4732 18.1027 60.9353 22.0164 66.6062 22.0164C72.2776 22.0164 76.7479 18.1027 76.7479 12.7488V0.448454H71.2557V12.1134C71.2557 15.0021 69.2462 16.9506 66.5894 16.9506C63.9326 16.9506 61.923 15.0106 61.923 12.1134V0.448454H56.4306L56.4647 12.7488H56.4732ZM91.4113 5.37026H97.9597V21.6182H103.452V5.37026H110V0.439984H91.4113V5.37026ZM87.8605 0.439984H82.3681V21.6182H87.8605V0.439984ZM34.2909 5.37026H40.8393V21.6182H46.3315V5.37026H52.8796V0.439984H34.2909V5.37026ZM5.49234 0.439984H0V21.6182H5.49234V0.439984ZM31.4042 9.28402C31.4042 3.93014 26.9338 0.0164185 21.2625 0.0164185C15.5914 0.0164185 11.1294 3.93014 11.1294 9.28402V21.6182H16.6218V9.94477C16.6218 7.05606 18.6313 5.10767 21.288 5.10767C23.945 5.10767 25.9544 7.04757 25.9544 9.94477V21.6096H31.4469L31.4128 9.27554L31.4042 9.28402Z"
      fill="white"
    />
  </svg>
