  <svg viewBox="0 0 110 24" fill="none" xmlns="http://www.w3.org/2000/svg">
    <path
      d="M56.4732 12.7323C56.4732 18.0863 60.9353 22 66.6062 22C72.2776 22 76.7479 18.0863 76.7479 12.7323V0.432036H71.2557V12.097C71.2557 14.9857 69.2462 16.9341 66.5894 16.9341C63.9326 16.9341 61.923 14.9942 61.923 12.097V0.432036H56.4306L56.4647 12.7323H56.4732ZM91.4113 5.35385H97.9597V21.6018H103.452V5.35385H110V0.423565H91.4113V5.35385ZM87.8605 0.423565H82.3681V21.6018H87.8605V0.423565ZM34.2909 5.35385H40.8393V21.6018H46.3315V5.35385H52.8796V0.423565H34.2909V5.35385ZM5.49234 0.423565H0V21.6018H5.49234V0.423565ZM31.4042 9.2676C31.4042 3.91372 26.9338 0 21.2625 0C15.5914 0 11.1294 3.91372 11.1294 9.2676V21.6018H16.6218V9.92836C16.6218 7.03964 18.6313 5.09125 21.288 5.09125C23.945 5.09125 25.9544 7.03116 25.9544 9.92836V21.5932H31.4469L31.4128 9.25912L31.4042 9.2676Z"
      fill="#666A79"
    />
  </svg>
