  <svg viewBox="0 0 80 24" fill="none" xmlns="http://www.w3.org/2000/svg">
    <path
      d="M8.10158 5.01724H3.38043V5.39948H4.91104V13.1827C4.91104 15.5432 4.27342 16.1808 2.80666 16.1808C1.91367 16.1808 1.72214 15.4794 1.72214 15.1602C1.72214 14.331 1.65829 13.7572 0.892172 13.7572C0.126868 13.7572 0 14.5226 0 14.7779C0 15.8624 0.50993 16.6916 2.61513 16.6916C5.16723 16.6916 6.50631 15.8624 6.50631 12.9919V5.39866H8.03773V5.01724H8.10158ZM8.74001 14.9048C8.48464 14.9048 8.22926 14.9703 8.10158 15.1602C7.91005 15.3517 7.8462 15.5432 7.8462 15.7986C7.8462 16.0523 7.91005 16.2447 8.10158 16.437C8.29311 16.6278 8.48464 16.6908 8.74001 16.6908C8.99457 16.6908 9.1861 16.6269 9.37763 16.437C9.56916 16.2455 9.633 16.0523 9.633 15.7986C9.633 15.5432 9.56916 15.3517 9.37763 15.1602C9.1861 14.9686 8.99457 14.9048 8.73919 14.9048H8.74001ZM19.2022 14.9048C18.9468 14.9048 18.7553 14.9703 18.5637 15.1602C18.373 15.3517 18.3092 15.5432 18.3092 15.7986C18.3092 16.0523 18.373 16.2447 18.5637 16.437C18.7553 16.6278 18.9468 16.6908 19.2022 16.6908C19.4575 16.6908 19.7121 16.6269 19.8406 16.437C20.0313 16.2447 20.0952 16.0523 20.0952 15.7986C20.0952 15.5432 20.0313 15.3517 19.8398 15.1602C19.6482 14.9686 19.4575 14.9048 19.2013 14.9048H19.2022ZM15.8839 5.01724H11.2905V5.39948H12.6304V14.3318C12.6304 15.0333 12.5665 15.224 12.5027 15.4155C12.4388 15.6717 12.2473 15.7994 11.9281 15.9271C11.7374 15.991 11.4182 16.054 10.9713 16.054V16.437H15.9478V16.054C15.5009 16.054 15.1825 15.991 14.9901 15.9271C14.6717 15.7994 14.4802 15.6079 14.4172 15.4164C14.332 15.1921 14.2887 14.9547 14.2887 14.7149V11.6512H15.5009C19.0737 11.6512 20.0943 10.2483 20.0943 8.33383C20.0943 6.35631 19.5206 5.01724 15.8839 5.01724ZM15.2455 11.2051H14.2887V5.46332H15.1186C17.8614 5.46332 18.4991 6.61169 18.4991 8.39767C18.4991 10.2475 17.4154 11.2051 15.2455 11.2051ZM34.8315 15.3517C34.7472 15.1053 34.7039 14.8467 34.7039 14.5864V5.39948H35.9152V5.01724H32.9825C32.9187 5.14492 29.4744 13.6934 29.4744 13.6934L29.4106 13.7581C29.3467 13.7581 29.3467 13.7581 29.3467 13.6942C29.3467 13.6942 25.6471 5.08108 25.6471 5.01724H22.3911V5.4003H23.7948V15.0971C23.7948 15.2895 23.731 15.481 23.6033 15.6717C23.4756 15.8633 23.2841 15.991 23.0925 16.054C22.9648 16.1195 22.7103 16.1195 22.4541 16.1195V16.5009H25.6446V16.1178C25.3892 16.1178 25.2616 16.054 25.0709 16.054C24.8155 15.9901 24.6878 15.8624 24.5601 15.6709C24.4324 15.5432 24.3686 15.3517 24.3686 15.0971L24.3047 14.2672V6.61087H24.4963C24.4963 6.61087 28.6428 16.3077 28.7067 16.4354H29.0259L32.9809 6.67553H33.1086V14.5864C33.1086 14.9056 33.0447 15.1602 32.9809 15.4155C32.9171 15.6709 32.7263 15.7986 32.471 15.9263C32.2033 16.0147 31.9234 16.0581 31.6418 16.0532V16.4362H36.1076V16.0532C35.826 16.0581 35.5453 16.0147 35.2776 15.9263C35.0869 15.7986 34.8954 15.6071 34.8315 15.3517ZM40.8918 8.07927C38.4673 8.07927 37.0006 9.67372 37.0006 12.4174C37.0006 16.5001 40.1903 16.7554 40.8279 16.7554C42.1678 16.7554 44.7199 15.9263 44.7199 12.3543C44.7199 9.54685 43.0608 8.07927 40.8918 8.07927ZM40.8279 16.2447C39.0419 16.2447 38.7227 15.3525 38.7227 12.4812C38.7227 10.2483 38.8504 8.5892 40.8279 8.5892C42.9331 8.5892 42.9331 10.3113 42.9331 12.3527C42.9331 15.224 42.4232 16.2447 40.8279 16.2447ZM50.9725 8.20696C49.5679 8.20696 49.0588 9.0361 48.6749 9.92909H48.5473C48.5473 9.92909 48.3565 8.65304 48.2927 8.33383H45.4852V8.78073H47.0158V14.3949C47.0158 14.9686 46.9528 15.3525 46.8259 15.6063C46.6974 15.8624 46.3144 16.0532 45.7406 16.0532H45.4852V16.5639H50.2064V16.0532H49.951C49.3126 16.0532 49.0588 15.9263 48.9295 15.6709C48.8026 15.4155 48.7388 15.0325 48.7388 14.4587V11.3967C48.7388 10.439 49.5041 9.29148 50.3979 9.29148C51.3547 9.29148 51.2901 10.6944 52.3754 10.1206C52.8862 9.80141 52.7585 8.20696 50.9725 8.20696ZM69.5362 15.6063C69.0255 15.6063 68.8986 15.3525 68.8348 14.8418V10.376C68.8348 9.60988 68.7063 9.16379 68.261 8.71607C67.8141 8.26998 66.9841 8.07763 65.7727 8.07763C64.6244 8.07763 63.7952 8.26998 63.2206 8.71607C62.7107 9.09995 62.4561 9.48219 62.4561 10.0568C62.4561 10.3105 62.52 10.5029 62.6468 10.5667C62.7745 10.6944 62.9661 10.7582 63.1568 10.7582C63.6029 10.7582 63.8591 10.5045 63.9859 9.92909C64.0514 9.48219 64.1775 9.22763 64.3698 8.97144C64.6235 8.71771 65.0082 8.5892 65.4535 8.5892C66.0281 8.5892 66.4742 8.71607 66.6657 9.03529C66.8572 9.3545 66.9849 9.73756 66.9849 10.2467V11.5874C65.5165 11.7151 61.9446 12.0335 62.1361 14.7133C62.1999 15.7339 63.0938 16.6908 64.3051 16.6908C65.645 16.6908 66.4734 15.9263 67.0471 15.3509C67.1118 15.9255 67.6856 16.6278 68.6432 16.6278C69.7269 16.6278 70.3654 16.117 70.43 14.7771H70.1747C70.1747 15.2879 69.8554 15.6071 69.5362 15.6071V15.6063ZM67.1126 14.7141V14.7779L67.0488 14.8418C66.2835 15.544 65.6459 15.7994 65.1989 15.7994C64.0506 15.7994 63.8591 14.8418 63.8591 14.3957C63.8591 12.8651 65.9643 12.099 67.1126 12.099V14.7141ZM79.1062 15.5432C78.9785 15.2887 78.787 14.9048 78.787 14.3318V10.6306C78.787 10.1206 78.7231 9.60988 78.5316 9.29148C78.3401 8.90842 78.0217 8.65304 77.7025 8.46151C77.3194 8.26998 76.9371 8.20696 76.4911 8.20696C74.832 8.20696 74.1935 9.22763 73.8113 9.80141H73.6836L73.3644 8.33383H70.8123V8.78073H72.0891V14.3949C72.0891 14.8418 72.0245 15.1602 71.9606 15.3525C71.896 15.6063 71.7069 15.7986 71.5145 15.8624C71.3869 15.9263 71.1315 15.9901 70.8123 15.9901V16.5001H74.8311V15.9901C74.4481 15.9263 74.1289 15.8624 74.002 15.6709C73.8743 15.4794 73.7474 15.0963 73.7474 14.5226V12.3535C73.7474 11.4613 73.7474 10.5667 74.0666 10.0568C74.385 9.48219 75.0227 9.16379 75.6611 9.16379C76.2995 9.16379 76.6179 9.35532 76.8103 9.73756C77.001 10.0568 77.064 11.0136 77.064 11.6512V14.331C77.064 14.7771 77.1295 15.0963 77.064 15.2887C77.001 15.5424 76.9371 15.7348 76.7448 15.8616C76.6179 15.9901 76.3617 15.9901 76.1072 16.0532V16.5639H80V16.0532C79.5523 15.8624 79.2339 15.7339 79.1062 15.5432ZM60.8609 7.69621C60.6055 7.76005 60.4778 8.01543 60.3501 8.33464C60.2863 8.65386 60.1586 8.84457 59.9671 8.9076C59.7755 8.97226 59.5848 8.97226 59.3933 8.84457C58.9472 8.46151 58.1811 8.01543 56.7773 8.01543C54.4806 8.01543 53.5238 9.60988 53.5238 11.0766C53.5238 12.7996 54.1622 13.6296 55.6282 13.948C55.6928 13.948 55.6928 14.0756 55.6282 14.0756C54.4168 14.331 53.2684 14.7141 53.2684 15.8624C53.2684 16.5647 53.6515 16.947 54.2261 17.2023C54.799 17.4569 55.6282 17.5854 56.6496 17.5854C57.5418 17.5854 58.1803 17.6492 58.5633 17.6492C58.948 17.6992 59.3172 17.8293 59.6478 18.0323C59.9032 18.2238 60.0309 18.5431 60.0309 18.9245C60.0309 19.4991 59.7117 19.8821 59.1379 20.2652C58.565 20.5844 57.861 20.7121 56.905 20.7121C56.1397 20.7121 55.4383 20.6474 54.8637 20.2652C54.4176 20.0098 54.3529 19.4999 54.4176 19.1168C54.4822 18.7338 54.3529 18.3515 53.9068 18.2238C53.6285 18.1625 53.3421 18.2934 53.2054 18.5431C53.0769 18.733 53.013 18.9883 53.013 19.3075C53.013 20.2644 53.7791 20.7105 54.3529 20.902C55.2459 21.1565 55.8213 21.2212 56.5858 21.2212C57.6711 21.2212 58.4995 21.0297 59.1379 20.7743C59.7763 20.4551 60.1594 20.0728 60.414 19.6259C60.6685 19.1799 60.797 18.733 60.797 18.286C60.797 17.7123 60.6685 17.2015 60.414 16.8831C59.5848 15.7986 58.4356 15.9255 55.8843 15.7986C54.6721 15.7986 54.4168 15.5432 54.4168 15.1602C54.4168 14.5864 54.8637 14.3949 56.6496 14.0756C58.4356 13.8203 60.0939 13.1188 60.0939 11.0136C60.0939 10.3752 59.9671 9.86525 59.7747 9.48301C60.1586 9.54603 60.4778 9.54603 60.7962 9.48301C61.1801 9.35532 61.37 9.16379 61.4985 8.97226C61.6262 8.71689 61.6892 8.46151 61.5623 8.26998C61.6262 7.76005 61.307 7.56852 60.8609 7.69621ZM56.842 13.6934C55.7583 13.6934 55.1829 13.3095 55.1829 11.1413C55.1829 9.6107 55.6936 8.46151 56.842 8.46151C58.1819 8.46151 58.5641 9.48219 58.5641 11.0775C58.5641 13.3742 57.8627 13.6934 56.842 13.6934Z"
      fill="white"
    />
  </svg>
