  <svg viewBox="0 0 80 24" fill="none" xmlns="http://www.w3.org/2000/svg">
    <g clip-path="url(#clip0_8309_287)">
      <path
        d="M8.10158 5.00082H3.38043V5.38306H4.91104V13.1662C4.91104 15.5268 4.27342 16.1644 2.80666 16.1644C1.91367 16.1644 1.72214 15.463 1.72214 15.1438C1.72214 14.3146 1.65829 13.7408 0.892172 13.7408C0.126868 13.7408 0 14.5061 0 14.7615C0 15.846 0.50993 16.6752 2.61513 16.6752C5.16723 16.6752 6.50631 15.846 6.50631 12.9755V5.38224H8.03773V5.00082H8.10158ZM8.74001 14.8884C8.48464 14.8884 8.22926 14.9539 8.10158 15.1438C7.91005 15.3353 7.8462 15.5268 7.8462 15.7822C7.8462 16.0359 7.91005 16.2283 8.10158 16.4206C8.29311 16.6113 8.48464 16.6744 8.74001 16.6744C8.99457 16.6744 9.1861 16.6105 9.37763 16.4206C9.56916 16.2291 9.633 16.0359 9.633 15.7822C9.633 15.5268 9.56916 15.3353 9.37763 15.1438C9.1861 14.9522 8.99457 14.8884 8.73919 14.8884H8.74001ZM19.2022 14.8884C18.9468 14.8884 18.7553 14.9539 18.5637 15.1438C18.373 15.3353 18.3092 15.5268 18.3092 15.7822C18.3092 16.0359 18.373 16.2283 18.5637 16.4206C18.7553 16.6113 18.9468 16.6744 19.2022 16.6744C19.4575 16.6744 19.7121 16.6105 19.8406 16.4206C20.0313 16.2283 20.0952 16.0359 20.0952 15.7822C20.0952 15.5268 20.0313 15.3353 19.8398 15.1438C19.6482 14.9522 19.4575 14.8884 19.2013 14.8884H19.2022ZM15.8839 5.00082H11.2905V5.38306H12.6304V14.3154C12.6304 15.0169 12.5665 15.2076 12.5027 15.3991C12.4388 15.6553 12.2473 15.783 11.9281 15.9107C11.7374 15.9745 11.4182 16.0376 10.9713 16.0376V16.4206H15.9478V16.0376C15.5009 16.0376 15.1825 15.9745 14.9901 15.9107C14.6717 15.783 14.4802 15.5915 14.4172 15.3999C14.332 15.1757 14.2887 14.9383 14.2887 14.6985V11.6348H15.5009C19.0737 11.6348 20.0943 10.2319 20.0943 8.31741C20.0943 6.3399 19.5206 5.00082 15.8839 5.00082ZM15.2455 11.1887H14.2887V5.4469H15.1186C17.8614 5.4469 18.4991 6.59527 18.4991 8.38125C18.4991 10.2311 17.4154 11.1887 15.2455 11.1887ZM34.8315 15.3353C34.7472 15.0889 34.7039 14.8303 34.7039 14.57V5.38306H35.9152V5.00082H32.9825C32.9187 5.12851 29.4744 13.677 29.4744 13.677L29.4106 13.7416C29.3467 13.7416 29.3467 13.7416 29.3467 13.6778C29.3467 13.6778 25.6471 5.06466 25.6471 5.00082H22.3911V5.38388H23.7948V15.0807C23.7948 15.2731 23.731 15.4646 23.6033 15.6553C23.4756 15.8468 23.2841 15.9745 23.0925 16.0376C22.9648 16.103 22.7103 16.103 22.4541 16.103V16.4845H25.6446V16.1014C25.3892 16.1014 25.2616 16.0376 25.0709 16.0376C24.8155 15.9737 24.6878 15.846 24.5601 15.6545C24.4324 15.5268 24.3686 15.3353 24.3686 15.0807L24.3047 14.2508V6.59445H24.4963C24.4963 6.59445 28.6428 16.2913 28.7067 16.419H29.0259L32.9809 6.65911H33.1086V14.57C33.1086 14.8892 33.0447 15.1438 32.9809 15.3991C32.9171 15.6545 32.7263 15.7822 32.471 15.9099C32.2033 15.9983 31.9234 16.0417 31.6418 16.0367V16.4198H36.1076V16.0367C35.826 16.0417 35.5453 15.9983 35.2776 15.9099C35.0869 15.7822 34.8954 15.5907 34.8315 15.3353ZM40.8918 8.06285C38.4673 8.06285 37.0006 9.6573 37.0006 12.4009C37.0006 16.4836 40.1903 16.739 40.8279 16.739C42.1678 16.739 44.7199 15.9099 44.7199 12.3379C44.7199 9.53043 43.0608 8.06285 40.8918 8.06285ZM40.8279 16.2283C39.0419 16.2283 38.7227 15.3361 38.7227 12.4648C38.7227 10.2319 38.8504 8.57278 40.8279 8.57278C42.9331 8.57278 42.9331 10.2949 42.9331 12.3363C42.9331 15.2076 42.4232 16.2283 40.8279 16.2283ZM50.9725 8.19054C49.5679 8.19054 49.0588 9.01969 48.6749 9.91268H48.5473C48.5473 9.91268 48.3565 8.63662 48.2927 8.31741H45.4852V8.76431H47.0158V14.3784C47.0158 14.9522 46.9528 15.3361 46.8259 15.5898C46.6974 15.846 46.3144 16.0367 45.7406 16.0367H45.4852V16.5475H50.2064V16.0367H49.951C49.3126 16.0367 49.0588 15.9099 48.9295 15.6545C48.8026 15.3991 48.7388 15.0161 48.7388 14.4423V11.3803C48.7388 10.4226 49.5041 9.27506 50.3979 9.27506C51.3547 9.27506 51.2901 10.678 52.3754 10.1042C52.8862 9.78499 52.7585 8.19054 50.9725 8.19054ZM69.5362 15.5898C69.0255 15.5898 68.8986 15.3361 68.8348 14.8254V10.3596C68.8348 9.59346 68.7063 9.14737 68.261 8.69965C67.8141 8.25356 66.9841 8.06121 65.7727 8.06121C64.6244 8.06121 63.7952 8.25356 63.2206 8.69965C62.7107 9.08353 62.4561 9.46577 62.4561 10.0404C62.4561 10.2941 62.52 10.4864 62.6468 10.5503C62.7745 10.678 62.9661 10.7418 63.1568 10.7418C63.6029 10.7418 63.8591 10.4881 63.9859 9.91268C64.0514 9.46577 64.1775 9.21122 64.3698 8.95502C64.6235 8.70129 65.0082 8.57278 65.4535 8.57278C66.0281 8.57278 66.4742 8.69965 66.6657 9.01887C66.8572 9.33808 66.9849 9.72115 66.9849 10.2303V11.571C65.5165 11.6987 61.9446 12.0171 62.1361 14.6968C62.1999 15.7175 63.0938 16.6744 64.3051 16.6744C65.645 16.6744 66.4734 15.9099 67.0471 15.3345C67.1118 15.9091 67.6856 16.6113 68.6432 16.6113C69.7269 16.6113 70.3654 16.1006 70.43 14.7607H70.1747C70.1747 15.2714 69.8554 15.5907 69.5362 15.5907V15.5898ZM67.1126 14.6977V14.7615L67.0488 14.8254C66.2835 15.5276 65.6459 15.783 65.1989 15.783C64.0506 15.783 63.8591 14.8254 63.8591 14.3793C63.8591 12.8487 65.9643 12.0825 67.1126 12.0825V14.6977ZM79.1062 15.5268C78.9785 15.2723 78.787 14.8884 78.787 14.3154V10.6141C78.787 10.1042 78.7231 9.59346 78.5316 9.27506C78.3401 8.892 78.0217 8.63662 77.7025 8.44509C77.3194 8.25356 76.9371 8.19054 76.4911 8.19054C74.832 8.19054 74.1935 9.21122 73.8113 9.78499H73.6836L73.3644 8.31741H70.8123V8.76431H72.0891V14.3784C72.0891 14.8254 72.0245 15.1438 71.9606 15.3361C71.896 15.5898 71.7069 15.7822 71.5145 15.846C71.3869 15.9099 71.1315 15.9737 70.8123 15.9737V16.4836H74.8311V15.9737C74.4481 15.9099 74.1289 15.846 74.002 15.6545C73.8743 15.463 73.7474 15.0799 73.7474 14.5061V12.3371C73.7474 11.4449 73.7474 10.5503 74.0666 10.0404C74.385 9.46577 75.0227 9.14737 75.6611 9.14737C76.2995 9.14737 76.6179 9.3389 76.8103 9.72115C77.001 10.0404 77.064 10.9972 77.064 11.6348V14.3146C77.064 14.7607 77.1295 15.0799 77.064 15.2723C77.001 15.526 76.9371 15.7183 76.7448 15.8452C76.6179 15.9737 76.3617 15.9737 76.1072 16.0367V16.5475H80V16.0367C79.5523 15.846 79.2339 15.7175 79.1062 15.5268ZM60.8609 7.67979C60.6055 7.74363 60.4778 7.99901 60.3501 8.31823C60.2863 8.63744 60.1586 8.82816 59.9671 8.89118C59.7755 8.95584 59.5848 8.95584 59.3933 8.82815C58.9472 8.44509 58.1811 7.99901 56.7773 7.99901C54.4806 7.99901 53.5238 9.59346 53.5238 11.0602C53.5238 12.7832 54.1622 13.6131 55.6282 13.9315C55.6928 13.9315 55.6928 14.0592 55.6282 14.0592C54.4168 14.3146 53.2684 14.6977 53.2684 15.846C53.2684 16.5483 53.6515 16.9305 54.2261 17.1859C54.799 17.4405 55.6282 17.569 56.6496 17.569C57.5418 17.569 58.1803 17.6328 58.5633 17.6328C58.948 17.6828 59.3172 17.8129 59.6478 18.0159C59.9032 18.2074 60.0309 18.5266 60.0309 18.9081C60.0309 19.4827 59.7117 19.8657 59.1379 20.2488C58.565 20.568 57.861 20.6957 56.905 20.6957C56.1397 20.6957 55.4383 20.631 54.8637 20.2488C54.4176 19.9934 54.3529 19.4835 54.4176 19.1004C54.4822 18.7174 54.3529 18.3351 53.9068 18.2074C53.6285 18.146 53.3421 18.277 53.2054 18.5266C53.0769 18.7165 53.013 18.9719 53.013 19.2911C53.013 20.248 53.7791 20.694 54.3529 20.8856C55.2459 21.1401 55.8213 21.2048 56.5858 21.2048C57.6711 21.2048 58.4995 21.0133 59.1379 20.7579C59.7763 20.4387 60.1594 20.0564 60.414 19.6095C60.6685 19.1634 60.797 18.7165 60.797 18.2696C60.797 17.6959 60.6685 17.1851 60.414 16.8667C59.5848 15.7822 58.4356 15.9091 55.8843 15.7822C54.6721 15.7822 54.4168 15.5268 54.4168 15.1438C54.4168 14.57 54.8637 14.3784 56.6496 14.0592C58.4356 13.8039 60.0939 13.1024 60.0939 10.9972C60.0939 10.3588 59.9671 9.84883 59.7747 9.46659C60.1586 9.52961 60.4778 9.52961 60.7962 9.46659C61.1801 9.3389 61.37 9.14737 61.4985 8.95584C61.6262 8.70047 61.6892 8.44509 61.5623 8.25356C61.6262 7.74363 61.307 7.5521 60.8609 7.67979ZM56.842 13.677C55.7583 13.677 55.1829 13.2931 55.1829 11.1249C55.1829 9.59428 55.6936 8.44509 56.842 8.44509C58.1819 8.44509 58.5641 9.46577 58.5641 11.061C58.5641 13.3578 57.8627 13.677 56.842 13.677Z"
        fill="#212124"
      />
    </g>
    <defs>
      <clipPath id="clip0_8309_287">
        <rect width="80" height="18" fill="white" transform="translate(0 3)" />
      </clipPath>
    </defs>
  </svg>
