<svg viewBox="0 0 30 24" fill="none" xmlns="http://www.w3.org/2000/svg">
<path d="M5.45898 23.8807V22.2922C5.45898 21.6833 5.09847 21.2861 4.48044 21.2861C4.17143 21.2861 3.83667 21.392 3.60491 21.7362C3.42465 21.445 3.16714 21.2861 2.78087 21.2861C2.52336 21.2861 2.26585 21.3655 2.05985 21.6568V21.3391H1.51907V23.8807H2.05985V22.4775C2.05985 22.0274 2.2916 21.8156 2.65212 21.8156C3.01263 21.8156 3.19289 22.0539 3.19289 22.4775V23.8807H3.73366V22.4775C3.73366 22.0274 3.99117 21.8156 4.32594 21.8156C4.68645 21.8156 4.86671 22.0539 4.86671 22.4775V23.8807H5.45898ZM13.4675 21.3391H12.592V20.5713H12.0512V21.3391H11.562V21.8421H12.0512V23.007C12.0512 23.5895 12.283 23.9337 12.901 23.9337C13.1328 23.9337 13.3903 23.8542 13.5706 23.7483L13.416 23.2718C13.2615 23.3777 13.0813 23.4041 12.9525 23.4041C12.695 23.4041 12.592 23.2453 12.592 22.9805V21.8421H13.4675V21.3391ZM18.0512 21.2861C17.7422 21.2861 17.5362 21.445 17.4075 21.6568V21.3391H16.8667V23.8807H17.4075V22.451C17.4075 22.0274 17.5877 21.7892 17.9225 21.7892C18.0255 21.7892 18.1542 21.8156 18.2572 21.8421L18.4117 21.3126C18.3087 21.2861 18.1542 21.2861 18.0512 21.2861ZM11.1242 21.5509C10.8667 21.3655 10.5062 21.2861 10.1199 21.2861C9.50189 21.2861 9.08988 21.6038 9.08988 22.1069C9.08988 22.5305 9.39889 22.7687 9.93966 22.8482L10.1972 22.8746C10.4804 22.9276 10.6349 23.007 10.6349 23.1394C10.6349 23.3247 10.4289 23.4571 10.0684 23.4571C9.7079 23.4571 9.42464 23.3247 9.24438 23.1923L8.98687 23.616C9.27013 23.8278 9.6564 23.9337 10.0427 23.9337C10.7637 23.9337 11.1757 23.5895 11.1757 23.1129C11.1757 22.6628 10.8409 22.4246 10.3259 22.3451L10.0684 22.3187C9.83665 22.2922 9.6564 22.2392 9.6564 22.0804C9.6564 21.8951 9.83665 21.7892 10.1199 21.7892C10.4289 21.7892 10.7379 21.9215 10.8924 22.001L11.1242 21.5509ZM25.4933 21.2861C25.1843 21.2861 24.9783 21.445 24.8495 21.6568V21.3391H24.3087V23.8807H24.8495V22.451C24.8495 22.0274 25.0298 21.7892 25.3645 21.7892C25.4675 21.7892 25.5963 21.8156 25.6993 21.8421L25.8538 21.3126C25.7508 21.2861 25.5963 21.2861 25.4933 21.2861ZM18.592 22.6099C18.592 23.3777 19.107 23.9337 19.9053 23.9337C20.2658 23.9337 20.5233 23.8542 20.7808 23.6424L20.5233 23.1923C20.3173 23.3512 20.1113 23.4306 19.8796 23.4306C19.4418 23.4306 19.1328 23.1129 19.1328 22.6099C19.1328 22.1333 19.4418 21.8156 19.8796 21.7892C20.1113 21.7892 20.3173 21.8686 20.5233 22.0274L20.7808 21.5773C20.5233 21.3655 20.2658 21.2861 19.9053 21.2861C19.107 21.2861 18.592 21.8421 18.592 22.6099ZM23.5877 22.6099V21.3391H23.0469V21.6568C22.8667 21.4185 22.6092 21.2861 22.2744 21.2861C21.5791 21.2861 21.0384 21.8421 21.0384 22.6099C21.0384 23.3777 21.5791 23.9337 22.2744 23.9337C22.6349 23.9337 22.8924 23.8013 23.0469 23.563V23.8807H23.5877V22.6099ZM21.6049 22.6099C21.6049 22.1598 21.8881 21.7892 22.3517 21.7892C22.7894 21.7892 23.0984 22.1333 23.0984 22.6099C23.0984 23.06 22.7894 23.4306 22.3517 23.4306C21.8881 23.4041 21.6049 23.06 21.6049 22.6099ZM15.1414 21.2861C14.4203 21.2861 13.9053 21.8156 13.9053 22.6099C13.9053 23.4041 14.4203 23.9337 15.1671 23.9337C15.5276 23.9337 15.8881 23.8278 16.1714 23.5895L15.9139 23.1923C15.7079 23.3512 15.4504 23.4571 15.1929 23.4571C14.8581 23.4571 14.5233 23.2982 14.4461 22.8482H16.2744V22.6364C16.3002 21.8156 15.8366 21.2861 15.1414 21.2861ZM15.1414 21.7627C15.4761 21.7627 15.7079 21.9745 15.7594 22.3716H14.4718C14.5233 22.0274 14.7551 21.7627 15.1414 21.7627ZM28.5577 22.6099V20.333H28.0169V21.6568C27.8366 21.4185 27.5791 21.2861 27.2444 21.2861C26.5491 21.2861 26.0083 21.8421 26.0083 22.6099C26.0083 23.3777 26.5491 23.9337 27.2444 23.9337C27.6049 23.9337 27.8624 23.8013 28.0169 23.563V23.8807H28.5577V22.6099ZM26.5748 22.6099C26.5748 22.1598 26.8581 21.7892 27.3216 21.7892C27.7594 21.7892 28.0684 22.1333 28.0684 22.6099C28.0684 23.06 27.7594 23.4306 27.3216 23.4306C26.8581 23.4041 26.5748 23.06 26.5748 22.6099ZM8.4976 22.6099V21.3391H7.95683V21.6568C7.77657 21.4185 7.51906 21.2861 7.1843 21.2861C6.48902 21.2861 5.94825 21.8421 5.94825 22.6099C5.94825 23.3777 6.48902 23.9337 7.1843 23.9337C7.54481 23.9337 7.80232 23.8013 7.95683 23.563V23.8807H8.4976V22.6099ZM6.48902 22.6099C6.48902 22.1598 6.77228 21.7892 7.2358 21.7892C7.67357 21.7892 7.98258 22.1333 7.98258 22.6099C7.98258 23.06 7.67357 23.4306 7.2358 23.4306C6.77228 23.4041 6.48902 23.06 6.48902 22.6099Z" fill="#646F87"/>
<path d="M19.056 2.03857H10.9444V17.0236H19.056V2.03857Z" fill="#646F87"/>
<path d="M30 9.53113C30 14.7997 25.8541 19.0622 20.7296 19.0622C18.5665 19.0622 16.5837 18.2945 15.0129 17.0236C17.176 15.2763 18.5408 12.5758 18.5408 9.53113C18.5408 6.48646 17.1502 3.78597 15.0129 2.0386C16.5837 0.767785 18.5665 0 20.7296 0C25.8541 0 30 4.28901 30 9.53113Z" fill="#E4E7EC"/>
<path d="M11.4592 9.53113C11.4592 6.48646 12.8498 3.78597 14.9871 2.0386C13.4163 0.767785 11.4335 0 9.27037 0C4.14592 0 0 4.26253 0 9.53113C0 14.7997 4.14592 19.0622 9.27037 19.0622C11.4335 19.0622 13.4163 18.2945 14.9871 17.0236C12.8498 15.3028 11.4592 12.5758 11.4592 9.53113Z" fill="#646F87"/>
</svg>
