  <svg viewBox="0 0 30 24" fill="none" xmlns="http://www.w3.org/2000/svg">
    <path
      d="M5.47402 23.9469V22.354C5.47402 21.7434 5.11251 21.3451 4.49277 21.3451C4.1829 21.3451 3.84721 21.4513 3.61481 21.7965C3.43405 21.5044 3.17583 21.3451 2.78849 21.3451C2.53027 21.3451 2.27204 21.4248 2.06546 21.7168V21.3982H1.52319V23.9469H2.06546V22.5398C2.06546 22.0885 2.29787 21.8761 2.65938 21.8761C3.02089 21.8761 3.20165 22.115 3.20165 22.5398V23.9469H3.74392V22.5398C3.74392 22.0885 4.00214 21.8761 4.33784 21.8761C4.69935 21.8761 4.88011 22.115 4.88011 22.5398V23.9469H5.47402ZM13.5048 21.3982H12.6268V20.6283H12.0846V21.3982H11.5939V21.9026H12.0846V23.0708C12.0846 23.6549 12.317 24 12.9367 24C13.1691 24 13.4273 23.9204 13.6081 23.8142L13.4531 23.3363C13.2982 23.4425 13.1175 23.469 12.9883 23.469C12.7301 23.469 12.6268 23.3097 12.6268 23.0442V21.9026H13.5048V21.3982ZM18.1012 21.3451C17.7913 21.3451 17.5847 21.5044 17.4556 21.7168V21.3982H16.9133V23.9469H17.4556V22.5133C17.4556 22.0885 17.6364 21.8496 17.9721 21.8496C18.0754 21.8496 18.2045 21.8761 18.3078 21.9026L18.4627 21.3717C18.3594 21.3451 18.2045 21.3451 18.1012 21.3451ZM11.155 21.6106C10.8967 21.4248 10.5352 21.3451 10.1479 21.3451C9.52814 21.3451 9.11498 21.6637 9.11498 22.1681C9.11498 22.5929 9.42485 22.8319 9.96712 22.9115L10.2253 22.9381C10.5094 22.9911 10.6643 23.0708 10.6643 23.2035C10.6643 23.3894 10.4577 23.5221 10.0962 23.5221C9.73472 23.5221 9.45067 23.3894 9.26992 23.2566L9.01169 23.6814C9.29574 23.8938 9.68307 24 10.0704 24C10.7934 24 11.2066 23.6549 11.2066 23.177C11.2066 22.7257 10.8709 22.4867 10.3545 22.4071L10.0962 22.3805C9.86383 22.354 9.68307 22.3009 9.68307 22.1416C9.68307 21.9557 9.86383 21.8496 10.1479 21.8496C10.4577 21.8496 10.7676 21.9823 10.9226 22.0619L11.155 21.6106ZM25.5639 21.3451C25.254 21.3451 25.0474 21.5044 24.9183 21.7168V21.3982H24.376V23.9469H24.9183V22.5133C24.9183 22.0885 25.0991 21.8496 25.4347 21.8496C25.538 21.8496 25.6671 21.8761 25.7704 21.9026L25.9254 21.3717C25.8221 21.3451 25.6671 21.3451 25.5639 21.3451ZM18.6434 22.6726C18.6434 23.4425 19.1599 24 19.9604 24C20.3219 24 20.5801 23.9204 20.8384 23.708L20.5801 23.2566C20.3736 23.4159 20.167 23.4956 19.9346 23.4956C19.4956 23.4956 19.1857 23.177 19.1857 22.6726C19.1857 22.1947 19.4956 21.8761 19.9346 21.8496C20.167 21.8496 20.3736 21.9292 20.5801 22.0885L20.8384 21.6372C20.5801 21.4248 20.3219 21.3451 19.9604 21.3451C19.1599 21.3451 18.6434 21.9026 18.6434 22.6726ZM23.653 22.6726V21.3982H23.1107V21.7168C22.93 21.4779 22.6717 21.3451 22.3361 21.3451C21.6389 21.3451 21.0966 21.9026 21.0966 22.6726C21.0966 23.4425 21.6389 24 22.3361 24C22.6976 24 22.9558 23.8673 23.1107 23.6283V23.9469H23.653V22.6726ZM21.6647 22.6726C21.6647 22.2212 21.9487 21.8496 22.4135 21.8496C22.8525 21.8496 23.1624 22.1947 23.1624 22.6726C23.1624 23.1239 22.8525 23.4956 22.4135 23.4956C21.9487 23.469 21.6647 23.1239 21.6647 22.6726ZM15.1832 21.3451C14.4602 21.3451 13.9438 21.8761 13.9438 22.6726C13.9438 23.469 14.4602 24 15.2091 24C15.5706 24 15.9321 23.8938 16.2161 23.6549L15.9579 23.2566C15.7513 23.4159 15.4931 23.5221 15.2349 23.5221C14.8992 23.5221 14.5635 23.3628 14.486 22.9115H16.3194V22.6991C16.3453 21.8761 15.8805 21.3451 15.1832 21.3451ZM15.1832 21.823C15.5189 21.823 15.7513 22.0354 15.803 22.4336H14.5119C14.5635 22.0885 14.7959 21.823 15.1832 21.823ZM28.6367 22.6726V20.3894H28.0945V21.7168C27.9137 21.4779 27.6555 21.3451 27.3198 21.3451C26.6226 21.3451 26.0803 21.9026 26.0803 22.6726C26.0803 23.4425 26.6226 24 27.3198 24C27.6813 24 27.9395 23.8673 28.0945 23.6283V23.9469H28.6367V22.6726ZM26.6484 22.6726C26.6484 22.2212 26.9324 21.8496 27.3972 21.8496C27.8362 21.8496 28.1461 22.1947 28.1461 22.6726C28.1461 23.1239 27.8362 23.4956 27.3972 23.4956C26.9324 23.469 26.6484 23.1239 26.6484 22.6726ZM8.52107 22.6726V21.3982H7.9788V21.7168C7.79804 21.4779 7.53982 21.3451 7.20412 21.3451C6.50692 21.3451 5.96465 21.9026 5.96465 22.6726C5.96465 23.4425 6.50692 24 7.20412 24C7.56564 24 7.82386 23.8673 7.9788 23.6283V23.9469H8.52107V22.6726ZM6.50692 22.6726C6.50692 22.2212 6.79097 21.8496 7.25577 21.8496C7.69475 21.8496 8.00462 22.1947 8.00462 22.6726C8.00462 23.1239 7.69475 23.4956 7.25577 23.4956C6.79097 23.469 6.50692 23.1239 6.50692 22.6726Z"
      fill="#212124"
    />
    <path d="M19.1089 2.04423H10.9749V17.0708H19.1089V2.04423Z" fill="#FF5F00" />
    <path
      d="M30.0832 9.55755C30.0832 14.8407 25.9258 19.1151 20.7871 19.1151C18.6181 19.1151 16.6297 18.3452 15.0546 17.0708C17.2236 15.3186 18.5922 12.6107 18.5922 9.55755C18.5922 6.50444 17.1978 3.79647 15.0546 2.04425C16.6297 0.769913 18.6181 0 20.7871 0C25.9258 0 30.0832 4.3009 30.0832 9.55755Z"
      fill="#F79E1B"
    />
    <path
      d="M11.491 9.55755C11.491 6.50444 12.8854 3.79647 15.0286 2.04425C13.4535 0.769913 11.4652 0 9.29607 0C4.15741 0 0 4.27435 0 9.55755C0 14.8407 4.15741 19.1151 9.29607 19.1151C11.4652 19.1151 13.4535 18.3452 15.0286 17.0708C12.8854 15.3452 11.491 12.6107 11.491 9.55755Z"
      fill="#EB001B"
    />
  </svg>
