  <svg viewBox="0 0 30 24" fill="none" xmlns="http://www.w3.org/2000/svg">
    <path
      d="M5.45895 23.8971V22.3086C5.45895 21.6997 5.09844 21.3025 4.48041 21.3025C4.1714 21.3025 3.83664 21.4084 3.60488 21.7526C3.42462 21.4614 3.16711 21.3025 2.78084 21.3025C2.52333 21.3025 2.26582 21.382 2.05981 21.6732V21.3555H1.51904V23.8971H2.05981V22.4939C2.05981 22.0438 2.29157 21.832 2.65209 21.832C3.0126 21.832 3.19286 22.0703 3.19286 22.4939V23.8971H3.73363V22.4939C3.73363 22.0438 3.99114 21.832 4.32591 21.832C4.68642 21.832 4.86668 22.0703 4.86668 22.4939V23.8971H5.45895ZM13.4675 21.3555H12.592V20.5877H12.0512V21.3555H11.5619V21.8585H12.0512V23.0234C12.0512 23.6059 12.283 23.9501 12.901 23.9501C13.1328 23.9501 13.3903 23.8706 13.5705 23.7647L13.416 23.2882C13.2615 23.3941 13.0813 23.4206 12.9525 23.4206C12.695 23.4206 12.592 23.2617 12.592 22.997V21.8585H13.4675V21.3555ZM18.0512 21.3025C17.7422 21.3025 17.5362 21.4614 17.4074 21.6732V21.3555H16.8667V23.8971H17.4074V22.4675C17.4074 22.0438 17.5877 21.8056 17.9224 21.8056C18.0254 21.8056 18.1542 21.832 18.2572 21.8585L18.4117 21.329C18.3087 21.3025 18.1542 21.3025 18.0512 21.3025ZM11.1242 21.5673C10.8667 21.382 10.5062 21.3025 10.1199 21.3025C9.50186 21.3025 9.08984 21.6202 9.08984 22.1233C9.08984 22.5469 9.39886 22.7852 9.93963 22.8646L10.1971 22.8911C10.4804 22.944 10.6349 23.0234 10.6349 23.1558C10.6349 23.3411 10.4289 23.4735 10.0684 23.4735C9.70787 23.4735 9.42461 23.3411 9.24435 23.2088L8.98684 23.6324C9.2701 23.8442 9.65637 23.9501 10.0426 23.9501C10.7637 23.9501 11.1757 23.6059 11.1757 23.1293C11.1757 22.6793 10.8409 22.441 10.3259 22.3616L10.0684 22.3351C9.83662 22.3086 9.65637 22.2557 9.65637 22.0968C9.65637 21.9115 9.83662 21.8056 10.1199 21.8056C10.4289 21.8056 10.7379 21.9379 10.8924 22.0174L11.1242 21.5673ZM25.4932 21.3025C25.1842 21.3025 24.9782 21.4614 24.8495 21.6732V21.3555H24.3087V23.8971H24.8495V22.4675C24.8495 22.0438 25.0297 21.8056 25.3645 21.8056C25.4675 21.8056 25.5963 21.832 25.6993 21.8585L25.8538 21.329C25.7508 21.3025 25.5963 21.3025 25.4932 21.3025ZM18.592 22.6263C18.592 23.3941 19.107 23.9501 19.9053 23.9501C20.2658 23.9501 20.5233 23.8706 20.7808 23.6588L20.5233 23.2088C20.3173 23.3676 20.1113 23.447 19.8795 23.447C19.4418 23.447 19.1327 23.1293 19.1327 22.6263C19.1327 22.1497 19.4418 21.832 19.8795 21.8056C20.1113 21.8056 20.3173 21.885 20.5233 22.0438L20.7808 21.5938C20.5233 21.382 20.2658 21.3025 19.9053 21.3025C19.107 21.3025 18.592 21.8585 18.592 22.6263ZM23.5877 22.6263V21.3555H23.0469V21.6732C22.8666 21.4349 22.6091 21.3025 22.2744 21.3025C21.5791 21.3025 21.0383 21.8585 21.0383 22.6263C21.0383 23.3941 21.5791 23.9501 22.2744 23.9501C22.6349 23.9501 22.8924 23.8177 23.0469 23.5794V23.8971H23.5877V22.6263ZM21.6048 22.6263C21.6048 22.1762 21.8881 21.8056 22.3516 21.8056C22.7894 21.8056 23.0984 22.1497 23.0984 22.6263C23.0984 23.0764 22.7894 23.447 22.3516 23.447C21.8881 23.4206 21.6048 23.0764 21.6048 22.6263ZM15.1413 21.3025C14.4203 21.3025 13.9053 21.832 13.9053 22.6263C13.9053 23.4206 14.4203 23.9501 15.1671 23.9501C15.5276 23.9501 15.8881 23.8442 16.1714 23.6059L15.9139 23.2088C15.7079 23.3676 15.4503 23.4735 15.1928 23.4735C14.8581 23.4735 14.5233 23.3147 14.4461 22.8646H16.2744V22.6528C16.3001 21.832 15.8366 21.3025 15.1413 21.3025ZM15.1413 21.7791C15.4761 21.7791 15.7079 21.9909 15.7594 22.388H14.4718C14.5233 22.0438 14.7551 21.7791 15.1413 21.7791ZM28.5576 22.6263V20.3494H28.0168V21.6732C27.8366 21.4349 27.5791 21.3025 27.2443 21.3025C26.549 21.3025 26.0083 21.8585 26.0083 22.6263C26.0083 23.3941 26.549 23.9501 27.2443 23.9501C27.6048 23.9501 27.8623 23.8177 28.0168 23.5794V23.8971H28.5576V22.6263ZM26.5748 22.6263C26.5748 22.1762 26.8581 21.8056 27.3216 21.8056C27.7593 21.8056 28.0683 22.1497 28.0683 22.6263C28.0683 23.0764 27.7593 23.447 27.3216 23.447C26.8581 23.4206 26.5748 23.0764 26.5748 22.6263ZM8.49757 22.6263V21.3555H7.9568V21.6732C7.77654 21.4349 7.51903 21.3025 7.18427 21.3025C6.48899 21.3025 5.94822 21.8585 5.94822 22.6263C5.94822 23.3941 6.48899 23.9501 7.18427 23.9501C7.54478 23.9501 7.80229 23.8177 7.9568 23.5794V23.8971H8.49757V22.6263ZM6.48899 22.6263C6.48899 22.1762 6.77225 21.8056 7.23577 21.8056C7.67354 21.8056 7.98255 22.1497 7.98255 22.6263C7.98255 23.0764 7.67354 23.447 7.23577 23.447C6.77225 23.4206 6.48899 23.0764 6.48899 22.6263Z"
      fill="white"
    />
    <path
      d="M14.1788 17.227C14.2513 17.2897 14.3288 17.3525 14.405 17.414C12.9338 18.4171 11.1675 19 9.27125 19C4.15 19.0013 0 14.748 0 9.50064C0 4.25453 4.15 0 9.27 0C11.1675 0 12.9338 0.584182 14.4012 1.586C14.3263 1.65134 14.2513 1.71155 14.195 1.77817C12 3.7216 10.7438 6.53874 10.7438 9.50064C10.7438 12.4613 11.995 15.2784 14.1788 17.227ZM20.73 0C18.83 0 17.0662 0.584182 15.5988 1.586C15.6737 1.65134 15.7487 1.71155 15.805 1.77817C18 3.7216 19.2563 6.53874 19.2563 9.50064C19.2563 12.46 18.005 15.2746 15.8212 17.227C15.7487 17.2897 15.6712 17.3525 15.595 17.414C17.0662 18.4171 18.83 19 20.7288 19C25.85 19.0013 30 14.748 30 9.50064C30 4.25582 25.85 0 20.73 0ZM15 2.03695C14.88 2.13303 14.7638 2.22911 14.65 2.33288C12.695 4.0739 11.4612 6.63738 11.4612 9.50064C11.4612 12.3652 12.695 14.9274 14.65 16.6684C14.7625 16.7709 14.8813 16.8708 15 16.9656C15.12 16.8708 15.2362 16.7709 15.35 16.6684C17.3037 14.9274 18.5387 12.3652 18.5387 9.50064C18.5387 6.63738 17.305 4.0739 15.35 2.33288C15.2375 2.2304 15.12 2.13303 15 2.03695Z"
      fill="white"
    />
  </svg>
