<svg viewBox="0 0 61 25" fill="none" xmlns="http://www.w3.org/2000/svg">
<path fill-rule="evenodd" clip-rule="evenodd" d="M38.6432 0.149597H36.0272C35.8886 0.149597 35.7762 0.261693 35.7762 0.399973V18.9568C35.7762 19.095 35.8886 19.2071 36.0272 19.2071H38.6432C38.7819 19.2071 38.8942 19.095 38.8942 18.9568V0.399973C38.8942 0.261693 38.7819 0.149597 38.6432 0.149597ZM33.6332 13.8191C33.7587 13.8191 33.8644 13.7268 33.8826 13.6025C33.9362 13.2368 33.9627 12.9452 33.9627 12.5647C33.9627 11.5591 33.776 10.6902 33.4078 9.81879C33.0411 8.94906 32.6332 8.21851 31.9916 7.55962C31.35 6.90073 30.6679 6.37609 29.8 5.99806C28.9321 5.62084 28.1501 5.42894 27.1501 5.42894C26.1501 5.42894 25.203 5.62084 24.3351 5.99806C23.4681 6.37609 22.7026 6.90073 22.061 7.55962C21.4202 8.21687 20.8876 8.94741 20.5193 9.81879C20.1518 10.6893 19.9652 11.6414 19.9652 12.6471C19.9652 13.6527 20.1518 14.4458 20.5193 15.3263C20.8876 16.2067 21.3987 16.9826 22.0395 17.6299C22.6803 18.2781 23.4449 18.7986 24.3136 19.1767C25.1815 19.5539 26.1287 19.7458 27.1287 19.7458C28.1287 19.7458 29.241 19.5539 30.1088 19.1767C30.9775 18.7986 31.7422 18.2781 32.383 17.6299C32.6505 17.3598 32.895 17.0674 33.1163 16.7544C33.198 16.6391 33.1691 16.4793 33.051 16.4003L30.9429 14.9911C30.8256 14.9128 30.6687 14.9474 30.5911 15.0652C30.459 15.2678 30.3087 15.4548 30.1427 15.6261C29.8008 15.9778 29.3871 16.257 28.9115 16.4579C28.4358 16.6581 27.7447 16.7594 27.1832 16.7594H27.1179C26.5572 16.7594 26.0312 16.6581 25.5556 16.4579C25.08 16.257 24.6654 15.9778 24.3244 15.6261C23.9817 15.2736 23.7084 14.8511 23.5127 14.3717C23.4416 14.1971 23.3822 14.0118 23.3368 13.8191H33.6332ZM23.5118 10.6193C23.7075 10.1392 23.9809 9.71748 24.3236 9.36415C24.6646 9.0133 25.0791 8.73327 25.5548 8.53313C26.0163 8.33895 26.5252 8.2378 27.0672 8.23196C27.6099 8.2378 28.1189 8.33895 28.5804 8.53313C29.056 8.73327 29.4697 9.0133 29.8116 9.36415C30.1543 9.71748 30.4276 10.1392 30.6233 10.6193C30.6943 10.7939 30.7529 10.9793 30.7992 11.172H23.3359C23.3814 10.9793 23.4408 10.7939 23.5118 10.6193ZM43.0998 1.52914C43.1559 1.55879 43.2046 1.60245 43.2468 1.65022H43.2476L44.8653 3.47945C45.0106 3.64335 45.0255 3.88055 44.8908 4.06834C44.8025 4.19105 44.6539 4.25612 44.5019 4.25612H41.1601C41.0089 4.25612 40.8611 4.1927 40.7728 4.07081C40.6357 3.88302 40.6497 3.64418 40.7959 3.47945L42.4185 1.64527C42.582 1.46078 42.8587 1.39901 43.0998 1.52914ZM44.1385 5.96758H41.5225C41.3839 5.96758 41.2715 6.07968 41.2715 6.21796V18.9568C41.2715 19.095 41.3839 19.2071 41.5225 19.2071H44.1385C44.2772 19.2071 44.3896 19.095 44.3896 18.9568V6.21796C44.3896 6.07968 44.2772 5.96758 44.1385 5.96758ZM9.18824 7.35043C10.2659 6.21467 11.5507 5.63979 13.009 5.63979H13.0099C14.4838 5.63979 15.8472 6.21714 16.848 7.26642C17.834 8.30087 18.3773 9.68948 18.3773 11.1777V18.9568C18.3773 19.0951 18.265 19.2071 18.1263 19.2071H15.535C15.3963 19.2071 15.284 19.0951 15.284 18.9568V11.1777C15.284 10.5049 15.0594 9.8855 14.6523 9.43334C14.2369 8.97212 13.654 8.71844 13.0099 8.71844C12.3658 8.71844 11.7828 8.97294 11.3674 9.43334C10.9603 9.8855 10.7357 10.5057 10.7357 11.1777V18.9568C10.7357 19.0951 10.6234 19.2071 10.4847 19.2071H7.89262C7.7539 19.2071 7.64159 19.0951 7.64159 18.9568V11.1777C7.64159 10.5049 7.41699 9.8855 7.00989 9.43334C6.59453 8.97212 6.01154 8.71844 5.36745 8.71844C4.72335 8.71844 4.13954 8.97294 3.72501 9.43334C3.31791 9.8855 3.0933 10.5049 3.0933 11.1777V18.9568C3.0933 19.0951 2.981 19.2071 2.84227 19.2071H0.251031C0.112304 19.2071 0 19.0951 0 18.9568V11.1777C0 9.68948 0.543351 8.30087 1.52931 7.26642C2.53096 6.21714 3.90915 5.63979 5.36745 5.63979C6.82574 5.63979 8.11063 6.21549 9.18824 7.35043ZM55.0122 21.3535H51.6712C51.5209 21.3535 51.3723 21.4177 51.2839 21.5388C51.1477 21.7266 51.1609 21.9654 51.3071 22.1301L52.9247 23.9594C52.9668 24.0071 53.0156 24.0508 53.0717 24.0804C53.3128 24.2106 53.5895 24.1488 53.753 23.9643L55.3756 22.1301C55.5209 21.9662 55.5358 21.729 55.4012 21.5412C55.3128 21.4177 55.1642 21.3535 55.0122 21.3535ZM58.4243 7.52833C59.0568 8.17733 59.5613 8.94164 59.923 9.79902H59.9222C60.2847 10.658 60.4689 11.5953 60.4689 12.5869C60.4689 13.5786 60.2855 14.5216 59.923 15.3897C59.5605 16.257 59.0568 17.0213 58.4243 17.6612C57.7926 18.2995 57.0378 18.8126 56.1823 19.1849C55.3268 19.5572 54.3929 19.7458 53.4078 19.7458C52.4226 19.7458 51.4887 19.5572 50.6332 19.1849C49.7777 18.8126 49.0238 18.3003 48.3921 17.6612C47.7604 17.0221 47.2558 16.2578 46.8933 15.3897C46.5308 14.5224 46.3475 13.5786 46.3475 12.5869C46.3475 11.5953 46.5308 10.6572 46.8933 9.79902C47.2567 8.94 47.7604 8.17651 48.3921 7.52833C49.0246 6.87932 49.7794 6.36209 50.634 5.98982C51.4887 5.61755 52.4235 5.42894 53.4086 5.42894C54.3937 5.42894 55.3277 5.61755 56.1832 5.98982C57.0378 6.36127 57.7917 6.87932 58.4243 7.52833ZM49.8669 10.9175C49.6885 11.4248 49.5977 11.9865 49.5977 12.5869H49.5985C49.5985 13.1882 49.6894 13.7499 49.8677 14.2564C50.0453 14.7646 50.3004 15.2027 50.625 15.561C50.9486 15.9185 51.3516 16.2059 51.8215 16.4134C52.2905 16.6218 52.8248 16.7272 53.4086 16.7272C53.9924 16.7272 54.5267 16.621 54.9957 16.4134C55.4664 16.2059 55.8694 15.9193 56.1931 15.561C56.5168 15.2036 56.7719 14.7646 56.9511 14.2564C57.1303 13.7482 57.2203 13.1857 57.2203 12.5869C57.2203 11.9882 57.1295 11.4265 56.9511 10.9175C56.7719 10.4093 56.5176 9.97033 56.1931 9.61289C55.8685 9.25544 55.4664 8.96882 54.9957 8.76045C54.525 8.55207 53.9916 8.44665 53.4086 8.44665C52.8256 8.44665 52.2913 8.5529 51.8215 8.76045C51.3516 8.968 50.9495 9.25461 50.625 9.61289C50.2996 9.97116 50.0453 10.4101 49.8669 10.9175Z" fill="#646F87"/>
</svg>
