  <svg viewBox="0 0 63 24" fill="none" xmlns="http://www.w3.org/2000/svg">
    <path
      fill-rule="evenodd"
      clip-rule="evenodd"
      d="M43.5065 12.4675C43.2999 12.6753 43.1966 12.9662 43.1966 13.3402C43.1966 13.6103 43.2379 13.8077 43.3515 13.9947C43.4652 14.1818 43.5995 14.3064 43.7648 14.3895C43.9404 14.4727 44.1471 14.5142 44.4054 14.5142C44.6533 14.5142 44.8703 14.4623 45.0356 14.3688C45.2112 14.2753 45.3352 14.1402 45.4282 13.974C45.5212 13.8077 45.5625 13.5896 45.5625 13.3194C45.5625 12.9454 45.4592 12.6649 45.2526 12.4571C45.0459 12.2597 44.7566 12.1558 44.3744 12.1558C44.0024 12.1558 43.7131 12.2597 43.5065 12.4675ZM44.0231 13.8389C43.9404 13.735 43.8991 13.5688 43.8991 13.3402C43.8991 13.1116 43.9404 12.9454 44.0231 12.8623C44.1057 12.7584 44.2194 12.7064 44.364 12.7064C44.5087 12.7064 44.6327 12.748 44.7153 12.8519C44.8083 12.9454 44.8496 13.1012 44.8496 13.3194C44.8496 13.5688 44.8083 13.7454 44.7257 13.8493C44.643 13.9428 44.5293 13.9947 44.3744 13.9947C44.2194 13.9947 44.1057 13.9428 44.0231 13.8389ZM42.3287 13.548L42.9486 13.735C42.9073 13.9117 42.8453 14.0571 42.7523 14.1714C42.6593 14.2857 42.556 14.3792 42.4217 14.4311C42.2874 14.4935 42.1221 14.5246 41.9154 14.5246C41.6675 14.5246 41.4712 14.4935 41.3059 14.4207C41.1509 14.348 41.0166 14.2233 40.9029 14.0363C40.7893 13.8597 40.7273 13.6207 40.7273 13.3402C40.7273 12.9662 40.8306 12.6753 41.0269 12.4675C41.2232 12.2597 41.5125 12.1662 41.8741 12.1662C42.1634 12.1662 42.3804 12.2285 42.5457 12.3428C42.711 12.4571 42.8349 12.6337 42.9073 12.8831L42.2874 13.0182C42.2667 12.9454 42.246 12.8935 42.215 12.8623C42.1737 12.8104 42.1324 12.7688 42.0704 12.7376C42.0084 12.7065 41.9464 12.6961 41.8844 12.6961C41.7295 12.6961 41.6055 12.7584 41.5228 12.8935C41.4608 12.987 41.4298 13.1428 41.4298 13.3402C41.4298 13.5896 41.4712 13.7662 41.5435 13.8597C41.6158 13.9532 41.7295 14.0052 41.8638 14.0052C41.9981 14.0052 42.1014 13.9636 42.1634 13.8909C42.246 13.7974 42.2977 13.6935 42.3287 13.548ZM55.1709 14.0986H55.9664L56.0904 14.4727H56.824L55.9664 12.187H55.2019L54.3444 14.4727H55.0573L55.1709 14.0986ZM55.5738 12.7895L55.8218 13.6103H55.3259L55.5738 12.7895ZM45.9241 12.1974H46.8436L47.1949 13.5896L47.5462 12.1974H48.4657V14.4831H47.8871V12.7376L47.4429 14.4831H46.9263L46.482 12.7376V14.4831H45.9035V12.1974H45.9241ZM50.0877 12.1974H48.9203V14.4935H49.6228V13.6415H50.0051C50.284 13.6415 50.501 13.5792 50.6353 13.4441C50.7696 13.3195 50.8419 13.1324 50.8419 12.9039C50.8419 12.6753 50.7799 12.5091 50.656 12.3844C50.532 12.2597 50.346 12.1974 50.0877 12.1974ZM49.7984 13.174H49.6331V12.6649H49.8294C49.9637 12.6649 50.0464 12.6857 50.0981 12.7376C50.1497 12.7896 50.1704 12.8519 50.1704 12.9246C50.1704 12.9974 50.1394 13.0493 50.0877 13.1013C50.0257 13.1532 49.9328 13.174 49.7984 13.174ZM51.2139 12.1974H51.9164V13.922H53.0116V14.4831H51.2139V12.1974ZM54.0654 12.1974H53.3629V14.4831H54.0654V12.1974ZM57.0409 12.1974H57.6918L58.5493 13.4649V12.1974H59.2105V14.4831H58.5493L57.7021 13.2259V14.4831H57.0409V12.1974ZM59.5308 12.1974H61.6591V12.7584H60.9463V14.4831H60.2437V12.7584H59.5308V12.1974Z"
      fill="white"
    />
    <path
      fill-rule="evenodd"
      clip-rule="evenodd"
      d="M35.9127 15.0338L33.8774 15.6779C34.2803 14.961 34.7659 14.1714 35.2515 13.5584L35.9127 15.0338ZM29.1971 0L33.1851 8.93506C32.7317 9.55737 31.3736 11.4439 30.0954 13.2925V7.3609H26.4794V15.3014C25.9806 14.9618 25.4558 14.7229 24.9503 14.6373V14.2389C24.9503 14.2077 24.9296 14.1973 24.909 14.2181C24.909 14.2181 24.5164 14.5298 22.8013 14.7064C22.3157 14.7584 22.0781 14.7376 21.9025 14.7064C19.4642 14.2908 19.3506 12.5038 19.3506 12.5038C19.3506 12.4866 19.3474 12.4632 19.3446 12.4421L19.3446 12.4421C19.3423 12.4249 19.3402 12.4092 19.3402 12.3999V11.7142C19.3402 11.683 19.3402 11.6311 19.3506 11.6103C19.3506 11.6103 19.5159 9.68822 21.9025 9.48043H22.8013C23.8448 9.6155 24.692 10.135 24.692 10.135C24.723 10.1454 24.7437 10.135 24.7437 10.1038V7.69342C24.7437 7.66225 24.723 7.63108 24.692 7.6103C24.692 7.6103 24.2168 7.29861 22.7703 7.21549C22.698 7.17393 21.4272 7.16355 21.0863 7.21549C15.8172 7.64147 15.6208 11.4752 15.6208 11.6415V12.5765C15.6208 12.6908 15.6208 16.6077 21.0863 16.9506C21.5248 16.9845 22.3007 16.963 22.6272 16.954L22.6272 16.954C22.7007 16.952 22.7514 16.9506 22.7703 16.9506C22.7762 16.9506 22.7821 16.9506 22.788 16.9505C22.9031 17.5934 23.2191 18.2831 23.6594 18.9195L8.08965 23.8545L0 1.66234L29.1971 0ZM28.2874 6.457C29.5065 6.457 30.4984 5.52193 30.4984 4.3583C30.4984 3.19466 29.5065 2.2596 28.2874 2.2596C27.0683 2.2596 26.0764 3.19466 26.0764 4.3583C26.0764 5.51155 27.0683 6.457 28.2874 6.457ZM5.63027 16.8882C5.59928 16.8882 5.57861 16.8674 5.57861 16.8362V7.41283C5.57861 7.38167 5.59928 7.36089 5.63027 7.36089H10.1968C11.354 7.30894 14.8874 7.63101 14.8874 10.6336C14.8874 14.4258 9.25667 14.0206 9.25667 14.0206C9.22567 14.0206 9.20501 14.0414 9.20501 14.0726V16.8362C9.20501 16.8674 9.18435 16.8882 9.15335 16.8882H5.63027ZM9.14302 9.42842V11.9115H10.1142C10.1142 11.9115 11.199 11.8596 11.3643 10.8518C11.385 10.831 11.385 10.405 11.3643 10.3427C11.261 9.48037 10.0109 9.42842 10.0109 9.42842H9.14302Z"
      fill="white"
    />
    <path
      d="M28.3912 21.4545C28.6805 21.4545 28.9078 21.4545 29.2797 21.2882C30.5609 20.6129 34.8898 9.98434 39.4564 6.71162C39.4874 6.69084 39.5184 6.65967 39.539 6.6285C39.57 6.58694 39.57 6.54538 39.57 6.54538C39.57 6.54538 39.57 6.3272 38.8985 6.3272C34.8382 6.21292 30.6125 14.7843 28.3912 18.1714C28.3602 18.2129 28.2156 18.1714 28.2156 18.1714C28.2156 18.1714 26.7278 16.4051 25.4364 15.7298C25.4054 15.7194 25.2607 15.6675 25.1058 15.6779C25.0025 15.6779 24.4032 15.8025 24.1243 16.0934C23.7937 16.4467 23.804 16.6441 23.804 17.0701C23.804 17.1012 23.8247 17.2467 23.866 17.3194C24.1863 17.8804 25.6224 19.8753 26.8105 20.9766C26.9861 21.1116 27.2651 21.4545 28.3912 21.4545Z"
      fill="white"
    />
    <path
      fill-rule="evenodd"
      clip-rule="evenodd"
      d="M55.3154 8.45706L57.485 8.322C57.5367 8.67524 57.6296 8.94538 57.7743 9.13239C58.0119 9.43369 58.3425 9.57914 58.7764 9.57914C59.0967 9.57914 59.355 9.50641 59.5307 9.35057C59.7063 9.19472 59.7993 9.0181 59.7993 8.8207C59.7993 8.63369 59.7166 8.45706 59.5513 8.30122C59.386 8.14538 58.9934 8.01031 58.3839 7.87525C57.3817 7.64667 56.6791 7.34537 56.2452 6.97135C55.8216 6.59732 55.6046 6.1194 55.6046 5.53758C55.6046 5.15317 55.7183 4.79992 55.9353 4.45706C56.1522 4.11421 56.4828 3.85447 56.9271 3.65706C57.3713 3.45966 57.9706 3.36615 58.7351 3.36615C59.6753 3.36615 60.3985 3.54278 60.8841 3.89602C61.38 4.24927 61.6693 4.81031 61.7623 5.57914L59.6133 5.70382C59.5513 5.37135 59.4377 5.13239 59.2517 4.97654C59.0657 4.8207 58.8178 4.74797 58.4975 4.74797C58.2289 4.74797 58.0326 4.79992 57.8983 4.91421C57.764 5.02849 57.702 5.16356 57.702 5.32979C57.702 5.44408 57.7536 5.55836 57.8673 5.65187C57.9706 5.74538 58.2289 5.83888 58.6318 5.922C59.6236 6.14018 60.3365 6.35836 60.7704 6.57654C61.2044 6.79473 61.5143 7.07524 61.7106 7.39732C61.9069 7.7194 61.9999 8.09343 61.9999 8.49862C61.9999 8.97654 61.8656 9.41291 61.6073 9.80771C61.349 10.2129 60.9771 10.5142 60.5122 10.722C60.0472 10.9298 59.448 11.0337 58.7351 11.0337C57.485 11.0337 56.6171 10.7947 56.1316 10.3064C55.646 9.8181 55.3774 9.20512 55.3154 8.45706ZM40.6548 3.50127H44.0332C44.7048 3.50127 45.242 3.59477 45.645 3.7714C46.0582 3.95841 46.3992 4.21815 46.6575 4.55062C46.9261 4.89348 47.1224 5.28828 47.236 5.73503C47.36 6.18179 47.422 6.65971 47.422 7.1688C47.422 7.95841 47.329 8.5714 47.1534 9.00776C46.9777 9.44412 46.7298 9.80776 46.4095 10.1091C46.0892 10.4 45.7483 10.5974 45.3867 10.7013C44.8907 10.8363 44.4362 10.8987 44.0332 10.8987H40.6548V3.50127ZM42.9277 5.17399V9.21555H43.4856C43.9609 9.21555 44.3018 9.1636 44.4981 9.05971C44.6944 8.95581 44.8598 8.7688 44.9734 8.50906C45.087 8.24932 45.149 7.81295 45.149 7.22075C45.149 6.43114 45.0251 5.90127 44.7668 5.61036C44.5085 5.31945 44.0952 5.17399 43.496 5.17399H42.9277ZM50.2218 8.322L48.0522 8.45706C48.1245 9.20512 48.3931 9.8181 48.8684 10.3064C49.354 10.7947 50.2218 11.0337 51.472 11.0337C52.1848 11.0337 52.7841 10.9298 53.249 10.722C53.7139 10.5142 54.0858 10.2129 54.3441 9.80771C54.6024 9.41291 54.7367 8.97654 54.7367 8.49862C54.7367 8.09343 54.6438 7.7194 54.4475 7.39732C54.2512 7.07524 53.9412 6.79473 53.5073 6.57654C53.0734 6.35836 52.3605 6.14018 51.3686 5.922C50.9657 5.83888 50.7074 5.74538 50.6041 5.65187C50.4904 5.55836 50.4388 5.44408 50.4388 5.32979C50.4388 5.16356 50.5008 5.02849 50.6351 4.91421C50.7694 4.79992 50.9657 4.74797 51.2343 4.74797C51.5546 4.74797 51.8026 4.8207 51.9885 4.97654C52.1745 5.13239 52.2881 5.37135 52.3501 5.70382L54.4991 5.57914C54.4061 4.81031 54.1168 4.24927 53.6209 3.89602C53.1353 3.54278 52.4121 3.36615 51.472 3.36615C50.7074 3.36615 50.1082 3.45966 49.6639 3.65706C49.2197 3.85447 48.889 4.11421 48.6721 4.45706C48.4551 4.79992 48.3415 5.15317 48.3415 5.53758C48.3415 6.1194 48.5481 6.59732 48.982 6.97135C49.416 7.34537 50.1185 7.64667 51.1207 7.87525C51.7302 8.01031 52.1228 8.14538 52.2882 8.30122C52.4535 8.45706 52.5361 8.63369 52.5361 8.8207C52.5361 9.0181 52.4431 9.19472 52.2675 9.35057C52.0919 9.50641 51.8336 9.57914 51.5133 9.57914C51.0794 9.57914 50.7487 9.43369 50.5111 9.13239C50.3665 8.94538 50.2735 8.67524 50.2218 8.322Z"
      fill="white"
    />
  </svg>
