  <svg viewBox="0 0 63 24" fill="none" xmlns="http://www.w3.org/2000/svg">
    <path
      fill-rule="evenodd"
      clip-rule="evenodd"
      d="M44.4001 12.4675C44.1934 12.6753 44.0901 12.9662 44.0901 13.3402C44.0901 13.6103 44.1314 13.8077 44.2451 13.9947C44.3587 14.1818 44.4931 14.3064 44.6584 14.3895C44.834 14.4727 45.0406 14.5142 45.2989 14.5142C45.5469 14.5142 45.7638 14.4623 45.9292 14.3688C46.1048 14.2753 46.2288 14.1402 46.3218 13.974C46.4147 13.8077 46.4561 13.5896 46.4561 13.3194C46.4561 12.9454 46.3528 12.6649 46.1461 12.4571C45.9395 12.2597 45.6502 12.1558 45.2679 12.1558C44.896 12.1558 44.6067 12.2597 44.4001 12.4675ZM44.9167 13.8389C44.834 13.735 44.7927 13.5688 44.7927 13.3402C44.7927 13.1116 44.834 12.9454 44.9167 12.8623C44.9993 12.7584 45.113 12.7064 45.2576 12.7064C45.4022 12.7064 45.5262 12.748 45.6089 12.8519C45.7019 12.9454 45.7432 13.1012 45.7432 13.3194C45.7432 13.5688 45.7019 13.7454 45.6192 13.8493C45.5366 13.9428 45.4229 13.9947 45.2679 13.9947C45.113 13.9947 44.9993 13.9428 44.9167 13.8389ZM43.2222 13.548L43.8421 13.735C43.8008 13.9117 43.7388 14.0571 43.6458 14.1714C43.5529 14.2857 43.4495 14.3792 43.3152 14.4311C43.1809 14.4935 43.0156 14.5246 42.809 14.5246C42.561 14.5246 42.3647 14.4935 42.1994 14.4207C42.0444 14.348 41.9101 14.2233 41.7965 14.0363C41.6828 13.8597 41.6208 13.6208 41.6208 13.3402C41.6208 12.9662 41.7242 12.6753 41.9205 12.4675C42.1168 12.2597 42.4061 12.1662 42.7677 12.1662C43.0569 12.1662 43.2739 12.2285 43.4392 12.3428C43.6045 12.4571 43.7285 12.6337 43.8008 12.8831L43.1809 13.0182C43.1603 12.9454 43.1396 12.8935 43.1086 12.8623C43.0673 12.8104 43.0259 12.7688 42.964 12.7376C42.902 12.7065 42.84 12.6961 42.778 12.6961C42.623 12.6961 42.499 12.7584 42.4164 12.8935C42.3544 12.987 42.3234 13.1428 42.3234 13.3402C42.3234 13.5896 42.3647 13.7662 42.437 13.8597C42.5094 13.9532 42.623 14.0052 42.7573 14.0052C42.8916 14.0052 42.995 13.9636 43.0569 13.8909C43.1396 13.7974 43.1913 13.6935 43.2222 13.548ZM56.0645 14.0986H56.86L56.984 14.4727H57.7175L56.86 12.187H56.0955L55.2379 14.4727H55.9508L56.0645 14.0986ZM56.4674 12.7896L56.7153 13.6103H56.2194L56.4674 12.7896ZM46.8177 12.1974H47.7372L48.0885 13.5896L48.4398 12.1974H49.3593V14.4831H48.7807V12.7376L48.3364 14.4831H47.8199L47.3756 12.7376V14.4831H46.797V12.1974H46.8177ZM50.9813 12.1974H49.8138V14.4935H50.5164V13.6415H50.8986C51.1776 13.6415 51.3945 13.5792 51.5289 13.4441C51.6632 13.3195 51.7355 13.1324 51.7355 12.9039C51.7355 12.6753 51.6735 12.5091 51.5495 12.3844C51.4255 12.2597 51.2396 12.1974 50.9813 12.1974ZM50.692 13.174H50.5267V12.6649H50.723C50.8573 12.6649 50.94 12.6857 50.9916 12.7376C51.0433 12.7896 51.0639 12.8519 51.0639 12.9246C51.0639 12.9974 51.0329 13.0493 50.9813 13.1013C50.9193 13.1532 50.8263 13.174 50.692 13.174ZM52.1074 12.1974H52.81V13.9221H53.9051V14.4831H52.1074V12.1974ZM54.959 12.1974H54.2564V14.4831H54.959V12.1974ZM57.9345 12.1974H58.5854L59.4429 13.4649V12.1974H60.1041V14.4831H59.4429L58.5957 13.2259V14.4831H57.9345V12.1974ZM60.4244 12.1974H62.5527V12.7584H61.8398V14.4831H61.1373V12.7584H60.4244V12.1974Z"
      fill="#225E63"
    />
    <path
      d="M34.7709 15.6779L36.8062 15.0338L36.145 13.5584C35.6594 14.1714 35.1738 14.961 34.7709 15.6779ZM34.0787 8.93506L30.0907 0L0.893555 1.66234L8.98321 23.8545L24.5529 18.9195C23.5611 17.4857 23.1995 15.7818 24.3463 14.9507C25.6274 14.0156 27.5594 15.0961 28.7889 16.6234C29.977 14.6286 33.3142 9.98442 34.0787 8.93506Z"
      fill="#225E63"
    />
    <path
      fill-rule="evenodd"
      clip-rule="evenodd"
      d="M31.392 4.3583C31.392 5.52193 30.4002 6.457 29.181 6.457C27.9619 6.457 26.9701 5.51155 26.9701 4.3583C26.9701 3.19466 27.9619 2.2596 29.181 2.2596C30.4002 2.2596 31.392 3.19466 31.392 4.3583ZM30.9891 16.8674V7.3609H27.373V16.8674H30.9891ZM25.5856 10.135C25.6166 10.1454 25.6373 10.135 25.6373 10.1038V7.69342C25.6373 7.66225 25.6166 7.63108 25.5856 7.6103C25.5856 7.6103 25.1104 7.29861 23.664 7.21549C23.5916 7.17394 22.3208 7.16355 21.9799 7.21549C16.7108 7.64147 16.5145 11.4752 16.5145 11.6415V12.5765C16.5145 12.6908 16.5145 16.6077 21.9799 16.9506C22.4185 16.9845 23.1943 16.963 23.5208 16.954L23.5209 16.954C23.5943 16.952 23.645 16.9506 23.664 16.9506C24.9244 16.9506 25.7923 16.5661 25.7923 16.5661C25.8233 16.5558 25.8439 16.5246 25.8439 16.4934V14.2389C25.8439 14.2077 25.8233 14.1973 25.8026 14.2181C25.8026 14.2181 25.41 14.5298 23.695 14.7064C23.2094 14.7584 22.9717 14.7376 22.7961 14.7064C20.3578 14.2908 20.2442 12.5038 20.2442 12.5038C20.2442 12.4866 20.2411 12.4632 20.2382 12.4421V12.4421C20.236 12.4249 20.2339 12.4092 20.2339 12.3999V11.7142C20.2339 11.683 20.2339 11.6311 20.2442 11.6103C20.2442 11.6103 20.4095 9.68822 22.7961 9.48043H23.695C24.7384 9.6155 25.5856 10.135 25.5856 10.135ZM6.47217 16.8362C6.47217 16.8674 6.49283 16.8882 6.52383 16.8882H10.0469C10.0779 16.8882 10.0986 16.8674 10.0986 16.8362V14.0726C10.0986 14.0414 10.1192 14.0206 10.1502 14.0206C10.1502 14.0206 15.7809 14.4258 15.7809 10.6336C15.7809 7.63102 12.2475 7.30894 11.0904 7.36089H6.52383C6.49283 7.36089 6.47217 7.38167 6.47217 7.41284V16.8362ZM10.0366 11.9115V9.42842H10.9044C10.9044 9.42842 12.1546 9.48037 12.2579 10.3427C12.2785 10.405 12.2785 10.831 12.2579 10.8518C12.0926 11.8596 11.0077 11.9115 11.0077 11.9115H10.0366Z"
      fill="white"
    />
    <path
      d="M29.2848 21.4545C29.5741 21.4545 29.8014 21.4545 30.1733 21.2882C31.4544 20.6129 35.7834 9.98435 40.3499 6.71162C40.3809 6.69084 40.4119 6.65967 40.4326 6.6285C40.4636 6.58694 40.4636 6.54538 40.4636 6.54538C40.4636 6.54538 40.4636 6.32721 39.792 6.32721C35.7317 6.21292 31.5061 14.7843 29.2848 18.1714C29.2538 18.2129 29.1091 18.1714 29.1091 18.1714C29.1091 18.1714 27.6214 16.4051 26.3299 15.7298C26.2989 15.7194 26.1543 15.6675 25.9993 15.6779C25.896 15.6779 25.2968 15.8025 25.0178 16.0934C24.6872 16.4467 24.6975 16.6441 24.6975 17.0701C24.6975 17.1012 24.7182 17.2467 24.7595 17.3194C25.0798 17.8804 26.5159 19.8753 27.704 20.9766C27.8797 21.1116 28.1586 21.4545 29.2848 21.4545Z"
      fill="#2BBC5D"
    />
    <path
      fill-rule="evenodd"
      clip-rule="evenodd"
      d="M56.2089 8.45707L58.3786 8.322C58.4302 8.67525 58.5232 8.94538 58.6678 9.13239C58.9055 9.43369 59.2361 9.57914 59.67 9.57914C59.9903 9.57914 60.2486 9.50642 60.4242 9.35057C60.5998 9.19473 60.6928 9.01811 60.6928 8.8207C60.6928 8.63369 60.6102 8.45707 60.4449 8.30122C60.2796 8.14538 59.887 8.01031 59.2774 7.87525C58.2752 7.64668 57.5727 7.34538 57.1388 6.97135C56.7152 6.59733 56.4982 6.1194 56.4982 5.53759C56.4982 5.15317 56.6118 4.79992 56.8288 4.45707C57.0458 4.11421 57.3764 3.85447 57.8206 3.65707C58.2649 3.45966 58.8641 3.36616 59.6287 3.36616C60.5689 3.36616 61.2921 3.54278 61.7776 3.89603C62.2736 4.24927 62.5629 4.81031 62.6558 5.57914L60.5069 5.70382C60.4449 5.37135 60.3312 5.13239 60.1453 4.97655C59.9593 4.8207 59.7113 4.74798 59.3911 4.74798C59.1224 4.74798 58.9261 4.79992 58.7918 4.91421C58.6575 5.0285 58.5955 5.16356 58.5955 5.32979C58.5955 5.44408 58.6472 5.55837 58.7608 5.65187C58.8641 5.74538 59.1224 5.83888 59.5254 5.922C60.5172 6.14018 61.2301 6.35837 61.664 6.57655C62.0979 6.79473 62.4079 7.07525 62.6042 7.39733C62.8005 7.7194 62.8935 8.09343 62.8935 8.49863C62.8935 8.97655 62.7592 9.41291 62.5009 9.80772C62.2426 10.2129 61.8706 10.5142 61.4057 10.722C60.9408 10.9298 60.3416 11.0337 59.6287 11.0337C58.3786 11.0337 57.5107 10.7947 57.0251 10.3064C56.5395 9.8181 56.2709 9.20512 56.2089 8.45707ZM41.5483 3.50127H44.9268C45.5983 3.50127 46.1356 3.59478 46.5385 3.7714C46.9518 3.95841 47.2927 4.21815 47.551 4.55062C47.8196 4.89348 48.0159 5.28828 48.1296 5.73504C48.2536 6.18179 48.3155 6.65971 48.3155 7.1688C48.3155 7.95841 48.2226 8.5714 48.0469 9.00776C47.8713 9.44413 47.6233 9.80776 47.303 10.1091C46.9828 10.4 46.6418 10.5974 46.2802 10.7013C45.7843 10.8363 45.3297 10.8987 44.9268 10.8987H41.5483V3.50127ZM43.8213 5.174V9.21556H44.3792C44.8545 9.21556 45.1954 9.16361 45.3917 9.05971C45.588 8.95582 45.7533 8.7688 45.867 8.50906C45.9806 8.24932 46.0426 7.81296 46.0426 7.22075C46.0426 6.43114 45.9186 5.90127 45.6603 5.61036C45.402 5.31945 44.9888 5.174 44.3895 5.174H43.8213ZM51.1154 8.322L48.9457 8.45707C49.0181 9.20512 49.2867 9.8181 49.7619 10.3064C50.2475 10.7947 51.1154 11.0337 52.3655 11.0337C53.0784 11.0337 53.6776 10.9298 54.1425 10.722C54.6075 10.5142 54.9794 10.2129 55.2377 9.80772C55.496 9.41291 55.6303 8.97655 55.6303 8.49863C55.6303 8.09343 55.5373 7.7194 55.341 7.39733C55.1447 7.07525 54.8348 6.79473 54.4008 6.57655C53.9669 6.35837 53.254 6.14018 52.2622 5.922C51.8593 5.83888 51.601 5.74538 51.4977 5.65187C51.384 5.55837 51.3323 5.44408 51.3323 5.32979C51.3323 5.16356 51.3943 5.0285 51.5286 4.91421C51.663 4.79992 51.8593 4.74798 52.1279 4.74798C52.4482 4.74798 52.6961 4.8207 52.8821 4.97655C53.0681 5.13239 53.1817 5.37135 53.2437 5.70382L55.3927 5.57914C55.2997 4.81031 55.0104 4.24927 54.5145 3.89603C54.0289 3.54278 53.3057 3.36616 52.3655 3.36616C51.601 3.36616 51.0017 3.45966 50.5575 3.65707C50.1132 3.85447 49.7826 4.11421 49.5656 4.45707C49.3487 4.79992 49.235 5.15317 49.235 5.53759C49.235 6.1194 49.4417 6.59733 49.8756 6.97135C50.3095 7.34538 51.0121 7.64668 52.0142 7.87525C52.6238 8.01031 53.0164 8.14538 53.1817 8.30122C53.347 8.45707 53.4297 8.63369 53.4297 8.8207C53.4297 9.01811 53.3367 9.19473 53.161 9.35057C52.9854 9.50642 52.7271 9.57914 52.4068 9.57914C51.9729 9.57914 51.6423 9.43369 51.4047 9.13239C51.26 8.94538 51.167 8.67525 51.1154 8.322Z"
      fill="#225E63"
    />
  </svg>
