  <svg viewBox="0 0 127 24" fill="none" xmlns="http://www.w3.org/2000/svg">
    <g clip-path="url(#clip0_151_10095)">
      <path
        fill-rule="evenodd"
        clip-rule="evenodd"
        d="M10.8304 23.6075C16.8119 23.6075 21.6608 18.8466 21.6608 12.9736C21.6608 7.1006 16.8119 2.33961 10.8304 2.33961C4.84894 2.33961 0 7.1006 0 12.9736C0 18.8466 4.84894 23.6075 10.8304 23.6075ZM14.4414 8.83845H13.8397V10.3745H14.4414C15.9012 10.3745 17.0889 11.5406 17.0889 12.9739C17.0889 14.4072 15.9012 15.5733 14.4414 15.5733H12.9955V7.53875C12.9955 6.69039 12.2951 6.00273 11.4312 6.00273V17.1093H14.4414C16.7676 17.1093 18.6532 15.2577 18.6532 12.9739C18.6532 10.69 16.7676 8.83845 14.4414 8.83845ZM3.00721 12.9733C3.00721 15.2572 4.8929 17.1087 7.21903 17.1087H7.82072V15.5726H7.21903C5.75924 15.5726 4.5716 14.4066 4.5716 12.9733C4.5716 11.5399 5.75924 10.3739 7.21903 10.3739H8.66491V18.4084C8.66491 19.2567 9.36533 19.9444 10.2293 19.9444V8.83785H7.21903C4.8929 8.83785 3.00721 10.6894 3.00721 12.9733Z"
        fill="#8E8E90"
      />
      <path
        fill-rule="evenodd"
        clip-rule="evenodd"
        d="M48.2304 2.18627C48.2304 2.57424 47.91 2.88897 47.5149 2.88897C47.1195 2.88897 46.7992 2.57424 46.7992 2.18627C46.7992 1.7983 47.1195 1.48358 47.5149 1.48358C47.91 1.48358 48.2304 1.7983 48.2304 2.18627ZM30.9912 3.36237C30.2907 3.36237 29.7281 3.77922 29.521 4.24419H29.5011V3.49825H28.3763V8.14945H29.5603V5.59106C29.5603 4.97117 29.9158 4.33134 30.6656 4.33134C31.4256 4.33134 31.554 5.01962 31.554 5.57173V8.14945H32.7381V5.24231C32.7381 4.29268 32.2251 3.36237 30.9912 3.36237ZM45.5946 3.49532V4.52568H46.9226V8.14941H48.1068V4.52568H49.4346V3.49532H45.5946ZM27.1637 8.14941H25.9784V3.4982H27.1637V8.14941ZM41.184 6.05631C41.184 6.67653 40.8285 7.31603 40.0787 7.31603C39.3188 7.31603 39.1904 6.62804 39.1904 6.07564V3.4982H38.0061V6.40505C38.0061 7.35498 38.5191 8.28495 39.753 8.28495C40.4536 8.28495 41.0164 7.86844 41.2233 7.40313H41.2432V8.14941H42.3682V3.4982H41.184L41.184 6.05631ZM43.5807 8.14941H44.766V3.4982H43.5807V8.14941ZM34.6694 4.52568H33.3416V3.49532H37.1815V4.52568H35.8537V8.14941H34.6694V4.52568ZM35.2615 2.88897C35.6568 2.88897 35.9772 2.57424 35.9772 2.18627C35.9772 1.7983 35.6568 1.48358 35.2615 1.48358C34.8663 1.48358 34.5459 1.7983 34.5459 2.18627C34.5459 2.57424 34.8663 2.88897 35.2615 2.88897ZM115.651 10.8197H112.336L109.016 14.6132H108.959V5.78197H106.388V19.9618H108.959V15.4527H109.016L112.46 19.9618H115.843L111.841 14.9657L115.651 10.8197ZM32.2444 11.9804H32.3013V10.8197H34.7785V24.4636H32.2075V18.8628H32.1694C31.5131 19.5922 30.3812 20.2192 29.1761 20.2192C26.5219 20.2192 24.6578 18.1731 24.6578 15.354C24.6578 12.5775 26.6779 10.5624 29.2994 10.5624C30.8971 10.5624 31.8811 11.586 32.2444 11.9804ZM57.0676 18.0625C55.5024 18.0625 54.7132 16.6893 54.7132 15.3615C54.7132 14.0338 55.5694 12.719 56.9925 12.719C57.659 12.719 58.5015 13.0472 58.8322 13.5087L60.4893 11.8876C59.6872 11.0577 58.4086 10.5624 56.9925 10.5624C54.1106 10.5624 52.0189 12.593 52.0189 15.3907C52.0189 18.2337 54.0872 20.2192 57.0488 20.2192C58.458 20.2192 59.7603 19.8142 60.5324 18.9991L58.9207 17.3008C58.5483 17.7459 57.7679 18.0625 57.0676 18.0625ZM50.3711 19.9618H47.8001V10.8197H50.3711V19.9618ZM41.0827 18.0625C42.4119 18.0625 43.1251 16.9062 43.1251 15.8319V10.8198H45.6961V19.9618H43.2375V18.5938H43.199C42.6883 19.284 41.6749 20.2192 40.4649 20.2192C37.8992 20.2192 36.9397 18.3816 36.9397 16.4937V10.8198H39.5107V15.8688C39.5107 17.3449 40.0579 18.0625 41.0827 18.0625ZM29.8049 18.0625C28.2152 18.0625 27.3113 16.7 27.3113 15.3541C27.3113 14.0673 28.1412 12.6823 29.8049 12.6823C31.3353 12.6823 32.2824 14.0882 32.2824 15.3907C32.2824 16.704 31.3558 18.0625 29.8049 18.0625ZM83.3197 15.3541C83.3197 12.5776 85.4429 10.5624 88.3684 10.5624C91.2936 10.5624 93.4168 12.5776 93.4168 15.3541C93.4168 18.2079 91.2464 20.2438 88.3684 20.2438C85.4901 20.2438 83.3197 18.2272 83.3197 15.3541ZM88.3685 18.0625C86.6919 18.0625 85.9281 16.6585 85.9281 15.3541C85.9281 14.0673 86.6919 12.6823 88.3685 12.6823C90.0451 12.6823 90.8087 14.0673 90.8087 15.3541C90.8087 16.6585 90.0451 18.0625 88.3685 18.0625ZM118.722 13.3319C118.722 13.858 119.189 14.025 120.512 14.335C121.811 14.6405 123.636 15.2649 123.636 17.1223C123.636 19.0637 122.145 20.2402 119.631 20.2402C118.135 20.2402 116.675 19.6815 115.823 18.7531L117.383 17.1996C117.909 17.8123 118.884 18.2851 119.725 18.2851C120.061 18.2851 121.039 18.1469 121.039 17.3008C121.039 16.7269 120.521 16.4843 119.07 16.1526C117.693 15.8287 116.287 15.2968 116.287 13.5341C116.287 11.4813 118.24 10.5624 120.101 10.5624C121.557 10.5624 122.935 11.0663 123.636 11.931L122.12 13.3591C121.781 12.9151 120.88 12.4473 120.082 12.4473C119.659 12.4473 118.722 12.6064 118.722 13.3319ZM74.6659 11.8197C75.4839 11.0671 76.3501 10.5624 77.5259 10.5624C80.1476 10.5624 82.1358 12.5776 82.1358 15.3541C82.1358 18.1731 80.124 20.2192 77.47 20.2192C76.2754 20.2192 75.1237 19.6031 74.544 18.6695H74.5056V19.9618H72.047V5.78197H74.6177V11.8197H74.6659ZM77.0204 18.0625C75.4695 18.0625 74.5427 16.704 74.5427 15.3907C74.5427 14.0882 75.49 12.6823 77.0204 12.6823C78.6841 12.6823 79.5117 14.0673 79.5117 15.3541C79.5117 16.7 78.6103 18.0625 77.0204 18.0625ZM94.6175 15.354C94.6175 12.5775 96.7407 10.5624 99.6662 10.5624C102.591 10.5624 104.715 12.5775 104.715 15.354C104.715 18.2079 102.544 20.2437 99.6662 20.2437C96.7879 20.2437 94.6175 18.2272 94.6175 15.354ZM99.6664 18.0625C97.9897 18.0625 97.226 16.6585 97.226 15.3541C97.226 14.0673 97.9897 12.6822 99.6664 12.6822C101.343 12.6822 102.107 14.0673 102.107 15.3541C102.107 16.6585 101.343 18.0625 99.6664 18.0625ZM67.7638 10.8197H71.0796L67.2691 14.9657L71.2717 19.9618H67.8882L64.4443 15.4527H64.3871V19.9618H61.8161V5.78197H64.3871V14.6132H64.4443L67.7638 10.8197ZM125.91 17.8858C125.318 17.8858 124.84 18.3512 124.84 18.9319C124.84 19.5125 125.318 19.9687 125.91 19.9687C126.501 19.9687 126.98 19.5125 126.98 18.9319C126.98 18.3512 126.501 17.8858 125.91 17.8858ZM125.915 18.3374C126.14 18.3374 126.361 18.4296 126.361 18.683C126.361 18.8535 126.253 18.9641 126.084 19.001L126.408 19.5171H126.145L125.863 19.0241H125.708V19.5171H125.492V18.3374H125.915ZM125.708 18.5171V18.8535H125.882C126.004 18.8535 126.145 18.8213 126.145 18.6784C126.145 18.5494 126.018 18.5171 125.905 18.5171H125.708ZM125.009 18.9319C125.009 19.4157 125.412 19.8167 125.91 19.8167C126.407 19.8167 126.811 19.4157 126.811 18.9319C126.811 18.4433 126.407 18.0471 125.91 18.0471C125.412 18.0471 125.009 18.4433 125.009 18.9319Z"
        fill="#8E8E90"
      />
    </g>
    <defs>
      <clipPath id="clip0_151_10095">
        <rect width="127" height="24" fill="white" transform="translate(0 0.983582)" />
      </clipPath>
    </defs>
  </svg>
