  <svg viewBox="0 0 127 24" fill="none" xmlns="http://www.w3.org/2000/svg">
    <g clip-path="url(#clip0_8330_1946)">
      <path
        fill-rule="evenodd"
        clip-rule="evenodd"
        d="M10.8304 22.624C16.8119 22.624 21.6608 17.863 21.6608 11.99C21.6608 6.11702 16.8119 1.35603 10.8304 1.35603C4.84894 1.35603 0 6.11702 0 11.99C0 17.863 4.84894 22.624 10.8304 22.624ZM14.4414 7.85487H13.8397V9.39089H14.4414C15.9012 9.39089 17.0889 10.557 17.0889 11.9903C17.0889 13.4236 15.9012 14.5897 14.4414 14.5897H12.9955V6.55517C12.9955 5.70681 12.2951 5.01915 11.4312 5.01915V16.1257H14.4414C16.7676 16.1257 18.6532 14.2742 18.6532 11.9903C18.6532 9.70637 16.7676 7.85487 14.4414 7.85487ZM3.00721 11.9897C3.00721 14.2736 4.8929 16.1251 7.21903 16.1251H7.82072V14.5891H7.21903C5.75924 14.5891 4.5716 13.423 4.5716 11.9897C4.5716 10.5563 5.75924 9.39028 7.21903 9.39028H8.66491V17.4248C8.66491 18.2731 9.36533 18.9608 10.2293 18.9608V7.85426H7.21903C4.8929 7.85426 3.00721 9.7058 3.00721 11.9897Z"
        fill="white"
      />
      <path
        fill-rule="evenodd"
        clip-rule="evenodd"
        d="M48.2304 1.20269C48.2304 1.59066 47.91 1.90539 47.5149 1.90539C47.1195 1.90539 46.7992 1.59066 46.7992 1.20269C46.7992 0.814715 47.1195 0.5 47.5149 0.5C47.91 0.5 48.2304 0.814715 48.2304 1.20269ZM30.9912 2.37879C30.2907 2.37879 29.7281 2.79564 29.521 3.26061H29.5011V2.51467H28.3763V7.16587H29.5603V4.60748C29.5603 3.98759 29.9158 3.34776 30.6656 3.34776C31.4256 3.34776 31.554 4.03604 31.554 4.58815V7.16587H32.7381V4.25873C32.7381 3.3091 32.2251 2.37879 30.9912 2.37879ZM45.5946 2.51174V3.5421H46.9226V7.16583H48.1068V3.5421H49.4346V2.51174H45.5946ZM27.1637 7.16583H25.9784V2.51462H27.1637V7.16583ZM41.184 5.07273C41.184 5.69295 40.8285 6.33245 40.0787 6.33245C39.3188 6.33245 39.1904 5.64446 39.1904 5.09206V2.51462H38.0061V5.42147C38.0061 6.37139 38.5191 7.30137 39.753 7.30137C40.4536 7.30137 41.0164 6.88485 41.2233 6.41955H41.2432V7.16583H42.3682V2.51462H41.184V5.07273ZM43.5807 7.16583H44.766V2.51462H43.5807V7.16583ZM34.6694 3.5421H33.3416L33.3416 2.51174H37.1815V3.5421H35.8537V7.16583H34.6694V3.5421ZM35.2615 1.90539C35.6568 1.90539 35.9772 1.59066 35.9772 1.20269C35.9772 0.814715 35.6568 0.5 35.2615 0.5C34.8663 0.5 34.5459 0.814715 34.5459 1.20269C34.5459 1.59066 34.8663 1.90539 35.2615 1.90539ZM115.651 9.83615H112.336L109.016 13.6296H108.959V4.79839H106.388V18.9782H108.959V14.4691H109.016L112.46 18.9782H115.843L111.841 13.9821L115.651 9.83615ZM32.2444 10.9968H32.3013V9.83615H34.7785V23.48H32.2075V17.8793H32.1694C31.5131 18.6086 30.3812 19.2356 29.1761 19.2356C26.5219 19.2356 24.6578 17.1895 24.6578 14.3705C24.6578 11.594 26.6779 9.5788 29.2994 9.5788C30.8971 9.5788 31.8811 10.6025 32.2444 10.9968ZM57.0676 17.0789C55.5024 17.0789 54.7132 15.7057 54.7132 14.3779C54.7132 13.0503 55.5694 11.7354 56.9925 11.7354C57.659 11.7354 58.5015 12.0636 58.8322 12.5251L60.4893 10.904C59.6872 10.0742 58.4086 9.5788 56.9925 9.5788C54.1106 9.5788 52.0189 11.6095 52.0189 14.4071C52.0189 17.2501 54.0872 19.2356 57.0488 19.2356C58.458 19.2356 59.7603 18.8306 60.5324 18.0156L58.9207 16.3172C58.5483 16.7624 57.7679 17.0789 57.0676 17.0789ZM50.3711 18.9782H47.8001V9.83616H50.3711V18.9782ZM41.0827 17.0789C42.4119 17.0789 43.1251 15.9226 43.1251 14.8484V9.83617H45.6961V18.9782H43.2375V17.6102H43.199C42.6883 18.3004 41.6749 19.2356 40.4649 19.2356C37.8992 19.2356 36.9397 17.398 36.9397 15.5101V9.83617H39.5107V14.8852C39.5107 16.3614 40.0579 17.0789 41.0827 17.0789ZM29.8049 17.0789C28.2152 17.0789 27.3113 15.7164 27.3113 14.3705C27.3113 13.0837 28.1412 11.6987 29.8049 11.6987C31.3353 11.6987 32.2824 13.1046 32.2824 14.4072C32.2824 15.7204 31.3558 17.0789 29.8049 17.0789ZM83.3197 14.3705C83.3197 11.594 85.4429 9.57882 88.3684 9.57882C91.2936 9.57882 93.4168 11.594 93.4168 14.3705C93.4168 17.2243 91.2464 19.2602 88.3684 19.2602C85.4901 19.2602 83.3197 17.2436 83.3197 14.3705ZM88.3685 17.0789C86.6919 17.0789 85.9281 15.675 85.9281 14.3705C85.9281 13.0837 86.6919 11.6987 88.3685 11.6987C90.0451 11.6987 90.8087 13.0837 90.8087 14.3705C90.8087 15.675 90.0451 17.0789 88.3685 17.0789ZM118.722 12.3483C118.722 12.8744 119.189 13.0414 120.512 13.3514C121.811 13.657 123.636 14.2813 123.636 16.1387C123.636 18.0801 122.145 19.2566 119.631 19.2566C118.135 19.2566 116.675 18.6979 115.823 17.7695L117.383 16.216C117.909 16.8287 118.884 17.3015 119.725 17.3015C120.061 17.3015 121.039 17.1633 121.039 16.3173C121.039 15.7433 120.521 15.5008 119.07 15.169C117.693 14.8451 116.287 14.3133 116.287 12.5505C116.287 10.4977 118.24 9.57882 120.101 9.57882C121.557 9.57882 122.935 10.0827 123.636 10.9474L122.12 12.3755C121.781 11.9315 120.88 11.4637 120.082 11.4637C119.659 11.4637 118.722 11.6229 118.722 12.3483ZM74.6659 10.8361C75.4839 10.0835 76.3501 9.57881 77.5259 9.57881C80.1476 9.57881 82.1358 11.594 82.1358 14.3705C82.1358 17.1895 80.124 19.2356 77.47 19.2356C76.2754 19.2356 75.1237 18.6195 74.544 17.686H74.5056V18.9782H72.047V4.79839H74.6177V10.8361H74.6659ZM77.0204 17.0789C75.4695 17.0789 74.5427 15.7204 74.5427 14.4072C74.5427 13.1046 75.49 11.6987 77.0204 11.6987C78.6841 11.6987 79.5117 13.0837 79.5117 14.3705C79.5117 15.7164 78.6103 17.0789 77.0204 17.0789ZM94.6175 14.3705C94.6175 11.594 96.7407 9.5788 99.6662 9.5788C102.591 9.5788 104.715 11.594 104.715 14.3705C104.715 17.2243 102.544 19.2602 99.6662 19.2602C96.7879 19.2602 94.6175 17.2436 94.6175 14.3705ZM99.6664 17.0789C97.9897 17.0789 97.226 15.675 97.226 14.3705C97.226 13.0837 97.9897 11.6987 99.6664 11.6987C101.343 11.6987 102.107 13.0837 102.107 14.3705C102.107 15.675 101.343 17.0789 99.6664 17.0789ZM67.7638 9.83615H71.0796L67.2691 13.9821L71.2717 18.9782H67.8882L64.4443 14.4691H64.3871V18.9782H61.8161V4.79839H64.3871V13.6296H64.4443L67.7638 9.83615ZM125.91 16.9022C125.318 16.9022 124.84 17.3677 124.84 17.9483C124.84 18.5289 125.318 18.9852 125.91 18.9852C126.501 18.9852 126.98 18.5289 126.98 17.9483C126.98 17.3677 126.501 16.9022 125.91 16.9022ZM125.915 17.3538C126.14 17.3538 126.361 17.446 126.361 17.6994C126.361 17.8699 126.253 17.9805 126.084 18.0174L126.408 18.5335H126.145L125.863 18.0405H125.708V18.5335H125.492V17.3538H125.915ZM125.708 17.5335V17.87H125.882C126.004 17.87 126.145 17.8377 126.145 17.6948C126.145 17.5658 126.018 17.5335 125.905 17.5335H125.708ZM125.009 17.9483C125.009 18.4321 125.412 18.8331 125.91 18.8331C126.407 18.8331 126.811 18.4321 126.811 17.9483C126.811 17.4598 126.407 17.0635 125.91 17.0635C125.412 17.0635 125.009 17.4598 125.009 17.9483Z"
        fill="white"
      />
    </g>
    <defs>
      <clipPath id="clip0_8330_1946">
        <rect width="127" height="24" fill="white" />
      </clipPath>
    </defs>
  </svg>
