  <svg viewBox="0 0 127 24" fill="none" xmlns="http://www.w3.org/2000/svg">
    <g clip-path="url(#clip0_151_10096)">
      <path
        fill-rule="evenodd"
        clip-rule="evenodd"
        d="M10.8321 22.6275C16.8145 22.6275 21.6642 17.8657 21.6642 11.9918C21.6642 6.11789 16.8145 1.35614 10.8321 1.35614C4.8497 1.35614 0 6.11789 0 11.9918C0 17.8657 4.8497 22.6275 10.8321 22.6275ZM14.4439 7.85605H13.8421V9.39231H14.4439C15.9039 9.39231 17.0917 10.5586 17.0917 11.9921C17.0917 13.4257 15.9039 14.5919 14.4439 14.5919H12.9978V6.55613C12.9978 5.70764 12.2973 5.01987 11.4331 5.01987V16.1282H14.4439C16.7704 16.1282 18.6564 14.2763 18.6564 11.9921C18.6564 9.70784 16.7704 7.85605 14.4439 7.85605ZM3.00782 11.9915C3.00782 14.2758 4.89381 16.1276 7.22031 16.1276H7.8221V14.5913H7.22031C5.76029 14.5913 4.57246 13.425 4.57246 11.9915C4.57246 10.5579 5.76029 9.39169 7.22031 9.39169H8.66642V17.4275C8.66642 18.2759 9.36695 18.9637 10.2311 18.9637V7.85543H7.22031C4.89381 7.85543 3.00782 9.70727 3.00782 11.9915Z"
        fill="#2CA01C"
      />
      <path
        d="M35.2671 1.90561C35.6624 1.90561 35.9829 1.59084 35.9829 1.2028C35.9829 0.814765 35.6624 0.5 35.2671 0.5C34.8719 0.5 34.5514 0.814765 34.5514 1.2028C34.5514 1.59084 34.8719 1.90561 35.2671 1.90561Z"
        fill="#212124"
      />
      <path
        d="M30.9961 2.37906C30.2955 2.37906 29.7328 2.79597 29.5256 3.26102H29.5058V2.51496H28.3808V7.1669H29.5649V4.6081C29.5649 3.98811 29.9205 3.34818 30.6704 3.34818C31.4306 3.34818 31.559 4.03657 31.559 4.58877V7.1669H32.7433V4.2593C32.7433 3.30952 32.2302 2.37906 30.9961 2.37906Z"
        fill="#212124"
      />
      <path d="M27.1669 7.1669H25.9824V2.51496H27.1669V7.1669Z" fill="#212124" />
      <path
        d="M47.5223 1.90561C47.9175 1.90561 48.2379 1.59084 48.2379 1.2028C48.2379 0.814765 47.9175 0.5 47.5223 0.5C47.1269 0.5 46.8065 0.814765 46.8065 1.2028C46.8065 1.59084 47.1269 1.90561 47.5223 1.90561Z"
        fill="#212124"
      />
      <path d="M45.6019 3.5426V2.51208H49.4425V3.5426H48.1145V7.1669H46.93V3.5426H45.6019Z" fill="#212124" />
      <path d="M43.5876 7.1669H44.7721V2.51496H43.5876V7.1669Z" fill="#212124" />
      <path d="M34.6749 3.5426H33.3468V2.51208H37.1873V3.5426H35.8593V7.1669H34.6749V3.5426Z" fill="#212124" />
      <path
        d="M41.1904 5.07347C41.1904 5.69379 40.8349 6.3334 40.085 6.3334C39.325 6.3334 39.1966 5.64529 39.1966 5.09281V2.51496H38.0121V5.42227C38.0121 6.37234 38.5252 7.30247 39.7593 7.30247C40.46 7.30247 41.0228 6.88589 41.2298 6.42051H41.2497V7.1669H42.3749V2.51496H41.1904V5.07347Z"
        fill="#212124"
      />
      <path
        d="M115.67 9.83758H112.353L109.033 13.6316H108.976V4.79902H106.405V18.9811H108.976V14.4713H109.033L112.478 18.9811H115.862L111.859 13.9842L115.67 9.83758Z"
        fill="#212124"
      />
      <path
        d="M54.7218 14.3801C54.7218 15.708 55.5112 17.0815 57.0767 17.0815C57.777 17.0815 58.5576 16.7649 58.93 16.3197L60.5419 18.0183C59.7697 18.8335 58.4673 19.2385 57.0578 19.2385C54.0958 19.2385 52.0272 17.2528 52.0272 14.4093C52.0272 11.6112 54.1192 9.58019 57.0016 9.58019C58.4179 9.58019 59.6967 10.0756 60.4989 10.9056L58.8415 12.5269C58.5108 12.0654 57.6682 11.7372 57.0016 11.7372C55.5782 11.7372 54.7218 13.0522 54.7218 14.3801Z"
        fill="#212124"
      />
      <path d="M50.3792 18.9811H47.8078V9.83758H50.3792V18.9811Z" fill="#212124" />
      <path
        d="M43.1318 14.8506C43.1318 15.925 42.4186 17.0815 41.0891 17.0815C40.0642 17.0815 39.5169 16.3638 39.5169 14.8874V9.83758H36.9455V15.5124C36.9455 17.4006 37.9051 19.2385 40.4712 19.2385C41.6814 19.2385 42.695 18.3032 43.2058 17.6128H43.2443V18.9811H45.7032V9.83758H43.1318L43.1318 14.8506Z"
        fill="#212124"
      />
      <path
        fill-rule="evenodd"
        clip-rule="evenodd"
        d="M32.2495 10.9985H32.3064V9.83758H34.784V23.4836H32.2126V17.882H32.1745C31.5181 18.6114 30.386 19.2385 29.1807 19.2385C26.5261 19.2385 24.6617 17.1921 24.6617 14.3726C24.6617 11.5957 26.6822 9.58019 29.304 9.58019C30.902 9.58019 31.8862 10.604 32.2495 10.9985ZM29.8096 17.0815C28.2196 17.0815 27.3156 15.7187 27.3156 14.3726C27.3156 13.0856 28.1457 11.7004 29.8096 11.7004C31.3402 11.7004 32.2875 13.1065 32.2875 14.4093C32.2875 15.7228 31.3608 17.0815 29.8096 17.0815Z"
        fill="#212124"
      />
      <path
        fill-rule="evenodd"
        clip-rule="evenodd"
        d="M83.333 14.3726C83.333 11.5957 85.4565 9.58019 88.3824 9.58019C91.3081 9.58019 93.4317 11.5957 93.4317 14.3726C93.4317 17.2269 91.2609 19.2631 88.3824 19.2631C85.5037 19.2631 83.333 17.2462 83.333 14.3726ZM88.3824 17.0815C86.7056 17.0815 85.9417 15.6773 85.9417 14.3726C85.9417 13.0856 86.7056 11.7004 88.3824 11.7004C90.0593 11.7004 90.823 13.0856 90.823 14.3726C90.823 15.6773 90.0593 17.0815 88.3824 17.0815Z"
        fill="#212124"
      />
      <path
        d="M118.741 12.3501C118.741 12.8763 119.208 13.0433 120.531 13.3534C121.83 13.659 123.656 14.2835 123.656 16.1412C123.656 18.0828 122.164 19.2595 119.651 19.2595C118.154 19.2595 116.694 18.7007 115.841 17.7722L117.402 16.2184C117.928 16.8312 118.903 17.3041 119.744 17.3041C120.081 17.3041 121.059 17.1659 121.059 16.3197C121.059 15.7457 120.541 15.5031 119.089 15.1713C117.712 14.8474 116.305 14.3154 116.305 12.5524C116.305 10.4992 118.259 9.58019 120.12 9.58019C121.576 9.58019 122.955 10.0841 123.656 10.949L122.14 12.3773C121.801 11.9332 120.9 11.4654 120.101 11.4654C119.678 11.4654 118.741 11.6246 118.741 12.3501Z"
        fill="#212124"
      />
      <path
        fill-rule="evenodd"
        clip-rule="evenodd"
        d="M74.6776 10.8377C75.4957 10.0849 76.3621 9.58019 77.5381 9.58019C80.1602 9.58019 82.1487 11.5957 82.1487 14.3726C82.1487 17.1921 80.1366 19.2385 77.4821 19.2385C76.2874 19.2385 75.1354 18.6223 74.5557 17.6886H74.5173V18.9811H72.0583V4.79902H74.6294V10.8377H74.6776ZM77.0327 17.0815C75.4815 17.0815 74.5546 15.7228 74.5546 14.4093C74.5546 13.1065 75.502 11.7004 77.0327 11.7004C78.6966 11.7004 79.5243 13.0856 79.5243 14.3726C79.5243 15.7187 78.6227 17.0815 77.0327 17.0815Z"
        fill="#212124"
      />
      <path
        d="M67.7745 9.83758H71.0908L67.2797 13.9842L71.2829 18.9811H67.8989L64.4545 14.4713H64.3973V18.9811H61.8259V4.79902H64.3973V13.6316H64.4544L67.7745 9.83758Z"
        fill="#212124"
      />
      <path
        fill-rule="evenodd"
        clip-rule="evenodd"
        d="M99.682 9.58019C96.7561 9.58019 94.6325 11.5957 94.6325 14.3726C94.6325 17.2462 96.8033 19.2631 99.682 19.2631C102.56 19.2631 104.731 17.2269 104.731 14.3726C104.731 11.5957 102.608 9.58019 99.682 9.58019ZM97.2412 14.3726C97.2412 15.6773 98.0051 17.0815 99.682 17.0815C101.359 17.0815 102.123 15.6773 102.123 14.3726C102.123 13.0856 101.359 11.7004 99.682 11.7004C98.0051 11.7004 97.2412 13.0856 97.2412 14.3726Z"
        fill="#212124"
      />
      <path
        fill-rule="evenodd"
        clip-rule="evenodd"
        d="M125.934 17.3564C126.16 17.3564 126.38 17.4486 126.38 17.7021C126.38 17.8726 126.272 17.9832 126.103 18.0201L126.427 18.5363H126.165L125.883 18.0432H125.728V18.5363H125.512V17.3564H125.934ZM125.728 17.5361V17.8726H125.902C126.024 17.8726 126.165 17.8403 126.165 17.6974C126.165 17.5684 126.038 17.5361 125.925 17.5361H125.728Z"
        fill="#212124"
      />
      <path
        fill-rule="evenodd"
        clip-rule="evenodd"
        d="M125.93 16.9047C125.338 16.9047 124.86 17.3703 124.86 17.951C124.86 18.5317 125.338 18.988 125.93 18.988C126.521 18.988 127 18.5317 127 17.951C127 17.3703 126.521 16.9047 125.93 16.9047ZM125.028 17.951C125.028 18.4349 125.432 18.8359 125.93 18.8359C126.427 18.8359 126.831 18.4349 126.831 17.951C126.831 17.4624 126.427 17.066 125.93 17.066C125.432 17.066 125.028 17.4624 125.028 17.951Z"
        fill="#212124"
      />
    </g>
    <defs>
      <clipPath id="clip0_151_10096">
        <rect width="127" height="24" fill="white" />
      </clipPath>
    </defs>
  </svg>
