<svg viewBox="0 0 96 24" fill="none" xmlns="http://www.w3.org/2000/svg">
<path d="M0 0V18.648L15.8002 24L31.5525 18.648V0H0Z" fill="#D62A43"/>
<path d="M15.7522 18.048H10.9331V16.368H10.8851C9.95005 17.712 8.60739 18.36 6.61738 18.36C4.26773 18.36 2.15784 16.944 2.15784 13.92V4.92H7.14485V11.808C7.14485 13.32 7.31268 14.4 8.77522 14.4C9.63836 14.4 10.7652 13.968 10.7652 11.856V4.92H15.7522V18.048ZM25.1029 8.736C25.0549 8.304 24.8392 7.968 24.5035 7.752C24.1918 7.488 23.8082 7.368 23.3766 7.368C22.6813 7.368 21.8661 7.536 21.8661 8.352C21.8661 8.736 22.1778 8.904 22.4655 9.048C23.2807 9.384 25.1748 9.528 26.8531 10.032C28.5315 10.56 29.994 11.544 29.994 13.704C29.994 17.376 26.5175 18.312 23.3287 18.312C20.2358 18.312 16.8791 17.064 16.7832 13.704H21.5544C21.6024 14.184 21.7702 14.52 22.1538 14.856C22.4176 15.072 22.8971 15.24 23.4965 15.24C24.1439 15.24 25.1748 14.976 25.1748 14.256C25.1748 13.488 24.7433 13.272 22.4176 12.888C18.6054 12.24 17.0949 11.04 17.0949 8.736C17.0949 5.424 20.6673 4.56 23.2807 4.56C26.1099 4.56 29.5145 5.328 29.6583 8.688H25.1029V8.736Z" fill="white"/>
<path d="M33.3507 0H38.3617V6.384H38.4096C39.1769 5.256 40.5195 4.608 41.9821 4.608C46.3697 4.608 47.5685 8.352 47.5685 11.424C47.5685 14.688 45.7703 18.36 42.054 18.36C39.6084 18.36 38.8172 17.424 38.2178 16.584H38.1699V18H33.3507V0ZM40.3757 8.232C38.5775 8.232 38.1699 9.912 38.1699 11.472C38.1699 13.032 38.5535 14.736 40.3757 14.736C42.1979 14.736 42.5815 13.056 42.5815 11.472C42.5815 9.96 42.1499 8.232 40.3757 8.232ZM61.5225 15.12C61.5225 16.104 61.5705 17.232 62.1219 18.048H56.9911C56.8712 17.712 56.7753 17.136 56.8232 16.8H56.7753C55.6964 18 54.1859 18.36 52.5555 18.36C50.014 18.36 47.9521 17.16 47.9521 14.4C47.9521 10.272 52.8192 10.392 55.3607 9.912C56.056 9.792 56.7273 9.576 56.7273 8.76C56.7273 7.848 55.9121 7.56 55.097 7.56C53.5385 7.56 53.2508 8.328 53.2508 8.904H48.5995C48.7673 5.208 52.2678 4.584 55.3607 4.584C61.6424 4.584 61.5705 7.176 61.5705 9.72V15.12H61.5225ZM56.7273 12.144C56.1279 12.456 55.4326 12.624 54.7373 12.792C53.6104 13.056 53.059 13.32 53.059 14.208C53.059 14.808 53.7064 15.408 54.6174 15.408C55.7443 15.408 56.6314 14.712 56.7273 13.344V12.144ZM63.3207 4.92H68.1399V6.6H68.1879C69.1229 5.256 70.4656 4.608 72.4556 4.608C74.8292 4.608 76.9871 6.024 76.9871 9.048V18.048H71.9521V11.16C71.9521 9.648 71.7843 8.568 70.3217 8.568C69.4586 8.568 68.3317 9 68.3317 11.112V18.048H63.3447V4.92H63.3207ZM78.7373 0H83.7243V8.712L86.9131 4.92H92.5475L87.8482 9.864L93.2668 18.048H87.2488L84.5875 13.32L83.6764 14.256V18.048H78.6894V0H78.7373ZM95.5205 16.248C95.6884 16.416 95.8322 16.68 95.8322 16.944C95.8322 17.208 95.7363 17.472 95.5205 17.64C95.3527 17.808 95.089 17.952 94.8252 17.952C94.5615 17.952 94.2978 17.856 94.1299 17.64C93.9621 17.472 93.8182 17.208 93.8182 16.944C93.8182 16.68 93.9141 16.416 94.1299 16.248C94.2978 16.08 94.5615 15.936 94.8252 15.936C95.089 15.984 95.3527 16.08 95.5205 16.248ZM95.6404 16.152C95.4246 15.936 95.1609 15.816 94.8252 15.816C94.5135 15.816 94.2738 15.936 94.01 16.152C93.7943 16.368 93.6744 16.632 93.6744 16.968C93.6744 17.28 93.7943 17.568 94.01 17.784C94.2258 18 94.4896 18.12 94.8252 18.12C95.1369 18.12 95.3767 18 95.6404 17.784C95.8562 17.568 95.9761 17.304 95.9761 16.968C95.9521 16.632 95.8562 16.368 95.6404 16.152ZM94.9931 16.896C94.9451 16.896 94.8732 16.944 94.7773 16.944H94.5615V16.512H94.7293C94.8492 16.512 94.9451 16.512 94.9931 16.56C95.041 16.608 95.089 16.656 95.089 16.728C95.1369 16.8 95.089 16.848 94.9931 16.896ZM94.3457 17.568H94.5615V17.088H94.7293C94.8492 17.088 94.9451 17.088 94.9931 17.136C95.089 17.184 95.1129 17.256 95.1129 17.448V17.568H95.3287V17.304C95.3287 17.256 95.2808 17.184 95.2328 17.136C95.1849 17.04 95.1129 17.04 95.017 17.016C95.1129 17.016 95.1369 16.968 95.1849 16.968C95.2808 16.92 95.3048 16.848 95.3048 16.704C95.3048 16.536 95.2568 16.44 95.1369 16.392C95.041 16.344 94.9691 16.344 94.8013 16.344H94.3697V17.544H94.3457V17.568Z" fill="#1B3281"/>
</svg>
