<svg viewBox="0 0 96 24" fill="none" xmlns="http://www.w3.org/2000/svg">
<path d="M0 18.648L15.8002 24L31.5525 18.648V0H0V18.648ZM22.4176 12.888C18.6054 12.24 17.0949 11.04 17.0949 8.736C17.0949 5.424 20.6673 4.56 23.2807 4.56C26.1099 4.56 29.5145 5.328 29.6583 8.688H25.1029V8.736C25.0549 8.304 24.8392 7.968 24.5035 7.752C24.1918 7.488 23.8082 7.368 23.3766 7.368C22.6813 7.368 21.8661 7.536 21.8661 8.352C21.8661 8.736 22.1778 8.904 22.4655 9.048C23.2807 9.384 25.1748 9.528 26.8531 10.032C28.5315 10.56 29.994 11.544 29.994 13.704C29.994 17.376 26.5175 18.312 23.3287 18.312C20.2358 18.312 16.8791 17.064 16.7832 13.704H21.5544C21.6024 14.184 21.7702 14.52 22.1538 14.856C22.4176 15.072 22.8971 15.24 23.4965 15.24C24.1439 15.24 25.1748 14.976 25.1748 14.256C25.1748 13.488 24.7433 13.272 22.4176 12.888ZM2.15784 4.92H7.14486V11.808C7.14486 13.32 7.31269 14.4 8.77522 14.4C9.63836 14.4 10.7652 13.968 10.7652 11.856V4.92H15.7522V18.072H10.9331V16.392H10.8851C9.95005 17.736 8.60739 18.384 6.61738 18.384C4.26773 18.36 2.15784 16.944 2.15784 13.92V4.92Z" fill="#646F87"/>
<path d="M41.9581 4.608C40.4955 4.608 39.1529 5.256 38.3856 6.384H38.3616V0H33.3746V18H38.1938V16.584H38.2418C38.8412 17.4 39.6084 18.36 42.0779 18.36C45.7702 18.36 47.5924 14.688 47.5924 11.424C47.5684 8.352 46.3696 4.608 41.9581 4.608ZM40.3756 14.736C38.5774 14.736 38.1698 13.008 38.1698 11.472C38.1698 9.936 38.5535 8.232 40.3756 8.232C42.1499 8.232 42.5814 9.96 42.5814 11.472C42.5814 13.056 42.1738 14.736 40.3756 14.736Z" fill="#646F87"/>
<path d="M95.3527 16.728C95.3527 16.56 95.3047 16.464 95.1848 16.416C95.0889 16.368 95.017 16.368 94.8492 16.368H94.4176V17.568H94.5854V17.088H94.7533C94.8732 17.088 94.9691 17.088 95.017 17.136C95.1129 17.184 95.1369 17.256 95.1369 17.448V17.568H95.3527V17.304C95.3527 17.256 95.3047 17.184 95.2568 17.136C95.2088 17.04 95.1369 17.04 95.041 17.016C95.1369 17.016 95.1609 16.968 95.2088 16.968C95.3047 16.944 95.3527 16.848 95.3527 16.728ZM94.993 16.896C94.9451 16.896 94.8731 16.944 94.7772 16.944H94.5615V16.512H94.7293C94.8492 16.512 94.9451 16.512 94.993 16.56C95.041 16.608 95.0889 16.656 95.0889 16.728C95.1369 16.8 95.0889 16.848 94.993 16.896Z" fill="#646F87"/>
<path d="M92.5475 4.92H86.9131L83.7243 8.712V0H78.7373H78.6893V18.048H83.6763V14.256L84.5874 13.32L87.2488 18.048H93.2668L87.8482 9.864L92.5475 4.92Z" fill="#646F87"/>
<path d="M95.6403 16.152C95.4246 15.936 95.1608 15.816 94.8252 15.816C94.5135 15.816 94.2737 15.936 94.01 16.152C93.7942 16.368 93.6743 16.632 93.6743 16.968C93.6743 17.28 93.7942 17.568 94.01 17.784C94.2258 18 94.4895 18.12 94.8252 18.12C95.1369 18.12 95.3766 18 95.6403 17.784C95.8561 17.568 95.976 17.304 95.976 16.968C95.952 16.632 95.8561 16.368 95.6403 16.152ZM95.5205 17.616C95.3526 17.784 95.0889 17.928 94.8252 17.928C94.5614 17.928 94.2977 17.832 94.1299 17.616C93.962 17.448 93.8182 17.184 93.8182 16.92C93.8182 16.656 93.9141 16.392 94.1299 16.224C94.2977 16.056 94.5614 15.912 94.8252 15.912C95.0889 15.96 95.3526 16.032 95.5205 16.224C95.6883 16.392 95.8322 16.656 95.8322 16.92C95.8322 17.184 95.7363 17.448 95.5205 17.616Z" fill="#646F87"/>
<path d="M72.4555 4.608C70.4655 4.608 69.1468 5.256 68.1878 6.6H68.1399V4.92H63.3207V18.072H68.3077V11.112C68.3077 9 69.4346 8.568 70.2977 8.568C71.7602 8.568 71.9281 9.648 71.9281 11.16V18.048H76.963V9.048C76.963 6.024 74.8052 4.608 72.4555 4.608Z" fill="#646F87"/>
<path d="M61.5465 15.12V9.696C61.5465 7.152 61.6424 4.56 55.3367 4.56C52.2438 4.56 48.7433 5.16 48.5755 8.88H53.2268C53.2268 8.328 53.5385 7.536 55.073 7.536C55.8881 7.536 56.7033 7.848 56.7033 8.736C56.7033 9.552 56.008 9.768 55.3367 9.888C52.7952 10.368 47.9281 10.224 47.9281 14.376C47.9281 17.136 49.99 18.336 52.5315 18.336C54.1619 18.336 55.6724 18 56.7513 16.776H56.7992C56.7513 17.112 56.8472 17.688 56.9671 18.024H62.0979C61.5465 17.208 61.4985 16.08 61.4985 15.096H61.5465V15.12ZM56.7273 12.144V13.344C56.6314 14.712 55.7443 15.408 54.6174 15.408C53.7063 15.408 53.059 14.808 53.059 14.208C53.059 13.296 53.6104 13.056 54.7373 12.792C55.4326 12.624 56.1279 12.456 56.7273 12.144Z" fill="#646F87"/>
</svg>
