  <svg viewBox="0 0 71 24" fill="none" xmlns="http://www.w3.org/2000/svg">
    <path
      d="M36.7195 8.32577C36.679 11.5352 39.5657 13.3263 41.7404 14.3911C43.9747 15.4837 44.7252 16.1843 44.7167 17.1613C44.6996 18.6567 42.9343 19.3166 41.282 19.3423C38.3995 19.3873 36.7238 18.5603 35.3913 17.9347L34.353 22.8174C35.6897 23.4365 38.165 23.9764 40.7319 24C46.757 24 50.6991 21.0113 50.7204 16.3771C50.7438 10.4961 42.6252 10.1704 42.6806 7.54163C42.6998 6.74464 43.4566 5.89408 45.1153 5.67769C45.9362 5.56843 48.2025 5.48487 50.7715 6.67394L51.78 1.94982C50.3984 1.44419 48.6225 0.959999 46.4116 0.959999C40.7405 0.959999 36.7515 3.98944 36.7195 8.32577ZM61.4699 1.36707C60.3698 1.36707 59.4424 2.01195 59.0288 3.00176L50.4219 23.6529H56.4427L57.6409 20.3257H64.9984L65.6934 23.6529H71L66.3693 1.36707H61.4699ZM62.3121 7.38737L64.0497 15.7558H59.291L62.3121 7.38737ZM29.4195 1.36707L24.6737 23.6529H30.4109L35.1546 1.36707H29.4195ZM20.932 1.36707L14.9603 16.5357L12.5447 3.63807C12.2612 2.19834 11.1419 1.36707 9.8989 1.36707H0.136448L0 2.01409C2.00408 2.45115 4.28106 3.15602 5.66047 3.91017C6.50474 4.37079 6.74566 4.77358 7.02282 5.86837L11.5981 23.6529H17.6615L26.9571 1.36707H20.932Z"
      fill="#213C84"
    />
  </svg>
