  <svg viewBox="0 0 71 24" fill="none" xmlns="http://www.w3.org/2000/svg">
    <path
      d="M36.7195 7.36577C36.679 10.5752 39.5657 12.3663 41.7404 13.4311C43.9747 14.5237 44.7252 15.2243 44.7167 16.2013C44.6996 17.6967 42.9343 18.3566 41.282 18.3823C38.3995 18.4273 36.7238 17.6003 35.3913 16.9747L34.353 21.8574C35.6897 22.4765 38.165 23.0164 40.7319 23.04C46.757 23.04 50.6991 20.0513 50.7204 15.4171C50.7438 9.53608 42.6252 9.21043 42.6806 6.58163C42.6998 5.78464 43.4566 4.93408 45.1153 4.71769C45.9362 4.60843 48.2025 4.52487 50.7715 5.71394L51.78 0.989815C50.3984 0.484196 48.6225 0 46.4116 0C40.7405 0 36.7515 3.02944 36.7195 7.36577ZM61.4699 0.407066C60.3698 0.407066 59.4424 1.05195 59.0288 2.04176L50.4219 22.6929H56.4427L57.6409 19.3657H64.9984L65.6934 22.6929H71L66.3693 0.407066H61.4699ZM62.3121 6.42738L64.0497 14.7958H59.291L62.3121 6.42738ZM29.4195 0.407066L24.6737 22.6929H30.4109L35.1546 0.407066H29.4195ZM20.932 0.407066L14.9603 15.5757L12.5447 2.67807C12.2612 1.23834 11.1419 0.407066 9.8989 0.407066H0.136448L0 1.05409C2.00408 1.49115 4.28106 2.19602 5.66047 2.95017C6.50475 3.4108 6.74566 3.81358 7.02282 4.90837L11.5981 22.6929H17.6615L26.9571 0.407066H20.932Z"
      fill="#8E8E90"
    />
  </svg>
