  <svg viewBox="0 0 71 24" fill="none" xmlns="http://www.w3.org/2000/svg">
    <path
      d="M36.7195 7.38219C36.679 10.5916 39.5657 12.3827 41.7404 13.4475C43.9747 14.5401 44.7252 15.2407 44.7167 16.2177C44.6996 17.7131 42.9343 18.373 41.282 18.3987C38.3995 18.4437 36.7238 17.6167 35.3913 16.9911L34.353 21.8738C35.6897 22.493 38.165 23.0329 40.7319 23.0564C46.757 23.0564 50.6991 20.0677 50.7204 15.4336C50.7438 9.5525 42.6252 9.22685 42.6806 6.59805C42.6998 5.80106 43.4566 4.9505 45.1153 4.73411C45.9362 4.62485 48.2025 4.54129 50.7715 5.73035L51.78 1.00623C50.3984 0.500614 48.6225 0.0164185 46.4116 0.0164185C40.7405 0.0164185 36.7515 3.04585 36.7195 7.38219ZM61.4699 0.423485C60.3698 0.423485 59.4424 1.06837 59.0288 2.05818L50.4219 22.7093H56.4427L57.6409 19.3821H64.9984L65.6934 22.7093H71L66.3693 0.423485H61.4699ZM62.3121 6.44379L64.0497 14.8122H59.291L62.3121 6.44379ZM29.4195 0.423485L24.6737 22.7093H30.4109L35.1546 0.423485H29.4195ZM20.932 0.423485L14.9603 15.5921L12.5447 2.69449C12.2612 1.25476 11.1419 0.423485 9.8989 0.423485H0.136448L0 1.07051C2.00408 1.50757 4.28106 2.21244 5.66047 2.96659C6.50475 3.42721 6.74566 3.82999 7.02282 4.92479L11.5981 22.7093H17.6615L26.9571 0.423485H20.932Z"
      fill="white"
    />
  </svg>
