<svg viewBox="0 0 104 24" xmlns="http://www.w3.org/2000/svg">

<path fill-rule="evenodd" clip-rule="evenodd" d="M15.7543 20.5115C15.7663 20.008 15.7424 19.4805 15.6825 19.037C14.4624 18.5694 13.4815 18.0659 12.5963 17.5504C12.2613 17.3586 12.1298 17.3107 11.9742 17.3107C11.8068 17.3107 11.6513 17.3826 11.3642 17.5504C9.41431 18.6773 5.9931 20.008 3.97148 20.0439C3.96066 19.6644 4.00857 19.3339 4.05323 19.0258L4.06717 18.9291C3.69634 18.953 3.18197 18.953 2.69151 18.9171C2.61973 19.1928 2.57188 19.6004 2.57188 19.984C2.57188 20.7992 3.02645 21.4226 4.07913 21.4226C6.10075 21.4226 9.88083 19.984 11.9742 18.8212C13.2183 19.5165 14.4863 20.0919 15.7543 20.5115ZM18.3501 16.5914L18.3138 16.5837C17.7618 16.4659 17.1699 16.3396 16.807 16.3396C16.484 16.3396 16.3046 16.5195 16.3046 16.8431C16.3046 17.0314 16.3508 17.3394 16.4096 17.7306C16.5117 18.4108 16.6515 19.3422 16.6515 20.3317C16.6515 21.3386 16.5797 22.1059 16.4481 22.6094C15.3955 22.4535 13.9839 21.9021 12.6083 21.0869C12.2613 20.8831 12.1178 20.8352 11.9742 20.8352C11.8307 20.8352 11.6872 20.8831 11.3522 21.0749C10.0124 21.8422 8.58893 22.4296 7.53625 22.6094C7.45251 22.3337 7.38074 21.974 7.3329 21.6504C6.87833 21.8182 6.36395 21.962 6.00508 22.034C6.14863 23.3167 6.45965 24 7.38074 24C8.32577 24 10.455 23.2208 11.9743 22.3457C13.4935 23.2208 15.6228 24 16.484 24C17.2018 24 17.5367 23.7363 17.7401 23.1608C17.9793 22.4895 18.0631 21.6024 18.0631 20.5594C18.0631 19.7682 17.9674 18.7852 17.7999 17.8142C18.0074 17.8544 18.2149 17.8872 18.4015 17.9166C18.5483 17.9398 18.6821 17.9609 18.7928 17.982C18.709 17.6104 18.5415 17.0469 18.3501 16.5914ZM20.4675 8.21178C19.965 8.1998 19.4387 8.22377 18.9961 8.28372C18.5296 9.5065 18.0272 10.4895 17.5128 11.3766C17.3214 11.7123 17.2735 11.8442 17.2735 12C17.2735 12.1679 17.3453 12.3237 17.5128 12.6114C18.6372 14.5654 19.965 17.994 20.0009 20.02C19.6222 20.0308 19.2924 19.9828 18.985 19.9381H18.9849L18.8884 19.9241C18.9123 20.2957 18.9123 20.8112 18.8765 21.3027C19.1516 21.3746 19.5583 21.4226 19.9411 21.4226C20.7545 21.4226 21.3766 20.9671 21.3766 19.9121C21.3766 17.8861 19.9411 14.0979 18.7808 12C19.4746 10.7533 20.0488 9.48252 20.4675 8.21178ZM6.07032 18.441L6.07031 18.4411L6.07031 18.4411C6.04719 18.5882 6.02612 18.7223 6.00505 18.8332C6.37588 18.7493 6.93811 18.5814 7.39267 18.3896L7.4004 18.3532C7.51789 17.8 7.64389 17.2068 7.64389 16.8432C7.64389 16.5195 7.46445 16.3397 7.14147 16.3397C6.95366 16.3397 6.64624 16.386 6.25589 16.4449C5.57717 16.5472 4.64774 16.6873 3.66045 16.6873C2.65562 16.6873 1.89003 16.6154 1.38762 16.4835C1.54312 15.4286 2.09339 14.014 2.90682 12.6354C3.11018 12.2877 3.15802 12.1439 3.15802 12C3.15802 11.8562 3.11018 11.7123 2.91878 11.3766C2.15319 10.034 1.56704 8.60741 1.3876 7.55246C1.66274 7.46854 2.02161 7.39663 2.34459 7.34867C2.17711 6.89313 2.03356 6.37765 1.9618 6.01801C0.681851 6.16185 0 6.47352 0 7.39661C0 8.34367 0.777548 10.4775 1.65079 12C0.777548 13.5225 0 15.6563 0 16.5195C0 17.2388 0.263173 17.5744 0.837354 17.7782C1.50725 18.018 2.39245 18.1019 3.43317 18.1019C4.22268 18.1019 5.20359 18.006 6.17253 17.8382C6.13236 18.0461 6.09969 18.2541 6.07032 18.441ZM23.9485 7.48051C23.9485 6.76123 23.6853 6.42557 23.1111 6.22178C22.4412 5.98202 21.556 5.89811 20.5153 5.89811C19.7258 5.89811 18.7449 5.99401 17.7759 6.16184C17.8161 5.9539 17.8488 5.74596 17.8781 5.55901L17.8782 5.55898L17.8782 5.55892C17.9013 5.4118 17.9223 5.2777 17.9434 5.16684C17.5726 5.25075 17.0104 5.41859 16.5558 5.6104L16.5481 5.64683L16.548 5.64689C16.4306 6.20007 16.3046 6.79324 16.3046 7.15685C16.3046 7.48053 16.484 7.66035 16.807 7.66035C16.9948 7.66035 17.3022 7.614 17.6926 7.55515C18.3713 7.45282 19.3007 7.31269 20.288 7.31269C21.2928 7.31269 22.0584 7.38463 22.5609 7.51648C22.4053 8.57143 21.8551 9.98601 21.0416 11.3646C20.8383 11.7123 20.7904 11.8561 20.7904 12C20.7904 12.1439 20.8383 12.2877 21.0297 12.6234C21.7953 13.966 22.3814 15.3926 22.5609 16.4475C22.2857 16.5315 21.9269 16.6034 21.6039 16.6513C21.7714 17.1069 21.9149 17.6224 21.9867 17.982C23.2666 17.8382 23.9485 17.5265 23.9485 16.6034C23.9485 15.6563 23.1709 13.5225 22.2977 12C23.1709 10.4775 23.9485 8.34365 23.9485 7.48051ZM8.19415 3.48851C8.18219 3.99201 8.20611 4.51948 8.26593 4.96303C9.48609 5.43056 10.467 5.93406 11.3522 6.44954C11.6871 6.64134 11.8187 6.68929 11.9742 6.68929C12.1417 6.68929 12.2972 6.61736 12.5843 6.44954C14.5342 5.32266 17.9554 3.99199 19.977 3.95604C19.9878 4.33559 19.9399 4.6661 19.8953 4.97417L19.8953 4.97423L19.8813 5.07092C20.2521 5.04694 20.7665 5.04694 21.257 5.0829C21.3288 4.80718 21.3766 4.39958 21.3766 4.01597C21.3766 3.20079 20.922 2.57742 19.8694 2.57742C17.8477 2.57742 14.0676 4.01597 11.9742 5.17882C10.7302 4.48352 9.46216 3.90809 8.19415 3.48851ZM3.48102 15.7882C3.98343 15.8002 4.50978 15.7762 4.95238 15.7163C5.4189 14.4935 5.92132 13.5105 6.43569 12.6234C6.62708 12.2877 6.67493 12.1559 6.67493 12C6.67493 11.8322 6.60315 11.6763 6.43569 11.3886C5.31123 9.43457 3.98342 6.00599 3.94754 3.98002C4.32629 3.96918 4.65609 4.01719 4.96351 4.06195L5.06003 4.07592C5.0361 3.7043 5.0361 3.18882 5.07199 2.6973C4.79686 2.62537 4.39014 2.57742 4.00735 2.57742C3.19391 2.57742 2.57188 3.03296 2.57188 4.08791C2.57188 6.11388 4.00735 9.90209 5.1677 12C4.47389 13.2467 3.8997 14.5175 3.48102 15.7882ZM5.59834 7.4086L5.63464 7.41634C6.18667 7.53409 6.77861 7.66035 7.14147 7.66035C7.46445 7.66035 7.64389 7.48053 7.64389 7.15685C7.64389 6.96864 7.59764 6.66055 7.53891 6.26936V6.26936C7.4368 5.58918 7.29698 4.65775 7.29698 3.66834C7.29698 2.66135 7.36876 1.89412 7.50033 1.39062C8.55301 1.54646 9.96456 2.0979 11.3402 2.91309C11.6871 3.11688 11.8307 3.16483 11.9742 3.16483C12.1178 3.16483 12.2613 3.11688 12.5963 2.92508C13.936 2.15784 15.3595 1.57043 16.4122 1.3906C16.496 1.66633 16.5677 2.02597 16.6156 2.34965C17.0701 2.18181 17.5845 2.03795 17.9434 1.96604C17.7999 0.683318 17.4888 0 16.5678 0C15.6227 0 13.4935 0.779221 11.9742 1.65434C10.455 0.779221 8.32574 0 7.46445 0C6.74671 0 6.41177 0.26374 6.20842 0.839156C5.96918 1.51049 5.88544 2.3976 5.88544 3.44056C5.88544 4.23176 5.98114 5.21479 6.14861 6.18581C5.9411 6.14556 5.73358 6.11281 5.54703 6.08338C5.40021 6.06021 5.26638 6.03909 5.15574 6.01798C5.23948 6.38962 5.40694 6.95305 5.59834 7.4086ZM92.2889 8.93105C91.0209 8.93105 89.9324 9.49448 89.3343 9.84214L89.3223 9.13485H88.2696V18.2218H89.394V10.8251C90.3869 10.2138 91.2841 9.92604 92.1813 9.92604C93.545 9.92604 94.0354 10.6333 94.0354 12.2877V18.2218H95.1598V12.0599C95.1599 10.0579 94.3464 8.93105 92.2889 8.93105ZM83.4249 8.93105C82.1928 8.93105 81.1281 9.31466 80.3625 9.87811L80.8291 10.6573C81.5109 10.2138 82.3842 9.92607 83.2933 9.92607C84.9202 9.92607 85.4345 10.5494 85.4345 12.2278V12.7432H84.4417C81.4272 12.7432 79.8123 13.7982 79.8123 15.7882C79.8123 17.4426 80.9606 18.4256 82.743 18.4256C83.688 18.4256 84.5852 18.1139 85.4943 17.5744L85.5063 18.2218H86.559V12.0359C86.559 10.01 85.6618 8.93105 83.4249 8.93105ZM85.4346 16.6394C84.5852 17.1548 83.7359 17.4306 82.8986 17.4306C81.7262 17.4306 80.9966 16.8192 80.9966 15.7402C80.9966 14.3856 82.2406 13.6663 84.5374 13.6663H85.4346L85.4346 16.6394ZM99.227 13.3187L103.701 9.13485H102.23L97.983 13.2228V5.7782H96.8705V18.2218H97.983V13.4625L102.529 18.2218H104L99.227 13.3187ZM76.3313 11.8082C77.4916 11.4725 78.317 10.4655 78.317 8.94305C78.317 6.91708 77.0011 5.77821 74.4651 5.77821H70.9961V18.2218H74.3455C77.1567 18.2218 78.7237 16.9511 78.7237 14.7453C78.7237 13.0909 77.8744 12.0719 76.3313 11.8082ZM72.1923 6.78519H73.9627C76.1877 6.78519 77.0969 7.45651 77.0969 9.05092C77.0969 10.5854 76.092 11.4126 73.9747 11.4126H72.1923V6.78519ZM74.1422 17.2148H72.1923V12.3956H74.3335C76.4628 12.3956 77.5155 13.1149 77.5155 14.7812C77.5155 16.3396 76.415 17.2148 74.1422 17.2148ZM42.9684 9.92606C43.8417 9.33864 45.002 8.93105 46.4495 8.93105C48.8419 8.93105 50.0023 10.022 50.0023 12.2397V18.2218H47.7892L47.7653 17.5984C47.0476 18.1379 46.2222 18.4256 45.2293 18.4256C43.4469 18.4256 42.3225 17.2268 42.3225 15.5604C42.3225 13.4505 43.9733 12.3476 46.9399 12.3476H47.6098V12.0959C47.6098 11.3167 47.1313 10.8851 46.1743 10.8851C45.3489 10.8851 44.4637 11.1129 43.8058 11.5324L42.9684 9.92606ZM45.959 16.5075C46.5212 16.5075 47.0835 16.3157 47.6098 15.932V14.0619H47.227C45.5403 14.0619 44.7628 14.4935 44.7628 15.3926C44.7628 16.0759 45.2293 16.5075 45.959 16.5075ZM65.1704 9.35063V5.7782H67.6347V18.2218H65.4695L65.4575 17.5864C64.7039 18.1738 63.9622 18.4256 63.0651 18.4256C60.6487 18.4256 59.1773 16.3876 59.1773 13.7263C59.1773 10.6214 61.0674 8.93105 63.3282 8.93105C64.0101 8.93105 64.5843 9.06292 65.1704 9.35063ZM63.6871 16.2797C64.2134 16.2797 64.68 16.1239 65.1704 15.7762V11.4485C64.668 11.1968 64.2493 11.0889 63.7469 11.0889C62.5387 11.0889 61.7133 11.9161 61.7133 13.6543C61.7133 15.3926 62.5746 16.2797 63.6871 16.2797ZM59.2012 7.92405H54.3924L54.3924 10.8371H58.2801V12.971H54.3924V18.2218H51.7727V5.7782H59.2012V7.92405ZM38.5424 14.7213L40.3248 5.7782H42.9325L39.8822 18.2218H37.1189L35.0853 9.01497L32.8244 18.2218H30.0611L27.1064 5.7782H29.798L31.5444 14.7692L33.7216 5.7782H36.4968L38.5424 14.7213Z" fill="#646F87"/>

</svg>
