<svg viewBox="0 0 144 144" fill="none" xmlns="http://www.w3.org/2000/svg">
<path d="M135 115.32H9C7.9 115.32 7 114.42 7 113.32V118.63C7 120.84 8.79 122.63 11 122.63H64.03C65.1 122.63 66.15 122.19 66.89 121.42L72 116.18L77.11 121.42C77.86 122.19 78.9 122.63 79.98 122.63H133.01C135.22 122.63 137.01 120.84 137.01 118.63V113.32C137.01 114.42 136.11 115.32 135.01 115.32H135Z" fill="currentColor" class="penny-illustration-brand-primary"/>
<path d="M135 37.8H130V26.48C130 25.38 129.1 24.48 128 24.48C125.61 24.48 123.32 24.48 121.15 24.48C91.45 24.42 80.1 24.41 72 36.07C69.95 33.12 67.69 30.92 64.98 29.28C64.96 29.27 64.95 29.25 64.93 29.24C64.89 29.22 64.85 29.2 64.81 29.17C64.54 29.01 64.27 28.86 63.99 28.71C63.11 28.24 62.18 27.81 61.2 27.43C61.2 27.43 61.18 27.43 61.17 27.42C59.36 26.73 57.34 26.18 55.02 25.77V61.14C55.02 61.32 54.99 61.49 54.95 61.66C54.99 61.53 55.01 61.39 55.02 61.26C55.86 46.95 60 37.28 64.05 33.43C66.36 35.11 68.23 37.35 70 40.34V109.21C61.57 103.54 50.48 103.19 18 103.18V28.48C19.68 28.48 21.3 28.48 22.86 28.48C23.93 28.48 24.96 28.48 25.98 28.48V25.4C25.98 25.08 26.02 24.77 26.08 24.48C25.03 24.48 23.96 24.48 22.85 24.48C20.67 24.48 18.39 24.48 16 24.48C14.9 24.48 14 25.38 14 26.48V37.8H9C7.9 37.8 7 38.7 7 39.8V113.32C7 114.42 7.9 115.32 9 115.32H135C136.1 115.32 137 114.42 137 113.32V39.8C137 38.7 136.1 37.8 135 37.8ZM11 111.32V41.8H14V105.18C14 106.28 14.9 107.18 16 107.18C46.18 107.18 57.92 107.37 65.65 111.32H11ZM74 109.21V40.34C81.06 28.4 89.76 28.41 121.14 28.47C122.71 28.47 124.33 28.47 126 28.47V103.17C93.52 103.18 82.43 103.53 74 109.2V109.21ZM133 111.32H78.35C86.08 107.37 97.82 107.18 128 107.18C129.1 107.18 130 106.28 130 105.18V41.8H133V111.32Z" fill="currentColor" class="penny-illustration-border"/>
<path d="M53.47 63.08C53.32 63.11 53.17 63.14 53.02 63.14C53.17 63.14 53.32 63.12 53.46 63.08H53.47Z" fill="currentColor" class="penny-illustration-border"/>
<path d="M25.98 28.47V61.14C25.98 61.87 26.38 62.55 27.03 62.9C27.68 63.25 28.46 63.22 29.08 62.82L40.51 55.35L51.94 62.82C52.08 62.91 52.24 62.98 52.41 63.04C52.45 63.05 52.48 63.06 52.52 63.07C52.68 63.11 52.85 63.14 53.03 63.14C53.18 63.14 53.33 63.12 53.48 63.08C53.52 63.08 53.56 63.06 53.59 63.05C53.7 63.02 53.81 62.98 53.91 62.93C53.93 62.92 53.96 62.92 53.98 62.9C54 62.9 54.01 62.88 54.02 62.87C54.16 62.79 54.29 62.7 54.41 62.59C54.42 62.58 54.43 62.56 54.44 62.55C54.54 62.45 54.63 62.34 54.71 62.22C54.73 62.18 54.75 62.15 54.78 62.11C54.85 61.99 54.9 61.86 54.94 61.73C54.94 61.71 54.96 61.69 54.96 61.67C55.01 61.5 55.03 61.33 55.03 61.15V25.39C55.03 22.97 53.06 21 50.64 21H30.38C28.28 21 26.52 22.49 26.09 24.47C26.03 24.77 25.99 25.08 25.99 25.39V28.47H25.98Z" fill="currentColor" class="penny-illustration-brand-primary"/>
<path d="M14 105.18V41.8H11V111.32H65.65C57.92 107.37 46.18 107.18 16 107.18C14.9 107.18 14 106.28 14 105.18Z" fill="currentColor" class="penny-illustration-background"/>
<path d="M130 105.18C130 106.28 129.1 107.18 128 107.18C97.82 107.18 86.08 107.37 78.35 111.32H133V41.8H130V105.18Z" fill="currentColor" class="penny-illustration-background"/>
<path d="M54.76 62.1C54.76 62.1 54.72 62.17 54.69 62.21C54.61 62.33 54.53 62.44 54.42 62.54C54.41 62.55 54.4 62.57 54.39 62.58C54.27 62.69 54.14 62.78 54 62.86C53.98 62.86 53.97 62.88 53.96 62.89C53.94 62.9 53.91 62.91 53.89 62.92C53.79 62.97 53.68 63.01 53.57 63.04C53.53 63.05 53.49 63.07 53.46 63.07C53.32 63.1 53.17 63.13 53.02 63.13C52.84 63.13 52.68 63.1 52.51 63.06C52.47 63.05 52.44 63.04 52.4 63.03C52.23 62.98 52.07 62.91 51.93 62.81L40.5 55.34L29.07 62.81C28.46 63.21 27.67 63.24 27.02 62.89C26.37 62.54 25.97 61.87 25.97 61.13V28.47C24.95 28.47 23.92 28.47 22.85 28.47C21.28 28.47 19.66 28.47 17.99 28.47V103.17C50.47 103.18 61.56 103.53 69.99 109.2V40.34C68.22 37.35 66.34 35.11 64.04 33.43C59.99 37.28 55.85 46.95 55.01 61.26C55.01 61.4 54.98 61.53 54.94 61.66C54.94 61.68 54.92 61.7 54.92 61.72C54.88 61.85 54.82 61.98 54.76 62.1Z" fill="currentColor" class="penny-illustration-background"/>
<path d="M126 28.48C124.32 28.48 122.7 28.48 121.14 28.48C89.77 28.41 81.07 28.41 74 40.35V109.22C82.43 103.55 93.52 103.2 126 103.19V28.48Z" fill="currentColor" class="penny-illustration-background"/>
</svg>
