<svg viewBox="0 0 144 144" fill="none" xmlns="http://www.w3.org/2000/svg">
<path d="M71.5101 29.59C59.1301 29.59 49.0601 39.66 49.0601 52.04C49.0601 64.42 59.1301 74.49 71.5101 74.49C83.8901 74.49 93.9601 64.42 93.9601 52.04C93.9601 39.66 83.8901 29.59 71.5101 29.59ZM71.5101 70.5C61.3401 70.5 53.0601 62.22 53.0601 52.05C53.0601 41.88 61.3401 33.6 71.5101 33.6C81.6801 33.6 89.9601 41.88 89.9601 52.05C89.9601 62.22 81.6801 70.5 71.5101 70.5Z" fill="currentColor" class="penny-illustration-border"/>
<path d="M92.37 111.28L86.66 126.91C81.75 128.28 76.66 129 71.5 129C58.72 129 46.26 124.63 36.29 116.69C37.33 97.96 52.62 83.43 71.5 83.43C83.35 83.43 93.78 89.15 100.16 98.04C101.19 97.19 102.3 96.44 103.47 95.79C96.37 85.84 84.73 79.43 71.49 79.43C51.5 79.43 35.15 94.05 32.58 113.41C21.76 103.11 14.99 88.59 14.99 72.5C15.01 41.35 40.36 16 71.51 16C102.66 16 128.01 41.35 128.01 72.5C128.01 80.47 126.34 88.06 123.35 94.95C124.58 95.5 125.75 96.16 126.85 96.92C130.16 89.45 132.01 81.19 132.01 72.51C132.01 39.14 104.87 12 71.51 12C38.15 12 11.01 39.14 11.01 72.5C11.01 91.14 19.49 107.83 32.78 118.93C32.85 119 32.91 119.08 32.99 119.15C35.95 121.6 39.14 123.73 42.48 125.56C42.65 125.65 42.81 125.74 42.98 125.83C43.58 126.15 44.19 126.46 44.8 126.76C45.11 126.91 45.41 127.06 45.72 127.21C46.18 127.43 46.64 127.63 47.1 127.83C47.54 128.02 47.97 128.22 48.41 128.4C48.7 128.52 48.99 128.63 49.29 128.75C52.16 129.89 55.15 130.81 58.22 131.51C58.36 131.54 58.5 131.58 58.64 131.61C59.29 131.75 59.95 131.88 60.61 132C60.89 132.05 61.17 132.1 61.44 132.15C62.02 132.25 62.6 132.34 63.19 132.42C63.58 132.47 63.96 132.52 64.35 132.57C64.86 132.63 65.37 132.69 65.88 132.74C66.41 132.79 66.94 132.83 67.47 132.86C67.87 132.89 68.26 132.92 68.66 132.94C69.61 132.99 70.56 133.01 71.52 133.01C72.48 133.01 73.43 132.98 74.38 132.94C74.78 132.92 75.17 132.89 75.57 132.86C76.1 132.82 76.63 132.79 77.16 132.74C77.67 132.69 78.18 132.63 78.69 132.57C79.08 132.52 79.47 132.48 79.85 132.42C80.44 132.34 81.02 132.25 81.6 132.15C81.88 132.1 82.16 132.05 82.43 132C83.09 131.88 83.74 131.75 84.4 131.61C84.54 131.58 84.68 131.54 84.82 131.51C86.06 131.23 87.28 130.92 88.48 130.56C88.62 130.54 88.77 130.51 88.91 130.45C88.97 130.43 89.02 130.41 89.07 130.39C90.66 129.91 92.21 129.35 93.74 128.75C94.03 128.63 94.33 128.52 94.62 128.4C95.06 128.22 95.5 128.02 95.93 127.83C93.46 124.25 92.02 119.91 92.02 115.24C92.02 113.89 92.15 112.56 92.38 111.27L92.37 111.28Z" fill="currentColor" class="penny-illustration-border"/>
<path d="M126.85 96.91C125.75 96.15 124.58 95.5 123.35 94.94C120.57 93.69 117.5 92.99 114.26 92.99C110.35 92.99 106.68 94.01 103.49 95.78C102.32 96.43 101.21 97.18 100.18 98.03C96.17 101.32 93.34 105.97 92.38 111.27C92.15 112.56 92.02 113.88 92.02 115.24C92.02 119.91 93.47 124.24 95.93 127.83C99.95 133.66 106.66 137.49 114.27 137.49C126.54 137.49 136.52 127.51 136.52 115.24C136.52 107.64 132.69 100.92 126.86 96.9L126.85 96.91ZM124.49 117.25H116.26V125.48H112.26V117.25H104.03V113.25H112.26V105.02H116.26V113.25H124.49V117.25Z" fill="currentColor" class="penny-illustration-brand-primary"/>
<path d="M71.51 16C40.36 16 15.01 41.35 15.01 72.5C15.01 88.58 21.78 103.11 32.6 113.41C35.17 94.05 51.53 79.43 71.51 79.43C84.74 79.43 96.38 85.84 103.49 95.79C106.68 94.01 110.36 93 114.26 93C117.5 93 120.57 93.7 123.35 94.95C126.34 88.06 128.01 80.48 128.01 72.5C128.01 41.35 102.66 16 71.51 16ZM71.51 74.5C59.13 74.5 49.06 64.43 49.06 52.05C49.06 39.67 59.13 29.6 71.51 29.6C83.89 29.6 93.96 39.67 93.96 52.05C93.96 64.43 83.89 74.5 71.51 74.5Z" fill="currentColor" class="penny-illustration-background"/>
<path d="M71.5101 33.59C61.3401 33.59 53.0601 41.87 53.0601 52.04C53.0601 62.21 61.3401 70.49 71.5101 70.49C81.6801 70.49 89.9601 62.21 89.9601 52.04C89.9601 41.87 81.6801 33.59 71.5101 33.59Z" fill="currentColor" class="penny-illustration-background"/>
<path d="M71.51 83.43C52.6301 83.43 37.34 97.96 36.3 116.69C46.26 124.64 58.73 129 71.51 129C76.66 129 81.7601 128.28 86.6701 126.91L92.3801 111.28C93.34 105.98 96.18 101.33 100.18 98.04C93.8 89.15 83.37 83.43 71.52 83.43H71.51Z" fill="currentColor" class="penny-illustration-background"/>
<path d="M116.26 105.02H112.26V113.25H104.03V117.25H112.26V125.48H116.26V117.25H124.49V113.25H116.26V105.02Z" fill="currentColor" class="penny-illustration-background"/>
</svg>
