<svg viewBox="0 0 144 144" fill="none" xmlns="http://www.w3.org/2000/svg">
<path d="M125 27H19C12.38 27 7 32.38 7 39V104.5C7 111.12 12.38 116.5 19 116.5H25.09C25.03 115.84 25 115.17 25 114.5C25 113.83 25.04 113.16 25.09 112.5H19C14.59 112.5 11 108.91 11 104.5V60.25H133V104.5C133 108.91 129.41 112.5 125 112.5H83.81L62.46 98.28C66.79 102.34 69.5 108.11 69.5 114.5C69.5 115.17 69.46 115.84 69.41 116.5H125C131.62 116.5 137 111.12 137 104.5V39C137 32.38 131.62 27 125 27ZM11.04 38.25C11.42 34.19 14.84 31 19 31H125C129.16 31 132.58 34.19 132.96 38.25H11.04Z" fill="currentColor" class="penny-illustration-border"/>
<path d="M117 87.75H85.5C84.3954 87.75 83.5 88.6454 83.5 89.75V94.25C83.5 95.3546 84.3954 96.25 85.5 96.25H117C118.105 96.25 119 95.3546 119 94.25V89.75C119 88.6454 118.105 87.75 117 87.75Z" fill="currentColor" class="penny-illustration-border"/>
<path d="M62.46 98.28C58.48 94.54 53.13 92.25 47.25 92.25C35.66 92.25 26.11 101.17 25.09 112.5C25.03 113.16 25 113.83 25 114.5C25 115.17 25.04 115.84 25.09 116.5C26.11 127.83 35.65 136.75 47.25 136.75C58.85 136.75 68.39 127.83 69.41 116.5C69.47 115.84 69.5 115.17 69.5 114.5C69.5 108.11 66.79 102.34 62.46 98.28ZM57.48 116.5H49.25V124.73H45.25V116.5H37.02V112.5H45.25V104.27H49.25V112.5H57.48V116.5Z" fill="currentColor" class="penny-illustration-brand-primary"/>
<path d="M47.25 92.25C53.13 92.25 58.48 94.54 62.46 98.28L83.81 112.5H125C129.41 112.5 133 108.91 133 104.5V60.25H11V104.5C11 108.91 14.59 112.5 19 112.5H25.09C26.11 101.17 35.65 92.25 47.25 92.25ZM83.5 89.75C83.5 88.65 84.4 87.75 85.5 87.75H117C118.1 87.75 119 88.65 119 89.75V94.25C119 95.35 118.1 96.25 117 96.25H85.5C84.4 96.25 83.5 95.35 83.5 94.25V89.75Z" fill="currentColor" class="penny-illustration-background"/>
<path d="M125 31H19C14.84 31 11.42 34.19 11.04 38.25H132.96C132.58 34.19 129.16 31 125 31Z" fill="currentColor" class="penny-illustration-background"/>
<path d="M49.25 112.5V104.27H45.25V112.5H37.02V116.5H45.25V124.73H49.25V116.5H57.48V112.5H49.25Z" fill="currentColor" class="penny-illustration-background"/>
</svg>
