<svg viewBox="0 0 144 144" fill="none" xmlns="http://www.w3.org/2000/svg">
<path d="M130.36 58.59H85.6699V78.67C85.6699 80.76 84.7399 82.63 83.2899 83.92C83.2599 83.95 83.2199 83.98 83.1899 84.01C82.6699 84.45 82.0899 84.81 81.4599 85.08L61.7299 97.04C61.4099 97.23 61.0499 97.33 60.6899 97.33C60.3499 97.33 60.0099 97.24 59.7099 97.07C59.0799 96.72 58.6899 96.05 58.6899 95.33V130.25C58.6899 134.11 61.8299 137.25 65.6899 137.25H130.36C134.22 137.25 137.36 134.11 137.36 130.25V65.59C137.36 61.73 134.22 58.59 130.36 58.59ZM91.7999 110.32C91.4299 110.65 90.9499 110.84 90.4599 110.84C90.4099 110.84 90.3599 110.84 90.3199 110.84C89.7799 110.8 89.2699 110.54 88.9199 110.12L79.8599 99.2L82.9399 96.65L90.6699 105.96L113.31 85.53L115.99 88.5L91.7999 110.33V110.32Z" fill="currentColor" class="penny-illustration-brand-primary"/>
<path d="M90.67 105.95L82.94 96.64L79.86 99.19L88.92 110.11C89.27 110.53 89.77 110.79 90.32 110.83C90.37 110.83 90.42 110.83 90.46 110.83C90.95 110.83 91.43 110.65 91.8 110.31L115.99 88.48L113.31 85.51L90.67 105.94V105.95Z" fill="currentColor" class="penny-illustration-background"/>
<path d="M59.71 97.08C60.02 97.25 60.35 97.34 60.69 97.34C61.05 97.34 61.41 97.24 61.73 97.05L81.46 85.09C82.09 84.82 82.67 84.45 83.19 84.02C83.23 83.99 83.26 83.96 83.29 83.93C84.75 82.65 85.67 80.77 85.67 78.68V14C85.67 10.14 82.53 7 78.67 7H14C10.14 7 7 10.14 7 14V78.67C7 82.53 10.14 85.67 14 85.67H58.69V95.34C58.69 96.06 59.08 96.73 59.71 97.08ZM14 81.67C12.35 81.67 11 80.32 11 78.67V14C11 12.35 12.35 11 14 11H78.67C80.32 11 81.67 12.35 81.67 14V78.67C81.67 80.32 80.32 81.67 78.67 81.67H14Z" fill="currentColor" class="penny-illustration-border"/>
<path d="M81.67 78.67V14C81.67 12.35 80.32 11 78.67 11H14C12.35 11 11 12.35 11 14V78.67C11 80.32 12.35 81.67 14 81.67H78.67C80.32 81.67 81.67 80.32 81.67 78.67ZM40.11 58.73C39.74 59.06 39.26 59.25 38.77 59.25C38.72 59.25 38.67 59.25 38.63 59.25C38.09 59.21 37.58 58.95 37.23 58.53L28.17 47.61L31.25 45.06L38.98 54.37L61.62 33.94L64.3 36.91L40.12 58.74L40.11 58.73Z" fill="currentColor" class="penny-illustration-background"/>
<path d="M38.98 54.3701L31.25 45.0601L28.17 47.6101L37.23 58.5301C37.58 58.9501 38.08 59.2101 38.63 59.2501C38.68 59.2501 38.73 59.2501 38.77 59.2501C39.26 59.2501 39.74 59.0701 40.11 58.7301L64.29 36.9001L61.61 33.9301L38.97 54.3601L38.98 54.3701Z" fill="currentColor" class="penny-illustration-border"/>
</svg>
