<svg viewBox="0 0 144 144" fill="none" xmlns="http://www.w3.org/2000/svg">
<path d="M72 9C37.21 9 9 37.21 9 72C9 106.79 37.21 135 72 135C106.79 135 135 106.79 135 72C135 37.21 106.79 9 72 9ZM64.68 96.25C63.71 97.2 62.45 97.67 61.18 97.67C59.98 97.67 58.79 97.24 57.83 96.38L37.14 77.75L43.83 70.32L61.03 85.81L99.99 47.74L106.98 54.89L64.67 96.24L64.68 96.25Z" fill="currentColor" class="penny-illustration-brand-primary"/>
<path d="M61.0499 85.82L43.8499 70.33L37.1599 77.76L57.8499 96.39C58.7999 97.25 59.9999 97.68 61.1999 97.68C62.4599 97.68 63.7299 97.2 64.6999 96.26L107.01 54.91L100.02 47.76L61.0599 85.83L61.0499 85.82Z" fill="currentColor" class="penny-illustration-background"/>
</svg>
