<svg viewBox="0 0 144 144" fill="none" xmlns="http://www.w3.org/2000/svg">
<path d="M137 53.9999V36.5999C137 35.8099 136.53 35.0899 135.8 34.7699L72.8 7.16988C72.29 6.94988 71.71 6.94988 71.19 7.16988L8.2 34.7699C7.47 35.0899 7 35.8099 7 36.5999V53.9999C7 55.0999 7.9 55.9999 9 55.9999H20.5V106H13.5C12.4 106 11.5 106.9 11.5 108V119.5H9C7.9 119.5 7 120.4 7 121.5V135C7 136.1 7.9 137 9 137H135C136.1 137 137 136.1 137 135V121.5C137 120.4 136.1 119.5 135 119.5H132.5V108C132.5 106.9 131.6 106 130.5 106H123.5V90.1999C120.81 91.3499 117.86 91.9999 114.75 91.9999C107.51 91.9999 101.07 88.5199 97 83.1499V106H85.25V55.9999H97V56.3499C98.24 54.7099 99.71 53.2399 101.35 51.9999H11V37.9099L72 11.1799L133 37.9099V51.9999H128.15C129.67 53.1499 131.04 54.4999 132.23 55.9999H135.01C136.11 55.9999 137.01 55.0999 137.01 53.9999H137ZM133 123.5V133H11V123.5H133ZM101 91.1699C104.77 94.9799 111.26 100.23 119.5 101.75V106H101V91.1699ZM62.75 60.1399L81.25 56.4399V106H62.75V60.1399ZM47 55.9999H58.75V106H47V55.9999ZM24.5 60.1399L43 56.4399V106H24.5V60.1399ZM128.5 110V119.5H15.5V110H128.5Z" fill="currentColor" class="penny-illustration-border"/>
<path d="M72 23.6599C67.22 23.6599 63.34 27.5499 63.34 32.3199C63.34 37.0899 67.23 40.9899 72 40.9899C76.77 40.9899 80.66 37.0999 80.66 32.3199C80.66 27.5399 76.77 23.6599 72 23.6599Z" fill="currentColor" class="penny-illustration-border"/>
<path d="M128.15 51.9999C124.42 49.1799 119.78 47.4999 114.75 47.4999C109.72 47.4999 105.08 49.1799 101.35 51.9999C99.71 53.2399 98.24 54.7099 97 56.3499C94.18 60.0799 92.5 64.7199 92.5 69.7499C92.5 74.7799 94.18 79.4199 97 83.1499C101.07 88.5199 107.51 91.9999 114.75 91.9999C117.86 91.9999 120.81 91.3599 123.5 90.1999C131.43 86.7899 137 78.9099 137 69.7499C137 64.5599 135.21 59.7899 132.22 55.9999C131.04 54.4999 129.67 53.1499 128.14 51.9999H128.15ZM111.47 77.9099C111.1 78.2399 110.62 78.4299 110.13 78.4299C110.08 78.4299 110.03 78.4299 109.99 78.4299C109.45 78.3899 108.94 78.1299 108.59 77.7099L103.05 71.0399L106.13 68.4899L110.34 73.5599L123.57 61.6099L126.25 64.5799L111.47 77.9199V77.9099Z" fill="currentColor" class="penny-illustration-brand-primary"/>
<path d="M11 123.5V133H133V123.5H11Z" fill="currentColor" class="penny-illustration-background"/>
<path d="M15.5 119.5H128.5V110H15.5V119.5Z" fill="currentColor" class="penny-illustration-background"/>
<path d="M81.25 56.4399L62.75 60.1399V106H81.25V56.4399Z" fill="currentColor" class="penny-illustration-background"/>
<path d="M43 56.4399L24.5 60.1399V106H43V56.4399Z" fill="currentColor" class="penny-illustration-background"/>
<path d="M119.5 101.74C111.26 100.22 104.77 94.9699 101 91.1599V105.99H119.5V101.74Z" fill="currentColor" class="penny-illustration-background"/>
<path d="M128.15 51.9999H133V37.9099L72 11.1799L11 37.9099V51.9999H101.35C105.08 49.1799 109.72 47.4999 114.75 47.4999C119.78 47.4999 124.42 49.1799 128.15 51.9999ZM72 40.9899C67.22 40.9899 63.34 37.0999 63.34 32.3199C63.34 27.5399 67.23 23.6599 72 23.6599C76.77 23.6599 80.66 27.5499 80.66 32.3199C80.66 37.0899 76.77 40.9899 72 40.9899Z" fill="currentColor" class="penny-illustration-background"/>
<path d="M110.33 73.5399L106.12 68.4699L103.04 71.0199L108.58 77.6899C108.93 78.1099 109.43 78.3699 109.98 78.4099C110.03 78.4099 110.08 78.4099 110.12 78.4099C110.61 78.4099 111.09 78.2299 111.46 77.8899L126.24 64.5499L123.56 61.5799L110.33 73.5299V73.5399Z" fill="currentColor" class="penny-illustration-background"/>
</svg>
