<svg viewBox="0 0 144 144" fill="none" xmlns="http://www.w3.org/2000/svg">
<path d="M135 55.9926C136.1 55.9926 137 55.0926 137 53.9926V36.5926C137 35.8026 136.53 35.0826 135.8 34.7626L72.8 7.16256C72.29 6.94256 71.71 6.94256 71.19 7.16256L8.2 34.7626C7.47 35.0826 7 35.8026 7 36.5926V53.9926C7 55.0926 7.9 55.9926 9 55.9926H20.5V76.2926C21.78 75.7426 23.11 75.3126 24.5 75.0126V60.1326L43 56.4326V79.2726C44.5 80.4526 45.85 81.8226 47 83.3526V56.0026H58.75V106.003H49.48C48.83 107.423 48.04 108.763 47.11 110.003H128.5V119.503H38.85L42.53 114.593C38.82 117.363 34.23 119.003 29.25 119.003C22.01 119.003 15.57 115.523 11.5 110.153V119.503H9C7.9 119.503 7 120.403 7 121.503V135.003C7 136.103 7.9 137.003 9 137.003H135C136.1 137.003 137 136.103 137 135.003V121.503C137 120.403 136.1 119.503 135 119.503H132.5V108.003C132.5 106.903 131.6 106.003 130.5 106.003H123.5V56.0026H135V55.9926ZM133 123.493V132.993H11V123.493H133ZM81.25 105.993H62.75V60.1326L81.25 56.4326V105.993ZM97 105.993H85.25V55.9926H97V105.993ZM119.5 105.993H101V60.1326L119.5 56.4326V105.993ZM11 51.9926V37.9026L72 11.1726L133 37.9026V51.9926H11Z" fill="currentColor" class="penny-illustration-border"/>
<path d="M72 23.6526C67.22 23.6526 63.34 27.5426 63.34 32.3126C63.34 37.0826 67.23 40.9826 72 40.9826C76.77 40.9826 80.66 37.0926 80.66 32.3126C80.66 27.5326 76.77 23.6526 72 23.6526Z" fill="currentColor" class="penny-illustration-border"/>
<path d="M29.25 118.993C34.22 118.993 38.82 117.353 42.53 114.583C44.27 113.283 45.82 111.733 47.12 109.993C48.04 108.753 48.83 107.413 49.49 105.993C50.78 103.173 51.51 100.043 51.51 96.7426C51.51 91.7126 49.83 87.0726 47.01 83.3426C45.86 81.8226 44.51 80.4526 43.01 79.2626C39.22 76.2726 34.45 74.4826 29.26 74.4826C27.63 74.4826 26.04 74.6626 24.51 75.0026C23.12 75.3026 21.79 75.7326 20.51 76.2826C12.58 79.6926 7.01 87.5726 7.01 96.7326C7.01 101.763 8.69 106.403 11.51 110.133C15.58 115.503 22.02 118.983 29.26 118.983L29.25 118.993ZM28.01 97.1926L27.66 97.0826C25.83 96.5026 22.44 95.4226 22.44 91.0026C22.44 88.1726 24.46 85.8526 27.3 85.1026V82.6926H31.3V85.1526C34.09 86.0226 36.07 88.6926 36.07 91.9226H32.07C32.07 90.3926 31.12 88.8426 29.3 88.8426C27.69 88.8426 26.44 89.7926 26.44 91.0026C26.44 92.3726 26.87 92.6326 28.87 93.2726L29.25 93.3926C31.13 94.0026 36.86 95.8626 36.86 101.293C36.86 104.803 34.58 107.583 31.3 108.393V110.803H27.3V108.373C24.05 107.493 21.65 104.523 21.65 101.003H25.65C25.65 103.013 27.29 104.653 29.3 104.653C31.31 104.653 32.86 103.243 32.86 101.303C32.86 99.5426 31.41 98.3126 28.01 97.2126V97.1926Z" fill="currentColor" class="penny-illustration-brand-primary"/>
<path d="M29.29 104.643C27.28 104.643 25.64 103.003 25.64 100.993H21.64C21.64 104.513 24.04 107.483 27.29 108.363V110.793H31.29V108.383C34.56 107.573 36.85 104.793 36.85 101.283C36.85 95.8626 31.12 94.0026 29.24 93.3826L28.86 93.2626C26.86 92.6226 26.43 92.3626 26.43 90.9926C26.43 89.7826 27.69 88.8326 29.29 88.8326C31.11 88.8326 32.06 90.3826 32.06 91.9126H36.06C36.06 88.6726 34.08 86.0126 31.29 85.1426V82.6826H27.29V85.0926C24.45 85.8426 22.43 88.1626 22.43 90.9926C22.43 95.4126 25.83 96.4926 27.65 97.0726L28 97.1826C31.4 98.2826 32.85 99.5126 32.85 101.273C32.85 103.213 31.35 104.623 29.29 104.623V104.643Z" fill="currentColor" class="penny-illustration-background"/>
<path d="M11 123.493V132.993H133V123.493H11Z" fill="currentColor" class="penny-illustration-background"/>
<path d="M42.53 114.583L38.85 119.493H128.5V109.993H47.11C45.81 111.733 44.27 113.283 42.52 114.583H42.53Z" fill="currentColor" class="penny-illustration-background"/>
<path d="M62.75 105.993H81.25V56.4326L62.75 60.1326V105.993Z" fill="currentColor" class="penny-illustration-background"/>
<path d="M43 79.2726V56.4326L24.5 60.1326V75.0126C26.03 74.6826 27.62 74.4926 29.25 74.4926C34.44 74.4926 39.21 76.2826 43 79.2726Z" fill="currentColor" class="penny-illustration-background"/>
<path d="M101 105.993H119.5V56.4326L101 60.1326V105.993Z" fill="currentColor" class="penny-illustration-background"/>
<path d="M133 37.9026L72 11.1726L11 37.9026V51.9926H133V37.9026ZM72 40.9826C67.22 40.9826 63.34 37.0926 63.34 32.3126C63.34 27.5326 67.23 23.6526 72 23.6526C76.77 23.6526 80.66 27.5426 80.66 32.3126C80.66 37.0826 76.77 40.9826 72 40.9826Z" fill="currentColor" class="penny-illustration-background"/>
</svg>
