<svg viewBox="0 0 144 144" fill="none" xmlns="http://www.w3.org/2000/svg">
<path d="M135.284 56.0179C136.384 56.0179 137.284 55.1179 137.284 54.0179V36.618C137.284 35.828 136.814 35.108 136.084 34.788L73.0837 7.18795C72.5737 6.96795 71.9937 6.96795 71.4737 7.18795L8.48369 34.788C7.75369 35.108 7.28369 35.828 7.28369 36.618V54.0179C7.28369 55.1179 8.18369 56.0179 9.28369 56.0179H20.7837V76.318C22.0637 75.768 23.3937 75.3379 24.7837 75.0379V60.1579L43.2837 56.4579V79.298C44.7837 80.478 46.1337 81.848 47.2837 83.378V56.0279H59.0337V106.028H49.7637C49.1137 107.448 48.3237 108.788 47.3937 110.028H128.784V119.528H39.1337L42.8037 114.628C39.0937 117.398 34.5037 119.028 29.5337 119.028C22.2937 119.028 15.8537 115.548 11.7837 110.178V119.528H9.28369C8.18369 119.528 7.28369 120.428 7.28369 121.528V135.028C7.28369 136.128 8.18369 137.028 9.28369 137.028H135.284C136.384 137.028 137.284 136.128 137.284 135.028V121.528C137.284 120.428 136.384 119.528 135.284 119.528H132.784V108.028C132.784 106.928 131.884 106.028 130.784 106.028H123.784V56.0279H135.284V56.0179ZM133.284 123.518V133.018H11.2837V123.518H133.284ZM81.5337 106.018H63.0337V60.1579L81.5337 56.4579V106.018ZM97.2837 106.018H85.5337V56.0179H97.2837V106.018ZM119.784 106.018H101.284V60.1579L119.784 56.4579V106.018ZM11.2837 52.0179V37.9279L72.2837 11.1979L133.284 37.9279V52.0179H11.2837Z" fill="currentColor" class="penny-illustration-border"/>
<path d="M72.2837 23.6779C67.5037 23.6779 63.6137 27.5679 63.6137 32.3479C63.6137 37.128 67.5037 41.0079 72.2837 41.0079C77.0637 41.0079 80.9537 37.1179 80.9537 32.3479C80.9537 27.578 77.0637 23.6779 72.2837 23.6779Z" fill="currentColor" class="penny-illustration-border"/>
<path d="M29.5337 119.018C34.5037 119.018 39.1037 117.378 42.8037 114.618C44.5437 113.318 46.0937 111.768 47.3937 110.018C48.3137 108.778 49.1037 107.438 49.7637 106.018C51.0537 103.198 51.7837 100.068 51.7837 96.7681C51.7837 91.7381 50.1037 87.0981 47.2837 83.3681C46.1337 81.8481 44.7837 80.4781 43.2837 79.2881C39.4937 76.2981 34.7237 74.5081 29.5337 74.5081C27.9037 74.5081 26.3137 74.6881 24.7837 75.0281C23.3937 75.3281 22.0637 75.7581 20.7837 76.3081C12.8537 79.7181 7.28369 87.5981 7.28369 96.7581C7.28369 101.788 8.96369 106.428 11.7837 110.158C15.8537 115.528 22.2937 119.008 29.5337 119.008V119.018ZM32.2037 108.288C32.2037 109.688 31.0637 110.828 29.6637 110.828C28.2637 110.828 27.1237 109.688 27.1237 108.288V107.738C27.1237 106.338 28.2637 105.198 29.6637 105.198C31.0637 105.198 32.2037 106.338 32.2037 107.738V108.288ZM29.7337 82.7181C32.1637 82.7181 34.3737 83.8281 35.7937 85.7681C37.1637 87.6281 37.6137 89.9281 36.9937 91.9381C36.1937 94.5181 34.6337 95.7781 33.3837 96.7881C32.1237 97.7981 31.4937 98.2981 31.4937 99.9581V102.208H27.5937V99.9581C27.5937 96.4281 29.4437 94.9381 30.9337 93.7481C31.9837 92.8981 32.8237 92.2381 33.2637 90.7881C33.5137 89.9881 33.2637 88.9281 32.6537 88.0881C32.2537 87.5381 31.3337 86.6281 29.7237 86.6281C27.2337 86.6281 25.6837 88.2281 25.6837 90.7881H21.7837C21.7837 86.0381 25.0537 82.7281 29.7237 82.7281L29.7337 82.7181Z" fill="currentColor" class="penny-illustration-brand-primary"/>
<path d="M11.2837 123.518V133.018H133.284V123.518H11.2837Z" fill="currentColor" class="penny-illustration-background"/>
<path d="M42.8037 114.618L39.1337 119.518H128.784V110.018H47.3937C46.0937 111.768 44.5437 113.318 42.8037 114.618Z" fill="currentColor" class="penny-illustration-background"/>
<path d="M63.0337 106.018H81.5337V56.458L63.0337 60.158V106.018Z" fill="currentColor" class="penny-illustration-background"/>
<path d="M43.2837 79.298V56.458L24.7837 60.158V75.038C26.3137 74.708 27.9037 74.518 29.5337 74.518C34.7237 74.518 39.4937 76.308 43.2837 79.298Z" fill="currentColor" class="penny-illustration-background"/>
<path d="M101.284 106.018H119.784V56.458L101.284 60.158V106.018Z" fill="currentColor" class="penny-illustration-background"/>
<path d="M133.284 37.928L72.2837 11.198L11.2837 37.928V52.018H133.284V37.928ZM72.2837 41.008C67.5037 41.008 63.6137 37.118 63.6137 32.348C63.6137 27.578 67.5037 23.678 72.2837 23.678C77.0637 23.678 80.9537 27.568 80.9537 32.348C80.9537 37.128 77.0637 41.008 72.2837 41.008Z" fill="currentColor" class="penny-illustration-background"/>
<path d="M29.7337 86.618C31.3437 86.618 32.2537 87.538 32.6637 88.078C33.2837 88.918 33.5237 89.978 33.2737 90.778C32.8237 92.218 31.9937 92.888 30.9437 93.738C29.4537 94.938 27.6037 96.428 27.6037 99.948V102.198H31.5037V99.948C31.5037 98.288 32.1337 97.778 33.3937 96.778C34.6437 95.768 36.2137 94.518 37.0037 91.928C37.6237 89.928 37.1737 87.618 35.8037 85.758C34.3737 83.818 32.1637 82.708 29.7437 82.708C25.0637 82.708 21.8037 86.028 21.8037 90.768H25.7037C25.7037 88.198 27.2537 86.608 29.7437 86.608L29.7337 86.618Z" fill="currentColor" class="penny-illustration-background"/>
<path d="M29.6637 105.198C28.2637 105.198 27.1237 106.338 27.1237 107.738V108.288C27.1237 109.688 28.2637 110.828 29.6637 110.828C31.0637 110.828 32.2037 109.688 32.2037 108.288V107.738C32.2037 106.338 31.0637 105.198 29.6637 105.198Z" fill="currentColor" class="penny-illustration-background"/>
</svg>
