<svg viewBox="0 0 144 144" fill="none" xmlns="http://www.w3.org/2000/svg">
<path d="M72.04 9C37.28 9 9 37.28 9 72.04C9 106.8 37.28 135.08 72.04 135.08C106.8 135.08 135.08 106.8 135.08 72.04C135.08 37.28 106.8 9 72.04 9ZM72.04 29C80.29 29 88 31.34 94.56 35.38L35.39 94.55C31.35 88 29.01 80.28 29.01 72.03C29.01 48.3 48.32 28.99 72.05 28.99L72.04 29ZM72.04 115.07C63.79 115.07 56.08 112.73 49.52 108.69L108.69 49.52C112.73 56.07 115.07 63.79 115.07 72.04C115.07 95.77 95.76 115.08 72.03 115.08L72.04 115.07Z" fill="currentColor" class="penny-illustration-brand-primary"/>
</svg>
