<svg viewBox="0 0 144 144" fill="none" xmlns="http://www.w3.org/2000/svg">
<path d="M38.5701 130.27L28.3701 55.48C28.6801 55.49 28.9901 55.5 29.3001 55.5C30.35 55.5 31.3701 55.42 32.3801 55.28C43.2001 53.78 51.55 44.47 51.55 33.25C51.55 33.17 51.55 33.08 51.55 33C51.53 31.63 51.4 30.3 51.14 29C49.15 18.76 40.12 11 29.3001 11C17.0401 11 7.05005 20.98 7.05005 33.25C7.05005 42.51 12.7501 50.47 20.8201 53.81L7.03005 129.63C6.92005 130.23 7.08005 130.85 7.47005 131.31C7.86005 131.78 8.44005 132.05 9.05005 132.05H40.55C40.71 132.05 40.86 132.03 41.01 132H40.55C39.55 132 38.7001 131.26 38.5701 130.27ZM24.6801 41.92C24.6801 41.92 24.5801 41.92 24.5401 41.92C24.0001 41.88 23.4901 41.62 23.1401 41.2L17.6001 34.53L20.6801 31.98L24.8901 37.05L38.1201 25.1L40.8 28.07L26.0201 41.41C25.6501 41.74 25.1701 41.93 24.6801 41.93V41.92Z" fill="currentColor" class="penny-illustration-brand-primary"/>
<path d="M137.04 129.73L123.54 30.73C123.41 29.74 122.56 29 121.56 29H110.11V22H106V29H87.56V22H83.45V29H65.1101V22H61V29H51.14C51.39 30.3 51.53 31.63 51.55 33H61V40H65.1101V33H83.45V40H87.56V33H106V40H110.11V33H119.81L132.77 128H42.3L32.3801 55.28C31.3701 55.42 30.35 55.5 29.3001 55.5C28.9901 55.5 28.6801 55.49 28.3701 55.48L38.5701 130.27C38.7001 131.26 39.55 132 40.55 132H135.05C135.63 132 136.18 131.75 136.56 131.32C136.94 130.88 137.11 130.31 137.03 129.73H137.04Z" fill="currentColor" class="penny-illustration-border"/>
<path d="M45 49.91C44.6101 50.37 44.44 50.97 44.53 51.56L53.53 110.06C53.68 111.06 54.5501 111.8 55.5601 111.8H118.56C119.16 111.8 119.73 111.54 120.12 111.08C120.51 110.62 120.68 110.02 120.59 109.43L111.59 50.93C111.44 49.93 110.57 49.19 109.56 49.19H46.5601C45.9601 49.19 45.39 49.45 45 49.91ZM57.32 107.7L54.9501 92.31H66.5401L68.91 107.7H57.32ZM73.07 107.7L70.7001 92.31H82.2901L84.6601 107.7H73.07ZM88.8201 107.7L86.4501 92.31H98.0401L100.41 107.7H88.8201ZM116.16 107.7H104.57L102.2 92.31H113.79L116.16 107.7ZM113.16 88.2H101.57L99.2001 72.81H110.79L113.16 88.2ZM107.79 53.3L110.16 68.69H98.5701L96.2001 53.3H107.79ZM92.0401 53.3L94.4101 68.69H82.8201L80.4501 53.3H92.0401ZM81.6601 88.2H70.07L67.7001 72.81H79.2901L81.6601 88.2ZM76.29 53.3L78.6601 68.69H67.07L64.7001 53.3H76.29ZM65.91 88.2H54.32L51.9501 72.81H63.5401L65.91 88.2ZM60.5401 53.3L62.91 68.69H51.32L48.9501 53.3H60.5401Z" fill="currentColor" class="penny-illustration-border"/>
<path d="M54.3201 88.2H65.9101L63.5401 72.8H51.9501L54.3201 88.2Z" fill="currentColor" class="penny-illustration-background"/>
<path d="M82.2901 92.3H70.7001L73.0701 107.7H84.6601L82.2901 92.3Z" fill="currentColor" class="penny-illustration-background"/>
<path d="M98.0401 92.3H86.4501L88.8201 107.7H100.41L98.0401 92.3Z" fill="currentColor" class="penny-illustration-background"/>
<path d="M101.57 88.2H113.16L110.79 72.8H99.2001L101.57 88.2Z" fill="currentColor" class="penny-illustration-background"/>
<path d="M104.57 107.7H116.16L113.79 92.3H102.2L104.57 107.7Z" fill="currentColor" class="penny-illustration-background"/>
<path d="M70.0701 88.2H81.6601L79.2901 72.8H67.7001L70.0701 88.2Z" fill="currentColor" class="penny-illustration-background"/>
<path d="M66.5401 92.3H54.9501L57.3201 107.7H68.9101L66.5401 92.3Z" fill="currentColor" class="penny-illustration-background"/>
<path d="M62.9101 68.7L60.5401 53.3H48.9501L51.3201 68.7H62.9101Z" fill="currentColor" class="penny-illustration-background"/>
<path d="M32.3801 55.28L42.3001 128H132.76L119.8 33H110.1V40H105.99V33H87.5501V40H83.4401V33H65.1001V40H60.9901V33H51.5401C51.5401 33.08 51.5401 33.17 51.5401 33.25C51.5401 44.47 43.1901 53.78 32.3701 55.28H32.3801ZM109.55 49.2C110.56 49.2 111.43 49.94 111.58 50.94L120.58 109.44C120.67 110.03 120.5 110.63 120.11 111.09C119.72 111.54 119.15 111.81 118.55 111.81H55.5501C54.5401 111.81 53.6701 111.07 53.5201 110.07L44.5201 51.57C44.4301 50.98 44.6001 50.38 44.9901 49.92C45.3801 49.47 45.9501 49.2 46.5501 49.2H109.55Z" fill="currentColor" class="penny-illustration-background"/>
<path d="M67.0701 68.7H78.6601L76.2901 53.3H64.7001L67.0701 68.7Z" fill="currentColor" class="penny-illustration-background"/>
<path d="M82.8201 68.7H94.4101L92.0401 53.3H80.4501L82.8201 68.7Z" fill="currentColor" class="penny-illustration-background"/>
<path d="M98.5701 68.7H110.16L107.79 53.3H96.2001L98.5701 68.7Z" fill="currentColor" class="penny-illustration-background"/>
<path d="M38.1201 25.09L24.8901 37.04L20.6801 31.97L17.6001 34.52L23.1401 41.19C23.4901 41.61 23.9901 41.87 24.5401 41.91C24.5901 41.91 24.6401 41.91 24.6801 41.91C25.1701 41.91 25.6501 41.73 26.0201 41.39L40.8001 28.05L38.1201 25.08V25.09Z" fill="currentColor" class="penny-illustration-background"/>
</svg>
