 <svg viewBox="0 0 144 144" fill="none" xmlns="http://www.w3.org/2000/svg">
<path d="M49.58 39V36C49.58 33.79 47.79 32 45.58 32H26.5C24.29 32 22.5 33.79 22.5 36V39.98C24.56 39.34 26.74 39 29 39H49.58Z" fill="currentColor" class="penny-illustration-brand-primary"/>
<path d="M125 39H124.81C121.13 39 117.94 36.51 117.05 32.94L116.34 30.09C115 24.74 110.22 21 104.7 21H70.82C65.3 21 60.52 24.74 59.18 30.09L58.47 32.94C57.58 36.51 54.39 39 50.71 39H29.02C26.76 39 24.58 39.34 22.52 39.98C13.53 42.76 7 51.13 7 61V102C7 114.13 16.87 124 29 124H125C131.62 124 137 118.62 137 112V51C137 44.38 131.62 39 125 39ZM133 112C133 116.41 129.41 120 125 120H53.23L42.45 72.06C42.23 71.07 41.29 70.4 40.28 70.51C39.27 70.62 38.5 71.48 38.5 72.5V120H29C19.07 120 11 111.93 11 102V61C11 51.07 19.07 43 29 43H50.69C56.21 43 60.99 39.26 62.33 33.91L63.04 31.06C63.93 27.49 67.12 25 70.8 25H104.68C108.36 25 111.55 27.49 112.44 31.06L113.15 33.91C114.49 39.26 119.27 43 124.79 43H124.98C129.39 43 132.98 46.59 132.98 51V112H133Z" fill="currentColor" class="penny-illustration-border"/>
<path d="M90 48C71.53 48 56.5 63.03 56.5 81.5C56.5 99.97 71.53 115 90 115C108.47 115 123.5 99.97 123.5 81.5C123.5 63.03 108.47 48 90 48ZM90 111C73.73 111 60.5 97.77 60.5 81.5C60.5 65.23 73.73 52 90 52C106.27 52 119.5 65.23 119.5 81.5C119.5 97.77 106.27 111 90 111Z" fill="currentColor" class="penny-illustration-border"/>
<path d="M90 61.5C78.97 61.5 70 70.47 70 81.5C70 92.53 78.97 101.5 90 101.5C101.03 101.5 110 92.53 110 81.5C110 70.47 101.03 61.5 90 61.5Z" fill="currentColor" class="penny-illustration-border"/>
<path d="M103.5 30H72C70.8954 30 70 30.8954 70 32V36.5C70 37.6046 70.8954 38.5 72 38.5H103.5C104.605 38.5 105.5 37.6046 105.5 36.5V32C105.5 30.8954 104.605 30 103.5 30Z" fill="currentColor" class="penny-illustration-brand-primary"/>
<path d="M34.27 50H24.23C23.2745 50 22.5 50.7745 22.5 51.73V57.27C22.5 58.2255 23.2745 59 24.23 59H34.27C35.2255 59 36 58.2255 36 57.27V51.73C36 50.7745 35.2255 50 34.27 50Z" fill="currentColor" class="penny-illustration-brand-primary"/>
<path d="M124.81 43C119.29 43 114.51 39.26 113.17 33.91L112.46 31.06C111.57 27.49 108.38 25 104.7 25H70.82C67.14 25 63.95 27.49 63.06 31.06L62.35 33.91C61.01 39.26 56.23 43 50.71 43H29.02C19.09 43 11.02 51.07 11.02 61V102C11.02 111.93 19.09 120 29.02 120H38.52V72.5C38.52 71.48 39.29 70.62 40.3 70.51C41.32 70.4 42.25 71.06 42.47 72.06L53.25 120H125.02C129.43 120 133.02 116.41 133.02 112V51C133.02 46.59 129.43 43 125.02 43H124.81ZM36 57.27C36 58.23 35.22 59 34.27 59H24.23C23.27 59 22.5 58.22 22.5 57.27V51.73C22.5 50.77 23.28 50 24.23 50H34.27C35.23 50 36 50.78 36 51.73V57.27ZM70 32C70 30.9 70.9 30 72 30H103.5C104.6 30 105.5 30.9 105.5 32V36.5C105.5 37.6 104.6 38.5 103.5 38.5H72C70.9 38.5 70 37.6 70 36.5V32ZM90 115C71.53 115 56.5 99.97 56.5 81.5C56.5 63.03 71.53 48 90 48C108.47 48 123.5 63.03 123.5 81.5C123.5 99.97 108.47 115 90 115Z" fill="currentColor" class="penny-illustration-background"/>
<path d="M90 52C73.73 52 60.5 65.23 60.5 81.5C60.5 97.77 73.73 111 90 111C106.27 111 119.5 97.77 119.5 81.5C119.5 65.23 106.27 52 90 52ZM90 101.5C78.97 101.5 70 92.53 70 81.5C70 70.47 78.97 61.5 90 61.5C101.03 61.5 110 70.47 110 81.5C110 92.53 101.03 101.5 90 101.5Z" fill="currentColor" class="penny-illustration-background"/>
</svg>
