  <svg viewBox="0 0 144 144" fill="none" xmlns="http://www.w3.org/2000/svg">
<path d="M125 27H19C12.38 27 7 32.38 7 39V104.5C7 111.12 12.38 116.5 19 116.5H125C131.62 116.5 137 111.12 137 104.5V39C137 32.38 131.62 27 125 27ZM19 31H125C129.16 31 132.58 34.19 132.96 38.25H11.04C11.42 34.19 14.84 31 19 31ZM133 104.5C133 108.91 129.41 112.5 125 112.5H19C14.59 112.5 11 108.91 11 104.5V60.25H133V104.5Z" fill="currentColor" class="penny-illustration-border"/>
<path d="M117 87.75H85.5C84.3954 87.75 83.5 88.6454 83.5 89.75V94.25C83.5 95.3546 84.3954 96.25 85.5 96.25H117C118.105 96.25 119 95.3546 119 94.25V89.75C119 88.6454 118.105 87.75 117 87.75Z" fill="currentColor" class="penny-illustration-brand-primary"/>
<path d="M11 104.5C11 108.91 14.59 112.5 19 112.5H125C129.41 112.5 133 108.91 133 104.5V60.25H11V104.5ZM83.5 89.75C83.5 88.65 84.4 87.75 85.5 87.75H117C118.1 87.75 119 88.65 119 89.75V94.25C119 95.35 118.1 96.25 117 96.25H85.5C84.4 96.25 83.5 95.35 83.5 94.25V89.75Z" fill="currentColor" class="penny-illustration-background"/>
<path d="M125 31H19C14.84 31 11.42 34.19 11.04 38.25H132.96C132.58 34.19 129.16 31 125 31Z" fill="currentColor" class="penny-illustration-background"/>
</svg>
