<svg viewBox="0 0 144 144" fill="none" xmlns="http://www.w3.org/2000/svg">
<path d="M134.46 121.985L120.42 117.115L114.73 100.235L115.64 93.685C119.62 90.705 122.91 86.845 125.25 82.295C129.31 74.415 130.05 65.415 127.34 56.975L122.85 42.965C122.69 42.465 122.33 42.035 121.86 41.795C121.39 41.555 120.84 41.505 120.33 41.665L90.9 51.105L94 44.965C94.24 44.495 94.28 43.945 94.11 43.435C93.94 42.935 93.59 42.515 93.11 42.275L37.43 14.165C36.96 13.925 36.41 13.885 35.9 14.055C35.4 14.225 34.98 14.575 34.74 15.055L28.11 28.185C24.11 36.095 23.44 45.095 26.21 53.515C27.81 58.375 30.45 62.705 33.92 66.275L33.8 72.905L25.25 90.145L10.65 92.745C9.80004 92.895 9.15004 93.575 9.02004 94.425C8.90004 95.275 9.33004 96.115 10.1 96.505L43.36 113.295C43.65 113.435 43.95 113.505 44.26 113.505C44.78 113.505 45.29 113.305 45.67 112.925C46.28 112.315 46.44 111.385 46.05 110.615L39.47 97.305L48.02 80.065L53.3 76.015C54.76 76.215 56.23 76.325 57.69 76.325C59.7 76.325 61.69 76.125 63.65 75.765L64.12 77.245C68.55 91.055 81.22 99.945 94.96 100.275L99.56 105.125L105.25 122.005L96.68 134.095C96.18 134.795 96.19 135.735 96.7 136.435C97.08 136.955 97.69 137.255 98.31 137.255C98.51 137.255 98.72 137.225 98.92 137.155L134.4 125.775C135.22 125.515 135.78 124.755 135.79 123.895C135.79 123.035 135.26 122.265 134.45 121.985H134.46ZM35.46 96.425C35.18 96.985 35.18 97.645 35.46 98.195L39.82 107.015L17.26 95.625L26.95 93.895C27.57 93.785 28.11 93.385 28.39 92.815L36.54 76.375C36.63 76.435 36.72 76.485 36.81 76.545C37.17 76.775 37.53 77.005 37.89 77.215C38.05 77.305 38.2 77.405 38.36 77.495C38.88 77.795 39.41 78.085 39.95 78.365C40.5 78.645 41.06 78.905 41.61 79.145C41.78 79.225 41.96 79.295 42.14 79.365C42.53 79.525 42.92 79.685 43.32 79.835C43.42 79.875 43.52 79.915 43.62 79.955L35.46 96.425ZM66.74 70.895C66.37 71.015 66 71.125 65.62 71.235C65.53 71.265 65.44 71.285 65.35 71.305C61.36 72.385 57.14 72.625 52.97 71.935C52.35 71.835 51.74 71.705 51.13 71.565C50.96 71.525 50.79 71.485 50.62 71.435C50.01 71.285 49.4 71.115 48.8 70.915C48.78 70.915 48.75 70.905 48.73 70.895C48.11 70.695 47.49 70.455 46.88 70.215C46.72 70.155 46.57 70.085 46.41 70.025C45.81 69.775 45.22 69.505 44.63 69.215C44.62 69.215 44.61 69.215 44.6 69.205C44.6 69.205 44.58 69.195 44.57 69.195C43.98 68.895 43.4 68.575 42.84 68.235C42.72 68.165 42.6 68.085 42.47 68.015C41.27 67.275 40.12 66.465 39.05 65.565C39.03 65.545 39 65.525 38.98 65.505C38.42 65.035 37.87 64.545 37.35 64.025C37.35 64.025 37.34 64.025 37.34 64.015C34.03 60.785 31.52 56.785 30.03 52.265C27.59 44.855 28.19 36.945 31.7 29.985L37.43 18.635L89.55 44.945L83.82 56.295C83.58 56.765 83.33 57.225 83.08 57.675C83.02 57.775 82.96 57.865 82.91 57.965C82.7 58.315 82.49 58.665 82.27 59.005C82.19 59.125 82.11 59.235 82.03 59.355C81.82 59.665 81.61 59.975 81.39 60.285C81.3 60.415 81.2 60.535 81.11 60.655C80.9 60.945 80.68 61.225 80.45 61.505C80.35 61.635 80.24 61.765 80.13 61.885C79.91 62.145 79.69 62.405 79.47 62.655C79.35 62.795 79.22 62.925 79.1 63.055C78.88 63.285 78.66 63.515 78.44 63.735C78.3 63.875 78.15 64.025 78.01 64.165C77.8 64.365 77.59 64.565 77.38 64.755C77.21 64.905 77.04 65.065 76.87 65.215C76.68 65.375 76.49 65.535 76.29 65.695C76.09 65.865 75.88 66.025 75.68 66.185C75.52 66.305 75.36 66.425 75.2 66.545C74.95 66.735 74.7 66.915 74.45 67.095C74.37 67.145 74.3 67.195 74.22 67.245C72.74 68.255 71.17 69.125 69.53 69.845C69.52 69.845 69.51 69.845 69.5 69.855C69.11 70.025 68.72 70.185 68.32 70.335C68.26 70.355 68.2 70.385 68.14 70.405C67.77 70.545 67.39 70.685 67.01 70.805C66.93 70.835 66.84 70.865 66.76 70.885L66.74 70.895ZM102.25 95.565C101.61 95.715 100.96 95.845 100.31 95.955C100.29 95.955 100.27 95.955 100.25 95.955C99.62 96.055 98.99 96.125 98.36 96.185C98.19 96.205 98.01 96.215 97.84 96.225C97.21 96.275 96.58 96.305 95.95 96.305C83.53 96.385 71.93 88.465 67.94 76.025L67.56 74.845C69.41 74.275 71.18 73.535 72.88 72.665C72.91 72.645 72.94 72.635 72.97 72.615C73.41 72.385 73.84 72.155 74.27 71.915C75.13 71.425 75.97 70.895 76.78 70.335C76.82 70.305 76.85 70.285 76.89 70.255C77.42 69.885 77.93 69.495 78.44 69.095C78.56 69.005 78.67 68.905 78.79 68.815C79.3 68.395 79.8 67.965 80.29 67.515C80.32 67.485 80.35 67.465 80.38 67.435C80.87 66.975 81.35 66.495 81.82 66.005C81.97 65.845 82.11 65.695 82.26 65.535C82.6 65.165 82.93 64.785 83.25 64.405C83.38 64.245 83.52 64.085 83.65 63.925C84.07 63.405 84.47 62.865 84.86 62.315C84.92 62.235 84.97 62.155 85.02 62.075C85.06 62.015 85.1 61.955 85.14 61.895C85.45 61.445 85.75 60.975 86.04 60.505C86.15 60.325 86.26 60.155 86.36 59.975C86.72 59.365 87.07 58.745 87.39 58.105L88.39 56.125L119.67 46.095L123.55 58.205C125.93 65.635 125.28 73.535 121.71 80.475C119.53 84.705 116.43 88.255 112.66 90.935C112.66 90.935 112.65 90.935 112.64 90.935C112.04 91.365 111.42 91.765 110.79 92.145C110.77 92.155 110.75 92.165 110.73 92.175C109.52 92.895 108.25 93.525 106.94 94.075C106.81 94.125 106.69 94.175 106.56 94.225C105.93 94.475 105.3 94.705 104.66 94.915C104.02 95.115 103.38 95.295 102.74 95.455C102.58 95.495 102.42 95.535 102.26 95.565H102.25ZM103.42 131.515L109.11 123.485C109.48 122.965 109.58 122.295 109.37 121.695L103.97 105.685C104.07 105.665 104.17 105.635 104.27 105.615C104.68 105.535 105.09 105.435 105.49 105.335C105.68 105.285 105.86 105.245 106.05 105.195C106.63 105.045 107.21 104.875 107.78 104.695C108.37 104.505 108.94 104.295 109.51 104.085C109.69 104.015 109.87 103.945 110.05 103.865C110.44 103.705 110.83 103.545 111.22 103.365C111.32 103.325 111.42 103.285 111.52 103.235L116.94 119.305C117.14 119.895 117.6 120.355 118.18 120.555L127.48 123.775L103.42 131.495V131.515Z" fill="currentColor" class="penny-illustration-border"/>
<path d="M100.67 86.515L102.47 85.935C110.75 83.285 116.13 75.805 116.53 67.605C116.51 61.635 107.43 58.015 103.33 64.635C98.05 73.165 90.81 69.305 85.02 62.065C84.97 62.145 84.91 62.225 84.86 62.305C84.47 62.855 84.07 63.385 83.65 63.915C83.52 64.075 83.38 64.235 83.25 64.395C82.93 64.785 82.6 65.155 82.26 65.525C82.12 65.685 81.97 65.845 81.82 65.995C81.35 66.485 80.88 66.965 80.38 67.425C80.35 67.455 80.32 67.475 80.29 67.505C79.8 67.955 79.3 68.385 78.79 68.805C78.67 68.895 78.56 68.995 78.44 69.085C77.94 69.485 77.42 69.875 76.89 70.245C76.85 70.275 76.82 70.295 76.78 70.325C75.97 70.895 75.13 71.415 74.27 71.905C79.34 86.655 91.25 89.515 100.67 86.495V86.515Z" fill="currentColor" class="penny-illustration-brand-primary"/>
<path d="M70.58 28.475C70.07 28.995 69.63 29.585 69.25 30.235L84.76 38.065C89.39 28.325 78.02 20.955 70.58 28.475Z" fill="currentColor" class="penny-illustration-brand-primary"/>
<path d="M60.5 50.755C53.87 51.905 51.99 45.585 48.27 43.145C45.53 41.345 42.65 41.345 40.22 42.345C36.31 43.955 34.72 48.675 36.57 52.475C38.56 56.555 41.84 60.035 46.21 62.245L48 63.155C58.61 68.515 71.56 64.255 76.92 53.645L82.97 41.655L67.77 33.985C65.93 40.785 66.67 49.705 60.5 50.775V50.755Z" fill="currentColor" class="penny-illustration-brand-primary"/>
<path d="M92.3325 19.4329C93.888 15.6775 92.1047 11.3721 88.3493 9.81657C84.5939 8.26103 80.2885 10.0444 78.733 13.7998C77.1774 17.5552 78.9608 21.8605 82.7162 23.4161C86.4716 24.9716 90.7769 23.1883 92.3325 19.4329Z" fill="currentColor" class="penny-illustration-brand-primary"/>
<path d="M116.94 119.325L111.52 103.255C111.42 103.305 111.32 103.335 111.22 103.385C110.83 103.555 110.44 103.725 110.05 103.885C109.87 103.955 109.69 104.035 109.51 104.105C108.95 104.325 108.37 104.525 107.78 104.715C107.21 104.895 106.63 105.065 106.05 105.215C105.87 105.265 105.68 105.305 105.49 105.355C105.08 105.455 104.68 105.545 104.27 105.635C104.17 105.655 104.07 105.685 103.97 105.705L109.37 121.715C109.57 122.325 109.48 122.985 109.11 123.505L103.42 131.535L127.48 123.815L118.18 120.595C117.6 120.395 117.14 119.935 116.94 119.345V119.325Z" fill="currentColor" class="penny-illustration-background"/>
<path d="M106.56 94.225C106.69 94.175 106.81 94.125 106.94 94.075C108.25 93.535 109.51 92.905 110.73 92.175C110.75 92.165 110.77 92.155 110.79 92.145C111.42 91.765 112.04 91.365 112.64 90.935C112.64 90.935 112.65 90.935 112.66 90.935C116.43 88.265 119.54 84.705 121.71 80.475C125.28 73.545 125.93 65.635 123.55 58.205L119.67 46.095L88.39 56.125L87.39 58.105C87.07 58.745 86.72 59.365 86.36 59.975C86.26 60.155 86.15 60.325 86.04 60.505C85.75 60.975 85.45 61.435 85.14 61.895C85.1 61.955 85.06 62.015 85.02 62.075C90.8 69.315 98.04 73.175 103.33 64.645C107.44 58.015 116.51 61.635 116.53 67.615C116.13 75.815 110.75 83.285 102.47 85.945L100.67 86.525C91.26 89.545 79.34 86.675 74.27 71.935C73.84 72.175 73.41 72.415 72.97 72.635C72.94 72.655 72.91 72.665 72.88 72.685C71.18 73.555 69.41 74.285 67.56 74.865L67.94 76.045C71.93 88.485 83.53 96.405 95.95 96.325C96.58 96.325 97.21 96.295 97.84 96.245C98.01 96.235 98.19 96.215 98.36 96.205C98.99 96.145 99.62 96.075 100.25 95.975C100.27 95.975 100.29 95.975 100.31 95.975C100.96 95.875 101.61 95.735 102.25 95.585C102.41 95.545 102.57 95.515 102.73 95.475C103.38 95.315 104.02 95.145 104.65 94.935C105.29 94.725 105.93 94.495 106.55 94.245L106.56 94.225Z" fill="currentColor" class="penny-illustration-background"/>
<path d="M68.3 70.345C68.7 70.195 69.09 70.035 69.48 69.865C69.49 69.865 69.5 69.865 69.51 69.855C71.14 69.135 72.71 68.265 74.2 67.255C74.28 67.205 74.35 67.155 74.43 67.105C74.69 66.925 74.93 66.745 75.18 66.555C75.34 66.435 75.5 66.325 75.66 66.195C75.87 66.035 76.07 65.865 76.27 65.705C76.46 65.545 76.66 65.385 76.85 65.225C77.02 65.075 77.19 64.925 77.36 64.765C77.57 64.575 77.78 64.375 77.99 64.175C78.14 64.035 78.28 63.895 78.42 63.745C78.64 63.525 78.86 63.295 79.08 63.065C79.21 62.935 79.33 62.795 79.45 62.665C79.68 62.415 79.9 62.155 80.11 61.895C80.22 61.765 80.33 61.645 80.43 61.515C80.65 61.235 80.87 60.955 81.09 60.665C81.18 60.545 81.28 60.425 81.37 60.295C81.59 59.995 81.8 59.685 82.01 59.365C82.09 59.245 82.17 59.135 82.25 59.015C82.47 58.675 82.68 58.325 82.89 57.975C82.95 57.875 83.01 57.785 83.06 57.685C83.32 57.235 83.57 56.775 83.8 56.305L89.53 44.955L82.96 41.635L76.91 53.625C71.55 64.235 58.61 68.495 47.99 63.135L46.2 62.225C41.84 60.025 38.55 56.535 36.56 52.455C34.71 48.655 36.29 43.935 40.21 42.325C42.64 41.325 45.52 41.325 48.26 43.125C51.98 45.565 53.86 51.895 60.49 50.735C66.66 49.665 65.92 40.745 67.76 33.945L37.41 18.625L31.68 29.975C28.17 36.935 27.57 44.845 30.01 52.255C31.5 56.775 34.01 60.775 37.32 64.005C37.32 64.005 37.33 64.005 37.33 64.015C37.86 64.525 38.4 65.015 38.96 65.495C38.98 65.515 39.01 65.535 39.03 65.555C40.11 66.455 41.25 67.275 42.45 68.005C42.57 68.075 42.69 68.155 42.82 68.225C43.39 68.565 43.96 68.885 44.55 69.185C44.55 69.185 44.57 69.195 44.58 69.195C44.59 69.195 44.6 69.195 44.61 69.205C45.19 69.495 45.79 69.765 46.39 70.015C46.55 70.085 46.7 70.145 46.86 70.205C47.47 70.455 48.08 70.685 48.71 70.885C48.73 70.885 48.76 70.895 48.78 70.905C49.38 71.095 49.99 71.265 50.6 71.425C50.77 71.465 50.94 71.515 51.11 71.555C51.72 71.695 52.33 71.825 52.95 71.925C57.12 72.615 61.35 72.375 65.33 71.295C65.42 71.275 65.51 71.245 65.6 71.225C65.98 71.115 66.35 71.005 66.72 70.885C66.8 70.855 66.89 70.835 66.97 70.805C67.35 70.675 67.73 70.545 68.1 70.405C68.16 70.385 68.22 70.355 68.28 70.335L68.3 70.345Z" fill="currentColor" class="penny-illustration-background"/>
<path d="M42.14 79.375C41.97 79.305 41.79 79.235 41.61 79.155C41.06 78.915 40.51 78.655 39.95 78.375C39.41 78.105 38.88 77.815 38.36 77.505C38.2 77.415 38.04 77.315 37.89 77.225C37.53 77.005 37.16 76.785 36.81 76.555C36.72 76.495 36.63 76.445 36.54 76.385L28.39 92.825C28.11 93.395 27.57 93.795 26.95 93.905L17.26 95.635L39.82 107.025L35.46 98.205C35.18 97.645 35.18 96.985 35.46 96.435L43.62 79.965C43.52 79.925 43.42 79.885 43.32 79.845C42.93 79.695 42.53 79.545 42.14 79.375Z" fill="currentColor" class="penny-illustration-background"/>
</svg>
