<svg viewBox="0 0 144 144" fill="none" xmlns="http://www.w3.org/2000/svg">
<path d="M121 7H22C20.9 7 20 7.9 20 9V107.74C20 107.87 20.01 107.99 20.04 108.11C20.04 108.11 20.04 108.11 20.04 108.12C20.07 108.29 20.14 108.45 20.21 108.61C20.23 108.65 20.25 108.68 20.27 108.72C20.36 108.87 20.46 109.02 20.58 109.14L47.58 136.4C47.67 136.5 47.78 136.58 47.89 136.65C47.91 136.67 47.94 136.68 47.97 136.69C48.06 136.74 48.15 136.8 48.24 136.83C48.29 136.85 48.33 136.86 48.38 136.87C48.46 136.9 48.53 136.92 48.61 136.94C48.72 136.96 48.84 136.97 48.95 136.97C48.97 136.97 48.98 136.97 49 136.97H121C122.1 136.97 123 136.07 123 134.97V9C123 7.9 122.1 7 121 7ZM119 133H51V107.74C51 106.64 50.1 105.74 49 105.74H24V11H119V133Z" fill="currentColor" class="penny-illustration-border"/>
<path d="M42.55 52C39.62 52 37.23 49.61 37.23 46.68H33.23C33.23 51.11 36.34 54.83 40.49 55.77V58.51H44.49V55.83C48.74 55.01 51.75 51.52 51.75 47.07C51.75 40.47 44.88 38.24 42.29 37.4L41.8 37.24C39.16 36.4 38.23 35.91 38.23 33.73C38.23 31.8 40.08 30.34 42.54 30.34C45 30.34 46.73 32.27 46.73 34.93H50.73C50.73 30.74 48.15 27.45 44.48 26.58V23.61H40.48V26.57C36.85 27.37 34.23 30.22 34.23 33.73C34.23 39.03 38.21 40.29 40.59 41.05L41.05 41.2C45.74 42.72 47.74 44.48 47.74 47.07C47.74 49.93 45.55 52.01 42.53 52.01L42.55 52Z" fill="currentColor" class="penny-illustration-border"/>
<path d="M59.03 74.95H35.5V78.95H59.03V74.95Z" fill="currentColor" class="penny-illustration-border"/>
<path d="M99.45 43.14C99.78 42.49 100.46 42.06 101.23 42.06H108.96C108.99 41.92 109.01 41.77 109.01 41.61V29.19C109.01 28.09 108.11 27.19 107.01 27.19H71.02C69.92 27.19 69.02 28.09 69.02 29.19V41.61C69.02 41.76 69.04 41.91 69.07 42.06H97.66C98.43 42.06 99.1 42.49 99.44 43.14H99.45Z" fill="currentColor" class="penny-illustration-brand-primary"/>
<path d="M70.4 80.48L80.53 82.17L78.74 88.46H35.5V92.46H77.62L75.96 98.31C75.11 101.31 75.47 104.46 76.99 107.19C79.39 111.51 83.96 114.2 88.9 114.2H89.39C93.15 114.2 96.68 112.69 99.09 110.05C102.12 106.73 103.2 102.18 101.98 97.88L97.52 82.17L107.65 80.48C109.93 80.1 111.58 78.15 111.58 75.84V44.06C111.58 42.96 110.68 42.06 109.58 42.06H101.24C100.47 42.06 99.8 42.49 99.46 43.14C99.12 42.49 98.45 42.06 97.68 42.06H68.48C67.38 42.06 66.48 42.96 66.48 44.06V75.84C66.48 78.15 68.13 80.1 70.41 80.48H70.4ZM95.93 46.06L97.46 56.79C97.6 57.78 98.44 58.51 99.44 58.51C100.44 58.51 101.28 57.78 101.42 56.79L102.95 46.06H107.56V63.88L70.46 68.75V46.06H95.93ZM70.47 73.03H107.57V75.83C107.57 76.18 107.32 76.47 106.98 76.52L94.64 78.58C94.08 78.67 93.58 79 93.28 79.48C92.98 79.96 92.89 80.55 93.05 81.1L98.12 98.96C98.96 101.92 98.22 105.06 96.13 107.34C94.48 109.15 92.02 110.18 89.38 110.18H88.89C85.4 110.18 82.17 108.28 80.48 105.23C79.48 103.43 79.24 101.36 79.8 99.38L84.99 81.09C85.15 80.54 85.06 79.96 84.76 79.47C84.46 78.99 83.96 78.66 83.4 78.57L71.06 76.51C70.72 76.45 70.47 76.16 70.47 75.82V73.02V73.03Z" fill="currentColor" class="penny-illustration-border"/>
<path d="M83.37 101.25C83.37 104.37 85.91 106.9 89.02 106.9C92.13 106.9 94.67 104.36 94.67 101.25C94.67 98.14 92.13 95.6 89.02 95.6C85.91 95.6 83.37 98.14 83.37 101.25ZM89.02 99.59C89.93 99.59 90.67 100.33 90.67 101.24C90.67 102.15 89.93 102.89 89.02 102.89C88.11 102.89 87.37 102.15 87.37 101.24C87.37 100.33 88.11 99.59 89.02 99.59Z" fill="currentColor" class="penny-illustration-border"/>
<path d="M24 105.74H49C50.1 105.74 51 106.64 51 107.74V133H119V11H24V105.74ZM66.47 71.03V44.06C66.47 42.96 67.37 42.06 68.47 42.06H69.08C69.05 41.92 69.03 41.77 69.03 41.61V29.19C69.03 28.09 69.93 27.19 71.03 27.19H107.02C108.12 27.19 109.02 28.09 109.02 29.19V41.61C109.02 41.76 109 41.91 108.97 42.06H109.58C110.68 42.06 111.58 42.96 111.58 44.06V75.84C111.58 78.15 109.93 80.1 107.65 80.48L97.52 82.17L101.98 97.88C103.2 102.18 102.12 106.73 99.09 110.05C96.68 112.69 93.15 114.2 89.39 114.2H88.9C83.96 114.2 79.39 111.52 76.99 107.19C75.48 104.46 75.11 101.31 75.96 98.31L77.62 92.46H35.5V88.46H78.75L80.54 82.17L70.41 80.48C68.13 80.1 66.48 78.15 66.48 75.84V71.04L66.47 71.03ZM59.03 78.95H35.5V74.95H59.03V78.95ZM41.07 41.19L40.61 41.04C38.23 40.28 34.25 39.02 34.25 33.72C34.25 30.21 36.87 27.35 40.5 26.56V23.6H44.5V26.57C48.17 27.44 50.75 30.74 50.75 34.92H46.75C46.75 32.26 44.99 30.33 42.56 30.33C40.13 30.33 38.25 31.79 38.25 33.72C38.25 35.9 39.18 36.39 41.82 37.23L42.31 37.39C44.9 38.23 51.77 40.46 51.77 47.06C51.77 51.51 48.76 55 44.51 55.82V58.5H40.51V55.76C36.36 54.82 33.25 51.11 33.25 46.67H37.25C37.25 49.6 39.64 51.99 42.57 51.99C45.5 51.99 47.78 49.91 47.78 47.05C47.78 44.46 45.78 42.7 41.09 41.18L41.07 41.19Z" fill="currentColor" class="penny-illustration-background"/>
<path d="M89.02 102.9C89.9313 102.9 90.67 102.161 90.67 101.25C90.67 100.339 89.9313 99.6 89.02 99.6C88.1087 99.6 87.37 100.339 87.37 101.25C87.37 102.161 88.1087 102.9 89.02 102.9Z" fill="currentColor" class="penny-illustration-background"/>
<path d="M102.96 46.06L101.43 56.79C101.29 57.78 100.45 58.51 99.45 58.51C98.45 58.51 97.61 57.78 97.47 56.79L95.94 46.06H70.48V68.75L107.58 63.88V46.06H102.96Z" fill="currentColor" class="penny-illustration-background"/>
<path d="M71.06 76.53L83.4 78.59C83.96 78.68 84.46 79.01 84.76 79.49C85.06 79.97 85.15 80.56 84.99 81.11L79.8 99.4C79.24 101.37 79.48 103.45 80.48 105.25C82.18 108.3 85.4 110.2 88.89 110.2H89.38C92.02 110.2 94.48 109.16 96.13 107.36C98.22 105.07 98.96 101.94 98.12 98.98L93.05 81.12C92.89 80.57 92.98 79.99 93.28 79.5C93.58 79.02 94.08 78.69 94.64 78.6L106.98 76.54C107.32 76.48 107.57 76.19 107.57 75.85V73.05H70.47V75.85C70.47 76.2 70.72 76.49 71.06 76.54V76.53ZM94.68 101.25C94.68 104.37 92.14 106.9 89.03 106.9C85.92 106.9 83.38 104.36 83.38 101.25C83.38 98.14 85.92 95.6 89.03 95.6C92.14 95.6 94.68 98.14 94.68 101.25Z" fill="currentColor" class="penny-illustration-background"/>
</svg>
