<svg viewBox="0 0 144 144" fill="none" xmlns="http://www.w3.org/2000/svg">
<path d="M71.607 20.4902C66.777 20.4902 62.847 24.4202 62.847 29.2502C62.847 34.0802 66.777 38.0102 71.607 38.0102C76.437 38.0102 80.367 34.0802 80.367 29.2502C80.367 24.4202 76.437 20.4902 71.607 20.4902ZM71.607 34.0002C68.987 34.0002 66.847 31.8702 66.847 29.2402C66.847 26.6102 68.977 24.4802 71.607 24.4802C74.237 24.4802 76.367 26.6102 76.367 29.2402C76.367 31.8702 74.237 34.0002 71.607 34.0002Z" fill="currentColor" class="penny-illustration-border"/>
<path d="M45.807 135.1C45.757 134.04 46.547 133.12 47.607 133.01C47.637 133.01 47.667 133.01 47.697 133H42.917C48.237 122.04 48.477 112.54 48.487 112.11C48.507 111.19 47.897 110.38 47.007 110.14C46.117 109.9 45.187 110.29 44.737 111.09C44.657 111.23 36.747 125.27 28.457 133H16.417C29.527 123.05 33.827 108.06 35.157 97.5402L107.617 87.7802C107.617 88.3102 107.617 88.8302 107.627 89.3602C107.687 97.6702 107.757 106.14 105.367 114.93C105.607 114.8 105.837 114.69 106.077 114.55C106.777 114.17 107.637 114.24 108.267 114.73C108.887 115.22 109.167 116.03 108.977 116.79C111.757 107.09 111.697 97.8602 111.627 89.3202C111.617 88.0302 111.607 86.7502 111.607 85.4802V76.2202C111.607 72.7802 109.147 69.8802 105.757 69.3202L89.557 66.6202C88.417 66.4302 87.457 65.7902 86.837 64.8102C86.217 63.8402 86.057 62.6902 86.367 61.5802L93.917 35.0002C95.417 29.7002 94.897 24.0702 92.427 19.1502C88.677 11.6502 81.137 6.99023 72.747 6.99023H70.467C62.077 6.99023 54.537 11.6502 50.787 19.1502C48.327 24.0702 47.797 29.7002 49.297 35.0002L56.847 61.5802C57.157 62.6902 56.997 63.8402 56.377 64.8102C55.757 65.7902 54.797 66.4302 53.657 66.6202L37.457 69.3202C34.067 69.8802 31.607 72.7902 31.607 76.2202V85.4702L31.417 95.1402C30.347 106.14 25.867 123.96 8.66699 133.22C7.85699 133.65 7.44699 134.58 7.67699 135.47C7.89699 136.36 8.69699 136.98 9.61699 136.98H29.237C29.727 136.98 30.207 136.8 30.567 136.47C35.167 132.35 39.597 126.46 42.867 121.62C41.897 125.25 40.347 129.58 37.867 134C37.517 134.62 37.527 135.38 37.887 135.99C38.247 136.6 38.907 136.98 39.617 136.98H47.817C46.747 136.98 45.877 136.14 45.817 135.08L45.807 135.1ZM35.607 76.2402C35.607 74.7702 36.657 73.5202 38.117 73.2802L54.317 70.5802C56.557 70.2102 58.547 68.8902 59.757 66.9702C60.977 65.0502 61.317 62.6902 60.697 60.5102L53.147 33.9302C51.917 29.6002 52.347 24.9902 54.367 20.9602C57.437 14.8202 63.607 11.0102 70.467 11.0102H72.747C79.607 11.0102 85.777 14.8202 88.847 20.9602C90.857 24.9902 91.297 29.5902 90.067 33.9302L82.517 60.5102C81.897 62.7002 82.237 65.0502 83.457 66.9702C84.677 68.8902 86.657 70.2102 88.897 70.5802L105.097 73.2802C106.547 73.5202 107.607 74.7702 107.607 76.2402V83.5002H35.607V76.2402Z" fill="currentColor" class="penny-illustration-border"/>
<path d="M134.057 122.16C132.397 120.25 130.107 119.12 127.607 118.96C121.987 118.6 118.207 122.71 114.567 126.69C113.667 127.67 112.757 128.66 111.817 129.59C109.237 131.25 105.787 132.33 101.787 132.77C104.027 129.45 107.127 123.95 108.977 116.83C108.977 116.83 108.977 116.82 108.977 116.81C109.167 116.04 108.897 115.23 108.267 114.75C107.637 114.26 106.777 114.19 106.077 114.57C105.827 114.7 105.607 114.82 105.367 114.95C96.157 119.86 92.167 119.58 87.177 119.21C83.637 118.95 79.617 118.65 73.337 120.1C66.347 121.71 63.587 124.53 61.147 127.02C58.457 129.77 56.137 132.14 47.677 133.01C47.647 133.01 47.617 133.01 47.587 133.02C46.527 133.13 45.737 134.05 45.787 135.11C45.837 136.17 46.717 137.01 47.787 137.01H124.477C127.267 137.01 135.757 137.01 136.357 129.15C136.557 126.59 135.737 124.11 134.047 122.17L134.057 122.16Z" fill="currentColor" class="penny-illustration-brand-primary"/>
<path d="M121.087 116.05C124.837 116.05 127.877 113.01 127.877 109.26C127.877 105.51 124.837 102.47 121.087 102.47C117.337 102.47 114.297 105.51 114.297 109.26C114.297 113.01 117.337 116.05 121.087 116.05Z" fill="currentColor" class="penny-illustration-brand-primary"/>
<path d="M107.607 76.2402C107.607 74.7702 106.557 73.5203 105.097 73.2803L88.897 70.5803C86.657 70.2103 84.667 68.8903 83.457 66.9703C82.237 65.0503 81.897 62.6903 82.517 60.5103L90.067 33.9303C91.297 29.6003 90.867 24.9903 88.847 20.9603C85.777 14.8203 79.607 11.0103 72.747 11.0103H70.467C63.607 11.0103 57.437 14.8203 54.367 20.9603C52.347 24.9903 51.917 29.5903 53.147 33.9303L60.697 60.5103C61.317 62.7003 60.977 65.0503 59.757 66.9703C58.537 68.8903 56.557 70.2103 54.317 70.5803L38.117 73.2803C36.667 73.5203 35.607 74.7702 35.607 76.2402V83.5003H107.607V76.2402ZM71.607 38.0003C66.777 38.0003 62.847 34.0703 62.847 29.2403C62.847 24.4103 66.777 20.4803 71.607 20.4803C76.437 20.4803 80.367 24.4103 80.367 29.2403C80.367 34.0703 76.437 38.0003 71.607 38.0003Z" fill="currentColor" class="penny-illustration-background"/>
<path d="M107.627 89.3703C107.627 88.8403 107.627 88.3102 107.617 87.7903L35.157 97.5503C33.827 108.06 29.527 123.05 16.417 133.01H28.457C36.747 125.28 44.657 111.25 44.737 111.1C45.187 110.3 46.117 109.91 47.007 110.15C47.897 110.39 48.497 111.2 48.487 112.12C48.487 112.55 48.237 122.05 42.917 133.01H47.697C56.157 132.14 58.477 129.77 61.167 127.02C63.597 124.53 66.357 121.71 73.357 120.1C79.637 118.66 83.647 118.95 87.197 119.21C92.187 119.58 96.177 119.86 105.387 114.95C107.777 106.16 107.707 97.6803 107.647 89.3802L107.627 89.3703Z" fill="currentColor" class="penny-illustration-background"/>
</svg>
