<svg viewBox="0 0 144 144" fill="none" xmlns="http://www.w3.org/2000/svg">
<path d="M24.82 60.5C28.61 60.5 32.12 59.29 35.01 57.25C35.48 56.92 35.92 56.57 36.35 56.2C38.04 54.74 39.46 52.96 40.5 50.96C39.23 48.52 38.5 45.76 38.5 42.82V36C38.5 35.94 38.51 35.88 38.52 35.82C38.52 35.77 38.52 35.72 38.54 35.66C38.56 35.53 38.6 35.4 38.64 35.28C38.64 35.26 38.64 35.25 38.65 35.23V35.21L49.68 8.24C49.99 7.49 50.72 7 51.53 7H29.18C28.55 7 27.96 7.3 27.58 7.8L7.4 34.8C7.4 34.8 7.39 34.82 7.38 34.83C7.28 34.96 7.2 35.11 7.14 35.26C7.13 35.29 7.12 35.32 7.11 35.35C7.07 35.47 7.04 35.6 7.02 35.73C7.02 35.78 7.01 35.83 7.01 35.87C7.01 35.91 7 35.94 7 35.98V42.8C7 49.39 10.63 55.15 16 58.19C18.57 59.64 21.53 60.48 24.68 60.48H24.82V60.5Z" fill="currentColor" class="penny-illustration-brand-primary"/>
<path d="M74 9V42.82C74 45.75 73.27 48.52 72 50.96C74.95 56.62 80.87 60.5 87.68 60.5H87.82C91.61 60.5 95.12 59.29 98.01 57.25C98.48 56.92 98.92 56.57 99.35 56.2C101.04 54.74 102.46 52.96 103.5 50.96C102.23 48.52 101.5 45.76 101.5 42.82V36.39L90.62 9.75C90.37 9.13 90.44 8.43 90.81 7.88C91.18 7.33 91.8 7 92.47 7H72C73.1 7 74 7.9 74 9Z" fill="currentColor" class="penny-illustration-brand-primary"/>
<path d="M49.68 8.24L38.66 35.22V35.24C38.66 35.24 38.65 35.27 38.64 35.29C38.59 35.41 38.56 35.54 38.54 35.67C38.54 35.72 38.53 35.77 38.52 35.83C38.52 35.89 38.5 35.95 38.5 36.01V42.83C38.5 45.76 39.23 48.53 40.5 50.97C39.46 52.97 38.04 54.75 36.35 56.21C39.4 61.58 45.13 65.21 51.68 65.21H51.82C57.94 65.21 63.33 62.05 66.51 57.26C66.98 56.93 67.42 56.58 67.85 56.21C70.9 61.58 76.63 65.21 83.18 65.21H83.32C89.44 65.21 94.83 62.05 98.01 57.26C95.13 59.3 91.62 60.51 87.82 60.51H87.68C80.87 60.51 74.95 56.63 72 50.97C73.27 48.53 74 45.77 74 42.83V9C74 7.9 73.1 7 72 7H51.53C50.72 7 49.99 7.49 49.68 8.24ZM70 42.82C70 50.36 63.86 56.5 56.32 56.5H56.18C48.64 56.5 42.5 50.36 42.5 42.82V38H70V42.82ZM52.87 11H70V34H43.48L52.88 11H52.87Z" fill="currentColor" class="penny-illustration-border"/>
<path d="M136.99 35.89C136.99 35.89 136.99 35.79 136.98 35.75C136.96 35.62 136.93 35.49 136.89 35.37C136.88 35.34 136.87 35.31 136.86 35.28C136.8 35.13 136.72 34.98 136.62 34.85C136.62 34.84 136.61 34.83 136.6 34.82L116.42 7.8C116.04 7.29 115.45 7 114.82 7H92.47C91.8 7 91.18 7.33 90.81 7.88C90.44 8.43 90.37 9.13 90.62 9.75L101.5 36.39V42.82C101.5 45.75 102.23 48.52 103.5 50.96C102.46 52.96 101.04 54.74 99.35 56.2C102.4 61.57 108.13 65.2 114.68 65.2H114.82C118.12 65.2 121.26 64.29 124 62.61V124.01H96.38L88.96 111.4H112.5C113.6 111.4 114.5 110.5 114.5 109.4V72.01C114.5 70.91 113.6 70.01 112.5 70.01H72C70.9 70.01 70 70.91 70 72.01V93.03C71.39 93.33 72.72 93.76 74 94.31V74.01H110.5V107.4H86.6L85.42 105.4C86.75 108.25 87.49 111.42 87.49 114.76C87.49 119.72 85.86 124.31 83.1 128.01H125.99C127.09 128.01 127.99 127.11 127.99 126.01V58.21C133.36 55.17 136.99 49.42 136.99 42.82V36C136.99 36 136.99 35.93 136.98 35.89H136.99ZM113.82 11L131.01 34H104.84L95.44 11H113.82ZM133 42.82C133 50.36 126.86 56.5 119.32 56.5H119.18C111.64 56.5 105.5 50.36 105.5 42.82V38H133V42.82Z" fill="currentColor" class="penny-illustration-border"/>
<path d="M83.22 101.65C83.22 101.65 83.26 101.7 83.28 101.73L83.26 101.7C83.26 101.7 83.23 101.67 83.22 101.65Z" fill="currentColor" class="penny-illustration-border"/>
<path d="M85.43 105.39C84.83 104.1 84.1 102.87 83.28 101.73C83.26 101.7 83.24 101.68 83.22 101.65C80.88 98.44 77.7 95.89 74 94.3C72.72 93.75 71.39 93.32 70 93.02C68.47 92.69 66.88 92.5 65.25 92.5C63.62 92.5 62.03 92.68 60.5 93.02C59.11 93.32 57.78 93.75 56.5 94.3C52.79 95.89 49.6 98.47 47.25 101.7C49.92 105.37 51.5 109.88 51.5 114.76C51.5 119.64 49.92 124.15 47.25 127.82C47.3 127.88 47.34 127.95 47.39 128.01C51.45 133.47 57.94 137.01 65.25 137.01C72.56 137.01 79.05 133.47 83.11 128.01C85.86 124.31 87.5 119.72 87.5 114.76C87.5 111.42 86.75 108.24 85.43 105.4V105.39ZM76.5 116.75H67.25V126H63.25V116.75H54V112.75H63.25V103.5H67.25V112.75H76.5V116.75Z" fill="currentColor" class="penny-illustration-brand-primary"/>
<path d="M29.25 114.42C32.9779 114.42 36 111.398 36 107.67C36 103.942 32.9779 100.92 29.25 100.92C25.5221 100.92 22.5 103.942 22.5 107.67C22.5 111.398 25.5221 114.42 29.25 114.42Z" fill="currentColor" class="penny-illustration-border"/>
<path d="M51.5 114.75C51.5 109.87 49.92 105.36 47.25 101.69C44 97.22 39.13 94 33.5 92.91V74H56.5V94.3C57.78 93.75 59.11 93.32 60.5 93.02V72C60.5 70.9 59.6 70 58.5 70H31.5C30.4 70 29.5 70.9 29.5 72V92.51C29.42 92.51 29.33 92.51 29.25 92.51C25.95 92.51 22.82 93.24 20 94.53V65.2C20.06 65.2 20.12 65.2 20.18 65.2H20.32C26.44 65.2 31.83 62.04 35.01 57.25C32.13 59.29 28.62 60.5 24.82 60.5H24.68C21.52 60.5 18.57 59.66 16 58.21V96.89C10.54 100.95 7 107.44 7 114.75C7 127.02 16.98 137 29.25 137C36.56 137 43.05 133.46 47.11 128H47.39C47.34 127.94 47.3 127.87 47.25 127.81C49.92 124.14 51.5 119.63 51.5 114.75ZM42.77 126.96C40.98 121.19 35.61 117 29.25 117C22.89 117 17.52 121.19 15.73 126.96C12.8 123.72 11 119.45 11 114.75C11 104.69 19.19 96.5 29.25 96.5C39.31 96.5 47.5 104.69 47.5 114.75C47.5 119.45 45.7 123.73 42.77 126.96Z" fill="currentColor" class="penny-illustration-border"/>
<path d="M83.32 65.19H83.18C76.63 65.19 70.9 61.56 67.85 56.19C67.42 56.56 66.97 56.91 66.51 57.24C63.33 62.03 57.94 65.19 51.82 65.19H51.68C45.13 65.19 39.4 61.56 36.35 56.19C35.92 56.56 35.47 56.91 35.01 57.24C31.83 62.03 26.44 65.19 20.32 65.19H20.18C20.12 65.19 20.06 65.19 20 65.19V94.52C22.82 93.23 25.95 92.5 29.25 92.5C29.33 92.5 29.42 92.5 29.5 92.5V71.99C29.5 70.89 30.4 69.99 31.5 69.99H58.5C59.6 69.99 60.5 70.89 60.5 71.99V93.01C62.03 92.68 63.62 92.49 65.25 92.49C66.88 92.49 68.47 92.67 70 93.01V71.99C70 70.89 70.9 69.99 72 69.99H112.5C113.6 69.99 114.5 70.89 114.5 71.99V109.38C114.5 110.48 113.6 111.38 112.5 111.38H88.96L96.38 123.99H124V62.59C121.26 64.27 118.12 65.18 114.82 65.18H114.68C108.13 65.18 102.4 61.55 99.35 56.18C98.92 56.55 98.47 56.9 98.01 57.23C94.83 62.02 89.44 65.18 83.32 65.18V65.19Z" fill="currentColor" class="penny-illustration-background"/>
<path d="M83.22 101.65C83.22 101.65 83.25 101.68 83.26 101.7L83.28 101.73C84.11 102.87 84.83 104.1 85.43 105.39L86.61 107.39H110.51V74H74.01V94.3C77.7 95.89 80.88 98.44 83.23 101.65H83.22Z" fill="currentColor" class="penny-illustration-background"/>
<path d="M33.5 92.91C39.12 94 44 97.22 47.25 101.69C49.6 98.46 52.79 95.89 56.5 94.29V73.99H33.5V92.91Z" fill="currentColor" class="penny-illustration-background"/>
<path d="M42.5 42.82C42.5 50.36 48.64 56.5 56.18 56.5H56.32C63.86 56.5 70 50.36 70 42.82V38H42.5V42.82Z" fill="currentColor" class="penny-illustration-background"/>
<path d="M70 34V11H52.87L43.48 34H70Z" fill="currentColor" class="penny-illustration-background"/>
<path d="M105.5 42.82C105.5 50.36 111.64 56.5 119.18 56.5H119.32C126.86 56.5 133 50.36 133 42.82V38H105.5V42.82Z" fill="currentColor" class="penny-illustration-background"/>
<path d="M113.82 11H95.45L104.84 34H131.01L113.82 11Z" fill="currentColor" class="penny-illustration-background"/>
<path d="M67.25 103.5H63.25V112.75H54V116.75H63.25V126H67.25V116.75H76.5V112.75H67.25V103.5Z" fill="currentColor" class="penny-illustration-background"/>
<path d="M29.25 96.5C19.19 96.5 11 104.69 11 114.75C11 119.45 12.8 123.73 15.73 126.96C17.52 121.19 22.89 117 29.25 117C35.61 117 40.98 121.19 42.77 126.96C45.7 123.72 47.5 119.45 47.5 114.75C47.5 104.69 39.31 96.5 29.25 96.5ZM29.25 114.42C25.52 114.42 22.5 111.4 22.5 107.67C22.5 103.94 25.52 100.92 29.25 100.92C32.98 100.92 36 103.94 36 107.67C36 111.4 32.98 114.42 29.25 114.42Z" fill="currentColor" class="penny-illustration-background"/>
</svg>
