<svg viewBox="0 0 144 144" fill="none" xmlns="http://www.w3.org/2000/svg">
<path d="M72 9C37.21 9 9 37.21 9 72C9 106.79 37.21 135 72 135C106.79 135 135 106.79 135 72C135 37.21 106.79 9 72 9ZM102.54 95.46L95.47 102.53L72.01 79.07L48.55 102.53L41.48 95.46L64.94 72L41.48 48.54L48.55 41.47L72.01 64.93L95.47 41.47L102.54 48.54L79.08 72L102.54 95.46Z" fill="currentColor" class="penny-illustration-brand-primary"/>
<path d="M95.46 41.46L72 64.93L48.54 41.46L41.46 48.54L64.93 72L41.46 95.46L48.54 102.54L72 79.07L95.46 102.54L102.54 95.46L79.07 72L102.54 48.54L95.46 41.46Z" fill="currentColor" class="penny-illustration-background"/>
</svg>
