 <svg viewBox="0 0 144 144" fill="none" xmlns="http://www.w3.org/2000/svg">
<path d="M136.23 60.9144L132.97 25.4244C132.28 17.8944 126.31 11.9344 118.77 11.2544L83.38 8.06436C78.74 7.64436 74.19 9.29436 70.9 12.5944L61.13 22.3644L64.11 25.0444L73.73 15.4244C75.93 13.2244 78.89 12.0044 81.97 12.0044C82.32 12.0044 82.67 12.0244 83.03 12.0544L118.42 15.2444C124.03 15.7544 128.48 20.1844 128.99 25.7944L132.25 61.2844C132.57 64.7444 131.34 68.1444 128.88 70.6044L70.58 128.894C66.03 133.444 58.63 133.444 54.08 128.894L15.42 90.2244C13.22 88.0244 12 85.0944 12 81.9744C12 81.3344 12.06 80.7044 12.16 80.0944L29.61 87.0844L28.31 80.9944C28.2 80.4844 27.88 80.0444 27.43 79.7844L20.31 75.6744C17.72 74.1744 16.68 70.9844 17.9 68.2444L20.03 63.4544L12.59 70.8944C9.63 73.8544 8 77.7844 8 81.9744C8 86.1644 9.63 90.0944 12.59 93.0544L51.25 131.714C54.3 134.764 58.32 136.294 62.33 136.294C66.34 136.294 70.35 134.764 73.41 131.714L131.71 73.4244C135.01 70.1244 136.66 65.5644 136.23 60.9144Z" fill="currentColor" class="penny-illustration-border"/>
<path d="M110.25 45.0244C113.28 41.9944 113.28 37.0844 110.25 34.0544C107.22 31.0244 102.31 31.0244 99.28 34.0544C96.25 37.0844 96.25 41.9944 99.28 45.0244C102.31 48.0544 107.22 48.0544 110.25 45.0244Z" fill="currentColor" class="penny-illustration-border"/>
<path d="M20.32 75.6744L27.44 79.7844C27.89 80.0444 28.21 80.4844 28.32 80.9944L30.04 89.0444C30.66 91.9744 33.37 93.9344 36.36 93.6344L44.54 92.7744C45.05 92.7144 45.57 92.8844 45.96 93.2344L52.07 98.7344C53.18 99.7344 54.58 100.234 55.97 100.234C57.37 100.234 58.76 99.7344 59.87 98.7344L65.98 93.2344C66.37 92.8844 66.89 92.7144 67.4 92.7744L75.58 93.6344C78.55 93.9444 81.27 91.9744 81.9 89.0444L83.61 80.9944C83.72 80.4844 84.04 80.0444 84.49 79.7844L91.61 75.6744C94.2 74.1744 95.24 70.9844 94.02 68.2444L90.68 60.7244C90.47 60.2544 90.47 59.7044 90.68 59.2344L94.02 51.7244C95.24 48.9844 94.2 45.7944 91.61 44.2944L84.49 40.1844C84.04 39.9244 83.72 39.4844 83.61 38.9744L81.9 30.9244C81.28 27.9944 78.56 26.0244 75.58 26.3344L67.4 27.1944C66.89 27.2544 66.37 27.0844 65.98 26.7344L61.12 22.3644L59.86 21.2344C57.63 19.2344 54.28 19.2344 52.05 21.2344L45.94 26.7344C45.55 27.0844 45.04 27.2544 44.52 27.1944L36.34 26.3344C33.37 26.0344 30.65 27.9944 30.02 30.9244L28.31 38.9744C28.2 39.4844 27.88 39.9244 27.43 40.1844L20.31 44.2944C17.72 45.7944 16.68 48.9844 17.9 51.7244L21.24 59.2344C21.45 59.7044 21.45 60.2544 21.24 60.7244L17.9 68.2344C16.68 70.9744 17.72 74.1644 20.31 75.6644L20.32 75.6744ZM66.48 75.7544C63.58 75.7544 61.22 73.4044 61.22 70.4944C61.22 67.5844 63.57 65.2344 66.48 65.2344C69.39 65.2344 71.74 67.5844 71.74 70.4944C71.74 73.4044 69.39 75.7544 66.48 75.7544ZM67.95 45.3544C68.73 44.5744 70 44.5744 70.78 45.3544C71.56 46.1344 71.56 47.4044 70.78 48.1844L44.36 74.6044C43.97 74.9944 43.46 75.1944 42.95 75.1944C42.44 75.1944 41.93 74.9944 41.54 74.6044C40.76 73.8244 40.76 72.5544 41.54 71.7744L67.96 45.3544H67.95ZM45.45 44.2044C48.35 44.2044 50.71 46.5544 50.71 49.4644C50.71 52.3744 48.36 54.7244 45.45 54.7244C42.54 54.7244 40.19 52.3744 40.19 49.4644C40.19 46.5544 42.54 44.2044 45.45 44.2044Z" fill="currentColor" class="penny-illustration-brand-primary"/>
<path d="M67.4 27.1944L75.58 26.3344C78.56 26.0244 81.27 27.9944 81.9 30.9244L83.61 38.9744C83.72 39.4844 84.04 39.9244 84.49 40.1844L91.61 44.2944C94.2 45.7944 95.24 48.9844 94.02 51.7244L90.68 59.2344C90.47 59.7044 90.47 60.2544 90.68 60.7244L94.02 68.2444C95.24 70.9844 94.2 74.1744 91.61 75.6744L84.49 79.7844C84.04 80.0444 83.72 80.4844 83.61 80.9944L81.9 89.0444C81.28 91.9744 78.55 93.9444 75.58 93.6344L67.4 92.7744C66.89 92.7144 66.37 92.8844 65.98 93.2344L59.87 98.7344C58.76 99.7344 57.36 100.234 55.97 100.234C54.57 100.234 53.18 99.7344 52.07 98.7344L45.96 93.2344C45.57 92.8844 45.05 92.7144 44.54 92.7744L36.36 93.6344C33.38 93.9344 30.67 91.9744 30.04 89.0444L29.62 87.0844L12.17 80.0944C12.07 80.7144 12.01 81.3444 12.01 81.9744C12.01 85.0944 13.22 88.0244 15.43 90.2244L54.09 128.884C58.64 133.434 66.04 133.434 70.59 128.884L128.89 70.5944C131.35 68.1344 132.58 64.7444 132.26 61.2744L129 25.7844C128.48 20.1744 124.04 15.7344 118.43 15.2344L83.04 12.0444C82.69 12.0144 82.33 11.9944 81.98 11.9944C78.9 11.9944 75.94 13.2144 73.74 15.4144L64.12 25.0344L66 26.7244C66.39 27.0744 66.91 27.2444 67.42 27.1844L67.4 27.1944ZM99.28 34.0544C102.31 31.0244 107.22 31.0244 110.25 34.0544C113.28 37.0844 113.28 41.9944 110.25 45.0244C107.22 48.0544 102.31 48.0544 99.28 45.0244C96.25 41.9944 96.25 37.0844 99.28 34.0544Z" fill="currentColor" class="penny-illustration-background"/>
<path d="M41.53 74.6044C41.92 74.9944 42.43 75.1944 42.94 75.1944C43.45 75.1944 43.96 74.9944 44.35 74.6044L70.77 48.1844C71.55 47.4044 71.55 46.1344 70.77 45.3544C69.99 44.5744 68.72 44.5744 67.94 45.3544L41.52 71.7744C40.74 72.5544 40.74 73.8244 41.52 74.6044H41.53Z" fill="currentColor" class="penny-illustration-background"/>
<path d="M46.2919 54.6503C49.1594 54.1848 51.1066 51.483 50.6412 48.6155C50.1757 45.748 47.4738 43.8008 44.6063 44.2662C41.7389 44.7317 39.7916 47.4336 40.2571 50.301C40.7225 53.1685 43.4244 55.1158 46.2919 54.6503Z" fill="currentColor" class="penny-illustration-background"/>
<path d="M67.6891 75.6192C70.5164 74.9519 72.2674 72.1189 71.6001 69.2916C70.9328 66.4643 68.0998 64.7132 65.2725 65.3805C62.4452 66.0479 60.6941 68.8808 61.3614 71.7082C62.0288 74.5355 64.8617 76.2865 67.6891 75.6192Z" fill="currentColor" class="penny-illustration-background"/>
</svg>
