<svg viewBox="0 0 144 144" fill="none" xmlns="http://www.w3.org/2000/svg">
<path d="M22.78 64.59C22.72 64.5 22.67 64.4 22.63 64.31C22.61 64.27 22.61 64.23 22.59 64.19C22.56 64.11 22.53 64.02 22.51 63.93C22.51 63.9 22.51 63.88 22.51 63.85C22.49 63.75 22.48 63.65 22.48 63.55C22.48 63.46 22.49 63.37 22.51 63.28C22.51 63.24 22.51 63.21 22.52 63.17C22.53 63.1 22.56 63.04 22.58 62.97C22.6 62.91 22.61 62.85 22.63 62.8C22.66 62.74 22.69 62.68 22.73 62.62C22.76 62.57 22.78 62.51 22.82 62.46C22.89 62.35 22.98 62.25 23.07 62.15L62.13 23.07C62.23 22.97 62.33 22.89 62.44 22.82C62.47 22.8 62.51 22.79 62.54 22.77C62.62 22.72 62.7 22.68 62.78 22.64C62.82 22.62 62.87 22.61 62.91 22.6C62.99 22.57 63.06 22.55 63.14 22.53C63.19 22.53 63.23 22.52 63.28 22.51C63.36 22.5 63.44 22.49 63.52 22.49C63.57 22.49 63.61 22.49 63.66 22.49C63.74 22.49 63.82 22.49 63.9 22.51C63.95 22.51 63.99 22.53 64.03 22.54C64.11 22.56 64.19 22.58 64.26 22.61C64.3 22.63 64.35 22.65 64.39 22.67C64.46 22.7 64.53 22.74 64.6 22.78C64.64 22.81 64.68 22.84 64.72 22.87C64.77 22.91 64.82 22.93 64.86 22.97C64.88 22.99 64.89 23 64.91 23.02C64.92 23.03 64.94 23.04 64.95 23.05L53.02 11.12C47.34 5.43997 37.91 5.62997 32 11.54L11.56 32.01C5.64999 37.92 5.45999 47.35 11.14 53.03L23.06 64.95C22.97 64.86 22.89 64.76 22.81 64.65C22.8 64.63 22.79 64.61 22.78 64.59Z" fill="currentColor" class="penny-illustration-brand-primary"/>
<path d="M136.59 127.73L130.19 109.59L120.67 79.92L120.35 78.81C120.26 78.48 120.08 78.19 119.84 77.95L64.97 23.08C64.97 23.08 64.95 23.05 64.93 23.04C64.91 23.02 64.9 23.01 64.88 22.99C64.83 22.95 64.78 22.92 64.74 22.89C64.7 22.86 64.66 22.83 64.62 22.8C64.55 22.76 64.48 22.72 64.41 22.69C64.37 22.67 64.32 22.65 64.28 22.63C64.2 22.6 64.13 22.58 64.05 22.56C64 22.55 63.96 22.53 63.92 22.53C63.84 22.52 63.76 22.51 63.68 22.51C63.63 22.51 63.59 22.51 63.54 22.51C63.46 22.51 63.38 22.52 63.3 22.53C63.25 22.53 63.21 22.53 63.16 22.55C63.08 22.57 63 22.59 62.93 22.62C62.89 22.63 62.84 22.64 62.8 22.66C62.72 22.69 62.64 22.74 62.56 22.79C62.53 22.81 62.49 22.82 62.46 22.84C62.35 22.91 62.25 23 62.15 23.09L23.07 62.13C22.98 62.23 22.89 62.33 22.82 62.44C22.79 62.49 22.76 62.55 22.73 62.6C22.7 62.66 22.66 62.72 22.63 62.78C22.61 62.84 22.59 62.9 22.58 62.95C22.56 63.02 22.53 63.08 22.52 63.15C22.52 63.19 22.52 63.22 22.51 63.26C22.5 63.35 22.48 63.44 22.48 63.53C22.48 63.63 22.49 63.73 22.51 63.83C22.51 63.86 22.51 63.88 22.51 63.91C22.53 64 22.56 64.08 22.59 64.17C22.6 64.21 22.61 64.25 22.63 64.29C22.67 64.39 22.72 64.48 22.78 64.57C22.79 64.59 22.8 64.61 22.81 64.63C22.88 64.74 22.96 64.84 23.06 64.93C23.06 64.93 23.06 64.93 23.06 64.94L77.93 119.81C78.17 120.05 78.46 120.22 78.79 120.32L79.9 120.64L109.61 130.17L127.72 136.56C128.49 136.83 129.28 136.96 130.05 136.96C131.85 136.96 133.6 136.25 134.94 134.92C136.85 133.01 137.48 130.25 136.58 127.7L136.59 127.73ZM31.69 67.93L63.72 27.48L116.33 80.09L80.09 116.33L31.69 67.93ZM109.68 126.01L84.23 117.84L117.84 84.23L126.01 109.68L109.68 126.01Z" fill="currentColor" class="penny-illustration-border"/>
<path d="M84.2299 117.85L109.68 126.01L126.01 109.68L117.85 84.23L84.2299 117.85Z" fill="currentColor" class="penny-illustration-background"/>
<path d="M63.7199 27.48L31.6899 67.93L80.0899 116.33L116.33 80.09L63.7199 27.48Z" fill="currentColor" class="penny-illustration-background"/>
</svg>
