 <svg viewBox="0 0 144 144" fill="none" xmlns="http://www.w3.org/2000/svg">
<path d="M96.24 84.515C95.88 83.895 95.22 83.505 94.5 83.505H55.51L46.92 53.445C46.7 52.685 46.06 52.125 45.28 52.015L13.78 47.535C13.2 47.455 12.63 47.625 12.19 48.005C11.75 48.385 11.5 48.935 11.5 49.515V134.945C11.5 136.045 12.4 136.945 13.5 136.945H112.5C113.6 136.945 114.5 136.045 114.5 134.945V116.995C114.5 116.645 114.41 116.305 114.24 116.005L96.24 84.525V84.515ZM110.5 132.935H15.5V51.805L43.43 55.785L52.07 86.055C52.32 86.915 53.1 87.505 53.99 87.505H93.33L110.49 117.525V132.945L110.5 132.935Z" fill="currentColor" class="penny-illustration-border"/>
<path d="M99.46 62.205L119.5 76.505V100.485L105.24 75.525C104.88 74.905 104.22 74.515 103.5 74.515H64.51L55.92 44.465C55.7 43.705 55.06 43.145 54.28 43.035L24.5 38.785V11.055H119.5V22.525C120.92 23.175 122.26 23.965 123.5 24.895V9.05499C123.5 7.95499 122.6 7.05499 121.5 7.05499H22.5C21.4 7.05499 20.5 7.95499 20.5 9.05499V40.505C20.5 41.505 21.23 42.345 22.22 42.485L52.44 46.805L61.08 77.055C61.33 77.915 62.11 78.505 63 78.505H102.34L119.76 108.995C120.12 109.625 120.79 110.005 121.5 110.005C121.67 110.005 121.84 109.985 122.01 109.935C122.89 109.705 123.5 108.905 123.5 108.005V60.615C119.8 63.365 115.21 65.005 110.25 65.005C106.34 65.005 102.66 63.985 99.46 62.205Z" fill="currentColor" class="penny-illustration-border"/>
<path d="M123.5 24.895C122.26 23.975 120.92 23.185 119.5 22.525C116.68 21.235 113.55 20.505 110.25 20.505C97.98 20.505 88 30.485 88 42.755C88 51.105 92.63 58.395 99.46 62.205C102.66 63.985 106.34 65.005 110.25 65.005C115.21 65.005 119.8 63.375 123.5 60.615C128.96 56.555 132.5 50.065 132.5 42.755C132.5 35.445 128.96 28.955 123.5 24.895ZM108.25 31.505H112.25V46.935H108.25V31.505ZM110.25 54.945C108.74 54.945 107.51 53.715 107.51 52.205C107.51 50.695 108.74 49.465 110.25 49.465C111.76 49.465 112.99 50.695 112.99 52.205C112.99 53.715 111.76 54.945 110.25 54.945Z" fill="currentColor" class="penny-illustration-brand-primary"/>
<path d="M54 87.505C53.11 87.505 52.32 86.915 52.08 86.055L43.44 55.785L15.51 51.805V132.935H110.51V117.515L93.35 87.495H54.01L54 87.505Z" fill="currentColor" class="penny-illustration-background"/>
<path d="M24.5 11.055V38.765L54.28 43.015C55.06 43.125 55.7 43.685 55.92 44.445L64.51 74.495H103.5C104.22 74.495 104.88 74.875 105.24 75.505L119.5 100.465V76.485L99.46 62.185C92.63 58.385 88 51.095 88 42.735C88 30.465 97.98 20.485 110.25 20.485C113.55 20.485 116.68 21.215 119.5 22.505V11.055H24.5Z" fill="currentColor" class="penny-illustration-background"/>
<path d="M112.25 31.505H108.25V46.935H112.25V31.505Z" fill="currentColor" class="penny-illustration-background"/>
<path d="M110.25 49.475C108.74 49.475 107.51 50.705 107.51 52.215C107.51 53.725 108.74 54.955 110.25 54.955C111.76 54.955 112.99 53.725 112.99 52.215C112.99 50.705 111.76 49.475 110.25 49.475Z" fill="currentColor" class="penny-illustration-background"/>
</svg>
