 <svg viewBox="0 0 144 144" fill="none" xmlns="http://www.w3.org/2000/svg">
<path d="M86.3402 13.8434L88.0402 8.14345C88.4102 6.91345 88.1802 5.62345 87.4102 4.59345C86.6402 3.56345 85.4702 2.97345 84.1902 2.97345H58.5902C57.3102 2.97345 56.1302 3.56345 55.3702 4.59345C55.2802 4.71345 55.2202 4.85345 55.1402 4.98345C55.1002 5.04345 55.0602 5.10345 55.0202 5.16345C55.0102 5.18345 55.0002 5.21345 54.9902 5.24345C54.9102 5.39345 54.8602 5.55345 54.8002 5.71345C54.7602 5.82345 54.7302 5.93345 54.7002 6.04345C54.6602 6.19345 54.6302 6.34345 54.6102 6.50345C54.5902 6.65345 54.5902 6.79345 54.5802 6.94345C54.5802 7.07345 54.5802 7.19345 54.5802 7.31345C54.6002 7.59345 54.6502 7.87345 54.7302 8.14345L56.4302 13.8434C49.8602 15.5234 43.7202 18.2835 38.2002 21.9135L35.1602 18.8734C34.4002 18.1134 33.3902 17.6934 32.3202 17.6934C31.2502 17.6934 30.2402 18.1134 29.4802 18.8734L17.2702 31.0835C16.5102 31.8435 16.0902 32.8535 16.0902 33.9235C16.0902 34.9935 16.5102 36.0035 17.2702 36.7635L20.4202 39.9134C14.3902 49.3234 10.8802 60.4834 10.8802 72.4634C10.8802 79.8335 12.2102 86.8934 14.6302 93.4334C15.7002 92.5634 16.8502 91.7935 18.0602 91.1335C16.0102 85.2835 14.8702 79.0034 14.8702 72.4634C14.8702 41.3134 40.2202 15.9634 71.3702 15.9634C102.52 15.9634 127.87 41.3134 127.87 72.4634C127.87 103.613 102.52 128.963 71.3702 128.963C66.5902 128.963 61.9402 128.363 57.5002 127.233L52.8002 113.093C58.4602 115.693 64.7502 117.153 71.3702 117.153C96.0102 117.153 116.06 97.1034 116.06 72.4634C116.06 47.8234 96.0102 27.7734 71.3702 27.7734C46.7302 27.7734 26.6802 47.8234 26.6802 72.4634C26.6802 78.1134 27.7402 83.5134 29.6602 88.4934C31.2502 88.5634 32.8002 88.8135 34.2902 89.2035C31.9702 84.0935 30.6702 78.4334 30.6702 72.4634C30.6702 50.0234 48.9202 31.7734 71.3602 31.7734C93.8002 31.7734 112.05 50.0234 112.05 72.4634C112.05 94.9035 93.8002 113.153 71.3602 113.153C63.9402 113.153 56.9802 111.143 50.9802 107.663L50.1702 105.223C50.6202 106.983 50.8602 108.823 50.8602 110.723C50.8602 116.903 48.3302 122.493 44.2502 126.533C47.6902 128.263 51.3102 129.673 55.0802 130.733C55.1402 130.753 55.2002 130.773 55.2602 130.803C55.3902 130.853 55.5202 130.883 55.6502 130.903C60.6602 132.253 65.9302 132.983 71.3702 132.983C104.73 132.983 131.87 105.843 131.87 72.4835C131.87 44.2835 112.47 20.5234 86.3102 13.8534L86.3402 13.8434ZM82.4202 12.9935C79.0101 12.3635 75.5102 12.0134 71.9402 11.9834C68.5102 10.7634 65.1102 8.93345 61.9102 6.97345L84.2102 6.99345L82.4202 12.9935Z" fill="currentColor" class="penny-illustration-border"/>
<path d="M66.0602 72.4734C66.0602 75.4234 68.4502 77.8134 71.4002 77.8134C72.4302 77.8134 73.3902 77.5034 74.2102 77.0034L98.2502 94.5734L100.61 91.3435L76.5702 73.7635C76.6802 73.3435 76.7502 72.9134 76.7502 72.4634C76.7502 69.7034 74.6502 67.4534 71.9602 67.1734L66.8002 49.3234L62.9602 50.4334L68.1102 68.2735C66.8702 69.2535 66.0602 70.7535 66.0602 72.4535V72.4734Z" fill="currentColor" class="penny-illustration-border"/>
<path d="M49.2002 102.213C49.2002 102.213 49.2202 102.263 49.2302 102.283L49.2102 102.233C49.2102 102.233 49.2102 102.223 49.2002 102.213Z" fill="currentColor" class="penny-illustration-border"/>
<path d="M50.2102 105.223C49.9502 104.213 49.6202 103.233 49.2302 102.283C49.2302 102.263 49.2102 102.233 49.2002 102.213C46.5602 95.8634 41.0602 90.9934 34.3202 89.2134C32.8302 88.8234 31.2802 88.5734 29.6902 88.5034C29.3402 88.4835 29.0002 88.4734 28.6502 88.4734C24.8302 88.4734 21.2302 89.4435 18.0902 91.1434C16.8702 91.8035 15.7302 92.5734 14.6602 93.4435C9.63016 97.5235 6.41016 103.753 6.41016 110.723C6.41016 122.993 16.3902 132.973 28.6602 132.973C34.7502 132.973 40.2802 130.513 44.3002 126.533C48.3802 122.493 50.9102 116.903 50.9102 110.723C50.9102 108.823 50.6702 106.983 50.2202 105.223H50.2102ZM26.6502 98.5334H30.6502V114.903H26.6502V98.5334ZM28.6502 122.913C27.1402 122.913 25.9102 121.683 25.9102 120.173C25.9102 118.663 27.1402 117.433 28.6502 117.433C30.1602 117.433 31.3902 118.663 31.3902 120.173C31.3902 121.683 30.1602 122.913 28.6502 122.913Z" fill="currentColor" class="penny-illustration-brand-primary"/>
<path d="M71.9401 11.9834C75.5201 12.0135 79.0201 12.3635 82.4201 12.9935L84.2101 6.99345L61.9101 6.97345C65.1101 8.93345 68.5101 10.7634 71.9401 11.9834Z" fill="currentColor" class="penny-illustration-background"/>
<path d="M29.6901 88.5034C27.7701 83.5234 26.7101 78.1235 26.7101 72.4734C26.7101 47.8335 46.7601 27.7834 71.4001 27.7834C96.0401 27.7834 116.09 47.8335 116.09 72.4734C116.09 97.1134 96.0401 117.163 71.4001 117.163C64.7801 117.163 58.4901 115.703 52.8301 113.103L57.5301 127.243C61.9701 128.363 66.6101 128.973 71.4001 128.973C102.55 128.973 127.9 103.623 127.9 72.4734C127.9 41.3234 102.55 15.9734 71.4001 15.9734C40.2501 15.9734 14.9001 41.3234 14.9001 72.4734C14.9001 79.0135 16.0301 85.2934 18.0901 91.1434C21.2301 89.4435 24.8301 88.4734 28.6501 88.4734C29.0001 88.4734 29.3501 88.4835 29.6901 88.5034Z" fill="currentColor" class="penny-illustration-background"/>
<path d="M49.2001 102.213C49.2001 102.213 49.2001 102.223 49.2101 102.233L49.2301 102.283C49.6201 103.233 49.9501 104.213 50.2101 105.223L51.0201 107.663C57.0201 111.153 63.9701 113.153 71.4001 113.153C93.8401 113.153 112.09 94.9035 112.09 72.4634C112.09 50.0234 93.8401 31.7734 71.4001 31.7734C48.9601 31.7734 30.7101 50.0234 30.7101 72.4634C30.7101 78.4234 32.0101 84.0935 34.3301 89.2035C41.0701 90.9835 46.5701 95.8535 49.2101 102.203L49.2001 102.213ZM66.8001 49.3434L71.9601 67.1935C74.6501 67.4734 76.7501 69.7235 76.7501 72.4835C76.7501 72.9334 76.6801 73.3634 76.5701 73.7834L100.61 91.3634L98.2501 94.5935L74.2101 77.0235C73.3901 77.5335 72.4401 77.8335 71.4001 77.8335C68.4501 77.8335 66.0601 75.4434 66.0601 72.4934C66.0601 70.7934 66.8701 69.2934 68.1101 68.3134L62.9601 50.4734L66.8001 49.3634V49.3434Z" fill="currentColor" class="penny-illustration-background"/>
<path d="M30.6501 98.5334H26.6501V114.903H30.6501V98.5334Z" fill="currentColor" class="penny-illustration-background"/>
<path d="M28.6501 117.443C27.1401 117.443 25.9101 118.673 25.9101 120.183C25.9101 121.693 27.1401 122.923 28.6501 122.923C30.1601 122.923 31.3901 121.693 31.3901 120.183C31.3901 118.673 30.1601 117.443 28.6501 117.443Z" fill="currentColor" class="penny-illustration-background"/>
</svg>
