 <svg viewBox="0 0 144 144" fill="none" xmlns="http://www.w3.org/2000/svg">
<path d="M46.33 25.74C41.31 25.74 37.23 29.82 37.23 34.84H41.23C41.23 32.03 43.52 29.74 46.33 29.74C49.14 29.74 51.43 32.03 51.43 34.84C51.43 37.65 49.14 39.94 46.33 39.94C45.23 39.94 44.33 40.84 44.33 41.94V47.98H48.33V43.72C52.39 42.81 55.43 39.17 55.43 34.84C55.43 29.82 51.35 25.74 46.33 25.74Z" fill="currentColor" class="penny-illustration-border"/>
<path d="M46.33 50.31C44.53 50.31 43.08 51.77 43.08 53.56C43.08 55.35 44.54 56.81 46.33 56.81C48.12 56.81 49.58 55.35 49.58 53.56C49.58 51.77 48.12 50.31 46.33 50.31Z" fill="currentColor" class="penny-illustration-border"/>
<path d="M60.73 59.74C60.82 59.61 60.92 59.48 61.02 59.35C60.99 59.39 60.95 59.42 60.92 59.46L60.73 59.74Z" fill="currentColor" class="penny-illustration-border"/>
<path d="M60.68 59.81L52.71 71.52H46.33C45.92 71.52 45.52 71.64 45.19 71.88L27 84.51V73.52C27 72.42 26.1 71.52 25 71.52H20.85C15.42 71.52 11 67.1 11 61.67V20.85C11 15.42 15.42 11 20.85 11H71.81C77.24 11 81.66 15.42 81.66 20.85V53.66H85.66V20.85C85.66 13.21 79.45 7 71.81 7H20.85C13.21 7 7 13.21 7 20.85V61.66C7 69.3 13.21 75.51 20.85 75.51H23V88.32C23 89.06 23.41 89.75 24.07 90.09C24.36 90.24 24.68 90.32 25 90.32C25.4 90.32 25.8 90.2 26.14 89.96L46.96 75.5H58.33V67.5C58.33 64.65 59.2 62 60.68 59.79V59.81Z" fill="currentColor" class="penny-illustration-border"/>
<path d="M123.15 53.67H72.19C67.61 53.67 63.55 55.92 61.02 59.36C60.92 59.49 60.82 59.61 60.73 59.75C60.71 59.77 60.7 59.8 60.68 59.82C59.2 62.02 58.33 64.68 58.33 67.53V108.34C58.33 115.98 64.54 122.19 72.18 122.19H97.04L117.86 136.65C118.2 136.89 118.6 137.01 119 137.01C119.32 137.01 119.64 136.93 119.93 136.78C120.59 136.43 121 135.75 121 135.01V122.2H123.15C130.79 122.2 137 115.99 137 108.35V67.54C137 59.9 130.79 53.69 123.15 53.69V53.67ZM80.33 93.13C77.68 93.13 75.53 90.98 75.53 88.33C75.53 85.68 77.68 83.53 80.33 83.53C82.98 83.53 85.13 85.68 85.13 88.33C85.13 90.98 82.98 93.13 80.33 93.13ZM97.67 93.13C95.02 93.13 92.87 90.98 92.87 88.33C92.87 85.68 95.02 83.53 97.67 83.53C100.32 83.53 102.47 85.68 102.47 88.33C102.47 90.98 100.32 93.13 97.67 93.13ZM115 93.13C112.35 93.13 110.2 90.98 110.2 88.33C110.2 85.68 112.35 83.53 115 83.53C117.65 83.53 119.8 85.68 119.8 88.33C119.8 90.98 117.65 93.13 115 93.13Z" fill="currentColor" class="penny-illustration-brand-primary"/>
<path d="M20.85 11C15.42 11 11 15.42 11 20.85V61.66C11 67.09 15.42 71.51 20.85 71.51H25C26.1 71.51 27 72.41 27 73.51V84.5L45.19 71.87C45.52 71.64 45.92 71.51 46.33 71.51H52.71L60.68 59.8C60.68 59.8 60.71 59.75 60.73 59.73L60.92 59.45C60.92 59.45 60.99 59.38 61.02 59.34C63.54 55.9 67.6 53.65 72.19 53.65H81.67V20.85C81.67 15.42 77.25 11 71.82 11H20.85ZM46.33 56.81C44.53 56.81 43.08 55.35 43.08 53.56C43.08 51.77 44.54 50.31 46.33 50.31C48.12 50.31 49.58 51.77 49.58 53.56C49.58 55.35 48.12 56.81 46.33 56.81ZM48.33 43.72V47.98H44.33V41.94C44.33 40.84 45.23 39.94 46.33 39.94C49.14 39.94 51.43 37.65 51.43 34.84C51.43 32.03 49.14 29.74 46.33 29.74C43.52 29.74 41.23 32.03 41.23 34.84H37.23C37.23 29.82 41.31 25.74 46.33 25.74C51.35 25.74 55.43 29.82 55.43 34.84C55.43 39.17 52.39 42.8 48.33 43.72Z" fill="currentColor" class="penny-illustration-background"/>
<path d="M101.056 91.7197C102.931 89.8452 102.931 86.806 101.056 84.9315C99.182 83.057 96.1428 83.057 94.2683 84.9315C92.3937 86.806 92.3937 89.8452 94.2683 91.7197C96.1428 93.5943 99.182 93.5943 101.056 91.7197Z" fill="currentColor" class="penny-illustration-background"/>
<path d="M81.434 93.0022C84.0141 92.3932 85.612 89.808 85.003 87.2279C84.3941 84.6478 81.8089 83.0499 79.2288 83.6589C76.6487 84.2678 75.0508 86.8531 75.6598 89.4331C76.2687 92.0132 78.8539 93.6111 81.434 93.0022Z" fill="currentColor" class="penny-illustration-background"/>
<path d="M115 93.13C117.651 93.13 119.8 90.981 119.8 88.33C119.8 85.679 117.651 83.53 115 83.53C112.349 83.53 110.2 85.679 110.2 88.33C110.2 90.981 112.349 93.13 115 93.13Z" fill="currentColor" class="penny-illustration-background"/>
</svg>
