<svg viewBox="0 0 144 144" fill="none" xmlns="http://www.w3.org/2000/svg">
<path d="M106.37 84.3872L75.21 106.267C75.21 106.267 75.2 106.267 75.19 106.267C75.04 106.367 74.87 106.447 74.7 106.507C74.66 106.517 74.62 106.527 74.58 106.537C74.41 106.587 74.23 106.617 74.05 106.617C73.91 106.617 73.78 106.597 73.64 106.577C73.6 106.577 73.56 106.557 73.52 106.537C73.43 106.517 73.34 106.487 73.25 106.447C73.2 106.427 73.16 106.397 73.11 106.377C73.04 106.337 72.96 106.297 72.89 106.247C72.84 106.207 72.79 106.167 72.75 106.127C72.71 106.097 72.67 106.067 72.63 106.027L87.77 121.167C89.09 122.487 90.85 123.217 92.72 123.217C94.59 123.217 96.35 122.487 97.67 121.167C99.54 119.297 100.19 116.577 99.38 114.057L98.52 111.417C97.67 108.787 98.05 105.957 99.58 103.657L102.58 99.1072C105.79 94.2472 107.35 88.5172 107.19 82.7872C107.17 83.4172 106.87 84.0072 106.35 84.3672L106.37 84.3872Z" fill="currentColor" class="penny-illustration-brand-primary"/>
<path d="M106.2 76.1272C106.14 75.9172 106.08 75.7172 106.02 75.5072C106.08 75.7172 106.15 75.9272 106.21 76.1272H106.2Z" fill="currentColor" class="penny-illustration-brand-primary"/>
<path d="M37.75 68.3172L68.29 37.7772C60.35 35.3672 51.62 36.6072 44.67 41.1972L40.12 44.1972C37.81 45.7172 34.98 46.1072 32.36 45.2572L29.72 44.3972C27.21 43.5872 24.48 44.2372 22.61 46.1072C21.29 47.4272 20.56 49.1872 20.56 51.0572C20.56 52.9272 21.29 54.6872 22.61 56.0072L37.75 71.1472C36.97 70.3672 36.97 69.0972 37.75 68.3172Z" fill="currentColor" class="penny-illustration-brand-primary"/>
<path d="M133.09 10.7072C130.89 8.50723 127.75 7.56723 124.69 8.18723L104.98 12.2472C95.79 14.1372 87.42 18.6472 80.79 25.2772L68.29 37.7772L37.75 68.3172C36.97 69.0972 36.97 70.3672 37.75 71.1472L50.25 83.6472C50.46 82.1972 50.96 80.7872 51.76 79.5072L41.98 69.7272L83.61 28.0972C89.69 22.0172 97.35 17.8872 105.78 16.1572L125.49 12.0972C127.22 11.7372 129 12.2772 130.25 13.5272C131.5 14.7772 132.03 16.5572 131.68 18.2872L127.63 37.9972C125.9 46.4172 121.77 54.0872 115.69 60.1672L74.06 101.797L66.35 94.0872C65.1 94.8772 63.69 95.3972 62.21 95.6072L72.65 106.047C72.65 106.047 72.73 106.107 72.77 106.147C72.82 106.187 72.86 106.227 72.91 106.267C72.98 106.317 73.05 106.357 73.13 106.397C73.18 106.427 73.22 106.447 73.27 106.467C73.36 106.507 73.45 106.527 73.54 106.557C73.58 106.567 73.62 106.587 73.66 106.597C73.79 106.627 73.93 106.637 74.07 106.637C74.25 106.637 74.42 106.607 74.6 106.557C74.64 106.547 74.68 106.537 74.72 106.527C74.89 106.467 75.05 106.397 75.21 106.287C75.21 106.287 75.22 106.287 75.23 106.287L106.39 84.4072C106.91 84.0472 107.21 83.4572 107.23 82.8272C107.23 82.7872 107.24 82.7472 107.24 82.7072C107.24 82.6172 107.22 82.5272 107.22 82.4472C107.19 81.8372 107.15 81.2372 107.09 80.6272C107.07 80.4872 107.05 80.3572 107.03 80.2172C106.97 79.7072 106.89 79.2072 106.8 78.7072C106.76 78.4972 106.72 78.2772 106.67 78.0672C106.58 77.6172 106.48 77.1772 106.36 76.7372C106.31 76.5472 106.26 76.3472 106.21 76.1572C106.15 75.9472 106.08 75.7472 106.02 75.5472L118.52 63.0372C125.15 56.4072 129.66 48.0372 131.55 38.8472L135.6 19.1372C136.23 16.0872 135.29 12.9472 133.08 10.7372L133.09 10.7072Z" fill="currentColor" class="penny-illustration-border"/>
<path d="M102.79 52.3172C105.81 52.3172 108.66 51.1372 110.79 48.9972C112.93 46.8572 114.11 44.0172 114.11 40.9972C114.11 37.9772 112.93 35.1272 110.79 32.9972C108.65 30.8572 105.81 29.6772 102.79 29.6772C99.77 29.6772 96.92 30.8572 94.79 32.9972C90.38 37.4072 90.38 44.5872 94.79 49.0072C96.93 51.1472 99.77 52.3272 102.79 52.3272V52.3172Z" fill="currentColor" class="penny-illustration-border"/>
<path d="M68.19 92.6272L83.53 77.2872C85.94 74.8772 87.83 71.9172 89 68.7172L90.43 64.7972C91.4 62.1372 90.74 59.1272 88.73 57.1272C86.73 55.1272 83.72 54.4572 81.06 55.4272L77.14 56.8572C73.94 58.0272 70.98 59.9172 68.57 62.3272L53.23 77.6672C52.66 78.2372 52.18 78.8572 51.77 79.5072C50.96 80.7872 50.46 82.1972 50.26 83.6472C49.81 86.8272 50.79 90.1772 53.24 92.6172C55.24 94.6172 57.89 95.7172 60.72 95.7172C61.23 95.7172 61.73 95.6672 62.22 95.5972C63.7 95.3872 65.1 94.8772 66.36 94.0772C67.02 93.6572 67.64 93.1772 68.2 92.6172L68.19 92.6272Z" fill="currentColor" class="penny-illustration-brand-primary"/>
<path d="M50.9109 97.2889L40.2478 107.952L43.0762 110.781L53.7394 100.117L50.9109 97.2889Z" fill="currentColor" class="penny-illustration-border"/>
<path d="M68.09 111.117C67.03 110.797 65.94 110.597 64.84 110.497L68.64 106.697L65.81 103.867L47.17 122.507C44.84 117.357 40.39 113.207 34.56 111.477C31.36 110.527 27.99 110.397 24.74 111.067C22.71 108.217 19.82 106.137 16.42 105.127C13.67 104.307 10.76 104.257 8 104.967L9 108.837C11.06 108.307 13.23 108.347 15.28 108.957C18.3 109.857 20.78 111.867 22.28 114.637C23.78 117.407 24.11 120.587 23.22 123.607L27.05 124.747C28.03 121.437 27.89 117.977 26.71 114.797C28.95 114.507 31.24 114.677 33.42 115.327C41.97 117.867 46.86 126.897 44.32 135.447L48.15 136.587C49.13 133.287 49.22 129.937 48.56 126.777L60.54 114.797C62.64 114.307 64.84 114.357 66.93 114.977C70.12 115.927 72.76 118.057 74.34 120.987C75.92 123.917 76.28 127.287 75.33 130.477L79.16 131.617C80.41 127.397 79.95 122.947 77.85 119.077C75.75 115.207 72.28 112.387 68.06 111.137L68.09 111.117Z" fill="currentColor" class="penny-illustration-border"/>
<path d="M26.53 81.1072C30.7 83.3672 33.75 87.1172 35.1 91.6772C36.02 94.7672 36.08 98.0472 35.28 101.157L39.15 102.157C40.13 98.3472 40.05 94.3372 38.93 90.5472C37.93 87.1672 36.15 84.1572 33.78 81.6872L38.24 77.2272L35.41 74.3972L30.74 79.0672C30 78.5372 29.24 78.0372 28.43 77.5972C23.32 74.8272 17.43 74.2072 11.85 75.8672L12.99 79.6972C17.54 78.3472 22.35 78.8472 26.52 81.1072H26.53Z" fill="currentColor" class="penny-illustration-border"/>
<path d="M68.57 62.3274C70.98 59.9174 73.94 58.0274 77.14 56.8574L81.06 55.4274C83.72 54.4574 86.73 55.1174 88.73 57.1274C90.73 59.1274 91.4 62.1374 90.43 64.7974L89 68.7174C87.83 71.9174 85.94 74.8774 83.53 77.2874L68.19 92.6274C67.63 93.1874 67.01 93.6774 66.35 94.0874L74.06 101.797L115.69 60.1674C121.77 54.0874 125.9 46.4174 127.63 37.9974L131.68 18.2874C132.04 16.5574 131.5 14.7774 130.25 13.5274C129 12.2774 127.22 11.7474 125.49 12.0974L105.78 16.1574C97.36 17.8874 89.69 22.0174 83.61 28.0974L41.98 69.7274L51.76 79.5074C52.17 78.8574 52.65 78.2374 53.22 77.6674L68.56 62.3274H68.57ZM94.79 32.9974C96.93 30.8574 99.77 29.6774 102.79 29.6774C105.81 29.6774 108.66 30.8574 110.79 32.9974C112.93 35.1374 114.11 37.9774 114.11 40.9974C114.11 44.0174 112.93 46.8674 110.79 48.9974C108.65 51.1374 105.81 52.3174 102.79 52.3174C99.77 52.3174 96.92 51.1374 94.79 48.9974C90.38 44.5874 90.38 37.4074 94.79 32.9874V32.9974Z" fill="currentColor" class="penny-illustration-background"/>
</svg>
