<svg viewBox="0 0 144 144" fill="none" xmlns="http://www.w3.org/2000/svg">
<path d="M53.21 123.39C53.21 130.35 58.85 135.99 65.81 135.99H78.41C85.37 135.99 91.01 130.35 91.01 123.39V119.09H89.71L53.21 123.39Z" fill="currentColor" class="penny-illustration-brand-primary"/>
<path d="M101.42 18.5C90.75 9.69998 76.71 6.19998 62.88 8.87998C44.7 12.41 30.21 27.05 26.83 45.29C23.96 60.78 28.66 75.92 39.72 86.85C43.07 90.16 44.91 94.38 44.91 98.75V112.55C44.91 116.16 47.84 119.09 51.45 119.09H53.21V123.39L89.71 119.09H92.77C96.38 119.09 99.31 116.16 99.31 112.55V98.91C99.31 94.42 101.04 90.19 104.06 87.28C113.18 78.51 118.21 66.72 118.21 54.08C118.21 40.26 112.09 27.29 101.42 18.49V18.5ZM71.67 115.09L67.14 77.34H77.21L72.68 115.09H71.67ZM101.29 84.4C97.49 88.05 95.31 93.34 95.31 98.91V112.55C95.31 113.95 94.17 115.09 92.77 115.09H76.7L81.21 77.52L84.46 77.82C84.69 77.84 84.91 77.85 85.14 77.85C88.81 77.85 91.96 75.04 92.31 71.31C92.49 69.39 91.91 67.52 90.68 66.04C89.45 64.56 87.72 63.64 85.8 63.46C83.88 63.28 82.01 63.86 80.53 65.09C79.05 66.32 78.13 68.05 77.95 69.97L77.63 73.34H66.65L66.24 69.93C65.76 65.98 62.16 63.16 58.22 63.64C56.31 63.87 54.6 64.83 53.41 66.35C52.22 67.86 51.69 69.75 51.92 71.66C52.36 75.32 55.48 78.01 59.07 78.01C59.36 78.01 59.65 77.99 59.94 77.96L63.12 77.58L67.63 115.1H51.44C50.04 115.1 48.9 113.96 48.9 112.56V98.76C48.9 93.32 46.63 88.08 42.52 84.02C32.42 74.04 28.13 60.2 30.75 46.04C33.84 29.38 47.06 16.03 63.65 12.81C66.44 12.27 69.24 12 72.01 12C81.8 12 91.28 15.32 98.87 21.58C108.62 29.62 114.21 41.46 114.21 54.08C114.21 65.62 109.62 76.38 101.29 84.39V84.4ZM81.64 73.53L81.94 70.34C82.02 69.49 82.43 68.72 83.09 68.17C83.75 67.62 84.58 67.36 85.44 67.45C86.29 67.53 87.06 67.94 87.61 68.6C88.16 69.26 88.41 70.09 88.33 70.95C88.16 72.71 86.6 74.01 84.84 73.84L81.65 73.54L81.64 73.53ZM62.66 73.59L59.47 73.97C57.7 74.18 56.11 72.92 55.9 71.17C55.69 69.41 56.95 67.81 58.7 67.6C58.83 67.58 58.96 67.58 59.09 67.58C60.69 67.58 62.08 68.78 62.27 70.41L62.65 73.6L62.66 73.59Z" fill="currentColor" class="penny-illustration-border"/>
<path d="M32.71 47.71L36.64 48.44C39.29 34.17 50.62 22.72 64.85 19.96L64.09 16.03C48.27 19.1 35.66 31.83 32.71 47.71Z" fill="currentColor" class="penny-illustration-border"/>
<path d="M98.87 21.59C91.28 15.33 81.8 12.01 72.01 12.01C69.24 12.01 66.44 12.28 63.65 12.82C47.06 16.03 33.84 29.38 30.76 46.02C28.14 60.18 32.42 74.03 42.53 84C46.65 88.06 48.91 93.3 48.91 98.74V112.54C48.91 113.94 50.05 115.08 51.45 115.08H67.64L63.13 77.56L59.95 77.94C59.66 77.98 59.37 77.99 59.08 77.99C55.49 77.99 52.37 75.3 51.93 71.64C51.7 69.73 52.23 67.84 53.42 66.33C54.61 64.81 56.32 63.85 58.23 63.62C62.17 63.14 65.77 65.97 66.25 69.91L66.66 73.32H77.64L77.96 69.95C78.14 68.03 79.06 66.3 80.54 65.07C82.02 63.84 83.89 63.26 85.81 63.44C87.73 63.62 89.46 64.54 90.69 66.02C91.92 67.5 92.5 69.37 92.32 71.29C91.97 75.02 88.82 77.83 85.15 77.83C84.93 77.83 84.7 77.82 84.47 77.8L81.22 77.5L76.71 115.07H92.78C94.18 115.07 95.32 113.93 95.32 112.53V98.89C95.32 93.32 97.5 88.03 101.3 84.38C109.63 76.37 114.22 65.6 114.22 54.07C114.22 41.45 108.63 29.61 98.88 21.57L98.87 21.59ZM36.64 48.44L32.71 47.71C35.65 31.84 48.26 19.11 64.09 16.03L64.85 19.96C50.63 22.72 39.29 34.17 36.64 48.44Z" fill="currentColor" class="penny-illustration-background"/>
<path d="M67.13 77.34L71.67 115.09H72.67L77.2 77.34H67.13Z" fill="currentColor" class="penny-illustration-background"/>
<path d="M59.09 67.58C58.96 67.58 58.83 67.58 58.7 67.6C56.94 67.81 55.69 69.41 55.9 71.17C56.11 72.93 57.7 74.18 59.47 73.97L62.66 73.59L62.28 70.4C62.08 68.77 60.7 67.57 59.1 67.57L59.09 67.58Z" fill="currentColor" class="penny-illustration-background"/>
<path d="M88.33 70.94C88.41 70.09 88.15 69.25 87.61 68.59C87.07 67.93 86.29 67.52 85.44 67.44C84.58 67.36 83.75 67.62 83.09 68.16C82.43 68.71 82.02 69.48 81.94 70.33L81.64 73.52L84.83 73.82C86.6 73.99 88.16 72.69 88.32 70.93L88.33 70.94Z" fill="currentColor" class="penny-illustration-background"/>
</svg>
