<svg viewBox="0 0 144 144" fill="none" xmlns="http://www.w3.org/2000/svg">
<path d="M43.65 18C50.2 18 54.64 22.09 60.22 29H61V65H83V29H83.78C89.36 22.09 93.8 18 100.35 18C107.67 18 113.67 22.86 114.2 29H124.23C123.73 17.34 113.21 8 100.35 8C88.42 8 81.21 16.04 74.57 24.5H69.42C62.79 16.04 55.58 8 43.65 8C30.79 8 20.28 17.34 19.77 29H29.8C30.33 22.86 36.33 18 43.65 18Z" fill="currentColor" class="penny-illustration-brand-primary"/>
<path d="M130 29H83V33H130C131.65 33 133 34.35 133 36V62C133 63.65 131.65 65 130 65H14C12.35 65 11 63.65 11 62V36C11 34.35 12.35 33 14 33H61V29H14C10.14 29 7 32.14 7 36V62C7 65.86 10.14 69 14 69H16V129.5C16 133.36 19.14 136.5 23 136.5H63C61.9 136.5 61 135.6 61 134.5V132.5H23C21.35 132.5 20 131.15 20 129.5V82.27L124 69.28V129.51C124 131.16 122.65 132.51 121 132.51H83V134.51C83 135.61 82.1 136.51 81 136.51H121C124.86 136.51 128 133.37 128 129.51V69.01H130C133.86 69.01 137 65.87 137 62.01V36.01C137 32.15 133.86 29.01 130 29.01V29Z" fill="currentColor" class="penny-illustration-border"/>
<path d="M83 134.5V74.39L61 77.14V134.5C61 135.6 61.9 136.5 63 136.5H81C82.1 136.5 83 135.6 83 134.5Z" fill="currentColor" class="penny-illustration-brand-primary"/>
<path d="M121 132.5C122.65 132.5 124 131.15 124 129.5V69.27L83 74.39V132.5H121Z" fill="currentColor" class="penny-illustration-background"/>
<path d="M20 129.5C20 131.15 21.35 132.5 23 132.5H61V77.14L20 82.26V129.5Z" fill="currentColor" class="penny-illustration-background"/>
<path d="M61 33H14C12.35 33 11 34.35 11 36V62C11 63.65 12.35 65 14 65H61V33Z" fill="currentColor" class="penny-illustration-background"/>
<path d="M83 65H130C131.65 65 133 63.65 133 62V36C133 34.35 131.65 33 130 33H83V65Z" fill="currentColor" class="penny-illustration-background"/>
</svg>
