<svg viewBox="0 0 144 144" fill="none" xmlns="http://www.w3.org/2000/svg">
<path d="M125.64 92.15C125.26 91.69 124.69 91.42 124.1 91.42C123.51 91.42 122.94 91.69 122.56 92.15C122.1 92.71 111.2 106.06 111.2 116.06C111.2 123.17 116.99 128.96 124.1 128.96C131.21 128.96 137 123.17 137 116.06C137 106.07 126.11 92.72 125.64 92.15Z" fill="currentColor" class="penny-illustration-brand-primary"/>
<path d="M124.04 77.46L135.79 72.37C136.38 72.11 136.82 71.58 136.95 70.95C137.08 70.32 136.9 69.66 136.47 69.18L119.76 51.01C119.32 50.53 118.68 50.3 118.04 50.38C117.4 50.46 116.83 50.85 116.53 51.42L110.48 62.71L93.22 72.93L92.93 54.15C92.92 53.23 92.28 52.44 91.39 52.23L72.39 47.74C73.58 40.61 72.18 33.38 68.34 27.17C64.15 20.38 57.56 15.64 49.8 13.8C42.04 11.96 34.03 13.27 27.24 17.46C20.45 21.65 15.71 28.25 13.87 36.01C12.04 43.77 13.34 51.78 17.53 58.57C20.1 62.74 23.58 66.13 27.68 68.55L7.22996 107.93C6.94996 108.48 6.92996 109.13 7.18996 109.69C7.44996 110.25 7.94996 110.66 8.54996 110.8L91.61 130.42C91.76 130.46 91.92 130.47 92.07 130.47C92.52 130.47 92.96 130.32 93.32 130.03C93.8 129.64 94.08 129.06 94.07 128.44L93.94 119.83L124.05 77.47L124.04 77.46ZM23.61 38.31C24.83 33.15 27.99 28.77 32.5 25.98C35.68 24.02 39.26 23.01 42.9 23.01C44.43 23.01 45.97 23.19 47.5 23.55C52.66 24.77 57.04 27.93 59.83 32.44C62.26 36.37 63.23 40.93 62.63 45.45L43.71 40.98C42.82 40.77 41.9 41.19 41.48 42L32.32 59.63C25.38 55.22 21.62 46.75 23.61 38.31ZM11.96 107.49L44.31 45.22L88.96 55.77L89.27 76.44V76.63L90.02 125.92L11.96 107.49ZM118.72 55.8L131.62 69.82L123.24 73.45L114.4 63.85L118.71 55.8H118.72ZM111.6 66.7L120.17 76.01L98.97 105.84L93.51 77.42L111.61 66.7H111.6Z" fill="currentColor" class="penny-illustration-border"/>
<path d="M120.17 76.01L111.6 66.7L93.5 77.42L98.96 105.84L120.17 76.01Z" fill="currentColor" class="penny-illustration-background"/>
<path d="M131.62 69.82L118.72 55.8L114.41 63.84L123.25 73.45L131.62 69.82Z" fill="currentColor" class="penny-illustration-background"/>
<path d="M89.27 76.45L88.95 55.77L44.3 45.23L11.96 107.49L90.02 125.93L89.27 76.64V76.45Z" fill="currentColor" class="penny-illustration-background"/>
</svg>
