<svg viewBox="0 0 144 144" fill="none">
<path d="M96.68 7.02C96.78 7.03 96.87 7.04 96.97 7.06C96.88 7.04 96.78 7.03 96.68 7.02Z" fill="currentColor" class="penny-illustration-border"/>
<path d="M125.46 35.63C125.53 36.01 125.5 36.41 125.35 36.78C125.04 37.53 124.31 38.01 123.5 38.01H121.5V127.94H26.5V11H94.48V9C94.48 8.19 94.97 7.46 95.71 7.15C95.97 7.04 96.25 6.99 96.53 7C96.51 7 96.5 7 96.48 7H24.5C23.4 7 22.5 7.9 22.5 9V10H20C18.9 10 18 10.9 18 12V134.44C18 135.54 18.9 136.44 20 136.44H120.5C121.6 136.44 122.5 135.54 122.5 134.44V131.94H123.5C124.6 131.94 125.5 131.04 125.5 129.94V36.02C125.5 35.89 125.49 35.76 125.46 35.63Z" fill="currentColor" class="penny-illustration-border"/>
<path d="M94.48 9V36.02C94.48 37.12 95.38 38.02 96.48 38.02H123.5C124.31 38.02 125.04 37.53 125.35 36.79C125.5 36.42 125.54 36.02 125.46 35.64C125.43 35.47 125.36 35.31 125.29 35.16C125.27 35.12 125.25 35.08 125.23 35.04C125.14 34.89 125.04 34.74 124.92 34.62L97.9 7.59C97.77 7.46 97.63 7.36 97.48 7.28C97.44 7.26 97.4 7.24 97.37 7.22C97.24 7.16 97.11 7.11 96.97 7.07C96.88 7.05 96.78 7.04 96.68 7.03C96.63 7.03 96.59 7.01 96.54 7.01C96.27 7.01 95.99 7.05 95.72 7.16C94.97 7.47 94.49 8.2 94.49 9.01L94.48 9Z" fill="currentColor" class="penny-illustration-brand-primary"/>
<path d="M45.05 51.44C42.12 51.44 39.73 49.05 39.73 46.12H35.73C35.73 50.55 38.84 54.27 42.99 55.21V57.95H46.99V55.27C51.24 54.45 54.25 50.96 54.25 46.51C54.25 39.91 47.38 37.68 44.79 36.84L44.3 36.68C41.66 35.84 40.73 35.35 40.73 33.17C40.73 31.24 42.58 29.78 45.04 29.78C47.5 29.78 49.23 31.71 49.23 34.37H53.23C53.23 30.18 50.65 26.89 46.98 26.02V23.05H42.98V26.01C39.35 26.81 36.73 29.66 36.73 33.17C36.73 38.47 40.71 39.73 43.09 40.49L43.55 40.64C48.24 42.17 50.24 43.92 50.24 46.51C50.24 49.37 48.05 51.45 45.03 51.45L45.05 51.44Z" fill="currentColor" class="penny-illustration-border"/>
<path d="M69.5 73.94H38V77.94H69.5V73.94Z" fill="currentColor" class="penny-illustration-border"/>
<path d="M96.5 87.44H38V91.44H96.5V87.44Z" fill="currentColor" class="penny-illustration-border"/>
<path d="M96.5 100.94H38V104.94H96.5V100.94Z" fill="currentColor" class="penny-illustration-border"/>
<path d="M94.48 36.02V11H26.5V127.94H121.5V38.02H96.48C95.38 38.02 94.48 37.12 94.48 36.02ZM43.57 40.63L43.11 40.48C40.73 39.72 36.75 38.46 36.75 33.16C36.75 29.65 39.37 26.79 43 26V23.04H47V26.01C50.67 26.88 53.25 30.18 53.25 34.36H49.25C49.25 31.7 47.49 29.77 45.06 29.77C42.63 29.77 40.75 31.23 40.75 33.16C40.75 35.34 41.68 35.83 44.32 36.67L44.81 36.83C47.4 37.67 54.27 39.9 54.27 46.5C54.27 50.95 51.26 54.44 47.01 55.26V57.94H43.01V55.2C38.86 54.26 35.75 50.55 35.75 46.11H39.75C39.75 49.04 42.14 51.43 45.07 51.43C48 51.43 50.28 49.35 50.28 46.49C50.28 43.9 48.28 42.14 43.59 40.62L43.57 40.63ZM69.5 73.94V77.94H38V73.94H69.5ZM96.5 104.94H38V100.94H96.5V104.94ZM96.5 91.44H38V87.44H96.5V91.44Z" fill="currentColor" class="penny-illustration-background"/>
</svg>
