<svg viewBox="0 0 144 144" fill="none" xmlns="http://www.w3.org/2000/svg">
<path d="M133.88 118.2L105.94 90.26C105.94 90.26 105.92 90.25 105.92 90.24C105.83 90.15 105.73 90.08 105.63 90.01C105.59 89.98 105.55 89.96 105.5 89.94C105.43 89.9 105.35 89.86 105.27 89.83C105.22 89.81 105.17 89.79 105.12 89.78C105.04 89.76 104.96 89.74 104.88 89.72C104.83 89.72 104.78 89.7 104.73 89.69C104.63 89.68 104.53 89.68 104.43 89.69C104.4 89.69 104.38 89.69 104.35 89.69C104.35 89.69 104.34 89.69 104.33 89.69C104.2 89.7 104.07 89.73 103.94 89.76C103.91 89.76 103.88 89.78 103.85 89.79C103.75 89.82 103.66 89.86 103.57 89.91C103.53 89.93 103.5 89.95 103.46 89.98C103.42 90.01 103.37 90.03 103.33 90.06C103.05 90.26 102.79 90.48 102.51 90.68L100.81 88.98C100.75 88.92 100.68 88.87 100.61 88.82C97.23 93.4 93.11 97.39 88.41 100.62C88.47 100.71 88.54 100.8 88.62 100.88L90.45 102.71C90.24 102.99 90.03 103.27 89.83 103.54C89.8 103.58 89.78 103.62 89.76 103.66C89.73 103.7 89.71 103.74 89.69 103.78C89.64 103.87 89.61 103.96 89.58 104.05C89.57 104.08 89.55 104.12 89.54 104.15C89.5 104.28 89.48 104.41 89.47 104.54C89.47 104.54 89.47 104.54 89.47 104.55C89.47 104.57 89.47 104.59 89.47 104.61C89.47 104.72 89.47 104.83 89.47 104.94C89.47 104.98 89.48 105.03 89.49 105.07C89.51 105.16 89.53 105.24 89.55 105.33C89.56 105.37 89.58 105.42 89.6 105.46C89.63 105.55 89.68 105.63 89.72 105.71C89.74 105.74 89.76 105.78 89.78 105.81C89.85 105.92 89.93 106.02 90.03 106.12L117.97 134.06C119.26 135.35 120.95 135.99 122.64 135.99C124.33 135.99 126.03 135.35 127.31 134.06L133.83 127.54C135.08 126.29 135.77 124.63 135.77 122.87C135.77 121.11 135.08 119.45 133.83 118.2H133.88ZM131.05 124.72L124.53 131.24C123.54 132.22 121.82 132.22 120.84 131.24L94.52 104.92C94.62 104.84 94.72 104.75 94.82 104.67C94.84 104.66 94.86 104.64 94.87 104.63C94.87 104.63 94.88 104.63 94.89 104.63C94.92 104.61 94.94 104.58 94.97 104.56C95.07 104.48 95.16 104.41 95.26 104.33C95.78 103.91 96.31 103.46 96.85 102.98C98.99 101.12 101 99.1 102.86 96.96C103.41 96.33 103.93 95.71 104.42 95.1C104.46 95.05 104.48 95.02 104.52 94.97C104.59 94.89 104.66 94.81 104.72 94.73L131.04 121.05C131.53 121.54 131.8 122.2 131.8 122.89C131.8 123.58 131.53 124.24 131.04 124.74L131.05 124.72Z" fill="currentColor" class="penny-illustration-border"/>
<path d="M100.64 88.81C106.84 80.39 110.51 70 110.51 58.75C110.5 30.72 87.78 8 59.75 8C31.72 8 9 30.72 9 58.75C9 86.78 31.72 109.5 59.75 109.5C70.4 109.5 80.28 106.21 88.44 100.61C93.14 97.39 97.26 93.39 100.64 88.81ZM59.75 96.93C59.13 96.93 58.51 96.91 57.89 96.88C57.67 96.87 57.46 96.85 57.24 96.84C56.86 96.81 56.47 96.79 56.09 96.75C55.79 96.72 55.5 96.68 55.2 96.65C54.91 96.62 54.62 96.58 54.34 96.54C54 96.49 53.66 96.44 53.31 96.38C53.08 96.34 52.85 96.3 52.62 96.26C52.25 96.19 51.87 96.11 51.5 96.03C51.31 95.99 51.12 95.94 50.94 95.9C50.54 95.81 50.14 95.71 49.75 95.6C49.6 95.56 49.45 95.51 49.3 95.47C48.88 95.35 48.46 95.23 48.05 95.09C47.94 95.05 47.83 95.01 47.71 94.98C47.27 94.83 46.82 94.68 46.39 94.52C46.35 94.5 46.3 94.48 46.26 94.47C44.99 93.99 43.74 93.44 42.54 92.82C42.24 92.67 41.95 92.52 41.65 92.37C41.47 92.27 41.3 92.17 41.12 92.07C40.76 91.87 40.41 91.67 40.06 91.46C39.92 91.38 39.79 91.29 39.65 91.2C39.27 90.96 38.88 90.72 38.51 90.47C38.4 90.4 38.3 90.32 38.19 90.25C37.79 89.98 37.4 89.7 37.01 89.41C36.93 89.35 36.84 89.28 36.76 89.22C36.36 88.92 35.96 88.61 35.57 88.28C35.5 88.22 35.42 88.16 35.35 88.1C35.14 87.92 34.92 87.75 34.7 87.56C34.66 87.52 34.62 87.48 34.58 87.43C26.61 80.43 21.56 70.17 21.56 58.75C21.56 37.7 38.68 20.58 59.73 20.58C67.69 20.58 75.08 23.03 81.2 27.21C81.24 27.24 81.29 27.25 81.33 27.28C81.65 27.5 81.95 27.74 82.26 27.97C82.4 28.07 82.53 28.17 82.67 28.27C83.07 28.57 83.47 28.88 83.85 29.2C83.96 29.29 84.07 29.38 84.18 29.47C85.94 30.94 87.55 32.55 89 34.29C89.09 34.4 89.19 34.52 89.28 34.63C89.59 35.01 89.89 35.39 90.18 35.77C90.3 35.93 90.42 36.09 90.53 36.25C90.8 36.62 91.07 36.99 91.33 37.37C91.47 37.57 91.59 37.78 91.73 37.98C92.08 38.53 92.43 39.08 92.75 39.64C92.96 40.01 93.17 40.37 93.37 40.74C93.5 40.98 93.62 41.23 93.75 41.48C93.95 41.88 94.15 42.29 94.34 42.7C94.44 42.92 94.54 43.14 94.64 43.37C94.85 43.84 95.05 44.32 95.24 44.81C95.31 44.98 95.38 45.15 95.44 45.32C95.95 46.67 96.39 48.05 96.74 49.47C96.77 49.58 96.79 49.7 96.82 49.81C96.96 50.39 97.09 50.97 97.2 51.55C97.24 51.76 97.28 51.98 97.31 52.19C97.4 52.68 97.47 53.17 97.54 53.67C97.57 53.92 97.61 54.17 97.64 54.43C97.69 54.9 97.73 55.37 97.77 55.84C97.79 56.1 97.82 56.37 97.83 56.63C97.86 57.19 97.88 57.75 97.88 58.32C97.88 58.47 97.89 58.62 97.89 58.77C97.89 79.82 80.77 96.94 59.72 96.94L59.75 96.93Z" fill="currentColor" class="penny-illustration-brand-primary"/>
<path d="M35.6 73.16C36.54 74.74 37.65 76.24 38.88 77.6L41.85 74.92C40.79 73.75 39.84 72.47 39.03 71.11L35.6 73.16Z" fill="currentColor" class="penny-illustration-border"/>
<path d="M33.02 67.46L36.82 66.22C32.7 53.58 39.64 39.94 52.28 35.82L51.04 32.02C36.3 36.82 28.21 52.72 33.01 67.46H33.02Z" fill="currentColor" class="penny-illustration-border"/>
<path d="M97.92 58.3C97.92 57.73 97.9 57.17 97.87 56.61C97.86 56.34 97.83 56.08 97.81 55.82C97.77 55.35 97.73 54.88 97.68 54.41C97.65 54.16 97.62 53.9 97.58 53.65C97.51 53.16 97.44 52.66 97.35 52.17C97.31 51.96 97.28 51.74 97.24 51.53C97.13 50.94 97 50.37 96.86 49.79C96.83 49.68 96.81 49.56 96.78 49.45C96.42 48.03 95.99 46.65 95.48 45.3C95.42 45.13 95.35 44.96 95.28 44.79C95.09 44.31 94.89 43.83 94.68 43.35C94.58 43.13 94.48 42.9 94.38 42.68C94.19 42.27 93.99 41.87 93.79 41.46C93.66 41.21 93.54 40.97 93.41 40.72C93.21 40.35 93 39.98 92.79 39.62C92.46 39.06 92.12 38.51 91.77 37.96C91.64 37.76 91.51 37.55 91.37 37.35C91.11 36.97 90.84 36.6 90.57 36.23C90.45 36.07 90.34 35.91 90.22 35.75C89.93 35.36 89.63 34.98 89.32 34.61C89.23 34.5 89.13 34.38 89.04 34.27C87.59 32.54 85.98 30.92 84.22 29.45C84.11 29.36 84 29.27 83.89 29.18C83.5 28.86 83.11 28.55 82.71 28.25C82.58 28.15 82.44 28.05 82.3 27.95C81.99 27.72 81.68 27.48 81.37 27.26C81.33 27.23 81.28 27.21 81.24 27.19C75.12 23.01 67.72 20.56 59.77 20.56C38.72 20.56 21.6 37.68 21.6 58.73C21.6 70.15 26.65 80.41 34.62 87.41C34.66 87.45 34.69 87.5 34.74 87.54C34.95 87.72 35.17 87.9 35.39 88.08C35.46 88.14 35.54 88.2 35.61 88.26C36 88.58 36.4 88.89 36.8 89.2C36.88 89.26 36.97 89.33 37.05 89.39C37.44 89.68 37.84 89.96 38.23 90.23C38.34 90.3 38.44 90.38 38.55 90.45C38.93 90.7 39.31 90.94 39.69 91.18C39.83 91.26 39.96 91.35 40.1 91.44C40.45 91.65 40.8 91.85 41.16 92.05C41.34 92.15 41.51 92.25 41.69 92.35C41.98 92.51 42.28 92.65 42.58 92.8C43.79 93.41 45.03 93.96 46.3 94.45C46.34 94.47 46.39 94.49 46.43 94.5C46.87 94.66 47.31 94.81 47.75 94.96C47.86 95 47.97 95.04 48.09 95.07C48.5 95.2 48.92 95.33 49.34 95.45C49.49 95.49 49.64 95.54 49.79 95.58C50.18 95.69 50.58 95.79 50.98 95.88C51.17 95.92 51.35 95.97 51.54 96.01C51.91 96.09 52.28 96.17 52.66 96.24C52.89 96.28 53.12 96.32 53.35 96.36C53.69 96.42 54.03 96.47 54.38 96.52C54.67 96.56 54.95 96.6 55.24 96.63C55.54 96.67 55.83 96.7 56.13 96.73C56.51 96.77 56.9 96.79 57.28 96.82C57.5 96.83 57.71 96.85 57.93 96.86C58.55 96.89 59.17 96.91 59.79 96.91C80.84 96.91 97.96 79.79 97.96 58.74C97.96 58.59 97.95 58.44 97.95 58.29L97.92 58.3ZM56.5 90.4C49.62 90.4 42.99 88.36 37.32 84.5C30.14 78.23 25.58 69.02 25.58 58.75C25.58 39.91 40.91 24.58 59.75 24.58C66.91 24.58 73.56 26.8 79.05 30.57C86.43 37.07 90.67 46.41 90.67 56.22C90.67 75.06 75.34 90.39 56.49 90.39L56.5 90.4Z" fill="currentColor" class="penny-illustration-border"/>
<path d="M79.05 30.57C73.55 26.79 66.91 24.58 59.75 24.58C40.91 24.58 25.58 39.91 25.58 58.75C25.58 69.01 30.13 78.23 37.32 84.5C42.99 88.36 49.62 90.4 56.5 90.4C75.34 90.4 90.68 75.07 90.68 56.23C90.68 46.41 86.45 37.07 79.06 30.58L79.05 30.57ZM38.89 77.6C37.65 76.23 36.55 74.74 35.61 73.16L39.04 71.11C39.85 72.47 40.8 73.75 41.86 74.92L38.89 77.6ZM36.82 66.22L33.02 67.46C28.22 52.72 36.31 36.82 51.05 32.02L52.29 35.82C39.65 39.94 32.71 53.57 36.83 66.22H36.82Z" fill="currentColor" class="penny-illustration-background"/>
<path d="M104.74 94.71C104.67 94.79 104.6 94.87 104.54 94.95C104.5 95 104.48 95.03 104.44 95.08C103.95 95.69 103.43 96.31 102.88 96.94C101.02 99.09 99.01 101.1 96.87 102.96C96.33 103.43 95.7999 103.88 95.28 104.31C95.19 104.39 95.09 104.46 94.99 104.54C94.96 104.56 94.94 104.59 94.91 104.61C94.91 104.61 94.9 104.61 94.89 104.61C94.87 104.62 94.85 104.64 94.84 104.65C94.74 104.73 94.64 104.82 94.54 104.9L120.86 131.22C121.84 132.2 123.56 132.2 124.55 131.22L131.07 124.7C131.56 124.21 131.83 123.55 131.83 122.85C131.83 122.15 131.56 121.5 131.07 121.01L104.75 94.69L104.74 94.71Z" fill="currentColor" class="penny-illustration-background"/>
</svg>
