<svg viewBox="0 0 144 144" fill="none" xmlns="http://www.w3.org/2000/svg">
<g style="mix-blend-mode:multiply">
<path fill-rule="evenodd" clip-rule="evenodd" d="M28 7C21.3726 7 16 12.3726 16 19V125C16 131.627 21.3726 137 28 137H93.5C100.127 137 105.5 131.627 105.5 125V19C105.5 12.3726 100.127 7 93.5 7H28Z" class="penny-illustration-border" fill="currentColor"/>
<path d="M24.5 19C24.5 14.5817 28.0817 11 32.5 11H43.0873C43.5746 13.5681 45.8327 15.5 48.53 15.5H77.46C80.1709 15.5 82.4162 13.5569 82.9024 11H93.5C97.9183 11 101.5 14.5817 101.5 19V52H68.5C61.8754 52 56.5 57.3754 56.5 64V91.83C56.5 98.4546 61.8754 103.83 68.5 103.83H70V114.33C70 115.074 70.4134 115.757 71.0731 116.102C71.7327 116.447 72.5294 116.397 73.1408 115.973L90.6263 103.83H101.5V125C101.5 129.418 97.9183 133 93.5 133H32.5C28.0817 133 24.5 129.418 24.5 125V19Z" class="penny-illustration-background" fill="currentColor"/>
<path d="M61 66.6699C61 60.0454 66.3754 54.6699 73 54.6699H116C122.625 54.6699 128 60.0454 128 66.6699V94.4999C128 101.124 122.625 106.5 116 106.5H95.1263L77.6408 118.643C77.0294 119.067 76.2327 119.117 75.5731 118.772C74.9134 118.427 74.5 117.744 74.5 117V106.5H73C66.3754 106.5 61 101.124 61 94.4999V66.6699Z" class="penny-illustration-brand-primary" fill="currentColor"/>
<path d="M94.5 85.5C96.9853 85.5 99 83.4853 99 81C99 78.5147 96.9853 76.5 94.5 76.5C92.0147 76.5 90 78.5147 90 81C90 83.4853 92.0147 85.5 94.5 85.5Z" class="penny-illustration-background" fill="currentColor"/>
<path d="M81 85.5C83.4853 85.5 85.5 83.4853 85.5 81C85.5 78.5147 83.4853 76.5 81 76.5C78.5147 76.5 76.5 78.5147 76.5 81C76.5 83.4853 78.5147 85.5 81 85.5Z" class="penny-illustration-background" fill="currentColor"/>
<path d="M108 85.5C110.485 85.5 112.5 83.4853 112.5 81C112.5 78.5147 110.485 76.5 108 76.5C105.515 76.5 103.5 78.5147 103.5 81C103.5 83.4853 105.515 85.5 108 85.5Z" class="penny-illustration-background" fill="currentColor"/>
</g>
</svg>
