<svg viewBox="0 0 144 144" fill="none" xmlns="http://www.w3.org/2000/svg">
<path d="M86.4789 42.3065C89.5989 44.8865 91.5689 48.5565 91.8989 49.1865L90.1189 50.1065L88.3389 51.0265C87.2489 48.9265 83.5989 43.5465 79.9289 43.7565C79.8989 43.7565 79.8689 43.7565 79.8289 43.7565C78.2889 43.9165 76.6989 43.9965 75.0789 43.9965C71.1589 43.9965 67.0989 43.5465 63.2489 42.7865C58.7489 44.5365 53.3689 47.7165 50.3589 56.1965L46.5889 54.8565C49.1389 47.6865 53.2489 43.6965 57.1989 41.3065C56.2389 41.0165 55.3089 40.7165 54.4289 40.3965C51.6689 41.9065 41.3889 47.8465 33.3089 56.8565C26.7589 64.1565 20.4189 81.5265 22.2789 108.386C23.0489 119.586 31.8889 132.016 46.7389 133.016H97.6089C112.469 132.016 121.299 119.586 122.069 108.386C122.249 105.826 122.349 103.346 122.379 100.956L106.619 90.4065C103.609 89.1865 100.919 87.3365 98.7289 85.0065C98.7289 85.0065 98.7089 84.9965 98.7089 84.9865C94.9689 81.0065 92.6689 75.6465 92.6689 69.7665C92.6689 61.3765 97.3389 54.0565 104.209 50.2665C98.2289 45.1965 92.4689 41.8065 90.2089 40.5565C89.0789 41.2565 87.8289 41.8465 86.4689 42.3265L86.4789 42.3065ZM60.6789 109.906V112.506H56.6789V109.746C51.2689 108.606 47.1889 103.796 47.1889 98.0465H51.1889C51.1889 102.436 54.7589 106.006 59.1489 106.006C63.5389 106.006 66.9489 102.876 66.9489 98.5665C66.9489 93.6765 62.0989 91.4365 57.3489 89.8965L56.7189 89.6965C53.4689 88.6665 48.5689 87.1065 48.5689 80.4265C48.5689 75.9465 51.9789 72.3065 56.6789 71.3465V67.5065H60.6789V71.2065C65.8389 71.9465 69.5689 76.3465 69.5689 82.0465H65.5689C65.5689 78.0165 62.8689 75.0865 59.1489 75.0865C55.4289 75.0865 52.5689 77.4265 52.5689 80.4165C52.5689 84.0065 54.4089 84.7565 57.9289 85.8765L58.5889 86.0865C61.9689 87.1865 70.9589 90.1065 70.9589 98.5565C70.9589 104.576 66.6389 109.216 60.6889 109.896L60.6789 109.906Z" fill="currentColor" class="penny-illustration-background"/>
<path d="M60.6287 38.0762L59.4687 31.2762L63.4087 30.6062L64.8387 38.9962C69.3787 39.8162 74.1787 40.1862 78.4787 39.8562L85.5887 24.1762L89.2287 25.8262L83.1987 39.1362C85.3387 38.6162 87.2187 37.8562 88.7087 36.7862C90.8087 33.9462 97.4887 24.2562 102.289 17.0862C103.289 15.5962 102.819 14.1062 102.039 13.2162C101.259 12.3262 99.8587 11.6562 98.2387 12.4462L88.6287 17.1262C84.2487 19.2562 78.9887 18.1462 75.8487 14.4262C74.4587 12.7762 72.4987 11.7762 70.3487 11.6062C68.1887 11.4362 66.1087 12.1162 64.4687 13.5262L63.6687 14.2162C59.6587 17.6562 53.6387 17.6462 49.6487 14.1762L46.8487 11.7462C45.0687 10.2062 43.5287 11.5862 43.2387 11.8762C42.9487 12.1662 41.5687 13.7162 43.1087 15.4862L44.0387 16.5562C48.2887 21.4562 53.6887 28.8462 55.8987 36.6862C57.3687 37.2062 58.9587 37.6862 60.6387 38.1062L60.6287 38.0762Z" fill="currentColor" class="penny-illustration-background"/>
<path d="M58.5787 86.0859L57.9187 85.8759C54.3987 84.7559 52.5587 84.0059 52.5587 80.4159C52.5587 77.4259 55.4487 75.0859 59.1387 75.0859C62.8287 75.0859 65.5587 78.0159 65.5587 82.0459H69.5587C69.5587 76.3459 65.8287 71.9459 60.6687 71.2059V67.5059H56.6687V71.3459C51.9687 72.3059 48.5587 75.9459 48.5587 80.4259C48.5587 87.1059 53.4587 88.6659 56.7087 89.6959L57.3387 89.8959C62.0887 91.4359 66.9387 93.6759 66.9387 98.5659C66.9387 102.876 63.6587 106.006 59.1387 106.006C54.6187 106.006 51.1787 102.436 51.1787 98.0459H47.1787C47.1787 103.796 51.2587 108.606 56.6687 109.746V112.506H60.6687V109.906C66.6187 109.216 70.9387 104.576 70.9387 98.5659C70.9387 90.1059 61.9587 87.1859 58.5687 86.0959L58.5787 86.0859Z" fill="currentColor" class="penny-illustration-border"/>
<path d="M106.629 90.3962L122.389 100.946C122.359 103.336 122.249 105.816 122.079 108.376C121.309 119.576 112.469 132.006 97.6188 133.006H46.7388C31.8788 132.006 23.0488 119.576 22.2788 108.376C20.4288 81.5062 26.7588 64.1362 33.3088 56.8462C41.3888 47.8362 51.6688 41.8962 54.4288 40.3862C55.3188 40.7062 56.2388 41.0062 57.1988 41.2962C53.2588 43.6962 49.1488 47.6762 46.5888 54.8462L50.3588 56.1862C53.3788 47.7062 58.7488 44.5262 63.2488 42.7762C67.0888 43.5262 71.1588 43.9862 75.0788 43.9862C76.6988 43.9862 78.2888 43.9062 79.8288 43.7462C79.8588 43.7462 79.8888 43.7462 79.9288 43.7462C83.5988 43.5462 87.2488 48.9262 88.3388 51.0162L90.1188 50.0962L91.8988 49.1762C91.5788 48.5462 89.5988 44.8762 86.4788 42.2962C87.8388 41.8262 89.0888 41.2362 90.2188 40.5262C92.4788 41.7762 98.2488 45.1762 104.219 50.2362C105.509 49.5262 106.879 48.9362 108.309 48.4862C102.209 43.0462 96.1388 39.2862 93.0688 37.5262C95.9088 33.5262 101.469 25.4462 105.609 19.2662C107.439 16.5362 107.219 13.0262 105.059 10.5462C102.899 8.06619 99.4588 7.36619 96.4888 8.80619L86.8788 13.4862C84.1488 14.8162 80.8688 14.1262 78.9088 11.7962C76.8188 9.3262 73.8988 7.82619 70.6688 7.56619C67.4388 7.30619 64.3188 8.32619 61.8688 10.4362L61.0688 11.1262C58.5588 13.2862 54.7788 13.2762 52.2788 11.1062L49.4788 8.67619C46.4088 6.00619 42.5988 6.81619 40.4188 8.99619C38.2388 11.1762 37.4288 14.9862 40.0988 18.0562L41.0288 19.1262C44.2188 22.8062 49.6888 29.8562 51.9088 37.1862C48.2488 39.2262 38.4088 45.1662 30.3488 54.1462C16.7188 69.3462 17.6688 99.7062 18.2888 108.656C19.1788 121.566 29.3888 135.886 46.5488 137.006C46.5888 137.006 46.6388 137.006 46.6788 137.006H97.6788C97.6788 137.006 97.7688 137.006 97.8088 137.006C114.969 135.886 125.179 121.566 126.069 108.656C126.209 106.666 126.359 103.606 126.369 99.8962C126.369 99.8962 126.369 99.8762 126.369 99.8662C126.369 99.5362 126.369 99.2062 126.369 98.8662C126.369 98.6862 126.369 98.5062 126.369 98.3162C126.369 98.3162 126.369 98.3062 126.369 98.2962C126.339 95.4862 126.219 92.3562 125.949 89.0662C122.699 90.9262 118.939 91.9962 114.929 91.9962C111.999 91.9962 109.199 91.4162 106.629 90.3862V90.3962ZM44.0288 16.5262L43.0988 15.4562C41.5588 13.6762 42.9388 12.1362 43.2288 11.8462C43.5188 11.5562 45.0688 10.1762 46.8388 11.7162L49.6388 14.1462C53.6288 17.6062 59.6488 17.6262 63.6588 14.1862L64.4588 13.4962C66.0988 12.0862 68.1788 11.4062 70.3388 11.5762C72.4888 11.7462 74.4488 12.7562 75.8388 14.3962C78.9788 18.1162 84.2388 19.2262 88.6188 17.0962L98.2288 12.4162C99.8488 11.6262 101.249 12.2962 102.029 13.1862C102.809 14.0762 103.279 15.5562 102.279 17.0562C97.4788 24.2262 90.7988 33.9162 88.6988 36.7562C87.2088 37.8262 85.3288 38.5962 83.1888 39.1062L89.2188 25.7962L85.5788 24.1462L78.4688 39.8262C74.1688 40.1562 69.3688 39.7862 64.8288 38.9662L63.3988 30.5762L59.4588 31.2462L60.6188 38.0462C58.9388 37.6262 57.3488 37.1462 55.8788 36.6262C53.6788 28.7862 48.2788 21.4062 44.0188 16.4962L44.0288 16.5262Z" fill="currentColor" class="penny-illustration-border"/>
<path d="M137.179 69.7559C137.179 57.4859 127.199 47.5059 114.929 47.5059C112.629 47.5059 110.409 47.8559 108.319 48.5059C106.889 48.9559 105.519 49.5459 104.229 50.2559C97.3587 54.0459 92.6887 61.3659 92.6887 69.7559C92.6887 75.6359 94.9887 80.9859 98.7287 84.9759C98.7287 84.9759 98.7487 84.9859 98.7487 84.9959C100.939 87.3259 103.629 89.1759 106.639 90.3959C109.209 91.4359 111.999 92.0059 114.939 92.0059C118.949 92.0059 122.709 90.9359 125.959 89.0759C132.659 85.2359 137.189 78.0159 137.189 69.7559H137.179ZM111.649 77.9159C111.279 78.2459 110.799 78.4359 110.309 78.4359C110.259 78.4359 110.209 78.4359 110.169 78.4359C109.629 78.3959 109.119 78.1359 108.769 77.7159L103.229 71.0459L106.309 68.4959L110.519 73.5659L123.749 61.6159L126.429 64.5859L111.649 77.9259V77.9159Z" fill="currentColor" class="penny-illustration-brand-primary"/>
<path d="M110.509 73.5459L106.299 68.4759L103.219 71.0259L108.759 77.6959C109.109 78.1159 109.609 78.3759 110.159 78.4159C110.209 78.4159 110.259 78.4159 110.299 78.4159C110.789 78.4159 111.269 78.2359 111.639 77.8959L126.419 64.5559L123.739 61.5859L110.509 73.5359V73.5459Z" fill="currentColor" class="penny-illustration-background"/>
</svg>
