<svg viewBox="0 0 144 144" fill="none" xmlns="http://www.w3.org/2000/svg">
<path d="M114.25 51.9678C112.23 51.9678 110.28 51.6978 108.43 51.1878C113.78 53.3678 123.5 58.0378 127.43 64.5878C127.43 64.5878 127.44 64.5978 127.45 64.6078C127.72 66.5278 127.89 68.4878 127.96 70.4678H108.39C108.27 65.5578 107.67 58.3478 105.62 50.2278C103.84 49.4778 102.18 48.4878 100.67 47.3278C103.48 56.5978 104.25 65.0078 104.39 70.4778H73.51V39.5978C78.98 39.7378 87.39 40.5078 96.66 43.3178C95.49 41.8078 94.51 40.1478 93.76 38.3678C85.63 36.3278 78.43 35.7178 73.52 35.5978V16.0178C76.7 16.1278 79.81 16.4878 82.84 17.1078C86.49 20.7178 89.53 24.5478 92.06 28.4778C92.17 26.5478 92.52 24.6878 93.09 22.9178C92.16 21.6378 91.18 20.3778 90.13 19.1278C91.43 19.5878 92.71 20.0778 93.97 20.6278C94.52 19.3978 95.18 18.2278 95.94 17.1278C88.47 13.8178 80.21 11.9678 71.53 11.9678C38.14 11.9678 11 39.1078 11 72.4678C11 105.828 38.14 132.968 71.5 132.968C104.86 132.968 132 105.828 132 72.4678C132 63.7778 130.15 55.5278 126.84 48.0578C123.26 50.5278 118.92 51.9678 114.25 51.9678ZM52.89 19.1278C46.96 26.2078 42.93 33.8278 40.2 41.1578C32.87 43.8878 25.24 47.9278 18.17 53.8478C23.83 37.6578 36.69 24.7978 52.89 19.1278ZM16.14 61.1478C23.09 54.1178 30.9 49.3478 38.52 46.1278C35.55 55.8978 34.76 64.7378 34.62 70.4678H15.05C15.16 67.2878 15.52 64.1778 16.14 61.1478ZM15.05 74.4678H34.62C34.76 80.1878 35.56 89.0278 38.52 98.8078C30.9 95.5878 23.09 90.8178 16.14 83.7878C15.52 80.7678 15.16 77.6478 15.05 74.4678ZM18.16 91.0778C25.24 97.0078 32.86 101.038 40.19 103.768C42.92 111.098 46.96 118.728 52.88 125.798C36.68 120.128 23.82 107.278 18.15 91.0678L18.16 91.0778ZM69.5 128.918C66.32 128.808 63.21 128.448 60.18 127.828C53.15 120.878 48.38 113.068 45.16 105.448C54.93 108.418 63.77 109.208 69.5 109.348V128.918ZM69.5 105.348C63.44 105.198 53.77 104.268 43.32 100.648C39.69 90.1878 38.77 80.5278 38.62 74.4678H69.5V105.348ZM69.5 70.4678H38.62C38.77 64.4078 39.7 54.7378 43.32 44.2878C53.78 40.6578 63.44 39.7378 69.5 39.5878V70.4678ZM69.5 35.5878C63.78 35.7278 54.94 36.5278 45.16 39.4878C48.38 31.8678 53.15 24.0578 60.18 17.1078C63.2 16.4878 66.32 16.1278 69.5 16.0178V35.5878ZM73.5 74.4678H104.38C104.23 80.5278 103.3 90.1978 99.68 100.648C89.22 104.278 79.56 105.198 73.5 105.348V74.4678ZM73.5 128.918V109.348C79.22 109.208 88.06 108.408 97.84 105.448C94.62 113.068 89.85 120.878 82.82 127.828C79.8 128.448 76.68 128.808 73.5 128.918ZM90.11 125.808C96.04 118.728 100.07 111.108 102.8 103.778C110.13 101.048 117.76 97.0078 124.83 91.0878C119.16 107.288 106.31 120.148 90.1 125.818L90.11 125.808ZM126.86 83.7878C119.91 90.8178 112.1 95.5878 104.48 98.8078C107.45 89.0378 108.24 80.1978 108.38 74.4678H127.95C127.84 77.6478 127.48 80.7578 126.86 83.7878Z" fill="currentColor" class="penny-illustration-border"/>
<path d="M93.07 22.9178C92.5 24.6878 92.15 26.5478 92.04 28.4778C92.02 28.8878 92 29.2978 92 29.7178C92 32.7778 92.62 35.6978 93.74 38.3478C94.49 40.1278 95.48 41.7878 96.64 43.2978C97.8 44.7978 99.15 46.1478 100.66 47.3178C102.17 48.4878 103.83 49.4678 105.61 50.2178C106.52 50.5978 107.46 50.9178 108.42 51.1878C110.28 51.6878 112.23 51.9678 114.24 51.9678C118.91 51.9678 123.24 50.5178 126.83 48.0578C132.66 44.0378 136.49 37.3278 136.49 29.7178C136.49 17.4478 126.51 7.46777 114.24 7.46777C106.64 7.46777 99.92 11.2978 95.9 17.1278C95.14 18.2278 94.49 19.3978 93.93 20.6278C93.6 21.3678 93.3 22.1278 93.05 22.9178H93.07ZM112.25 18.4678H116.25V33.8978H112.25V18.4678ZM114.25 36.4378C115.76 36.4378 116.99 37.6678 116.99 39.1778C116.99 40.6878 115.76 41.9178 114.25 41.9178C112.74 41.9178 111.51 40.6878 111.51 39.1778C111.51 37.6678 112.74 36.4378 114.25 36.4378Z" fill="currentColor" class="penny-illustration-brand-primary"/>
<path d="M96.65 43.3076C87.38 40.4976 78.97 39.7276 73.5 39.5876V70.4676H104.38C104.24 64.9976 103.47 56.5876 100.66 47.3176C99.16 46.1576 97.81 44.8076 96.64 43.2976L96.65 43.3076Z" fill="currentColor" class="penny-illustration-background"/>
<path d="M45.1599 39.4876C54.9299 36.5176 63.7699 35.7276 69.4999 35.5876V16.0176C66.3199 16.1276 63.2099 16.4876 60.1799 17.1076C53.1499 24.0576 48.3799 31.8676 45.1599 39.4876Z" fill="currentColor" class="penny-illustration-background"/>
<path d="M52.8899 19.1276C36.6899 24.7976 23.8299 37.6576 18.1599 53.8576C25.2399 47.9276 32.8599 43.8976 40.1899 41.1676C42.9199 33.8376 46.9599 26.2076 52.8799 19.1376L52.8899 19.1276Z" fill="currentColor" class="penny-illustration-background"/>
<path d="M73.5 109.348V128.918C76.68 128.808 79.79 128.448 82.82 127.828C89.85 120.878 94.62 113.068 97.84 105.448C88.07 108.418 79.23 109.208 73.5 109.348Z" fill="currentColor" class="penny-illustration-background"/>
<path d="M90.1101 19.1276C91.1501 20.3776 92.1401 21.6376 93.0701 22.9176C93.3201 22.1376 93.6201 21.3776 93.9501 20.6276C92.6901 20.0776 91.4101 19.5876 90.1101 19.1276Z" fill="currentColor" class="penny-illustration-background"/>
<path d="M92.04 28.4776C89.51 24.5576 86.47 20.7176 82.82 17.1076C79.8 16.4876 76.68 16.1276 73.5 16.0176V35.5876C78.41 35.7076 85.62 36.3076 93.74 38.3576C92.62 35.6976 92 32.7876 92 29.7276C92 29.3076 92.01 28.8976 92.04 28.4876V28.4776Z" fill="currentColor" class="penny-illustration-background"/>
<path d="M43.3201 100.648C53.7801 104.278 63.4401 105.198 69.5001 105.348V74.4676H38.6201C38.7701 80.5276 39.7001 90.1976 43.3201 100.648Z" fill="currentColor" class="penny-illustration-background"/>
<path d="M108.38 70.4676H127.95C127.88 68.4876 127.71 66.5376 127.44 64.6076C127.44 64.6076 127.43 64.5976 127.42 64.5876C123.49 58.0376 113.77 53.3576 108.42 51.1876C107.46 50.9276 106.52 50.6076 105.61 50.2176C107.65 58.3476 108.26 65.5476 108.38 70.4576V70.4676Z" fill="currentColor" class="penny-illustration-background"/>
<path d="M38.6201 70.4676H69.5001V39.5876C63.4401 39.7376 53.7701 40.6676 43.3201 44.2876C39.6901 54.7476 38.7701 64.4076 38.6201 70.4676Z" fill="currentColor" class="penny-illustration-background"/>
<path d="M90.1101 125.808C106.31 120.138 119.17 107.288 124.84 91.0776C117.76 97.0076 110.14 101.038 102.81 103.768C100.08 111.098 96.0401 118.728 90.1201 125.798L90.1101 125.808Z" fill="currentColor" class="penny-illustration-background"/>
<path d="M60.1799 127.828C63.1999 128.448 66.3199 128.808 69.4999 128.918V109.348C63.7799 109.208 54.9399 108.408 45.1599 105.448C48.3799 113.068 53.1499 120.878 60.1799 127.828Z" fill="currentColor" class="penny-illustration-background"/>
<path d="M34.62 74.4676H15.05C15.16 77.6476 15.52 80.7576 16.14 83.7876C23.09 90.8176 30.9001 95.5876 38.5201 98.8076C35.5501 89.0376 34.76 80.1976 34.62 74.4676Z" fill="currentColor" class="penny-illustration-background"/>
<path d="M104.38 74.4676H73.5V105.348C79.56 105.198 89.23 104.268 99.68 100.648C103.31 90.1876 104.23 80.5276 104.38 74.4676Z" fill="currentColor" class="penny-illustration-background"/>
<path d="M104.48 98.8076C112.1 95.5876 119.91 90.8176 126.86 83.7876C127.48 80.7676 127.84 77.6476 127.95 74.4676H108.38C108.24 80.1876 107.44 89.0276 104.48 98.8076Z" fill="currentColor" class="penny-illustration-background"/>
<path d="M38.5201 46.1276C30.9001 49.3476 23.09 54.1176 16.14 61.1476C15.52 64.1676 15.16 67.2876 15.05 70.4676H34.62C34.76 64.7476 35.5601 55.9076 38.5201 46.1276Z" fill="currentColor" class="penny-illustration-background"/>
<path d="M18.1599 91.0776C23.8299 107.278 36.6799 120.138 52.8899 125.808C46.9599 118.728 42.9299 111.108 40.1999 103.778C32.8699 101.048 25.2399 97.0076 18.1699 91.0876L18.1599 91.0776Z" fill="currentColor" class="penny-illustration-background"/>
<path d="M116.25 18.4676H112.25V33.8976H116.25V18.4676Z" fill="currentColor" class="penny-illustration-background"/>
<path d="M114.25 41.9076C115.76 41.9076 116.99 40.6776 116.99 39.1676C116.99 37.6576 115.76 36.4276 114.25 36.4276C112.74 36.4276 111.51 37.6576 111.51 39.1676C111.51 40.6776 112.74 41.9076 114.25 41.9076Z" fill="currentColor" class="penny-illustration-background"/>
</svg>
