<svg viewBox="0 0 144 144" fill="none" xmlns="http://www.w3.org/2000/svg">
<path d="M114.25 51.5C112.23 51.5 110.28 51.23 108.43 50.72C113.78 52.9 123.5 57.57 127.43 64.12C127.43 64.12 127.44 64.13 127.45 64.14C127.72 66.06 127.89 68.02 127.96 70H108.39C108.27 65.09 107.67 57.88 105.62 49.76C103.84 49.01 102.18 48.02 100.67 46.86C103.48 56.13 104.25 64.54 104.39 70.01H73.51V39.13C78.98 39.27 87.39 40.04 96.66 42.85C95.49 41.34 94.51 39.68 93.76 37.9C85.63 35.86 78.43 35.25 73.52 35.13V15.55C76.7 15.66 79.81 16.02 82.84 16.64C86.49 20.25 89.53 24.08 92.06 28.01C92.17 26.08 92.52 24.22 93.09 22.45C92.16 21.17 91.18 19.91 90.13 18.66C91.43 19.12 92.71 19.61 93.97 20.16C94.52 18.93 95.18 17.76 95.94 16.66C88.47 13.35 80.21 11.5 71.53 11.5C38.14 11.5 11 38.64 11 72C11 105.36 38.14 132.5 71.5 132.5C104.86 132.5 132 105.36 132 72C132 63.31 130.15 55.06 126.84 47.59C123.26 50.06 118.92 51.5 114.25 51.5ZM52.89 18.66C46.96 25.74 42.93 33.36 40.2 40.69C32.87 43.42 25.24 47.46 18.17 53.38C23.83 37.19 36.69 24.33 52.89 18.66ZM16.14 60.68C23.09 53.65 30.9 48.88 38.52 45.66C35.55 55.43 34.76 64.27 34.62 70H15.05C15.16 66.82 15.52 63.71 16.14 60.68ZM15.05 74H34.62C34.76 79.72 35.56 88.56 38.52 98.34C30.9 95.12 23.09 90.35 16.14 83.32C15.52 80.3 15.16 77.18 15.05 74ZM18.16 90.61C25.24 96.54 32.86 100.57 40.19 103.3C42.92 110.63 46.96 118.26 52.88 125.33C36.68 119.66 23.82 106.81 18.15 90.6L18.16 90.61ZM69.5 128.45C66.32 128.34 63.21 127.98 60.18 127.36C53.15 120.41 48.38 112.6 45.16 104.98C54.93 107.95 63.77 108.74 69.5 108.88V128.45ZM69.5 104.88C63.44 104.73 53.77 103.8 43.32 100.18C39.69 89.72 38.77 80.06 38.62 74H69.5V104.88ZM69.5 70H38.62C38.77 63.94 39.7 54.27 43.32 43.82C53.78 40.19 63.44 39.27 69.5 39.12V70ZM69.5 35.12C63.78 35.26 54.94 36.06 45.16 39.02C48.38 31.4 53.15 23.59 60.18 16.64C63.2 16.02 66.32 15.66 69.5 15.55V35.12ZM73.5 74H104.38C104.23 80.06 103.3 89.73 99.68 100.18C89.22 103.81 79.56 104.73 73.5 104.88V74ZM73.5 128.45V108.88C79.22 108.74 88.06 107.94 97.84 104.98C94.62 112.6 89.85 120.41 82.82 127.36C79.8 127.98 76.68 128.34 73.5 128.45ZM90.11 125.34C96.04 118.26 100.07 110.64 102.8 103.31C110.13 100.58 117.76 96.54 124.83 90.62C119.16 106.82 106.31 119.68 90.1 125.35L90.11 125.34ZM126.86 83.32C119.91 90.35 112.1 95.12 104.48 98.34C107.45 88.57 108.24 79.73 108.38 74H127.95C127.84 77.18 127.48 80.29 126.86 83.32Z" fill="currentColor" class="penny-illustration-border"/>
<path d="M93.07 22.45C92.5 24.22 92.15 26.08 92.04 28.01C92.02 28.42 92 28.83 92 29.25C92 32.31 92.62 35.23 93.74 37.88C94.49 39.66 95.48 41.32 96.64 42.83C97.8 44.33 99.15 45.68 100.66 46.85C102.17 48.02 103.83 49 105.61 49.75C106.52 50.13 107.46 50.45 108.42 50.72C110.28 51.22 112.23 51.5 114.24 51.5C118.91 51.5 123.24 50.05 126.83 47.59C132.66 43.57 136.49 36.86 136.49 29.25C136.49 16.98 126.51 7 114.24 7C106.64 7 99.92 10.83 95.9 16.66C95.14 17.76 94.49 18.93 93.93 20.16C93.6 20.9 93.3 21.66 93.05 22.45H93.07ZM107.85 29.76L111.72 33.63V18H115.72V33.63L119.59 29.76L122.42 32.59L115.14 39.87C114.75 40.26 114.24 40.46 113.73 40.46C113.22 40.46 112.71 40.26 112.32 39.87L105.04 32.59L107.87 29.76H107.85Z" fill="currentColor" class="penny-illustration-brand-primary"/>
<path d="M73.5 108.88V128.45C76.68 128.34 79.79 127.98 82.82 127.36C89.85 120.41 94.62 112.6 97.84 104.98C88.07 107.95 79.23 108.74 73.5 108.88Z" fill="currentColor" class="penny-illustration-background"/>
<path d="M45.1599 39.0198C54.9299 36.0498 63.7699 35.2598 69.4999 35.1198V15.5498C66.3199 15.6598 63.2099 16.0198 60.1799 16.6398C53.1499 23.5898 48.3799 31.3998 45.1599 39.0198Z" fill="currentColor" class="penny-illustration-background"/>
<path d="M96.65 42.8398C87.38 40.0298 78.97 39.2598 73.5 39.1198V69.9998H104.38C104.24 64.5298 103.47 56.1198 100.66 46.8498C99.16 45.6898 97.81 44.3398 96.64 42.8298L96.65 42.8398Z" fill="currentColor" class="penny-illustration-background"/>
<path d="M52.8899 18.6598C36.6899 24.3298 23.8299 37.1898 18.1599 53.3898C25.2399 47.4598 32.8599 43.4298 40.1899 40.6998C42.9199 33.3698 46.9599 25.7398 52.8799 18.6698L52.8899 18.6598Z" fill="currentColor" class="penny-illustration-background"/>
<path d="M92.04 28.0098C89.51 24.0898 86.47 20.2498 82.82 16.6398C79.8 16.0198 76.68 15.6598 73.5 15.5498V35.1198C78.41 35.2398 85.62 35.8398 93.74 37.8898C92.62 35.2298 92 32.3198 92 29.2598C92 28.8398 92.01 28.4298 92.04 28.0198V28.0098Z" fill="currentColor" class="penny-illustration-background"/>
<path d="M108.38 69.9998H127.95C127.88 68.0198 127.71 66.0698 127.44 64.1398C127.44 64.1398 127.43 64.1298 127.42 64.1198C123.49 57.5698 113.77 52.8898 108.42 50.7198C107.46 50.4598 106.52 50.1398 105.61 49.7498C107.65 57.8798 108.26 65.0798 108.38 69.9898V69.9998Z" fill="currentColor" class="penny-illustration-background"/>
<path d="M43.3201 100.18C53.7801 103.81 63.4401 104.73 69.5001 104.88V73.9998H38.6201C38.7701 80.0598 39.7001 89.7298 43.3201 100.18Z" fill="currentColor" class="penny-illustration-background"/>
<path d="M90.1101 18.6598C91.1501 19.9098 92.1401 21.1698 93.0701 22.4498C93.3201 21.6698 93.6201 20.9098 93.9501 20.1598C92.6901 19.6098 91.4101 19.1198 90.1101 18.6598Z" fill="currentColor" class="penny-illustration-background"/>
<path d="M60.1799 127.36C63.1999 127.98 66.3199 128.34 69.4999 128.45V108.88C63.7799 108.74 54.9399 107.94 45.1599 104.98C48.3799 112.6 53.1499 120.41 60.1799 127.36Z" fill="currentColor" class="penny-illustration-background"/>
<path d="M34.62 73.9998H15.05C15.16 77.1798 15.52 80.2898 16.14 83.3198C23.09 90.3498 30.9001 95.1198 38.5201 98.3398C35.5501 88.5698 34.76 79.7298 34.62 73.9998Z" fill="currentColor" class="penny-illustration-background"/>
<path d="M104.38 73.9998H73.5V104.88C79.56 104.73 89.23 103.8 99.68 100.18C103.31 89.7198 104.23 80.0598 104.38 73.9998Z" fill="currentColor" class="penny-illustration-background"/>
<path d="M104.48 98.3398C112.1 95.1198 119.91 90.3498 126.86 83.3198C127.48 80.2998 127.84 77.1798 127.95 73.9998H108.38C108.24 79.7198 107.44 88.5598 104.48 98.3398Z" fill="currentColor" class="penny-illustration-background"/>
<path d="M38.6201 69.9998H69.5001V39.1198C63.4401 39.2698 53.7701 40.1998 43.3201 43.8198C39.6901 54.2798 38.7701 63.9398 38.6201 69.9998Z" fill="currentColor" class="penny-illustration-background"/>
<path d="M90.1101 125.34C106.31 119.67 119.17 106.82 124.84 90.6098C117.76 96.5398 110.14 100.57 102.81 103.3C100.08 110.63 96.0401 118.26 90.1201 125.33L90.1101 125.34Z" fill="currentColor" class="penny-illustration-background"/>
<path d="M38.5201 45.6598C30.9001 48.8798 23.09 53.6498 16.14 60.6798C15.52 63.6998 15.16 66.8198 15.05 69.9998H34.62C34.76 64.2798 35.5601 55.4398 38.5201 45.6598Z" fill="currentColor" class="penny-illustration-background"/>
<path d="M18.1599 90.6098C23.8299 106.81 36.6799 119.67 52.8899 125.34C46.9599 118.26 42.9299 110.64 40.1999 103.31C32.8699 100.58 25.2399 96.5398 18.1699 90.6198L18.1599 90.6098Z" fill="currentColor" class="penny-illustration-background"/>
<path d="M113.72 40.4598C114.23 40.4598 114.74 40.2598 115.13 39.8698L122.41 32.5898L119.58 29.7598L115.71 33.6298V17.9998H111.71V33.6298L107.84 29.7598L105.01 32.5898L112.29 39.8698C112.68 40.2598 113.19 40.4598 113.7 40.4598H113.72Z" fill="currentColor" class="penny-illustration-background"/>
</svg>
