<svg viewBox="0 0 144 144" fill="none" xmlns="http://www.w3.org/2000/svg">
<path d="M114.25 51.52C112.23 51.52 110.28 51.25 108.43 50.74C113.78 52.92 123.5 57.59 127.43 64.14C127.43 64.14 127.44 64.15 127.45 64.16C127.72 66.08 127.89 68.04 127.96 70.02H108.39C108.27 65.11 107.67 57.9 105.62 49.78C103.84 49.03 102.18 48.04 100.67 46.88C103.48 56.15 104.25 64.56 104.39 70.03H73.51V39.15C78.98 39.29 87.39 40.06 96.66 42.87C95.49 41.36 94.51 39.7 93.76 37.92C85.63 35.88 78.43 35.27 73.52 35.15V15.57C76.7 15.68 79.81 16.04 82.84 16.66C86.49 20.27 89.53 24.1 92.06 28.03C92.17 26.1 92.52 24.24 93.09 22.47C92.16 21.19 91.18 19.93 90.13 18.68C91.43 19.14 92.71 19.63 93.97 20.18C94.52 18.95 95.18 17.78 95.94 16.68C88.47 13.37 80.21 11.52 71.53 11.52C38.14 11.52 11 38.66 11 72.02C11 105.38 38.14 132.52 71.5 132.52C104.86 132.52 132 105.38 132 72.02C132 63.33 130.15 55.08 126.84 47.61C123.26 50.08 118.92 51.52 114.25 51.52ZM52.89 18.68C46.96 25.76 42.93 33.38 40.2 40.71C32.87 43.44 25.24 47.48 18.17 53.4C23.83 37.21 36.69 24.35 52.89 18.68ZM16.14 60.7C23.09 53.67 30.9 48.9 38.52 45.68C35.55 55.45 34.76 64.29 34.62 70.02H15.05C15.16 66.84 15.52 63.73 16.14 60.7ZM15.05 74.02H34.62C34.76 79.74 35.56 88.58 38.52 98.36C30.9 95.14 23.09 90.37 16.14 83.34C15.52 80.32 15.16 77.2 15.05 74.02ZM18.16 90.63C25.24 96.56 32.86 100.59 40.19 103.32C42.92 110.65 46.96 118.28 52.88 125.35C36.68 119.68 23.82 106.83 18.15 90.62L18.16 90.63ZM69.5 128.47C66.32 128.36 63.21 128 60.18 127.38C53.15 120.43 48.38 112.62 45.16 105C54.93 107.97 63.77 108.76 69.5 108.9V128.47ZM69.5 104.9C63.44 104.75 53.77 103.82 43.32 100.2C39.69 89.74 38.77 80.08 38.62 74.02H69.5V104.9ZM69.5 70.02H38.62C38.77 63.96 39.7 54.29 43.32 43.84C53.78 40.21 63.44 39.29 69.5 39.14V70.02ZM69.5 35.14C63.78 35.28 54.94 36.08 45.16 39.04C48.38 31.42 53.15 23.61 60.18 16.66C63.2 16.04 66.32 15.68 69.5 15.57V35.14ZM73.5 74.02H104.38C104.23 80.08 103.3 89.75 99.68 100.2C89.22 103.83 79.56 104.75 73.5 104.9V74.02ZM73.5 128.47V108.9C79.22 108.76 88.06 107.96 97.84 105C94.62 112.62 89.85 120.43 82.82 127.38C79.8 128 76.68 128.36 73.5 128.47ZM90.11 125.36C96.04 118.28 100.07 110.66 102.8 103.33C110.13 100.6 117.76 96.56 124.83 90.64C119.16 106.84 106.31 119.7 90.1 125.37L90.11 125.36ZM126.86 83.34C119.91 90.37 112.1 95.14 104.48 98.36C107.45 88.59 108.24 79.75 108.38 74.02H127.95C127.84 77.2 127.48 80.31 126.86 83.34Z" fill="currentColor" class="penny-illustration-border"/>
<path d="M93.07 22.47C92.5 24.24 92.15 26.1 92.04 28.03C92.02 28.44 92 28.85 92 29.27C92 32.33 92.62 35.25 93.74 37.9C94.49 39.68 95.48 41.34 96.64 42.85C97.8 44.35 99.15 45.7 100.66 46.87C102.17 48.04 103.83 49.02 105.61 49.77C106.52 50.15 107.46 50.47 108.42 50.74C110.28 51.24 112.23 51.52 114.24 51.52C118.91 51.52 123.24 50.07 126.83 47.61C132.66 43.59 136.49 36.88 136.49 29.27C136.49 17 126.51 7.02002 114.24 7.02002C106.64 7.02002 99.92 10.85 95.9 16.68C95.14 17.78 94.49 18.95 93.93 20.18C93.6 20.92 93.3 21.68 93.05 22.47H93.07ZM113.01 29.72L112.66 29.61C110.83 29.03 107.44 27.95 107.44 23.53C107.44 20.7 109.46 18.38 112.3 17.63V15.22H116.3V17.68C119.09 18.55 121.08 21.22 121.08 24.45H117.08C117.08 22.92 116.13 21.37 114.3 21.37C112.69 21.37 111.44 22.32 111.44 23.53C111.44 24.9 111.87 25.16 113.87 25.8L114.25 25.92C116.13 26.53 121.86 28.39 121.86 33.82C121.86 37.33 119.58 40.11 116.3 40.92V43.32H112.3V40.89C109.05 40.01 106.65 37.04 106.65 33.52H110.65C110.65 35.53 112.29 37.17 114.3 37.17C116.31 37.17 117.86 35.76 117.86 33.82C117.86 32.06 116.41 30.83 113.01 29.73V29.72Z" fill="currentColor" class="penny-illustration-brand-primary"/>
<path d="M43.3201 100.2C53.7801 103.83 63.4401 104.75 69.5001 104.9V74.02H38.6201C38.7701 80.08 39.7001 89.75 43.3201 100.2Z" fill="currentColor" class="penny-illustration-background"/>
<path d="M52.8899 18.68C36.6899 24.35 23.8299 37.21 18.1599 53.41C25.2399 47.48 32.8599 43.45 40.1899 40.72C42.9199 33.39 46.9599 25.76 52.8799 18.69L52.8899 18.68Z" fill="currentColor" class="penny-illustration-background"/>
<path d="M73.5 108.9V128.47C76.68 128.36 79.79 128 82.82 127.38C89.85 120.43 94.62 112.62 97.84 105C88.07 107.97 79.23 108.76 73.5 108.9Z" fill="currentColor" class="penny-illustration-background"/>
<path d="M96.65 42.86C87.38 40.05 78.97 39.28 73.5 39.14V70.02H104.38C104.24 64.55 103.47 56.14 100.66 46.87C99.16 45.71 97.81 44.36 96.64 42.85L96.65 42.86Z" fill="currentColor" class="penny-illustration-background"/>
<path d="M45.1599 39.04C54.9299 36.07 63.7699 35.28 69.4999 35.14V15.57C66.3199 15.68 63.2099 16.04 60.1799 16.66C53.1499 23.61 48.3799 31.42 45.1599 39.04Z" fill="currentColor" class="penny-illustration-background"/>
<path d="M92.04 28.03C89.51 24.11 86.47 20.27 82.82 16.66C79.8 16.04 76.68 15.68 73.5 15.57V35.14C78.41 35.26 85.62 35.86 93.74 37.91C92.62 35.25 92 32.34 92 29.28C92 28.86 92.01 28.45 92.04 28.04V28.03Z" fill="currentColor" class="penny-illustration-background"/>
<path d="M108.38 70.02H127.95C127.88 68.04 127.71 66.09 127.44 64.16C127.44 64.16 127.43 64.15 127.42 64.14C123.49 57.59 113.77 52.91 108.42 50.74C107.46 50.48 106.52 50.16 105.61 49.77C107.65 57.9 108.26 65.1 108.38 70.01V70.02Z" fill="currentColor" class="penny-illustration-background"/>
<path d="M90.1101 18.68C91.1501 19.93 92.1401 21.19 93.0701 22.47C93.3201 21.69 93.6201 20.93 93.9501 20.18C92.6901 19.63 91.4101 19.14 90.1101 18.68Z" fill="currentColor" class="penny-illustration-background"/>
<path d="M38.5201 45.68C30.9001 48.9 23.09 53.67 16.14 60.7C15.52 63.72 15.16 66.84 15.05 70.02H34.62C34.76 64.3 35.5601 55.46 38.5201 45.68Z" fill="currentColor" class="penny-illustration-background"/>
<path d="M104.48 98.36C112.1 95.14 119.91 90.37 126.86 83.34C127.48 80.32 127.84 77.2 127.95 74.02H108.38C108.24 79.74 107.44 88.58 104.48 98.36Z" fill="currentColor" class="penny-illustration-background"/>
<path d="M90.1101 125.36C106.31 119.69 119.17 106.84 124.84 90.63C117.76 96.56 110.14 100.59 102.81 103.32C100.08 110.65 96.0401 118.28 90.1201 125.35L90.1101 125.36Z" fill="currentColor" class="penny-illustration-background"/>
<path d="M38.6201 70.02H69.5001V39.14C63.4401 39.29 53.7701 40.22 43.3201 43.84C39.6901 54.3 38.7701 63.96 38.6201 70.02Z" fill="currentColor" class="penny-illustration-background"/>
<path d="M104.38 74.02H73.5V104.9C79.56 104.75 89.23 103.82 99.68 100.2C103.31 89.74 104.23 80.08 104.38 74.02Z" fill="currentColor" class="penny-illustration-background"/>
<path d="M60.1799 127.38C63.1999 128 66.3199 128.36 69.4999 128.47V108.9C63.7799 108.76 54.9399 107.96 45.1599 105C48.3799 112.62 53.1499 120.43 60.1799 127.38Z" fill="currentColor" class="penny-illustration-background"/>
<path d="M18.1599 90.63C23.8299 106.83 36.6799 119.69 52.8899 125.36C46.9599 118.28 42.9299 110.66 40.1999 103.33C32.8699 100.6 25.2399 96.56 18.1699 90.64L18.1599 90.63Z" fill="currentColor" class="penny-illustration-background"/>
<path d="M34.62 74.02H15.05C15.16 77.2 15.52 80.31 16.14 83.34C23.09 90.37 30.9001 95.14 38.5201 98.36C35.5501 88.59 34.76 79.75 34.62 74.02Z" fill="currentColor" class="penny-illustration-background"/>
<path d="M114.29 37.17C112.28 37.17 110.64 35.53 110.64 33.52H106.64C106.64 37.04 109.04 40.01 112.29 40.89V43.32H116.29V40.92C119.56 40.11 121.85 37.33 121.85 33.82C121.85 28.4 116.12 26.54 114.24 25.92L113.86 25.8C111.86 25.16 111.43 24.9 111.43 23.53C111.43 22.32 112.69 21.37 114.29 21.37C116.11 21.37 117.07 22.92 117.07 24.45H121.07C121.07 21.21 119.09 18.55 116.29 17.68V15.22H112.29V17.63C109.45 18.38 107.43 20.7 107.43 23.53C107.43 27.95 110.83 29.03 112.65 29.61L113 29.72C116.4 30.82 117.85 32.05 117.85 33.81C117.85 35.75 116.35 37.16 114.29 37.16V37.17Z" fill="currentColor" class="penny-illustration-background"/>
</svg>
