<svg viewBox="0 0 144 144" fill="none" xmlns="http://www.w3.org/2000/svg">
<path d="M136.6 69.8C136.22 69.3 135.63 69 135 69H111.59V61.67C108.43 63.16 104.91 64 101.19 64C91.85 64 83.71 58.73 79.6 51H46.06L37.65 38.39C37.28 37.83 36.65 37.5 35.99 37.5H9C7.9 37.5 7 38.4 7 39.5V130.96C7 133.6 9.05 135.75 11.63 135.96C11.76 135.99 11.9 136 12.03 136H109.59C109.59 136 109.65 136 109.69 136C114.92 135.9 119.55 132.35 120.99 127.31L136.92 71.56C137.09 70.96 136.97 70.31 136.59 69.81L136.6 69.8ZM11.91 131.98C11.4 131.92 11 131.5 11 130.97V41.5H34.93L43.34 54.11C43.71 54.67 44.34 55 45 55H72.22C75.93 63.28 84.35 68.37 94.57 68.37C99.22 68.37 103.72 67.04 107.6 64.59V69H36C35.15 69 34.39 69.54 34.11 70.35L33.02 73.5H27C26.07 73.5 25.26 74.14 25.05 75.05L11.91 131.98ZM117.15 126.2C116.17 129.62 113.01 132 109.46 132H17.01L37.42 73H132.34L117.14 126.2H117.15Z" fill="currentColor" class="penny-illustration-border"/>
<path d="M16 26H20V19H27V15H20V8H16V15H9V19H16V26Z" fill="currentColor" class="penny-illustration-border"/>
<path d="M45 30.5C47.4853 30.5 49.5 28.4853 49.5 26C49.5 23.5147 47.4853 21.5 45 21.5C42.5147 21.5 40.5 23.5147 40.5 26C40.5 28.4853 42.5147 30.5 45 30.5Z" fill="currentColor" class="penny-illustration-border"/>
<path d="M79.66 28.01C79.86 28.28 80.07 28.55 80.3 28.83C84.32 33.88 90.51 39.44 97.74 44.49C106.59 50.69 114.05 54.2 119.4 55.84C121.61 53.37 123.32 50.46 124.39 47.25C124.91 45.67 125.28 44.03 125.48 42.33C125.58 41.42 125.64 40.5 125.64 39.56C125.64 26.09 114.68 15.12 101.2 15.12C97.28 15.12 93.58 16.05 90.3 17.7C88.79 18.46 87.37 19.37 86.06 20.41C83.45 22.48 81.27 25.06 79.68 28.01H79.66Z" fill="currentColor" class="penny-illustration-brand-primary"/>
<path d="M101.19 64C104.91 64 108.43 63.16 111.59 61.67C113.19 60.92 114.68 59.99 116.07 58.93C109.68 56.63 102.28 52.57 95.44 47.78C88.31 42.79 82.14 37.29 77.89 32.19C77.15 34.52 76.75 36.99 76.75 39.56C76.75 43.69 77.78 47.58 79.6 51C83.71 58.73 91.84 64 101.19 64Z" fill="currentColor" class="penny-illustration-brand-primary"/>
<path d="M95.44 47.78C102.28 52.57 109.68 56.63 116.07 58.93C119.62 60.21 122.87 60.95 125.52 60.95C128.17 60.95 130.34 60.19 131.54 58.47C134.53 54.19 130.04 47.47 125.46 42.34C125.27 44.04 124.9 45.69 124.37 47.26C128.26 52.18 128.92 55.23 128.26 56.17C127.49 57.26 124.34 57.36 119.38 55.85C114.03 54.22 106.57 50.7 97.72 44.5C90.5 39.44 84.3 33.88 80.28 28.84C80.05 28.56 79.85 28.29 79.64 28.02C75.93 23.13 75.77 20.57 76.3 19.81C76.96 18.87 80.06 18.44 86.02 20.42C87.33 19.38 88.75 18.47 90.26 17.71C83.86 15.16 76.01 13.24 73.02 17.51C70.91 20.52 72.34 25.3 77.15 31.33C77.38 31.61 77.63 31.9 77.87 32.19C82.12 37.29 88.29 42.79 95.42 47.78H95.44Z" fill="currentColor" class="penny-illustration-border"/>
<path d="M27 73.5H33.02L34.11 70.35C34.39 69.54 35.15 69 36 69H107.59V64.59C103.71 67.04 99.21 68.37 94.56 68.37C84.35 68.37 75.92 63.28 72.21 55H44.99C44.32 55 43.7 54.67 43.33 54.11L34.92 41.5H11V130.96C11 131.49 11.4 131.91 11.91 131.97L25.05 75.04C25.26 74.13 26.07 73.49 27 73.49V73.5Z" fill="currentColor" class="penny-illustration-background"/>
<path d="M36.33 76.15L17.01 131.99H109.46C113.01 131.99 116.18 129.6 117.15 126.19L132.35 72.99H37.42L36.33 76.14V76.15Z" fill="currentColor" class="penny-illustration-background"/>
</svg>
