<svg viewBox="0 0 144 144" fill="none" xmlns="http://www.w3.org/2000/svg">
<path d="M124.305 108.18L119.495 100.87C117.065 97.51 115.725 93.34 115.725 89.14V71.94C115.725 68.13 115.265 64.43 114.405 60.89C113.175 61.37 111.885 61.71 110.525 61.88C111.295 65.1 111.715 68.47 111.715 71.94V89.14C111.715 94.18 113.325 99.18 116.195 103.14L120.955 110.37C121.575 111.31 121.625 112.46 121.085 113.44C120.545 114.42 119.565 115.02 118.445 115.02H25.0053C23.8853 115.02 22.8953 114.43 22.3653 113.44C21.8353 112.45 21.8853 111.3 22.4953 110.37L27.2053 103.21C30.1253 99.17 31.7353 94.17 31.7353 89.13V71.93C31.7353 49.02 49.6753 30.37 71.7353 30.37C80.1453 30.37 87.9453 33.08 94.3953 37.7C95.0653 36.54 95.8653 35.46 96.7953 34.5C92.6453 31.52 87.9853 29.25 82.9753 27.87V18.24C82.9753 12.04 77.9353 7 71.7353 7C65.5353 7 60.4953 12.04 60.4953 18.24V27.87C41.6653 33.03 27.7353 50.82 27.7353 71.91V89.11C27.7353 93.32 26.3953 97.48 23.9153 100.92L19.1553 108.15C17.7353 110.3 17.6153 113.05 18.8453 115.32C20.0753 117.59 22.4253 119 25.0053 119H50.0053C50.0253 119.11 50.0353 119.23 50.0653 119.34C50.0953 119.48 50.1353 119.61 50.1653 119.75C50.2953 120.32 50.4253 120.88 50.5953 121.43C50.6253 121.54 50.6753 121.65 50.7153 121.76C50.9053 122.34 51.1053 122.91 51.3353 123.46C51.3653 123.52 51.3953 123.58 51.4253 123.65C51.6853 124.26 51.9753 124.85 52.2853 125.43C52.2853 125.43 52.2853 125.44 52.2953 125.45C56.0553 132.38 63.3753 137 71.7353 137C82.4853 137 91.5153 129.38 93.4553 119H118.455C121.035 119 123.395 117.59 124.615 115.32C125.835 113.05 125.715 110.3 124.305 108.15V108.18ZM71.7353 133.03C68.1053 133.03 64.7153 131.96 61.8753 130.12C68.0153 122.52 82.3953 120.04 89.3253 119.28C87.3653 127.27 80.1953 133.04 71.7453 133.04L71.7353 133.03Z" fill="currentColor" class="penny-illustration-border"/>
<path d="M71.7353 39.87C54.5153 39.87 40.5053 54.36 40.5053 72.18C40.5053 73.28 41.4053 74.18 42.5053 74.18C43.6053 74.18 44.5053 73.28 44.5053 72.18C44.5053 56.57 56.7153 43.87 71.7353 43.87C72.8353 43.87 73.7353 42.97 73.7353 41.87C73.7353 40.77 72.8353 39.87 71.7353 39.87Z" fill="currentColor" class="penny-illustration-border"/>
<path d="M92.2353 45.78C92.2353 54.74 99.5253 62.03 108.485 62.03C109.185 62.03 109.865 61.97 110.545 61.88C111.895 61.71 113.195 61.37 114.425 60.89C120.455 58.51 124.745 52.64 124.745 45.78C124.745 36.82 117.455 29.53 108.495 29.53C103.905 29.53 99.7553 31.45 96.7953 34.53C95.8753 35.49 95.0653 36.56 94.3953 37.73C93.0353 40.11 92.2353 42.85 92.2353 45.79V45.78Z" fill="currentColor" class="penny-illustration-brand-primary"/>
<path d="M61.8653 130.12C64.7153 131.96 68.0953 133.03 71.7253 133.03C80.1853 133.03 87.3453 127.27 89.3053 119.27C82.3853 120.04 67.9953 122.51 61.8553 130.11L61.8653 130.12Z" fill="currentColor" class="penny-illustration-background"/>
<path d="M92.2353 45.78C92.2353 42.85 93.0253 40.1 94.3953 37.72C87.9453 33.1 80.1453 30.39 71.7353 30.39C49.6753 30.39 31.7353 49.03 31.7353 71.95V89.15C31.7353 94.19 30.1253 99.19 27.2053 103.23L22.4953 110.39C21.8753 111.33 21.8253 112.48 22.3653 113.46C22.9053 114.44 23.8853 115.04 25.0053 115.04H118.465C119.585 115.04 120.575 114.45 121.105 113.46C121.635 112.47 121.585 111.32 120.975 110.39L116.215 103.16C113.345 99.2 111.735 94.2 111.735 89.16V71.96C111.735 68.49 111.315 65.12 110.545 61.9C109.865 61.99 109.185 62.05 108.485 62.05C99.5253 62.05 92.2353 54.76 92.2353 45.8V45.78ZM71.7353 43.87C56.7253 43.87 44.5053 56.57 44.5053 72.18C44.5053 73.28 43.6053 74.18 42.5053 74.18C41.4053 74.18 40.5053 73.28 40.5053 72.18C40.5053 54.37 54.5153 39.87 71.7353 39.87C72.8353 39.87 73.7353 40.77 73.7353 41.87C73.7353 42.97 72.8353 43.87 71.7353 43.87Z" fill="currentColor" class="penny-illustration-background"/>
</svg>
