<svg viewBox="0 0 144 144" fill="none" xmlns="http://www.w3.org/2000/svg">
<path d="M20.9075 44.9965H24.9075V37.9965H31.9075V33.9965H24.9075V26.9965H20.9075V33.9965H13.9075V37.9965H20.9075V44.9965Z" fill="currentColor" class="penny-illustration-border"/>
<path d="M54.4075 22.4965C56.8928 22.4965 58.9075 20.4818 58.9075 17.9965C58.9075 15.5112 56.8928 13.4965 54.4075 13.4965C51.9222 13.4965 49.9075 15.5112 49.9075 17.9965C49.9075 20.4818 51.9222 22.4965 54.4075 22.4965Z" fill="currentColor" class="penny-illustration-border"/>
<path d="M112.908 103.497C115.393 103.497 117.408 101.482 117.408 98.9965C117.408 96.5112 115.393 94.4965 112.908 94.4965C110.422 94.4965 108.408 96.5112 108.408 98.9965C108.408 101.482 110.422 103.497 112.908 103.497Z" fill="currentColor" class="penny-illustration-border"/>
<path d="M96.8775 18.6965C96.8075 18.5365 96.7575 18.3765 96.7075 18.2165L46.1875 45.8965C45.2875 46.3865 44.9075 47.4765 45.2975 48.4165L46.2275 50.6765L22.5475 62.6365C24.1575 63.3465 25.5175 64.6465 26.2375 66.4065L29.9375 75.3465L25.8475 65.4565L41.6475 57.4765L55.1575 76.5965C54.4575 78.3165 54.0275 80.1765 53.8975 82.1065L35.2675 88.2165L34.8775 87.2765C35.5975 89.0265 35.5575 90.8965 34.9275 92.5365L54.1075 86.2365C54.6275 89.2865 55.9275 92.0765 57.8075 94.3765L40.5175 134.187C40.2475 134.807 40.3075 135.517 40.6775 136.077C41.0475 136.637 41.6775 136.977 42.3475 136.977H55.6675C56.4675 136.977 57.1875 136.507 57.4975 135.777L61.1775 127.317H82.9875L86.9375 135.827C87.2675 136.537 87.9775 136.987 88.7475 136.987H102.207C102.887 136.987 103.527 136.637 103.897 136.067C104.268 135.487 104.317 134.767 104.027 134.147L85.4275 94.0365C87.7475 91.0465 89.1375 87.3165 89.1375 83.2465C89.1375 82.2365 89.0275 81.2465 88.8675 80.2765L118.808 71.5465C118.728 71.3965 118.647 71.2465 118.577 71.0965L96.8875 18.6865L96.8775 18.6965ZM54.3575 132.997H45.3975L60.8875 97.3365C63.0675 98.9765 65.6275 100.127 68.4175 100.617L54.3575 132.997ZM71.4875 96.9065C63.9575 96.9065 57.8375 90.7865 57.8375 83.2565C57.8375 75.7265 63.9575 69.6065 71.4875 69.6065C79.0175 69.6065 85.1375 75.7265 85.1375 83.2565C85.1375 90.7865 79.0175 96.9065 71.4875 96.9065ZM71.7275 103.047L75.4675 111.117H68.2175L71.7175 103.047H71.7275ZM62.9175 123.327L66.4875 115.117H72.4675L79.7975 123.327H62.9175ZM90.0275 132.997L74.9875 100.547C77.7575 99.9865 80.2875 98.7665 82.4275 97.0765L99.0875 132.997H90.0275ZM87.7575 76.4365C85.0875 70.0765 78.7975 65.6065 71.4775 65.6065C66.5675 65.6065 62.1175 67.6265 58.9175 70.8765L50.6375 50.8565L49.6775 48.5465L90.0775 26.4165L116.798 67.9765L87.7675 76.4365H87.7575Z" fill="currentColor" class="penny-illustration-border"/>
<path d="M34.8775 87.2765L26.2375 66.4165C25.5175 64.6665 24.1575 63.3665 22.5475 62.6465C20.8375 61.8965 18.8375 61.8065 16.9775 62.5765L12.3875 64.4765C10.6375 65.1965 9.2775 66.5665 8.5475 68.3165C7.8175 70.0665 7.8175 71.9965 8.5475 73.7465L17.1875 94.6165C17.9075 96.3665 19.2775 97.7265 21.0275 98.4565C21.9075 98.8165 22.8175 98.9965 23.7375 98.9965C24.6575 98.9965 25.5775 98.8165 26.4475 98.4565L31.0375 96.5565C32.8975 95.7865 34.2475 94.3065 34.9275 92.5665C35.5675 90.9265 35.5975 89.0565 34.8775 87.3065V87.2765Z" fill="currentColor" class="penny-illustration-brand-primary"/>
<path d="M136.258 63.7865L114.567 11.3765C113.067 7.76653 108.918 6.04652 105.308 7.53652L100.717 9.43652C98.9675 10.1565 97.6075 11.5265 96.8775 13.2765C96.2175 14.8665 96.1675 16.6065 96.7075 18.2265C96.7575 18.3865 96.8175 18.5465 96.8775 18.7065L118.567 71.1165C118.637 71.2765 118.717 71.4165 118.798 71.5665C120.028 74.0165 122.507 75.4865 125.128 75.4865C126.028 75.4865 126.948 75.3165 127.827 74.9465L132.418 73.0465C134.168 72.3265 135.528 70.9565 136.258 69.2065C136.988 67.4565 136.988 65.5265 136.258 63.7765V63.7865Z" fill="currentColor" class="penny-illustration-brand-primary"/>
<path d="M71.4875 91.0265C75.7787 91.0265 79.2575 87.5478 79.2575 83.2565C79.2575 78.9653 75.7787 75.4865 71.4875 75.4865C67.1962 75.4865 63.7175 78.9653 63.7175 83.2565C63.7175 87.5478 67.1962 91.0265 71.4875 91.0265Z" fill="currentColor" class="penny-illustration-border"/>
<path d="M66.4874 115.117L62.9174 123.327H79.7974L72.4674 115.117H66.4874Z" fill="currentColor" class="penny-illustration-background"/>
<path d="M74.9774 100.557L90.0174 133.007H99.0674L82.4074 97.087C80.2674 98.787 77.7374 99.997 74.9674 100.557H74.9774Z" fill="currentColor" class="penny-illustration-background"/>
<path d="M60.8874 97.337L45.3974 132.997H54.3574L68.4174 100.617C65.6274 100.127 63.0674 98.977 60.8874 97.337Z" fill="currentColor" class="penny-illustration-background"/>
<path d="M49.6774 48.547L50.6374 50.857L58.9174 70.877C62.1174 67.627 66.5674 65.607 71.4774 65.607C78.7974 65.607 85.0774 70.087 87.7574 76.437L116.787 67.977L90.0674 26.417L49.6674 48.547H49.6774Z" fill="currentColor" class="penny-illustration-background"/>
<path d="M34.8774 87.277L35.2674 88.217L53.8974 82.107C54.0274 80.167 54.4474 78.307 55.1574 76.597L41.6474 57.477L25.8474 65.457L34.8774 87.267V87.277Z" fill="currentColor" class="penny-illustration-background"/>
<path d="M85.1374 83.257C85.1374 75.727 79.0174 69.607 71.4874 69.607C63.9574 69.607 57.8374 75.727 57.8374 83.257C57.8374 90.787 63.9574 96.907 71.4874 96.907C79.0174 96.907 85.1374 90.787 85.1374 83.257ZM71.4874 91.027C67.1974 91.027 63.7174 87.537 63.7174 83.257C63.7174 78.977 67.2074 75.487 71.4874 75.487C75.7674 75.487 79.2574 78.977 79.2574 83.257C79.2574 87.537 75.7674 91.027 71.4874 91.027Z" fill="currentColor" class="penny-illustration-background"/>
</svg>
