<svg viewBox="0 0 144 144" fill="none" xmlns="http://www.w3.org/2000/svg">
<path d="M28.53 85.5604L28.12 85.4305C25.88 84.7205 25.35 84.3905 25.35 82.8005C25.35 81.3905 26.79 80.2804 28.64 80.2804C30.73 80.2804 31.83 82.0505 31.83 83.8005H35.83C35.83 80.3005 33.64 77.4304 30.59 76.5604V74.3204H26.59V76.5405C23.53 77.3105 21.35 79.7905 21.35 82.8005C21.35 87.4805 24.83 88.5804 26.91 89.2404L27.29 89.3605C31.06 90.5905 32.68 91.9605 32.68 93.9705C32.68 96.1805 30.98 97.7905 28.64 97.7905C26.3 97.7905 24.5 95.9305 24.5 93.6505H20.5C20.5 97.4305 23.09 100.6 26.59 101.51V103.55H30.59V101.56C34.17 100.75 36.68 97.7605 36.68 93.9705C36.68 88.2005 30.76 86.2805 28.53 85.5505V85.5604Z" fill="currentColor" class="penny-illustration-border"/>
<path d="M67.61 79.0604H45.11V83.0604H67.61V79.0604Z" fill="currentColor" class="penny-illustration-border"/>
<path d="M121.5 110.56H94.5C93.3954 110.56 92.5 111.456 92.5 112.56V121.56C92.5 122.665 93.3954 123.56 94.5 123.56H121.5C122.605 123.56 123.5 122.665 123.5 121.56V112.56C123.5 111.456 122.605 110.56 121.5 110.56Z" fill="currentColor" class="penny-illustration-brand-primary"/>
<path d="M135 61.0605H120.73L131.97 31.1905C132.36 30.1605 131.84 29.0005 130.8 28.6105L107.72 19.9205C107.22 19.7405 106.67 19.7505 106.19 19.9705C105.71 20.1905 105.33 20.5905 105.14 21.0905L90.1 61.0504H9C7.9 61.0504 7 61.9504 7 63.0504V112.55C7 112.68 7.01 112.81 7.04 112.94C7.07 113.11 7.14 113.27 7.21 113.42C7.23 113.46 7.25 113.5 7.27 113.54C7.36 113.69 7.46 113.84 7.58 113.96L30.08 136.46C30.17 136.55 30.28 136.64 30.39 136.71C30.45 136.75 30.52 136.78 30.59 136.82C30.64 136.84 30.68 136.87 30.73 136.9C30.8 136.93 30.88 136.95 30.96 136.97C31.01 136.98 31.05 137 31.1 137.01C31.22 137.03 31.34 137.04 31.46 137.05C31.47 137.05 31.48 137.05 31.49 137.05H134.99C136.09 137.05 136.99 136.15 136.99 135.05V63.0605C136.99 61.9605 136.09 61.0605 134.99 61.0605H135ZM108.18 24.3805L127.52 31.6605L110.54 76.7905L91.2 69.5104L108.18 24.3705V24.3805ZM107.68 79.9904L101.3 85.0005L93.66 82.1304L92.74 81.7804L91.25 73.8104L107.69 79.9904H107.68ZM133 133.06H33.5V112.56C33.5 111.46 32.6 110.56 31.5 110.56H11V65.0605H88.6L86.75 69.9804C86.62 70.3204 86.59 70.6905 86.66 71.0505L89.01 83.5805L90.43 92.7205H45.01V96.7205H92.76C92.9 96.7205 93.04 96.7004 93.18 96.6704C93.22 96.6704 93.26 96.6504 93.3 96.6404C93.42 96.6104 93.53 96.5605 93.64 96.5105C93.66 96.5105 93.68 96.5004 93.7 96.4904L133 75.4105V133.07V133.06Z" fill="currentColor" class="penny-illustration-border"/>
<path d="M106.19 19.9805C106.67 19.7605 107.22 19.7405 107.72 19.9305L130.8 28.6205C131.83 29.0105 132.36 30.1605 131.97 31.2005L135.71 21.2705C136.37 19.5205 136.16 17.5205 135.15 15.7805C134.2 14.1405 132.63 12.8505 130.73 12.1305L118.64 7.58045C114.58 6.05045 110.2 7.66045 108.88 11.1705L105.14 21.1005C105.33 20.6005 105.7 20.2005 106.19 19.9805Z" fill="currentColor" class="penny-illustration-brand-primary"/>
<path d="M93.64 96.5002C93.53 96.5502 93.42 96.6001 93.3 96.6301C93.26 96.6401 93.22 96.6502 93.18 96.6602C93.04 96.6902 92.9 96.7102 92.76 96.7102H45.01V92.7102H90.43L89.01 83.5701L86.66 71.0401C86.59 70.6801 86.63 70.3101 86.75 69.9701L88.6 65.0501H11V110.55H31.5C32.6 110.55 33.5 111.45 33.5 112.55V133.05H133V75.3901L93.7 96.4702C93.7 96.4702 93.66 96.4802 93.64 96.4902V96.5002ZM45.11 79.0601H67.61V83.0601H45.11V79.0601ZM30.59 101.57V103.56H26.59V101.52C23.09 100.61 20.5 97.4302 20.5 93.6602H24.5C24.5 95.9402 26.36 97.8002 28.64 97.8002C30.92 97.8002 32.68 96.1902 32.68 93.9802C32.68 91.9702 31.07 90.6002 27.29 89.3702L26.91 89.2502C24.83 88.5902 21.35 87.4801 21.35 82.8101C21.35 79.7901 23.53 77.3202 26.59 76.5502V74.3302H30.59V76.5701C33.64 77.4401 35.83 80.3101 35.83 83.8101H31.83C31.83 82.0601 30.73 80.2901 28.64 80.2901C26.8 80.2901 25.35 81.4001 25.35 82.8101C25.35 84.4001 25.87 84.7302 28.12 85.4402L28.53 85.5701C30.76 86.2901 36.68 88.2202 36.68 93.9902C36.68 97.7902 34.17 100.78 30.59 101.58V101.57ZM121.5 110.56C122.6 110.56 123.5 111.46 123.5 112.56V121.56C123.5 122.66 122.6 123.56 121.5 123.56H94.5C93.4 123.56 92.5 122.66 92.5 121.56V112.56C92.5 111.46 93.4 110.56 94.5 110.56H121.5Z" fill="currentColor" class="penny-illustration-background"/>
<path d="M108.179 24.3818L91.1971 69.5127L110.543 76.792L127.524 31.6612L108.179 24.3818Z" fill="currentColor" class="penny-illustration-background"/>
<path d="M93.66 82.1202L101.3 85.0001L107.68 79.9901L91.24 73.8002L92.73 81.7801L93.66 82.1202Z" fill="currentColor" class="penny-illustration-background"/>
</svg>
