<svg viewBox="0 0 144 144" fill="none" xmlns="http://www.w3.org/2000/svg">
<path d="M135.41 22.9597C100.2 15.6597 86.16 23.1897 71.3 31.1697L71.12 31.2697C69.99 31.8697 68.84 32.4997 67.66 33.1397C53.45 40.8697 35.77 50.4897 9.01001 50.4897C7.91001 50.4897 7.01001 51.3897 7.01001 52.4897V122.08C7.01001 123.18 7.91001 124.08 9.01001 124.08C36.79 124.08 54.97 114.19 69.58 106.24C70.75 105.6 71.9 104.98 73.01 104.38L73.19 104.28C75.26 103.17 77.31 102.07 79.42 101.02C79.16 99.6497 79.01 98.2397 79.01 96.7897C79.01 96.7797 79.01 96.7697 79.01 96.7497C76.39 98.0197 73.86 99.3797 71.3 100.75L71.12 100.85C69.99 101.45 68.84 102.08 67.66 102.72C53.81 110.26 36.65 119.59 11.01 120.06V54.4797C37.67 54.0197 55.32 44.4097 69.58 36.6597C70.75 36.0197 71.9 35.3997 73.01 34.7997L73.19 34.6997C87.17 27.1897 100.39 20.0997 133 26.5597V92.0797C129.28 91.3597 125.82 90.8197 122.56 90.4297C122.96 91.7597 123.24 93.1497 123.38 94.5697C126.85 95.0197 130.57 95.6497 134.59 96.4797C135.18 96.5997 135.79 96.4497 136.26 96.0697C136.73 95.6897 137 95.1197 137 94.5197V24.9197C137 23.9697 136.33 23.1497 135.41 22.9597Z" fill="currentColor" class="penny-illustration-border"/>
<path d="M127.2 73.5697C128.3 73.5697 129.2 72.6697 129.2 71.5697V42.7297C129.2 41.6297 128.3 40.7297 127.2 40.7297C121.99 40.7297 115.91 38.2997 115.91 31.4597C115.91 31.0697 115.93 30.6997 115.97 30.3197C116.02 29.7697 115.85 29.2297 115.49 28.8097C115.13 28.3897 114.61 28.1497 114.07 28.1197C94.3 27.2597 84.46 32.6297 74.05 38.3197C73.05 38.8597 72.04 39.4197 71.02 39.9697C68.87 41.1297 66.73 42.3397 64.66 43.5197C55.35 48.8097 45.72 54.2897 29.77 57.2897C28.75 57.4797 28.05 58.4197 28.15 59.4397C28.18 59.7997 28.21 60.1597 28.21 60.5297C28.21 67.3697 22.13 69.7997 16.92 69.7997C15.82 69.7997 14.92 70.6997 14.92 71.7997V100.84C14.92 101.94 15.82 102.84 16.92 102.84C22.95 102.84 27.44 106.4 28.11 111.7C28.18 112.25 28.47 112.74 28.92 113.07C29.26 113.32 29.68 113.45 30.1 113.45C30.22 113.45 30.35 113.44 30.47 113.42C47.1 110.29 57.04 104.64 66.64 99.1797C68.68 98.0197 70.8 96.8197 72.91 95.6797C73.95 95.1197 74.96 94.5697 75.97 94.0197C77.16 93.3697 78.34 92.7297 79.51 92.0997C79.93 90.1597 80.6 88.3197 81.49 86.5997C78.95 87.8297 76.52 89.1597 74.06 90.4997C73.06 91.0397 72.06 91.5897 71.03 92.1497C68.88 93.2997 66.74 94.5197 64.68 95.6897C55.74 100.77 46.5 106.02 31.67 109.09C30.09 103.53 25.21 99.6197 18.94 98.9297V73.6897C26.84 72.9797 32.05 68.0197 32.22 60.8597C47.82 57.6697 57.39 52.2297 66.65 46.9597C68.7 45.7997 70.81 44.5897 72.92 43.4597C73.96 42.8997 74.97 42.3497 75.98 41.7997C85.95 36.3597 94.58 31.6197 111.94 32.0197C112.22 39.0397 117.4 43.8997 125.21 44.5997V69.6397C119.64 70.2497 115.18 73.3897 113.14 77.9697C114.32 78.7197 115.42 79.5697 116.43 80.5197C117.81 76.2697 121.9 73.5397 127.2 73.5397V73.5697Z" fill="currentColor" class="penny-illustration-border"/>
<path d="M69.56 65.1197L69.09 64.9697C66.56 64.1697 65.74 63.7397 65.74 61.6997C65.74 59.8997 67.47 58.5497 69.77 58.5497C72.07 58.5497 73.69 60.3597 73.69 62.8397H77.69C77.69 58.8397 75.25 55.6897 71.77 54.7997V52.7697H67.77V54.7697C64.27 55.5397 61.74 58.3097 61.74 61.6997C61.74 66.8297 65.58 68.0497 67.88 68.7797L68.32 68.9197C72.76 70.3597 74.65 72.0197 74.65 74.4497C74.65 77.1297 72.6 79.0797 69.76 79.0797C66.92 79.0797 64.76 76.8397 64.76 74.0797H60.76C60.76 78.3497 63.76 81.9297 67.76 82.8397V84.8397H71.76V82.8597C75.8 82.0197 78.65 78.6797 78.65 74.4397C78.65 68.0697 72.04 65.9197 69.55 65.1097L69.56 65.1197Z" fill="currentColor" class="penny-illustration-border"/>
<path d="M116.43 80.5497C115.42 79.5997 114.31 78.7497 113.14 77.9997C109.7 75.8197 105.62 74.5497 101.26 74.5497C92.66 74.5497 85.19 79.4597 81.49 86.6097C80.6 88.3297 79.93 90.1697 79.51 92.1097C79.19 93.6097 79.01 95.1697 79.01 96.7597C79.01 96.7697 79.01 96.7797 79.01 96.7997C79.01 98.2497 79.15 99.6597 79.42 101.03C81.4 111.28 90.44 119.05 101.26 119.05C113.53 119.05 123.51 109.07 123.51 96.7997C123.51 96.0397 123.47 95.2997 123.4 94.5597C123.26 93.1397 122.98 91.7497 122.58 90.4197C121.43 86.5997 119.29 83.2097 116.45 80.5497H116.43ZM111.87 98.7497L104.59 106.03L101.76 103.2L105.63 99.3297H90V95.3297H105.63L101.76 91.4597L104.59 88.6297L111.87 95.9097C112.25 96.2897 112.46 96.7897 112.46 97.3197C112.46 97.8497 112.25 98.3597 111.87 98.7297V98.7497Z" fill="currentColor" class="penny-illustration-brand-primary"/>
<path d="M75.96 94.03C74.95 94.58 73.94 95.13 72.9 95.69C70.79 96.82 68.68 98.02 66.63 99.19C57.02 104.65 47.09 110.3 30.46 113.43C30.34 113.45 30.21 113.46 30.09 113.46C29.67 113.46 29.26 113.33 28.91 113.08C28.46 112.75 28.17 112.26 28.1 111.71C27.44 106.41 22.94 102.85 16.91 102.85C15.81 102.85 14.91 101.95 14.91 100.85V71.81C14.91 70.71 15.81 69.81 16.91 69.81C22.12 69.81 28.2 67.38 28.2 60.54C28.2 60.17 28.18 59.81 28.14 59.45C28.04 58.42 28.74 57.49 29.76 57.3C45.71 54.29 55.34 48.82 64.65 43.53C66.72 42.36 68.85 41.14 71.01 39.98C72.04 39.43 73.05 38.88 74.04 38.33C84.45 32.64 94.29 27.27 114.06 28.13C114.61 28.15 115.12 28.4 115.48 28.82C115.84 29.24 116.01 29.78 115.96 30.33C115.92 30.71 115.9 31.08 115.9 31.47C115.9 38.31 121.98 40.74 127.19 40.74C128.29 40.74 129.19 41.64 129.19 42.74V71.58C129.19 72.68 128.29 73.58 127.19 73.58C121.89 73.58 117.8 76.31 116.42 80.56C119.26 83.22 121.41 86.61 122.55 90.43C125.81 90.83 129.27 91.37 132.99 92.08V26.56C100.38 20.1 87.16 27.2 73.17 34.7L72.99 34.8C71.87 35.4 70.73 36.02 69.56 36.66C55.31 44.42 37.65 54.02 10.99 54.48V120.07C36.64 119.61 53.79 110.27 67.64 102.73C68.82 102.09 69.97 101.46 71.1 100.86L71.28 100.76C73.84 99.39 76.37 98.03 78.99 96.76C78.99 95.16 79.17 93.61 79.49 92.11C78.32 92.73 77.14 93.37 75.95 94.03H75.96Z" fill="currentColor" class="penny-illustration-background"/>
<path d="M125.2 44.64C117.39 43.94 112.2 39.08 111.93 32.06C94.57 31.65 85.94 36.39 75.97 41.84C74.96 42.39 73.95 42.94 72.91 43.5C70.8 44.63 68.68 45.84 66.64 47C57.37 52.27 47.81 57.71 32.21 60.9C32.04 68.05 26.83 73.01 18.93 73.73V98.97C25.2 99.66 30.09 103.57 31.66 109.13C46.49 106.06 55.73 100.81 64.67 95.73C66.74 94.56 68.87 93.34 71.02 92.19C72.05 91.64 73.05 91.09 74.05 90.54C76.51 89.19 78.95 87.87 81.48 86.64C85.18 79.48 92.65 74.58 101.25 74.58C105.62 74.58 109.69 75.85 113.13 78.03C115.17 73.45 119.63 70.31 125.2 69.7V44.64ZM71.77 82.87V84.85H67.77V82.85C63.77 81.94 60.77 78.36 60.77 74.09H64.77C64.77 76.85 67.01 79.09 69.77 79.09C72.53 79.09 74.66 77.14 74.66 74.46C74.66 72.03 72.77 70.38 68.33 68.93L67.89 68.79C65.59 68.06 61.75 66.84 61.75 61.71C61.75 58.32 64.28 55.56 67.78 54.78V52.78H71.78V54.81C75.26 55.69 77.7 58.85 77.7 62.85H73.7C73.7 60.36 72.05 58.56 69.78 58.56C67.51 58.56 65.75 59.91 65.75 61.71C65.75 63.74 66.57 64.17 69.1 64.98L69.57 65.13C72.06 65.94 78.67 68.09 78.67 74.46C78.67 78.71 75.82 82.05 71.78 82.88L71.77 82.87Z" fill="currentColor" class="penny-illustration-background"/>
<path d="M104.59 88.64L101.76 91.47L105.63 95.34H90V99.34H105.63L101.76 103.21L104.59 106.04L111.87 98.76C112.25 98.38 112.46 97.88 112.46 97.35C112.46 96.82 112.25 96.31 111.87 95.94L104.59 88.66V88.64Z" fill="currentColor" class="penny-illustration-background"/>
</svg>
