<svg viewBox="0 0 144 144" fill="none" xmlns="http://www.w3.org/2000/svg">
<path d="M135.41 22.96C100.2 15.66 86.16 23.19 71.3 31.17L71.12 31.27C69.99 31.87 68.84 32.5 67.66 33.14C53.45 40.87 35.77 50.49 9.01001 50.49C7.91001 50.49 7.01001 51.39 7.01001 52.49V122.08C7.01001 123.18 7.91001 124.08 9.01001 124.08C36.79 124.08 54.97 114.19 69.58 106.24C70.75 105.6 71.9 104.98 73.01 104.38L73.19 104.28C75.26 103.17 77.31 102.07 79.42 101.02C79.16 99.65 79.01 98.24 79.01 96.79C79.01 96.78 79.01 96.77 79.01 96.75C76.39 98.02 73.86 99.38 71.3 100.75L71.12 100.85C69.99 101.45 68.84 102.08 67.66 102.72C53.81 110.26 36.65 119.59 11.01 120.06V54.48C37.67 54.02 55.32 44.41 69.58 36.66C70.75 36.02 71.9 35.4 73.01 34.8L73.19 34.7C87.17 27.19 100.39 20.1 133 26.56V92.08C129.28 91.36 125.82 90.82 122.56 90.43C122.96 91.76 123.24 93.15 123.38 94.57C126.85 95.02 130.57 95.65 134.59 96.48C135.18 96.6 135.79 96.45 136.26 96.07C136.73 95.69 137 95.12 137 94.52V24.92C137 23.97 136.33 23.15 135.41 22.96Z" fill="currentColor" class="penny-illustration-border"/>
<path d="M127.2 73.57C128.3 73.57 129.2 72.67 129.2 71.57V42.73C129.2 41.63 128.3 40.73 127.2 40.73C121.99 40.73 115.91 38.3 115.91 31.46C115.91 31.07 115.93 30.7 115.97 30.32C116.02 29.77 115.85 29.23 115.49 28.81C115.13 28.39 114.61 28.15 114.07 28.12C94.3 27.26 84.46 32.63 74.05 38.32C73.05 38.86 72.04 39.42 71.02 39.97C68.87 41.13 66.73 42.34 64.66 43.52C55.35 48.81 45.72 54.29 29.77 57.29C28.75 57.48 28.05 58.42 28.15 59.44C28.18 59.8 28.21 60.16 28.21 60.53C28.21 67.37 22.13 69.8 16.92 69.8C15.82 69.8 14.92 70.7 14.92 71.8V100.84C14.92 101.94 15.82 102.84 16.92 102.84C22.95 102.84 27.44 106.4 28.11 111.7C28.18 112.25 28.47 112.74 28.92 113.07C29.26 113.32 29.68 113.45 30.1 113.45C30.22 113.45 30.35 113.44 30.47 113.42C47.1 110.29 57.04 104.64 66.64 99.18C68.68 98.02 70.8 96.82 72.91 95.68C73.95 95.12 74.96 94.57 75.97 94.02C77.16 93.37 78.34 92.73 79.51 92.1C79.93 90.16 80.6 88.32 81.49 86.6C78.95 87.83 76.52 89.16 74.06 90.5C73.06 91.04 72.06 91.59 71.03 92.15C68.88 93.3 66.74 94.52 64.68 95.69C55.74 100.77 46.5 106.02 31.67 109.09C30.09 103.53 25.21 99.62 18.94 98.93V73.69C26.84 72.98 32.05 68.02 32.22 60.86C47.82 57.67 57.39 52.23 66.65 46.96C68.7 45.8 70.81 44.59 72.92 43.46C73.96 42.9 74.97 42.35 75.98 41.8C85.95 36.36 94.58 31.62 111.94 32.02C112.22 39.04 117.4 43.9 125.21 44.6V69.64C119.64 70.25 115.18 73.39 113.14 77.97C114.32 78.72 115.42 79.57 116.43 80.52C117.81 76.27 121.9 73.54 127.2 73.54V73.57Z" fill="currentColor" class="penny-illustration-border"/>
<path d="M69.56 65.12L69.09 64.97C66.56 64.17 65.74 63.74 65.74 61.7C65.74 59.9 67.47 58.55 69.77 58.55C72.07 58.55 73.69 60.36 73.69 62.84H77.69C77.69 58.84 75.25 55.69 71.77 54.8V52.77H67.77V54.77C64.27 55.54 61.74 58.31 61.74 61.7C61.74 66.83 65.58 68.05 67.88 68.78L68.32 68.92C72.76 70.36 74.65 72.02 74.65 74.45C74.65 77.13 72.6 79.08 69.76 79.08C66.92 79.08 64.76 76.84 64.76 74.08H60.76C60.76 78.35 63.76 81.93 67.76 82.84V84.84H71.76V82.86C75.8 82.02 78.65 78.68 78.65 74.44C78.65 68.07 72.04 65.92 69.55 65.11L69.56 65.12Z" fill="currentColor" class="penny-illustration-border"/>
<path d="M116.43 80.55C115.42 79.6 114.31 78.75 113.14 78C109.7 75.82 105.62 74.55 101.26 74.55C92.66 74.55 85.19 79.46 81.49 86.61C80.6 88.33 79.93 90.17 79.51 92.11C79.19 93.61 79.01 95.17 79.01 96.76C79.01 96.77 79.01 96.78 79.01 96.8C79.01 98.25 79.15 99.66 79.42 101.03C81.4 111.28 90.44 119.05 101.26 119.05C113.53 119.05 123.51 109.07 123.51 96.8C123.51 96.04 123.47 95.3 123.4 94.56C123.26 93.14 122.98 91.75 122.58 90.42C121.43 86.6 119.29 83.21 116.45 80.55H116.43ZM111.87 98.75L104.59 106.03L101.76 103.2L105.63 99.33H90V95.33H105.63L101.76 91.46L104.59 88.63L111.87 95.91C112.25 96.29 112.46 96.79 112.46 97.32C112.46 97.85 112.25 98.36 111.87 98.73V98.75Z" fill="currentColor" class="penny-illustration-brand-primary"/>
<path d="M75.96 94.03C74.95 94.58 73.94 95.13 72.9 95.69C70.79 96.82 68.68 98.02 66.63 99.19C57.02 104.65 47.09 110.3 30.46 113.43C30.34 113.45 30.21 113.46 30.09 113.46C29.67 113.46 29.26 113.33 28.91 113.08C28.46 112.75 28.17 112.26 28.1 111.71C27.44 106.41 22.94 102.85 16.91 102.85C15.81 102.85 14.91 101.95 14.91 100.85V71.81C14.91 70.71 15.81 69.81 16.91 69.81C22.12 69.81 28.2 67.38 28.2 60.54C28.2 60.17 28.18 59.81 28.14 59.45C28.04 58.42 28.74 57.49 29.76 57.3C45.71 54.29 55.34 48.82 64.65 43.53C66.72 42.36 68.85 41.14 71.01 39.98C72.04 39.43 73.05 38.88 74.04 38.33C84.45 32.64 94.29 27.27 114.06 28.13C114.61 28.15 115.12 28.4 115.48 28.82C115.84 29.24 116.01 29.78 115.96 30.33C115.92 30.71 115.9 31.08 115.9 31.47C115.9 38.31 121.98 40.74 127.19 40.74C128.29 40.74 129.19 41.64 129.19 42.74V71.58C129.19 72.68 128.29 73.58 127.19 73.58C121.89 73.58 117.8 76.31 116.42 80.56C119.26 83.22 121.41 86.61 122.55 90.43C125.81 90.83 129.27 91.37 132.99 92.08V26.56C100.38 20.1 87.16 27.2 73.17 34.7L72.99 34.8C71.87 35.4 70.73 36.02 69.56 36.66C55.31 44.42 37.65 54.02 10.99 54.48V120.07C36.64 119.61 53.79 110.27 67.64 102.73C68.82 102.09 69.97 101.46 71.1 100.86L71.28 100.76C73.84 99.39 76.37 98.03 78.99 96.76C78.99 95.16 79.17 93.61 79.49 92.11C78.32 92.73 77.14 93.37 75.95 94.03H75.96Z" fill="currentColor" class="penny-illustration-background"/>
<path d="M125.2 44.64C117.39 43.94 112.2 39.08 111.93 32.06C94.57 31.65 85.94 36.39 75.97 41.84C74.96 42.39 73.95 42.94 72.91 43.5C70.8 44.63 68.68 45.84 66.64 47C57.37 52.27 47.81 57.71 32.21 60.9C32.04 68.05 26.83 73.01 18.93 73.73V98.97C25.2 99.66 30.09 103.57 31.66 109.13C46.49 106.06 55.73 100.81 64.67 95.73C66.74 94.56 68.87 93.34 71.02 92.19C72.05 91.64 73.05 91.09 74.05 90.54C76.51 89.19 78.95 87.87 81.48 86.64C85.18 79.48 92.65 74.58 101.25 74.58C105.62 74.58 109.69 75.85 113.13 78.03C115.17 73.45 119.63 70.31 125.2 69.7V44.64ZM71.77 82.87V84.85H67.77V82.85C63.77 81.94 60.77 78.36 60.77 74.09H64.77C64.77 76.85 67.01 79.09 69.77 79.09C72.53 79.09 74.66 77.14 74.66 74.46C74.66 72.03 72.77 70.38 68.33 68.93L67.89 68.79C65.59 68.06 61.75 66.84 61.75 61.71C61.75 58.32 64.28 55.56 67.78 54.78V52.78H71.78V54.81C75.26 55.69 77.7 58.85 77.7 62.85H73.7C73.7 60.36 72.05 58.56 69.78 58.56C67.51 58.56 65.75 59.91 65.75 61.71C65.75 63.74 66.57 64.17 69.1 64.98L69.57 65.13C72.06 65.94 78.67 68.09 78.67 74.46C78.67 78.71 75.82 82.05 71.78 82.88L71.77 82.87Z" fill="currentColor" class="penny-illustration-background"/>
<path d="M104.59 88.64L101.76 91.47L105.63 95.34H90V99.34H105.63L101.76 103.21L104.59 106.04L111.87 98.76C112.25 98.38 112.46 97.88 112.46 97.35C112.46 96.82 112.25 96.31 111.87 95.94L104.59 88.66V88.64Z" fill="currentColor" class="penny-illustration-background"/>
</svg>
