<svg viewBox="0 0 144 144" fill="none" xmlns="http://www.w3.org/2000/svg">
<path d="M134.99 34.1751H132.99V97.1751C132.99 99.7251 131.78 101.985 129.91 103.435C129.25 103.955 128.52 104.345 127.75 104.625C127.69 104.645 127.62 104.675 127.56 104.695C127.22 104.805 126.88 104.895 126.53 104.955L98.29 85.9751C98.29 85.9751 98.2 85.9351 98.15 85.9051C98.08 85.8651 98.01 85.8251 97.93 85.7951C97.82 85.7451 97.71 85.7151 97.59 85.6951C97.54 85.6851 97.5 85.6551 97.45 85.6551C97.42 85.6551 97.4 85.6551 97.37 85.6551C97.24 85.6451 97.12 85.6551 96.99 85.6551C96.93 85.6551 96.86 85.6551 96.8 85.6751C96.67 85.7051 96.54 85.7451 96.41 85.8051C96.36 85.8251 96.3 85.8351 96.26 85.8651H96.24C96.08 85.9551 95.93 86.0651 95.8 86.1851C95.78 86.2051 95.77 86.2251 95.75 86.2451C95.63 86.3651 95.53 86.4951 95.45 86.6451C95.45 86.6551 95.43 86.6651 95.42 86.6751L85.47 105.095H20.88C19.79 105.095 18.74 104.875 17.8 104.475C14.95 103.265 12.95 100.445 12.95 97.1651V34.1751H34.13C35.23 34.1751 36.13 33.2751 36.13 32.1751V8.99512C36.13 7.89512 35.23 6.99512 34.13 6.99512H20.88C16.98 6.99512 13.52 8.88512 11.34 11.7851C8.57999 14.0651 6.98999 17.3951 6.98999 20.9751V99.2251C6.98999 105.805 12.34 111.155 18.92 111.155H95.18V133.265C95.18 134.595 96.04 135.765 97.31 136.175C98.58 136.575 99.95 136.115 100.72 135.025L108.41 124.105L115.01 135.975C115.27 136.435 115.7 136.785 116.21 136.925C116.39 136.975 116.57 137.005 116.76 137.005C117.1 137.005 117.43 136.925 117.73 136.755L128.03 131.025C128.49 130.765 128.84 130.335 128.98 129.825C129.13 129.315 129.06 128.765 128.81 128.305L122.46 116.875L134.01 116.665C135.35 116.645 136.5 115.765 136.88 114.475C137.26 113.195 136.77 111.825 135.66 111.085L131.13 108.035C131.66 107.545 132.16 107.015 132.6 106.425C135.29 104.235 137.01 100.905 137.01 97.1751V32.1751C137.01 33.2751 136.11 34.1751 135.01 34.1751H134.99ZM12.95 19.9651V18.9251C12.95 18.5751 12.98 18.2251 13.03 17.8751C13.04 17.7851 13.06 17.6951 13.07 17.5951C13.12 17.2851 13.19 16.9851 13.28 16.6851C13.29 16.6451 13.3 16.6051 13.31 16.5751C13.41 16.2551 13.54 15.9451 13.68 15.6351C13.72 15.5451 13.76 15.4651 13.8 15.3751C13.95 15.0751 14.11 14.7851 14.3 14.5051C15.73 12.3851 18.15 10.9851 20.89 10.9851H32.14V30.1651H12.95V19.9551V19.9651ZM119.05 112.925C118.35 112.935 117.7 113.315 117.35 113.925C117 114.535 116.99 115.285 117.34 115.895L124.34 128.485L117.53 132.265L110.36 119.355C110.03 118.755 109.41 118.365 108.72 118.325C108.68 118.325 108.65 118.325 108.61 118.325C107.96 118.325 107.35 118.635 106.97 119.175L99.18 130.245V91.3851L130.9 112.705L119.05 112.925Z" fill="currentColor" class="penny-illustration-border"/>
<path d="M125.06 6.99512H34.13C35.23 6.99512 36.13 7.89512 36.13 8.99512V32.1751C36.13 33.2751 35.23 34.1751 34.13 34.1751H134.99C136.09 34.1751 136.99 33.2751 136.99 32.1751V18.9251C136.99 12.3451 131.64 6.99512 125.06 6.99512Z" fill="currentColor" class="penny-illustration-brand-primary"/>
<path d="M27.07 14.1651L22.88 18.3551L18.69 14.1651L15.86 16.9851L20.06 21.1851L15.86 25.3751L18.69 28.1951L22.88 24.0051L27.07 28.1951L29.9 25.3751L25.71 21.1851L29.9 16.9851L27.07 14.1651Z" fill="currentColor" class="penny-illustration-border"/>
<path d="M95.41 67.6251C95.41 73.4951 90.63 78.2751 84.76 78.2751H79.57V82.2751H84.76C92.84 82.2751 99.41 75.7051 99.41 67.6251C99.41 59.5451 92.84 52.9751 84.76 52.9751H79.57V56.9751H84.76C90.63 56.9751 95.41 61.7551 95.41 67.6251Z" fill="currentColor" class="penny-illustration-border"/>
<path d="M61.12 82.2751H66.31V78.2751H61.12C55.25 78.2751 50.47 73.4951 50.47 67.6251C50.47 61.7551 55.25 56.9751 61.12 56.9751H66.31V52.9751H61.12C53.04 52.9751 46.47 59.5451 46.47 67.6251C46.47 75.7051 53.04 82.2751 61.12 82.2751Z" fill="currentColor" class="penny-illustration-border"/>
<path d="M85.23 65.6251H60.66V69.6251H85.23V65.6251Z" fill="currentColor" class="penny-illustration-border"/>
<path d="M12.9499 97.1751C12.9499 100.455 14.9499 103.275 17.7999 104.485C18.7499 104.885 19.7899 105.105 20.8799 105.105H85.4699L95.4199 86.6851C95.4199 86.6851 95.4399 86.6651 95.4499 86.6551C95.5299 86.5051 95.6399 86.3751 95.7499 86.2551C95.7699 86.2351 95.7799 86.2151 95.7999 86.1951C95.9299 86.0651 96.0799 85.9651 96.2399 85.8751H96.2599C96.3099 85.8451 96.3599 85.8351 96.4099 85.8151C96.5399 85.7651 96.6699 85.7151 96.7999 85.6851C96.8599 85.6751 96.9299 85.6851 96.9899 85.6651C97.1199 85.6551 97.2499 85.6451 97.3699 85.6651C97.3999 85.6651 97.4199 85.6651 97.4499 85.6651C97.4999 85.6651 97.5399 85.6951 97.5899 85.7051C97.7099 85.7351 97.8199 85.7651 97.9299 85.8051C98.0099 85.8351 98.0799 85.8751 98.1499 85.9151C98.2 85.9451 98.2399 85.9551 98.2899 85.9851L126.53 104.965C126.88 104.895 127.22 104.815 127.56 104.705C127.62 104.685 127.69 104.655 127.75 104.635C128.52 104.355 129.24 103.965 129.91 103.445C131.78 101.995 132.99 99.7251 132.99 97.1851V34.1751H12.9499V97.1751ZM79.5699 52.9751H84.7599C92.8399 52.9751 99.4099 59.5451 99.4099 67.6251C99.4099 75.7051 92.8399 82.2751 84.7599 82.2751H79.5699V78.2751H84.7599C90.6299 78.2751 95.4099 73.4951 95.4099 67.6251C95.4099 61.7551 90.6299 56.9751 84.7599 56.9751H79.5699V52.9751ZM60.6599 69.6251V65.6251H85.2299V69.6251H60.6599ZM61.1199 52.9751H66.3099V56.9751H61.1199C55.2499 56.9751 50.4699 61.7551 50.4699 67.6251C50.4699 73.4951 55.2499 78.2751 61.1199 78.2751H66.3099V82.2751H61.1199C53.0399 82.2751 46.4699 75.7051 46.4699 67.6251C46.4699 59.5451 53.0399 52.9751 61.1199 52.9751Z" fill="currentColor" class="penny-illustration-background"/>
<path d="M32.1299 10.9951H20.8799C18.1399 10.9951 15.7199 12.3951 14.2899 14.5151C14.0999 14.7951 13.9399 15.0851 13.7899 15.3851C13.7499 15.4751 13.7099 15.5551 13.6699 15.6451C13.5299 15.9551 13.3999 16.2651 13.2999 16.5851C13.2899 16.6251 13.2799 16.6651 13.2699 16.6951C13.1799 16.9951 13.1199 17.2951 13.0599 17.6051C13.0399 17.6951 13.0299 17.7851 13.0199 17.8851C12.9699 18.2351 12.9399 18.5751 12.9399 18.9351V30.1851H32.1199V10.9951H32.1299ZM29.8999 25.3751L27.0699 28.2051L22.8799 24.0151L18.6899 28.2051L15.8599 25.3751L20.0499 21.1851L15.8599 16.9951L18.6899 14.1651L22.8799 18.3551L27.0699 14.1651L29.8999 16.9951L25.7099 21.1851L29.8999 25.3751Z" fill="currentColor" class="penny-illustration-background"/>
<path d="M99.1799 130.255L106.97 119.185C107.35 118.655 107.96 118.335 108.61 118.335C108.65 118.335 108.68 118.335 108.72 118.335C109.41 118.375 110.03 118.755 110.36 119.365L117.53 132.275L124.34 128.495L117.34 115.905C117 115.295 117 114.545 117.35 113.935C117.7 113.325 118.35 112.945 119.05 112.935L130.9 112.715L99.1799 91.3951V130.255Z" fill="currentColor" class="penny-illustration-background"/>
</svg>
