<svg viewBox="0 0 144 144" fill="none" xmlns="http://www.w3.org/2000/svg">
<path d="M70.56 66.51L69.64 66.22C64.6 64.62 61.51 63.35 61.51 57.74C61.51 53.06 65.94 49.4 71.61 49.4C77.28 49.4 81.49 53.97 81.49 60.03H85.49C85.49 52.41 80.51 46.52 73.61 45.56V40.52H69.61V45.54C62.69 46.37 57.51 51.42 57.51 57.75C57.51 66.57 63.82 68.58 68.43 70.04L69.33 70.33C75.9 72.46 83.44 75.87 83.44 83.33C83.44 89.88 78.47 94.64 71.62 94.64C64.77 94.64 59.58 89.24 59.58 82.6H55.58C55.58 90.77 61.72 97.51 69.62 98.5V103.52H73.62V98.51C81.62 97.61 87.44 91.39 87.44 83.32C87.44 72 75.18 68.01 70.57 66.51H70.56Z" fill="currentColor" class="penny-illustration-border"/>
<path d="M131.07 61.38C130.52 57.56 129.55 52.83 127.06 47.43C123.43 49.99 119.01 51.51 114.25 51.51C110.33 51.51 106.64 50.49 103.44 48.7L127.26 62.91C127.74 65.88 128 68.92 128 72.02C128 103.17 102.65 128.52 71.5 128.52C40.35 128.52 15 103.16 15 72.01C15 40.86 40.35 15.51 71.5 15.51C79.47 15.51 87.06 17.18 93.95 20.17C94.5 18.94 95.16 17.77 95.92 16.67C88.45 13.36 80.19 11.51 71.51 11.51C38.14 11.51 11 38.65 11 72.01C11 105.37 38.14 132.51 71.5 132.51C104.86 132.51 132 105.37 132 72.01C132 68.43 131.67 64.93 131.07 61.52C131.07 61.47 131.07 61.43 131.07 61.38Z" fill="currentColor" class="penny-illustration-border"/>
<path d="M102.39 48.07C102.3 48.01 102.2 47.95 102.11 47.89C102.13 47.91 102.15 47.93 102.17 47.94L102.39 48.07Z" fill="currentColor" class="penny-illustration-border"/>
<path d="M92 29.26C92 37.05 96.03 43.92 102.11 47.89C102.2 47.95 102.3 48.01 102.39 48.07C102.73 48.29 103.08 48.49 103.43 48.69C106.63 50.48 110.32 51.5 114.24 51.5C119.01 51.5 123.43 49.99 127.05 47.42C132.75 43.39 136.49 36.75 136.49 29.25C136.49 16.98 126.51 7 114.24 7C106.64 7 99.92 10.83 95.9 16.66C95.14 17.76 94.49 18.93 93.93 20.16C92.68 22.94 91.98 26.01 91.98 29.25L92 29.26ZM107.85 29.77L111.72 33.64V18.01H115.72V33.64L119.59 29.77L122.42 32.6L115.14 39.88C114.75 40.27 114.24 40.47 113.73 40.47C113.22 40.47 112.71 40.27 112.32 39.88L105.04 32.6L107.87 29.77H107.85Z" fill="currentColor" class="penny-illustration-brand-primary"/>
<path d="M102.18 47.9495C102.18 47.9495 102.14 47.9095 102.12 47.8995C96.04 43.9195 92.01 37.0595 92.01 29.2695C92.01 26.0295 92.71 22.9595 93.96 20.1795C87.07 17.1895 79.49 15.5195 71.51 15.5195C40.36 15.5195 15.01 40.8695 15.01 72.0195C15.01 103.17 40.36 128.52 71.51 128.52C102.66 128.52 128.01 103.17 128.01 72.0195C128.01 68.9195 127.75 65.8795 127.27 62.9095L103.45 48.6995C103.1 48.4995 102.75 48.2895 102.41 48.0795L102.19 47.9495H102.18ZM73.61 98.4995V103.51H69.61V98.4895C61.71 97.4995 55.57 90.7495 55.57 82.5895H59.57C59.57 89.2295 64.97 94.6295 71.61 94.6295C78.25 94.6295 83.43 89.8695 83.43 83.3195C83.43 75.8595 75.89 72.4495 69.32 70.3195L68.42 70.0295C63.81 68.5695 57.5 66.5595 57.5 57.7395C57.5 51.4195 62.67 46.3595 69.6 45.5295V40.5095H73.6V45.5495C80.49 46.5095 85.48 52.4095 85.48 60.0195H81.48C81.48 53.9595 77.23 49.3895 71.6 49.3895C65.97 49.3895 61.5 53.0495 61.5 57.7295C61.5 63.3395 64.59 64.6095 69.63 66.2095L70.55 66.4995C75.16 67.9995 87.42 71.9795 87.42 83.3095C87.42 91.3795 81.6 97.5995 73.6 98.4995H73.61Z" fill="currentColor" class="penny-illustration-background"/>
<path d="M113.72 40.4695C114.23 40.4695 114.74 40.2695 115.13 39.8795L122.41 32.5995L119.58 29.7695L115.71 33.6395V18.0095H111.71V33.6395L107.84 29.7695L105.01 32.5995L112.29 39.8795C112.68 40.2695 113.19 40.4695 113.7 40.4695H113.72Z" fill="currentColor" class="penny-illustration-background"/>
</svg>
