<svg viewBox="0 0 144 144" fill="none" xmlns="http://www.w3.org/2000/svg">
<path d="M74.25 88.35V74.49L73.33 74H69.66L68.74 74.49V88.35C68.74 93.68 66.17 98.68 61.85 101.75L42.86 115H100.13L81.14 101.75C76.82 98.68 74.25 93.68 74.25 88.35Z" fill="currentColor" class="penny-illustration-brand-primary"/>
<path d="M71.5 51.2C63.45 51.2 56.39 55.04 52.35 60.81L69.67 69.99H73.34L90.66 60.81C86.62 55.04 79.56 51.2 71.51 51.2H71.5Z" fill="currentColor" class="penny-illustration-brand-primary"/>
<path d="M114 39.51V29H116C119.86 29 123 25.86 123 22V14C123 10.14 119.86 7 116 7H27C23.14 7 20 10.14 20 14V22C20 25.86 23.14 29 27 29H29V39.51C29 47.81 33.52 55.36 40.81 59.22L64.91 72L40.81 84.78C33.53 88.64 29 96.2 29 104.49V115H27C23.14 115 20 118.14 20 122V130C20 133.86 23.14 137 27 137H116C119.86 137 123 133.86 123 130V122C123 118.14 119.86 115 116 115H114V104.49C114 96.19 109.48 88.64 102.19 84.78L78.09 72L102.19 59.22C109.47 55.36 114 47.8 114 39.51ZM27 25C25.35 25 24 23.65 24 22V14C24 12.35 25.35 11 27 11H116C117.65 11 119 12.35 119 14V22C119 23.65 117.65 25 116 25H27ZM116 119C117.65 119 119 120.35 119 122V130C119 131.65 117.65 133 116 133H27C25.35 133 24 131.65 24 130V122C24 120.35 25.35 119 27 119H116ZM100.32 88.31C106.29 91.48 110 97.68 110 104.49V114.99H33V104.49C33 97.68 36.71 91.48 42.68 88.31L68.75 74.49L69.67 74H73.34L74.26 74.49L100.33 88.31H100.32ZM90.65 60.81L73.33 69.99H69.66L42.68 55.69C36.71 52.52 33 46.32 33 39.51V38.12C46.63 29.91 80.04 29.01 94 29.01H110V39.52C110 46.33 106.29 52.53 100.32 55.7L90.66 60.82L90.65 60.81Z" fill="currentColor" class="penny-illustration-border"/>
<path d="M110 39.51V29H94C80.04 29 46.63 29.91 33 38.11V39.5C33 46.31 36.71 52.51 42.68 55.68L52.34 60.8C56.38 55.03 63.44 51.19 71.49 51.19C79.54 51.19 86.6 55.03 90.64 60.8L100.3 55.68C106.27 52.51 109.98 46.31 109.98 39.5L110 39.51Z" fill="currentColor" class="penny-illustration-background"/>
<path d="M74.25 88.35C74.25 93.68 76.82 98.68 81.14 101.75L100.13 115H110V104.5C110 97.69 106.29 91.49 100.32 88.32L74.25 74.5V88.36V88.35Z" fill="currentColor" class="penny-illustration-background"/>
<path d="M68.75 88.35V74.49L42.68 88.31C36.71 91.48 33 97.68 33 104.49V114.99H42.87L61.86 101.74C66.18 98.67 68.75 93.67 68.75 88.34V88.35Z" fill="currentColor" class="penny-illustration-background"/>
<path d="M116 119H27C25.3431 119 24 120.343 24 122V130C24 131.657 25.3431 133 27 133H116C117.657 133 119 131.657 119 130V122C119 120.343 117.657 119 116 119Z" fill="currentColor" class="penny-illustration-background"/>
<path d="M116 25C117.65 25 119 23.65 119 22V14C119 12.35 117.65 11 116 11H27C25.35 11 24 12.35 24 14V22C24 23.65 25.35 25 27 25H116Z" fill="currentColor" class="penny-illustration-background"/>
</svg>
