<svg viewBox="0 0 144 144" fill="none" xmlns="http://www.w3.org/2000/svg">
<path d="M92.18 111.135C89.1 112.745 85.86 114.005 82.51 114.865C80.44 115.395 79.16 117.455 79.61 119.565L82 130.975C75.06 132.195 67.89 132.205 60.92 130.975L63.33 119.575C63.78 117.465 62.5 115.405 60.43 114.875C56.27 113.825 52.29 112.165 48.58 109.955C47.94 109.575 47.25 109.395 46.55 109.395C45.25 109.395 43.97 110.045 43.2 111.225L36.83 120.975C31.02 116.905 26.01 111.895 21.93 106.065L31.69 99.715C33.5 98.535 34.05 96.175 32.96 94.345C30.75 90.635 29.1 86.655 28.04 82.495C27.52 80.425 25.46 79.145 23.35 79.595L11.94 81.985C11.33 78.515 11.02 74.975 11.02 71.455C11.02 67.935 11.33 64.395 11.95 60.905L23.35 63.315C25.46 63.765 27.52 62.485 28.04 60.415C29.09 56.255 30.75 52.275 32.96 48.565C34.06 46.725 33.5 44.365 31.69 43.185L21.94 36.815C26.01 31.005 31.02 25.995 36.85 21.915L43.2 31.685C44.37 33.485 46.74 34.045 48.58 32.955C52.29 30.745 56.27 29.095 60.43 28.035C62.5 27.505 63.78 25.445 63.33 23.345L60.94 11.935C67.87 10.715 75.05 10.705 82.02 11.935L79.61 23.335C79.16 25.445 80.44 27.505 82.51 28.025C86.67 29.075 90.65 30.735 94.36 32.945C96.2 34.035 98.56 33.485 99.73 31.675L106.1 21.925C111.91 25.995 116.92 31.005 121 36.835L111.23 43.185C109.42 44.355 108.87 46.725 109.96 48.555C112.17 52.255 113.82 56.245 114.88 60.405C115.4 62.475 117.46 63.755 119.58 63.305L130.99 60.915C131.6 64.385 131.91 67.925 131.91 71.445C131.91 74.965 131.6 78.505 130.98 81.995L119.58 79.585C117.46 79.145 115.41 80.415 114.88 82.485C114.03 85.845 112.77 89.085 111.15 92.165C112.15 92.025 113.17 91.945 114.21 91.945C114.72 91.945 115.21 91.965 115.71 92.005C116.99 89.265 118.01 86.415 118.75 83.505L130.15 85.915C131.22 86.135 132.31 85.925 133.21 85.315C134.11 84.705 134.73 83.745 134.92 82.675C135.57 78.975 135.9 75.205 135.9 71.445C135.9 67.685 135.57 63.915 134.92 60.215C134.73 59.145 134.11 58.185 133.21 57.575C132.3 56.965 131.22 56.755 130.15 56.975L118.76 59.415C117.61 54.885 115.81 50.535 113.41 46.525L123.17 40.175C124.09 39.575 124.7 38.665 124.91 37.585C125.12 36.515 124.88 35.395 124.25 34.505C119.91 28.315 114.57 22.975 108.38 18.635C107.49 18.005 106.36 17.775 105.3 17.975C104.23 18.185 103.31 18.805 102.71 19.715L96.38 29.495C92.34 27.085 88 25.285 83.5 24.145L85.91 12.745C86.14 11.675 85.92 10.585 85.31 9.685C84.7 8.785 83.74 8.165 82.67 7.975C75.28 6.675 67.61 6.675 60.22 7.975C59.15 8.165 58.19 8.785 57.58 9.685C56.97 10.595 56.76 11.675 56.98 12.745L59.42 24.135C54.89 25.285 50.54 27.085 46.53 29.485L40.18 19.715C39.58 18.795 38.67 18.185 37.59 17.975C36.53 17.775 35.4 18.005 34.51 18.635C28.32 22.975 22.98 28.315 18.64 34.505C18.02 35.395 17.77 36.525 17.98 37.585C18.19 38.655 18.81 39.575 19.72 40.175L29.5 46.505C27.09 50.545 25.29 54.885 24.15 59.385L12.75 56.975C11.68 56.745 10.59 56.965 9.69 57.575C8.79 58.185 8.17 59.145 7.98 60.215C7.33 63.915 7 67.695 7 71.445C7 75.195 7.33 78.975 7.98 82.675C8.17 83.745 8.79 84.705 9.69 85.315C10.6 85.925 11.68 86.135 12.75 85.915L24.14 83.475C25.29 88.005 27.09 92.355 29.49 96.355L19.73 102.705C18.81 103.305 18.2 104.215 17.99 105.295C17.78 106.365 18.02 107.485 18.65 108.375C22.99 114.565 28.33 119.905 34.52 124.245C35.41 124.875 36.54 125.105 37.6 124.905C38.67 124.695 39.59 124.075 40.19 123.165L46.52 113.385C50.56 115.795 54.9 117.595 59.4 118.735L56.99 130.135C56.76 131.205 56.98 132.295 57.59 133.195C58.2 134.095 59.16 134.715 60.23 134.905C63.93 135.555 67.71 135.885 71.46 135.885C75.21 135.885 78.99 135.555 82.69 134.905C83.76 134.715 84.72 134.095 85.33 133.195C85.94 132.285 86.15 131.205 85.93 130.135L83.49 118.745C86.43 118.005 89.28 116.975 92.02 115.695C91.99 115.195 91.96 114.695 91.96 114.195C91.96 113.155 92.04 112.135 92.18 111.135Z" fill="currentColor" class="penny-illustration-border"/>
<path d="M71.46 48.615C58.88 48.615 48.64 58.855 48.64 71.435C48.64 84.015 58.88 94.255 71.46 94.255C84.04 94.255 94.28 84.015 94.28 71.435C94.28 58.855 84.04 48.615 71.46 48.615ZM71.46 90.265C61.08 90.265 52.64 81.825 52.64 71.445C52.64 61.065 61.08 52.625 71.46 52.625C81.84 52.625 90.28 61.065 90.28 71.445C90.28 81.825 81.84 90.265 71.46 90.265Z" fill="currentColor" class="penny-illustration-border"/>
<path d="M115.71 91.995C115.21 91.965 114.71 91.935 114.21 91.935C113.17 91.935 112.15 92.015 111.15 92.155C101.32 93.515 93.53 101.305 92.17 111.135C92.03 112.135 91.95 113.155 91.95 114.195C91.95 114.695 91.97 115.195 92.01 115.695C92.79 127.265 102.44 136.445 114.2 136.445C125.96 136.445 136.45 126.465 136.45 114.195C136.45 101.925 127.27 92.775 115.7 92.005L115.71 91.995ZM114.24 128.875C112.82 128.875 111.39 128.675 109.98 128.255C104 126.495 99.95 121.305 99.32 115.455L97.12 117.475L94.41 114.525L100.29 109.135C101.11 108.385 102.37 108.445 103.12 109.255L108.51 115.135L105.56 117.845L103.34 115.425C103.52 116.715 103.92 117.975 104.56 119.145C105.96 121.725 108.29 123.595 111.1 124.425C114.72 125.495 118.59 124.645 121.44 122.155L124.07 125.165C121.29 127.595 117.8 128.875 114.23 128.875H114.24ZM128.13 118.635C127.76 118.975 127.28 119.165 126.78 119.165C126.75 119.165 126.72 119.165 126.69 119.165C126.16 119.145 125.66 118.915 125.3 118.515L119.91 112.635L122.86 109.935L125.08 112.355C124.9 111.065 124.5 109.805 123.86 108.625C122.46 106.045 120.13 104.175 117.32 103.345C113.69 102.275 109.83 103.125 106.98 105.615L104.35 102.605C108.24 99.205 113.51 98.055 118.46 99.505C124.44 101.265 128.49 106.465 129.12 112.305L131.32 110.285L134.03 113.235L128.15 118.625L128.13 118.635Z" fill="currentColor" class="penny-illustration-brand-primary"/>
<path d="M119.58 79.5852L130.98 81.9952C131.6 78.5052 131.91 74.9652 131.91 71.4452C131.91 67.9252 131.6 64.3852 130.99 60.9152L119.58 63.3052C117.47 63.7552 115.41 62.4752 114.88 60.4052C113.82 56.2452 112.17 52.2652 109.96 48.5552C108.86 46.7152 109.42 44.3552 111.23 43.1852L121 36.8352C116.92 31.0052 111.91 25.9952 106.1 21.9252L99.73 31.6752C98.55 33.4752 96.19 34.0352 94.36 32.9452C90.65 30.7352 86.67 29.0852 82.51 28.0252C80.44 27.5052 79.16 25.4352 79.61 23.3352L82.02 11.9352C75.05 10.7052 67.87 10.7052 60.94 11.9352L63.33 23.3452C63.78 25.4552 62.5 27.5152 60.43 28.0352C56.27 29.0852 52.29 30.7452 48.58 32.9552C46.74 34.0552 44.38 33.4952 43.2 31.6852L36.85 21.9152C31.02 25.9952 26.01 31.0052 21.94 36.8152L31.69 43.1852C33.5 44.3552 34.05 46.7252 32.96 48.5652C30.75 52.2652 29.1 56.2552 28.04 60.4152C27.52 62.4852 25.46 63.7652 23.35 63.3152L11.95 60.9052C11.33 64.3952 11.02 67.9352 11.02 71.4552C11.02 74.9752 11.33 78.5152 11.94 81.9852L23.35 79.5952C25.46 79.1452 27.52 80.4252 28.04 82.4952C29.09 86.6552 30.75 90.6352 32.96 94.3452C34.06 96.1852 33.5 98.5452 31.69 99.7152L21.93 106.065C26.01 111.895 31.02 116.905 36.83 120.975L43.2 111.225C43.97 110.045 45.24 109.395 46.55 109.395C47.24 109.395 47.94 109.575 48.58 109.955C52.28 112.165 56.27 113.815 60.43 114.875C62.5 115.405 63.77 117.465 63.33 119.575L60.92 130.975C67.9 132.215 75.07 132.205 82 130.975L79.61 119.565C79.16 117.455 80.44 115.395 82.51 114.865C85.87 114.015 89.11 112.755 92.18 111.135C93.54 101.305 101.33 93.5152 111.16 92.1552C112.77 89.0752 114.03 85.8352 114.89 82.4752C115.41 80.4052 117.46 79.1352 119.59 79.5752L119.58 79.5852ZM71.46 94.2652C58.88 94.2652 48.64 84.0252 48.64 71.4452C48.64 58.8652 58.88 48.6252 71.46 48.6252C84.04 48.6252 94.28 58.8652 94.28 71.4452C94.28 84.0252 84.04 94.2652 71.46 94.2652Z" fill="currentColor" class="penny-illustration-background"/>
<path d="M131.3 110.295L129.1 112.315C128.48 106.465 124.42 101.275 118.44 99.5152C113.5 98.0552 108.22 99.2152 104.33 102.615L106.96 105.625C109.81 103.135 113.67 102.285 117.3 103.355C120.11 104.185 122.44 106.065 123.84 108.635C124.48 109.815 124.88 111.075 125.06 112.365L122.84 109.945L119.89 112.645L125.28 118.525C125.64 118.915 126.14 119.145 126.67 119.175C126.7 119.175 126.73 119.175 126.76 119.175C127.26 119.175 127.74 118.985 128.11 118.645L133.99 113.255L131.28 110.305L131.3 110.295Z" fill="currentColor" class="penny-illustration-background"/>
<path d="M111.11 124.415C108.3 123.585 105.97 121.705 104.57 119.135C103.93 117.955 103.53 116.695 103.35 115.415L105.57 117.835L108.52 115.125L103.13 109.245C102.38 108.435 101.12 108.375 100.3 109.125L94.42 114.515L97.13 117.465L99.33 115.445C99.95 121.295 104.01 126.485 109.99 128.245C111.4 128.665 112.83 128.865 114.25 128.865C117.82 128.865 121.31 127.585 124.09 125.155L121.46 122.145C118.61 124.635 114.74 125.485 111.12 124.415H111.11Z" fill="currentColor" class="penny-illustration-background"/>
</svg>
