<svg viewBox="0 0 144 144" fill="none" xmlns="http://www.w3.org/2000/svg">
<path d="M130 33.5H106.01C106.26 34.91 106.59 36.24 106.98 37.5H130C131.65 37.5 133 38.85 133 40.5V107.5C133 109.15 131.65 110.5 130 110.5H14C12.35 110.5 11 109.15 11 107.5V40.5C11 38.85 12.35 37.5 14 37.5H18V80.5C18 84.36 21.14 87.5 25 87.5H62.5C66.28 87.5 69.36 84.49 69.49 80.74L76.72 37.5H100.04C100.43 36.24 100.76 34.91 101.01 33.5H69.5V14C69.5 10.14 66.36 7 62.5 7H25C21.14 7 18 10.14 18 14V33.5H14C10.14 33.5 7 36.64 7 40.5V107.5C7 111.36 10.14 114.5 14 114.5H47.5V124H36.5C32.64 124 29.5 127.14 29.5 131V135C29.5 136.1 30.4 137 31.5 137H112.5C113.6 137 114.5 136.1 114.5 135V131C114.5 127.14 111.36 124 107.5 124H96.5V114.5H130C133.86 114.5 137 111.36 137 107.5V40.5C137 36.64 133.86 33.5 130 33.5ZM22 14C22 12.35 23.35 11 25 11H30.36C30.94 12.52 32.41 13.61 34.13 13.61H50.88C52.6 13.61 54.07 12.52 54.65 11H60.01C61.66 11 63.01 12.35 63.01 14V80.5C63.01 82.15 61.66 83.5 60.01 83.5H25C23.35 83.5 22 82.15 22 80.5V14ZM51.5 118.81L92.5 114.71V124H51.5V118.81ZM107.5 128C109.15 128 110.5 129.35 110.5 131V133H33.5V131C33.5 129.35 34.85 128 36.5 128H107.5Z" fill="currentColor" class="penny-illustration-border"/>
<path d="M83.02 52.08C82.03 52.2 81.28 53.04 81.27 54.04C81.26 55.04 81.98 55.89 82.97 56.04C93.94 57.71 100.36 65.42 101.53 78.35C101.62 79.38 102.49 80.17 103.52 80.17C104.56 80.17 105.42 79.38 105.51 78.35C106.66 65.42 113.08 57.71 124.07 56.04C125.06 55.89 125.78 55.03 125.77 54.04C125.76 53.05 125.01 52.21 124.02 52.08C115.42 51.01 109.64 46.01 106.99 37.5C106.6 36.24 106.28 34.91 106.02 33.5C105.81 32.31 105.63 31.08 105.51 29.78C105.42 28.75 104.56 27.95 103.52 27.95C102.48 27.95 101.62 28.74 101.53 29.77C101.41 31.07 101.23 32.3 101.02 33.49C100.77 34.9 100.44 36.23 100.05 37.49C97.39 45.99 91.62 51 83.03 52.07L83.02 52.08Z" fill="currentColor" class="penny-illustration-brand-primary"/>
<path d="M124.01 52.08C125 52.2 125.75 53.04 125.76 54.04C125.77 55.04 125.05 55.89 124.06 56.04C113.07 57.71 106.65 65.42 105.5 78.35C105.41 79.38 104.54 80.17 103.51 80.17C102.48 80.17 101.61 79.38 101.52 78.35C100.35 65.42 93.93 57.71 82.96 56.04C81.97 55.89 81.25 55.03 81.26 54.04C81.27 53.05 82.02 52.21 83.01 52.08C91.6 51.01 97.37 46.01 100.03 37.5H76.71L69.48 80.74C69.35 84.49 66.27 87.5 62.49 87.5H25C21.14 87.5 18 84.36 18 80.5V37.5H14C12.35 37.5 11 38.85 11 40.5V107.5C11 109.15 12.35 110.5 14 110.5H130C131.65 110.5 133 109.15 133 107.5V40.5C133 38.85 131.65 37.5 130 37.5H106.98C109.63 46 115.41 51.01 124.01 52.08Z" fill="currentColor" class="penny-illustration-background"/>
<path d="M92.5 114.71L51.5 118.81V124H92.5V114.71Z" fill="currentColor" class="penny-illustration-background"/>
<path d="M36.5 128C34.85 128 33.5 129.35 33.5 131V133H110.5V131C110.5 129.35 109.15 128 107.5 128H36.5Z" fill="currentColor" class="penny-illustration-background"/>
<path d="M60 83.5C61.65 83.5 63 82.15 63 80.5V14C63 12.35 61.65 11 60 11H54.64C54.06 12.52 52.59 13.61 50.87 13.61H34.12C32.4 13.61 30.93 12.52 30.35 11H24.99C23.34 11 21.99 12.35 21.99 14V80.5C21.99 82.15 23.34 83.5 24.99 83.5H60Z" fill="currentColor" class="penny-illustration-background"/>
</svg>
