<svg viewBox="0 0 144 144" fill="none" xmlns="http://www.w3.org/2000/svg">
<path d="M72 9C37.21 9 9 37.21 9 72C9 106.79 37.21 135 72 135C106.79 135 135 106.79 135 72C135 37.21 106.79 9 72 9ZM78.85 101.04C78.85 104.63 75.94 107.54 72.35 107.54C68.76 107.54 65.85 104.63 65.85 101.04V99.63C65.85 96.04 68.76 93.13 72.35 93.13C75.94 93.13 78.85 96.04 78.85 99.63V101.04ZM91.15 59.09C89.1 65.72 85.1 68.94 81.88 71.52C78.66 74.1 77.05 75.4 77.05 79.66V85.43H67.05V79.66C67.05 70.61 71.8 66.79 75.62 63.73C78.32 61.56 80.46 59.84 81.6 56.14C82.23 54.08 81.62 51.36 80.03 49.21C79 47.81 76.65 45.46 72.53 45.46C66.13 45.46 62.16 49.55 62.16 56.14H52.16C52.16 43.97 60.54 35.46 72.53 35.46C78.75 35.46 84.42 38.31 88.08 43.27C91.6 48.04 92.75 53.95 91.16 59.09H91.15Z" fill="currentColor" class="penny-illustration-brand-primary"/>
<path d="M72.52 35.46C60.53 35.46 52.15 43.96 52.15 56.14H62.15C62.15 49.55 66.12 45.46 72.52 45.46C76.64 45.46 78.99 47.81 80.02 49.21C81.61 51.37 82.23 54.09 81.59 56.14C80.45 59.84 78.31 61.56 75.61 63.73C71.79 66.8 67.04 70.62 67.04 79.66V85.43H77.04V79.66C77.04 75.4 78.66 74.11 81.87 71.52C85.08 68.93 89.09 65.72 91.14 59.09C92.73 53.95 91.58 48.04 88.06 43.27C84.4 38.3 78.73 35.46 72.51 35.46H72.52Z" fill="currentColor" class="penny-illustration-background"/>
<path d="M72.35 93.12H72.34C68.7502 93.12 65.84 96.0302 65.84 99.62V101.04C65.84 104.63 68.7502 107.54 72.34 107.54H72.35C75.9399 107.54 78.85 104.63 78.85 101.04V99.62C78.85 96.0302 75.9399 93.12 72.35 93.12Z" fill="currentColor" class="penny-illustration-background"/>
</svg>
