<svg viewBox="0 0 144 144" fill="none" xmlns="http://www.w3.org/2000/svg">
<path d="M130.63 77.23H122.7C120.11 65.33 112.43 54.88 101.81 48.83V36.69C101.81 35.59 100.91 34.69 99.81 34.69C93.8 34.69 88.41 38.19 85.92 43.55C85.31 43.47 84.69 43.43 84.08 43.37C83.33 44.74 82.45 46.03 81.46 47.22C83.25 47.27 85.06 47.43 86.87 47.72C87.85 47.88 88.78 47.31 89.09 46.39C90.43 42.43 93.8 39.58 97.81 38.86V50.01C97.81 50.75 98.22 51.43 98.87 51.78C109.46 57.41 117.02 67.81 119.08 79.58C119.25 80.54 120.08 81.23 121.05 81.23H128.62V96.32C128.62 100.83 124.95 104.5 120.44 104.5H116.44C115.72 104.5 115.05 104.89 114.69 105.52C107.75 117.91 94.64 125.6 80.47 125.6H54.33C32.71 125.6 15.13 108.02 15.13 86.4C15.13 68.11 27.72 52.71 44.7 48.4C43.71 47.35 42.81 46.21 42.01 45C37.73 46.28 33.72 48.19 30.11 50.65C26.79 49.27 25.21 47.06 24.46 45.27C27.71 45.17 30.66 43.91 32.35 41.77C35.07 38.32 34.29 34.46 32.1 32.44C30.06 30.55 26.39 29.88 23.15 32.87C21.22 34.65 20.03 37.37 19.78 40.31C17.95 39.43 15.77 37.67 14.86 34.16L10.99 35.16C12.23 39.96 15.53 43.39 20.1 44.71C20.1 44.74 20.11 44.76 20.12 44.79C20.99 48.42 23.28 51.39 26.58 53.33C17.16 61.27 11.16 73.15 11.16 86.4C11.16 99.65 17.24 111.68 26.77 119.61V131.66C26.77 134.6 29.16 137 32.11 137H47.59C50.53 137 52.93 134.6 52.93 131.66V129.57C53.41 129.59 53.88 129.61 54.36 129.61H75.32V131.67C75.32 134.61 77.71 137.01 80.66 137.01H96.14C99.08 137.01 101.48 134.61 101.48 131.67V124.15C108.04 120.5 113.65 115.16 117.62 108.51H120.46C127.18 108.51 132.64 103.05 132.64 96.33V79.24C132.64 78.14 131.74 77.24 130.64 77.24L130.63 77.23ZM25.88 35.82C27.36 34.46 28.67 34.7 29.41 35.38C30.25 36.16 30.52 37.67 29.24 39.3C28.21 40.6 26.05 41.34 23.77 41.28C23.83 39.09 24.6 37.01 25.89 35.82H25.88ZM47.58 133H32.1C31.36 133 30.76 132.4 30.76 131.66V122.56C32.98 124.01 35.34 125.27 37.82 126.3L48.54 132.58C48.3 132.83 47.96 132.99 47.58 132.99V133ZM80.65 133C79.91 133 79.31 132.4 79.31 131.66V129.6H80.49C82.95 129.6 85.38 129.37 87.76 128.96L97.45 131.78C97.39 132.46 96.83 133 96.14 133H80.65Z" fill="currentColor" class="penny-illustration-border"/>
<path d="M109.37 83.66C111.38 83.66 113.01 82.0303 113.01 80.02C113.01 78.0097 111.38 76.38 109.37 76.38C107.36 76.38 105.73 78.0097 105.73 80.02C105.73 82.0303 107.36 83.66 109.37 83.66Z" fill="currentColor" class="penny-illustration-border"/>
<path d="M44.44 55.97C44.44 58.39 46.41 60.36 48.83 60.36H76.31C78.73 60.36 80.7 58.39 80.7 55.97C80.7 53.68 78.94 51.83 76.71 51.62C72.71 54.45 67.83 56.12 62.57 56.12C57.31 56.12 52.43 54.45 48.43 51.62C46.2 51.82 44.44 53.68 44.44 55.97Z" fill="currentColor" class="penny-illustration-border"/>
<path d="M48.43 51.62C52.43 54.45 57.31 56.12 62.57 56.12C67.83 56.12 72.71 54.45 76.71 51.62C78.48 50.37 80.08 48.89 81.47 47.23C82.46 46.04 83.34 44.75 84.09 43.38C86.02 39.87 87.13 35.84 87.13 31.56C87.13 18.02 76.11 7 62.57 7C49.03 7 38.01 18.02 38.01 31.56C38.01 36.52 39.49 41.14 42.03 45.01C42.83 46.22 43.73 47.36 44.72 48.41C45.84 49.6 47.08 50.68 48.42 51.62H48.43ZM61.25 31.85L60.86 31.72C58.74 31.05 55.2 29.92 55.2 25.16C55.2 22.06 57.46 19.53 60.62 18.77V15.9H64.62V18.81C67.76 19.68 69.94 22.56 69.94 26.19H65.94C65.94 24.07 64.54 22.53 62.62 22.53C60.7 22.53 59.2 23.69 59.2 25.16C59.2 26.81 59.78 27.18 62.07 27.9L62.49 28.03C64.77 28.77 70.81 30.73 70.81 36.61C70.81 40.47 68.26 43.52 64.62 44.34V47.2H60.62V44.32C57.01 43.42 54.33 40.17 54.33 36.29H58.33C58.33 38.66 60.25 40.58 62.62 40.58C64.99 40.58 66.81 38.91 66.81 36.62C66.81 34.54 65.15 33.11 61.25 31.85Z" fill="currentColor" class="penny-illustration-brand-primary"/>
<path d="M80.4899 129.6H79.3099V131.66C79.3099 132.4 79.9099 133 80.6499 133H96.1299C96.8299 133 97.3799 132.46 97.4399 131.78L87.7499 128.96C85.3699 129.37 82.9399 129.6 80.4799 129.6H80.4899Z" fill="currentColor" class="penny-illustration-background"/>
<path d="M30.7599 122.56V131.66C30.7599 132.4 31.3599 133 32.0999 133H47.5799C47.9599 133 48.2999 132.84 48.5399 132.59L37.8199 126.31C35.3399 125.28 32.9799 124.02 30.7599 122.57V122.56Z" fill="currentColor" class="penny-illustration-background"/>
<path d="M76.7099 51.62C78.9399 51.82 80.6999 53.68 80.6999 55.97C80.6999 58.39 78.7299 60.36 76.3099 60.36H48.8299C46.4099 60.36 44.4399 58.39 44.4399 55.97C44.4399 53.68 46.1999 51.83 48.4299 51.62C47.0899 50.67 45.8499 49.6 44.7299 48.41C27.7599 52.71 15.1599 68.12 15.1599 86.41C15.1599 108.03 32.7399 125.61 54.3599 125.61H80.4999C94.6699 125.61 107.78 117.92 114.72 105.53C115.07 104.9 115.74 104.51 116.47 104.51H120.47C124.98 104.51 128.65 100.84 128.65 96.33V81.24H121.08C120.11 81.24 119.28 80.54 119.11 79.59C117.04 67.82 109.49 57.43 98.8999 51.79C98.2499 51.44 97.8399 50.76 97.8399 50.02V38.87C93.8299 39.59 90.4599 42.43 89.1199 46.4C88.8099 47.33 87.8799 47.9 86.8999 47.73C85.0999 47.44 83.2799 47.27 81.4899 47.23C80.1099 48.9 78.4999 50.37 76.7299 51.62H76.7099ZM109.37 76.38C111.38 76.38 113.01 78.01 113.01 80.02C113.01 82.03 111.38 83.66 109.37 83.66C107.36 83.66 105.73 82.03 105.73 80.02C105.73 78.01 107.36 76.38 109.37 76.38Z" fill="currentColor" class="penny-illustration-background"/>
<path d="M62.6199 40.58C60.2499 40.58 58.3299 38.66 58.3299 36.29H54.3299C54.3299 40.17 57.0099 43.43 60.6199 44.32V47.2H64.6199V44.34C68.2599 43.52 70.8099 40.47 70.8099 36.61C70.8099 30.74 64.7699 28.77 62.4899 28.03L62.0699 27.9C59.7799 27.17 59.1999 26.81 59.1999 25.16C59.1999 23.68 60.6999 22.53 62.6199 22.53C64.5399 22.53 65.9399 24.07 65.9399 26.19H69.9399C69.9399 22.56 67.7599 19.67 64.6199 18.81V15.9H60.6199V18.77C57.4599 19.53 55.1999 22.06 55.1999 25.16C55.1999 29.92 58.7399 31.04 60.8599 31.72L61.2499 31.85C65.1399 33.12 66.8099 34.54 66.8099 36.62C66.8099 38.92 65.0499 40.58 62.6199 40.58Z" fill="currentColor" class="penny-illustration-background"/>
</svg>
