<svg viewBox="0 0 144 144" fill="none" xmlns="http://www.w3.org/2000/svg">
<path d="M130.62 25.2675L74.49 7.0975C74.09 6.9675 73.66 6.9675 73.26 7.0975L16.89 25.2675C16.06 25.5375 15.5 26.3075 15.5 27.1675V28.7575L12.39 29.7575C11.56 30.0275 11 30.7975 11 31.6575V69.3375C11 95.0675 25.36 117.877 47.59 127.447L68.59 136.477C68.84 136.587 69.11 136.637 69.38 136.637C69.65 136.637 69.92 136.587 70.17 136.477L90.98 127.507C98.81 124.128 105.66 119.088 111.25 112.868C124.22 101.208 132 83.8675 132 64.9575V27.1675C132 26.2975 131.44 25.5275 130.62 25.2675ZM128 64.9675C128 89.0475 114.61 110.397 93.89 119.347L73.87 127.967L53.66 119.277C32.91 110.337 19.49 88.9675 19.49 64.8375V28.6275L73.87 11.0975L128 28.6275V64.9775V64.9675Z" fill="currentColor" class="penny-illustration-border"/>
<path d="M56.61 53.7075V54.5875H60.61V53.7075C60.61 46.8575 66.51 41.2875 73.75 41.2875C80.99 41.2875 86.89 46.8575 86.89 53.7075V54.5875H90.89V53.7075C90.89 44.6475 83.2 37.2875 73.75 37.2875C64.3 37.2875 56.61 44.6575 56.61 53.7075Z" fill="currentColor" class="penny-illustration-border"/>
<path d="M60.61 54.5975H54.28C49.6 54.5975 45.79 58.4075 45.79 63.0875V89.0475C45.79 93.7275 49.6 97.5375 54.28 97.5375H93.22C97.9 97.5375 101.71 93.7275 101.71 89.0475V63.0875C101.71 58.4075 97.9 54.5975 93.22 54.5975H60.6H60.61Z" fill="currentColor" class="penny-illustration-brand-primary"/>
<path d="M19.5 28.6275V64.8475C19.5 88.9775 32.91 110.348 53.67 119.288L73.88 127.978L93.9 119.358C114.62 110.408 128.01 89.0575 128.01 64.9775V28.6275L73.87 11.0975L19.5 28.6275ZM90.89 53.7075V54.5875H93.22C97.9 54.5875 101.71 58.3975 101.71 63.0775V89.0375C101.71 93.7175 97.9 97.5275 93.22 97.5275H54.28C49.6 97.5275 45.79 93.7175 45.79 89.0375V63.0775C45.79 58.3975 49.6 54.5875 54.28 54.5875H56.61V53.7075C56.61 44.6475 64.3 37.2875 73.75 37.2875C83.2 37.2875 90.89 44.6575 90.89 53.7075Z" fill="currentColor" class="penny-illustration-background"/>
<path d="M86.89 53.7075C86.89 46.8575 80.99 41.2875 73.75 41.2875C66.51 41.2875 60.61 46.8575 60.61 53.7075V54.5875H86.9V53.7075H86.89Z" fill="currentColor" class="penny-illustration-background"/>
</svg>
