<svg viewBox="0 0 144 144" fill="none" xmlns="http://www.w3.org/2000/svg">
<path d="M136.872 16.29C136.872 16.29 136.842 16.21 136.822 16.17C136.832 16.2 136.842 16.23 136.862 16.26C136.862 16.26 136.862 16.28 136.872 16.29Z" fill="currentColor" class="penny-illustration-brand-primary"/>
<path d="M136.702 15.95C136.702 15.95 136.682 15.91 136.672 15.9C136.672 15.9 136.652 15.88 136.652 15.87C136.662 15.89 136.682 15.91 136.692 15.93C136.692 15.93 136.692 15.94 136.702 15.95Z" fill="currentColor" class="penny-illustration-brand-primary"/>
<path d="M44.842 112.83L50.842 84.35C50.842 84.35 50.852 84.32 50.852 84.31C50.892 84.15 50.942 84 51.012 83.85C51.022 83.83 51.042 83.81 51.052 83.79C51.122 83.67 51.192 83.56 51.292 83.46C51.322 83.42 51.362 83.39 51.402 83.35C51.442 83.31 51.482 83.26 51.522 83.23L119.602 27.1L36.772 69.38C36.482 69.53 36.172 69.6 35.862 69.6C35.342 69.6 34.822 69.39 34.442 69L34.052 68.6L44.862 113.7C44.882 113.77 44.902 113.84 44.932 113.91C44.812 113.57 44.772 113.19 44.852 112.82L44.842 112.83Z" fill="currentColor" class="penny-illustration-brand-primary"/>
<path d="M135.542 15.07C135.542 15.07 135.482 15.05 135.442 15.05C135.462 15.05 135.492 15.06 135.512 15.07C135.512 15.07 135.532 15.07 135.542 15.07Z" fill="currentColor" class="penny-illustration-brand-primary"/>
<path d="M136.152 15.36C136.152 15.36 136.112 15.34 136.092 15.33C136.092 15.33 136.112 15.34 136.112 15.35C136.112 15.35 136.132 15.35 136.142 15.37L136.152 15.36Z" fill="currentColor" class="penny-illustration-brand-primary"/>
<path d="M134.892 15C134.832 15 134.782 15 134.722 15.02C134.772 15.02 134.832 15.01 134.882 15.01L134.892 15Z" fill="currentColor" class="penny-illustration-brand-primary"/>
<path d="M136.482 15.66C136.482 15.66 136.452 15.62 136.432 15.6C136.452 15.62 136.462 15.64 136.482 15.66Z" fill="currentColor" class="penny-illustration-brand-primary"/>
<path d="M46.822 115.24C46.972 115.24 47.112 115.21 47.262 115.18C47.112 115.22 46.952 115.24 46.802 115.24H46.832H46.822Z" fill="currentColor" class="penny-illustration-brand-primary"/>
<path d="M137.002 16.98C137.002 16.98 137.002 16.89 137.002 16.84C137.002 16.8 137.002 16.75 137.002 16.71C137.002 16.7 137.002 16.69 137.002 16.68C137.002 16.67 137.002 16.66 137.002 16.65C137.002 16.6 136.982 16.55 136.972 16.51C136.962 16.47 136.952 16.43 136.942 16.38C136.942 16.38 136.942 16.37 136.942 16.36C136.942 16.34 136.922 16.32 136.912 16.3C136.912 16.3 136.912 16.28 136.902 16.27C136.892 16.24 136.882 16.21 136.862 16.18C136.842 16.14 136.822 16.1 136.802 16.06C136.782 16.02 136.762 15.99 136.742 15.95C136.742 15.95 136.742 15.94 136.732 15.93C136.722 15.91 136.712 15.89 136.692 15.87C136.672 15.84 136.642 15.81 136.622 15.77C136.592 15.73 136.552 15.69 136.522 15.65C136.502 15.63 136.492 15.61 136.472 15.59C136.452 15.57 136.422 15.55 136.402 15.52C136.362 15.48 136.312 15.45 136.272 15.41C136.252 15.4 136.242 15.38 136.222 15.37C136.222 15.37 136.212 15.37 136.202 15.36C136.202 15.36 136.182 15.36 136.172 15.34C136.172 15.34 136.152 15.33 136.152 15.32C136.092 15.28 136.032 15.25 135.972 15.22C135.932 15.2 135.882 15.18 135.842 15.16C135.782 15.13 135.722 15.11 135.652 15.09C135.632 15.09 135.622 15.08 135.602 15.07C135.602 15.07 135.582 15.07 135.572 15.07C135.552 15.07 135.522 15.06 135.502 15.05C135.432 15.03 135.372 15.02 135.302 15.02C135.252 15.02 135.202 15.01 135.142 15.01C135.092 15.01 135.052 15.01 135.002 15.01C134.982 15.01 134.962 15.01 134.932 15.01C134.882 15.01 134.822 15.01 134.772 15.02C134.742 15.02 134.722 15.02 134.692 15.02L8.63204 38.41C7.90204 38.54 7.31204 39.07 7.09204 39.78C6.87204 40.49 7.05204 41.26 7.57204 41.78L34.032 68.6L34.422 69C34.802 69.39 35.322 69.6 35.842 69.6C36.152 69.6 36.462 69.53 36.752 69.38L119.602 27.1L51.532 83.22C51.532 83.22 51.452 83.3 51.412 83.34C51.372 83.38 51.332 83.41 51.302 83.45C51.212 83.55 51.132 83.67 51.062 83.78C51.052 83.8 51.032 83.82 51.022 83.84C50.952 83.98 50.892 84.14 50.862 84.3C50.862 84.31 50.852 84.33 50.852 84.34L44.852 112.82C44.772 113.19 44.812 113.56 44.932 113.91C44.932 113.93 44.942 113.95 44.952 113.98C45.012 114.14 45.102 114.28 45.192 114.42C45.212 114.44 45.222 114.47 45.242 114.49C45.352 114.62 45.472 114.74 45.602 114.85C45.602 114.85 45.612 114.86 45.622 114.87C45.632 114.87 45.642 114.88 45.662 114.89C45.822 115 45.992 115.09 46.172 115.15C46.192 115.15 46.212 115.15 46.222 115.16C46.412 115.22 46.602 115.25 46.802 115.25C46.962 115.25 47.112 115.23 47.262 115.19C47.292 115.19 47.332 115.17 47.362 115.16C47.512 115.12 47.652 115.06 47.792 114.98L68.202 103.25L93.222 128.61C93.602 128.99 94.112 129.21 94.642 129.21C94.782 129.21 94.922 129.19 95.062 129.16C95.732 129.01 96.282 128.54 96.512 127.89L136.882 17.68C136.882 17.68 136.882 17.67 136.882 17.66C136.902 17.61 136.912 17.57 136.922 17.52C136.932 17.47 136.952 17.43 136.962 17.38C136.962 17.36 136.962 17.34 136.972 17.32C136.972 17.27 136.972 17.23 136.982 17.18C136.982 17.18 136.982 17.16 136.982 17.15C136.982 17.11 136.992 17.08 136.992 17.04C136.992 17.02 136.992 16.99 136.992 16.97L137.002 16.98ZM36.252 65.15L13.072 41.66L121.832 21.48L36.252 65.15ZM93.862 123.55L55.752 84.93L130.592 23.22L93.862 123.54V123.55Z" fill="currentColor" class="penny-illustration-border"/>
<path d="M32.9891 100.375L7.58271 125.781L10.4111 128.609L35.8175 103.203L32.9891 100.375Z" fill="currentColor" class="penny-illustration-border"/>
<path d="M29.6082 83.3538L10.9265 102.036L13.7549 104.864L32.4367 86.1822L29.6082 83.3538Z" fill="currentColor" class="penny-illustration-border"/>
<path d="M93.862 123.55L130.592 23.2205L55.752 84.9205L93.862 123.55Z" fill="currentColor" class="penny-illustration-background"/>
<path d="M13.072 41.6605L36.252 65.1505L121.832 21.4805L13.072 41.6605Z" fill="currentColor" class="penny-illustration-background"/>
</svg>
