<svg viewBox="0 0 144 144" fill="none" xmlns="http://www.w3.org/2000/svg">
<path d="M92.15 111.135C89.07 112.745 85.83 114.005 82.47 114.865C80.4 115.395 79.12 117.455 79.57 119.565L81.96 130.975C75.02 132.195 67.85 132.205 60.88 130.975L63.29 119.575C63.74 117.465 62.46 115.405 60.39 114.875C56.23 113.815 52.25 112.165 48.54 109.955C47.9 109.575 47.2 109.395 46.51 109.395C45.21 109.395 43.93 110.045 43.16 111.225L36.79 120.975C30.98 116.905 25.97 111.895 21.89 106.065L31.66 99.715C33.46 98.545 34.02 96.175 32.93 94.345C30.72 90.635 29.07 86.655 28.01 82.495C27.49 80.425 25.42 79.155 23.31 79.595L11.9 81.985C11.29 78.515 10.98 74.975 10.98 71.455C10.98 67.935 11.29 64.385 11.91 60.905L23.31 63.315C25.42 63.755 27.48 62.485 28 60.415C29.05 56.255 30.71 52.275 32.92 48.565C34.02 46.725 33.46 44.365 31.65 43.185L21.9 36.815C25.97 31.005 30.98 25.995 36.81 21.915L43.16 31.675C44.33 33.485 46.7 34.035 48.54 32.945C52.24 30.735 56.23 29.085 60.39 28.025C62.46 27.495 63.74 25.435 63.29 23.335L60.9 11.925C67.84 10.705 75 10.695 81.99 11.925L79.58 23.325C79.13 25.435 80.41 27.495 82.48 28.015C86.64 29.075 90.62 30.725 94.33 32.935C96.17 34.035 98.53 33.475 99.71 31.665L106.08 21.915C111.89 25.985 116.9 30.995 120.98 36.825L111.21 43.175C109.4 44.345 108.85 46.715 109.94 48.555C112.15 52.265 113.8 56.245 114.86 60.405C115.39 62.475 117.45 63.745 119.55 63.305L130.96 60.915C131.57 64.385 131.88 67.925 131.88 71.445C131.88 74.965 131.57 78.505 130.96 81.995L119.56 79.585C117.45 79.135 115.39 80.415 114.87 82.485C114.02 85.845 112.76 89.085 111.14 92.165C112.14 92.025 113.16 91.945 114.2 91.945C114.7 91.945 115.2 91.965 115.7 92.005C116.98 89.265 118 86.415 118.74 83.505L130.14 85.915C131.21 86.145 132.3 85.925 133.2 85.315C134.1 84.705 134.72 83.745 134.91 82.675C135.56 78.975 135.89 75.205 135.89 71.445C135.89 67.685 135.56 63.915 134.91 60.215C134.72 59.145 134.1 58.185 133.2 57.575C132.29 56.965 131.2 56.745 130.14 56.975L118.75 59.415C117.6 54.885 115.8 50.535 113.4 46.525L123.17 40.175C124.09 39.575 124.7 38.655 124.91 37.585C125.12 36.515 124.88 35.395 124.25 34.505C119.91 28.315 114.57 22.975 108.38 18.635C107.49 18.005 106.37 17.765 105.3 17.975C104.23 18.185 103.31 18.805 102.71 19.715L96.38 29.495C92.34 27.085 88 25.285 83.5 24.145L85.91 12.745C86.14 11.675 85.92 10.585 85.31 9.685C84.7 8.785 83.74 8.165 82.67 7.975C75.27 6.675 67.62 6.675 60.22 7.975C59.15 8.165 58.19 8.785 57.58 9.685C56.97 10.595 56.76 11.675 56.98 12.745L59.42 24.135C54.89 25.285 50.54 27.085 46.53 29.485L40.18 19.725C39.58 18.805 38.66 18.185 37.59 17.985C36.52 17.775 35.4 18.015 34.51 18.645C28.32 22.985 22.98 28.325 18.64 34.515C18.02 35.405 17.77 36.525 17.98 37.595C18.19 38.665 18.81 39.585 19.72 40.185L29.5 46.515C27.09 50.555 25.29 54.895 24.15 59.395L12.75 56.985C11.68 56.755 10.59 56.975 9.69 57.585C8.79 58.195 8.17 59.155 7.98 60.225C7.33 63.925 7 67.695 7 71.455C7 75.215 7.33 78.985 7.98 82.685C8.17 83.755 8.79 84.725 9.69 85.325C10.6 85.935 11.68 86.145 12.75 85.925L24.14 83.485C25.29 88.015 27.09 92.355 29.49 96.365L19.72 102.715C18.8 103.315 18.19 104.225 17.98 105.305C17.77 106.375 18.01 107.495 18.64 108.385C22.98 114.575 28.32 119.915 34.51 124.255C35.4 124.875 36.52 125.115 37.59 124.915C38.66 124.705 39.58 124.085 40.18 123.175L46.51 113.395C50.55 115.805 54.89 117.605 59.39 118.745L56.98 130.145C56.75 131.215 56.97 132.305 57.58 133.205C58.19 134.105 59.15 134.725 60.22 134.915C63.92 135.565 67.69 135.895 71.45 135.895C75.21 135.895 78.98 135.565 82.68 134.915C83.75 134.725 84.71 134.105 85.32 133.205C85.93 132.295 86.14 131.215 85.92 130.145L83.48 118.755C86.42 118.005 89.27 116.985 92.01 115.705C91.98 115.205 91.95 114.705 91.95 114.205C91.95 113.165 92.03 112.145 92.17 111.145L92.15 111.135Z" fill="currentColor" class="penny-illustration-border"/>
<path d="M71.43 48.625C58.84 48.625 48.61 58.865 48.61 71.445C48.61 84.025 58.85 94.265 71.43 94.265C84.01 94.265 94.25 84.025 94.25 71.445C94.25 58.865 84.01 48.625 71.43 48.625ZM71.43 90.265C61.05 90.265 52.61 81.825 52.61 71.445C52.61 61.065 61.05 52.625 71.43 52.625C81.81 52.625 90.25 61.065 90.25 71.445C90.25 81.825 81.81 90.265 71.43 90.265Z" fill="currentColor" class="penny-illustration-border"/>
<path d="M115.68 92.005C115.18 91.975 114.68 91.945 114.18 91.945C113.14 91.945 112.12 92.025 111.12 92.165C101.29 93.525 93.5 101.315 92.14 111.145C92 112.145 91.92 113.165 91.92 114.205C91.92 114.705 91.94 115.205 91.98 115.705C92.76 127.275 102.41 136.455 114.17 136.455C125.93 136.455 136.42 126.475 136.42 114.205C136.42 101.935 127.24 92.785 115.67 92.015L115.68 92.005ZM110.9 122.355C110.53 122.685 110.05 122.875 109.56 122.875C109.51 122.875 109.46 122.875 109.42 122.875C108.88 122.835 108.37 122.575 108.02 122.155L102.48 115.485L105.56 112.935L109.77 118.005L123 106.055L125.68 109.025L110.9 122.365V122.355Z" fill="currentColor" class="penny-illustration-brand-primary"/>
<path d="M119.55 79.585L130.95 81.995C131.56 78.505 131.87 74.965 131.87 71.445C131.87 67.925 131.56 64.385 130.95 60.915L119.54 63.305C117.43 63.745 115.37 62.475 114.85 60.405C113.8 56.245 112.14 52.265 109.93 48.555C108.83 46.715 109.39 44.355 111.2 43.175L120.97 36.825C116.89 30.995 111.88 25.985 106.07 21.915L99.7 31.665C98.53 33.475 96.16 34.025 94.32 32.935C90.62 30.725 86.63 29.075 82.47 28.015C80.4 27.485 79.12 25.425 79.57 23.325L81.98 11.925C75 10.685 67.84 10.695 60.89 11.925L63.28 23.335C63.73 25.445 62.45 27.505 60.38 28.025C56.22 29.085 52.24 30.735 48.53 32.945C46.69 34.035 44.33 33.485 43.15 31.675L36.8 21.915C30.97 25.995 25.96 31.005 21.89 36.815L31.64 43.185C33.45 44.365 34 46.725 32.91 48.565C30.7 52.275 29.05 56.255 27.99 60.415C27.46 62.485 25.4 63.755 23.3 63.315L11.9 60.905C11.28 64.395 10.97 67.935 10.97 71.455C10.97 74.975 11.28 78.525 11.89 81.985L23.3 79.595C25.41 79.155 27.47 80.425 28 82.495C29.05 86.655 30.71 90.635 32.92 94.345C34.02 96.185 33.46 98.545 31.65 99.715L21.88 106.065C25.96 111.895 30.97 116.905 36.78 120.975L43.15 111.225C43.92 110.045 45.19 109.395 46.5 109.395C47.19 109.395 47.89 109.575 48.53 109.955C52.23 112.165 56.22 113.815 60.38 114.875C62.45 115.405 63.73 117.465 63.28 119.575L60.87 130.975C67.85 132.215 75.02 132.205 81.95 130.975L79.56 119.565C79.11 117.455 80.39 115.395 82.46 114.865C85.82 114.015 89.06 112.745 92.14 111.135C93.5 101.305 101.29 93.515 111.12 92.155C112.73 89.075 113.99 85.835 114.85 82.475C115.37 80.405 117.44 79.125 119.54 79.575L119.55 79.585ZM71.43 94.265C58.84 94.265 48.61 84.025 48.61 71.445C48.61 58.865 58.85 48.625 71.43 48.625C84.01 48.625 94.25 58.865 94.25 71.445C94.25 84.025 84.01 94.265 71.43 94.265Z" fill="currentColor" class="penny-illustration-background"/>
<path d="M109.77 117.985L105.56 112.915L102.48 115.465L108.02 122.135C108.37 122.555 108.87 122.815 109.42 122.855C109.47 122.855 109.52 122.855 109.56 122.855C110.05 122.855 110.53 122.675 110.9 122.335L125.68 108.995L123 106.025L109.77 117.975V117.985Z" fill="currentColor" class="penny-illustration-background"/>
</svg>
