<svg viewBox="0 0 144 144" fill="none" xmlns="http://www.w3.org/2000/svg">
<path d="M70 77.5V114.89C70 115.99 70.9 116.89 72 116.89H112.5C113.6 116.89 114.5 115.99 114.5 114.89V77.5C114.5 76.4 113.6 75.5 112.5 75.5H72C70.9 75.5 70 76.4 70 77.5ZM74 79.5H110.5V112.89H74V79.5Z" fill="currentColor" class="penny-illustration-border"/>
<path d="M24.82 66C28.61 66 32.12 64.79 35.01 62.75C35.48 62.42 35.92 62.07 36.35 61.7C38.04 60.24 39.46 58.46 40.5 56.46C39.23 54.02 38.5 51.26 38.5 48.32V41.5C38.5 41.44 38.51 41.38 38.52 41.32C38.52 41.27 38.52 41.22 38.54 41.16C38.56 41.03 38.6 40.9 38.64 40.78C38.64 40.76 38.64 40.75 38.65 40.73V40.71L49.68 13.74C49.99 12.99 50.72 12.5 51.53 12.5H29.18C28.55 12.5 27.96 12.8 27.58 13.3L7.4 40.3C7.4 40.3 7.39 40.32 7.38 40.33C7.28 40.46 7.2 40.61 7.14 40.76C7.13 40.79 7.12 40.82 7.11 40.85C7.07 40.97 7.04 41.1 7.02 41.23C7.02 41.28 7.01 41.33 7.01 41.37C7.01 41.41 7 41.44 7 41.48V48.3C7 54.89 10.63 60.65 16 63.69C18.57 65.14 21.53 65.98 24.68 65.98H24.82V66Z" fill="currentColor" class="penny-illustration-brand-primary"/>
<path d="M74 14.5V48.32C74 51.25 73.27 54.02 72 56.46C74.95 62.12 80.87 66 87.68 66H87.82C91.61 66 95.12 64.79 98.01 62.75C98.48 62.42 98.92 62.07 99.35 61.7C101.04 60.24 102.46 58.46 103.5 56.46C102.23 54.02 101.5 51.26 101.5 48.32V41.89L90.62 15.25C90.37 14.63 90.44 13.93 90.81 13.38C91.18 12.83 91.8 12.5 92.47 12.5H72C73.1 12.5 74 13.4 74 14.5Z" fill="currentColor" class="penny-illustration-brand-primary"/>
<path d="M49.68 13.74L38.66 40.72V40.74C38.66 40.74 38.65 40.77 38.64 40.79C38.59 40.91 38.56 41.04 38.54 41.17C38.54 41.22 38.53 41.27 38.52 41.33C38.52 41.39 38.5 41.45 38.5 41.51V48.33C38.5 51.26 39.23 54.03 40.5 56.47C39.46 58.47 38.04 60.25 36.35 61.71C39.4 67.08 45.13 70.71 51.68 70.71H51.82C57.94 70.71 63.33 67.55 66.51 62.76C66.98 62.43 67.42 62.08 67.85 61.71C70.9 67.08 76.63 70.71 83.18 70.71H83.32C89.44 70.71 94.83 67.55 98.01 62.76C95.13 64.8 91.62 66.01 87.82 66.01H87.68C80.87 66.01 74.95 62.13 72 56.47C73.27 54.03 74 51.27 74 48.33V14.5C74 13.4 73.1 12.5 72 12.5H51.53C50.72 12.5 49.99 12.99 49.68 13.74ZM70 48.32C70 55.86 63.86 62 56.32 62H56.18C48.64 62 42.5 55.86 42.5 48.32V43.5H70V48.32ZM52.87 16.5H70V39.5H43.48L52.88 16.5H52.87Z" fill="currentColor" class="penny-illustration-border"/>
<path d="M136.99 41.39C136.99 41.39 136.99 41.29 136.98 41.25C136.96 41.12 136.93 40.99 136.89 40.87C136.88 40.84 136.87 40.81 136.86 40.78C136.8 40.63 136.72 40.48 136.62 40.35C136.62 40.34 136.61 40.33 136.6 40.32L116.42 13.3C116.04 12.79 115.45 12.5 114.82 12.5H92.47C91.8 12.5 91.18 12.83 90.81 13.38C90.44 13.93 90.37 14.63 90.62 15.25L101.5 41.89V48.32C101.5 51.25 102.23 54.02 103.5 56.46C102.46 58.46 101.04 60.24 99.35 61.7C102.4 67.07 108.13 70.7 114.68 70.7H114.82C118.12 70.7 121.26 69.79 124 68.11V129.51H60.5V77.51C60.5 76.41 59.6 75.51 58.5 75.51H31.5C30.4 75.51 29.5 76.41 29.5 77.51V129.51H20V70.7C20.06 70.7 20.12 70.7 20.18 70.7H20.32C26.44 70.7 31.83 67.54 35.01 62.75C32.13 64.79 28.62 66 24.82 66H24.68C21.52 66 18.57 65.16 16 63.71V131.5C16 132.6 16.9 133.5 18 133.5H126C127.1 133.5 128 132.6 128 131.5V63.71C133.37 60.67 137 54.92 137 48.32V41.5C137 41.5 137 41.43 136.99 41.39ZM56.5 129.5H33.5V79.5H56.5V129.5ZM113.82 16.5L131.01 39.5H104.84L95.44 16.5H113.82ZM133 48.32C133 55.86 126.86 62 119.32 62H119.18C111.64 62 105.5 55.86 105.5 48.32V43.5H133V48.32Z" fill="currentColor" class="penny-illustration-border"/>
<path d="M83.32 70.69H83.18C76.63 70.69 70.9 67.06 67.85 61.69C67.42 62.06 66.97 62.41 66.51 62.74C63.33 67.53 57.94 70.69 51.82 70.69H51.68C45.13 70.69 39.4 67.06 36.35 61.69C35.92 62.06 35.47 62.41 35.01 62.74C31.83 67.53 26.44 70.69 20.32 70.69H20.18C20.12 70.69 20.06 70.69 20 70.69V129.5H29.5V77.5C29.5 76.4 30.4 75.5 31.5 75.5H58.5C59.6 75.5 60.5 76.4 60.5 77.5V129.5H124V68.1C121.26 69.78 118.12 70.69 114.82 70.69H114.68C108.13 70.69 102.4 67.06 99.35 61.69C98.92 62.06 98.47 62.41 98.01 62.74C94.83 67.53 89.44 70.69 83.32 70.69ZM112.5 75.5C113.6 75.5 114.5 76.4 114.5 77.5V114.89C114.5 115.99 113.6 116.89 112.5 116.89H72C70.9 116.89 70 115.99 70 114.89V77.5C70 76.4 70.9 75.5 72 75.5H112.5Z" fill="currentColor" class="penny-illustration-background"/>
<path d="M110.5 79.5H74V112.89H110.5V79.5Z" fill="currentColor" class="penny-illustration-background"/>
<path d="M56.5 79.5H33.5V129.5H56.5V79.5Z" fill="currentColor" class="penny-illustration-background"/>
<path d="M42.5 48.32C42.5 55.86 48.64 62 56.18 62H56.32C63.86 62 70 55.86 70 48.32V43.5H42.5V48.32Z" fill="currentColor" class="penny-illustration-background"/>
<path d="M70 39.5V16.5H52.87L43.48 39.5H70Z" fill="currentColor" class="penny-illustration-background"/>
<path d="M105.5 48.32C105.5 55.86 111.64 62 119.18 62H119.32C126.86 62 133 55.86 133 48.32V43.5H105.5V48.32Z" fill="currentColor" class="penny-illustration-background"/>
<path d="M113.82 16.5H95.45L104.84 39.5H131.01L113.82 16.5Z" fill="currentColor" class="penny-illustration-background"/>
</svg>
