<svg viewBox="0 0 144 144" fill="none" xmlns="http://www.w3.org/2000/svg">
<path d="M72 9C37.21 9 9 37.21 9 72C9 106.79 37.21 135 72 135C106.79 135 135 106.79 135 72C135 37.21 106.79 9 72 9ZM64.68 96.25C63.71 97.2 62.45 97.67 61.18 97.67C59.98 97.67 58.79 97.24 57.83 96.38L37.14 77.75L43.83 70.32L61.03 85.81L99.99 47.74L106.98 54.89L64.67 96.24L64.68 96.25Z" fill="currentColor" class="penny-illustration-brand-primary"/>
<path d="M61.05 85.8198L43.85 70.3298L37.16 77.7598L57.85 96.3898C58.8 97.2498 60 97.6798 61.2 97.6798C62.46 97.6798 63.73 97.1998 64.7 96.2598L107.01 54.9098L100.02 47.7598L61.06 85.8298L61.05 85.8198Z" fill="currentColor" class="penny-illustration-background"/>
</svg>
