<svg viewBox="0 0 144 144" fill="none" xmlns="http://www.w3.org/2000/svg">
<path d="M45.12 66.8659C45.12 66.8059 45.14 66.7459 45.14 66.6859C45.14 66.6259 45.15 66.5659 45.16 66.5159C45.18 66.4359 45.21 66.3559 45.23 66.2859C45.24 66.2459 45.25 66.2059 45.27 66.1659C45.32 66.0559 45.38 65.9459 45.45 65.8359C45.46 65.8159 45.48 65.8059 45.49 65.7859C45.55 65.7059 45.61 65.6259 45.68 65.5559C45.71 65.5259 45.75 65.4959 45.79 65.4659C45.85 65.4159 45.9 65.3659 45.96 65.3259C46 65.2959 46.05 65.2759 46.1 65.2459C46.16 65.2059 46.23 65.1759 46.29 65.1459C46.34 65.1259 46.39 65.1059 46.44 65.0859C46.51 65.0659 46.58 65.0359 46.66 65.0259C46.68 65.0259 46.7 65.0159 46.72 65.0059L70.33 60.4759C70.85 60.3759 71.39 60.4859 71.83 60.7859C72.27 61.0859 72.57 61.5459 72.67 62.0659L73.3 65.3659C73.66 67.2559 73.32 69.2259 72.3 71.0559C71.43 72.6159 71.17 74.4459 71.55 76.1859C72.38 79.9359 76.12 82.4759 79.91 81.8559C81.89 81.5359 83.61 80.4459 84.76 78.8059C85.91 77.1659 86.33 75.1759 85.95 73.2059C85.62 71.5059 84.7 69.9759 83.36 68.8859C81.79 67.6159 80.74 65.9159 80.38 64.0859L79.73 60.7059C79.63 60.1859 79.74 59.6459 80.04 59.2059C80.34 58.7659 80.8 58.4659 81.32 58.3659L93.04 56.1159L89.58 49.7859L90.8 49.1159C91.88 48.5259 93.04 48.5859 93.83 48.7359C96.54 49.2759 99.35 48.8059 101.73 47.4059C106.85 44.4259 108.82 37.7059 106.12 32.4359C104.71 29.6759 102.31 27.6559 99.35 26.7459C96.4 25.8359 93.27 26.1459 90.56 27.6359C88.21 28.9159 86.39 30.9959 85.43 33.4959C85.16 34.2059 84.61 35.1659 83.58 35.7259L82.29 36.4359L71.43 16.5659C70.9 15.5959 69.69 15.2359 68.72 15.7659L47.12 27.5759C46.15 28.1059 45.79 29.3159 46.32 30.2859L47.93 33.2359C48.85 34.9259 50.37 36.2259 52.32 36.9959C53.98 37.6459 55.35 38.8859 56.16 40.4759C57.91 43.8959 56.63 48.2459 53.32 50.1759C51.59 51.1859 49.57 51.4459 47.64 50.9059C45.71 50.3659 44.12 49.1059 43.16 47.3459C42.33 45.8259 42.07 44.0559 42.41 42.3659C42.81 40.3959 42.54 38.4059 41.65 36.7659L40 33.7459C39.47 32.7759 38.26 32.4159 37.29 32.9459L15.69 44.7559C14.72 45.2859 14.36 46.4959 14.89 47.4659L25.74 67.3159L24.47 68.0059C23.43 68.5759 22.33 68.5059 21.59 68.3559C18.97 67.8159 16.23 68.2259 13.89 69.5159C11.18 70.9959 9.21996 73.4559 8.39996 76.4359C7.56996 79.4159 7.96996 82.5259 9.52996 85.2059C12.51 90.3259 19.23 92.2959 24.5 89.5959C26.96 88.3359 28.87 86.2259 29.89 83.6559C30.18 82.9159 30.76 81.9059 31.84 81.3159L33.03 80.6659L43.88 100.516C43.91 100.566 43.95 100.606 43.98 100.656C43.75 100.306 43.61 99.8959 43.63 99.4659L45.09 66.8759L45.12 66.8659Z" fill="currentColor" class="penny-illustration-brand-primary"/>
<path d="M136.47 80.2759C135.2 74.4959 129.4 70.5559 123.55 71.5159C120.82 71.9659 118.36 73.3859 116.61 75.5159C116.11 76.1359 115.25 76.9159 114.03 77.1459L112.7 77.4059L108.44 55.1959C108.23 54.1159 107.18 53.3959 106.1 53.6059L81.36 58.3559C80.84 58.4559 80.38 58.7559 80.08 59.1959C79.78 59.6359 79.67 60.1759 79.77 60.6959L80.42 64.0759C80.77 65.9059 81.83 67.6159 83.4 68.8759C84.75 69.9659 85.67 71.4959 85.99 73.1959C86.37 75.1659 85.94 77.1559 84.8 78.7959C83.65 80.4359 81.93 81.5159 79.95 81.8459C76.16 82.4659 72.41 79.9159 71.59 76.1759C71.21 74.4259 71.47 72.6059 72.34 71.0459C73.35 69.2159 73.7 67.2459 73.34 65.3559L72.71 62.0559C72.61 61.5359 72.31 61.0759 71.87 60.7759C71.43 60.4759 70.89 60.3659 70.37 60.4659L46.76 64.9959C46.76 64.9959 46.72 65.0059 46.7 65.0159C46.63 65.0359 46.55 65.0559 46.48 65.0759C46.43 65.0959 46.38 65.1059 46.33 65.1359C46.26 65.1659 46.2 65.2059 46.14 65.2359C46.09 65.2659 46.05 65.2859 46 65.3159C45.94 65.3559 45.88 65.4059 45.83 65.4559C45.79 65.4859 45.75 65.5159 45.72 65.5459C45.65 65.6159 45.59 65.6959 45.53 65.7759C45.52 65.7959 45.5 65.8059 45.49 65.8259C45.42 65.9259 45.36 66.0359 45.31 66.1559C45.29 66.1959 45.28 66.2359 45.27 66.2759C45.24 66.3559 45.21 66.4259 45.2 66.5059C45.19 66.5659 45.18 66.6259 45.18 66.6759C45.18 66.7359 45.16 66.7959 45.16 66.8559L43.7 99.4459C43.68 99.8759 43.82 100.286 44.05 100.636C44.11 100.736 44.18 100.826 44.26 100.916C44.32 100.976 44.4 101.036 44.47 101.086C44.53 101.136 44.58 101.196 44.65 101.236C44.65 101.236 44.67 101.236 44.68 101.246C44.79 101.306 44.9 101.356 45.02 101.396C45.08 101.416 45.13 101.446 45.18 101.466C45.34 101.506 45.51 101.536 45.67 101.536C45.68 101.536 45.7 101.536 45.71 101.536C45.87 101.536 46.04 101.516 46.2 101.476C46.36 101.436 46.52 101.376 46.67 101.296L51.23 98.8059L56.58 126.696C56.76 127.656 57.6 128.316 58.54 128.316C58.66 128.316 58.79 128.306 58.92 128.276L83.1 123.646C83.62 123.546 84.08 123.246 84.38 122.806C84.68 122.366 84.79 121.826 84.69 121.306L84.06 118.006C83.7 116.116 82.65 114.416 81.03 113.086C79.65 111.956 78.73 110.356 78.44 108.596C77.82 104.806 80.37 101.056 84.11 100.236C86.07 99.8059 88.07 100.176 89.74 101.276C91.41 102.376 92.54 104.066 92.92 106.036C93.25 107.736 92.96 109.496 92.11 111.006C91.12 112.766 90.77 114.736 91.12 116.576L91.77 119.956C91.98 121.036 93.03 121.746 94.11 121.546L118.29 116.916C118.81 116.816 119.27 116.516 119.57 116.076C119.87 115.636 119.98 115.096 119.88 114.576L115.62 92.3659L117.04 92.0959C118.2 91.8759 119.23 92.2659 119.89 92.6459C122.22 93.9559 124.95 94.4059 127.57 93.8959C130.61 93.3159 133.22 91.5659 134.92 88.9859C136.62 86.4059 137.19 83.3159 136.52 80.2959L136.47 80.2759ZM131.53 86.7759C130.43 88.4459 128.74 89.5759 126.77 89.9559C125.07 90.2759 123.31 89.9959 121.8 89.1459C120.04 88.1559 118.07 87.8059 116.24 88.1559L112.86 88.8059C111.78 89.0159 111.06 90.0659 111.27 91.1459L115.53 113.356L95.28 117.236L95.01 115.816C94.79 114.656 95.18 113.626 95.56 112.966C96.87 110.636 97.32 107.906 96.81 105.276C96.23 102.236 94.48 99.6259 91.9 97.9259C89.32 96.2259 86.23 95.6559 83.2 96.3259C77.42 97.6059 73.49 103.396 74.44 109.246C74.89 111.976 76.31 114.436 78.44 116.186C79.06 116.686 79.84 117.546 80.07 118.766L80.33 120.096L60.08 123.976L49.45 68.5359L69.14 64.7659L69.4 66.0959C69.63 67.3059 69.22 68.3959 68.84 69.0959C67.5 71.5159 67.09 74.3259 67.69 77.0259C68.96 82.8159 74.76 86.7459 80.6 85.7859C83.66 85.2859 86.32 83.6159 88.09 81.0759C89.86 78.5359 90.52 75.4659 89.93 72.4359C89.43 69.8159 88 67.4359 85.92 65.7559C85.33 65.2759 84.58 64.4659 84.36 63.3059L84.09 61.8859L104.9 57.8959L109.16 80.1059C109.26 80.6259 109.56 81.0859 110 81.3859C110.44 81.6859 110.98 81.7959 111.5 81.6959L114.8 81.0659C116.69 80.7059 118.39 79.6559 119.72 78.0359C120.85 76.6559 122.45 75.7359 124.21 75.4459C128 74.8259 131.75 77.3759 132.57 81.1159C133 83.0759 132.63 85.0759 131.53 86.7459V86.7759Z" fill="currentColor" class="penny-illustration-border"/>
<path d="M101.3 23.9559L105.14 22.8459L103.18 16.0359C114.88 22.4959 124.35 32.5259 130.09 44.6659L133.71 42.9559C127.65 30.1459 117.7 19.5559 105.39 12.6859L111.78 10.8459L110.67 7.00586L99.43 10.2459C98.37 10.5559 97.76 11.6559 98.06 12.7259L101.3 23.9659V23.9559Z" fill="currentColor" class="penny-illustration-border"/>
<path d="M43.45 119.886L39.61 120.996L41.57 127.806C29.87 121.346 20.4 111.326 14.66 99.1759L11.04 100.886C17.1 113.696 27.05 124.286 39.36 131.156L32.97 132.996L34.08 136.836L45.32 133.596C46.38 133.286 46.99 132.186 46.69 131.116L43.45 119.876V119.886Z" fill="currentColor" class="penny-illustration-border"/>
<path d="M124.2 75.4641C122.43 75.7541 120.84 76.6741 119.71 78.0541C118.38 79.6741 116.68 80.7241 114.79 81.0841L111.49 81.7141C110.97 81.8141 110.43 81.7041 109.99 81.4041C109.55 81.1041 109.25 80.6441 109.15 80.1241L104.89 57.9141L84.0799 61.9041L84.3499 63.3241C84.5699 64.4841 85.3199 65.2941 85.9099 65.7741C87.9899 67.4541 89.4099 69.8241 89.9199 72.4541C90.4999 75.4941 89.8499 78.5641 88.0799 81.0941C86.3099 83.6341 83.6499 85.3041 80.5899 85.8041C74.7499 86.7641 68.9499 82.8241 67.6799 77.0441C67.0899 74.3441 67.4999 71.5241 68.8299 69.1141C69.2199 68.4141 69.6299 67.3341 69.3899 66.1141L69.1299 64.7841L49.4399 68.5541L60.0699 123.994L80.3199 120.114L80.0599 118.784C79.8299 117.574 79.0399 116.714 78.4299 116.204C76.2899 114.454 74.8699 111.994 74.4299 109.264C73.4699 103.414 77.3999 97.6241 83.1899 96.3441C86.2099 95.6741 89.2999 96.2441 91.8899 97.9441C94.4699 99.6441 96.2199 102.254 96.7999 105.294C97.2999 107.914 96.8599 110.644 95.5499 112.984C95.1799 113.644 94.7799 114.674 94.9999 115.834L95.2699 117.254L115.52 113.374L111.26 91.1641C111.05 90.0841 111.76 89.0341 112.85 88.8241L116.23 88.1741C118.06 87.8241 120.04 88.1741 121.79 89.1641C123.3 90.0141 125.06 90.2941 126.76 89.9741C128.73 89.5941 130.42 88.4641 131.52 86.7941C132.62 85.1241 132.99 83.1241 132.56 81.1641C131.73 77.4141 127.98 74.8741 124.2 75.4941V75.4641Z" fill="currentColor" class="penny-illustration-background"/>
</svg>
