<svg viewBox="0 0 144 144" fill="none" xmlns="http://www.w3.org/2000/svg">
<path d="M22.45 84.24C22.91 68.41 35.68 56.01 51.52 56.01C55.86 56.01 59.97 56.95 63.66 58.63C71.43 52 81.5 47.99 92.5 47.99C93.64 47.99 94.77 48.05 95.9 48.13C94.15 25.15 74.92 7 51.52 7C26.98 7 7.01001 26.97 7.01001 51.51C7.01001 64.79 12.85 77.22 23.06 85.72C23.1 85.76 23.14 85.79 23.17 85.82C23.26 85.89 23.35 85.96 23.44 86.03L23.56 86.13C23.56 86.13 23.57 86.13 23.58 86.14C23.45 86.03 23.31 85.93 23.18 85.82C22.7 85.43 22.44 84.84 22.46 84.22L22.45 84.24ZM51.52 19.79C60.82 19.79 68.38 27.35 68.38 36.65C68.38 45.95 60.82 53.51 51.52 53.51C42.22 53.51 34.66 45.95 34.66 36.65C34.66 27.35 42.22 19.79 51.52 19.79Z" fill="currentColor" class="penny-illustration-brand-primary"/>
<path d="M51.52 53.51C60.82 53.51 68.38 45.95 68.38 36.65C68.38 27.35 60.82 19.79 51.52 19.79C42.22 19.79 34.66 27.35 34.66 36.65C34.66 45.95 42.22 53.51 51.52 53.51ZM51.52 23.79C58.61 23.79 64.38 29.56 64.38 36.65C64.38 43.74 58.61 49.51 51.52 49.51C44.43 49.51 38.66 43.74 38.66 36.65C38.66 29.56 44.43 23.79 51.52 23.79Z" fill="currentColor" class="penny-illustration-border"/>
<path d="M92.5 92.48C100.707 92.48 107.36 85.827 107.36 77.62C107.36 69.4131 100.707 62.76 92.5 62.76C84.2931 62.76 77.64 69.4131 77.64 77.62C77.64 85.827 84.2931 92.48 92.5 92.48Z" fill="currentColor" class="penny-illustration-brand-primary"/>
<path d="M92.5 98.98C78.66 98.98 67.25 109.37 65.62 122.77C72.78 129.13 82.19 133.01 92.5 133.01C102.81 133.01 112.22 129.14 119.38 122.77C117.75 109.37 106.34 98.98 92.5 98.98Z" fill="currentColor" class="penny-illustration-brand-primary"/>
<path d="M95.89 48.12C94.77 48.03 93.64 47.98 92.49 47.98C81.5 47.98 71.43 51.99 63.65 58.62C59.96 56.94 55.85 56 51.51 56C35.67 56 22.9 68.4 22.44 84.23C22.42 84.85 22.69 85.44 23.16 85.83C23.29 85.94 23.43 86.04 23.56 86.15C27.47 89.31 31.87 91.76 36.55 93.43C36.62 93.46 36.69 93.49 36.77 93.51C36.79 93.51 36.82 93.51 36.84 93.53C40.46 94.79 44.25 95.59 48.11 95.89C49.85 118.85 69.08 137 92.48 137C117.02 137 136.99 117.03 136.99 92.49C136.99 67.95 118.84 49.86 95.87 48.12H95.89ZM36.47 89.12C32.91 87.69 29.54 85.77 26.49 83.37C27.37 70.19 38.18 60 51.51 60C54.44 60 57.25 60.49 59.86 61.4C50.25 68.91 39.6 84.39 36.46 89.12H36.47ZM119.37 122.76C112.21 129.12 102.8 133 92.49 133C82.18 133 72.77 129.13 65.61 122.76C57.25 115.33 51.97 104.52 51.97 92.48C51.97 70.14 70.14 51.97 92.48 51.97C114.82 51.97 132.99 70.14 132.99 92.48C132.99 104.51 127.71 115.33 119.35 122.76H119.37Z" fill="currentColor" class="penny-illustration-border"/>
<path d="M99.62 26.11L103.46 25L101.64 18.68C112.74 24.86 121.72 34.4 127.18 45.95L130.8 44.24C125.02 32.03 115.55 21.92 103.84 15.33L109.76 13.62L108.65 9.78L97.89 12.88C96.83 13.19 96.22 14.29 96.52 15.36L99.62 26.12V26.11Z" fill="currentColor" class="penny-illustration-border"/>
<path d="M44.4 117.89L40.56 119L42.38 125.32C31.28 119.14 22.3 109.6 16.84 98.05L13.22 99.76C19 111.97 28.47 122.08 40.18 128.67L34.26 130.37L35.37 134.21L46.13 131.11C47.19 130.8 47.8 129.7 47.5 128.63L44.4 117.87V117.89Z" fill="currentColor" class="penny-illustration-border"/>
<path d="M51.52 49.5091C58.61 49.5091 64.38 43.7391 64.38 36.6491C64.38 29.5591 58.61 23.7891 51.52 23.7891C44.43 23.7891 38.66 29.5591 38.66 36.6491C38.66 43.7391 44.43 49.5091 51.52 49.5091Z" fill="currentColor" class="penny-illustration-background"/>
<path d="M59.87 61.3991C57.26 60.4891 54.45 59.9991 51.52 59.9991C38.19 59.9991 27.38 70.1891 26.5 83.3691C29.55 85.7591 32.91 87.6891 36.48 89.1191C39.62 84.3891 50.27 68.9191 59.88 61.3991H59.87Z" fill="currentColor" class="penny-illustration-background"/>
<path d="M92.5 51.9691C70.16 51.9691 51.99 70.1391 51.99 92.4791C51.99 104.509 57.27 115.329 65.63 122.759C67.26 109.359 78.67 98.9691 92.51 98.9691C106.35 98.9691 117.76 109.359 119.39 122.759C127.75 115.329 133.03 104.519 133.03 92.4791C133.03 70.1391 114.86 51.9691 92.52 51.9691H92.5ZM92.5 92.4891C84.29 92.4891 77.64 85.8391 77.64 77.6291C77.64 69.4191 84.29 62.7691 92.5 62.7691C100.71 62.7691 107.36 69.4191 107.36 77.6291C107.36 85.8391 100.71 92.4891 92.5 92.4891Z" fill="currentColor" class="penny-illustration-background"/>
</svg>
