<svg viewBox="0 0 144 144" fill="none" xmlns="http://www.w3.org/2000/svg">
<path d="M125.46 35.6312C125.53 36.0112 125.5 36.4112 125.35 36.7812C125.04 37.5312 124.31 38.0112 123.5 38.0112H121.5V127.941H26.5V11.0012H94.48V9.00125C94.48 8.19125 94.97 7.46125 95.71 7.15125C95.97 7.04125 96.25 6.99125 96.53 7.00125C96.51 7.00125 96.5 7.00125 96.48 7.00125H24.5C23.4 7.00125 22.5 7.90125 22.5 9.00125V10.0013H20C18.9 10.0013 18 10.9012 18 12.0012V134.441C18 135.541 18.9 136.441 20 136.441H120.5C121.6 136.441 122.5 135.541 122.5 134.441V131.941H123.5C124.6 131.941 125.5 131.041 125.5 129.941V36.0212C125.5 35.8913 125.49 35.7612 125.46 35.6312Z" fill="currentColor" class="penny-illustration-border"/>
<path d="M96.68 7.02125C96.78 7.03125 96.87 7.04125 96.97 7.06125C96.88 7.04125 96.78 7.03125 96.68 7.02125Z" fill="currentColor" class="penny-illustration-border"/>
<path d="M94.48 9.00125V36.0212C94.48 37.1213 95.38 38.0212 96.48 38.0212H123.5C124.31 38.0212 125.04 37.5312 125.35 36.7913C125.5 36.4212 125.54 36.0212 125.46 35.6412C125.43 35.4712 125.36 35.3112 125.29 35.1612C125.27 35.1212 125.25 35.0813 125.23 35.0413C125.14 34.8913 125.04 34.7413 124.92 34.6213L97.9 7.59125C97.77 7.46125 97.63 7.36125 97.48 7.28125C97.44 7.26125 97.41 7.24125 97.37 7.22125C97.24 7.16125 97.11 7.11125 96.97 7.07125C96.88 7.05125 96.78 7.04125 96.68 7.03125C96.63 7.03125 96.59 7.01125 96.54 7.01125C96.27 7.01125 95.99 7.05125 95.72 7.16125C94.97 7.47125 94.49 8.20125 94.49 9.01125L94.48 9.00125Z" fill="currentColor" class="penny-illustration-brand-primary"/>
<path d="M39.15 97.3313H42.24V116.441H46.82V93.2213H39.15V97.3313Z" fill="currentColor" class="penny-illustration-border"/>
<path d="M59.82 92.7712C56.74 92.7712 54.54 93.8112 53.21 95.8913C51.88 97.9713 51.22 100.851 51.22 104.521C51.22 108.191 51.88 111.111 53.21 113.221C54.54 115.321 56.74 116.371 59.82 116.371C62.9 116.371 65.1 115.321 66.43 113.221C67.76 111.121 68.42 108.221 68.42 104.521C68.42 100.821 67.76 97.9713 66.43 95.8913C65.1 93.8112 62.9 92.7712 59.82 92.7712ZM63.74 108.591C63.55 109.681 63.15 110.571 62.53 111.231C61.91 111.891 61.01 112.231 59.82 112.231C58.63 112.231 57.73 111.901 57.11 111.231C56.49 110.561 56.09 109.681 55.9 108.591C55.71 107.501 55.61 106.141 55.61 104.531C55.61 102.921 55.71 101.641 55.91 100.561C56.11 99.4912 56.52 98.6113 57.12 97.9313C57.73 97.2513 58.62 96.9113 59.81 96.9113C61 96.9113 61.9 97.2513 62.5 97.9313C63.1 98.6113 63.51 99.4912 63.71 100.561C63.91 101.631 64.01 102.961 64.01 104.531C64.01 106.101 63.91 107.501 63.72 108.591H63.74Z" fill="currentColor" class="penny-illustration-border"/>
<path d="M80.02 92.6813C77.6 92.6813 75.69 93.3812 74.28 94.7712C72.88 96.1612 72.18 98.0413 72.18 100.391C72.18 101.981 72.5 103.341 73.14 104.451C73.78 105.571 74.64 106.411 75.74 106.971C76.83 107.531 78.06 107.811 79.42 107.811C80.44 107.811 81.39 107.621 82.27 107.241C83.15 106.861 83.83 106.331 84.32 105.651C84.32 108.241 84.02 110.081 83.43 111.181C82.83 112.271 81.88 112.821 80.56 112.821C79.54 112.821 78.73 112.571 78.12 112.071C77.51 111.571 77.13 110.861 76.96 109.921H72.82C72.9 111.111 73.24 112.201 73.82 113.191C74.4 114.181 75.25 114.971 76.35 115.581C77.45 116.191 78.79 116.491 80.36 116.491C82.36 116.491 83.93 116.031 85.09 115.121C86.25 114.211 87.07 112.871 87.54 111.111C88.02 109.351 88.26 107.091 88.26 104.321C88.26 100.431 87.64 97.5212 86.4 95.5912C85.16 93.6612 83.03 92.6913 80.01 92.6913L80.02 92.6813ZM82.95 103.161C82.31 103.841 81.44 104.181 80.34 104.181C79.04 104.181 78.07 103.821 77.42 103.111C76.77 102.401 76.45 101.481 76.45 100.351C76.45 99.2213 76.78 98.2412 77.45 97.5312C78.12 96.8213 79.03 96.4613 80.17 96.4613C81.31 96.4613 82.22 96.8112 82.89 97.5013C83.56 98.1913 83.89 99.1612 83.89 100.421C83.89 101.571 83.57 102.481 82.93 103.161H82.95Z" fill="currentColor" class="penny-illustration-border"/>
<path d="M92.13 100.391C92.13 101.981 92.45 103.341 93.09 104.451C93.73 105.571 94.59 106.411 95.69 106.971C96.79 107.531 98.01 107.811 99.37 107.811C100.39 107.811 101.34 107.621 102.22 107.241C103.1 106.861 103.79 106.331 104.27 105.651C104.27 108.241 103.97 110.081 103.38 111.181C102.79 112.281 101.83 112.821 100.51 112.821C99.49 112.821 98.68 112.571 98.07 112.071C97.46 111.571 97.08 110.861 96.91 109.921H92.77C92.85 111.111 93.19 112.201 93.77 113.191C94.35 114.181 95.2 114.971 96.3 115.581C97.4 116.191 98.74 116.491 100.31 116.491C102.31 116.491 103.88 116.031 105.04 115.121C106.2 114.211 107.02 112.871 107.49 111.111C107.97 109.351 108.21 107.091 108.21 104.321C108.21 100.431 107.59 97.5212 106.35 95.5912C105.11 93.6612 102.98 92.6913 99.96 92.6913C97.54 92.6913 95.63 93.3913 94.23 94.7812C92.83 96.1712 92.13 98.0513 92.13 100.401V100.391ZM97.4 97.5413C98.07 96.8313 98.98 96.4713 100.12 96.4713C101.26 96.4713 102.17 96.8213 102.84 97.5113C103.51 98.2013 103.84 99.1712 103.84 100.431C103.84 101.581 103.52 102.491 102.88 103.171C102.24 103.851 101.37 104.191 100.27 104.191C98.97 104.191 98 103.831 97.35 103.121C96.7 102.411 96.38 101.491 96.38 100.361C96.38 99.2313 96.71 98.2513 97.38 97.5413H97.4Z" fill="currentColor" class="penny-illustration-border"/>
<path d="M45.05 51.4412C42.12 51.4412 39.73 49.0513 39.73 46.1213H35.73C35.73 50.5513 38.84 54.2713 42.99 55.2113V57.9513H46.99V55.2713C51.24 54.4513 54.25 50.9613 54.25 46.5112C54.25 39.9113 47.38 37.6812 44.79 36.8412L44.3 36.6812C41.66 35.8412 40.73 35.3512 40.73 33.1712C40.73 31.2412 42.58 29.7812 45.04 29.7812C47.5 29.7812 49.23 31.7113 49.23 34.3713H53.23C53.23 30.1812 50.65 26.8913 46.98 26.0212V23.0512H42.98V26.0112C39.35 26.8112 36.73 29.6612 36.73 33.1712C36.73 38.4712 40.71 39.7313 43.09 40.4913L43.55 40.6413C48.24 42.1712 50.24 43.9212 50.24 46.5112C50.24 49.3713 48.05 51.4513 45.03 51.4513L45.05 51.4412Z" fill="currentColor" class="penny-illustration-border"/>
<path d="M69.5 69.4412H38V73.4413H69.5V69.4412Z" fill="currentColor" class="penny-illustration-border"/>
<path d="M96.5 78.4413H38V82.4413H96.5V78.4413Z" fill="currentColor" class="penny-illustration-border"/>
<path d="M100.28 104.182C101.38 104.182 102.26 103.842 102.89 103.162C103.53 102.482 103.85 101.572 103.85 100.422C103.85 99.172 103.52 98.202 102.85 97.502C102.18 96.802 101.27 96.462 100.13 96.462C98.99 96.462 98.08 96.822 97.41 97.532C96.74 98.242 96.41 99.182 96.41 100.352C96.41 101.522 96.73 102.392 97.38 103.112C98.03 103.822 99 104.182 100.3 104.182H100.28Z" fill="currentColor" class="penny-illustration-background"/>
<path d="M62.51 97.932C61.9 97.252 61.01 96.912 59.82 96.912C58.63 96.912 57.73 97.252 57.13 97.932C56.53 98.612 56.12 99.492 55.92 100.562C55.72 101.632 55.62 102.962 55.62 104.532C55.62 106.102 55.72 107.502 55.91 108.592C56.1 109.682 56.5 110.572 57.12 111.232C57.74 111.902 58.64 112.232 59.83 112.232C61.02 112.232 61.92 111.902 62.54 111.232C63.16 110.562 63.56 109.682 63.75 108.592C63.94 107.502 64.04 106.142 64.04 104.532C64.04 102.922 63.94 101.642 63.74 100.562C63.54 99.492 63.13 98.612 62.53 97.932H62.51Z" fill="currentColor" class="penny-illustration-background"/>
<path d="M80.18 96.472C79.03 96.472 78.13 96.832 77.46 97.542C76.79 98.252 76.46 99.192 76.46 100.362C76.46 101.532 76.78 102.402 77.43 103.122C78.08 103.832 79.05 104.192 80.35 104.192C81.45 104.192 82.32 103.852 82.96 103.172C83.6 102.492 83.92 101.582 83.92 100.432C83.92 99.182 83.58 98.212 82.92 97.512C82.25 96.822 81.34 96.472 80.2 96.472H80.18Z" fill="currentColor" class="penny-illustration-background"/>
<path d="M94.48 36.022V11.002H26.5V127.942H121.5V38.022H96.48C95.38 38.022 94.48 37.122 94.48 36.022ZM43.57 40.632L43.11 40.482C40.73 39.722 36.75 38.462 36.75 33.162C36.75 29.652 39.37 26.792 43 26.002V23.042H47V26.012C50.67 26.882 53.25 30.182 53.25 34.362H49.25C49.25 31.702 47.49 29.772 45.06 29.772C42.63 29.772 40.75 31.232 40.75 33.162C40.75 35.342 41.68 35.832 44.32 36.672L44.81 36.832C47.4 37.672 54.27 39.902 54.27 46.502C54.27 50.952 51.26 54.442 47.01 55.262V57.942H43.01V55.202C38.86 54.262 35.75 50.552 35.75 46.112H39.75C39.75 49.042 42.14 51.432 45.07 51.432C48 51.432 50.28 49.352 50.28 46.492C50.28 43.902 48.28 42.142 43.59 40.622L43.57 40.632ZM69.5 69.442V73.442H38V69.442H69.5ZM46.82 116.442H42.23V97.322H39.14V93.212H46.82V116.442ZM66.43 113.232C65.1 115.332 62.9 116.382 59.82 116.382C56.74 116.382 54.54 115.332 53.21 113.232C51.88 111.132 51.22 108.232 51.22 104.532C51.22 100.832 51.88 97.982 53.21 95.902C54.54 93.822 56.74 92.782 59.82 92.782C62.9 92.782 65.1 93.822 66.43 95.902C67.76 97.982 68.42 100.862 68.42 104.532C68.42 108.202 67.76 111.122 66.43 113.232ZM87.55 111.092C87.07 112.852 86.26 114.192 85.1 115.102C83.94 116.012 82.37 116.472 80.37 116.472C78.8 116.472 77.46 116.172 76.36 115.562C75.25 114.952 74.41 114.162 73.83 113.172C73.25 112.182 72.91 111.092 72.83 109.902H76.97C77.14 110.842 77.53 111.552 78.13 112.052C78.74 112.552 79.55 112.802 80.57 112.802C81.89 112.802 82.84 112.252 83.44 111.162C84.03 110.072 84.33 108.222 84.33 105.632C83.84 106.312 83.16 106.842 82.28 107.222C81.4 107.602 80.45 107.792 79.43 107.792C78.07 107.792 76.84 107.512 75.75 106.952C74.66 106.392 73.79 105.552 73.15 104.432C72.51 103.322 72.19 101.962 72.19 100.372C72.19 98.012 72.89 96.142 74.29 94.752C75.69 93.362 77.6 92.662 80.03 92.662C83.05 92.662 85.17 93.632 86.42 95.562C87.67 97.492 88.28 100.402 88.28 104.292C88.28 107.052 88.04 109.312 87.56 111.082L87.55 111.092ZM106.35 95.582C107.59 97.512 108.21 100.422 108.21 104.312C108.21 107.072 107.97 109.332 107.49 111.102C107.01 112.862 106.19 114.202 105.04 115.112C103.89 116.022 102.31 116.482 100.31 116.482C98.74 116.482 97.4 116.182 96.3 115.572C95.2 114.962 94.35 114.172 93.77 113.182C93.19 112.192 92.85 111.102 92.77 109.912H96.91C97.08 110.852 97.47 111.562 98.07 112.062C98.68 112.562 99.49 112.812 100.51 112.812C101.83 112.812 102.78 112.262 103.38 111.172C103.98 110.082 104.27 108.232 104.27 105.642C103.78 106.322 103.1 106.852 102.22 107.232C101.34 107.612 100.39 107.802 99.37 107.802C98.01 107.802 96.78 107.522 95.69 106.962C94.6 106.402 93.73 105.562 93.09 104.442C92.45 103.332 92.13 101.972 92.13 100.382C92.13 98.0219 92.83 96.152 94.23 94.762C95.63 93.372 97.54 92.672 99.96 92.672C102.98 92.672 105.1 93.642 106.35 95.572V95.582ZM96.5 82.442H38V78.442H96.5V82.442Z" fill="currentColor" class="penny-illustration-background"/>
</svg>
