<svg viewBox="0 0 144 144" fill="none">
<path d="M130.58 96.1297C125.06 90.6097 117.06 88.2797 109.45 89.8997L90.32 70.7697L111.18 49.9097L125.14 42.9297C125.56 42.7197 125.9 42.3597 126.08 41.9297L136.77 16.9897C137.09 16.2397 136.92 15.3697 136.35 14.7897L129.23 7.66968C128.65 7.08968 127.78 6.91968 127.03 7.24968L102.09 17.9397C101.65 18.1297 101.3 18.4597 101.09 18.8797L94.11 32.8397L73.25 53.6997L63 43.4497C66.45 33.2697 63.85 21.9597 56.2 14.3097C47.72 5.81968 34.76 3.58968 23.94 8.75968C23.35 9.03968 22.94 9.58968 22.83 10.2297C22.72 10.8697 22.93 11.5197 23.39 11.9797L39.53 28.1297L29.94 37.7197L13.8 21.5597C13.34 21.0997 12.69 20.8897 12.05 20.9997C11.41 21.1097 10.86 21.5197 10.58 22.1097C5.42 32.9297 7.64 45.8897 16.12 54.3697C23.77 62.0197 35.08 64.6197 45.26 61.1697L51.96 67.8697C52.93 66.9397 53.97 66.0897 55.08 65.3397L47.19 57.4497C46.81 57.0697 46.3 56.8597 45.78 56.8597C45.53 56.8597 45.29 56.8997 45.05 56.9997C36.04 60.5297 25.79 58.3897 18.95 51.5497C12.36 44.9597 10.17 35.2097 13.11 26.5297L28.54 41.9597C29.32 42.7397 30.59 42.7397 31.37 41.9597L43.79 29.5397C44.57 28.7597 44.57 27.4897 43.79 26.7097L28.36 11.2797C37.04 8.33968 46.79 10.5297 53.38 17.1197C60.22 23.9597 62.36 34.1997 58.83 43.2197C58.54 43.9597 58.72 44.7997 59.28 45.3597L70.43 56.5097L66.36 60.5797L66.81 60.4297C67.53 60.1897 68.32 60.3797 68.86 60.9097L81.7 73.7497L70.28 62.3297L97.19 35.4197C97.34 35.2697 97.47 35.0897 97.57 34.8997L104.37 21.2997L127.39 11.4297L132.6 16.6397L122.73 39.6597L109.13 46.4597C108.94 46.5597 108.76 46.6797 108.61 46.8397L81.7 73.7497L83.11 75.1597C83.65 75.6997 83.83 76.4897 83.59 77.2097L81.7 82.8797C80.56 86.2897 78.65 89.4397 76.17 92.0297L91.75 107.61C90.13 115.22 92.47 123.22 97.98 128.74C102.34 133.1 108.13 135.5 114.29 135.5C120.45 135.5 126.25 133.1 130.6 128.74C139.59 119.74 139.59 105.11 130.6 96.1197L130.58 96.1297ZM127.75 125.92C124.15 129.52 119.36 131.5 114.27 131.5C109.18 131.5 104.39 129.52 100.79 125.92C96 121.13 94.12 114.08 95.87 107.51C96.05 106.82 95.86 106.09 95.35 105.58L85.16 95.3897C85.96 93.9897 86.62 92.5197 87.13 91.0097L88.87 85.7797L94.29 80.3597L107.43 93.4997C107.93 93.9997 108.67 94.1997 109.36 94.0197C115.93 92.2697 122.98 94.1497 127.77 98.9397C135.2 106.38 135.2 118.47 127.77 125.91L127.75 125.92Z" fill="currentColor" class="penny-illustration-border"/>
<path d="M107.58 105.76C103.9 109.44 103.9 115.44 107.58 119.12C109.36 120.91 111.74 121.89 114.26 121.89C116.78 121.89 119.16 120.91 120.94 119.12C124.62 115.44 124.62 109.44 120.94 105.76C117.26 102.08 111.26 102.08 107.58 105.76ZM118.12 116.29C117.09 117.32 115.72 117.89 114.27 117.89C112.82 117.89 111.45 117.32 110.42 116.29C109.39 115.26 108.82 113.89 108.82 112.44C108.82 110.99 109.39 109.62 110.42 108.59C111.48 107.53 112.88 107 114.27 107C115.66 107 117.06 107.53 118.12 108.59C120.24 110.71 120.24 114.17 118.12 116.3V116.29Z" fill="currentColor" class="penny-illustration-border"/>
<path d="M83.57 77.2197C83.81 76.4997 83.62 75.7097 83.09 75.1697L68.84 60.9197C68.3 60.3797 67.51 60.1997 66.79 60.4397L61.11 62.3297C58.97 63.0397 56.94 64.0597 55.08 65.3297C53.97 66.0897 52.93 66.9297 51.96 67.8597C51.83 67.9797 51.7 68.0997 51.58 68.2197L9.22 110.57C6.26 113.53 6.26 118.35 9.22 121.32L22.68 134.78C24.12 136.22 26.02 137.01 28.05 137.01C30.08 137.01 31.99 136.22 33.42 134.78L75.78 92.4197C75.9 92.2997 76.02 92.1697 76.14 92.0397C78.62 89.4397 80.54 86.2997 81.67 82.8897L83.56 77.2197H83.57Z" fill="currentColor" class="penny-illustration-brand-primary"/>
<path d="M70.41 56.5097L59.26 45.3597C58.7 44.7997 58.52 43.9597 58.81 43.2197C62.34 34.2097 60.2 23.9597 53.36 17.1197C46.77 10.5297 37.02 8.33967 28.34 11.2797L43.77 26.7097C44.55 27.4897 44.55 28.7597 43.77 29.5397L31.35 41.9597C30.57 42.7397 29.3 42.7397 28.52 41.9597L13.09 26.5297C10.15 35.2097 12.34 44.9597 18.93 51.5497C25.77 58.3897 36.01 60.5297 45.03 56.9997C45.27 56.9097 45.51 56.8597 45.76 56.8597C46.28 56.8597 46.79 57.0597 47.17 57.4497L55.06 65.3397C56.92 64.0697 58.95 63.0497 61.09 62.3397L66.32 60.5997L70.41 56.5097Z" fill="currentColor" class="penny-illustration-background"/>
<path d="M127.75 98.9497C122.96 94.1597 115.91 92.2797 109.34 94.0297C108.65 94.2097 107.92 94.0197 107.41 93.5097L94.27 80.3697L88.85 85.7897L87.11 91.0197C86.61 92.5297 85.95 93.9997 85.14 95.3997L95.33 105.59C95.83 106.09 96.03 106.83 95.85 107.52C94.1 114.09 95.99 121.14 100.77 125.93C104.37 129.53 109.16 131.51 114.25 131.51C119.34 131.51 124.13 129.53 127.73 125.93C135.16 118.49 135.16 106.4 127.73 98.9597L127.75 98.9497ZM120.95 119.12C119.17 120.91 116.79 121.89 114.27 121.89C111.75 121.89 109.37 120.91 107.59 119.12C103.91 115.44 103.91 109.44 107.59 105.76C111.27 102.08 117.27 102.08 120.95 105.76C124.63 109.44 124.63 115.44 120.95 119.12Z" fill="currentColor" class="penny-illustration-background"/>
<path d="M108.58 46.8397C108.73 46.6897 108.91 46.5597 109.1 46.4597L122.7 39.6597L132.57 16.6397L127.36 11.4297L104.34 21.2997L97.54 34.8997C97.44 35.0897 97.32 35.2697 97.16 35.4197L70.25 62.3297L81.67 73.7497L108.58 46.8397Z" fill="currentColor" class="penny-illustration-background"/>
</svg>
