<svg viewBox="0 0 144 144" fill="none" xmlns="http://www.w3.org/2000/svg">
<path d="M81.8261 9.11557V37.1856C81.8261 38.2856 82.7261 39.1856 83.8261 39.1856H111.896C112.706 39.1856 113.436 38.6956 113.746 37.9556C113.896 37.5856 113.936 37.1856 113.856 36.8056C113.826 36.6356 113.756 36.4756 113.686 36.3256C113.666 36.2856 113.646 36.2456 113.626 36.2056C113.536 36.0556 113.436 35.9056 113.316 35.7856L85.2361 7.70557C85.1061 7.57557 84.9661 7.47557 84.8161 7.39557C84.7761 7.37557 84.7461 7.35557 84.7061 7.33557C84.5761 7.27557 84.4461 7.22557 84.3061 7.18557C84.2161 7.16557 84.1161 7.15557 84.0161 7.14557C83.9661 7.14557 83.9261 7.12557 83.8761 7.12557C83.6061 7.12557 83.3261 7.16557 83.0561 7.27557C82.3061 7.58557 81.8261 8.31557 81.8261 9.12557V9.11557Z" fill="currentColor" class="penny-illustration-brand-primary"/>
<path d="M46.8961 29.3756H24.3961V33.3756H46.8961V29.3756Z" fill="currentColor" class="penny-illustration-border"/>
<path d="M64.8961 42.8756H24.3961V46.8756H64.8961V42.8756Z" fill="currentColor" class="penny-illustration-border"/>
<path d="M134.766 124.066L117.416 106.716C120.376 101.876 122.086 96.1956 122.086 90.1156C122.086 81.9256 118.976 74.4456 113.886 68.7956V37.1856C113.886 37.0556 113.876 36.9256 113.846 36.7956C113.916 37.1756 113.886 37.5756 113.736 37.9456C113.426 38.6956 112.696 39.1756 111.886 39.1756H109.886V65.0556C104.466 60.7856 97.6261 58.2256 90.2061 58.2256C78.6061 58.2256 68.4461 64.4456 62.8661 73.7356H62.7861V73.8856C62.3361 74.6556 61.9061 75.4356 61.5161 76.2356H24.3961V80.2356H59.9061C58.8861 83.3456 58.3361 86.6656 58.3361 90.1156C58.3361 90.3456 58.3461 90.5756 58.3561 90.8056H24.3961V94.8056H58.6761C60.9461 110.176 74.2261 122.006 90.2161 122.006C96.2961 122.006 101.976 120.296 106.816 117.336L109.896 120.416V132.776H11.0361V11.1156H81.8261V9.11557C81.8261 8.30557 82.3161 7.57557 83.0561 7.26557C83.3161 7.15557 83.5961 7.10557 83.8761 7.11557C83.8561 7.11557 83.8461 7.11557 83.8261 7.11557H9.03613C7.93613 7.11557 7.03613 8.01557 7.03613 9.11557V134.776C7.03613 135.876 7.93613 136.776 9.03613 136.776H111.896C112.996 136.776 113.896 135.876 113.896 134.776V124.416L124.166 134.686C125.626 136.146 127.546 136.886 129.466 136.886C131.386 136.886 133.306 136.156 134.766 134.686C137.696 131.756 137.696 127.006 134.766 124.076V124.066ZM90.2061 118.006C77.3161 118.006 66.4461 109.216 63.2661 97.3056H81.1161V88.3056H62.3861C62.5061 86.3956 62.8261 84.5256 63.3161 82.7356H99.2861V73.7356H67.6561C72.7261 66.7656 80.9461 62.2256 90.2061 62.2256C105.586 62.2256 118.086 74.7356 118.086 90.1056C118.086 105.476 105.576 117.986 90.2061 117.986V118.006Z" fill="currentColor" class="penny-illustration-border"/>
<path d="M84.0161 7.13557C84.1161 7.14557 84.2061 7.15557 84.3061 7.17557C84.2161 7.15557 84.1161 7.14557 84.0161 7.13557Z" fill="currentColor" class="penny-illustration-border"/>
<path d="M83.8761 7.11557C83.8761 7.11557 83.9661 7.12557 84.0161 7.13557C83.9661 7.13557 83.9261 7.11557 83.8761 7.11557Z" fill="currentColor" class="penny-illustration-border"/>
<path d="M84.3061 7.18557C84.4461 7.22557 84.5761 7.26557 84.7061 7.33557C84.5761 7.27557 84.4461 7.22557 84.3061 7.18557Z" fill="currentColor" class="penny-illustration-border"/>
<path d="M81.8261 37.1856V11.1156H11.0361V132.776H109.896V120.416L106.816 117.336C101.976 120.296 96.2961 122.006 90.2161 122.006C74.2261 122.006 60.9561 110.176 58.6761 94.8056H24.3961V90.8056H58.3461C58.3461 90.5756 58.3261 90.3456 58.3261 90.1156C58.3261 86.6656 58.8861 83.3456 59.8961 80.2356H24.3961V76.2356H61.5161C61.9061 75.4356 62.3361 74.6456 62.7861 73.8856V73.7356H62.8661C68.4461 64.4556 78.6161 58.2256 90.2061 58.2256C97.6261 58.2256 104.466 60.7856 109.886 65.0556V39.1756H83.8161C82.7161 39.1756 81.8161 38.2756 81.8161 37.1756L81.8261 37.1856ZM24.3961 29.3756H46.8961V33.3756H24.3961V29.3756ZM64.8961 46.8756H24.3961V42.8756H64.8961V46.8756Z" fill="currentColor" class="penny-illustration-background"/>
<path d="M90.2061 62.2356C80.9461 62.2356 72.7361 66.7756 67.6561 73.7456H99.2861V82.7456H63.3161C62.8261 84.5356 62.5061 86.3956 62.3861 88.3156H81.1161V97.3156H63.2661C66.4461 109.216 77.3161 118.016 90.2061 118.016C105.586 118.016 118.086 105.506 118.086 90.1356C118.086 74.7656 105.576 62.2556 90.2061 62.2556V62.2356Z" fill="currentColor" class="penny-illustration-background"/>
</svg>
