<svg viewBox="0 0 144 144" fill="none" xmlns="http://www.w3.org/2000/svg">
<path d="M136.306 42.0975C135.706 41.5775 134.856 41.4575 134.146 41.7975L114.286 51.1175L110.046 33.7975C109.886 33.1375 109.396 32.5975 108.756 32.3775C108.116 32.1575 107.396 32.2775 106.866 32.7075L91.4958 44.9075L73.6658 20.9175C72.9158 19.8975 71.2058 19.8975 70.4558 20.9175L52.5858 44.9675L37.1358 32.7075C36.6058 32.2875 35.8858 32.1575 35.2458 32.3775C34.5958 32.5975 34.1158 33.1275 33.9558 33.7975L29.7258 51.0875L9.84585 41.7975C9.12585 41.4575 8.27585 41.5775 7.68585 42.1075C7.08585 42.6275 6.85585 43.4575 7.09585 44.2075L23.8258 97.5875C22.0758 98.6375 20.8958 100.548 20.8958 102.728V107.018C20.8958 110.328 23.5858 113.018 26.8958 113.018H28.0758V117.828L90.9659 113.018H117.106C120.416 113.018 123.106 110.328 123.106 107.018V102.728C123.106 100.578 121.966 98.6975 120.266 97.6375L136.906 44.1975C137.146 43.4375 136.906 42.6175 136.316 42.0975H136.306ZM119.106 107.018C119.106 108.118 118.206 109.018 117.106 109.018H26.8858C25.7858 109.018 24.8858 108.118 24.8858 107.018V102.728C24.8858 101.628 25.7858 100.728 26.8858 100.728H117.096C118.196 100.728 119.096 101.628 119.096 102.728V107.018H119.106ZM116.356 96.7275H27.7358L12.2658 47.3375L43.1059 61.7575C43.9659 62.1675 44.9958 61.8975 45.5559 61.1375L72.0558 25.4675L98.5558 61.1475C99.1258 61.9075 100.156 62.1675 101.016 61.7675L131.736 47.3475L116.356 96.7275Z" fill="currentColor" class="penny-illustration-border"/>
<path d="M71.9958 55.4475C67.5658 55.4475 63.9558 59.0575 63.9558 63.4875C63.9558 67.9175 67.5658 71.5275 71.9958 71.5275C76.4258 71.5275 80.0359 67.9175 80.0359 63.4875C80.0359 59.0575 76.4258 55.4475 71.9958 55.4475Z" fill="currentColor" class="penny-illustration-brand-primary"/>
<path d="M28.0758 117.828V119.848C28.0758 122.058 29.8658 123.848 32.0758 123.848H111.926C114.136 123.848 115.926 122.058 115.926 119.848V113.018H90.9759L28.0858 117.828H28.0758Z" fill="currentColor" class="penny-illustration-brand-primary"/>
<path d="M98.5559 61.1475L72.0559 25.4675L45.5559 61.1475C44.9859 61.9075 43.9659 62.1675 43.1059 61.7675L12.2659 47.3375L27.7459 96.7275H116.366L131.746 47.3475L101.026 61.7675C100.166 62.1675 99.1359 61.9175 98.5659 61.1475H98.5559ZM71.9959 71.5275C67.5659 71.5275 63.9559 67.9175 63.9559 63.4875C63.9559 59.0575 67.5659 55.4475 71.9959 55.4475C76.4259 55.4475 80.0359 59.0575 80.0359 63.4875C80.0359 67.9175 76.4259 71.5275 71.9959 71.5275Z" fill="currentColor" class="penny-illustration-background"/>
<path d="M117.096 100.728H26.8859C25.7813 100.728 24.8859 101.623 24.8859 102.728V107.018C24.8859 108.122 25.7813 109.018 26.8859 109.018H117.096C118.2 109.018 119.096 108.122 119.096 107.018V102.728C119.096 101.623 118.2 100.728 117.096 100.728Z" fill="currentColor" class="penny-illustration-background"/>
</svg>
