<svg viewBox="0 0 144 144" fill="none" xmlns="http://www.w3.org/2000/svg">
<path d="M99 48.49C112.58 48.49 123.53 59.12 123.92 72.7C123.94 73.32 123.67 73.91 123.2 74.3C123.09 74.39 122.97 74.48 122.86 74.57L123.19 74.31C123.19 74.31 123.28 74.23 123.32 74.2C132.02 66.95 137 56.34 137 45.01C137 24.05 119.95 7 99 7C78.05 7 61.81 23.26 61.04 43.53C69.58 44.82 77.37 48.41 83.76 53.65C87.97 50.41 93.25 48.5 99.01 48.5L99 48.49ZM99 17.83C107.04 17.83 113.59 24.37 113.59 32.42C113.59 40.47 107.05 47.01 99 47.01C90.95 47.01 84.41 40.47 84.41 32.42C84.41 24.37 90.95 17.83 99 17.83Z" fill="currentColor" class="penny-illustration-brand-primary"/>
<path d="M99 47C107.04 47 113.59 40.46 113.59 32.41C113.59 24.36 107.05 17.82 99 17.82C90.95 17.82 84.41 24.36 84.41 32.41C84.41 40.46 90.95 47 99 47ZM99 21.83C104.84 21.83 109.59 26.58 109.59 32.42C109.59 38.26 104.84 43.01 99 43.01C93.16 43.01 88.41 38.26 88.41 32.42C88.41 26.58 93.16 21.83 99 21.83Z" fill="currentColor" class="penny-illustration-border"/>
<path d="M54 89.27C62.2843 89.27 69 82.5543 69 74.27C69 65.9857 62.2843 59.27 54 59.27C45.7157 59.27 39 65.9857 39 74.27C39 82.5543 45.7157 89.27 54 89.27Z" fill="currentColor" class="penny-illustration-border"/>
<path d="M84.79 119.97C81.79 105.71 69.15 95 54 95C38.85 95 26.21 105.71 23.21 119.97C15.66 112.22 11 101.64 11 90C11 66.29 30.29 47 54 47C77.71 47 97 66.29 97 90C97 92.52 96.77 94.99 96.35 97.39C97.7 96.3 99.18 95.37 100.77 94.62C100.92 93.1 101 91.56 101 89.99C101 87.6 100.82 85.25 100.47 82.96C108.62 82.64 116.51 79.69 122.86 74.56C122.97 74.47 123.09 74.38 123.2 74.29C123.68 73.9 123.94 73.31 123.92 72.69C123.53 59.12 112.58 48.48 99 48.48C93.24 48.48 87.96 50.4 83.75 53.63C77.36 48.39 69.57 44.8 61.03 43.51C58.73 43.16 56.38 42.98 53.99 42.98C28.08 43 7 64.08 7 90C7 115.92 28.08 137 54 137C67.89 137 80.38 130.94 88.99 121.33C88.48 119.7 88.16 117.98 88.05 116.21C87.03 117.53 85.95 118.78 84.79 119.97ZM99 52.49C110.07 52.49 119.06 60.91 119.87 71.83C114.11 76.31 107 78.83 99.68 78.98C97.57 70.25 93.03 62.46 86.8 56.38C90.23 53.93 94.43 52.48 98.99 52.48L99 52.49Z" fill="currentColor" class="penny-illustration-border"/>
<path d="M110.25 92.5C106.86 92.5 103.65 93.26 100.77 94.63C99.19 95.38 97.7 96.31 96.35 97.4C91.26 101.48 88 107.74 88 114.76C88 115.25 88.02 115.74 88.05 116.22C88.17 117.99 88.48 119.71 88.99 121.34C91.8 130.4 100.27 137.01 110.25 137.01C122.52 137.01 132.5 127.03 132.5 114.76C132.5 102.49 122.52 92.51 110.25 92.51V92.5ZM106.97 122.91C106.6 123.24 106.12 123.43 105.63 123.43C105.58 123.43 105.53 123.43 105.49 123.43C104.95 123.39 104.44 123.13 104.09 122.71L98.55 116.04L101.63 113.49L105.84 118.56L119.07 106.61L121.75 109.58L106.97 122.92V122.91Z" fill="currentColor" class="penny-illustration-brand-primary"/>
<path d="M99 43C104.84 43 109.59 38.25 109.59 32.41C109.59 26.57 104.84 21.82 99 21.82C93.16 21.82 88.41 26.57 88.41 32.41C88.41 38.25 93.16 43 99 43Z" fill="currentColor" class="penny-illustration-background"/>
<path d="M119.87 71.84C119.06 60.92 110.07 52.5 99 52.5C94.43 52.5 90.24 53.95 86.81 56.4C93.04 62.48 97.58 70.26 99.69 79C107.01 78.85 114.12 76.34 119.88 71.85L119.87 71.84Z" fill="currentColor" class="penny-illustration-background"/>
<path d="M54 47C30.29 47 11 66.29 11 90C11 101.65 15.66 112.22 23.21 119.97C26.21 105.71 38.85 95 54 95C69.15 95 81.79 105.71 84.79 119.97C85.95 118.78 87.04 117.52 88.05 116.21C88.02 115.73 88 115.24 88 114.75C88 107.74 91.26 101.48 96.35 97.39C96.77 94.99 97 92.52 97 90C97 66.29 77.71 47 54 47ZM54 89.27C45.72 89.27 39 82.55 39 74.27C39 65.99 45.72 59.27 54 59.27C62.28 59.27 69 65.99 69 74.27C69 82.55 62.28 89.27 54 89.27Z" fill="currentColor" class="penny-illustration-background"/>
<path d="M105.83 118.54L101.62 113.47L98.54 116.02L104.08 122.69C104.43 123.11 104.93 123.37 105.48 123.41C105.53 123.41 105.58 123.41 105.62 123.41C106.11 123.41 106.59 123.23 106.96 122.89L121.74 109.55L119.06 106.58L105.83 118.53V118.54Z" fill="currentColor" class="penny-illustration-background"/>
</svg>
