<svg viewBox="0 0 144 144" fill="none" xmlns="http://www.w3.org/2000/svg">
<path d="M71.51 29.58C59.13 29.58 49.06 39.65 49.06 52.03C49.06 64.41 59.13 74.48 71.51 74.48C83.89 74.48 93.96 64.41 93.96 52.03C93.96 39.65 83.89 29.58 71.51 29.58ZM71.51 70.49C61.34 70.49 53.06 62.21 53.06 52.04C53.06 41.87 61.34 33.59 71.51 33.59C81.68 33.59 89.96 41.87 89.96 52.04C89.96 62.21 81.68 70.49 71.51 70.49Z" fill="currentColor" class="penny-illustration-border"/>
<path d="M92.37 111.27L86.66 126.9C81.75 128.27 76.66 128.99 71.5 128.99C58.72 128.99 46.26 124.62 36.29 116.68C37.33 97.95 52.62 83.42 71.5 83.42C83.35 83.42 93.78 89.14 100.16 98.03C101.19 97.18 102.3 96.43 103.47 95.78C96.37 85.83 84.73 79.42 71.49 79.42C51.5 79.42 35.15 94.04 32.58 113.4C21.76 103.1 14.99 88.58 14.99 72.49C15.01 41.34 40.36 15.99 71.51 15.99C102.66 15.99 128.01 41.34 128.01 72.49C128.01 80.46 126.34 88.05 123.35 94.94C124.58 95.49 125.75 96.15 126.85 96.91C130.16 89.44 132.01 81.18 132.01 72.5C132.01 39.13 104.87 11.99 71.51 11.99C38.15 11.99 11.01 39.13 11.01 72.49C11.01 91.13 19.49 107.82 32.78 118.92C32.85 118.99 32.91 119.07 32.99 119.14C35.95 121.59 39.14 123.72 42.48 125.55C42.65 125.64 42.81 125.73 42.98 125.82C43.58 126.14 44.19 126.45 44.8 126.75C45.11 126.9 45.41 127.05 45.72 127.2C46.18 127.42 46.64 127.62 47.1 127.82C47.54 128.01 47.97 128.21 48.41 128.39C48.7 128.51 48.99 128.62 49.29 128.74C52.16 129.88 55.15 130.8 58.22 131.5C58.36 131.53 58.5 131.57 58.64 131.6C59.29 131.74 59.95 131.87 60.61 131.99C60.89 132.04 61.17 132.09 61.44 132.14C62.02 132.24 62.6 132.33 63.19 132.41C63.58 132.46 63.96 132.51 64.35 132.56C64.86 132.62 65.37 132.68 65.88 132.73C66.41 132.78 66.94 132.82 67.47 132.85C67.87 132.88 68.26 132.91 68.66 132.93C69.61 132.98 70.56 133 71.52 133C72.48 133 73.43 132.97 74.38 132.93C74.78 132.91 75.17 132.88 75.57 132.85C76.1 132.81 76.63 132.78 77.16 132.73C77.67 132.68 78.18 132.62 78.69 132.56C79.08 132.51 79.47 132.47 79.85 132.41C80.44 132.33 81.02 132.24 81.6 132.14C81.88 132.09 82.16 132.04 82.43 131.99C83.09 131.87 83.74 131.74 84.4 131.6C84.54 131.57 84.68 131.53 84.82 131.5C86.06 131.22 87.28 130.91 88.48 130.55C88.62 130.53 88.77 130.5 88.91 130.44C88.97 130.42 89.02 130.4 89.07 130.38C90.66 129.9 92.21 129.34 93.74 128.74C94.03 128.62 94.33 128.51 94.62 128.39C95.06 128.21 95.5 128.01 95.93 127.82C93.46 124.24 92.02 119.9 92.02 115.23C92.02 113.88 92.15 112.55 92.38 111.26L92.37 111.27Z" fill="currentColor" class="penny-illustration-border"/>
<path d="M126.85 96.9C125.75 96.14 124.58 95.49 123.35 94.93C120.57 93.68 117.5 92.98 114.26 92.98C110.35 92.98 106.68 94 103.49 95.77C102.32 96.42 101.21 97.17 100.18 98.02C96.17 101.31 93.34 105.96 92.38 111.26C92.15 112.55 92.02 113.87 92.02 115.23C92.02 119.9 93.47 124.23 95.93 127.82C99.95 133.65 106.66 137.48 114.27 137.48C126.54 137.48 136.52 127.5 136.52 115.23C136.52 107.63 132.69 100.91 126.86 96.89L126.85 96.9ZM110.98 123.4C110.61 123.73 110.13 123.92 109.64 123.92C109.59 123.92 109.54 123.92 109.5 123.92C108.96 123.88 108.45 123.62 108.1 123.2L102.56 116.53L105.64 113.98L109.85 119.05L123.08 107.1L125.76 110.07L110.98 123.41V123.4Z" fill="currentColor" class="penny-illustration-brand-primary"/>
<path d="M71.51 15.99C40.36 15.99 15.01 41.34 15.01 72.49C15.01 88.57 21.78 103.1 32.6 113.4C35.17 94.04 51.53 79.42 71.51 79.42C84.74 79.42 96.38 85.83 103.49 95.78C106.68 94 110.36 92.99 114.26 92.99C117.5 92.99 120.57 93.69 123.35 94.94C126.34 88.05 128.01 80.47 128.01 72.49C128.01 41.34 102.66 15.99 71.51 15.99ZM71.51 74.49C59.13 74.49 49.06 64.42 49.06 52.04C49.06 39.66 59.13 29.59 71.51 29.59C83.89 29.59 93.96 39.66 93.96 52.04C93.96 64.42 83.89 74.49 71.51 74.49Z" fill="currentColor" class="penny-illustration-background"/>
<path d="M71.51 33.58C61.34 33.58 53.06 41.86 53.06 52.03C53.06 62.2 61.34 70.48 71.51 70.48C81.68 70.48 89.96 62.2 89.96 52.03C89.96 41.86 81.68 33.58 71.51 33.58Z" fill="currentColor" class="penny-illustration-background"/>
<path d="M71.51 83.42C52.63 83.42 37.34 97.95 36.3 116.68C46.26 124.63 58.73 128.99 71.51 128.99C76.66 128.99 81.76 128.27 86.67 126.9L92.38 111.27C93.34 105.97 96.18 101.32 100.18 98.03C93.8 89.14 83.37 83.42 71.52 83.42H71.51Z" fill="currentColor" class="penny-illustration-background"/>
<path d="M109.84 119.03L105.63 113.96L102.55 116.51L108.09 123.18C108.44 123.6 108.94 123.86 109.49 123.9C109.54 123.9 109.59 123.9 109.63 123.9C110.12 123.9 110.6 123.72 110.97 123.38L125.75 110.04L123.07 107.07L109.84 119.02V119.03Z" fill="currentColor" class="penny-illustration-background"/>
</svg>
