<svg viewBox="0 0 144 144" fill="none" xmlns="http://www.w3.org/2000/svg">
<path d="M127.98 45.43C127.98 45.43 127.98 45.34 127.97 45.3C127.96 45.18 127.93 45.05 127.9 44.94C127.89 44.9 127.88 44.86 127.86 44.82C127.8 44.67 127.73 44.52 127.64 44.38L106.08 12.87C105.71 12.33 105.09 12 104.43 12H80.99C81.88 12 82.67 12.59 82.91 13.45L83.64 16H103.38L109.88 25.5H86.36L87.5 29.5H112.62L122.2 43.5H91.5L91.91 44.95C91.96 45.13 91.99 45.31 91.99 45.5V47.5H123.99V129H96.37L85.42 110.39C86.75 113.24 87.49 116.41 87.49 119.75C87.49 124.71 85.86 129.3 83.1 133H125.99C127.09 133 127.99 132.1 127.99 131V45.5C127.99 45.5 127.99 45.45 127.99 45.43H127.98Z" fill="currentColor" class="penny-illustration-border"/>
<path d="M61.07 13.45L60.34 16L52.49 43.5L52.08 44.95C52.03 45.13 52 45.31 52 45.5V77C52 78.1 52.9 79 54 79H90C91.1 79 92 78.1 92 77V45.5C92 45.31 91.97 45.13 91.92 44.95L91.51 43.5L82.93 13.45C82.68 12.59 81.9 12 81.01 12H63.01C62.12 12 61.33 12.59 61.09 13.45H61.07Z" fill="currentColor" class="penny-illustration-brand-primary"/>
<path d="M83.21 106.65C83.21 106.65 83.25 106.7 83.27 106.73L83.25 106.7C83.25 106.7 83.22 106.67 83.21 106.65Z" fill="currentColor" class="penny-illustration-border"/>
<path d="M85.42 110.39C84.82 109.1 84.09 107.87 83.27 106.73C83.25 106.7 83.23 106.68 83.21 106.65C79.16 101.11 72.62 97.5 65.24 97.5C57.86 97.5 51.29 101.13 47.24 106.69C49.91 110.36 51.49 114.87 51.49 119.75C51.49 124.63 49.91 129.14 47.24 132.81C47.29 132.87 47.33 132.94 47.38 133C51.44 138.46 57.93 142 65.24 142C72.55 142 79.04 138.46 83.1 133C85.85 129.3 87.49 124.71 87.49 119.75C87.49 116.41 86.74 113.23 85.42 110.39ZM76.49 121.75H67.24V131H63.24V121.75H53.99V117.75H63.24V108.5H67.24V117.75H76.49V121.75Z" fill="currentColor" class="penny-illustration-brand-primary"/>
<path d="M29.24 119.42C32.9679 119.42 35.99 116.398 35.99 112.67C35.99 108.942 32.9679 105.92 29.24 105.92C25.5121 105.92 22.49 108.942 22.49 112.67C22.49 116.398 25.5121 119.42 29.24 119.42Z" fill="currentColor" class="penny-illustration-border"/>
<path d="M51.49 119.75C51.49 114.87 49.91 110.36 47.24 106.69C43.19 101.12 36.63 97.5 29.24 97.5C25.94 97.5 22.81 98.23 19.99 99.52V47.5H51.99V45.5C51.99 45.31 52.02 45.13 52.07 44.95L52.48 43.5H21.78L31.36 29.5H56.48L57.62 25.5H34.1L40.6 16H60.34L61.07 13.45C61.32 12.59 62.1 12 62.99 12H39.55C38.89 12 38.27 12.33 37.9 12.87L16.34 44.37C16.25 44.5 16.18 44.65 16.12 44.81C16.1 44.85 16.09 44.89 16.08 44.93C16.05 45.05 16.02 45.17 16.01 45.29C16.01 45.34 16 45.38 16 45.42C16 45.44 16 45.47 16 45.49V101.88C10.54 105.94 7 112.43 7 119.74C7 132.01 16.98 141.99 29.25 141.99C36.56 141.99 43.05 138.45 47.11 132.99H47.39C47.34 132.93 47.3 132.86 47.25 132.8C49.92 129.13 51.5 124.62 51.5 119.74L51.49 119.75ZM42.76 131.96C40.97 126.19 35.6 122 29.24 122C22.88 122 17.51 126.19 15.72 131.96C12.79 128.72 10.99 124.45 10.99 119.75C10.99 109.69 19.18 101.5 29.24 101.5C39.3 101.5 47.49 109.69 47.49 119.75C47.49 124.45 45.69 128.73 42.76 131.96Z" fill="currentColor" class="penny-illustration-border"/>
<path d="M89.99 79H53.99C52.89 79 51.99 78.1 51.99 77V47.5H19.99V99.52C22.81 98.23 25.94 97.5 29.24 97.5C36.63 97.5 43.19 101.13 47.24 106.69C51.29 101.12 57.85 97.5 65.24 97.5C72.63 97.5 79.15 101.11 83.21 106.65C83.22 106.67 83.24 106.68 83.25 106.7L83.27 106.73C84.1 107.87 84.82 109.1 85.42 110.39L96.37 129H123.99V47.5H91.99V77C91.99 78.1 91.09 79 89.99 79Z" fill="currentColor" class="penny-illustration-background"/>
<path d="M31.36 29.5L21.78 43.5H52.48L56.48 29.5H31.36Z" fill="currentColor" class="penny-illustration-background"/>
<path d="M40.6 16L34.1 25.5H57.62L60.34 16H40.6Z" fill="currentColor" class="penny-illustration-background"/>
<path d="M122.2 43.5L112.62 29.5H87.5L91.5 43.5H122.2Z" fill="currentColor" class="penny-illustration-background"/>
<path d="M109.88 25.5L103.38 16H83.64L86.36 25.5H109.88Z" fill="currentColor" class="penny-illustration-background"/>
<path d="M67.24 108.5H63.24V117.75H53.99V121.75H63.24V131H67.24V121.75H76.49V117.75H67.24V108.5Z" fill="currentColor" class="penny-illustration-background"/>
<path d="M29.24 101.5C19.18 101.5 10.99 109.69 10.99 119.75C10.99 124.45 12.79 128.73 15.72 131.96C17.51 126.19 22.88 122 29.24 122C35.6 122 40.97 126.19 42.76 131.96C45.69 128.72 47.49 124.45 47.49 119.75C47.49 109.69 39.3 101.5 29.24 101.5ZM29.24 119.42C25.51 119.42 22.49 116.4 22.49 112.67C22.49 108.94 25.51 105.92 29.24 105.92C32.97 105.92 35.99 108.94 35.99 112.67C35.99 116.4 32.97 119.42 29.24 119.42Z" fill="currentColor" class="penny-illustration-background"/>
</svg>
