<svg viewBox="0 0 144 144" fill="none" xmlns="http://www.w3.org/2000/svg">
<path d="M133.01 111.207L82.47 21.0575C77.89 12.8775 66.12 12.8775 61.54 21.0575L10.99 111.207C6.50999 119.207 12.29 129.077 21.46 129.077H122.54C131.71 129.077 137.49 119.207 133.01 111.207ZM67 53.6775H77V89.6775H67V53.6775ZM72 112.997C67.67 112.997 64.16 109.487 64.16 105.157C64.16 100.827 67.67 97.3175 72 97.3175C76.33 97.3175 79.84 100.827 79.84 105.157C79.84 109.487 76.33 112.997 72 112.997Z" fill="currentColor" class="penny-illustration-brand-primary"/>
<path d="M77 53.6775H67V89.6775H77V53.6775Z" fill="currentColor" class="penny-illustration-background"/>
<path d="M71.9999 112.998C76.3298 112.998 79.8399 109.487 79.8399 105.158C79.8399 100.828 76.3298 97.3175 71.9999 97.3175C67.67 97.3175 64.1599 100.828 64.1599 105.158C64.1599 109.487 67.67 112.998 71.9999 112.998Z" fill="currentColor" class="penny-illustration-background"/>
</svg>
