<svg viewBox="0 0 16 16" fill="none" xmlns="http://www.w3.org/2000/svg">
<path d="M9.34 7.04L7.39 9.16L6.6 8.5C6.28 8.24 5.81 8.28 5.54 8.6C5.27 8.92 5.32 9.39 5.64 9.66L6.98 10.78C7.12 10.9 7.29 10.95 7.46 10.95C7.66 10.95 7.86 10.87 8.01 10.71L10.45 8.07C10.73 7.77 10.71 7.29 10.41 7.01C10.11 6.73 9.63 6.75 9.35 7.05L9.34 7.04Z" fill="currentColor"/>
<path d="M12 2.25H11.35C11.05 1.52 10.34 1 9.5 1H6.5C5.66 1 4.95 1.52 4.65 2.25H4C2.9 2.25 2 3.15 2 4.25V13C2 14.1 2.9 15 4 15H12C13.1 15 14 14.1 14 13V4.25C14 3.15 13.1 2.25 12 2.25ZM6.5 2.5H9.5C9.78 2.5 10 2.72 10 3C10 3.28 9.78 3.5 9.5 3.5H6.5C6.22 3.5 6 3.28 6 3C6 2.72 6.22 2.5 6.5 2.5ZM12.5 13C12.5 13.28 12.28 13.5 12 13.5H4C3.72 13.5 3.5 13.28 3.5 13V4.25C3.5 3.97 3.72 3.75 4 3.75H4.65C4.95 4.48 5.66 5 6.5 5H9.5C10.34 5 11.05 4.48 11.35 3.75H12C12.28 3.75 12.5 3.97 12.5 4.25V13Z" fill="currentColor"/>
</svg>
