<svg viewBox="0 0 16 16" fill="none" xmlns="http://www.w3.org/2000/svg">
<path d="M11.7577 14.99H1.75054C1.34024 14.99 1 14.65 1 14.24V4.25C1 3.84 1.34024 3.5 1.75054 3.5H11.7577C12.168 3.5 12.5082 3.84 12.5082 4.25V14.25C12.5082 14.66 12.168 15 11.7577 15V14.99ZM2.50107 13.49H11.0071V5H2.50107V13.5V13.49Z" fill="currentColor"/>
<path d="M14.2495 12.5C13.8392 12.5 13.4989 12.16 13.4989 11.75V2.5H4.25232C3.84203 2.5 3.50179 2.16 3.50179 1.75C3.50179 1.34 3.84203 1 4.25232 1H14.2495C14.6598 1 15 1.34 15 1.75V11.75C15 12.16 14.6598 12.5 14.2495 12.5Z" fill="currentColor"/>
<path d="M6.25375 11.33C6.08363 11.33 5.91351 11.27 5.77341 11.16L4.16226 9.82C3.84203 9.55 3.802 9.08 4.06219 8.76C4.32237 8.44 4.80272 8.4 5.12294 8.66L6.1837 9.54L8.29521 7.25C8.57541 6.95 9.04575 6.93 9.35597 7.21C9.65618 7.49 9.6762 7.97 9.396 8.27L6.79414 11.08C6.64403 11.24 6.44389 11.32 6.24375 11.32L6.25375 11.33Z" fill="currentColor"/>
</svg>
