<svg viewBox="0 0 16 16" fill="none" xmlns="http://www.w3.org/2000/svg">
<path d="M11 6.5H8C7.59 6.5 7.25 6.84 7.25 7.25C7.25 7.66 7.59 8 8 8H11C11.41 8 11.75 7.66 11.75 7.25C11.75 6.84 11.41 6.5 11 6.5Z" fill="currentColor"/>
<path d="M11 9.74H8C7.59 9.74 7.25 10.08 7.25 10.49C7.25 10.9 7.59 11.24 8 11.24H11C11.41 11.24 11.75 10.9 11.75 10.49C11.75 10.08 11.41 9.74 11 9.74Z" fill="currentColor"/>
<path d="M12 2.25H11.35C11.05 1.52 10.34 1 9.5 1H6.5C5.66 1 4.95 1.52 4.65 2.25H4C2.9 2.25 2 3.15 2 4.25V13C2 14.1 2.9 15 4 15H12C13.1 15 14 14.1 14 13V4.25C14 3.15 13.1 2.25 12 2.25ZM6.5 2.5H9.5C9.78 2.5 10 2.72 10 3C10 3.28 9.78 3.5 9.5 3.5H6.5C6.22 3.5 6 3.28 6 3C6 2.72 6.22 2.5 6.5 2.5ZM12.5 13C12.5 13.28 12.28 13.5 12 13.5H4C3.72 13.5 3.5 13.28 3.5 13V4.25C3.5 3.97 3.72 3.75 4 3.75H4.65C4.95 4.48 5.66 5 6.5 5H9.5C10.34 5 11.05 4.48 11.35 3.75H12C12.28 3.75 12.5 3.97 12.5 4.25V13Z" fill="currentColor"/>
<path d="M5.5 6.5H5C4.59 6.5 4.25 6.84 4.25 7.25C4.25 7.66 4.59 8 5 8H5.5C5.91 8 6.25 7.66 6.25 7.25C6.25 6.84 5.91 6.5 5.5 6.5Z" fill="currentColor"/>
<path d="M5.5 9.75H5C4.59 9.75 4.25 10.09 4.25 10.5C4.25 10.91 4.59 11.25 5 11.25H5.5C5.91 11.25 6.25 10.91 6.25 10.5C6.25 10.09 5.91 9.75 5.5 9.75Z" fill="currentColor"/>
</svg>
