<svg viewBox="0 0 24 24" fill="none" xmlns="http://www.w3.org/2000/svg">
<path d="M14.29 10.6L11.04 14.12L9.62 12.94C9.2 12.59 8.56 12.64 8.21 13.07C7.86 13.49 7.91 14.13 8.34 14.48L10.49 16.27C10.68 16.43 10.9 16.5 11.13 16.5C11.4 16.5 11.67 16.39 11.87 16.18L15.77 11.96C16.14 11.55 16.12 10.92 15.71 10.55C15.3 10.18 14.67 10.2 14.3 10.61L14.29 10.6Z" fill="currentColor"/>
<path d="M18 3H17.32C16.91 1.84 15.81 1 14.5 1H9.5C8.2 1 7.1 1.84 6.68 3H6C4.35 3 3 4.35 3 6V20C3 21.65 4.35 23 6 23H18C19.65 23 21 21.65 21 20V6C21 4.35 19.65 3 18 3ZM9.5 3H14.5C15.05 3 15.5 3.45 15.5 4C15.5 4.55 15.05 5 14.5 5H9.5C8.95 5 8.5 4.55 8.5 4C8.5 3.45 8.95 3 9.5 3ZM19 20C19 20.55 18.55 21 18 21H6C5.45 21 5 20.55 5 20V6C5 5.45 5.45 5 6 5H6.68C7.09 6.16 8.19 7 9.5 7H14.5C15.8 7 16.9 6.16 17.32 5H18C18.55 5 19 5.45 19 6V20Z" fill="currentColor"/>
</svg>
