<svg viewBox="0 0 24 24" fill="none" xmlns="http://www.w3.org/2000/svg">
<path d="M19 4H2C1.45 4 1 4.45 1 5V22C1 22.55 1.45 23 2 23H19C19.55 23 20 22.55 20 22V5C20 4.45 19.55 4 19 4ZM18 21H3V6H18V21Z" fill="currentColor"/>
<path d="M22 1H5.33C4.78 1 4.33 1.45 4.33 2C4.33 2.55 4.78 3 5.33 3H21V18.67C21 19.22 21.45 19.67 22 19.67C22.55 19.67 23 19.22 23 18.67V2C23 1.45 22.55 1 22 1Z" fill="currentColor"/>
<path d="M8.96 16.83C9.15 16.99 9.37 17.06 9.6 17.06C9.87 17.06 10.14 16.95 10.34 16.74L15.06 11.63C15.43 11.22 15.41 10.59 15 10.22C14.59 9.85 13.96 9.87 13.59 10.28L9.51 14.7L7.32 12.88C6.9 12.53 6.27 12.58 5.91 13.01C5.55 13.44 5.61 14.07 6.04 14.42L8.96 16.85V16.83Z" fill="currentColor"/>
</svg>
