<svg viewBox="0 0 24 24" fill="none" xmlns="http://www.w3.org/2000/svg">
<path d="M9.46 9.03L7.97 10.64L7.63 10.36C7.21 10.01 6.57 10.07 6.22 10.49C5.87 10.91 5.92 11.55 6.35 11.9L7.42 12.79C7.61 12.95 7.83 13.02 8.06 13.02C8.33 13.02 8.6 12.91 8.79 12.7L10.92 10.39C11.3 9.98 11.27 9.35 10.86 8.98C10.45 8.61 9.82 8.63 9.45 9.04L9.46 9.03Z" fill="currentColor"/>
<path d="M18 2.5H17.29C16.9 1.62 16.02 1 15 1H9C7.98 1 7.1 1.62 6.71 2.5H6C4.35 2.5 3 3.85 3 5.5V20C3 21.65 4.35 23 6 23H18C19.65 23 21 21.65 21 20V5.5C21 3.85 19.65 2.5 18 2.5ZM9 3H15C15.28 3 15.5 3.22 15.5 3.5C15.5 3.78 15.28 4 15 4H9C8.72 4 8.5 3.78 8.5 3.5C8.5 3.22 8.72 3 9 3ZM19 20C19 20.55 18.55 21 18 21H6C5.45 21 5 20.55 5 20V5.5C5 4.95 5.45 4.5 6 4.5H6.71C7.1 5.38 7.98 6 9 6H15C16.02 6 16.9 5.38 17.29 4.5H18C18.55 4.5 19 4.95 19 5.5V20Z" fill="currentColor"/>
<path d="M17 10H14C13.45 10 13 10.45 13 11C13 11.55 13.45 12 14 12H17C17.55 12 18 11.55 18 11C18 10.45 17.55 10 17 10Z" fill="currentColor"/>
<path d="M9.46 14.02L7.97 15.63L7.63 15.35C7.21 15 6.57 15.06 6.22 15.48C5.87 15.9 5.92 16.54 6.35 16.89L7.42 17.78C7.61 17.94 7.83 18.01 8.06 18.01C8.33 18.01 8.6 17.9 8.79 17.69L10.92 15.38C11.3 14.97 11.27 14.34 10.86 13.97C10.45 13.6 9.82 13.62 9.45 14.03L9.46 14.02Z" fill="currentColor"/>
<path d="M17 14.99H14C13.45 14.99 13 15.44 13 15.99C13 16.54 13.45 16.99 14 16.99H17C17.55 16.99 18 16.54 18 15.99C18 15.44 17.55 14.99 17 14.99Z" fill="currentColor"/>
</svg>
