<svg width="494" height="160" viewBox="0 0 494 160" fill="none" xmlns="http://www.w3.org/2000/svg">
<path fill-rule="evenodd" clip-rule="evenodd" d="M80.0762 160C124.301 160 160.152 124.183 160.152 80C160.152 35.8172 124.301 0 80.0762 0C35.8513 0 0 35.8172 0 80C0 124.183 35.8513 160 80.0762 160ZM49.0467 21C33.568 21 21.02 33.536 21.02 49V111C21.02 126.464 33.568 139 49.0467 139H111.106C126.584 139 139.132 126.464 139.132 111V49C139.132 33.536 126.584 21 111.106 21H49.0467Z" fill="#212124"/>
<path d="M222.998 39.3999C246.012 39.3999 253.915 50.3106 253.915 64.9356C253.915 79.5606 244.617 90.4713 224.858 90.4713H204.634V121.114H192.546V39.3999H222.998ZM224.742 80.257C236.016 80.257 241.827 73.641 241.827 64.9356C241.827 55.3017 236.016 49.6142 224.742 49.6142H204.634V80.257H224.742Z" fill="#212124"/>
<path d="M311.843 90.5874C311.843 92.2124 311.727 93.3731 311.495 94.6499H267.095C267.909 104.168 274.418 111.828 285.227 111.828C293.247 111.828 297.199 107.882 299.291 101.034H310.797C308.357 112.061 300.22 122.043 284.995 122.043C266.282 122.043 256.054 108.23 256.054 91.3999C256.054 73.5249 267.676 60.757 284.762 60.757C298.012 60.757 311.843 69.4624 311.843 90.5874ZM267.677 85.3642H300.685C299.988 76.6588 294.409 70.507 285.343 70.507C274.185 70.507 269.304 77.3553 267.677 85.3642Z" fill="#212124"/>
<path d="M349.539 60.757C363.254 60.757 371.622 68.4178 371.622 85.8285V121.114H360.464V88.1499C360.464 74.3374 354.537 70.507 346.749 70.507C338.148 70.507 328.85 79.2124 328.85 93.3731V121.114H317.692V61.6856H328.85V65.632C328.85 68.0695 328.618 70.507 327.572 73.5249C327.223 74.5695 326.758 75.7303 327.688 75.9624C328.385 76.1945 328.734 75.382 328.966 74.9178C331.291 69.1142 338.846 60.757 349.539 60.757Z" fill="#212124"/>
<path d="M412.111 60.757C425.826 60.757 434.195 68.4178 434.195 85.8285V121.114H423.037V88.1499C423.037 74.3374 417.109 70.507 409.322 70.507C400.721 70.507 391.423 79.2124 391.423 93.3731V121.114H380.265V61.6856H391.423V65.632C391.423 68.0695 391.19 70.507 390.144 73.5249C389.796 74.5695 389.331 75.7303 390.26 75.9624C390.958 76.1945 391.307 75.382 391.539 74.9178C393.864 69.1142 401.418 60.757 412.111 60.757Z" fill="#212124"/>
<path d="M434.491 61.6856H446.579L462.618 105.561C463.432 107.65 463.548 109.855 463.548 111.828C463.548 112.525 463.548 113.337 464.478 113.337C465.408 113.337 465.408 112.525 465.408 111.828C465.408 109.855 465.756 107.65 466.454 105.561L481.912 61.6856H494L468.197 128.195C464.013 139.105 458.202 143.4 447.509 143.4H439.837V133.65H445.184C454.017 133.65 455.528 131.677 457.272 127.382L458.899 123.436L434.491 61.6856Z" fill="#212124"/>
<path d="M257.317 149.672C257.444 149.672 257.549 149.582 257.564 149.454C257.617 149.086 257.647 148.8 257.647 148.417C257.647 147.41 257.459 146.545 257.092 145.673C256.724 144.802 256.319 144.072 255.674 143.411C255.037 142.75 254.354 142.231 253.484 141.848C252.614 141.472 251.834 141.276 250.837 141.276C249.839 141.276 248.894 141.472 248.024 141.848C247.162 142.223 246.396 142.75 245.751 143.411C245.114 144.065 244.581 144.802 244.214 145.673C243.846 146.545 243.659 147.492 243.659 148.5C243.659 149.507 243.846 150.296 244.214 151.175C244.581 152.055 245.091 152.829 245.729 153.475C246.366 154.122 247.132 154.64 248.002 155.024C248.872 155.4 249.817 155.595 250.814 155.595C251.812 155.595 252.922 155.4 253.792 155.024C254.662 154.648 255.419 154.122 256.064 153.475C256.334 153.205 256.574 152.912 256.799 152.603C256.882 152.491 256.852 152.325 256.732 152.25L254.624 150.845C254.504 150.77 254.354 150.8 254.272 150.92C254.137 151.123 253.987 151.311 253.822 151.484C253.477 151.837 253.064 152.115 252.592 152.318C252.119 152.521 251.429 152.619 250.867 152.619H250.799C250.237 152.619 249.712 152.521 249.239 152.318C248.767 152.115 248.354 151.837 248.009 151.484C247.664 151.13 247.394 150.709 247.199 150.228C247.132 150.055 247.072 149.868 247.027 149.672H257.317ZM247.214 146.47C247.409 145.989 247.679 145.568 248.024 145.215C248.362 144.862 248.782 144.584 249.254 144.381C249.727 144.178 250.252 144.08 250.814 144.08H250.717C251.279 144.08 251.804 144.178 252.277 144.381C252.749 144.584 253.162 144.862 253.507 145.215C253.852 145.568 254.122 145.989 254.317 146.47C254.384 146.643 254.444 146.831 254.489 147.026H247.034C247.079 146.831 247.139 146.651 247.207 146.47H247.214Z" fill="#212124"/>
<path d="M262.313 136H259.703C259.568 136 259.455 136.113 259.455 136.248V154.806C259.455 154.941 259.568 155.054 259.703 155.054H262.313C262.448 155.054 262.56 154.941 262.56 154.806V136.248C262.56 136.113 262.448 136 262.313 136Z" fill="#212124"/>
<path d="M266.91 137.503C266.865 137.458 266.82 137.413 266.76 137.383C266.52 137.255 266.242 137.315 266.077 137.496L264.457 139.33C264.315 139.495 264.3 139.736 264.435 139.924C264.525 140.044 264.667 140.111 264.825 140.111H268.162C268.312 140.111 268.462 140.044 268.552 139.924C268.688 139.736 268.672 139.495 268.53 139.337L266.917 137.511L266.91 137.503Z" fill="#212124"/>
<path d="M267.804 141.818H265.194C265.059 141.818 264.946 141.93 264.946 142.066V154.806C264.946 154.941 265.059 155.054 265.194 155.054H267.804C267.939 155.054 268.051 154.941 268.051 154.806V142.066C268.051 141.93 267.939 141.818 267.804 141.818Z" fill="#212124"/>
<path d="M236.722 141.494C235.267 141.494 233.984 142.066 232.904 143.208C231.831 142.073 230.541 141.494 229.086 141.494C227.631 141.494 226.251 142.073 225.254 143.118C224.271 144.155 223.724 145.538 223.724 147.026V154.806C223.724 154.941 223.836 155.054 223.971 155.054H226.559C226.694 155.054 226.806 154.941 226.806 154.806V147.026C226.806 146.35 227.031 145.734 227.436 145.283C227.849 144.824 228.434 144.569 229.079 144.569C229.724 144.569 230.301 144.824 230.721 145.283C231.126 145.734 231.351 146.357 231.351 147.026V154.806C231.351 154.941 231.464 155.054 231.599 155.054H234.187C234.322 155.054 234.434 154.941 234.434 154.806V147.026C234.434 146.357 234.659 145.734 235.064 145.283C235.477 144.824 236.062 144.569 236.707 144.569C237.352 144.569 237.929 144.824 238.349 145.283C238.754 145.734 238.979 146.357 238.979 147.026V154.806C238.979 154.941 239.092 155.054 239.227 155.054H241.814C241.949 155.054 242.062 154.941 242.062 154.806V147.026C242.062 145.538 241.522 144.148 240.532 143.118C239.534 142.066 238.169 141.494 236.699 141.494H236.722Z" fill="#212124"/>
<path d="M278.663 157.203H275.325C275.175 157.203 275.025 157.271 274.935 157.391C274.8 157.579 274.815 157.82 274.958 157.985L276.57 159.812C276.615 159.857 276.66 159.902 276.72 159.932C276.96 160.06 277.238 160 277.403 159.819L279.023 157.985C279.165 157.82 279.18 157.587 279.045 157.399C278.955 157.279 278.805 157.211 278.655 157.211L278.663 157.203Z" fill="#212124"/>
<path d="M283.562 145.651C283.202 144.794 282.699 144.027 282.062 143.381C281.432 142.735 280.674 142.216 279.826 141.84C278.971 141.464 278.041 141.276 277.059 141.276C276.076 141.276 275.139 141.464 274.291 141.84C273.444 142.216 272.686 142.727 272.056 143.381C271.426 144.027 270.924 144.794 270.556 145.651C270.196 146.508 270.009 147.447 270.009 148.439C270.009 149.432 270.189 150.371 270.556 151.243C270.916 152.107 271.419 152.874 272.056 153.513C272.686 154.152 273.436 154.663 274.291 155.039C275.146 155.415 276.076 155.602 277.059 155.602C278.041 155.602 278.971 155.415 279.826 155.039C280.681 154.663 281.432 154.152 282.062 153.513C282.692 152.874 283.194 152.107 283.562 151.243C283.922 150.379 284.109 149.432 284.109 148.439C284.109 147.447 283.922 146.508 283.562 145.651ZM273.249 148.439C273.249 147.838 273.339 147.274 273.519 146.771C273.699 146.267 273.954 145.824 274.276 145.463C274.599 145.102 275.004 144.817 275.469 144.614C275.941 144.403 276.474 144.298 277.051 144.298C277.629 144.298 278.169 144.403 278.634 144.614C279.106 144.824 279.504 145.11 279.826 145.463C280.149 145.824 280.404 146.26 280.584 146.771C280.764 147.282 280.854 147.838 280.854 148.439C280.854 149.041 280.764 149.597 280.584 150.108C280.404 150.619 280.149 151.055 279.826 151.416C279.504 151.777 279.099 152.062 278.634 152.265C278.169 152.476 277.629 152.581 277.051 152.581C276.474 152.581 275.934 152.476 275.469 152.265C274.996 152.055 274.599 151.769 274.276 151.416C273.954 151.055 273.699 150.619 273.519 150.108C273.339 149.604 273.249 149.041 273.249 148.439Z" fill="#212124"/>
<path d="M201.629 146.268C201.488 146.291 201.417 146.362 201.417 146.502C201.417 146.62 201.488 146.69 201.629 146.713C203.96 147.112 205.208 148.752 205.208 150.416C205.208 153.135 203.466 155.104 200.075 155.104H192.021V138.604H198.992C202.429 138.604 204.455 139.94 204.455 142.893C204.455 144.37 203.348 145.87 201.629 146.268ZM194.47 140.666V145.635H198.897C200.852 145.635 202.006 144.416 202.006 142.987C202.006 141.721 201.229 140.666 199.462 140.666H194.47ZM199.627 153.041C201.582 153.041 202.759 151.87 202.759 150.323C202.759 148.846 201.558 147.698 199.345 147.698H194.47V153.041H199.627Z" fill="#212124"/>
<path d="M205.629 143.104H208.078L211.327 151.963C211.492 152.385 211.516 152.831 211.516 153.229C211.516 153.37 211.516 153.534 211.704 153.534C211.893 153.534 211.893 153.37 211.893 153.229C211.893 152.831 211.963 152.385 212.104 151.963L215.236 143.104H217.685L212.458 156.534C211.61 158.737 210.433 159.604 208.266 159.604H206.712V157.635H207.795C209.585 157.635 209.891 157.237 210.244 156.37L210.574 155.573L205.629 143.104Z" fill="#212124"/>
</svg>
