<svg width="580" height="200" viewBox="0 0 580 200" fill="none" xmlns="http://www.w3.org/2000/svg">
<path fill-rule="evenodd" clip-rule="evenodd" d="M100.051 200C155.308 200 200.102 155.228 200.102 100C200.102 44.7715 155.308 0 100.051 0C44.7944 0 0 44.7715 0 100C0 155.228 44.7944 200 100.051 200ZM58.0296 26C40.3475 26 26.0133 40.3269 26.0133 58V142C26.0133 159.673 40.3475 174 58.0296 174H142.072C159.755 174 174.089 159.673 174.089 142V58C174.089 40.3269 159.755 26 142.072 26H58.0296Z" fill="white"/>
<path d="M266.994 53C293.574 53 302.703 65.5893 302.703 82.4643C302.703 99.3393 291.964 111.929 269.142 111.929H245.784V147.286H231.822V53H266.994ZM269.008 100.143C282.03 100.143 288.742 92.5089 288.742 82.4643C288.742 71.3482 282.03 64.7857 269.008 64.7857H245.784V100.143H269.008Z" fill="white"/>
<path d="M369.61 112.062C369.61 113.938 369.476 115.277 369.207 116.75H317.926C318.866 127.732 326.383 136.571 338.868 136.571C348.131 136.571 352.695 132.018 355.112 124.116H368.402C365.583 136.839 356.185 148.357 338.6 148.357C316.986 148.357 305.173 132.42 305.173 113C305.173 92.375 318.597 77.6429 338.331 77.6429C353.635 77.6429 369.61 87.6875 369.61 112.062ZM318.597 106.036H356.722C355.917 95.9911 349.473 88.8929 339.002 88.8929C326.115 88.8929 320.477 96.7947 318.597 106.036Z" fill="white"/>
<path d="M413.148 77.6429C428.989 77.6429 438.654 86.4821 438.654 106.571V147.286H425.767V109.25C425.767 93.3125 418.92 88.8929 409.926 88.8929C399.992 88.8929 389.252 98.9375 389.252 115.277V147.286H376.365V78.7143H389.252V83.2679C389.252 86.0804 388.984 88.8929 387.776 92.375C387.373 93.5804 386.836 94.9196 387.91 95.1875C388.715 95.4554 389.118 94.5179 389.387 93.9821C392.072 87.2857 400.797 77.6429 413.148 77.6429Z" fill="white"/>
<path d="M485.419 77.6429C501.26 77.6429 510.925 86.4821 510.925 106.571V147.286H498.038V109.25C498.038 93.3125 491.192 88.8929 482.197 88.8929C472.263 88.8929 461.524 98.9375 461.524 115.277V147.286H448.636V78.7143H461.524V83.2679C461.524 86.0804 461.255 88.8929 460.047 92.375C459.644 93.5804 459.107 94.9196 460.181 95.1875C460.987 95.4554 461.389 94.5179 461.658 93.9821C464.343 87.2857 473.069 77.6429 485.419 77.6429Z" fill="white"/>
<path d="M511.267 78.7143H525.229L543.754 129.339C544.694 131.75 544.828 134.295 544.828 136.571C544.828 137.375 544.828 138.312 545.902 138.312C546.976 138.312 546.976 137.375 546.976 136.571C546.976 134.295 547.379 131.75 548.184 129.339L566.039 78.7143H580L550.198 155.455C545.365 168.045 538.653 173 526.303 173H517.443V161.75H523.618C533.82 161.75 535.565 159.473 537.579 154.518L539.458 149.964L511.267 78.7143Z" fill="white"/>
<path d="M317.715 185.229C317.884 185.229 318.023 185.109 318.043 184.939C318.113 184.448 318.153 184.067 318.153 183.556C318.153 182.213 317.904 181.06 317.417 179.898C316.93 178.735 316.393 177.763 315.538 176.881C314.693 175.999 313.788 175.308 312.635 174.797C311.482 174.296 310.448 174.035 309.126 174.035C307.803 174.035 306.551 174.296 305.398 174.797C304.254 175.298 303.24 175.999 302.385 176.881C301.54 177.753 300.834 178.735 300.347 179.898C299.86 181.06 299.611 182.323 299.611 183.666C299.611 185.009 299.86 186.061 300.347 187.234C300.834 188.406 301.51 189.439 302.355 190.3C303.2 191.162 304.214 191.854 305.368 192.365C306.521 192.866 307.774 193.127 309.096 193.127C310.418 193.127 311.889 192.866 313.043 192.365C314.196 191.864 315.2 191.162 316.055 190.3C316.413 189.94 316.731 189.549 317.029 189.138C317.139 188.988 317.099 188.767 316.94 188.667L314.146 186.793C313.987 186.693 313.788 186.733 313.679 186.893C313.5 187.164 313.301 187.414 313.082 187.645C312.625 188.116 312.078 188.487 311.452 188.757C310.826 189.028 309.911 189.158 309.165 189.158H309.076C308.33 189.158 307.634 189.028 307.008 188.757C306.382 188.487 305.835 188.116 305.378 187.645C304.92 187.174 304.562 186.612 304.304 185.971C304.214 185.741 304.135 185.49 304.075 185.229H317.715ZM304.324 180.96C304.582 180.319 304.94 179.758 305.398 179.287C305.845 178.816 306.402 178.445 307.028 178.174C307.654 177.904 308.35 177.773 309.096 177.773H308.967C309.712 177.773 310.408 177.904 311.034 178.174C311.661 178.445 312.208 178.816 312.665 179.287C313.122 179.758 313.48 180.319 313.739 180.96C313.828 181.191 313.908 181.441 313.967 181.702H304.085C304.145 181.441 304.224 181.201 304.314 180.96H304.324Z" fill="white"/>
<path d="M324.337 167H320.877C320.698 167 320.549 167.15 320.549 167.331V192.074C320.549 192.255 320.698 192.405 320.877 192.405H324.337C324.516 192.405 324.665 192.255 324.665 192.074V167.331C324.665 167.15 324.516 167 324.337 167Z" fill="white"/>
<path d="M330.431 169.004C330.371 168.944 330.311 168.884 330.232 168.844C329.914 168.674 329.546 168.754 329.327 168.994L327.18 171.44C326.991 171.66 326.971 171.981 327.15 172.231C327.269 172.392 327.458 172.482 327.667 172.482H332.091C332.29 172.482 332.489 172.392 332.608 172.231C332.787 171.981 332.767 171.66 332.578 171.45L330.441 169.014L330.431 169.004Z" fill="white"/>
<path d="M331.615 174.757H328.156C327.977 174.757 327.828 174.907 327.828 175.088V192.074C327.828 192.255 327.977 192.405 328.156 192.405H331.615C331.794 192.405 331.943 192.255 331.943 192.074V175.088C331.943 174.907 331.794 174.757 331.615 174.757Z" fill="white"/>
<path d="M290.416 174.326C288.487 174.326 286.787 175.087 285.356 176.611C283.934 175.098 282.224 174.326 280.296 174.326C278.367 174.326 276.538 175.098 275.215 176.491C273.913 177.874 273.187 179.718 273.187 181.702V192.074C273.187 192.255 273.336 192.405 273.515 192.405H276.945C277.124 192.405 277.273 192.255 277.273 192.074V181.702C277.273 180.8 277.572 179.978 278.108 179.377C278.655 178.765 279.431 178.425 280.286 178.425C281.141 178.425 281.906 178.765 282.463 179.377C283 179.978 283.298 180.81 283.298 181.702V192.074C283.298 192.255 283.447 192.405 283.626 192.405H287.056C287.235 192.405 287.384 192.255 287.384 192.074V181.702C287.384 180.81 287.682 179.978 288.219 179.377C288.766 178.765 289.541 178.425 290.396 178.425C291.251 178.425 292.017 178.765 292.574 179.377C293.11 179.978 293.409 180.81 293.409 181.702V192.074C293.409 192.255 293.558 192.405 293.737 192.405H297.167C297.346 192.405 297.495 192.255 297.495 192.074V181.702C297.495 179.718 296.779 177.864 295.467 176.491C294.144 175.087 292.335 174.326 290.386 174.326H290.416Z" fill="white"/>
<path d="M346.009 195.271H341.585C341.386 195.271 341.188 195.361 341.068 195.522C340.889 195.772 340.909 196.093 341.098 196.314L343.236 198.749C343.295 198.809 343.355 198.869 343.434 198.909C343.753 199.08 344.12 198.999 344.339 198.759L346.486 196.314C346.675 196.093 346.695 195.782 346.516 195.532C346.397 195.371 346.198 195.281 345.999 195.281L346.009 195.271Z" fill="white"/>
<path d="M352.503 179.868C352.025 178.725 351.359 177.703 350.514 176.841C349.679 175.979 348.675 175.288 347.552 174.787C346.418 174.286 345.185 174.035 343.883 174.035C342.581 174.035 341.338 174.286 340.215 174.787C339.091 175.288 338.087 175.969 337.252 176.841C336.417 177.703 335.751 178.725 335.264 179.868C334.786 181.01 334.538 182.263 334.538 183.586C334.538 184.909 334.777 186.161 335.264 187.324C335.741 188.477 336.407 189.499 337.252 190.351C338.087 191.202 339.081 191.884 340.215 192.385C341.348 192.886 342.581 193.137 343.883 193.137C345.185 193.137 346.418 192.886 347.552 192.385C348.685 191.884 349.679 191.202 350.514 190.351C351.349 189.499 352.015 188.477 352.503 187.324C352.98 186.172 353.228 184.909 353.228 183.586C353.228 182.263 352.98 181.01 352.503 179.868ZM338.833 183.586C338.833 182.784 338.952 182.033 339.191 181.361C339.429 180.69 339.767 180.098 340.195 179.617C340.622 179.136 341.159 178.755 341.775 178.485C342.402 178.204 343.108 178.064 343.873 178.064C344.639 178.064 345.354 178.204 345.971 178.485C346.597 178.765 347.124 179.146 347.552 179.617C347.979 180.098 348.317 180.68 348.556 181.361C348.794 182.043 348.914 182.784 348.914 183.586C348.914 184.388 348.794 185.129 348.556 185.811C348.317 186.492 347.979 187.073 347.552 187.554C347.124 188.036 346.587 188.416 345.971 188.687C345.354 188.968 344.639 189.108 343.873 189.108C343.108 189.108 342.392 188.968 341.775 188.687C341.149 188.406 340.622 188.026 340.195 187.554C339.767 187.073 339.429 186.492 339.191 185.811C338.952 185.139 338.833 184.388 338.833 183.586Z" fill="white"/>
<path d="M243.901 180.691C243.713 180.722 243.62 180.816 243.62 181.003C243.62 181.159 243.713 181.253 243.901 181.284C246.991 181.816 248.645 184.003 248.645 186.222C248.645 189.847 246.335 192.472 241.841 192.472H231.166V170.472H240.405C244.962 170.472 247.646 172.253 247.646 176.191C247.646 178.159 246.179 180.159 243.901 180.691ZM234.412 173.222V179.847H240.28C242.871 179.847 244.4 178.222 244.4 176.316C244.4 174.628 243.37 173.222 241.029 173.222H234.412ZM241.248 189.722C243.838 189.722 245.399 188.159 245.399 186.097C245.399 184.128 243.807 182.597 240.873 182.597H234.412V189.722H241.248Z" fill="white"/>
<path d="M249.203 176.472H252.449L256.756 188.284C256.975 188.847 257.006 189.441 257.006 189.972C257.006 190.159 257.006 190.378 257.255 190.378C257.505 190.378 257.505 190.159 257.505 189.972C257.505 189.441 257.599 188.847 257.786 188.284L261.937 176.472H265.183L258.254 194.378C257.131 197.316 255.57 198.472 252.699 198.472H250.639V195.847H252.074C254.446 195.847 254.852 195.316 255.32 194.159L255.757 193.097L249.203 176.472Z" fill="white"/>
</svg>
