  <svg viewBox="0 0 40 40" fill="none" xmlns="http://www.w3.org/2000/svg">
    <path
      d="M31.7945 30.7738C18.0365 37.3215 9.49805 31.8433 4.03236 28.5158C3.69415 28.3062 3.1193 28.5648 3.61806 29.1378C5.43895 31.3457 11.4064 36.6673 19.1957 36.6673C26.9903 36.6673 31.6273 32.4142 32.2075 31.6723C32.7837 30.9367 32.3768 30.5308 31.7945 30.7738ZM35.6583 28.64C35.289 28.1588 33.4118 28.0692 32.2305 28.2143C31.0473 28.3552 29.2713 29.0783 29.4258 29.5125C29.505 29.6752 29.6668 29.6022 30.4795 29.5292C31.2945 29.4478 33.5777 29.1597 34.0535 29.7815C34.5315 30.4078 33.3253 33.391 33.105 33.872C32.8922 34.3532 33.1863 34.4772 33.5862 34.1568C33.9803 33.8365 34.6942 33.007 35.1732 31.833C35.649 30.6528 35.9392 29.0063 35.6583 28.64Z"
      fill="white"
    />
    <path
      fill-rule="evenodd"
      clip-rule="evenodd"
      d="M22.543 17.4127C22.543 19.1307 22.5865 20.5633 21.7182 22.089C21.0172 23.3297 19.907 24.0925 18.6665 24.0925C16.9734 24.0925 15.9872 22.8023 15.9872 20.8983C15.9872 17.1397 19.3549 16.4574 22.543 16.4574V17.4127ZM26.99 28.1612C26.6985 28.4217 26.2767 28.4403 25.948 28.2665C24.4844 27.051 24.2239 26.4867 23.4175 25.3267C20.9987 27.7953 19.2869 28.5333 16.1485 28.5333C12.4395 28.5333 9.54919 26.2447 9.54919 21.6612C9.54919 18.0825 11.4906 15.6449 14.2505 14.4542C16.6446 13.3996 19.9877 13.2136 22.543 12.9222V12.3515C22.543 11.3033 22.6235 10.0629 22.0097 9.15739C21.47 8.34486 20.4404 8.00991 19.5349 8.00991C17.854 8.00991 16.3531 8.87199 15.9872 10.6582C15.9127 11.0553 15.6212 11.4461 15.2243 11.4646L10.9447 11.0057C10.585 10.9249 10.1881 10.6335 10.2873 10.0814C11.2735 4.89643 15.9561 3.33334 20.1487 3.33334C22.2949 3.33334 25.0982 3.90401 26.7915 5.52906C28.9375 7.53233 28.7329 10.2055 28.7329 13.1144V19.9865C28.7329 22.0518 29.5887 22.9573 30.395 24.0738C30.6802 24.4708 30.7424 24.9485 30.3825 25.246C29.4832 25.9965 27.883 27.3922 27.0024 28.1737L26.99 28.1612Z"
      fill="white"
    />
    <path
      d="M31.7945 30.7738C18.0365 37.3215 9.49805 31.8433 4.03236 28.5158C3.69415 28.3062 3.1193 28.5648 3.61806 29.1378C5.43895 31.3457 11.4064 36.6673 19.1957 36.6673C26.9903 36.6673 31.6273 32.4142 32.2075 31.6723C32.7837 30.9367 32.3768 30.5308 31.7945 30.7738ZM35.6583 28.64C35.289 28.1588 33.4118 28.0692 32.2305 28.2143C31.0473 28.3552 29.2713 29.0783 29.4258 29.5125C29.505 29.6752 29.6668 29.6022 30.4795 29.5292C31.2945 29.4478 33.5777 29.1597 34.0535 29.7815C34.5315 30.4078 33.3253 33.391 33.105 33.872C32.8922 34.3532 33.1863 34.4772 33.5862 34.1568C33.9803 33.8365 34.6942 33.007 35.1732 31.833C35.649 30.6528 35.9392 29.0063 35.6583 28.64Z"
      fill="white"
    />
    <path
      fill-rule="evenodd"
      clip-rule="evenodd"
      d="M22.543 17.4127C22.543 19.1307 22.5865 20.5633 21.7182 22.089C21.0172 23.3297 19.907 24.0925 18.6665 24.0925C16.9734 24.0925 15.9872 22.8023 15.9872 20.8983C15.9872 17.1397 19.3549 16.4574 22.543 16.4574V17.4127ZM26.99 28.1612C26.6985 28.4217 26.2767 28.4403 25.948 28.2665C24.4844 27.051 24.2239 26.4867 23.4175 25.3267C20.9987 27.7953 19.2869 28.5333 16.1485 28.5333C12.4395 28.5333 9.54919 26.2447 9.54919 21.6612C9.54919 18.0825 11.4906 15.6449 14.2505 14.4542C16.6446 13.3996 19.9877 13.2136 22.543 12.9222V12.3515C22.543 11.3033 22.6235 10.0629 22.0097 9.15739C21.47 8.34486 20.4404 8.00991 19.5349 8.00991C17.854 8.00991 16.3531 8.87199 15.9872 10.6582C15.9127 11.0553 15.6212 11.4461 15.2243 11.4646L10.9447 11.0057C10.585 10.9249 10.1881 10.6335 10.2873 10.0814C11.2735 4.89643 15.9561 3.33334 20.1487 3.33334C22.2949 3.33334 25.0982 3.90401 26.7915 5.52906C28.9375 7.53233 28.7329 10.2055 28.7329 13.1144V19.9865C28.7329 22.0518 29.5887 22.9573 30.395 24.0738C30.6802 24.4708 30.7424 24.9485 30.3825 25.246C29.4832 25.9965 27.883 27.3922 27.0024 28.1737L26.99 28.1612Z"
      fill="white"
    />
  </svg>
