  <svg viewBox="0 0 40 40" fill="none" xmlns="http://www.w3.org/2000/svg">
    <path
      fill-rule="evenodd"
      clip-rule="evenodd"
      d="M39.9994 0H0V40H39.9994V33.6937H35.2926L32.7909 30.9331L30.3069 33.7044L14.4905 33.6706V20.9491H9.36353L15.679 6.61642H21.828L23.9878 11.5206V6.61642H31.5792L32.8883 10.2909L34.2018 6.61642H39.9987V8.17177H35.3955L32.9178 15.058L30.456 8.18822L25.6719 8.17177V19.2449L20.7759 8.1736H16.8437L11.8813 19.3483H14.4905V19.338L15.2889 19.3387L16.2211 17.1105H21.2939L22.228 19.3449L25.7175 19.348L25.7167 19.3462L28.6809 19.3464V11.6704L31.5358 19.3464H34.2402L37.037 11.6964V19.3582L38.5111 19.3595L39.9987 19.3465V19.3608H39.9994V0ZM39.9994 20.9155V21.0037L34.8642 26.5008L39.9994 31.9404V32.0993H36.0737L32.8104 28.5191L29.5807 32.0993H25.6773H25.6296H16.1943V20.9491H29.7213L32.8973 24.4602L36.0824 20.9491H39.9987V20.9155H39.9994ZM39.9994 29.6499L37.0517 26.4708L39.9994 23.3207V29.6499ZM17.2702 14.6027L18.7584 11.0454L20.2455 14.6027H17.2702ZM25.6773 23.4915V20.9662L30.8769 26.5008L25.6773 32.0484V29.4919H19.2647V27.7742H25.5244V25.2404H19.2647V23.4915H25.6773Z"
      fill="white"
    />
  </svg>
