  <svg viewBox="0 0 40 40" fill="none" xmlns="http://www.w3.org/2000/svg">
    <g id="Brand=Cap1, Size=40px" clip-path="url(#clip0_6848_4107)">
      <path id="Vector" fill="#fff" d="M20 40c11.046 0 20-8.954 20-20S31.046 0 20 0 0 8.954 0 20s8.954 20 20 20Z" />
      <g id="Mask group">
        <mask id="mask0_6848_4107" width="40" height="40" x="0" y="0" maskUnits="userSpaceOnUse">
          <g id="Group">
            <path
              id="Vector_2"
              fill="#fff"
              d="M20 40c11.046 0 20-8.954 20-20S31.046 0 20 0 0 8.954 0 20s8.954 20 20 20Z"
            />
          </g>
        </mask>
        <g mask="url(#mask0_6848_4107)">
          <g id="Group_2">
            <path
              id="Vector_3"
              fill="#CC2427"
              d="M-55.953 18.446a264.85 264.85 0 0 1 2.264-.397c9.148-1.729 7.82-3.16 42.337-7.21 22.178-2.894 44.706-2.577 47.547 3.68 4.428 9.755-35.85 31.309-57.362 42.025 29.263-18.466 42.7-29.57 38.282-36.626-6.355-10.149-48.469-5.687-70.804-1.87-.688.131-1.436.263-2.264.398Z"
            />
          </g>
        </g>
      </g>
    </g>
    <defs>
      <clipPath id="clip0_6848_4107">
        <path fill="#fff" d="M0 0h40v40H0z" />
      </clipPath>
    </defs>
  </svg>
