  <svg viewBox="0 0 40 40" fill="none" xmlns="http://www.w3.org/2000/svg">
    <path
      d="M12.5864 27.352L12.5165 27.4183C11.4195 28.5132 10.1499 29.0916 8.84217 29.0916C6.11095 29.0916 4.12966 27.0847 4.12966 24.3164C4.12966 21.5524 6.11095 19.5422 8.84217 19.5422C10.1499 19.5422 11.4195 20.1239 12.5165 21.2231L12.5864 21.2883L14.3428 19.2075L14.2959 19.1519C12.8353 17.4614 11.0822 16.6392 8.92731 16.6392C6.76701 16.6392 4.789 17.3524 3.36553 18.6365C1.81544 20.0287 1 21.9918 1 24.3164C1 26.6409 1.81544 28.6083 3.36553 30.0005C4.789 31.2922 6.76701 32 8.92731 32C11.0822 32 12.8353 31.1767 14.2959 29.4851L14.3428 29.4338L12.5864 27.352Z"
      fill="white"
    />
    <path d="M16.1169 31.7162H19.2186V16.8794H16.1169V31.7162Z" fill="white" />
    <path
      d="M31.374 28.4908C30.5454 28.9848 29.7758 29.2339 29.0837 29.2339C28.0805 29.2339 27.6264 28.7143 27.6264 27.5595V19.6866H30.7888V16.8937H27.6264V12.2767L24.5863 13.872V16.8937H21.962V19.6866H24.5863V28.061C24.5863 30.3417 25.9661 31.9028 28.0271 31.9434C29.4254 31.9701 30.2681 31.5617 30.779 31.2623L30.8118 31.242L31.5573 28.3807L31.374 28.4908Z"
      fill="white"
    />
    <path d="M33.9418 31.7162H37.0478V16.8794H33.9418V31.7162Z" fill="white" />
    <path
      d="M38.858 14.2786C36.0231 10.3459 31.3161 8 26.5271 8C21.7393 8 17.0312 10.3459 14.2017 14.2786L14.0554 14.4807H17.625L17.6643 14.439C20.0931 11.9819 23.2654 10.6838 26.5271 10.6838C29.7889 10.6838 32.9589 11.9819 35.3932 14.439L35.4325 14.4807H38.9999L38.858 14.2786Z"
      fill="white"
    />
  </svg>
