  <svg xmlns="http://www.w3.org/2000/svg" fill="none" viewBox="0 0 40 40">
    <path fill="#004685" d="M0 0h40v40H0z" />
    <path
      fill="#fff"
      d="m13.497 24.01-.061.06c-.963.98-2.076 1.499-3.223 1.499-2.396 0-4.134-1.799-4.134-4.28 0-2.477 1.738-4.278 4.134-4.278 1.147 0 2.26.521 3.223 1.506l.06.059 1.542-1.865-.042-.05c-1.28-1.515-2.819-2.252-4.709-2.252-1.895 0-3.63.64-4.879 1.79-1.36 1.248-2.075 3.007-2.075 5.09 0 2.084.716 3.847 2.075 5.094 1.25 1.158 2.984 1.792 4.88 1.792 1.89 0 3.427-.738 4.708-2.253l.042-.047-1.541-1.865M29.977 25.03c-.727.443-1.402.666-2.009.666-.88 0-1.278-.465-1.278-1.5V17.14h2.774v-2.503H26.69V10.5l-2.667 1.43v2.708H21.72v2.503h2.302v7.505c0 2.044 1.21 3.443 3.018 3.48 1.227.024 1.966-.342 2.414-.61l.029-.019.654-2.564-.161.099M32.23 27.921h2.725V14.624H32.23v13.297ZM16.594 27.921h2.721V14.624h-2.721v13.297Z"
    />
    <path
      fill="#EE1C25"
      d="M36.542 12.293c-2.487-3.524-6.616-5.626-10.816-5.626-4.2 0-8.33 2.102-10.812 5.627l-.128.18h3.13l.035-.037c2.13-2.202 4.913-3.365 7.775-3.365 2.86 0 5.642 1.163 7.777 3.365l.034.038h3.13l-.125-.181"
    />
  </svg>
