<svg viewBox="0 0 40 40" fill="none" xmlns="http://www.w3.org/2000/svg">
<g clip-path="url(#clip0_30508_80262)">
<g clip-path="url(#clip1_30508_80262)">
<path d="M20 0C31.0457 0 40 8.9543 40 20C40 31.0457 31.0457 40 20 40C8.9543 40 0 31.0457 0 20C0 8.9543 8.9543 0 20 0ZM16.8535 20.6934C15.4957 20.6934 14.3787 20.6963 14.373 20.6992C14.3702 20.7021 14.2841 20.7111 14.1807 20.7197C13.3442 20.7973 12.5246 21.1195 11.8232 21.6484C10.8489 22.3815 10.1738 23.5487 10.0186 24.7588C9.98125 25.0692 10.004 26.0017 10.0557 26.1494C10.0614 26.1695 10.0724 26.2186 10.0811 26.2588C10.173 26.7819 10.4499 27.4343 10.7891 27.9316C11.5163 29.0067 12.7236 29.7572 13.9941 29.9268C14.0573 29.9354 14.1405 29.9474 14.1807 29.9561C14.2729 29.9704 15.0072 29.9732 15.0859 29.9561C15.1176 29.9503 15.2215 29.9354 15.3164 29.9268C15.5378 29.9008 15.9742 29.792 16.25 29.6943C16.612 29.565 17.3132 29.1857 17.4746 29.0332C17.4919 29.0188 17.5609 28.9579 17.6299 28.9033C18.3686 28.3111 19.019 27.2765 19.1973 26.417C19.2059 26.3679 19.2339 26.2329 19.2598 26.1152C19.3 25.9284 19.3088 25.5455 19.3174 23.2949L19.3291 20.6914L16.8535 20.6934ZM23.2441 20.6963C21.4199 20.6934 20.6785 20.6997 20.6719 20.7227C20.6518 20.7859 20.6684 25.532 20.6885 25.7559C20.8638 27.6732 22.2351 29.3035 24.1006 29.8066C24.2497 29.8468 24.4106 29.8867 24.457 29.8926C24.6379 29.9242 24.7532 29.9416 24.8623 29.9531C25.006 29.9704 25.6986 29.9733 25.7939 29.9561C25.8342 29.9474 25.9233 29.9354 25.9951 29.9268C26.6189 29.8463 27.3065 29.5909 27.8584 29.2373C28.8011 28.6337 29.4992 27.705 29.8154 26.6416C29.8613 26.4867 29.9044 26.3087 29.916 26.2451C29.9246 26.1819 29.9396 26.0979 29.9482 26.0576C30.0172 25.7326 30.0172 24.9395 29.9482 24.5889C29.9396 24.5515 29.9246 24.4796 29.916 24.4336C29.8499 24.0657 29.6922 23.6114 29.4824 23.2119C28.8213 21.927 27.5906 21.0272 26.1504 20.7656C25.817 20.7053 25.7333 20.702 23.2441 20.6963ZM16.1523 22.0078C17.6149 22.0049 18.0008 22.0103 18.0098 22.0391C18.0299 22.1051 18.0123 25.5161 17.9922 25.6953C17.9548 25.9799 17.8913 26.2619 17.8252 26.4258C17.808 26.4688 17.7849 26.5289 17.7734 26.5605C17.6527 26.8853 17.3885 27.2993 17.124 27.5811C16.4773 28.268 15.6612 28.639 14.7559 28.6592C14.0056 28.6764 13.3905 28.4979 12.7725 28.084C11.6082 27.3078 11.0649 25.9054 11.3955 24.5342C11.4587 24.2786 11.4844 24.2124 11.6279 23.9023C11.9959 23.1061 12.7694 22.4362 13.6289 22.166C13.8588 22.0942 13.9076 22.0821 14.1807 22.0332C14.2531 22.0217 15.141 22.0107 16.1523 22.0078ZM14.1807 10.0381C14.083 10.0524 13.6669 10.1262 13.5771 10.1436C13.2638 10.2097 12.7263 10.4175 12.4072 10.5957C11.9847 10.8314 11.7285 11.0265 11.3174 11.4404C10.8288 11.9319 10.4723 12.5038 10.248 13.1504C10.0555 13.7109 9.99811 14.0764 10.001 14.7461C10.0039 15.5078 10.1275 16.0483 10.458 16.7295C11.0416 17.934 12.0825 18.8109 13.3789 19.1875C13.988 19.3656 14.0373 19.3682 16.7529 19.3711C18.1126 19.374 19.2516 19.372 19.2832 19.3662C19.3406 19.3576 19.3408 19.3415 19.3379 16.8506C19.3379 15.4708 19.326 14.2718 19.3145 14.1855C19.2742 13.8782 19.1799 13.4531 19.0908 13.1973C18.6223 11.8117 17.5036 10.7041 16.1094 10.2471C15.8337 10.158 15.8249 10.1553 15.5605 10.1064C15.4745 10.0892 15.3654 10.0691 15.3164 10.0576C15.2215 10.0404 14.2928 10.0237 14.1807 10.0381ZM24.9033 10.0869C24.7855 10.0955 24.6616 10.1095 24.6299 10.1152C24.5983 10.121 24.5151 10.1351 24.4434 10.1494C24.3715 10.1609 24.3075 10.1729 24.2988 10.1758C23.4109 10.4057 22.7297 10.7677 22.1377 11.3252C21.3127 12.11 20.7891 13.1626 20.6885 14.2578C20.6712 14.4654 20.6546 19.2223 20.6719 19.3027C20.6817 19.3427 20.9531 19.3486 23.2158 19.3457C25.7021 19.34 25.757 19.3396 26.1191 19.2764C27.6512 19.009 28.916 18.0434 29.5771 16.6436C29.6835 16.4136 29.8532 15.9309 29.8906 15.7354C30.0659 14.8702 30.0313 14.0623 29.7871 13.2949C29.5629 12.5965 29.1488 11.9265 28.6143 11.4033C27.7519 10.5553 26.6363 10.0922 25.3916 10.0635C25.2479 10.0606 25.1269 10.0606 25.124 10.0635C25.119 10.0664 25.0197 10.0756 24.9033 10.0869Z" fill="white"/>
</g>
</g>
<defs>
<clipPath>
<rect fill="white"/>
</clipPath>
<clipPath>
<rect fill="white"/>
</clipPath>
</defs>
</svg>
