<svg viewBox="0 0 40 40" fill="none" xmlns="http://www.w3.org/2000/svg">
<g clip-path="url(#clip0_30508_80259)">
<g clip-path="url(#clip1_30508_80259)">
<path d="M20 40C31.0457 40 40 31.0457 40 20C40 8.9543 31.0457 0 20 0C8.9543 0 0 8.9543 0 20C0 31.0457 8.9543 40 20 40Z" fill="#228800"/>
<path d="M14.1806 10.0377C14.0829 10.052 13.6661 10.1268 13.5769 10.144C13.2636 10.2102 12.7261 10.4171 12.407 10.5954C11.9844 10.8311 11.7286 11.0265 11.3175 11.4405C10.8288 11.932 10.4724 12.5041 10.2481 13.1509C10.0556 13.7114 9.99806 14.0765 10.0009 14.7463C10.0038 15.5081 10.1274 16.0485 10.458 16.7298C11.0415 17.9342 12.0822 18.811 13.3786 19.1876C13.988 19.3658 14.0369 19.3687 16.7534 19.3715C18.1131 19.3744 19.2514 19.3715 19.283 19.3658C19.3405 19.3572 19.3405 19.3428 19.3377 16.8505C19.3377 15.4707 19.3262 14.272 19.3147 14.1857C19.2744 13.8782 19.1796 13.4527 19.0904 13.1969C18.6219 11.8113 17.5037 10.7046 16.1095 10.2475C15.8335 10.1584 15.8249 10.1555 15.5604 10.1067C15.4742 10.0894 15.365 10.0693 15.3161 10.0578C15.2212 10.0406 14.2927 10.0233 14.1806 10.0377ZM25.1243 10.0635C25.1214 10.0664 25.0208 10.075 24.9029 10.0865C24.785 10.0952 24.6614 10.1095 24.6298 10.1153C24.5982 10.121 24.5148 10.1354 24.443 10.1498C24.3711 10.1613 24.3079 10.1728 24.2992 10.1757C23.411 10.4056 22.7297 10.7678 22.1375 11.3255C21.3125 12.1103 20.7893 13.1624 20.6887 14.2576C20.6715 14.4617 20.6542 19.2221 20.6715 19.3025C20.6801 19.3428 20.9474 19.3485 23.2155 19.3457C25.702 19.3399 25.7567 19.3399 26.1189 19.2767C27.651 19.0093 28.9159 18.0435 29.577 16.6435C29.6834 16.4136 29.853 15.9306 29.8904 15.7352C30.0657 14.8699 30.0312 14.0621 29.7869 13.2946C29.5626 12.5961 29.1487 11.9263 28.614 11.4031C27.7516 10.5551 26.6363 10.0923 25.3916 10.0635C25.2479 10.0607 25.1271 10.0607 25.1243 10.0635ZM14.3732 20.6996C14.3703 20.7025 14.2841 20.7111 14.1806 20.7197C13.3441 20.7973 12.5248 21.1193 11.8234 21.6482C10.8489 22.3812 10.1734 23.5483 10.0182 24.7586C9.98081 25.069 10.0038 26.0033 10.0556 26.1499C10.0613 26.17 10.0728 26.2189 10.0814 26.2591C10.1734 26.7823 10.4494 27.4348 10.7886 27.9321C11.5159 29.0072 12.7232 29.7575 13.9938 29.9271C14.057 29.9357 14.1404 29.9472 14.1806 29.9558C14.2726 29.9702 15.0085 29.9731 15.0861 29.9558C15.1177 29.9501 15.2212 29.9357 15.3161 29.9271C15.5374 29.9012 15.9744 29.792 16.2503 29.6943C16.6125 29.5649 17.3139 29.1855 17.4749 29.0331C17.4922 29.0187 17.5612 28.9584 17.6301 28.9037C18.3689 28.3116 19.0186 27.2767 19.1968 26.4172C19.2054 26.3683 19.2342 26.2332 19.26 26.1154C19.3003 25.9285 19.3089 25.5462 19.3175 23.2954L19.329 20.691L16.854 20.6939C15.4943 20.6939 14.3761 20.6967 14.3732 20.6996ZM18.0096 22.0392C18.0297 22.1053 18.0125 25.5203 17.9923 25.6957C17.955 25.9803 17.8917 26.262 17.8256 26.4258C17.8084 26.4689 17.7854 26.5293 17.7739 26.5609C17.6531 26.8858 17.3887 27.2997 17.1242 27.5814C16.4774 28.2684 15.661 28.6393 14.7555 28.6594C14.0053 28.6766 13.3901 28.4984 12.7721 28.0845C11.6078 27.3083 11.0645 25.9055 11.3951 24.5343C11.4584 24.2785 11.4842 24.2124 11.628 23.9019C11.9959 23.1057 12.7692 22.4359 13.6287 22.1657C13.8587 22.0938 13.9075 22.0823 14.1806 22.0334C14.2525 22.0219 15.1407 22.0104 16.1526 22.0076C17.6158 22.0047 18.001 22.0104 18.0096 22.0392ZM20.6715 20.7226C20.6514 20.7858 20.6686 25.5347 20.6887 25.756C20.8641 27.6734 22.2353 29.3033 24.1009 29.8064C24.2504 29.8466 24.4113 29.8869 24.4573 29.8926C24.6384 29.9242 24.7534 29.9415 24.8627 29.953C25.0064 29.9702 25.6992 29.9731 25.794 29.9558C25.8343 29.9472 25.9234 29.9357 25.9953 29.9271C26.619 29.8466 27.3061 29.5908 27.858 29.2372C28.8009 28.6335 29.4994 27.705 29.8156 26.6414C29.8616 26.4862 29.9047 26.308 29.9162 26.2447C29.9248 26.1815 29.9392 26.0981 29.9478 26.0579C30.0168 25.733 30.0168 24.9397 29.9478 24.5889C29.9392 24.5516 29.9248 24.4797 29.9162 24.4337C29.8501 24.0658 29.692 23.6116 29.4822 23.212C28.821 21.9271 27.5907 21.0273 26.1505 20.7657C25.817 20.7054 25.7337 20.7025 23.2443 20.6967C21.4189 20.6939 20.6772 20.6996 20.6715 20.7226Z" fill="white"/>
</g>
</g>
<defs>
<clipPath>
<rect fill="white"/>
</clipPath>
<clipPath>
<rect fill="white"/>
</clipPath>
</defs>
</svg>
