<svg viewBox="0 0 40 40" fill="none" xmlns="http://www.w3.org/2000/svg">

<path d="M26.7166 8.05C28.8499 8.05 30.8833 8.23333 32.7499 8.6C29.6166 6.68333 25.1333 5.46667 20.1499 5.46667C17.7666 5.46667 15.4833 5.75 13.4333 6.25C13.3333 4.56667 10.9166 3.21667 7.98327 3.21667C5.04993 3.21667 2.5166 4.61667 2.5166 6.38333C2.5166 8.15 4.94993 9.51667 7.98327 9.51667C9.29993 9.51667 10.4999 9.25 11.4499 8.78333C10.4666 9.58333 8.83327 10.1 7.0166 10.1C6.54993 10.1 6.08327 10.05 5.64994 10C3.9666 11.5 2.98327 13.3167 2.98327 15.2333C2.98327 20.65 10.6833 25.0333 20.1666 25.0333C21.2333 25.0333 22.2999 24.9833 23.2999 24.8833C15.3999 24.1 9.44993 20.65 9.44993 16.5667C9.44993 11.8667 17.1666 8.06667 26.7166 8.06667H26.6833L26.7166 8.05Z" fill="#FEBE10"/>
<path d="M32.0333 30.5C30.7166 30.5 29.5166 30.7667 28.5666 31.2333C29.5499 30.4333 31.1833 29.9167 32.9999 29.9167C33.4666 29.9167 33.9333 29.9667 34.3666 30.0167C36.0499 28.5167 37.0333 26.7 37.0333 24.7833C37.0333 19.3667 29.3333 14.9833 19.8499 14.9833C18.7833 14.9833 17.7166 15.0333 16.7166 15.1333C24.6166 15.9167 30.5666 19.3667 30.5666 23.45C30.5666 28.15 22.8499 31.95 13.2999 31.95C11.1666 31.95 9.13327 31.7667 7.2666 31.4C10.3999 33.3167 14.8833 34.5333 19.8666 34.5333C22.2499 34.5333 24.4999 34.25 26.5833 33.75C26.6833 35.4333 29.0999 36.7833 32.0333 36.7833C34.9666 36.7833 37.4999 35.3833 37.4999 33.6167C37.4999 31.85 35.0666 30.4833 32.0333 30.4833H32.0666L32.0333 30.5Z" fill="#CE6E19"/>
</svg>
