  <svg viewBox="0 0 40 40" fill="none" xmlns="http://www.w3.org/2000/svg">
    <path
      fill-rule="evenodd"
      clip-rule="evenodd"
      d="M20 40C31.0457 40 40 31.0457 40 20C40 8.9543 31.0457 0 20 0C8.9543 0 0 8.9543 0 20C0 31.0457 8.9543 40 20 40ZM20.4458 10V19.2505C25.41 19.2505 29.4346 15.1089 29.4346 10H20.4458ZM20.4458 20.7495V30H29.4346C29.4346 24.8911 25.41 20.7495 20.4458 20.7495ZM10 19.2505H18.9888V10C14.0244 10 10 14.1417 10 19.2505ZM10 20.7495C10 25.8585 14.0244 30 18.9888 30V20.7495H10Z"
      fill="white"
    />
  </svg>
