  <svg viewBox="0 0 40 40" fill="none" xmlns="http://www.w3.org/2000/svg">
    <path
      fill-rule="evenodd"
      clip-rule="evenodd"
      d="M40 19.7712C40 28.6609 32.0946 35.9684 23.4334 35.9257H15.9794C7.21442 35.9684 0 28.6629 0 19.7712C0 10.0517 7.21442 3.33011 15.9794 3.33334H23.4334C32.0946 3.33011 40 10.0497 40 19.7712ZM1.51347 19.6005C1.51535 11.3599 8.00544 4.68295 16.0146 4.68037C24.0257 4.68295 30.517 11.3599 30.5182 19.6005C30.5171 27.8397 24.0257 34.516 16.0146 34.5186C8.00538 34.516 1.51535 27.8397 1.51347 19.6005ZM12.7237 10.7753C9.2756 12.1398 6.83034 15.5737 6.82279 19.6005C6.83028 23.6279 9.2756 27.0599 12.7237 28.4237V10.7753ZM19.3043 28.4276V10.7747C22.7537 12.1359 25.2027 15.5717 25.209 19.6005C25.2027 23.6305 22.7537 27.0637 19.3043 28.4276Z"
      fill="white"
    />
  </svg>
