  <svg xmlns="http://www.w3.org/2000/svg" fill="none" viewBox="0 0 40 40">
    <path
      fill="#0079BE"
      fill-rule="evenodd"
      d="M40 19.771c0 8.89-7.905 16.197-16.567 16.155H15.98C7.214 35.968 0 28.663 0 19.77c0-9.72 7.214-16.44 15.98-16.438h7.453C32.095 3.33 40 10.05 40 19.771Zm-38.487-.17C1.515 11.36 8.005 4.683 16.015 4.68c8.01.002 14.502 6.679 14.503 14.92 0 8.239-6.492 14.915-14.503 14.918-8.01-.003-14.5-6.68-14.502-14.918Zm11.21-8.826c-3.447 1.365-5.893 4.799-5.9 8.825.007 4.028 2.453 7.46 5.9 8.824V10.775Zm6.581 17.652V10.776c3.45 1.36 5.899 4.797 5.905 8.825-.006 4.03-2.455 7.464-5.905 8.827Z"
      clip-rule="evenodd"
    />
  </svg>
