  <svg viewBox="0 0 40 40" fill="none" xmlns="http://www.w3.org/2000/svg">
    <path d="M39.9843 17.6063C39.9843 17.6063 28.532 25.6874 7.55713 29.3042H39.9843V17.6063Z" fill="white" />
    <path
      d="M3.15615 15.4584C2.78187 15.7965 2.2955 15.944 1.52571 15.944H1.20594V11.9046H1.52571C2.2955 11.9046 2.76276 12.0424 3.15615 12.3988C3.56818 12.7655 3.81597 13.3342 3.81597 13.9193C3.81597 14.5057 3.56818 15.0917 3.15615 15.4584ZM1.76429 10.8698H0.0153809V16.9779H1.75509C2.68016 16.9779 3.34801 16.7599 3.93444 16.2728C4.63131 15.6963 5.04335 14.8271 5.04335 13.9282C5.04335 12.1255 3.69656 10.8698 1.76429 10.8698Z"
      fill="white"
    />
    <path d="M5.59155 16.9781H6.78306V10.8698H5.59155V16.9781Z" fill="white" />
    <path
      d="M9.69635 13.2137C8.98131 12.9492 8.77151 12.7748 8.77151 12.4446C8.77151 12.06 9.14555 11.7676 9.65906 11.7676C10.0159 11.7676 10.3094 11.9144 10.6198 12.2622L11.2433 11.4459C10.7309 10.9978 10.1181 10.7689 9.44833 10.7689C8.3675 10.7689 7.54319 11.5193 7.54319 12.519C7.54319 13.3605 7.92691 13.7914 9.04597 14.194C9.51252 14.3587 9.74992 14.4682 9.86957 14.5419C10.1077 14.6974 10.2269 14.9176 10.2269 15.1741C10.2269 15.669 9.83346 16.0357 9.30178 16.0357C8.73352 16.0357 8.2757 15.7513 8.00148 15.2208L7.23169 15.9621C7.7806 16.7679 8.43995 17.125 9.34662 17.125C10.5846 17.125 11.4533 16.3016 11.4533 15.1193C11.4533 14.1487 11.0516 13.7095 9.69635 13.2137Z"
      fill="white"
    />
    <path
      d="M11.8291 13.9282C11.8291 15.7236 13.2389 17.1157 15.0532 17.1157C15.566 17.1157 16.0054 17.0149 16.547 16.7598V15.3573C16.0708 15.834 15.6488 16.0263 15.1086 16.0263C13.9086 16.0263 13.0569 15.1563 13.0569 13.9192C13.0569 12.7466 13.9355 11.8215 15.0532 11.8215C15.6214 11.8215 16.0516 12.0242 16.547 12.5087V11.1069C16.024 10.8417 15.5941 10.7317 15.0813 10.7317C13.2762 10.7317 11.8291 12.1521 11.8291 13.9282Z"
      fill="white"
    />
    <path
      d="M25.994 14.9727L24.3652 10.8698H23.0635L25.6556 17.1348H26.2968L28.9356 10.8698H27.644L25.994 14.9727Z"
      fill="white"
    />
    <path
      d="M29.4744 16.978H32.8532V15.9439H30.6649V14.2951H32.7728V13.2605H30.6649V11.9048H32.8532V10.8697H29.4744V16.978Z"
      fill="white"
    />
    <path
      d="M35.1805 13.6819H34.8324V11.832H35.1994C35.9416 11.832 36.3449 12.1428 36.3449 12.7373C36.3449 13.3513 35.9416 13.6819 35.1805 13.6819ZM37.5708 12.6731C37.5708 11.5295 36.7831 10.8696 35.4092 10.8696H33.6423V16.978H34.8324V14.5242H34.9879L36.637 16.978H38.1023L36.1792 14.4048C37.0767 14.2223 37.5708 13.6083 37.5708 12.6731Z"
      fill="white"
    />
    <path
      d="M16.9363 13.9449C16.9363 15.7396 18.3909 17.1945 20.1856 17.1945C21.9803 17.1945 23.4352 15.7396 23.4352 13.9449C23.4352 12.1502 21.9803 10.6958 20.1856 10.6958C18.3909 10.6958 16.9363 12.1502 16.9363 13.9449Z"
      fill="white"
    />
    <g opacity="0.5">
      <path
        d="M23.4352 13.9449C23.4352 15.7396 21.9803 17.1945 20.1858 17.1945C18.3909 17.1945 16.9363 15.7396 16.9363 13.9449C16.9363 12.1502 18.3909 10.6958 20.1858 10.6958C21.9803 10.6958 23.4352 12.1502 23.4352 13.9449Z"
        fill="white"
      />
    </g>
    <path
      d="M38.1054 11.1727H38.0837V11.0323H38.1068C38.1701 11.0323 38.2031 11.0552 38.2031 11.1014C38.2031 11.1488 38.1696 11.1727 38.1054 11.1727ZM38.3313 11.0993C38.3313 10.9924 38.2576 10.9339 38.1281 10.9339H37.9556V11.4707H38.0837V11.2624L38.234 11.4707H38.3905L38.214 11.2494C38.2895 11.2288 38.3313 11.1739 38.3313 11.0993Z"
      fill="white"
    />
    <path
      d="M38.1519 11.5856C37.9468 11.5856 37.779 11.4148 37.779 11.2019C37.779 10.9881 37.9447 10.8175 38.1519 10.8175C38.356 10.8175 38.5224 10.9919 38.5224 11.2019C38.5224 11.4131 38.356 11.5856 38.1519 11.5856ZM38.1538 10.7333C37.893 10.7333 37.686 10.9412 37.686 11.2012C37.686 11.461 37.8954 11.6692 38.1538 11.6692C38.4077 11.6692 38.6158 11.4587 38.6158 11.2012C38.6158 10.9449 38.4077 10.7333 38.1538 10.7333Z"
      fill="white"
    />
  </svg>
