  <svg viewBox="0 0 40 16" fill="none" xmlns="http://www.w3.org/2000/svg">
    <path
      d="M4.33824 0.67813C4.33824 0.704881 4.55225 0.852011 4.80638 1.01252C5.42165 1.37365 5.80954 2.02905 5.80954 2.72458C5.80954 3.09909 5.27452 4.79777 4.20448 7.84737C3.3217 10.362 2.51918 12.5689 2.41217 12.7695C2.09116 13.3848 1.12813 14.388 0.512858 14.7491C0.191847 14.9364 -0.035536 15.1504 0.00459039 15.2173C0.0447168 15.2841 1.48927 15.3376 3.2147 15.3376C5.83629 15.3376 6.34456 15.3109 6.34456 15.1504C6.34456 15.0434 6.22418 14.923 6.09042 14.8695C5.67578 14.7357 5.03376 13.9198 4.92676 13.3982C4.85988 13.0103 4.99364 12.4887 5.63566 10.683L6.43819 8.44927L7.56172 8.40914C9.47441 8.34227 10.1566 8.69003 10.3438 9.82694C10.3973 10.1078 10.4909 10.3085 10.5578 10.3085C10.6916 10.2817 12.203 6.09519 12.2164 5.7073C12.2298 5.6003 11.9087 5.82768 11.5342 6.20219C10.4642 7.2321 10.1298 7.36586 8.391 7.41936C7.17384 7.45949 6.87958 7.43274 6.89295 7.29898C6.89295 7.19198 7.30759 5.96144 7.80248 4.57039L8.71201 2.02905L11.5075 1.98892C14.1826 1.96217 14.3297 1.97555 14.9048 2.25643C15.5067 2.56407 15.7609 2.91183 15.908 3.59398C15.9481 3.80799 16.0284 3.96849 16.0953 3.96849C16.1889 3.96849 17.3124 0.932263 17.3124 0.691505C17.3124 0.651379 14.3966 0.624628 10.8253 0.624628C7.25409 0.624628 4.33824 0.651379 4.33824 0.67813Z"
      fill="#18191B"
    />
    <path
      d="M16.3226 7.19198C15.0787 10.8167 14.0354 14.0135 14.0087 14.3211C13.9284 15.0969 14.1692 15.3778 14.9316 15.3644C15.2526 15.351 15.7074 15.2841 15.9214 15.2039C16.6035 14.9497 18.3825 13.8262 18.3825 13.6389C18.3825 13.4116 18.3958 13.4116 17.5532 13.7995C16.7239 14.1873 16.4297 14.2141 16.3226 13.9198C16.229 13.6925 16.1755 13.8797 18.7704 6.32257C19.8136 3.3131 20.6563 0.811885 20.6563 0.745008C20.6563 0.67813 20.1882 0.624629 19.6264 0.624629H18.5831L16.3226 7.19198Z"
      fill="#18191B"
    />
    <path
      d="M23.4518 4.8914C22.0875 5.42642 20.8837 6.61683 20.2015 8.11488C19.1315 10.469 19.2385 12.716 20.5092 14.1606C21.9671 15.8325 25.2173 15.7656 26.8224 14.0402C27.9325 12.8498 27.9727 12.2345 26.8759 13.1173C26.0065 13.8262 25.3912 14.0536 24.3078 14.0268C23.104 14.0135 22.4887 13.6256 22.0607 12.6224C21.7531 11.86 21.8066 11.6728 22.4352 11.325C23.8664 10.5225 26.7956 8.58302 27.3039 8.08813C27.6115 7.7805 27.9325 7.36586 28.0262 7.16523C28.3873 6.28245 27.6784 5.13216 26.5816 4.79777C25.7791 4.55701 24.174 4.61051 23.4518 4.8914ZM25.9129 6.5232C26.0332 6.68371 26.1402 7.0181 26.1402 7.27223C26.1402 7.91425 25.1237 8.95754 23.2645 10.2148L21.7932 11.1912L21.7531 10.7632C21.6327 9.62631 22.4486 7.61999 23.3448 6.87097C24.281 6.08181 25.418 5.92131 25.9129 6.5232Z"
      fill="#18191B"
    />
    <path
      d="M30.1128 4.9984C30.0593 5.03853 30.2599 5.27929 30.5408 5.52004C31.1026 6.00156 31.9051 7.47286 32.7611 9.54606L33.2694 10.79L32.7478 11.539C32.0389 12.5689 30.9956 13.7058 30.5408 13.9466C30.1529 14.1338 30.1529 14.1338 30.1529 13.7459C30.1529 13.4116 30.0994 13.3447 29.6848 13.2778C28.7886 13.1039 28.1466 13.5052 28.1466 14.2275C28.1466 15.3376 29.5243 15.7255 30.7013 14.9364C31.0625 14.709 31.7446 13.9733 32.4134 13.0638C33.0286 12.2613 33.5503 11.5925 33.5904 11.5925C33.6172 11.5925 34.0452 12.4218 34.5401 13.4249L35.4496 15.2708L36.8808 15.3109C37.6699 15.3243 38.312 15.2975 38.312 15.2306C38.312 15.1637 38.0712 14.8561 37.7769 14.5351C37.282 14.0001 36.0649 11.7798 35.3694 10.1613L35.0751 9.4658L35.7706 8.46264C36.5598 7.32573 37.5228 6.24232 37.7502 6.24232C37.8304 6.24232 37.9107 6.40282 37.9374 6.60346C37.9776 6.95122 38.0311 6.97797 38.6196 7.0181C39.3686 7.0716 39.8368 6.83084 39.9705 6.32257C40.0909 5.82768 39.8368 5.33279 39.3285 5.09203C38.2986 4.59714 37.4024 5.18566 35.7037 7.47286L34.7407 8.78366L34.2592 7.74037C33.9917 7.1786 33.5904 6.3092 33.3764 5.80093L32.9751 4.90477H31.5841C30.8217 4.90477 30.1529 4.9449 30.1128 4.9984Z"
      fill="#18191B"
    />
  </svg>
