  <svg viewBox="0 0 40 16" fill="none" xmlns="http://www.w3.org/2000/svg">
    <path
      d="M4.33824 0.678115C4.33824 0.704865 4.55225 0.851995 4.80638 1.0125C5.42165 1.37364 5.80954 2.02904 5.80954 2.72456C5.80954 3.09907 5.27452 4.79776 4.20448 7.84736C3.3217 10.3619 2.51918 12.5689 2.41217 12.7695C2.09116 13.3848 1.12813 14.388 0.512858 14.7491C0.191847 14.9364 -0.035536 15.1504 0.00459039 15.2172C0.0447168 15.2841 1.48927 15.3376 3.2147 15.3376C5.83629 15.3376 6.34456 15.3109 6.34456 15.1504C6.34456 15.0434 6.22418 14.923 6.09042 14.8695C5.67578 14.7357 5.03376 13.9198 4.92676 13.3982C4.85988 13.0103 4.99364 12.4886 5.63566 10.683L6.43819 8.44926L7.56172 8.40913C9.47441 8.34225 10.1566 8.69001 10.3438 9.82693C10.3973 10.1078 10.4909 10.3084 10.5578 10.3084C10.6916 10.2817 12.203 6.09517 12.2164 5.70729C12.2298 5.60028 11.9087 5.82767 11.5342 6.20218C10.4642 7.23209 10.1298 7.36584 8.391 7.41935C7.17384 7.45947 6.87958 7.43272 6.89295 7.29897C6.89295 7.19196 7.30759 5.96142 7.80248 4.57037L8.71201 2.02904L11.5075 1.98891C14.1826 1.96216 14.3297 1.97553 14.9048 2.25642C15.5067 2.56405 15.7609 2.91182 15.908 3.59396C15.9481 3.80797 16.0284 3.96848 16.0953 3.96848C16.1889 3.96848 17.3124 0.932248 17.3124 0.69149C17.3124 0.651363 14.3966 0.624613 10.8253 0.624613C7.25409 0.624613 4.33824 0.651363 4.33824 0.678115Z"
      fill="white"
    />
    <path
      d="M16.3226 7.19195C15.0787 10.8167 14.0354 14.0134 14.0087 14.3211C13.9284 15.0968 14.1692 15.3777 14.9316 15.3644C15.2526 15.351 15.7074 15.2841 15.9214 15.2038C16.6035 14.9497 18.3825 13.8262 18.3825 13.6389C18.3825 13.4115 18.3958 13.4115 17.5532 13.7994C16.7239 14.1873 16.4297 14.2141 16.3226 13.9198C16.229 13.6924 16.1755 13.8797 18.7704 6.32254C19.8136 3.31307 20.6563 0.811854 20.6563 0.744977C20.6563 0.6781 20.1882 0.624599 19.6264 0.624599H18.5831L16.3226 7.19195Z"
      fill="white"
    />
    <path
      d="M23.4518 4.89138C22.0875 5.4264 20.8837 6.61682 20.2015 8.11487C19.1315 10.4689 19.2385 12.716 20.5092 14.1606C21.9671 15.8325 25.2173 15.7656 26.8224 14.0402C27.9325 12.8498 27.9727 12.2345 26.8759 13.1173C26.0065 13.8262 25.3912 14.0536 24.3078 14.0268C23.104 14.0134 22.4887 13.6256 22.0607 12.6224C21.7531 11.86 21.8066 11.6727 22.4352 11.325C23.8664 10.5225 26.7956 8.58301 27.3039 8.08812C27.6115 7.78048 27.9325 7.36584 28.0262 7.16521C28.3873 6.28243 27.6784 5.13214 26.5816 4.79776C25.7791 4.557 24.174 4.6105 23.4518 4.89138ZM25.9129 6.52319C26.0332 6.68369 26.1402 7.01808 26.1402 7.27221C26.1402 7.91424 25.1237 8.95752 23.2645 10.2148L21.7932 11.1912L21.7531 10.7632C21.6327 9.6263 22.4486 7.61998 23.3448 6.87095C24.281 6.0818 25.418 5.92129 25.9129 6.52319Z"
      fill="white"
    />
    <path
      d="M30.1128 4.9984C30.0593 5.03853 30.2599 5.27929 30.5408 5.52004C31.1026 6.00156 31.9051 7.47286 32.7611 9.54606L33.2694 10.79L32.7478 11.539C32.0389 12.5689 30.9956 13.7058 30.5408 13.9466C30.1529 14.1338 30.1529 14.1338 30.1529 13.7459C30.1529 13.4116 30.0994 13.3447 29.6848 13.2778C28.7886 13.1039 28.1466 13.5052 28.1466 14.2275C28.1466 15.3376 29.5243 15.7255 30.7013 14.9364C31.0625 14.709 31.7446 13.9733 32.4134 13.0638C33.0286 12.2613 33.5503 11.5925 33.5904 11.5925C33.6172 11.5925 34.0452 12.4218 34.5401 13.4249L35.4496 15.2708L36.8808 15.3109C37.6699 15.3243 38.312 15.2975 38.312 15.2306C38.312 15.1637 38.0712 14.8561 37.7769 14.5351C37.282 14.0001 36.0649 11.7798 35.3694 10.1613L35.0751 9.4658L35.7706 8.46264C36.5598 7.32573 37.5228 6.24232 37.7502 6.24232C37.8304 6.24232 37.9107 6.40282 37.9374 6.60346C37.9776 6.95122 38.0311 6.97797 38.6196 7.0181C39.3686 7.0716 39.8368 6.83084 39.9705 6.32257C40.0909 5.82768 39.8368 5.33279 39.3285 5.09203C38.2986 4.59714 37.4024 5.18566 35.7037 7.47286L34.7407 8.78366L34.2592 7.74037C33.9917 7.1786 33.5904 6.3092 33.3764 5.80093L32.9751 4.90477H31.5841C30.8217 4.90477 30.1529 4.9449 30.1128 4.9984Z"
      fill="white"
    />
  </svg>
