  <svg viewBox="0 0 40 40" fill="none" xmlns="http://www.w3.org/2000/svg">
    <path
      fill-rule="evenodd"
      clip-rule="evenodd"
      d="M40 20C40 31.0458 31.0458 40 20 40C8.9543 40 0 31.0458 0 20C0 8.9543 8.9543 0 20 0C31.0458 0 40 8.9543 40 20ZM11.14 11.1412C13.0003 9.2806 15.5235 8.23529 18.1546 8.23529H31.7648V21.8455C31.7638 27.324 27.3223 31.7647 21.8437 31.7647H8.23535V18.1563C8.23488 15.5253 9.27973 13.0018 11.14 11.1412ZM25.2553 14.5555C25.8593 13.9525 26.1984 13.1348 26.198 12.2824L26.2033 11.4438H22.7384C21.0325 11.4438 19.6224 12.7707 19.5231 14.4697V11.4438H15.722V28.1283H19.5461V21.4817H24.1895V18.2546H19.5231V15.4971H22.9773C23.8318 15.4971 24.6512 15.1584 25.2553 14.5555Z"
      fill="white"
    />
  </svg>
