  <svg viewBox="0 0 40 40" fill="none" xmlns="http://www.w3.org/2000/svg">
    <path
      d="M20 40C31.0458 40 40 31.0458 40 20C40 8.9543 31.0458 -1.75752e-06 20 -1.75752e-06C8.9543 -1.75752e-06 0 8.9543 0 20C0 31.0458 8.9543 40 20 40Z"
      fill="#0075DB"
    />
    <path
      d="M18.1536 8.23535C15.5226 8.23535 12.9993 9.28066 11.139 11.1413C9.27875 13.0019 8.2339 15.5253 8.23438 18.1564V31.7648H21.8428C27.3213 31.7648 31.7628 27.3241 31.7638 21.8455V8.23535H18.1536ZM26.197 12.2825C26.1974 13.1349 25.8583 13.9526 25.2543 14.5555C24.6503 15.1584 23.8308 15.4972 22.9763 15.4972H19.5221V18.2547H24.1885V21.4818H19.5451V28.1284H15.721V11.4439H19.5221V14.4697C19.6214 12.7708 21.0315 11.4439 22.7374 11.4439H26.2023L26.197 12.2825Z"
      fill="white"
    />
  </svg>
