  <svg viewBox="0 0 34 26" fill="none" xmlns="http://www.w3.org/2000/svg">
    <mask
      id="mask0_17500_13489"
      style="{ maskType: 'luminance' }"
      maskUnits="userSpaceOnUse"
      x="0"
      y="0"
      width="34"
      height="26"
    >
      <path d="M33.6667 0.5H0.333374V25.5H33.6667V0.5Z" fill="white" />
    </mask>
    <g mask="url(#mask0_17500_13489)">
      <path
        d="M2.60611 25.4993H7.90912V12.6207L0.333374 6.93881V23.2267C0.333374 24.4843 1.35231 25.4993 2.60611 25.4993Z"
        fill="white"
      />
      <path
        d="M26.0902 25.4993H31.3932C32.6509 25.4993 33.666 24.4805 33.666 23.2267V6.93881L26.0902 12.6207"
        fill="white"
      />
      <path
        d="M26.0902 2.77268V12.6212L33.666 6.93935V3.90905C33.666 1.09843 30.4577 -0.503838 28.2114 1.18176"
        fill="white"
      />
      <path d="M7.90991 12.6238V2.77539L17.0007 9.59357L26.0917 2.77539V12.6238L17.0007 19.442" fill="white" />
      <path
        d="M0.333374 3.90905V6.93935L7.90912 12.6212V2.77268L5.78792 1.18176C3.53792 -0.503838 0.333374 1.09843 0.333374 3.90905Z"
        fill="white"
      />
    </g>
  </svg>
