  <svg viewBox="0 0 40 40" fill="none" xmlns="http://www.w3.org/2000/svg">
    <path
      d="M4.09885 26.6933L15.1655 7.74741C16.5713 8.57499 23.6597 12.498 24.8045 13.244L13.7379 32.191C12.5276 33.79 2.56551 29.121 4.09885 26.6933Z"
      fill="white"
    />
    <path
      d="M35.896 26.693L24.8293 7.74811C23.2823 5.17339 19.95 4.23776 17.2133 5.75846C14.4765 7.27914 13.6432 10.555 15.1903 13.2447L26.257 32.1918C27.8042 34.7653 31.1363 35.701 33.873 34.1803C36.4903 32.6597 37.4432 29.2677 35.896 26.6952V26.693Z"
      fill="white"
    />
    <path
      d="M8.88854 34.9133C11.9566 34.9133 14.4437 32.4878 14.4437 29.496C14.4437 26.5042 11.9566 24.0788 8.88854 24.0788C5.82051 24.0788 3.33337 26.5042 3.33337 29.496C3.33337 32.4878 5.82051 34.9133 8.88854 34.9133Z"
      fill="white"
    />
  </svg>
