<svg viewBox="0 0 40 40" fill="none" xmlns="http://www.w3.org/2000/svg">

<path d="M28.7159 7.34301H24.5361L24.5498 8.82071C23.1961 7.47258 21.5286 7 19.813 7C17.4757 7 15.234 7.91287 13.5813 9.53781C11.9285 11.1627 11 13.3666 11 15.6646C11 17.9626 11.9285 20.1665 13.5813 21.7914C15.234 23.4164 17.4757 24.3292 19.813 24.3292C21.8417 24.3292 23.5777 23.4455 24.4721 22.3213C24.4721 22.3894 24.466 23.2066 24.4637 23.2949C24.4469 23.8537 24.3647 24.7486 23.8291 25.6632C23.5152 26.1846 23.0983 26.6392 22.6029 26.9998C22.1074 27.3604 21.5436 27.6199 20.9445 27.7626C20.3455 27.9055 19.7234 27.9291 19.115 27.8317C18.5066 27.7344 17.9241 27.5183 17.402 27.1963L15.3231 30.7537C16.6888 31.5681 18.2554 31.9992 19.8526 32C22.1654 32 25.0495 31.1012 27.0949 28.3144C28.7959 25.9986 28.7159 23.811 28.7159 21.6929V7.34301ZM19.813 20.219C18.8968 20.219 18.001 19.9519 17.2392 19.4514C16.4773 18.951 15.8834 18.2396 15.5327 17.4074C15.182 16.5751 15.0902 15.6593 15.2688 14.7758C15.4474 13.8922 15.8886 13.0806 16.5364 12.4434C17.1842 11.8063 18.0096 11.3724 18.9082 11.1965C19.8068 11.0205 20.7384 11.1105 21.585 11.4551C22.4316 11.7996 23.1553 12.3832 23.6646 13.1321C24.1739 13.881 24.4459 14.7615 24.4462 15.6624C24.4454 16.8704 23.957 18.0287 23.0883 18.883C22.2197 19.7373 21.0417 20.2178 19.813 20.219Z" fill="white"/>

</svg>
