  <svg viewBox="0 0 40 40" fill="none" xmlns="http://www.w3.org/2000/svg">
    <path
      d="M18.905 30.167C19.0017 30.2496 19.105 30.3322 19.2067 30.4132C17.245 31.733 14.89 32.5 12.3617 32.5C5.53333 32.5017 0 26.9053 0 20.0008C0 13.0981 5.53333 7.5 12.36 7.5C14.89 7.5 17.245 8.26866 19.2017 9.58684C19.1017 9.67281 19.0017 9.75204 18.9267 9.83969C16 12.3968 14.325 16.1036 14.325 20.0008C14.325 23.8964 15.9933 27.6032 18.905 30.167ZM27.64 7.5C25.1067 7.5 22.755 8.26866 20.7983 9.58684C20.8983 9.67281 20.9983 9.75204 21.0733 9.83969C24 12.3968 25.675 16.1036 25.675 20.0008C25.675 23.8947 24.0067 27.5981 21.095 30.167C20.9983 30.2496 20.895 30.3322 20.7933 30.4132C22.755 31.733 25.1067 32.5 27.6383 32.5C34.4667 32.5017 40 26.9053 40 20.0008C40 13.0998 34.4667 7.5 27.64 7.5ZM20 10.1802C19.84 10.3066 19.685 10.433 19.5333 10.5696C16.9267 12.8604 15.2817 16.2334 15.2817 20.0008C15.2817 23.77 16.9267 27.1413 19.5333 29.4321C19.6833 29.567 19.8417 29.6984 20 29.8232C20.16 29.6984 20.315 29.567 20.4667 29.4321C23.0717 27.1413 24.7183 23.77 24.7183 20.0008C24.7183 16.2334 23.0733 12.8604 20.4667 10.5696C20.3167 10.4347 20.16 10.3066 20 10.1802Z"
      fill="white"
    />
  </svg>
