  <svg viewBox="0 0 40 40" fill="none" xmlns="http://www.w3.org/2000/svg">
    <g clip-path="url(#clip0_8328_1250)">
      <path
        d="M26.9401 16.74C26.6001 16.37 26.1801 16.08 25.6901 15.86C25.2001 15.65 24.6401 15.54 24.0401 15.54C23.4401 15.54 22.8801 15.65 22.3901 15.86C21.9001 16.07 21.4801 16.37 21.1401 16.74C20.8001 17.11 20.5401 17.56 20.3501 18.08C20.1601 18.6 20.0701 19.18 20.0701 19.79C20.0701 20.4 20.1601 20.98 20.3501 21.5C20.5401 22.02 20.8001 22.47 21.1401 22.84C21.4801 23.21 21.9001 23.5 22.3901 23.72C22.8801 23.93 23.4301 24.04 24.0401 24.04C24.6501 24.04 25.2001 23.93 25.6901 23.72C26.1801 23.51 26.6001 23.21 26.9401 22.84C27.2801 22.47 27.5401 22.02 27.7301 21.5C27.9201 20.98 28.0101 20.4 28.0101 19.79C28.0101 19.18 27.9201 18.6 27.7301 18.08C27.5401 17.56 27.2801 17.11 26.9401 16.74Z"
        fill="white"
      />
      <path
        d="M20 0C8.95 0 0 8.95 0 20C0 31.05 8.95 40 20 40C31.05 40 40 31.05 40 20C40 8.95 31.05 0 20 0ZM14.6 26.46C14.6 26.61 14.48 26.72 14.33 26.72H11.51C11.36 26.72 11.24 26.6 11.24 26.46V13.12C11.24 12.98 11.36 12.86 11.51 12.86H14.33C14.48 12.86 14.6 12.98 14.6 13.12V26.46ZM15.13 10.99C15.04 11.12 14.88 11.19 14.71 11.19H11.12C10.96 11.19 10.8 11.12 10.7 10.99C10.55 10.79 10.57 10.54 10.72 10.37L12.46 8.44C12.64 8.25 12.93 8.18 13.19 8.32C13.25 8.35 13.3 8.4 13.35 8.45L15.09 10.37C15.25 10.54 15.26 10.79 15.12 10.99H15.13ZM26.23 29.64L24.49 31.57C24.31 31.76 24.02 31.83 23.76 31.69C23.7 31.66 23.65 31.61 23.6 31.56L21.86 29.64C21.7 29.47 21.69 29.22 21.84 29.02C21.93 28.89 22.09 28.82 22.26 28.82H25.85C26.01 28.82 26.17 28.89 26.27 29.02C26.41 29.22 26.4 29.47 26.24 29.64H26.23ZM30.83 22.67C30.45 23.56 29.93 24.34 29.27 25C28.61 25.66 27.83 26.18 26.94 26.56C26.05 26.94 25.08 27.14 24.05 27.14C23.02 27.14 22.05 26.95 21.16 26.56C20.27 26.18 19.48 25.65 18.83 25C18.17 24.34 17.65 23.56 17.27 22.67C16.89 21.78 16.7 20.81 16.7 19.79C16.7 18.77 16.89 17.81 17.27 16.93C17.65 16.05 18.17 15.26 18.83 14.6C19.49 13.93 20.27 13.4 21.16 13.02C22.05 12.64 23.02 12.44 24.05 12.44C25.08 12.44 26.05 12.63 26.94 13.02C27.83 13.4 28.61 13.93 29.27 14.6C29.93 15.27 30.45 16.05 30.83 16.93C31.21 17.81 31.4 18.77 31.4 19.79C31.4 20.81 31.21 21.78 30.83 22.67Z"
        fill="white"
      />
    </g>
    <defs>
      <clipPath id="clip0_8328_1250">
        <rect width="40" height="40" fill="white" />
      </clipPath>
    </defs>
  </svg>
