  <svg xmlns="http://www.w3.org/2000/svg" fill="none" viewBox="0 0 40 40">
    <rect width="40" height="40" fill="#7849FF" rx="20" />
    <g clip-path="url(#clip_melio_icon">
      <path
        fill="#fff"
        fill-rule="evenodd"
        d="M11.368 7.08a.658.658 0 0 1 .174.141l1.92 2.126c.172.191.19.466.03.685a.569.569 0 0 1-.46.218H9.065a.57.57 0 0 1-.459-.216.533.533 0 0 1 .028-.687l1.925-2.131a.664.664 0 0 1 .808-.135Zm-1.877 5.027h3.115c.166 0 .3.13.3.29v14.741c0 .16-.134.29-.3.29H9.491c-.166 0-.3-.13-.3-.29v-14.74c0-.16.134-.29.3-.29ZM25.335 29.75H21.37a.567.567 0 0 0-.46.216.533.533 0 0 0 .028.687l1.92 2.126a.664.664 0 0 0 .982.005l1.925-2.13a.534.534 0 0 0 .031-.686.568.568 0 0 0-.461-.218Zm3.79-15.724a8.3 8.3 0 0 1 1.723 2.577c.418.975.629 2.038.629 3.164a8.105 8.105 0 0 1-2.353 5.76 8.238 8.238 0 0 1-2.579 1.73 8.052 8.052 0 0 1-3.193.636 8.053 8.053 0 0 1-3.193-.637 8.222 8.222 0 0 1-2.58-1.73 8.105 8.105 0 0 1-2.353-5.76c.001-1.125.212-2.188.63-3.163a8.28 8.28 0 0 1 1.724-2.577 8.053 8.053 0 0 1 5.772-2.383 8.052 8.052 0 0 1 5.772 2.383Zm-9.849 3.847a5.636 5.636 0 0 0-.31 1.894c0 .682.104 1.32.31 1.895.205.576.499 1.074.872 1.48.373.406.836.732 1.378.968.54.236 1.154.356 1.826.356.673 0 1.286-.12 1.827-.356a4.026 4.026 0 0 0 1.377-.967c.372-.406.666-.905.872-1.481.206-.577.31-1.215.31-1.895 0-.68-.105-1.317-.31-1.894a4.325 4.325 0 0 0-.872-1.481 4.044 4.044 0 0 0-1.377-.968c-.542-.237-1.156-.356-1.827-.356-.67 0-1.285.12-1.826.356a4.053 4.053 0 0 0-1.378.968 4.29 4.29 0 0 0-.872 1.48Z"
        clip-rule="evenodd"
      />
    </g>
    <defs>
      <clipPath id="clip_melio_icon">
        <path fill="#fff" d="M7 7h26v26H7z" />
      </clipPath>
    </defs>
  </svg>
