<svg viewBox="0 0 40 40" fill="none" xmlns="http://www.w3.org/2000/svg">
<path d="M34.5832 12.9455C34.5832 11.1846 33.4763 9.61378 31.8179 9.02153L7.64371 0.387964C6.55834 0.000322551 5.4165 0.804985 5.4165 1.95753V15.0847C5.4165 15.789 5.8593 16.4173 6.52263 16.6542L17.356 20.5233C18.4413 20.9109 19.5832 20.1062 19.5832 18.9537V11.4162C19.5832 10.834 20.1651 10.4312 20.71 10.6362L23.5508 11.7053C25.1746 12.3165 26.2498 13.8699 26.2498 15.605V18.8874L14.0112 23.3592C13.3538 23.5994 12.9165 24.2247 12.9165 24.9246V38.0424C12.9165 39.2001 14.0678 40.0052 15.1552 39.6078L31.8465 33.509C33.49 32.9085 34.5832 31.3452 34.5832 29.5955L34.5832 12.9455Z" fill="white"/>
</svg>
