<svg xmlns="http://www.w3.org/2000/svg" viewBox="0 0 24 24">
  <path fill="#0063a4" d="M15.37,21.87c-5.07,0-9.17-4.11-9.17-9.17,0,0,0,0,0-.03.02-.98.25-1.91.66-2.74,0-.01.07-.15.19-.35.57-1,1.39-1.83,2.38-2.41.47-.28,1.02-.52,1.64-.67,0,0,.75-.2,1.62-.2h0c2.88-.03,5.33,1.88,6.17,4.48,0,.01.09.27.13.45h0c.81-1.14,1.29-2.54,1.29-4.05,0-3.31-2.3-6.08-5.39-6.81h0c-.93-.23-1.9-.35-2.9-.35C5.37,0,0,5.37,0,12c0,6.63,5.37,12,12,12,3.58,0,6.8-1.57,8.99-4.06-1.55,1.21-3.5,1.92-5.62,1.92h0Z"/>
  <path fill="#00aae7" d="M23.47,9.28c.02.21.02.42.02.63,0,4.7-3.81,8.51-8.51,8.51-3.58,0-6.64-2.21-7.9-5.33.42,4.29,4.04,7.64,8.44,7.64,4.68,0,8.48-3.8,8.48-8.48,0-1.05-.19-2.05-.54-2.97h0ZM20.45,2.98c.81,1.34,1.28,2.92,1.28,4.6,0,4.91-3.98,8.89-8.89,8.89-.87,0-1.71-.12-2.5-.36,1.21.68,2.61,1.07,4.09,1.07,4.62,0,8.37-3.75,8.37-8.37,0-2.26-.9-4.32-2.36-5.83h0Z"/>
</svg>