<svg viewBox="0 0 40 40" fill="none" xmlns="http://www.w3.org/2000/svg">
<path d="M39.9983 40H-0.00170898V0H39.9983V40ZM19.5735 19.873C18.8669 19.873 18.3018 20.0314 17.8918 20.3447C17.4786 20.6614 17.2688 21.098 17.2688 21.6445C17.2688 22.0278 17.3989 22.3677 17.6555 22.6543C17.9138 22.9309 18.339 23.1865 18.9172 23.4131L19.6018 23.6797C20.0433 23.8496 20.3522 24.0158 20.5188 24.1758C20.6803 24.3307 20.7619 24.5308 20.762 24.7705C20.762 25.1005 20.6283 25.3524 20.3567 25.5391C20.0884 25.7274 19.7051 25.8242 19.2219 25.8242C18.6387 25.8242 18.0168 25.691 17.3752 25.4277L17.3088 25.4004V26.2324L17.3352 26.2461C17.4868 26.3194 17.6718 26.386 17.885 26.4443C18.1 26.5043 18.3321 26.5519 18.5754 26.5869C18.8237 26.6219 19.0657 26.6406 19.2922 26.6406C20.0403 26.6406 20.6303 26.4753 21.0452 26.1504C21.4698 25.8172 21.6847 25.3459 21.6848 24.7529C21.6848 24.3397 21.5512 23.983 21.2913 23.6914H21.2883C21.0367 23.3964 20.6047 23.1298 20.0081 22.8965L19.3254 22.6299C18.9006 22.4599 18.6005 22.2994 18.4338 22.1494C18.2705 22.0044 18.1917 21.8326 18.1917 21.626C18.1918 20.9962 18.6506 20.6895 19.592 20.6895C20.0919 20.6895 20.6467 20.8196 21.2415 21.0762L21.3098 21.1064V20.2744L21.2844 20.2617C21.0628 20.1418 20.7932 20.0464 20.4817 19.9814C20.1717 19.9098 19.8668 19.8731 19.5735 19.873ZM22.3645 21.7998V24.7178C22.3645 25.331 22.5092 25.8084 22.7942 26.1367C23.0875 26.465 23.5029 26.6328 24.0295 26.6328C24.3728 26.6328 24.6947 26.5531 24.9846 26.3965C25.2462 26.2582 25.4713 26.0626 25.6545 25.8193L25.7825 26.5361H26.4143V21.8037H25.5178V24.8594C25.3962 25.166 25.2141 25.4169 24.9758 25.6035C24.7427 25.7849 24.4912 25.8778 24.2249 25.8779C23.9099 25.8779 23.668 25.7762 23.5081 25.5762C23.3448 25.3729 23.261 25.0747 23.261 24.6914V21.7998H22.3645ZM11.3665 21.7021C10.6865 21.7021 10.1544 21.9107 9.78442 22.3223C9.41283 22.7438 9.23954 23.3156 9.2395 24.1221C9.2395 24.9287 9.43112 25.5659 9.81274 25.9941C10.1994 26.4174 10.773 26.6318 11.5178 26.6318C11.8444 26.6318 12.1494 26.602 12.426 26.542C12.7092 26.482 12.9377 26.3992 13.1077 26.2959L13.1311 26.2803V25.502L13.0627 25.5342C12.8194 25.6442 12.5773 25.7276 12.344 25.7793C12.1109 25.8309 11.8612 25.8574 11.5999 25.8574C11.1349 25.8574 10.7807 25.7423 10.5491 25.5156C10.3242 25.2906 10.1896 24.932 10.1497 24.4521H13.3528V23.8887C13.3527 22.4357 12.6839 21.6992 11.3674 21.6992L11.3665 21.7021ZM34.6819 21.7021C34.002 21.7021 33.4698 21.9106 33.0999 22.3223C32.7283 22.7439 32.555 23.3156 32.5549 24.1221C32.5549 24.9287 32.7463 25.5659 33.1262 25.9941C33.5128 26.4174 34.0865 26.6318 34.8313 26.6318C35.1578 26.6318 35.4629 26.6019 35.7395 26.542C36.0228 26.482 36.2512 26.3982 36.4211 26.2949L36.4446 26.2803V25.502L36.3762 25.5342C36.1331 25.644 35.8915 25.7267 35.6584 25.7783C35.4252 25.83 35.1749 25.8574 34.9133 25.8574C34.4485 25.8574 34.0952 25.7421 33.8635 25.5156C33.6385 25.2906 33.5031 24.9321 33.4631 24.4521H36.6663V23.8926C36.6663 22.4395 35.9982 21.7023 34.6819 21.7021ZM14.7981 20.5205L14.4768 21.792L13.6702 22.0605V22.5527H14.47V25.0703C14.47 25.5786 14.582 25.9601 14.802 26.2051C15.0303 26.4516 15.3833 26.5752 15.8499 26.5752C15.9447 26.5752 16.0362 26.5724 16.1194 26.5674C16.2094 26.5607 16.2984 26.5486 16.385 26.5303L16.4231 26.5215V25.7354L16.3694 25.7402C16.3096 25.7469 16.2431 25.755 16.175 25.7666L16.1731 25.7705C16.1098 25.7772 16.0412 25.7783 15.9729 25.7783C15.5631 25.7782 15.3645 25.545 15.3645 25.0635V22.5537H16.3684V21.7988H15.3645V20.5205H14.7981ZM30.4495 20.5205L30.1272 21.792L29.3196 22.0605V22.5527H30.1194V25.0703C30.1194 25.5784 30.2309 25.9601 30.4524 26.2051C30.6807 26.4517 31.0346 26.5752 31.5012 26.5752C31.596 26.5752 31.6876 26.5724 31.7708 26.5674C31.8606 26.5607 31.9489 26.5486 32.0354 26.5303L32.0745 26.5215V25.7354L32.0208 25.7402C31.9608 25.7469 31.8937 25.7549 31.8254 25.7666L31.8245 25.7705C31.7612 25.7772 31.6926 25.7783 31.6243 25.7783C31.2143 25.7783 31.0159 25.5451 31.0159 25.0635V22.5537H32.0188V21.7988H31.0159V20.5205H30.4495ZM27.2815 21.8037V22.207L27.7434 22.5V26.5361H28.6399V21.8037H27.2815ZM3.33228 19.9805V26.5352H4.24731V21.5469L7.59497 26.5127L7.6106 26.5352H8.46509V19.9805H7.552V24.9688L4.20337 20.002L4.18872 19.9805H3.33228ZM11.3665 22.4561C11.7645 22.4561 12.0497 22.5572 12.218 22.7588C12.3863 22.9554 12.474 23.2809 12.4807 23.7275H10.1477C10.176 23.3226 10.2916 23.0092 10.4866 22.7959C10.6949 22.571 10.9916 22.4561 11.3665 22.4561ZM34.6819 22.4561C35.08 22.4561 35.3652 22.5572 35.5334 22.7588C35.7018 22.9554 35.7895 23.2809 35.7961 23.7275H33.4631C33.4915 23.3226 33.607 23.0092 33.802 22.7959C34.0103 22.571 34.307 22.4561 34.6819 22.4561ZM27.5549 20.2637V21.0801H28.6301V20.2637H27.5549ZM8.33521 14.5693V17.542H8.90649V15.0957H10.7981C11.0647 15.0957 11.2795 15.3112 11.2795 15.5762C11.2794 15.841 11.0646 16.0596 10.7981 16.0596H9.18872L10.8967 17.5439H11.7249L10.5803 16.582H10.8401L10.9417 16.5742C11.4507 16.5227 11.843 16.0944 11.843 15.5742C11.843 15.0193 11.3945 14.5693 10.8362 14.5693H8.33521ZM24.3137 14.5713C23.4938 14.5713 22.8284 15.2363 22.8284 16.0596C22.8286 16.8826 23.4939 17.5439 24.3137 17.5439H26.0784L26.4133 17.0205H24.3538V17.0176C23.9138 17.0176 23.5437 16.7207 23.427 16.3174H25.8684L26.2053 15.7939H23.425C23.5401 15.3874 23.9103 15.0947 24.3518 15.0947H26.0286L26.3635 14.5713H24.3137ZM4.82056 14.5693C3.99731 14.5693 3.33228 15.2327 3.33228 16.0576C3.33232 16.8825 3.99733 17.542 4.82056 17.542L4.82251 17.541H6.55005C7.37163 17.541 8.03345 16.8756 8.03345 16.0557C8.03334 15.2359 7.37023 14.5694 6.54712 14.5693H4.82056ZM14.0149 14.541C13.8716 14.541 13.738 14.6096 13.6614 14.7246L11.8596 17.542H12.5344L14.0129 15.1963L14.8176 16.4941H13.2942L13.2961 16.4961L13.6331 17.0195H15.178L15.4944 17.542H16.1672L14.3625 14.7197C14.2843 14.6082 14.1581 14.5411 14.0149 14.541ZM19.719 14.5693V17.2588C19.719 17.3321 19.7506 17.4044 19.804 17.4561C19.8573 17.5126 19.9344 17.542 20.011 17.542H22.6155L22.9553 17.0195H20.2903V14.5693H19.719ZM17.3645 14.5674C16.543 14.5674 15.8763 15.2325 15.8762 16.0557C15.8762 16.8789 16.5429 17.541 17.3645 17.541H19.1252L19.4602 17.0176H17.4026C16.8676 17.0176 16.4377 16.5856 16.4377 16.0557C16.4379 15.5258 16.8677 15.0947 17.4026 15.0947H19.0774L19.4172 14.5674H17.3645ZM6.50903 15.0947C7.04039 15.0949 7.47377 15.5243 7.47388 16.0557C7.47388 16.5871 7.04379 17.0174 6.50903 17.0176H4.85864C4.3271 17.0175 3.89771 16.5856 3.89771 16.0557C3.89781 15.5259 4.32716 15.0948 4.85864 15.0947H6.50903Z" fill="white"/>
</svg>
