<svg viewBox="0 0 40 40" fill="none" xmlns="http://www.w3.org/2000/svg">

<rect x="-0.00195312" width="40" height="40" fill="#403C38"/>
<path d="M19.5735 19.873C19.8668 19.873 20.1718 19.9098 20.4817 19.9814C20.7933 20.0464 21.0638 20.1417 21.2854 20.2617L21.3098 20.2744V21.1064L21.2415 21.0762C20.6467 20.8196 20.0919 20.6895 19.592 20.6895C18.6506 20.6895 18.1918 20.9962 18.1917 21.626C18.1917 21.8326 18.2705 22.0044 18.4338 22.1494C18.6005 22.2994 18.9005 22.4599 19.3254 22.6299L20.0081 22.8965C20.6047 23.1298 21.0367 23.3964 21.2883 23.6914H21.2913C21.5512 23.983 21.6848 24.3396 21.6848 24.7529C21.6847 25.3459 21.4699 25.8172 21.0452 26.1504C20.6303 26.4753 20.0403 26.6406 19.2922 26.6406C19.0656 26.6406 18.8237 26.6219 18.5754 26.5869C18.3321 26.5519 18.1 26.5043 17.885 26.4443C17.6718 26.386 17.4868 26.3194 17.3352 26.2461L17.3088 26.2324V25.4004L17.3752 25.4277C18.0168 25.691 18.6387 25.8242 19.2219 25.8242C19.7052 25.8242 20.0884 25.7274 20.3567 25.5391C20.6283 25.3524 20.762 25.1005 20.762 24.7705C20.7619 24.5307 20.6803 24.3307 20.5188 24.1758C20.3522 24.0158 20.0434 23.8497 19.6018 23.6797L18.9172 23.4131C18.339 23.1864 17.9138 22.9309 17.6555 22.6543C17.3989 22.3677 17.2688 22.0278 17.2688 21.6445C17.2688 21.098 17.4787 20.6613 17.8918 20.3447C18.3018 20.0314 18.8669 19.8731 19.5735 19.873Z" fill="white"/>
<path d="M23.261 24.6914C23.261 25.0746 23.3448 25.3729 23.5081 25.5762C23.668 25.7762 23.9099 25.8779 24.2249 25.8779C24.4912 25.8779 24.7427 25.7849 24.9758 25.6035C25.2141 25.4169 25.3962 25.166 25.5178 24.8594V21.8037H26.4143V26.5361H25.7825L25.6545 25.8193C25.4712 26.0626 25.2463 26.2582 24.9846 26.3965C24.6947 26.5531 24.3728 26.6328 24.0295 26.6328C23.5032 26.6328 23.0884 26.4647 22.7952 26.1367C22.5102 25.8084 22.3645 25.331 22.3645 24.7178V21.7998H23.261V24.6914Z" fill="white"/>
<path fill-rule="evenodd" clip-rule="evenodd" d="M11.3684 21.6992C12.6845 21.6994 13.3527 22.4359 13.3528 23.8887V24.4521H10.1497C10.1897 24.9321 10.3251 25.2906 10.55 25.5156C10.7817 25.7421 11.1351 25.8574 11.5999 25.8574C11.8614 25.8574 12.1117 25.8309 12.345 25.7793C12.5781 25.7276 12.8196 25.6441 13.0627 25.5342L13.1311 25.502V26.2803L13.1077 26.2959C12.9377 26.3991 12.7092 26.482 12.426 26.542C12.1494 26.602 11.8444 26.6318 11.5178 26.6318C10.773 26.6318 10.1994 26.4174 9.81274 25.9941C9.43112 25.5659 9.2395 24.9287 9.2395 24.1221C9.23954 23.3156 9.41286 22.7438 9.78442 22.3223C10.1544 21.9106 10.6865 21.7021 11.3665 21.7021L11.3684 21.6992ZM11.3665 22.4561C10.9915 22.4561 10.6949 22.5709 10.4866 22.7959C10.2916 23.0092 10.176 23.3226 10.1477 23.7275H12.4807C12.474 23.2809 12.3863 22.9554 12.218 22.7588C12.0497 22.5572 11.7646 22.4561 11.3665 22.4561Z" fill="white"/>
<path fill-rule="evenodd" clip-rule="evenodd" d="M34.6819 21.7021C35.9983 21.7022 36.6663 22.4395 36.6663 23.8926V24.4521H33.4631C33.5031 24.9321 33.6385 25.2906 33.8635 25.5156C34.0952 25.7422 34.4485 25.8574 34.9133 25.8574C35.175 25.8574 35.4251 25.83 35.6584 25.7783C35.8915 25.7267 36.1331 25.644 36.3762 25.5342L36.4446 25.502V26.2803L36.4211 26.2949C36.2512 26.3982 36.0228 26.482 35.7395 26.542C35.463 26.6019 35.1578 26.6318 34.8313 26.6318C34.0868 26.6318 33.5138 26.4171 33.1272 25.9941C32.7472 25.5659 32.5549 24.9287 32.5549 24.1221C32.555 23.3156 32.7283 22.7439 33.0999 22.3223C33.4698 21.9106 34.002 21.7021 34.6819 21.7021ZM34.6819 22.4561C34.3069 22.4561 34.0103 22.5709 33.802 22.7959C33.607 23.0092 33.4915 23.3226 33.4631 23.7275H35.7961C35.7895 23.2809 35.7018 22.9554 35.5334 22.7588C35.3651 22.5572 35.08 22.4561 34.6819 22.4561Z" fill="white"/>
<path d="M15.3655 21.7988H16.3684V22.5537H15.3655V25.0635C15.3655 25.545 15.5632 25.7782 15.9729 25.7783C16.0412 25.7783 16.1098 25.7772 16.1731 25.7705L16.175 25.7666C16.2433 25.755 16.3104 25.7469 16.3704 25.7402L16.4231 25.7354V26.5215L16.385 26.5303C16.2985 26.5486 16.2102 26.5607 16.1204 26.5674C16.037 26.5724 15.9448 26.5752 15.8499 26.5752C15.3833 26.5752 15.0303 26.4517 14.802 26.2051C14.582 25.9601 14.47 25.5786 14.47 25.0703V22.5527H13.6702V22.0605L14.4768 21.792L14.7981 20.5205H15.3655V21.7988Z" fill="white"/>
<path d="M31.0159 21.7988H32.0198V22.5537H31.0159V25.0635C31.0159 25.5451 31.2144 25.7783 31.6243 25.7783C31.6926 25.7783 31.7611 25.7772 31.8245 25.7705L31.8264 25.7666C31.8945 25.755 31.961 25.7469 32.0208 25.7402L32.0745 25.7354V26.5215L32.0364 26.5303C31.9497 26.5486 31.8607 26.5607 31.7708 26.5674C31.6876 26.5724 31.596 26.5752 31.5012 26.5752C31.0346 26.5752 30.6807 26.4517 30.4524 26.2051C30.2309 25.9601 30.1194 25.5784 30.1194 25.0703V22.5527H29.3196V22.0605L30.1282 21.792L30.4495 20.5205H31.0159V21.7988Z" fill="white"/>
<path d="M28.6399 26.5361H27.7434V22.5L27.2815 22.207V21.8037H28.6399V26.5361Z" fill="white"/>
<path d="M4.20435 20.002L7.552 24.9688V19.9805H8.46509V26.5352H7.6106L7.59497 26.5127L4.24731 21.5469V26.5352H3.33228V19.9805H4.18872L4.20435 20.002Z" fill="white"/>
<path d="M28.6301 21.0801H27.5549V20.2637H28.6301V21.0801Z" fill="white"/>
<path d="M10.8362 14.5693C11.3945 14.5693 11.843 15.0193 11.843 15.5742C11.843 16.0944 11.4507 16.5227 10.9417 16.5742L10.8401 16.582H10.5803L11.7249 17.5439H10.8967L9.18872 16.0596H10.7981C11.0646 16.0596 11.2794 15.841 11.2795 15.5762C11.2795 15.3112 11.0647 15.0957 10.7981 15.0957H8.90649V17.542H8.33521V14.5693H10.8362Z" fill="white"/>
<path d="M26.0286 15.0947H24.3518C23.9103 15.0947 23.5401 15.3874 23.425 15.7939H26.2053L25.8684 16.3174H23.427C23.5437 16.7207 23.9138 17.0176 24.3538 17.0176V17.0205H26.4133L26.0784 17.5439H24.3137C23.4939 17.5439 22.8286 16.8826 22.8284 16.0596C22.8284 15.2363 23.4938 14.5713 24.3137 14.5713H26.3635L26.0286 15.0947Z" fill="white"/>
<path fill-rule="evenodd" clip-rule="evenodd" d="M6.54712 14.5693C7.37023 14.5694 8.03334 15.2359 8.03345 16.0557C8.03345 16.8756 7.37163 17.541 6.55005 17.541H4.82251L4.82056 17.542C3.99733 17.542 3.33232 16.8825 3.33228 16.0576C3.33228 15.2327 3.99731 14.5693 4.82056 14.5693H6.54712ZM4.85864 15.0947C4.32716 15.0948 3.89781 15.5259 3.89771 16.0557C3.89771 16.5856 4.3271 17.0175 4.85864 17.0176H6.50903C7.04379 17.0174 7.47388 16.5871 7.47388 16.0557C7.47377 15.5243 7.04039 15.0949 6.50903 15.0947H4.85864Z" fill="white"/>
<path d="M14.0149 14.541C14.1581 14.5411 14.2843 14.6082 14.3625 14.7197L16.1672 17.542H15.4944L15.178 17.0195H13.6331L13.2961 16.4961L13.2942 16.4941H14.8176L14.0129 15.1963L12.5344 17.542H11.8596L13.6614 14.7246C13.738 14.6096 13.8716 14.541 14.0149 14.541Z" fill="white"/>
<path d="M20.2903 17.0195H22.9553L22.6155 17.542H20.011C19.9344 17.542 19.8573 17.5126 19.804 17.4561C19.7506 17.4044 19.719 17.3321 19.719 17.2588V14.5693H20.2903V17.0195Z" fill="white"/>
<path d="M19.0774 15.0947H17.4026C16.8677 15.0947 16.4379 15.5258 16.4377 16.0557C16.4377 16.5856 16.8676 17.0176 17.4026 17.0176H19.4602L19.1252 17.541H17.3645C16.5429 17.541 15.8762 16.8789 15.8762 16.0557C15.8763 15.2325 16.543 14.5674 17.3645 14.5674H19.4172L19.0774 15.0947Z" fill="white"/>

</svg>
