<svg viewBox="0 0 40 40" fill="none" xmlns="http://www.w3.org/2000/svg">
<path fill-rule="evenodd" clip-rule="evenodd" d="M16.7454 10.2797C16.4892 10.4984 16.3201 10.8016 16.2688 11.1342L14.3847 23.0477L12.6332 34.1421H5.65712C5.51689 34.1419 5.37837 34.1114 5.25107 34.0527C5.12378 33.994 5.01074 33.9084 4.91974 33.8019C4.82873 33.6954 4.76192 33.5704 4.72389 33.4357C4.68586 33.3009 4.67752 33.1595 4.69944 33.0213L9.40595 3.2376C9.52883 2.45227 10.207 1.875 11.0021 1.875H22.3016C26.1938 1.875 29.2355 2.69521 30.9208 4.61103C32.4495 6.35127 32.8964 8.27311 32.4531 11.0957C32.2623 10.9953 32.0636 10.9017 31.8568 10.8149C32.0589 10.9002 32.2574 10.9939 32.4519 11.0957C32.4435 11.1495 32.4349 11.2035 32.4259 11.2579C32.4349 11.2036 32.4437 11.1495 32.4521 11.0957C33.0595 11.4076 33.6048 11.8274 34.0615 12.3345C35.5022 13.9737 35.7841 16.3044 35.2396 19.0958C33.9362 25.7777 29.4766 28.0868 23.7799 28.0868H22.9005C22.2042 28.0868 21.6116 28.5919 21.5031 29.2798L21.4321 29.6647L20.325 36.6785L20.2672 36.9768C20.1576 37.6623 19.5661 38.1674 18.8698 38.1674H12.99C12.8674 38.1674 12.7464 38.1408 12.6351 38.0895C12.5238 38.0383 12.425 37.9636 12.3454 37.8705C12.2659 37.7775 12.2074 37.6683 12.1742 37.5506C12.1409 37.4328 12.1336 37.3093 12.1528 37.1885L12.6334 34.1421L14.3307 23.3953C14.4077 22.9088 14.6951 22.502 15.0924 22.2632C15.2972 22.1404 15.5274 22.0643 15.7661 22.0413C15.8175 22.0364 15.8695 22.0338 15.9221 22.0338H19.2372C25.7483 22.0338 30.8463 19.3952 32.3364 11.7572L32.3432 11.7216L32.3363 11.7572C30.8461 19.394 25.7481 22.0338 19.2371 22.0338H15.9219C15.8697 22.0338 15.8177 22.0363 15.7661 22.0413C15.5221 22.0647 15.2932 22.1425 15.0924 22.2632C15.0157 22.3092 14.9426 22.3617 14.8739 22.4205C14.5829 22.6694 14.3905 23.0137 14.3311 23.3915L14.3848 23.0477L16.2688 11.1342C16.3206 10.8017 16.4898 10.4986 16.7459 10.2798C16.8378 10.2013 16.9388 10.1354 17.0461 10.0833C16.9386 10.1353 16.8375 10.2011 16.7454 10.2797ZM28.3935 10.0236C28.6794 10.0508 28.9648 10.0847 29.2493 10.1252C28.9718 10.0844 28.6864 10.0506 28.3935 10.0236ZM31.1884 10.5671C31.2012 10.5713 31.214 10.5755 31.2268 10.5798C31.2549 10.5889 31.2828 10.5982 31.3108 10.6076C31.2833 10.5983 31.2557 10.589 31.228 10.5798C31.2148 10.5755 31.2016 10.5713 31.1884 10.5671Z" fill="white"/>
</svg>
