<svg width="24" height="24" viewBox="0 0 24 24" fill="none" xmlns="http://www.w3.org/2000/svg">
<path d="M20.6362 8.76937C20.1329 8.12244 19.4845 7.60285 18.7434 7.2525C18.6798 5.90459 18.0996 4.63293 17.1233 3.70144C16.1469 2.76996 14.8494 2.25019 13.5 2.25H7.875C7.54051 2.25005 7.21563 2.3619 6.952 2.56778C6.68837 2.77365 6.50112 3.06174 6.42 3.38625L3.045 16.8862C2.98973 17.1074 2.98558 17.3382 3.03286 17.5612C3.08014 17.7841 3.17761 17.9934 3.31787 18.173C3.45813 18.3527 3.63748 18.498 3.84232 18.598C4.04715 18.698 4.27207 18.75 4.5 18.75H7.07813L6.79688 19.8862C6.74164 20.1072 6.73746 20.3379 6.78463 20.5607C6.83181 20.7835 6.92912 20.9927 7.06917 21.1723C7.20921 21.3519 7.38833 21.4973 7.59293 21.5974C7.79753 21.6975 8.02223 21.7497 8.25 21.75H11.2031C11.5373 21.7495 11.8617 21.6375 12.125 21.4316C12.3882 21.2258 12.5752 20.9379 12.6563 20.6138L13.5 17.25H16.5C17.4836 17.25 18.4474 16.9736 19.2816 16.4524C20.1158 15.9313 20.7867 15.1863 21.2181 14.3023C21.6494 13.4183 21.8238 12.4309 21.7212 11.4527C21.6187 10.4745 21.2434 9.54469 20.6381 8.76937H20.6362ZM4.5 17.25L7.875 3.75H13.5C14.3726 3.74975 15.2179 4.05381 15.8905 4.60979C16.563 5.16577 17.0205 5.93887 17.1844 6.79594C16.9575 6.76598 16.7289 6.75064 16.5 6.75H11.25C10.9153 6.74984 10.5903 6.8616 10.3264 7.06749C10.0626 7.27338 9.87522 7.56159 9.79406 7.88625L7.455 17.25H4.5ZM17.1562 8.30813C17.1488 8.34188 17.1422 8.37562 17.1337 8.40937C16.932 9.2205 16.4647 9.94081 15.8062 10.4556C15.1477 10.9704 14.3358 11.25 13.5 11.25H10.5L11.25 8.25H16.5C16.72 8.25012 16.9396 8.26957 17.1562 8.30813ZM20.1337 12.9094C19.932 13.7205 19.4647 14.4408 18.8062 14.9556C18.1477 15.4704 17.3358 15.75 16.5 15.75H13.5C13.1655 15.7501 12.8406 15.8619 12.577 16.0678C12.3134 16.2737 12.1261 16.5617 12.045 16.8862L11.2013 20.25H8.25L10.125 12.75H13.5C14.6532 12.7503 15.7743 12.3703 16.6896 11.6687C17.6048 10.9672 18.2632 9.98336 18.5625 8.86969C18.9011 9.09406 19.2012 9.37171 19.4513 9.69187C19.804 10.14 20.0492 10.6631 20.1679 11.221C20.2865 11.7788 20.2755 12.3565 20.1356 12.9094H20.1337Z" fill="black"/>
</svg>
