  <svg xmlns="http://www.w3.org/2000/svg" fill="none" viewBox="0 0 40 40">
    <circle cx="20" cy="20" r="20" fill="#2CA01C" />
    <path
      fill="#fff"
      fill-rule="evenodd"
      d="M25.442 12.187h1.088c4.206 0 7.616 3.498 7.616 7.814 0 4.315-3.41 7.813-7.616 7.813h-5.443V6.83c1.562 0 2.829 1.3 2.829 2.902v15.18h2.614c2.64 0 4.787-2.202 4.787-4.91 0-2.709-2.147-4.912-4.787-4.912h-1.088v-2.902ZM13.47 27.813c-4.206 0-7.616-3.498-7.616-7.813 0-4.316 3.41-7.814 7.616-7.814h5.443V33.17c-1.562 0-2.829-1.3-2.829-2.902v-15.18H13.47c-2.64 0-4.787 2.202-4.787 4.91 0 2.709 2.147 4.912 4.787 4.912h1.088v2.902H13.47Z"
      clip-rule="evenodd"
    />
  </svg>
