  <svg viewBox="0 0 40 40" fill="none" xmlns="http://www.w3.org/2000/svg">
    <path
      fill-rule="evenodd"
      clip-rule="evenodd"
      d="M20 40C31.0457 40 40 31.0457 40 20C40 8.9543 31.0457 0 20 0C8.9543 0 0 8.9543 0 20C0 31.0457 8.9543 40 20 40ZM26.5302 12.1871H25.4422V15.0893H26.5302C29.17 15.0893 31.3175 17.2925 31.3175 20.0006C31.3175 22.7087 29.17 24.9119 26.5302 24.9119H23.9156V9.73142C23.9156 8.12853 22.6491 6.82925 21.0868 6.82925V27.814H26.5302C30.7365 27.814 34.1464 24.3157 34.1464 20.0006C34.1464 15.6853 30.7365 12.1871 26.5302 12.1871ZM5.85376 19.9994C5.85376 24.3146 9.26364 27.8129 13.47 27.8129H14.558V24.9107H13.47C10.8302 24.9107 8.68264 22.7075 8.68264 19.9994C8.68264 17.2912 10.8302 15.0881 13.47 15.0881H16.0845V30.2686C16.0845 31.8713 17.3511 33.1707 18.9134 33.1707V12.1859H13.47C9.26364 12.1859 5.85376 15.6842 5.85376 19.9994Z"
      fill="white"
    />
  </svg>
