<svg viewBox="0 0 40 40" fill="none" xmlns="http://www.w3.org/2000/svg">

<circle cx="20.002" cy="20" r="20" fill="black"/>
<path d="M8.31694 12.8223C10.1939 12.8223 11.7201 14.1203 11.7552 15.927C11.7728 16.4355 11.4044 16.7164 11.0009 16.7164C10.615 16.7164 10.2818 16.4359 10.2642 15.9621C10.2466 14.9445 9.38725 14.1902 8.29937 14.1902C7.28178 14.1902 6.5103 14.9094 6.5103 15.8918C6.5103 16.9617 7.22945 17.4355 8.72046 17.9793C10.3166 18.5582 11.7728 19.2422 11.7728 21.2769C11.7728 23.0488 10.3869 24.4695 8.45756 24.4695C6.56304 24.4695 5.00171 23.1363 5.00171 21.3297C5.00171 20.207 5.54546 19.4176 6.07163 19.4176C6.52788 19.4176 6.80834 19.7156 6.80834 20.1191C6.80834 20.4699 6.5103 20.6277 6.5103 21.2594C6.5103 22.382 7.42241 23.1012 8.45756 23.1012C9.54506 23.1012 10.2642 22.3469 10.2642 21.4348C10.2642 20.3121 9.54506 19.8387 8.05405 19.3121C6.38765 18.7164 5.00171 17.9969 5.00171 16.0148C5.00171 14.2258 6.43999 12.8223 8.31694 12.8223Z" fill="#00D639"/>
<path d="M15.9708 24.466C14.0763 24.466 12.4978 22.9398 12.4978 21.0102C12.4978 19.0105 14.0939 17.5195 16.0236 17.5195C18.0935 17.5195 19.5493 19.0633 19.5493 21.1684V23.7293C19.5493 24.168 19.1985 24.466 18.7951 24.466C18.374 24.466 18.0231 24.168 18.0231 23.7293V21.2207C18.0231 19.8348 17.2338 18.8875 15.9884 18.8875C14.8833 18.8875 14.0064 19.8172 14.0064 21.0102C14.0064 22.1152 14.8658 23.0625 15.9537 23.0625C16.3572 23.0625 16.5326 22.9574 16.7783 22.9574C17.1115 22.9574 17.4623 23.2379 17.4623 23.6414C17.4619 24.1851 16.8126 24.466 15.9708 24.466Z" fill="#00D639"/>
<path d="M23.8722 29.6934C21.9074 29.6934 20.2761 28.2899 20.2761 26.4656C20.2761 25.8516 20.6269 25.5711 21.0304 25.5711C21.4339 25.5711 21.7671 25.8344 21.7848 26.343C21.8023 27.4832 22.7144 28.325 23.8546 28.325C25.0652 28.325 25.8542 27.5532 25.8542 26.5531C25.8542 25.4129 24.9772 24.9395 23.4862 24.4656C21.7496 23.9043 20.2761 23.1324 20.2761 20.9926C20.2761 19.0277 21.7848 17.5195 23.7492 17.5195C25.7312 17.5195 27.3628 18.9578 27.3628 20.8523C27.3628 22.0101 26.8894 22.9047 26.2401 22.9047C25.8015 22.9047 25.5034 22.5891 25.5034 22.2031C25.5034 21.7996 25.8542 21.6242 25.8542 20.9051C25.8542 19.6945 24.9069 18.8879 23.7667 18.8879C22.6616 18.8879 21.7848 19.7301 21.7848 20.8352C21.7848 22.0805 22.6792 22.607 24.1527 23.098C25.8542 23.6594 27.3628 24.3609 27.3628 26.4133C27.3628 28.2551 25.907 29.6934 23.8722 29.6934Z" fill="#00D639"/>
<path d="M31.668 24.4689C29.7031 24.4689 28.0894 22.9251 28.0894 20.9958C28.0894 19.0661 29.6508 17.5228 31.58 17.5228C33.5274 17.5228 35.0007 18.8736 35.0007 20.5927C35.0007 21.2591 34.5273 21.6626 33.7555 21.6626H31.7383C31.3347 21.6626 31.0366 21.3822 31.0366 21.0134C31.0366 20.6626 31.3347 20.3818 31.7383 20.3818H33.2468C33.3871 20.3818 33.4926 20.3115 33.4926 20.1712C33.4926 19.6626 32.8434 18.8732 31.6332 18.8732C30.5106 18.8732 29.5984 19.838 29.5984 20.9958C29.5984 22.1712 30.5281 23.1009 31.6858 23.1009C33.0192 23.1009 33.4578 22.3115 34.0015 22.3115C34.4577 22.3115 34.7031 22.6095 34.7031 22.9431C34.7031 23.2587 34.4925 23.5396 33.9663 23.8728C33.4394 24.2056 32.6504 24.4689 31.668 24.4689Z" fill="#00D639"/>

</svg>
