<svg viewBox="0 0 40 40" fill="none" xmlns="http://www.w3.org/2000/svg">

<path d="M20.0017 0C31.0474 0 40.0017 8.95431 40.0017 20C40.0017 31.0457 31.0474 40 20.0017 40C8.95609 39.9999 0.00170898 31.0456 0.00170898 20C0.00170898 8.95436 8.95609 8.79676e-05 20.0017 0ZM23.7488 17.5195C21.7848 17.5198 20.2763 19.0277 20.2761 20.9922C20.2763 23.1317 21.7496 23.9045 23.4861 24.4658C24.9769 24.9396 25.8541 25.4128 25.8542 26.5527C25.8541 27.5527 25.0647 28.3252 23.8542 28.3252C22.7144 28.3249 21.8026 27.4827 21.7849 26.3428C21.7672 25.8343 21.4334 25.5713 21.03 25.5713C20.6267 25.5716 20.2761 25.8521 20.2761 26.4658C20.2764 28.2896 21.9075 29.6931 23.8718 29.6934C25.9065 29.6934 27.3629 28.2547 27.363 26.4131C27.3629 24.361 25.8544 23.659 24.1531 23.0977C22.6798 22.6067 21.7851 22.08 21.7849 20.835C21.785 19.7301 22.6616 18.8879 23.7664 18.8877C24.9066 18.8877 25.8542 19.6947 25.8542 20.9053C25.8541 21.624 25.5037 21.7997 25.5037 22.2031C25.5038 22.5888 25.8017 22.9042 26.24 22.9043C26.8892 22.9043 27.3629 22.0101 27.363 20.8525C27.363 18.958 25.7308 17.5195 23.7488 17.5195ZM31.5798 17.5225C29.6507 17.5226 28.0896 19.0665 28.0896 20.9961C28.0899 22.925 29.7032 24.4685 31.6677 24.4688C32.65 24.4688 33.4396 24.2058 33.9666 23.873C34.4924 23.5401 34.7026 23.2587 34.7029 22.9434C34.7029 22.6098 34.4578 22.3116 34.0017 22.3115C33.4581 22.3117 33.0191 23.1004 31.6863 23.1006C30.5288 23.1005 29.5987 22.1712 29.5984 20.9961C29.5984 19.8383 30.511 18.8731 31.6335 18.873C32.8432 18.8732 33.4926 19.6623 33.4929 20.1709C33.4928 20.3109 33.387 20.3818 33.2468 20.3818H31.738C31.3347 20.382 31.0369 20.663 31.0369 21.0137C31.0372 21.382 31.3349 21.6629 31.738 21.6631H33.7556C34.5272 21.663 35.0005 21.2589 35.0007 20.5928C35.0007 18.8736 33.5272 17.5225 31.5798 17.5225ZM8.31714 12.8193C6.44027 12.8194 5.00171 14.2227 5.00171 16.0117C5.00192 17.9934 6.38819 18.7129 8.05444 19.3086C9.54537 19.8351 10.2644 20.309 10.2644 21.4316C10.2642 22.3435 9.54506 23.0976 8.45776 23.0977C7.42277 23.0976 6.51067 22.3783 6.5105 21.2559C6.51058 20.6248 6.80798 20.4665 6.80835 20.1162C6.80835 19.7128 6.52814 19.4142 6.07202 19.4141C5.54594 19.4142 5.00179 20.2038 5.00171 21.3262C5.0019 23.1326 6.56343 24.4657 8.45776 24.4658C10.3869 24.4658 11.773 23.0451 11.7732 21.2734C11.7731 19.2389 10.3165 18.5545 8.72046 17.9756C7.22989 17.432 6.5107 16.9582 6.5105 15.8887C6.5105 14.9063 7.28205 14.1866 8.29956 14.1865C9.38743 14.1865 10.2468 14.9414 10.2644 15.959C10.2822 16.4323 10.6151 16.7126 11.0007 16.7129C11.4041 16.7129 11.773 16.4321 11.7556 15.9238C11.7205 14.1172 10.1941 12.8194 8.31714 12.8193ZM16.0232 17.5195C14.0939 17.5198 12.498 19.0105 12.4978 21.0098C12.498 22.9391 14.0763 24.4655 15.9705 24.4658C16.812 24.4658 17.4619 24.185 17.4626 23.6416C17.4626 23.2381 17.1113 22.957 16.7781 22.957C16.5326 22.9571 16.357 23.0625 15.9539 23.0625C14.8661 23.0624 14.0068 22.1147 14.0066 21.0098C14.0068 19.8172 14.8833 18.888 15.988 18.8877C17.2334 18.8877 18.0232 19.8348 18.0232 21.2207V23.7295C18.0235 24.1677 18.374 24.4655 18.7947 24.4658C19.198 24.4658 19.5493 24.1679 19.5496 23.7295V21.168C19.5494 19.0631 18.0929 17.5195 16.0232 17.5195Z" fill="white"/>
</svg>
