  <svg viewBox="0 0 40 40" fill="none" xmlns="http://www.w3.org/2000/svg">
    <path
      fill-rule="evenodd"
      clip-rule="evenodd"
      d="M0 28.2731V5H40V28.2731L19.9765 35L0 28.2731ZM13.8009 27.535H19.9296V11.1749H13.567V19.8382C13.567 22.5108 12.1173 23.0178 11.0878 23.0178C9.21578 23.0178 8.98186 21.6822 8.98186 19.8382V11.1749H2.61926V22.4197C2.61926 26.1987 5.4269 27.9951 8.37395 27.9951C10.8538 27.9951 12.5844 27.1197 13.8009 25.4613V27.535ZM31.0174 14.7698C31.4852 15.0464 31.6722 15.4148 31.766 15.9681H37.5201C37.3793 11.7744 33.075 10.8065 29.4262 10.8065C26.1045 10.8065 21.5663 11.8668 21.5663 16.0143C21.5663 18.7793 23.5321 20.3466 28.3505 21.1758C31.2982 21.6829 31.9061 21.9133 31.9061 22.8805C31.9061 23.849 30.5496 24.125 29.754 24.125C28.9591 24.125 28.3505 23.8946 28.0697 23.6648C27.5556 23.2495 27.3217 22.7894 27.2278 22.1899H21.1917C21.3317 26.4298 25.5891 27.9965 29.5187 27.9965C33.5891 27.9965 37.9403 26.752 37.9403 22.1899C37.9403 19.5167 36.069 18.3191 34.0576 17.6734C32.9039 17.2781 31.6831 17.0681 30.6328 16.8875C29.7239 16.7312 28.9427 16.5968 28.4437 16.3834C28.069 16.2447 27.695 16.0143 27.695 15.5072C27.695 14.4476 28.7714 14.2165 29.5663 14.2165C30.128 14.2165 30.6427 14.4007 31.0174 14.7698Z"
      fill="white"
    />
  </svg>
