  <svg xmlns="http://www.w3.org/2000/svg" fill="none" viewBox="0 0 40 40">
    <path fill="#BF4956" fill-rule="evenodd" d="M0 5v23.273L19.977 35 40 28.273V5H0Z" clip-rule="evenodd" />
    <path
      fill="#fff"
      fill-rule="evenodd"
      d="M19.93 27.535H13.8v-2.074c-1.216 1.659-2.946 2.534-5.426 2.534-2.947 0-5.755-1.796-5.755-5.575V11.175h6.363v8.663c0 1.844.234 3.18 2.106 3.18 1.03 0 2.479-.507 2.479-3.18v-8.663h6.363v16.36Zm11.836-11.567c-.094-.553-.28-.922-.749-1.198-.374-.37-.889-.553-1.45-.553-.796 0-1.872.23-1.872 1.29 0 .507.374.738.749.876 1.075.46 3.462.553 5.614 1.29 2.011.646 3.882 1.844 3.882 4.517 0 4.562-4.35 5.806-8.421 5.806-3.93 0-8.187-1.566-8.327-5.806h6.036c.094.6.328 1.06.842 1.475.28.23.89.46 1.684.46.796 0 2.152-.276 2.152-1.244s-.608-1.198-3.555-1.705c-4.819-.83-6.785-2.397-6.785-5.162 0-4.147 4.539-5.207 7.86-5.207 3.649 0 7.953.967 8.094 5.161h-5.754Z"
      clip-rule="evenodd"
    />
  </svg>
