  <svg xmlns="http://www.w3.org/2000/svg" fill="none" viewBox="0 0 40 40">
    <g>
      <path
        fill="#213C84"
        fill-rule="evenodd"
        d="m29.109 13.39-.466 2.693c-1.396-.77-4.575-.952-4.575.466 0 .563.72.95 1.586 1.417 1.315.708 2.969 1.6 2.969 3.563 0 3.139-3.36 4.292-5.588 4.292-2.227 0-3.684-.709-3.684-.709l.486-2.813c1.335 1.073 5.386 1.376 5.386-.325 0-.714-.797-1.135-1.721-1.624-1.276-.674-2.794-1.477-2.794-3.355 0-3.443 3.846-4.15 5.466-4.15 1.498 0 2.935.546 2.935.546Zm-17.78-.321L8.22 21.69l-.37-1.857-1.097-5.637S6.62 13.07 5.204 13.07H.059L0 13.28s1.573.327 3.414 1.433l2.835 10.891h3.4l5.195-12.536H11.33Zm2.747 12.536h3.264l2.04-12.536h-3.264l-2.04 12.536Zm21.05-9.127-1.714 4.693h2.68l-.966-4.693ZM40 25.605h-2.996l-.383-1.862h-4.15l-.68 1.862H28.39l4.867-11.603s.295-.933 1.508-.933h2.623L40 25.605Z"
        clip-rule="evenodd"
      />
    </g>
  </svg>
