  <svg viewBox="0 0 40 40" fill="none" xmlns="http://www.w3.org/2000/svg">
    <g clip-path="url(#clip0_8328_1326)">
      <path
        fill-rule="evenodd"
        clip-rule="evenodd"
        d="M29.1086 13.3909L28.6435 16.0832C27.2474 15.3134 24.0682 15.1312 24.0682 16.5488C24.0682 17.1118 24.7873 17.4991 25.654 17.966C26.9686 18.674 28.6228 19.5651 28.6228 21.5294C28.6228 24.6676 25.2625 25.8214 23.0348 25.8214C20.8081 25.8214 19.3507 25.1124 19.3507 25.1124L19.8365 22.2987C21.1725 23.3715 25.2231 23.6751 25.2231 21.9742C25.2231 21.2599 24.4261 20.8386 23.5017 20.35C22.2259 19.6756 20.7075 18.873 20.7075 16.9946C20.7075 13.5523 24.554 12.8444 26.174 12.8444C27.6719 12.8444 29.1086 13.3909 29.1086 13.3909ZM11.3299 13.0687L8.21842 21.6914L7.84979 19.8344V19.8349L6.75244 14.1974C6.75244 14.1974 6.61927 13.0687 5.2039 13.0687H0.0591291L0 13.2812C0 13.2812 1.57305 13.6077 3.41351 14.7136L6.24851 25.6051H9.64977L14.8435 13.0687H11.3299ZM14.0759 25.6051H17.3397L19.38 13.0687H16.1161L14.0759 25.6051ZM35.1263 16.4784L33.4121 21.1709H36.0921L35.1263 16.4784ZM40 25.6051H37.0036L36.6206 23.7433H32.4704L31.7912 25.6051H28.3889L33.2561 14.0025C33.2561 14.0025 33.5512 13.0687 34.7636 13.0687H37.3872L40 25.6051Z"
        fill="white"
      />
    </g>
    <defs>
      <clipPath id="clip0_8328_1326">
        <rect width="40" height="40" fill="white" />
      </clipPath>
    </defs>
  </svg>
