<svg viewBox="0 0 40 40" xmlns="http://www.w3.org/2000/svg">
<path d="M19.9132 26.8138C17.8193 27.9793 14.0379 29.4138 12.0129 29.4138C10.9591 29.4138 10.5045 28.7931 10.5045 27.9793C10.5045 27.5931 10.5527 27.1862 10.6216 26.9103C11.1106 26.9517 11.6272 26.9517 11.9991 26.9241C11.9509 27.2621 11.8889 27.6207 11.9027 28.0414C13.9277 28 17.3509 26.6759 19.307 25.5448C19.5894 25.3793 19.7479 25.3034 19.9132 25.3034C20.0716 25.3034 20.2024 25.3517 20.5399 25.5448C21.4216 26.0621 22.4065 26.5655 23.6257 27.0345C23.6877 27.4759 23.7083 28 23.7014 28.5034C22.4272 28.0897 21.1598 27.5103 19.9132 26.8138ZM26.7389 25.9793C26.491 25.931 26.119 25.8828 25.7471 25.8069C25.9124 26.7793 26.0088 27.7655 26.0088 28.5517C26.0088 29.6 25.9262 30.4828 25.6851 31.1517C25.4854 31.731 25.1479 31.9931 24.4315 31.9931C23.5637 31.9931 21.4354 31.2138 19.9132 30.3379C18.391 31.2138 16.2627 31.9931 15.319 31.9931C14.3961 31.9931 14.0861 31.3103 13.9415 30.0276C14.2996 29.9586 14.8162 29.8138 15.2708 29.6483C15.319 29.9655 15.3879 30.331 15.4706 30.6069C16.5244 30.4207 17.9502 29.8345 19.2933 29.069C19.6308 28.8759 19.7685 28.8276 19.9132 28.8276C20.0578 28.8276 20.2024 28.8759 20.5468 29.0828C21.9244 29.8966 23.3364 30.4483 24.3902 30.6069C24.528 30.1034 24.5968 29.331 24.5968 28.3241C24.5968 26.7655 24.2524 25.3517 24.2524 24.8414C24.2524 24.5172 24.4315 24.3379 24.7553 24.3379C25.1203 24.3379 25.7333 24.469 26.2981 24.5862C26.491 25.0414 26.6563 25.6069 26.7389 25.9793ZM26.7252 20C27.8892 22.0966 29.3287 25.8828 29.3287 27.9103C29.3287 28.9586 28.7019 29.4207 27.8892 29.4207C27.5035 29.4207 27.0971 29.3724 26.8216 29.2966C26.8629 28.8069 26.8629 28.2897 26.8354 27.9172C27.1729 27.9655 27.531 28.0276 27.9512 28.0138C27.9167 25.9862 26.5874 22.5586 25.4578 20.6069C25.2925 20.3172 25.2167 20.1655 25.2167 20C25.2167 19.8414 25.2649 19.7103 25.4578 19.3724C25.9744 18.4897 26.4772 17.5034 26.9456 16.2828C27.3864 16.2207 27.9167 16.2 28.4195 16.2069C27.9994 17.4828 27.4208 18.7517 26.7252 20ZM11.3655 26.0966C10.3254 26.0966 9.43689 26.0138 8.76877 25.7724C8.1902 25.5724 7.92847 25.2345 7.92847 24.5172C7.92847 23.6552 8.70678 21.5172 9.58153 20C8.70678 18.4759 7.92847 16.3448 7.92847 15.3931C7.92847 14.469 8.61035 14.1586 9.89148 14.0138C9.96724 14.3793 10.105 14.8897 10.2772 15.3448C9.95347 15.3931 9.5953 15.469 9.31979 15.5517C9.49888 16.6069 10.0843 18.0345 10.8489 19.3724C11.0417 19.7103 11.0899 19.8552 11.0899 20C11.0899 20.1379 11.0417 20.2828 10.8351 20.6345C10.0223 22.0138 9.47132 23.4276 9.31979 24.4828C9.8226 24.6138 10.5871 24.6828 11.5928 24.6828C13.1494 24.6828 14.5614 24.3379 15.078 24.3379C15.4017 24.3379 15.5808 24.5172 15.5808 24.8414C15.5808 25.2138 15.4499 25.8207 15.3259 26.3862C14.8713 26.5793 14.3134 26.7448 13.9415 26.8276C13.9897 26.5793 14.0379 26.2069 14.1068 25.8345C13.1356 26 12.1575 26.0966 11.3655 26.0966ZM30.2517 20C31.1195 21.5172 31.8979 23.6552 31.8979 24.6C31.8979 25.5241 31.216 25.8345 29.9348 25.9793C29.866 25.6207 29.7213 25.1034 29.556 24.6483C29.8797 24.6 30.2379 24.5241 30.5134 24.4414C30.3343 23.3862 29.7489 21.9655 28.9775 20.6207C28.7846 20.2828 28.7364 20.1379 28.7364 20C28.7364 19.8552 28.7846 19.7103 28.9912 19.3586C29.804 17.9862 30.355 16.5724 30.5134 15.5172C30.0106 15.3862 29.2461 15.3103 28.2336 15.3103C26.6769 15.3103 25.2649 15.6552 24.7553 15.6552C24.4315 15.6552 24.2524 15.4759 24.2524 15.1517C24.2524 14.7862 24.3833 14.1724 24.5004 13.6069C24.955 13.4138 25.5198 13.2483 25.8917 13.1655C25.8435 13.4138 25.7953 13.7862 25.7195 14.1586C26.6907 13.9931 27.6757 13.8966 28.4678 13.8966C29.5078 13.8966 30.3894 13.9793 31.0644 14.2207C31.6361 14.4207 31.8979 14.7586 31.8979 15.4759C31.8979 16.3448 31.1195 18.4759 30.2517 20ZM19.9132 13.1793C22.007 12.0138 25.7953 10.5793 27.8203 10.5793C28.8741 10.5793 29.3287 11.2 29.3287 12.0138C29.3287 12.4 29.2805 12.8069 29.2047 13.0828C28.7157 13.0483 28.1991 13.0483 27.8272 13.069C27.8754 12.731 27.9374 12.3724 27.9236 11.9517C25.8986 11.9931 22.4754 13.3241 20.5262 14.4483C20.2369 14.6138 20.0854 14.6897 19.9132 14.6897C19.7616 14.6897 19.6308 14.6414 19.2933 14.4483C18.4047 13.931 17.4267 13.4276 16.2007 12.9586C16.1456 12.5172 16.118 11.9931 16.1318 11.4897C17.3991 11.9103 18.6665 12.4828 19.9132 13.1793ZM13.1012 20C11.9371 17.8966 10.5045 14.1103 10.5045 12.0897C10.5045 11.0345 11.1244 10.5793 11.9371 10.5793C12.3229 10.5793 12.7292 10.6276 13.0047 10.6966C12.9703 11.1862 12.9703 11.7034 12.991 12.0759C12.6604 12.0276 12.3022 11.9655 11.882 11.9793C11.9165 14.0069 13.2458 17.4345 14.3685 19.3862C14.5407 19.6759 14.6096 19.8276 14.6096 20C14.6096 20.1517 14.5614 20.2828 14.3685 20.6207C13.8588 21.5103 13.356 22.4897 12.8877 23.7103C12.4399 23.7724 11.9165 23.7931 11.4137 23.7862C11.8338 22.5172 12.4055 21.2414 13.1012 20ZM13.0874 14.0138C13.3422 14.0621 13.7142 14.1103 14.0861 14.1862C13.9139 13.2138 13.8175 12.2276 13.8175 11.4414C13.8175 10.4 13.907 9.51034 14.1412 8.84138C14.3479 8.26207 14.6854 8 15.4017 8C16.2627 8 18.391 8.77931 19.9132 9.65517C21.4354 8.77931 23.5637 8 24.5142 8C25.4371 8 25.7471 8.68276 25.8917 9.96552C25.5336 10.0345 25.017 10.1793 24.5624 10.3517C24.5142 10.0276 24.4384 9.66897 24.3558 9.3931C23.3019 9.57241 21.8762 10.1586 20.5399 10.9241C20.2024 11.1172 20.0578 11.1655 19.9132 11.1655C19.7685 11.1655 19.6308 11.1172 19.2795 10.9103C17.9019 10.0966 16.4899 9.54483 15.4361 9.3931C15.3053 9.89655 15.2295 10.6621 15.2295 11.669C15.2295 13.2276 15.5808 14.6414 15.5808 15.1517C15.5808 15.4759 15.4017 15.6552 15.078 15.6552C14.706 15.6552 14.093 15.5241 13.5351 15.4069C13.3422 14.9517 13.17 14.3862 13.0874 14.0138Z" fill="#009639"/>
</svg>
