<svg viewBox="0 0 40 40" fill="none" xmlns="http://www.w3.org/2000/svg">

<path d="M5.95959 28.8652L6.12094 28.919C8.07515 29.5465 10.1369 28.5425 10.7465 26.7138L12.9338 19.5782C13.5254 17.7495 12.4318 15.7415 10.4776 15.114L10.3162 15.0602C8.36201 14.4327 6.30023 15.4367 5.69066 17.2655L3.48545 24.401C2.91174 26.2297 4.00538 28.2377 5.95959 28.8652Z" fill="#084F99"/>
<path d="M29.3548 8.6367C29.7492 7.66857 30.5022 6.89764 31.4345 6.44943C31.4883 6.4315 31.5242 6.41357 31.5779 6.39564C31.5959 6.37771 31.6317 6.37771 31.6497 6.35978C32.3847 6.07293 33.2094 6.01914 33.9983 6.27014L34.1596 6.32393C36.1139 6.95143 37.1358 9.15663 36.4545 11.2543L31.1118 29.2724C29.7134 33.4139 25.303 35.5653 21.4842 34.4896C21.4842 34.4896 20.4623 34.1848 20.032 33.88C23.8508 33.0733 28.6018 10.4654 29.3548 8.6367Z" fill="#5EB7FF"/>
<path d="M6.56926 31.2328L6.73062 31.2866C7.5374 31.5376 8.38004 31.5734 9.20475 31.3762C9.33025 31.3583 9.45575 31.3224 9.58125 31.2686C11.141 30.7666 12.5036 29.4937 13.0773 27.7188L17.2367 14.0214C17.918 11.9417 20.0694 10.7405 22.0057 11.3501L22.1671 11.4039C24.1213 12.0314 25.1432 14.2366 24.4619 16.3342C24.4619 16.3342 20.5176 29.3144 19.9619 30.4081C15.9279 37.705 8.36211 34.1372 6.21069 31.0894C6.31826 31.1431 6.44376 31.1969 6.56926 31.2328Z" fill="#1479FB"/>
</svg>
