  <svg xmlns="http://www.w3.org/2000/svg" fill="none" viewBox="0 0 40 40">
    <path fill="#B31E30" d="M0 0h40v40H0z" />
    <path
      fill="#FFCC02"
      d="M14.416 12.59v1.966h.45c.567 0 .825-.276.825-1.048v-.12h.66v3.05h-.66v-.13c0-.766-.258-1.058-.825-1.058h-.45v2.198h1.885c.86 0 1.17-.567 1.271-1.652h.686v2.353h-6.192v-.7h.524c.326 0 .5-.09.5-.658v-3.667c0-.41-.187-.534-.624-.534h-.192c-.45 0-.663.106-.822.574l-1.708 4.985H8.445L7.456 14.9h-.018L6.34 18.15H5.026l-1.774-5.225c-.077-.257-.21-.335-.57-.335h-.13v-.697h2.734v.697h-.397c-.208 0-.291.124-.291.248 0 .093.034.211.083.341l1.185 3.491h.018l1.129-3.283-.158-.446c-.096-.28-.286-.35-.561-.35H6.07v-.698h2.825v.697h-.5c-.192 0-.266.084-.266.208 0 .096.046.23.077.32l1.036 3.49h.019l1.202-3.41c.038-.112.072-.205.072-.322 0-.15-.072-.286-.403-.286h-.456v-.697h8.582v2.139h-.704c-.143-.905-.223-1.442-1.48-1.442h-1.658ZM24.7 18.15v-2.354h-.722c-.097 1.076-.292 1.652-1.272 1.652h-1.422v-4.424c0-.347.142-.434.558-.434h.53v-.697h-3.457v.697h.546c.378 0 .505.124.505.41v4.03c0 .329-.18.418-.447.418h-.604v.701H24.7Zm6.42 0v-2.354h-.725c-.096 1.076-.297 1.652-1.265 1.652h-1.426v-4.424c0-.347.143-.434.558-.434h.527v-.697h-3.46v.697h.55c.38 0 .508.124.508.41v4.03c0 .329-.183.418-.447.418h-.61v.701h5.79Zm4.763-5.786c-.06-.059-.636-.657-1.761-.657-1.181 0-2.375.598-2.375 1.882 0 1.162.927 1.692 1.993 1.922.354.074.565.115.887.183.8.17 1.333.412 1.333.967 0 .422-.446.874-1.33.874-1.234 0-1.965-.688-2.117-1.739h-.726v2.353h.642l.208-.561c.152.133.753.747 1.897.747 1.457 0 2.558-.648 2.558-1.928 0-1.24-1.026-1.774-2.279-2.025-.223-.056-.428-.09-.657-.142-.778-.168-1.277-.36-1.277-.918 0-.484.511-.815 1.28-.815 1.156 0 1.603.734 1.842 1.525h.703v-2.14h-.508l-.313.472ZM7.168 27.903v-.704h-.471c-.438 0-.599-.13-.599-.484V25.01h.388c.586 0 .84.254.84.918v.207h.657v-2.88h-.657v.124c0 .487-.177.933-.784.933h-.444v-1.971H7.33c1.386 0 1.532.697 1.625 1.438h.675v-2.136H3.708v.698h.626c.282 0 .44.127.44.353v4.043c0 .264-.142.462-.477.462h-.59v.704h3.46Zm26.2-6.449c-2.052 0-3.41 1.436-3.41 3.317 0 1.88 1.358 3.327 3.41 3.327 2.047 0 3.408-1.448 3.408-3.327 0-1.881-1.361-3.317-3.408-3.317Zm0 .738c1.482 0 1.926 1.23 1.926 2.58 0 1.348-.444 2.582-1.926 2.582-1.49 0-1.931-1.234-1.931-2.583 0-1.348.44-2.58 1.931-2.58Zm-5.772-.037c-.137-.121-.723-.7-1.88-.7-1.85 0-3.013 1.41-3.013 3.316 0 1.922 1.182 3.327 3.014 3.327 1.178 0 1.817-.54 1.962-.673l.35.478h.643v-2.17c0-.37.136-.469.502-.469h.173v-.7h-2.89v.7h.429c.31 0 .499.14.499.444v.366c0 .716-.44 1.215-1.398 1.215-1.2 0-1.802-1.08-1.802-2.518 0-1.416.602-2.502 1.764-2.502 1.213 0 1.625 1.129 1.764 1.51h.775v-2.136h-.66l-.232.512Zm-5.206 4.278v.17c0 1.08-.514 1.495-1.296 1.495-.914 0-1.221-.44-1.221-1.293v-.325c0-1.076-.459-1.51-1.507-1.51h-.496v1.891c0 .251.115.338.388.338h.688v.704h-6.25v-.704h.694c.192 0 .264-.047.264-.158a.836.836 0 0 0-.056-.258c-.034-.083-.329-.89-.329-.89h-2.232l-.322.869a.8.8 0 0 0-.056.26c0 .134.111.177.297.177h.664v.704H8.675v-.704c.499 0 .815-.071.992-.509l1.996-5.047h1.2l2.046 5.047c.17.444.493.509.992.509h.255c.27 0 .39-.087.39-.338v-4.18c0-.25-.096-.34-.39-.34h-.658v-.698h4.111c1.364 0 2.006.645 2.006 1.622 0 1.212-1.206 1.45-1.77 1.482v.015c.66.05 1.218.322 1.218 1.287v.366c0 .641.137.784.363.784.223 0 .341-.177.341-.595v-.17h.623ZM13.012 25.2l-.843-2.279h-.028l-.844 2.28h1.715Zm7.289-1.894c0-.549-.394-.964-1.268-.964H17.87v1.931h1.163c.806 0 1.268-.362 1.268-.967Z"
    />
  </svg>
