  <svg viewBox="0 0 40 40" fill="none" xmlns="http://www.w3.org/2000/svg">
    <g clip-path="url(#clip0_8328_1280)">
      <path
        fill-rule="evenodd"
        clip-rule="evenodd"
        d="M40 0H0V40H40V0ZM14.3648 14.8492V12.8836H16.0234C17.2752 12.8836 17.3591 13.4166 17.5009 14.3169L17.5023 14.3252H18.206V12.186H9.62442V12.8836H10.0802C10.4119 12.8836 10.4832 13.02 10.4832 13.1688C10.4832 13.2787 10.4536 13.367 10.4194 13.4689C10.4169 13.4763 10.4144 13.4837 10.4119 13.4912L9.20901 16.9016H9.19044L8.15494 13.4106L8.15359 13.4067C8.12258 13.3169 8.0774 13.186 8.0774 13.0913C8.0774 12.9673 8.15181 12.8836 8.34403 12.8836H8.84317V12.186H6.01881V12.8836H6.24203C6.51796 12.8836 6.70707 12.9549 6.80318 13.2339L6.9613 13.6804L5.83278 16.9636H5.81421L4.6299 13.4726C4.58032 13.3424 4.54619 13.2246 4.54619 13.1316C4.54619 13.0076 4.6299 12.8836 4.83762 12.8836H5.23446V12.186H2.5V12.8836H2.63021C2.98984 12.8836 3.12312 12.9611 3.20066 13.2184L4.97403 18.4424H6.28855L7.38606 15.1933H7.40464L8.39363 18.4424H9.69266L11.4009 13.4571C11.559 12.989 11.773 12.8836 12.2225 12.8836H12.4147C12.8519 12.8836 13.0379 13.0076 13.0379 13.4168V17.0845C13.0379 17.6518 12.8643 17.7417 12.5387 17.7417H12.0148V18.4424H18.2061V16.0893H17.5209C17.4186 17.1744 17.1086 17.7417 16.2498 17.7417H14.3648V15.5436H14.8143C15.3817 15.5436 15.639 15.8351 15.639 16.6008V16.731H16.2994V13.6804H15.639V13.8013C15.639 14.5732 15.3817 14.8492 14.8143 14.8492H14.3648ZM24.6485 16.0893V18.4424H18.8633V17.7417H19.4679C19.7345 17.7417 19.9143 17.6518 19.9143 17.3232V13.2928C19.9143 13.0076 19.7872 12.8836 19.409 12.8836H18.8633V12.186H22.3202V12.8836H21.79C21.3746 12.8836 21.232 12.9704 21.232 13.3176V17.7417H22.655C23.6347 17.7417 23.83 17.1651 23.9261 16.0893H24.6485ZM31.0692 16.0893V18.4424H25.2778V17.7417H25.8886C26.1521 17.7417 26.335 17.6518 26.335 17.3232V13.2928C26.335 13.0076 26.2079 12.8836 25.8266 12.8836H25.2778V12.186H28.7378V12.8836H28.2107C27.7953 12.8836 27.6527 12.9704 27.6527 13.3176V17.7417H29.0788C30.0461 17.7417 30.2476 17.1651 30.3437 16.0893H31.0692ZM35.828 12.654L35.8312 12.6573L36.1444 12.186H36.6528V14.3252H35.949C35.7103 13.5346 35.2639 12.7999 34.1075 12.7999C33.3386 12.7999 32.827 13.1316 32.827 13.6153C32.827 14.1733 33.3262 14.3655 34.1044 14.5329C34.2031 14.5556 34.2973 14.5749 34.3904 14.5939C34.5134 14.619 34.6345 14.6438 34.7616 14.6756C36.0141 14.9267 37.0404 15.4599 37.0404 16.7C37.0404 17.9805 35.9397 18.6284 34.4826 18.6284C33.4092 18.6284 32.8134 18.088 32.6185 17.9112C32.6057 17.8995 32.5946 17.8895 32.5852 17.8813L32.3775 18.4424H31.7357V16.0893H32.4612C32.6131 17.1403 33.3448 17.8286 34.5787 17.8286C35.4623 17.8286 35.9087 17.3759 35.9087 16.9543C35.9087 16.3993 35.3755 16.1575 34.5756 15.987C34.4128 15.9525 34.2784 15.9252 34.1398 15.897C34.0039 15.8694 33.8639 15.8409 33.6889 15.8041C32.6224 15.5746 31.6954 15.0445 31.6954 13.8819C31.6954 12.5984 32.8891 12 34.0703 12C35.1775 12 35.7536 12.5792 35.828 12.654ZM7.11631 27.4922V28.1959H3.65639V27.4922H4.24543C4.58027 27.4922 4.72289 27.2937 4.72289 27.0302V22.9874C4.72289 22.7611 4.56477 22.634 4.28264 22.634H3.65639V21.9364H9.57794V24.0725H8.90208C8.80907 23.3316 8.66336 22.634 7.27753 22.634H6.04671V24.6058H6.49005C7.0977 24.6058 7.27443 24.1594 7.27443 23.6726V23.5486H7.93169V26.4288H7.27443V26.221C7.27443 25.5576 7.0202 25.3034 6.43425 25.3034H6.04671V27.0085C6.04671 27.362 6.20792 27.4922 6.64507 27.4922H7.11631ZM29.9066 25.0646C29.9066 23.1828 31.2645 21.7473 33.3169 21.7473C35.3631 21.7473 36.7241 23.1828 36.7241 25.0646C36.7241 26.9434 35.3631 28.3913 33.3169 28.3913C31.2645 28.3913 29.9066 26.9434 29.9066 25.0646ZM35.2422 25.0646C35.2422 23.716 34.7988 22.4852 33.3169 22.4852C31.8256 22.4852 31.3854 23.716 31.3854 25.0646C31.3854 26.4133 31.8256 27.6472 33.3169 27.6472C34.7988 27.6472 35.2422 26.4133 35.2422 25.0646ZM27.5226 22.4286C27.5307 22.436 27.5379 22.4425 27.5441 22.448L27.7767 21.9364H28.437V24.0725H27.662L27.6618 24.072C27.5221 23.6902 27.1096 22.5627 25.8979 22.5627C24.7353 22.5627 24.1338 23.6478 24.1338 25.0646C24.1338 26.5032 24.7353 27.5821 25.9351 27.5821C26.8931 27.5821 27.3333 27.0829 27.3333 26.3668V26.0009C27.3333 25.6971 27.1442 25.5576 26.8342 25.5576H26.4063V24.8569H29.2958V25.5576H29.1222C28.7564 25.5576 28.6199 25.6568 28.6199 26.0257V28.1959H27.9782L27.6279 27.7185C27.4821 27.8518 26.8435 28.3913 25.6654 28.3913C23.8331 28.3913 22.6519 26.9868 22.6519 25.0646C22.6519 23.158 23.8145 21.7473 25.6654 21.7473C26.7689 21.7473 27.353 22.2753 27.5226 22.4286ZM22.3388 26.8969V26.7264H21.7156V26.8969C21.7156 27.3155 21.5978 27.4922 21.3746 27.4922C21.1483 27.4922 21.0118 27.3496 21.0118 26.7078V26.342C21.0118 25.3778 20.4538 25.1049 19.7934 25.0553V25.0398C20.3577 25.0088 21.5637 24.7701 21.5637 23.5579C21.5637 22.5813 20.9219 21.9364 19.5578 21.9364H15.4468V22.634H16.1041C16.3986 22.634 16.4947 22.7239 16.4947 22.975V27.1542C16.4947 27.4054 16.3738 27.4922 16.1041 27.4922H15.8499C15.3507 27.4922 15.0283 27.4271 14.8578 26.9837L12.8116 21.9364H11.6118L9.61517 26.9837C9.43845 27.4209 9.12223 27.4922 8.62308 27.4922V28.1959H11.5684V27.4922H10.9049C10.7189 27.4922 10.6073 27.4488 10.6073 27.3155C10.6073 27.2255 10.632 27.148 10.6631 27.055C10.7096 26.931 10.9855 26.1869 10.9855 26.1869H13.2177C13.2177 26.1869 13.5122 26.993 13.5463 27.0767C13.5836 27.179 13.6021 27.2751 13.6021 27.3341C13.6021 27.4457 13.5308 27.4922 13.3386 27.4922H12.6441V28.1959H18.8943V27.4922H18.2061C17.9332 27.4922 17.8185 27.4054 17.8185 27.1542V25.2631H18.3146C19.3625 25.2631 19.8213 25.6971 19.8213 26.7729V27.0984C19.8213 27.951 20.1282 28.3913 21.0428 28.3913C21.8241 28.3913 22.3388 27.9758 22.3388 26.8969ZM12.1171 23.2138L12.9604 25.4925H11.2459L12.0892 23.2138H12.1171ZM18.9811 22.634C19.8554 22.634 20.2492 23.0494 20.2492 23.5982C20.2492 24.2028 19.7872 24.5655 18.9811 24.5655H17.8185V22.634H18.9811Z"
        fill="white"
      />
    </g>
    <defs>
      <clipPath id="clip0_8328_1280">
        <rect width="40" height="40" fill="white" />
      </clipPath>
    </defs>
  </svg>
