  <svg viewBox="0 0 40 40" fill="none" xmlns="http://www.w3.org/2000/svg">
    <path
      fill-rule="evenodd"
      clip-rule="evenodd"
      d="M40 20C40 31.0458 31.0458 40 20 40C8.9543 40 0 31.0458 0 20C0 8.9543 8.9543 0 20 0C31.0458 0 40 8.9543 40 20ZM26.4908 19.9417C26.4908 22.414 28.5025 24.4254 30.9752 24.4254C33.4478 24.4254 35.4605 22.414 35.4605 19.9417C35.4605 17.4691 33.4478 15.4572 30.9752 15.4572C28.5025 15.4572 26.4908 17.4691 26.4908 19.9417ZM27.7568 19.9417C27.7568 18.1672 29.2004 16.7233 30.9752 16.7233C32.749 16.7233 34.193 18.1672 34.193 19.9417C34.193 21.7159 32.749 23.1591 30.9752 23.1591C29.2004 23.1591 27.7568 21.7159 27.7568 19.9417ZM30.9764 21.0524C30.3628 21.0524 29.8646 20.554 29.8646 19.9412C29.8646 19.3282 30.3628 18.8298 30.9764 18.8298C31.5885 18.8298 32.087 19.3282 32.087 19.9412C32.087 20.554 31.5885 21.0524 30.9764 21.0524ZM12.987 16.5206L9.57382 19.9422L12.9851 23.3615C13.0999 23.4769 13.1629 23.6298 13.1629 23.7927C13.1629 24.1301 12.8886 24.4042 12.5514 24.4042C12.3851 24.4042 12.2292 24.3377 12.1083 24.2128L8.70131 20.8098L5.28127 24.2252C5.16594 24.3406 5.01243 24.4038 4.84954 24.4038C4.51245 24.4038 4.23804 24.1301 4.23804 23.7927C4.23804 23.6275 4.30343 23.4728 4.42332 23.3547L7.83424 19.9374L4.42155 16.5252C4.3037 16.4089 4.23804 16.2546 4.23804 16.0902C4.23804 15.753 4.51245 15.4791 4.84954 15.4791C5.01216 15.4791 5.16553 15.5419 5.28127 15.656L8.70661 19.0696C8.70661 19.0696 12.1164 15.6618 12.1167 15.6611C12.2329 15.5435 12.3871 15.4791 12.5514 15.4791C12.8889 15.4791 13.1633 15.7531 13.1633 16.0906C13.1633 16.2526 13.1001 16.4053 12.987 16.5206ZM19.9895 16.1572C21.0297 16.8154 21.7128 17.8403 21.9763 19.088C22.1064 19.7943 21.6354 20.412 20.7603 20.4304L14.3771 20.4314C14.3783 20.4608 14.3813 20.4927 14.3855 20.5258C14.4173 20.7026 14.4629 20.8742 14.522 21.0397C14.8606 21.926 15.8124 23.1676 17.5912 23.1874C18.1347 23.1844 18.6459 23.0474 19.0945 22.8077C19.447 22.6108 19.7412 22.357 19.9783 22.0949C20.0571 22.001 20.1286 21.907 20.1927 21.8157C20.4909 21.4338 20.8699 21.5039 21.0957 21.6769C21.3634 21.882 21.4085 22.3116 21.1649 22.6138L21.1591 22.6206L21.1525 22.6277L21.1436 22.6375C20.7927 23.0777 20.4303 23.4454 19.9965 23.7242C19.5786 23.992 19.125 24.1821 18.6563 24.2962C18.1108 24.4374 17.584 24.4688 17.0428 24.4033C15.2189 24.18 13.6892 22.833 13.2369 21.0535C13.1465 20.6958 13.1031 20.3323 13.1031 19.9722C13.1031 18.5361 13.7946 17.142 14.9926 16.2897C16.4612 15.2453 18.469 15.1919 19.9895 16.1572ZM14.4315 19.1661C14.4308 19.1787 14.4301 19.1912 14.4301 19.2034H20.724C20.3871 17.7741 19.1043 16.7099 17.5722 16.7099C16.0584 16.7099 14.7873 17.7486 14.4322 19.1521L14.4315 19.1661ZM25.9844 15.5333L26.1725 15.5338C26.5106 15.5338 26.7859 15.8082 26.7859 16.1453C26.7859 16.4823 26.5278 16.7316 26.165 16.744C26.159 16.7439 26.0288 16.742 25.9089 16.7569C24.583 16.9226 24.4415 17.5477 24.4415 19.0955L24.4412 23.7395C24.4403 24.0765 24.1661 24.3499 23.8298 24.3499C23.4934 24.3499 23.2191 24.0765 23.2182 23.7403L23.2162 16.1875C23.217 15.8506 23.4864 15.5813 23.8226 15.5813C24.1147 15.5813 24.3599 15.7877 24.4198 16.062C24.8748 15.7114 25.4196 15.5333 25.9844 15.5333Z"
      fill="white"
    />
  </svg>
