<svg viewBox="0 0 40 40" fill="none" xmlns="http://www.w3.org/2000/svg">
<path d="M20 40C31.0458 40 40 31.0458 40 20C40 8.9543 31.0458 -1.75752e-06 20 -1.75752e-06C8.9543 -1.75752e-06 0 8.9543 0 20C0 31.0458 8.9543 40 20 40Z" fill="#26B6E7"/>
<path fill-rule="evenodd" clip-rule="evenodd" d="M27.7567 19.9417C27.7567 18.1672 29.2003 16.7233 30.975 16.7233C32.7489 16.7233 34.1929 18.1672 34.1929 19.9417C34.1929 21.7159 32.7489 23.1591 30.975 23.1591C29.2003 23.1591 27.7567 21.7159 27.7567 19.9417ZM26.4907 19.9417C26.4907 22.414 28.5024 24.4254 30.975 24.4254C33.4476 24.4254 35.4604 22.414 35.4604 19.9417C35.4604 17.4691 33.4476 15.4572 30.975 15.4572C28.5024 15.4572 26.4907 17.4691 26.4907 19.9417ZM9.5737 19.9422L12.9869 16.5206C13.1 16.4053 13.1632 16.2526 13.1632 16.0906C13.1632 15.7531 12.8888 15.4791 12.5513 15.4791C12.3869 15.4791 12.2328 15.5435 12.1166 15.6611C12.1163 15.6618 8.70649 19.0696 8.70649 19.0696L5.28115 15.656C5.16541 15.5419 5.01204 15.4791 4.84942 15.4791C4.51233 15.4791 4.23792 15.753 4.23792 16.0902C4.23792 16.2546 4.30358 16.4089 4.42143 16.5252L7.83411 19.9374L4.4232 23.3548C4.3033 23.4728 4.23792 23.6275 4.23792 23.7927C4.23792 24.1301 4.51233 24.4038 4.84942 24.4038C5.01231 24.4038 5.16582 24.3406 5.28115 24.2252L8.70118 20.8098L12.1082 24.2128C12.2291 24.3377 12.385 24.4042 12.5513 24.4042C12.8885 24.4042 13.1628 24.1301 13.1628 23.7927C13.1628 23.6298 13.0997 23.4769 12.985 23.3616L9.5737 19.9422ZM14.4314 19.1661C14.4307 19.1787 14.43 19.1913 14.43 19.2035H20.7238C20.387 17.7741 19.1042 16.71 17.5721 16.71C16.0583 16.71 14.7872 17.7486 14.4321 19.1521L14.4314 19.1661L14.4314 19.1661ZM19.9894 16.1572C21.0296 16.8154 21.7126 17.8403 21.9762 19.088C22.1063 19.7943 21.6353 20.412 20.7602 20.4304L14.3769 20.4314C14.3782 20.4608 14.3812 20.4927 14.3854 20.5258C14.4171 20.7026 14.4627 20.8742 14.5219 21.0397C14.8604 21.926 15.8123 23.1676 17.5911 23.1874C18.1345 23.1844 18.6457 23.0474 19.0943 22.8078C19.4469 22.6108 19.7411 22.357 19.9782 22.0949C20.0569 22.001 20.1285 21.907 20.1926 21.8157C20.4908 21.4338 20.8698 21.5039 21.0956 21.6769C21.3632 21.882 21.4084 22.3117 21.1648 22.6138C21.1607 22.6187 21.1566 22.6232 21.1524 22.6277L21.1435 22.6375C20.7926 23.0777 20.4302 23.4454 19.9964 23.7242C19.5785 23.992 19.1249 24.1822 18.6561 24.2962C18.1107 24.4374 17.5839 24.4688 17.0426 24.4033C15.2188 24.18 13.6891 22.833 13.2367 21.0535C13.1464 20.6958 13.103 20.3323 13.103 19.9722C13.103 18.5361 13.7945 17.142 14.9924 16.2897C16.4611 15.2453 18.4689 15.1919 19.9894 16.1572ZM26.1724 15.5338L25.9843 15.5333C25.4195 15.5333 24.8747 15.7114 24.4197 16.0621C24.3598 15.7877 24.1145 15.5813 23.8224 15.5813C23.4862 15.5813 23.2169 15.8506 23.216 16.1875L23.2181 23.7403C23.219 24.0766 23.4932 24.3499 23.8296 24.3499C24.166 24.3499 24.4402 24.0766 24.4411 23.7395L24.4413 19.0955C24.4413 17.5477 24.5829 16.9226 25.9088 16.7569C26.0287 16.742 26.1589 16.744 26.1649 16.744L26.1651 16.744C26.5279 16.7316 26.7858 16.4823 26.7858 16.1453C26.7858 15.8082 26.5105 15.5338 26.1724 15.5338ZM30.9763 21.0524C30.3627 21.0524 29.8644 20.554 29.8644 19.9412C29.8644 19.3282 30.3627 18.8298 30.9763 18.8298C31.5884 18.8298 32.0869 19.3282 32.0869 19.9412C32.0869 20.554 31.5884 21.0524 30.9763 21.0524Z" fill="white"/>
</svg>
