<svg viewBox="0 0 144 144" fill="none" xmlns="http://www.w3.org/2000/svg">
<path d="M16.52 56.12C16.52 54.45 16.86 52.86 17.48 51.42H15C11.69 51.42 9 54.11 9 57.42V79.87C9 83.18 11.69 85.87 15 85.87H17.48C16.86 84.43 16.52 82.84 16.52 81.17V56.12Z" fill="currentColor" class="penny-illustration-border"/>
<path d="M57.35 93.17C57.31 93.02 57.29 92.87 57.29 92.71V46.12C57.29 45.37 57.71 44.68 58.38 44.34L58.81 44.12H28.52C23.57 44.12 19.31 47.13 17.48 51.42C16.86 52.86 16.52 54.45 16.52 56.12V81.17C16.52 82.84 16.86 84.43 17.48 85.87C19.27 90.05 23.37 93.01 28.17 93.15C28.29 93.15 28.4 93.17 28.52 93.17H57.35Z" fill="currentColor" class="penny-illustration-brand-primary"/>
<path d="M135.04 69.41C135.04 59.91 127.85 52.1 118.62 51.1V52.02L126.62 84.86C131.68 81.58 135.04 75.89 135.04 69.41Z" fill="currentColor" class="penny-illustration-brand-primary"/>
<path d="M118.62 51.11V17C118.62 16.3 118.26 15.66 117.67 15.3C117.08 14.94 116.34 14.91 115.72 15.22L58.82 44.12L58.39 44.34C57.72 44.68 57.3 45.37 57.3 46.12V92.71C57.3 92.87 57.33 93.02 57.36 93.17H28.53C28.41 93.17 28.3 93.16 28.18 93.15V127.65C28.18 128.75 29.08 129.65 30.18 129.65H59.3C60.4 129.65 61.3 128.75 61.3 127.65V95.97L115.73 123.61C116.02 123.76 116.33 123.83 116.64 123.83C117 123.83 117.37 123.73 117.69 123.53C118.28 123.17 118.64 122.52 118.64 121.83V87.82C120.2 87.6 121.94 87.17 123.72 86.42C123.77 86.4 123.81 86.38 123.86 86.36C124.38 86.14 124.89 85.89 125.41 85.61C125.44 85.59 125.47 85.57 125.5 85.56C125.88 85.35 126.27 85.13 126.65 84.88L118.65 52.03V51.11H118.62ZM57.29 125.65H32.17V94.98L57.29 108.02V125.65ZM114.62 118.56L61.29 91.47V47.34L114.62 20.26V118.57V118.56Z" fill="currentColor" class="penny-illustration-border"/>
<path d="M32.1699 125.65H57.2899V108.02L32.1699 94.98V125.65Z" fill="currentColor" class="penny-illustration-background"/>
<path d="M61.2899 91.48L114.62 118.56V20.26L61.2899 47.35V91.48Z" fill="currentColor" class="penny-illustration-background"/>
</svg>
