<svg viewBox="0 0 144 144" fill="none" xmlns="http://www.w3.org/2000/svg">
<path d="M136.92 57.93C136.92 57.93 136.9 57.89 136.89 57.86C136.84 57.72 136.78 57.59 136.71 57.46C136.7 57.44 136.69 57.42 136.68 57.4C136.68 57.4 136.68 57.39 136.67 57.38C136.58 57.25 136.48 57.13 136.36 57.03C136.33 57.01 136.31 56.98 136.28 56.96C136.27 56.95 136.26 56.93 136.25 56.92L125.68 48.62C124.37 49.36 122.98 49.98 121.52 50.44L129.23 56.49H119.01V51.08C117.71 51.33 116.38 51.47 115.01 51.49V73L90.39 94.11L73.32 79.48C72.57 78.84 71.47 78.84 70.72 79.48L53.65 94.11L29.03 73V33.5H92.94C92.69 32.2 92.55 30.87 92.53 29.5H49.17L72.02 11.54L92.58 27.69C92.69 26.15 92.95 24.65 93.36 23.21L73.24 7.43C72.52 6.86 71.49 6.86 70.77 7.43L42.68 29.5H27.01C25.91 29.5 25.01 30.4 25.01 31.5V43.39L7.76002 56.93C7.76002 56.93 7.74002 56.96 7.73002 56.97C7.70002 56.99 7.68002 57.01 7.65002 57.04C7.53002 57.15 7.43002 57.26 7.34002 57.39C7.34002 57.39 7.34002 57.4 7.33002 57.41C7.32002 57.43 7.31002 57.45 7.30002 57.47C7.22002 57.59 7.17002 57.73 7.12002 57.87C7.12002 57.89 7.10002 57.91 7.09002 57.94C7.09002 57.96 7.09002 57.98 7.09002 58C7.05002 58.16 7.02002 58.33 7.02002 58.51V135.01C7.02002 135.01 7.02002 135.05 7.02002 135.07C7.02002 135.11 7.02002 135.14 7.03002 135.18C7.04002 135.34 7.07002 135.5 7.12002 135.64C7.12002 135.66 7.12002 135.68 7.13002 135.7C7.13002 135.71 7.14002 135.72 7.15002 135.73C7.22002 135.9 7.30002 136.05 7.41002 136.2C7.43002 136.23 7.46002 136.26 7.48002 136.29C7.59002 136.42 7.70002 136.53 7.84002 136.63C7.85002 136.63 7.86002 136.65 7.88002 136.66C8.02002 136.76 8.19002 136.83 8.35002 136.89C8.39002 136.9 8.43002 136.91 8.47002 136.93C8.64002 136.98 8.82002 137.01 9.01002 137.01H135.01C135.2 137.01 135.38 136.98 135.55 136.93C135.59 136.92 135.63 136.91 135.67 136.89C135.84 136.83 136 136.76 136.14 136.66C136.15 136.66 136.16 136.64 136.18 136.63C136.31 136.53 136.43 136.42 136.54 136.29C136.56 136.26 136.59 136.23 136.61 136.2C136.72 136.06 136.8 135.9 136.87 135.73C136.87 135.72 136.88 135.71 136.89 135.7C136.89 135.68 136.89 135.66 136.9 135.64C136.95 135.49 136.98 135.34 136.99 135.18C136.99 135.14 137 135.11 137 135.07C137 135.05 137 135.03 137 135.01V58.5C137 58.32 136.97 58.15 136.93 57.99C136.93 57.97 136.93 57.95 136.93 57.93H136.92ZM25 48.47V56.5H14.78L25 48.47ZM11 62.85L50.55 96.75L11 130.65V62.85ZM14.41 133L72 83.63L129.59 133H14.41ZM133 130.65L93.45 96.75L133 62.85V130.65Z" fill="currentColor" class="penny-illustration-border"/>
<path d="M63 47.5H40.5V51.5H63V47.5Z" fill="currentColor" class="penny-illustration-border"/>
<path d="M81 61H40.5V65H81V61Z" fill="currentColor" class="penny-illustration-border"/>
<path d="M92.5 29.25C92.5 29.33 92.5 29.42 92.5 29.5C92.52 30.87 92.65 32.2 92.91 33.5C94.9 43.74 103.93 51.5 114.75 51.5C114.83 51.5 114.92 51.5 115 51.5C116.37 51.48 117.7 51.35 119 51.09C119.86 50.92 120.69 50.71 121.51 50.45C122.97 49.98 124.36 49.37 125.67 48.63C132.43 44.81 137 37.56 137 29.25C137 16.98 127.02 7 114.75 7C104.57 7 95.97 13.87 93.34 23.22C92.93 24.66 92.67 26.16 92.56 27.7C92.52 28.21 92.5 28.73 92.5 29.25ZM112.75 34.34V24.17H110.83V20.17H114.75C115.85 20.17 116.75 21.07 116.75 22.17V34.34H118.67V38.34H110.82V34.34H112.75Z" fill="currentColor" class="penny-illustration-brand-primary"/>
<path d="M25 48.4698L14.78 56.4998H25V48.4698Z" fill="currentColor" class="penny-illustration-background"/>
<path d="M119 56.4998H129.22L121.51 50.4498C120.69 50.7098 119.85 50.9298 119 51.0898V56.4998Z" fill="currentColor" class="penny-illustration-background"/>
<path d="M92.56 27.6998L72 11.5498L49.15 29.5098H92.51C92.51 29.4298 92.51 29.3398 92.51 29.2598C92.51 28.7398 92.53 28.2198 92.57 27.7098L92.56 27.6998Z" fill="currentColor" class="penny-illustration-background"/>
<path d="M92.91 33.4998H29V73.0098L53.62 94.1198L70.69 79.4898C71.44 78.8498 72.54 78.8498 73.29 79.4898L90.36 94.1198L114.98 73.0098V51.4998C114.9 51.4998 114.81 51.4998 114.73 51.4998C103.91 51.4998 94.88 43.7398 92.89 33.4998H92.91ZM40.5 47.4998H63V51.4998H40.5V47.4998ZM81 64.9998H40.5V60.9998H81V64.9998Z" fill="currentColor" class="penny-illustration-background"/>
<path d="M133 130.65V62.8498L93.45 96.7498L133 130.65Z" fill="currentColor" class="penny-illustration-background"/>
<path d="M11 62.8498V130.65L50.55 96.7498L11 62.8498Z" fill="currentColor" class="penny-illustration-background"/>
<path d="M14.41 133H129.59L72 83.6298L14.41 133Z" fill="currentColor" class="penny-illustration-background"/>
<path d="M116.75 34.3398V22.1698C116.75 21.0698 115.85 20.1698 114.75 20.1698H110.83V24.1698H112.75V34.3398H110.83V38.3398H118.68V34.3398H116.75Z" fill="currentColor" class="penny-illustration-background"/>
</svg>
