<svg viewBox="0 0 144 144" fill="none" xmlns="http://www.w3.org/2000/svg">
<path d="M40.5 55.76V58.5H44.5V55.82C48.75 55 51.76 51.51 51.76 47.06C51.76 40.46 44.89 38.23 42.3 37.39L41.81 37.23C39.16 36.39 38.24 35.9 38.24 33.72C38.24 31.82 40.13 30.33 42.55 30.33C44.97 30.33 46.74 32.26 46.74 34.92H50.74C50.74 30.73 48.16 27.43 44.49 26.57V23.6H40.49V26.56C36.86 27.36 34.24 30.21 34.24 33.72C34.24 39.02 38.22 40.28 40.6 41.04L41.06 41.19C45.75 42.72 47.75 44.47 47.75 47.06C47.75 49.92 45.56 52 42.54 52C39.52 52 37.22 49.61 37.22 46.68H33.22C33.22 51.11 36.33 54.83 40.48 55.77L40.5 55.76Z" fill="currentColor" class="penny-illustration-border"/>
<path d="M67 70H35.5V74H67V70Z" fill="currentColor" class="penny-illustration-border"/>
<path d="M136.08 51.35C135.43 49.51 134.08 47.9 132.29 46.81L123 41.18L120.78 39.83C120.2 39.48 119.61 39.21 119 39C115.58 37.81 111.9 38.8 110.2 41.61L104.47 51.07C104.74 50.62 105.19 50.29 105.7 50.16C106.21 50.03 106.76 50.12 107.21 50.39L129.19 63.71C130.13 64.28 130.44 65.51 129.86 66.46L135.59 57C136.58 55.36 136.76 53.3 136.06 51.34L136.08 51.35Z" fill="currentColor" class="penny-illustration-brand-primary"/>
<path d="M129.2 63.72L107.22 50.4C106.77 50.12 106.22 50.04 105.71 50.17C105.19 50.3 104.75 50.62 104.48 51.08L84.82 83.51H35.5V87.51H82.39L76.26 97.62C76.07 97.93 75.97 98.29 75.97 98.66V111.96L75.59 124.01C75.57 124.73 75.94 125.41 76.55 125.78C76.87 125.97 77.23 126.07 77.59 126.07C77.93 126.07 78.27 125.98 78.57 125.81L89.08 119.9L92.86 117.93L118.99 105.46V133.02H51V107.76C51 106.66 50.1 105.76 49 105.76H24V11H119V39.01C119.6 39.22 120.2 39.49 120.78 39.84L123 41.19V9C123 7.9 122.1 7 121 7H22C20.9 7 20 7.9 20 9V107.74C20 107.87 20.01 107.99 20.04 108.11C20.04 108.11 20.04 108.12 20.04 108.13C20.07 108.3 20.14 108.46 20.21 108.62C20.23 108.66 20.25 108.69 20.27 108.73C20.36 108.88 20.46 109.03 20.58 109.16L47.58 136.42C47.67 136.52 47.78 136.6 47.89 136.67C47.95 136.71 48.01 136.73 48.07 136.76C48.13 136.79 48.18 136.83 48.24 136.85C48.31 136.88 48.39 136.9 48.46 136.92C48.51 136.93 48.56 136.96 48.62 136.97C48.74 136.99 48.86 137 48.98 137.01C48.99 137.01 49 137.01 49.01 137.01H121.01C122.11 137.01 123.01 136.11 123.01 135.01V77.81L129.88 66.47C130.45 65.53 130.15 64.3 129.21 63.72H129.2ZM88.21 115.84L79.98 110.85V102.2L95.88 111.84L88.21 115.84ZM99.28 109.22L80.72 97.97L106.85 54.85L125.41 66.1L99.28 109.22Z" fill="currentColor" class="penny-illustration-border"/>
<path d="M24 11V105.74H49C50.1 105.74 51 106.64 51 107.74V133H119V105.44L92.87 117.91L89.09 119.88L78.58 125.79C78.28 125.96 77.94 126.05 77.6 126.05C77.24 126.05 76.88 125.95 76.56 125.76C75.94 125.39 75.58 124.71 75.6 123.99L75.98 111.94V98.64C75.98 98.27 76.08 97.92 76.27 97.6L82.4 87.49H35.5V83.49H84.82L110.21 41.6C111.91 38.79 115.59 37.81 119.01 38.99V11H24ZM33.23 46.68H37.23C37.23 49.61 39.62 52 42.55 52C45.48 52 47.76 49.92 47.76 47.06C47.76 44.47 45.76 42.71 41.07 41.19L40.61 41.04C38.23 40.28 34.25 39.02 34.25 33.72C34.25 30.21 36.87 27.35 40.5 26.56V23.6H44.5V26.57C48.17 27.44 50.75 30.74 50.75 34.92H46.75C46.75 32.26 44.99 30.33 42.56 30.33C40.13 30.33 38.25 31.82 38.25 33.72C38.25 35.9 39.18 36.39 41.82 37.23L42.31 37.39C44.9 38.23 51.77 40.46 51.77 47.06C51.77 51.51 48.76 55 44.51 55.82V58.5H40.51V55.76C36.36 54.82 33.25 51.11 33.25 46.67L33.23 46.68ZM67 74H35.5V70H67V74Z" fill="currentColor" class="penny-illustration-background"/>
<path d="M106.859 54.8521L80.7245 97.9704L99.282 109.218L125.416 66.0997L106.859 54.8521Z" fill="currentColor" class="penny-illustration-background"/>
<path d="M79.98 110.85L88.21 115.84L95.88 111.84L79.98 102.2V110.85Z" fill="currentColor" class="penny-illustration-background"/>
</svg>
