<svg xmlns="http://www.w3.org/2000/svg" fill="none" viewBox="0 0 24 24">
  <g clip-path="url(#andorra__a)">
    <path fill="#FFDA44" d="M6.783 22.81A11.953 11.953 0 0 0 12 24c1.87 0 3.64-.428 5.217-1.19L18.261 12 17.217 1.19A11.953 11.953 0 0 0 12 0c-1.87 0-3.64.428-5.217 1.19L5.739 12l1.044 10.81Z"/>
    <path fill="#D80027" d="M17.217 22.809A12 12 0 0 0 24 12a12 12 0 0 0-6.783-10.809V22.81Z"/>
    <path fill="#0052B4" d="M6.783 22.809V1.19A12 12 0 0 0 0 12a12 12 0 0 0 6.783 10.809Z"/>
    <path fill="#D80027" d="M12 16.174V12h3.13v1.565c0 .272-.521 1.269-1.81 2.087-.487.31-.992.41-1.32.522ZM8.87 8.87H12V12H8.87V8.87Z"/>
    <path fill="#FF9811" d="M13.565 7.826A1.043 1.043 0 0 0 12 6.923a1.043 1.043 0 0 0-1.565.903H7.826v5.218c0 1.942 1.543 3.065 2.752 3.647A1.043 1.043 0 0 0 12 18.12a1.043 1.043 0 0 0 1.422-1.429c1.21-.582 2.752-1.705 2.752-3.648V7.827h-2.609Zm1.044 5.218c0 .271 0 1.099-1.288 1.917-.488.31-.993.512-1.321.623a6.318 6.318 0 0 1-1.32-.623c-1.289-.818-1.289-1.646-1.289-1.918V9.392h5.218v3.652Z"/>
  </g>
  <defs>
    <clipPath id="andorra__a">
      <path fill="#fff" d="M0 12C0 5.373 5.373 0 12 0s12 5.373 12 12-5.373 12-12 12S0 18.627 0 12Z"/>
    </clipPath>
  </defs>
</svg>
