<svg xmlns="http://www.w3.org/2000/svg" fill="none" viewBox="0 0 24 24">
  <g clip-path="url(#bahrain__a)">
    <path fill="#EDEDED" d="M12 24c6.627 0 12-5.373 12-12S18.627 0 12 0 0 5.373 0 12s5.373 12 12 12Z"/>
    <path fill="#D80027" d="M12 0C9.592 0 7.35.71 5.47 1.931L8.557 4 4.696 6l3.86 2-3.86 2 3.86 2-3.86 2 3.86 2-3.86 2 3.86 2-3.086 2.069A11.942 11.942 0 0 0 12 24c6.627 0 12-5.373 12-12S18.627 0 12 0Z"/>
  </g>
  <defs>
    <clipPath id="bahrain__a">
      <path fill="#fff" d="M0 12C0 5.373 5.373 0 12 0s12 5.373 12 12-5.373 12-12 12S0 18.627 0 12Z"/>
    </clipPath>
  </defs>
</svg>
