<svg xmlns="http://www.w3.org/2000/svg" fill="none" viewBox="0 0 24 24">
  <g clip-path="url(#burundi__a)">
    <path fill="#EDEDED" d="M12 24c6.627 0 12-5.373 12-12S18.627 0 12 0 0 5.373 0 12s5.373 12 12 12Z"/>
    <path fill="#D80027" d="M19.307 2.48a12.006 12.006 0 0 0-14.614 0L12 9.786l7.307-7.306ZM12 14.214 4.693 21.52a12.006 12.006 0 0 0 14.614 0L12 14.214Z"/>
    <path fill="#6DA544" d="M9.786 12 2.48 4.693a12.006 12.006 0 0 0 0 14.614L9.786 12Zm4.428 0 7.306 7.307a12.006 12.006 0 0 0 0-14.614L14.214 12Z"/>
    <path fill="#EDEDED" d="M12 17.217a5.217 5.217 0 1 0 0-10.434 5.217 5.217 0 0 0 0 10.434Z"/>
    <path fill="#D80027" d="m12 8.348.452.782h.903l-.451.783.451.783h-.903l-.452.782-.452-.782h-.904l.452-.783-.452-.783h.904L12 8.348ZM9.703 12l.452.783h.904l-.452.782.452.783h-.904l-.452.782-.452-.782h-.903l.452-.783-.452-.782h.903L9.703 12Zm4.594 0 .451.783h.904l-.452.782.452.783h-.903l-.452.782-.452-.782h-.904l.452-.783-.452-.782h.904l.452-.783Z"/>
  </g>
  <defs>
    <clipPath id="burundi__a">
      <path fill="#fff" d="M0 12C0 5.373 5.373 0 12 0s12 5.373 12 12-5.373 12-12 12S0 18.627 0 12Z"/>
    </clipPath>
  </defs>
</svg>
