<svg xmlns="http://www.w3.org/2000/svg" fill="none" viewBox="0 0 24 24">
  <path fill="#EDEDED" d="M0 12C0 5.373 5.373 0 12 0s12 5.373 12 12-5.373 12-12 12S0 18.627 0 12Z"/>
  <g clip-path="url(#saint-barthelemy__a)">
    <path fill="#EDEDED" d="M0 20h24V4H0v16Z"/>
    <path fill="#CE0F25" d="M16.872 14.095c.274.647.156 1.156 0 1.652.396-.143 1.238-.538 1.137-1.03-.177-.43-.726-.536-1.137-.622Z"/>
    <path stroke="#221B0F" stroke-width=".026" d="M16.872 14.095c.274.647.156 1.156 0 1.652.396-.143 1.238-.538 1.137-1.03-.177-.43-.726-.536-1.137-.622Z"/>
    <path fill="#FAF8F0" d="M15.467 16.893c.25-.08.422-.173.835-.23.17-.024.63.004.896-.079.257-.08.405-.155.412-.284.013-.23.088-.495.179-.734.128-.342.285-.618.31-.71.022-.088-.017-.175-.075-.255-.225-.312-.73-.54-1.179-.54l.02.077c.345.006 1.03.266 1.07.612.063.523-1.703.602-2.684.796 0 0-.253.062-.339.151-.06.063-.092.226-.028.286.448.427.583.91.583.91Z"/>
    <path stroke="#221B0F" stroke-width=".026" d="M15.467 16.893c.25-.08.422-.173.835-.23.17-.024.63.004.896-.079.257-.08.405-.155.412-.284.013-.23.088-.495.179-.734.128-.342.285-.618.31-.71.022-.088-.017-.175-.075-.255-.225-.312-.73-.54-1.179-.54l.02.077c.345.006 1.03.266 1.07.612.063.523-1.703.602-2.684.796 0 0-.253.062-.339.151-.06.063-.092.226-.028.286.448.427.583.91.583.91Z"/>
    <path fill="#F6E4BE" d="M17.935 15.074c-.66.427-1.552.458-2.33.529l-.497.504.455.67s.506-.167.768-.207c.186-.029.394-.003.58-.033.157-.026.298-.012.404-.133.123-.14.117-.395.182-.57.041-.111.108-.204.194-.336.138-.212.244-.424.244-.424Z"/>
    <path fill="#CE0F25" d="M15.228 17.18c.122-.588-.256-.82-.459-1.177 0 0 .219.09.335.106.217.029.343.024.657-.026.258-.042.474-.172.654-.09a.09.09 0 0 1 .047.068c.012.084-.037.17-.086.239-.268.38-1.148.88-1.148.88Z"/>
    <path stroke="#221B0F" stroke-width=".026" d="M15.228 17.18c.122-.588-.256-.82-.459-1.177 0 0 .219.09.335.106.217.029.343.024.657-.026.258-.042.474-.172.654-.09a.09.09 0 0 1 .047.068c.012.084-.037.17-.086.239-.268.38-1.148.88-1.148.88Z"/>
    <path fill="#CE0F25" d="M7.126 14.095c-.275.647-.156 1.156 0 1.652-.396-.143-1.238-.538-1.137-1.03.177-.43.726-.536 1.137-.622Z"/>
    <path stroke="#221B0F" stroke-width=".026" d="M7.126 14.095c-.275.647-.156 1.156 0 1.652-.396-.143-1.238-.538-1.137-1.03.177-.43.726-.536 1.137-.622Z"/>
    <path fill="#FAF8F0" d="M8.53 16.893c-.25-.08-.42-.173-.834-.23-.17-.024-.63.004-.896-.079-.257-.08-.405-.155-.412-.284a2.62 2.62 0 0 0-.179-.734c-.129-.342-.285-.618-.31-.71-.022-.088.017-.175.075-.255.225-.312.73-.54 1.179-.54l-.02.077c-.345.006-1.03.266-1.07.612-.063.523 1.703.602 2.684.796 0 0 .252.062.339.151.06.063.092.226.028.286-.448.427-.584.91-.584.91Z"/>
    <path stroke="#221B0F" stroke-width=".026" d="M8.53 16.893c-.25-.08-.42-.173-.834-.23-.17-.024-.63.004-.896-.079-.257-.08-.405-.155-.412-.284a2.62 2.62 0 0 0-.179-.734c-.129-.342-.285-.618-.31-.71-.022-.088.017-.175.075-.255.225-.312.73-.54 1.179-.54l-.02.077c-.345.006-1.03.266-1.07.612-.063.523 1.703.602 2.684.796 0 0 .252.062.339.151.06.063.092.226.028.286-.448.427-.584.91-.584.91Z"/>
    <path fill="#F6E4BE" d="M6.063 15.074c.66.427 1.552.458 2.33.529l.497.504-.455.67s-.506-.167-.769-.207c-.185-.029-.393-.003-.578-.033-.159-.026-.3-.012-.405-.133-.123-.14-.117-.395-.182-.57-.041-.111-.108-.204-.194-.336-.138-.212-.244-.424-.244-.424Z"/>
    <path fill="#CE0F25" d="M8.77 17.18c-.122-.588.255-.82.459-1.177 0 0-.22.09-.335.106-.218.029-.343.024-.658-.026-.257-.042-.474-.172-.653-.09a.09.09 0 0 0-.048.068c-.011.084.038.17.086.239.27.38 1.148.88 1.148.88Z"/>
    <path stroke="#221B0F" stroke-width=".026" d="M8.77 17.18c-.122-.588.255-.82.459-1.177 0 0-.22.09-.335.106-.218.029-.343.024-.658-.026-.257-.042-.474-.172-.653-.09a.09.09 0 0 0-.048.068c-.011.084.038.17.086.239.27.38 1.148.88 1.148.88Z"/>
    <path fill="#FAF8F0" d="M7.815 17.906c-.114-.074-.244-.146-.316-.256a.35.35 0 0 1-.05-.268c.134-.515.106-.79.013-1.18-.03-.126-.06-.316.097-.307.404.021.857.15 1.183.139.132-.005.331-.031.348-.176.02-.173-.422-.325-.422-.325.263.03.48.139.555.292a.226.226 0 0 1-.023.209c-.077.113-.223.143-.359.162-.27.036-.728-.038-.988-.088-.117-.022-.158-.04-.178-.024-.051.04.019.121.182.274.33.308.714.56 1.111.776 1.081.588 1.908.776 3.03.776 1.124 0 1.95-.188 3.031-.776a5.385 5.385 0 0 0 1.112-.776c.163-.153.233-.234.182-.274-.02-.017-.061.002-.179.024-.259.05-.717.124-.987.088-.136-.019-.283-.05-.36-.162-.039-.058-.053-.146-.022-.209.074-.153.292-.262.554-.292 0 0-.442.153-.421.325.017.145.215.171.348.176.325.012.778-.117 1.182-.14.158-.008.127.182.097.308-.092.39-.12.665.013 1.18a.35.35 0 0 1-.049.268c-.072.11-.202.182-.317.256-1.328.852-2.822 1.289-4.183 1.289-1.362 0-2.855-.438-4.184-1.29Z"/>
    <path stroke="#221B0F" stroke-width=".026" d="M7.815 17.906c-.114-.074-.244-.146-.316-.256a.35.35 0 0 1-.05-.268c.134-.515.106-.79.013-1.18-.03-.126-.06-.316.097-.307.404.021.857.15 1.183.139.132-.005.331-.031.348-.176.02-.173-.422-.325-.422-.325.263.03.48.139.555.292a.226.226 0 0 1-.023.209c-.077.113-.223.143-.359.162-.27.036-.728-.038-.988-.088-.117-.022-.158-.04-.178-.024-.051.04.019.121.182.274.33.308.714.56 1.111.776 1.081.588 1.908.776 3.03.776 1.124 0 1.95-.188 3.031-.776a5.385 5.385 0 0 0 1.112-.776c.163-.153.233-.234.182-.274-.02-.017-.061.002-.179.024-.259.05-.717.124-.987.088-.136-.019-.283-.05-.36-.162-.039-.058-.053-.146-.022-.209.074-.153.292-.262.554-.292 0 0-.442.153-.421.325.017.145.215.171.348.176.325.012.778-.117 1.182-.14.158-.008.127.182.097.308-.092.39-.12.665.013 1.18a.35.35 0 0 1-.049.268c-.072.11-.202.182-.317.256-1.328.852-2.822 1.289-4.183 1.289-1.362 0-2.855-.438-4.184-1.29Z"/>
    <path fill="#F6E4BE" d="M16.318 17.706s.09-.089.106-.165c.041-.189-.055-.384-.059-.577a7.427 7.427 0 0 1 .036-.625c-.517.493-1.942 1.741-4.402 1.741a6.348 6.348 0 0 1-4.402-1.741s.04.416.036.625c-.005.193-.1.388-.06.577a.444.444 0 0 0 .107.165c1.355.87 2.802 1.403 4.319 1.403s2.964-.532 4.319-1.403Z"/>
    <path fill="#000" d="M9.366 18.093c.047-.134.198-.277.44-.192.2.07.286.227.223.407-.063.18-.241.278-.446.207a.321.321 0 0 1-.217-.422Zm.54.205c.061-.176-.004-.322-.137-.368-.092-.032-.215-.018-.284.178-.057.163-.01.325.145.38.057.019.197.038.276-.19Zm.286-.006c.03-.124.035-.146.04-.173.005-.027.001-.042-.025-.054a.181.181 0 0 0-.032-.01c-.009-.003-.013-.006-.012-.011.001-.006.008-.006.02-.003.044.01.096.026.12.031l.103.022c.013.003.018.006.017.012-.002.006-.007.006-.015.004a.133.133 0 0 0-.025-.003c-.023-.001-.033.01-.042.039a3.082 3.082 0 0 0-.042.171l-.028.113c-.028.118-.016.173.017.215a.16.16 0 0 0 .096.058.17.17 0 0 0 .125-.016c.056-.033.076-.106.096-.19l.025-.1c.03-.124.035-.146.04-.173.004-.028 0-.042-.025-.054a.17.17 0 0 0-.03-.01c-.009-.002-.013-.005-.012-.01.001-.006.008-.007.02-.004.042.01.093.025.094.026.01.002.063.012.095.02.012.003.017.006.016.011-.002.006-.007.006-.017.004a.093.093 0 0 0-.024-.003c-.024-.002-.034.01-.042.038a3.111 3.111 0 0 0-.043.172l-.02.086c-.023.09-.055.184-.138.226a.26.26 0 0 1-.187.017c-.044-.011-.123-.033-.17-.1-.034-.048-.051-.116-.023-.233l.028-.118Zm.742.339c-.004 0-.006 0-.008.006l-.062.106a.16.16 0 0 0-.02.049c-.002.014.004.026.03.03l.013.002c.01.001.012.003.012.008-.001.007-.006.008-.016.006l-.089-.015-.1-.012c-.011-.001-.016-.004-.015-.01 0-.005.004-.006.011-.005l.027.002c.04 0 .06-.025.082-.064l.286-.481c.013-.023.02-.031.028-.03.008.001.011.01.017.03.014.048.102.397.138.53.021.08.044.094.061.1a.185.185 0 0 0 .035.01c.007 0 .011.002.01.007 0 .007-.008.008-.04.003l-.16-.024c-.014-.003-.024-.005-.024-.01.001-.006.005-.007.013-.006.006-.001.014-.008.01-.018l-.043-.18c0-.004-.003-.006-.007-.007l-.188-.027Zm.179-.017c.004.001.005-.001.005-.004l-.047-.214c0-.003 0-.007-.003-.008-.003 0-.005.004-.006.007l-.107.19c-.002.004-.001.007.002.007l.156.022Zm.442.19c-.001.065.01.088.026.094a.14.14 0 0 0 .044.007c.01 0 .015.003.014.008 0 .006-.007.008-.02.007-.055-.002-.089-.006-.105-.006l-.092-.001c-.011 0-.02-.001-.019-.009 0-.005.006-.006.014-.006.011 0 .027 0 .039-.003.022-.006.026-.03.03-.102l.025-.49c0-.017.004-.029.012-.028.01 0 .017.011.03.027.01.01.135.149.256.274.056.059.167.183.18.197h.005l.005-.375c0-.05-.006-.066-.027-.075a.143.143 0 0 0-.044-.007c-.01 0-.014-.003-.014-.008 0-.007.01-.007.023-.007l.103.007c.009 0 .042-.002.083 0 .011 0 .02.002.02.008 0 .005-.006.008-.016.007-.009 0-.015 0-.026.002-.024.006-.031.023-.034.07l-.028.524c0 .019-.004.026-.012.026-.01 0-.02-.01-.028-.02-.052-.051-.158-.164-.243-.253-.09-.094-.18-.199-.196-.215h-.002l-.003.347Zm.815-.095c-.005 0-.006.002-.008.007l-.037.117a.156.156 0 0 0-.01.052c.002.015.01.025.037.023h.012c.01-.002.013 0 .013.005.001.007-.004.009-.013.01l-.09.004-.101.01c-.011 0-.016-.001-.017-.008 0-.005.003-.007.01-.007.008 0 .02-.003.026-.004.039-.008.053-.037.067-.08l.176-.53c.009-.026.013-.035.022-.036.007 0 .013.007.023.025.024.044.184.367.248.49.038.072.063.082.081.085a.184.184 0 0 0 .036 0c.007 0 .011 0 .012.006 0 .007-.007.009-.039.011-.03.003-.093.007-.16.01-.016 0-.026.001-.027-.005 0-.004.003-.006.012-.008.005-.002.01-.01.006-.02l-.08-.166a.011.011 0 0 0-.01-.005l-.19.014Zm.17-.054c.004 0 .005-.003.004-.006l-.091-.199c-.002-.003-.003-.007-.005-.007-.003 0-.004.005-.005.008l-.063.21c-.001.003 0 .005.003.005l.157-.011Zm.504-.047c.017.105.025.162.045.174.017.01.04.012.105.002.045-.007.078-.013.095-.039a.103.103 0 0 0 .014-.053c0-.007.001-.012.008-.013.006-.001.007.003.009.013a.7.7 0 0 1 .002.096c-.002.02-.006.024-.05.03-.06.01-.104.016-.142.02a2.176 2.176 0 0 0-.152.023l-.057.01c-.011.002-.018 0-.019-.005 0-.004.003-.007.013-.009a.14.14 0 0 0 .03-.008c.016-.006.017-.024.017-.049-.001-.035-.012-.1-.023-.176l-.023-.145a2.818 2.818 0 0 0-.03-.174c-.005-.028-.014-.04-.043-.041-.007 0-.017 0-.028.002-.01.001-.015 0-.016-.005 0-.006.005-.009.018-.01.04-.007.093-.013.116-.017l.114-.02c.012-.002.018-.001.019.005 0 .005-.004.008-.014.01a.218.218 0 0 0-.033.007c-.022.008-.026.023-.024.052l.026.175.023.145Zm.47-.059c-.004.001-.005.003-.006.008l-.018.122a.157.157 0 0 0 0 .053c.003.014.013.023.039.017l.012-.003c.01-.003.013-.002.014.003.002.007-.003.01-.012.012l-.088.018c-.01.003-.055.016-.098.026-.01.003-.016.003-.017-.004-.002-.005.001-.007.008-.009a.27.27 0 0 0 .025-.007c.037-.015.046-.046.053-.09l.087-.553c.004-.026.007-.036.015-.038.008-.002.014.004.027.02.03.04.242.332.325.443.05.065.076.07.094.07a.195.195 0 0 0 .036-.005c.007-.002.011-.002.012.004.002.006-.005.01-.036.017l-.157.037c-.015.002-.025.005-.027 0 0-.006.002-.008.01-.01.006-.004.01-.013.003-.021l-.106-.151c-.003-.004-.006-.005-.01-.004l-.185.045Zm.16-.081c.003-.002.004-.004.002-.006l-.123-.181c-.001-.003-.003-.007-.006-.007-.002 0-.003.005-.003.009l-.028.217c0 .003.001.005.005.004l.152-.037Zm.278-.131c-.046-.135-.014-.34.228-.423.201-.069.366.002.427.183.062.18-.019.368-.224.438a.321.321 0 0 1-.43-.198Zm.552-.172c-.06-.177-.202-.25-.334-.206-.093.032-.182.119-.115.315.056.164.194.263.349.21.056-.02.178-.091.1-.319Z"/>
    <path fill="#666" d="M15.385 7.446h-6.77v.479h6.77v-.48Z"/>
    <path stroke="#520" stroke-width=".026" d="M15.385 7.446h-6.77v.479h6.77v-.48Z"/>
    <path fill="#EACE24" stroke="#806600" stroke-width=".051" d="m8.615 7.925-.767-1.803-.128.039-.282-.645.517-.152.117.302.25-.074-.107-.296.526-.122.094.31.259-.05-.09-.313.528-.092.072.315.35-.05.03.159.13-.016-.027-.159.267-.034.028.16.13-.013-.02-.162.266-.024.023.162.258-.02-.047-.48.536-.027.017.316.256-.004-.005-.319h.538l-.008.323.26.005.018-.32.535.023-.05.486.26.018.022-.16.265.024-.021.16.133.013.025-.156.266.028-.025.16.132.019.031-.16.346.051.073-.317.527.092-.082.318.25.049.096-.313.525.119-.11.309.251.068.121-.309.519.148-.282.645-.222-.074-.78 1.843c-2.155-.62-4.713-.623-6.794 0Z"/>
    <path fill="#5E520E" d="M11.84 6.433v-.571c0-.229.412-.229.412 0v.571"/>
    <path stroke="#520" stroke-width=".026" d="M11.84 6.433v-.571c0-.229.412-.229.412 0v.571"/>
    <path fill="#5E520E" d="m8.838 6.822-.177-.553c-.07-.22.326-.31.397-.088l.178.552"/>
    <path stroke="#520" stroke-width=".026" d="m8.838 6.822-.177-.553c-.07-.22.326-.31.397-.088l.178.552"/>
    <path fill="#5E520E" d="m14.824 6.712.177-.552c.071-.221.469-.132.398.088l-.178.552"/>
    <path stroke="#520" stroke-width=".026" d="m14.824 6.712.177-.552c.071-.221.469-.132.398.088l-.178.552"/>
    <path stroke="#806600" stroke-width=".026" d="m13.183 7.062-.023.2m-4.633.45a12.683 12.683 0 0 1 6.977-.029m-7.06-.153a12.959 12.959 0 0 1 7.135-.03m-7.207-.154c2.357-.691 4.925-.7 7.29-.027m-7.365-.14a13.49 13.49 0 0 1 7.425-.032m-1.643.02-.041.195m1.222.058-.066.181m-.432-.302-.057.184m-.655-.514-.04.192m.45-.122-.05.183m.52-.088-.057.183m.582-.053-.07.182m-.566-.52-.05.167m.65-.032-.065.176m-.162-.229-.059.169m-.845-.347-.041.174m-.268-.232-.037.183m-1.046.09-.017.192m.706-.132-.032.188m-.81-.455-.013.194m.367-.174-.02.191m.62-.123-.033.185m-.098-.388-.028.175m-.328-.207-.022.18m-.526-.225-.011.179m-3.306.48.055.178m3.102-.462-.01.199m-3.504.168.064.182m2.035-.519.02.194m.465-.215.01.188m-1.07-.114.034.192m1.354-.275.003.192m-2.09-.003.046.19m-.696-.258.06.186m.4-.281.05.184m.237-.235.043.19m.375-.253.035.188m.54-.245.024.193m.428-.227.015.197m.387-.21.007.19m.56-.202-.005.191m-3.594.242.07.186m3.424-.798-.003.184m-.405-.18.005.177m-.378-.162.012.177m-.705-.123.025.179m-.567-.118.034.172m-.413-.116.043.175m-.488-.093.05.169m-.712-.027.066.18m5.464-.625.205-.955M8.22 6.98c2.456-.72 5.13-.73 7.594-.028m-2.839-1.216c.477.03.956.082 1.426.158m-1.248-.54-.018.148c-.704-.05-1.42-.05-2.124 0l-.019-.152m-1.282.544c.465-.075.95-.127 1.422-.157m-1.483-.082.22.953M11.2 6.46l-.093-.964m1.88-.002-.052.967M9.669 5.334l.067.31c-.69.107-1.356.317-2.016.517m6.68-.832-.064.307c.708.107 1.4.315 2.075.52"/>
    <path fill="#1353B4" stroke="#540" stroke-width=".051" d="M8.615 7.925a114.337 114.337 0 0 0 0 3.463c.016 1.112.07 1.98.56 2.659.59.817 1.573 1.407 2.837 1.987 1.264-.58 2.247-1.17 2.837-1.987.49-.679.544-1.547.56-2.659a114.22 114.22 0 0 0 0-3.463H8.615Z"/>
    <path fill="#CE0F25" d="M15.314 12.832c.003-.289.063-.426.063-.714.03-.58.041-1.155.032-1.732H8.615c-.01.577.002 1.147.032 1.732 0 .288.062.425.064.714h6.603Z"/>
    <path stroke="#540" stroke-width=".051" d="M8.605 10.37h6.814m-6.712 2.462h6.607"/>
    <path fill="#fff" stroke="#000" stroke-width=".021" d="m11.165 11.963.825-.336-.336.825.367-.245.366.245-.336-.825.825.336-.244-.367.244-.366-.825.336.336-.825-.366.244-.367-.244.336.825-.825-.336.245.366-.245.367Z"/>
    <path fill="#EACE24" d="M6.564 14.19c-.008 1-.017 1.035-.017 1.035.438.43.49.586.62.726.167-.244.428-.146.428-.146.053-.23.332-.43.332-.43-.39-.03-1.062-.23-1.115-.31C6.636 14.802 6.88 14 6.88 14l-.315.19Z"/>
    <path stroke="#806600" stroke-width=".026" d="M6.564 14.19c-.008 1-.017 1.035-.017 1.035.438.43.49.586.62.726.167-.244.428-.146.428-.146.053-.23.332-.43.332-.43-.39-.03-1.062-.23-1.115-.31C6.636 14.802 6.88 14 6.88 14l-.315.19Z"/>
    <path fill="#EACE24" d="m7.525 15.756-.432-.332.513.307"/>
    <path stroke="#806600" stroke-width=".026" d="m7.525 15.756-.432-.332.513.307"/>
    <path fill="#EACE24" stroke="#000" stroke-width=".026" d="M6.884 13.715s.54-.22 1.095.168a.267.267 0 0 0 .134.004c.107-.115.35-.453.538-.409.014-.285-.019-1.426-.019-1.426-.081-.004-.11.156-.11.156.048.325-.14 2.303-.91.995l-.544.056-.184.456Z"/>
    <path stroke="#806600" stroke-width=".026" d="M6.884 13.715s.54-.22 1.095.168a.267.267 0 0 0 .134.004c.107-.115.35-.453.538-.409.014-.285-.019-1.426-.019-1.426-.081-.004-.11.156-.11.156.048.325-.14 2.303-.91.995l-.544.056-.184.456Z"/>
    <path fill="#EACE24" d="M6.588 9.142c.464.168.47.257.93.664.367.146.914.504.945.583l-.03.117c.071.044.138-.12.138-.12-.07-.402-1.364-1.615-1.364-1.615l-.57.12-.05.25Z"/>
    <path stroke="#806600" stroke-width=".026" d="M6.588 9.142c.464.168.47.257.93.664.367.146.914.504.945.583l-.03.117c.071.044.138-.12.138-.12-.07-.402-1.364-1.615-1.364-1.615l-.57.12-.05.25Z"/>
    <path stroke="#000" stroke-width=".026" d="m7.025 8.961 1.455 1.337.031.097m-1.168-.938c.146.257.416.35.416.35"/>
    <path fill="#fff" d="M6.755 8.619c-.006-.482.563-.801.563-.845-.056-.344-.87.475-.913.582-.05.155.062.344.062.344"/>
    <path stroke="#000" stroke-width=".026" d="M6.755 8.619c-.006-.482.563-.801.563-.845-.056-.344-.87.475-.913.582-.05.155.062.344.062.344"/>
    <path fill="#fff" d="M6.912 7.987c-.17.137-.307.588-.307.588l.307-.588Z"/>
    <path stroke="#000" stroke-width=".026" d="M6.912 7.987c-.17.137-.307.588-.307.588"/>
    <path fill="#fff" d="M6.492 8.612c-.068-.463.282-.863.257-.876-.215-.107-.494.463-.576.651l.107.638"/>
    <path stroke="#000" stroke-width=".026" d="M6.492 8.612c-.068-.463.282-.863.257-.876-.215-.107-.494.463-.576.651l.107.638"/>
    <path fill="#fff" d="M6.38 8.23c-.088.226.006.532.006.532l-.006-.531Z"/>
    <path stroke="#000" stroke-width=".026" d="M6.38 8.23c-.088.226.006.532.006.532"/>
    <path fill="#fff" d="M6.31 8.856c-.112-.112-.005-.92-.037-.92-.237 0-.363.776-.313.94.163.527.295.619.295.619"/>
    <path stroke="#000" stroke-width=".026" d="M6.31 8.856c-.112-.112-.005-.92-.037-.92-.237 0-.363.776-.313.94.163.527.295.619.295.619"/>
    <path fill="#fff" d="M6.098 8.581c-.019.238.17.532.17.532l-.17-.532Z"/>
    <path stroke="#000" stroke-width=".026" d="M6.098 8.581c-.019.238.17.532.17.532"/>
    <path fill="#fff" d="M6.255 9.45c-.3-.28-.353-1.036-.395-1.113-.321.063-.156.863-.156.863.006.063.425.564.425.564"/>
    <path stroke="#000" stroke-width=".026" d="M6.255 9.45c-.3-.28-.353-1.036-.395-1.113-.321.063-.156.863-.156.863.006.063.425.564.425.564"/>
    <path fill="#fff" d="M5.823 8.838c-.107.212.375.844.375.844l-.375-.844Z"/>
    <path stroke="#000" stroke-width=".026" d="M5.823 8.838c-.107.212.375.844.375.844"/>
    <path fill="#fff" stroke="#000" stroke-width=".026" d="M6.63 11.24s-.081-1.088.056-1.251l-.406-.6-.526 1.044.476.87.4-.063Z"/>
    <path stroke="#000" stroke-width=".026" d="M6.63 11.24s-.081-1.088.056-1.251l-.406-.6-.526 1.044.476.87.4-.063Z"/>
    <path fill="#fff" d="M6.247 13.613c.178.228.265.743.265.743l.054-.168c.025.016.04.146.075.146.015 0 .013-.134.048-.142.016-.003.006.186.04.186.028 0 .03-.134.04-.128.022.015.027.179.044.093-.025-.88 1.699-1.599 1.664-2.584.044-1.02-1.053-1.407-1.726-2.265 0 0-.189-.563.16-.315.281-.043.256-.322.256-.322h.155c.069-.601-.535-.46-.535-.46-.56 0-.61.579-.61.579-.145.754.832 1.652.832 1.652.144.313-.001.852-.001.852l-1.36 1.281"/>
    <path stroke="#000" stroke-width=".026" d="M6.247 13.613c.178.228.265.743.265.743l.054-.168c.025.016.04.146.075.146.015 0 .013-.134.048-.142.016-.003.006.186.04.186.028 0 .03-.134.04-.128.022.015.027.179.044.093-.025-.88 1.699-1.599 1.664-2.584.044-1.02-1.053-1.407-1.726-2.265 0 0-.189-.563.16-.315.281-.043.256-.322.256-.322h.155c.069-.601-.535-.46-.535-.46-.56 0-.61.579-.61.579-.145.754.832 1.652.832 1.652.144.313-.001.852-.001.852l-1.36 1.281"/>
    <path fill="#fff" d="M5.664 12.751c-.075.09-.46.548-.555.708-.133.146.126.105.126.105s-.382.404-.568.522c.057.17.424-.077.424-.077s-.357.22-.338.263c.109.083.425-.15.425-.15s-.075.106-.012.144c.106 0 .35-.194.35-.194s-.05.113.006.131c.102-.064.739-.594.739-.594"/>
    <path stroke="#000" stroke-width=".026" d="M5.664 12.751c-.075.09-.46.548-.555.708-.133.146.126.105.126.105s-.382.404-.568.522c.057.17.424-.077.424-.077s-.357.22-.338.263c.109.083.425-.15.425-.15s-.075.106-.012.144c.106 0 .35-.194.35-.194s-.05.113.006.131c.102-.064.739-.594.739-.594M5.91 12.48s-.19.253-.062.213"/>
    <path fill="#fff" d="M5.883 11.826c-.155.3-.352.797-.137 1.017.07.023.26-.706.407-.774l.12-.407"/>
    <path stroke="#000" stroke-width=".026" d="M5.883 11.826c-.155.3-.352.797-.137 1.017.07.023.26-.706.407-.774l.12-.407"/>
    <path fill="#fff" d="M6.123 11.79c.081 0-.162.164-.25.389l.25-.388Z"/>
    <path stroke="#000" stroke-width=".026" d="M6.123 11.79c.081 0-.162.164-.25.389"/>
    <path fill="#fff" d="M6.188 11.848c-.119.562-.008.681.04.686.071-.036.195-.549.337-.58"/>
    <path stroke="#000" stroke-width=".026" d="M6.188 11.848c-.119.562-.008.681.04.686.071-.036.195-.549.337-.58"/>
    <path fill="#fff" d="M5.582 9.246c-.495-.464-.562-.995-.615-1-.234-.019.08.943.08.943l.593.473"/>
    <path stroke="#000" stroke-width=".026" d="M5.582 9.246c-.495-.464-.562-.995-.615-1-.234-.019.08.943.08.943l.593.473"/>
    <path fill="#fff" d="M5.504 9.363s-.238-.181-.363-.425l.363.425Z"/>
    <path stroke="#000" stroke-width=".026" d="M5.504 9.363s-.238-.181-.363-.425"/>
    <path fill="#fff" d="M5.582 9.583c-.734-.407-.823-1.071-.885-1.049-.226.09.062.7.062.7.04.167.624.694.624.694"/>
    <path stroke="#000" stroke-width=".026" d="M5.582 9.583c-.734-.407-.823-1.071-.885-1.049-.226.09.062.7.062.7.04.167.624.694.624.694"/>
    <path fill="#fff" d="M5.441 9.776s-.313-.231-.563-.613l.563.613Z"/>
    <path stroke="#000" stroke-width=".026" d="M5.441 9.776s-.313-.231-.563-.613"/>
    <path fill="#fff" d="M5.357 9.88c-.88-.488-.899-1.045-.996-1.01-.209.567.558 1.102 1.097 1.505"/>
    <path stroke="#000" stroke-width=".026" d="M5.357 9.88c-.88-.488-.899-1.045-.996-1.01-.209.567.558 1.102 1.097 1.505"/>
    <path fill="#fff" d="M5.404 10.12s-.4-.144-.651-.525l.65.525Z"/>
    <path stroke="#000" stroke-width=".026" d="M5.404 10.12s-.4-.144-.651-.525"/>
    <path fill="#fff" d="M5.44 10.361c-.765-.243-1.134-.956-1.23-.92-.22.084.244.681.244.681.376.35.995.607.995.607"/>
    <path stroke="#000" stroke-width=".026" d="M5.44 10.361c-.765-.243-1.134-.956-1.23-.92-.22.084.244.681.244.681.376.35.995.607.995.607"/>
    <path fill="#fff" d="M5.46 10.47s-.532-.1-.82-.394l.82.395Z"/>
    <path stroke="#000" stroke-width=".026" d="M5.46 10.47s-.532-.1-.82-.394"/>
    <path fill="#fff" d="M5.445 10.684c-1.225-.393-1.274-.778-1.39-.747-.217.166.483.716.483.716.089.133.982.377.982.377"/>
    <path stroke="#000" stroke-width=".026" d="M5.445 10.684c-1.225-.393-1.274-.778-1.39-.747-.217.166.483.716.483.716.089.133.982.377.982.377"/>
    <path fill="#fff" d="M5.541 10.746s-.62.012-.882-.2l.882.2Z"/>
    <path stroke="#000" stroke-width=".026" d="M5.541 10.746s-.62.012-.882-.2"/>
    <path fill="#fff" d="M5.503 11.025c-1.173-.248-1.345-.593-1.438-.57-.147.198.562.632.562.632.438.252 1.03.287 1.03.287"/>
    <path stroke="#000" stroke-width=".026" d="M5.503 11.025c-1.173-.248-1.345-.593-1.438-.57-.147.198.562.632.562.632.438.252 1.03.287 1.03.287"/>
    <path fill="#fff" d="M5.635 11.165s-.413.013-.676-.131l.676.131Z"/>
    <path stroke="#000" stroke-width=".026" d="M5.635 11.165s-.413.013-.676-.131"/>
    <path fill="#fff" d="M5.467 11.795c-.327.3-.513.863-.345.898.093.004.345-.655.712-.748l.235-.203"/>
    <path stroke="#000" stroke-width=".026" d="M5.467 11.795c-.327.3-.513.863-.345.898.093.004.345-.655.712-.748l.235-.203"/>
    <path fill="#fff" d="M5.935 11.71c.082 0-.425.156-.513.381l.513-.381Z"/>
    <path stroke="#000" stroke-width=".026" d="M5.935 11.71c.082 0-.425.156-.513.381"/>
    <path fill="#fff" d="M5.295 11.52c-.478.359-.631.783-.562.806.106.035.53-.407.686-.434.075-.013.522-.252.522-.252"/>
    <path stroke="#000" stroke-width=".026" d="M5.295 11.52c-.478.359-.631.783-.562.806.106.035.53-.407.686-.434.075-.013.522-.252.522-.252"/>
    <path fill="#fff" d="M5.585 11.566c.081 0-.331.144-.42.369l.42-.37Z"/>
    <path stroke="#000" stroke-width=".026" d="M5.585 11.566c.081 0-.331.144-.42.369"/>
    <path fill="#fff" d="M5.635 11.366c-.522.062-1.438-.496-1.455-.447-.228.266.756.712.973.69l.77.049"/>
    <path stroke="#000" stroke-width=".026" d="M5.635 11.366c-.522.062-1.438-.496-1.455-.447-.228.266.756.712.973.69l.77.049"/>
    <path fill="#fff" d="M5.841 11.516s-.632.006-.92-.126l.92.126Z"/>
    <path stroke="#000" stroke-width=".026" d="M5.841 11.516s-.632.006-.92-.126"/>
    <path fill="#fff" d="M7.274 11.428s0-.294-.144-.307c0 0-.325-.025-.688.038-.83-.496-.18-1.132-.294-1.352-.037-.337-.594-.844-.594-.844-.057.05.011.365-.032.344-.112-.056-.043.191-.075.256-.106-.037-.1.124-.075.244-.087.013-.056.163-.037.27-.172-.095.052.267-.007.256-.262-.038.038.25.038.25-.15.057-.08.168.025.213-.131.094.003.244.05.25-.119.063.013.153.081.22-.106.1.088.142.182.18-.075.12.013.145.094.182-.05.094.073.087.15.075-.094.1.062.144.125.132 0 0 .033.13.144.081-.031.1.194.088.194.088 0 .1.332.062.332.062"/>
    <path stroke="#000" stroke-width=".026" d="M7.274 11.428s0-.294-.144-.307c0 0-.325-.025-.688.038-.83-.496-.18-1.132-.294-1.352-.037-.337-.594-.844-.594-.844-.057.05.011.365-.032.344-.112-.056-.043.191-.075.256-.106-.037-.1.124-.075.244-.087.013-.056.163-.037.27-.172-.095.052.267-.007.256-.262-.038.038.25.038.25-.15.057-.08.168.025.213-.131.094.003.244.05.25-.119.063.013.153.081.22-.106.1.088.142.182.18-.075.12.013.145.094.182-.05.094.073.087.15.075-.094.1.062.144.125.132 0 0 .033.13.144.081-.031.1.194.088.194.088 0 .1.332.062.332.062"/>
    <path stroke="#000" stroke-width=".026" d="M5.66 9.729s.069.181.15.181m-.275-.61s.088.307.169.307m-.244-.069s.025.2.106.2m-.194.057s.07.181.15.181m-.194.082s.076.162.157.162m-.15.1s.125.2.206.2m-.181.07s.131.112.212.112m-.181.1s.131.113.213.113m-.182.119s.194.094.276.094m-.188.125s.219.019.3.019m-.122.16s.184-.007.265-.007m-.158.185s.157-.044.256-.008m-.111.109s.158-.043.257-.008m-.141.127s.152-.02.26-.065m-.106.145s.065.02.173-.025m.013.105s.056-.003.164-.048m.615-3.082c-.129-.244-.261-.217-.261-.217-.067 0-.089.044-.164.044-.093 0-.07-.098-.07-.098"/>
    <path fill="#000" d="M6.967 8.647c-.027.115-.111.137-.111.137s.018.11.089.115c.13.023.172-.093.11-.195a.353.353 0 0 0-.088-.057Z"/>
    <path fill="#fff" d="M7.047 8.78c.004.014-.017.034-.048.044-.03.01-.059.007-.063-.007-.004-.014.017-.034.048-.044.03-.01.059-.008.063.007Z"/>
    <path stroke="#000" stroke-width=".026" d="M5.275 13.55c-.04.065.147.082.197.006 0 .106.145.11.197.06.022.068.124.05.188-.014.011.03.103.094.137.082.066-.024.325-.39.381-.422m-1.363.798s.297-.29.492-.445m-.39.551s.39-.361.586-.516m-.21.445s.26-.268.454-.422m-.713-.117s.29-.346.485-.501m-.258.51s.244-.28.523-.479m-.3.521s.115-.22.466-.491m-.288.488s.133-.231.375-.405m-.39.436c-.2.204-.359.341-.359.341m.07-.323a5.19 5.19 0 0 1-.402.367m.208-.425c-.199.204-.252.222-.252.222m.448-.918c-.041.066.051.225.247.13-.062.164.03.12.157.06-.035.14.124.05.188-.013.011.03.014.102.075.108.07.006.144-.196.2-.227m-.626.075.355-.326m-.545.343.174-.263m.175.3.214-.234m-.028.23.112-.124m-.456.16a1.347 1.347 0 0 1-.146.123m.337-.075a2.671 2.671 0 0 0-.182.155m.491-.08c-.199.204-.155.15-.155.15m.049-.234c-.097.076-.155.133-.155.133m.354-.628c-.283.354.124.07.124.07m-.489.099s-.166.03.024-.2m.297-.168-.053.084m-.01-2.414c-.05.144.088.288.088.288m-.194-.207c-.05.144.182.382.182.382m-.225-.138c-.05.144.206.263.206.263m-.094.1c.013.107.2.081.2.081M5.98 9.653s.016.122.076.288c-.093.093-.11.235-.11.235m-.286-.447s.069.181.15.181m-.19.044s.069.182.15.182m-.225.008s.086.12.168.12m-.137.12s.086.119.168.119m-.106.133s.095.022.176.022m-.119.155s.02.004.102.004m-.004-1.252s-.011.102.07.102m.024 1.52s.102-.011.084-.09m-.234-.051s.177-.052.159-.131m.213.476s.03-.206.013-.286m.23.45s-.031-.273-.093-.308m.363.374c-.066-.23-.155-.335-.217-.357m.478.344a.504.504 0 0 0-.306-.34m.616.349a.504.504 0 0 0-.306-.34m.089.646a.698.698 0 0 0-.35.306m.029-3.223c-.063 0-.082.038-.082.038m-.125.332c-.026.075.057.178.044.156m-.04-.763c-.062 0-.066.12-.066.12m.403.915.088.115m-.044.222.093.106m.296.252.11.12"/>
    <path fill="#000" d="M7.791 10.92s.053.146.09.159c0 0 .043.014.071-.005.026-.017 0-.053 0-.053-.034-.05-.16-.1-.16-.1Zm-.224.074s-.008.154.021.18c0 0 .034.03.067.024.03-.006.021-.049.021-.049-.012-.06-.109-.155-.109-.155Zm.154.544s-.009.154.02.18c0 0 .034.03.068.024.03-.005.02-.049.02-.049-.012-.06-.108-.155-.108-.155Zm.378.155-.003.007h-.008a.018.018 0 0 1-.014-.006c-.016-.018-.01-.101-.003-.153-.016-.02-.053-.073-.048-.1a.024.024 0 0 1 .01-.018l.009-.005.007.007c.01.008.092.082.098.123a.58.58 0 0 1-.048.145Zm-.836.452c-.028 0-.053.085-.035.12 0 0 .021.04.055.046.03.005.036-.039.036-.039.01-.06 0-.127-.056-.127Zm-.17 1.243a.259.259 0 0 1-.07.056l-.007.005-.007-.006c-.017-.013-.007-.049.03-.106 0-.025.002-.091.023-.11a.024.024 0 0 1 .02-.007l.009.001.002.01c.002.012.021.121 0 .157Zm-.397.116c-.007.012-.02.016-.032.016a.084.084 0 0 1-.03-.006l-.003-.002c-.021-.017-.011-.068-.006-.091 0-.024.002-.093.024-.113a.025.025 0 0 1 .02-.007l.008.001.003.009c.006.026.037.158.016.193Zm.329-.604c-.007.013-.02.016-.032.016a.088.088 0 0 1-.03-.006l-.004-.002c-.021-.017-.01-.07-.005-.093.005-.012.027-.071.065-.067h.01l.001.01c.002.011.015.107-.005.142Zm.513-.445s-.062.14-.044.176c0 0 .021.04.054.046.03.005.037-.039.037-.039.01-.06-.047-.183-.047-.183Zm-.182.365c-.092.03-.112.14-.105.179 0 0 .008.044.038.06.027.015.046-.025.046-.025.028-.054.087-.164.021-.214Zm-.5-.546c-.063.042-.063.079-.063.118 0 0 0 .045.026.067.024.019.107-.017.107-.017.037-.048-.067-.05-.07-.168Zm.67-.604c-.063.042-.063.035-.064.119 0 0 .022.066.048.088.024.019.05-.042.05-.042.038-.048.019-.15-.035-.165Zm.46.334c-.029 0-.053.085-.035.12 0 0 .021.04.054.046.03.005.037-.038.037-.038.01-.06 0-.128-.056-.128Zm-.194.241c-.04.13-.088.17-.07.205l.08.017c.03.005.037-.038.037-.038.01-.06-.038-.043-.047-.184ZM6.697 13.76c-.029 0-.053.085-.035.12 0 0 .02.04.054.046.03.005.037-.039.037-.039.01-.06 0-.127-.056-.127Z"/>
    <path fill="#EACE24" d="M17.461 14.19c.009 1 .018 1.035.018 1.035-.438.43-.49.586-.62.726-.168-.244-.429-.146-.429-.146-.053-.23-.331-.43-.331-.43.389-.03 1.061-.23 1.114-.31.177-.264-.066-1.066-.066-1.066l.314.19Z"/>
    <path stroke="#806600" stroke-width=".026" d="M17.461 14.19c.009 1 .018 1.035.018 1.035-.438.43-.49.586-.62.726-.168-.244-.429-.146-.429-.146-.053-.23-.331-.43-.331-.43.389-.03 1.061-.23 1.114-.31.177-.264-.066-1.066-.066-1.066l.314.19Z"/>
    <path fill="#EACE24" d="m16.5 15.756.433-.332-.514.307"/>
    <path stroke="#806600" stroke-width=".026" d="m16.5 15.756.433-.332-.514.307"/>
    <path fill="#EACE24" stroke="#000" stroke-width=".026" d="M17.142 13.715s-.541-.22-1.096.168a.268.268 0 0 1-.133.004c-.108-.115-.35-.453-.538-.409-.014-.285.018-1.426.018-1.426.082-.004.11.156.11.156-.047.325.14 2.303.91.995l.545.056.184.456Z"/>
    <path stroke="#806600" stroke-width=".026" d="M17.142 13.715s-.541-.22-1.096.168a.268.268 0 0 1-.133.004c-.108-.115-.35-.453-.538-.409-.014-.285.018-1.426.018-1.426.082-.004.11.156.11.156-.047.325.14 2.303.91.995l.545.056.184.456Z"/>
    <path fill="#EACE24" d="M17.438 9.142c-.465.168-.47.257-.93.664-.368.146-.915.504-.946.583l.03.117c-.07.044-.138-.12-.138-.12.071-.402 1.364-1.615 1.364-1.615l.57.12.05.25Z"/>
    <path stroke="#806600" stroke-width=".026" d="M17.438 9.142c-.465.168-.47.257-.93.664-.368.146-.915.504-.946.583l.03.117c-.07.044-.138-.12-.138-.12.071-.402 1.364-1.615 1.364-1.615l.57.12.05.25Z"/>
    <path stroke="#000" stroke-width=".026" d="m17.001 8.961-1.456 1.337-.03.097m1.168-.938a.845.845 0 0 1-.416.35"/>
    <path fill="#fff" d="M17.27 8.619c.007-.482-.563-.801-.563-.845.057-.344.87.475.914.582.05.155-.063.344-.063.344"/>
    <path stroke="#000" stroke-width=".026" d="M17.27 8.619c.007-.482-.563-.801-.563-.845.057-.344.87.475.914.582.05.155-.063.344-.063.344"/>
    <path fill="#fff" d="M17.114 7.987c.169.137.307.588.307.588l-.307-.588Z"/>
    <path stroke="#000" stroke-width=".026" d="M17.114 7.987c.169.137.307.588.307.588"/>
    <path fill="#fff" d="M17.533 8.612c.07-.463-.281-.863-.256-.876.215-.107.494.463.575.651l-.106.638"/>
    <path stroke="#000" stroke-width=".026" d="M17.533 8.612c.07-.463-.281-.863-.256-.876.215-.107.494.463.575.651l-.106.638"/>
    <path fill="#fff" d="M17.646 8.23c.088.226-.006.532-.006.532l.006-.531Z"/>
    <path stroke="#000" stroke-width=".026" d="M17.646 8.23c.088.226-.006.532-.006.532"/>
    <path fill="#fff" d="M17.715 8.856c.112-.112.006-.92.037-.92.238 0 .363.776.313.94-.162.527-.294.619-.294.619"/>
    <path stroke="#000" stroke-width=".026" d="M17.715 8.856c.112-.112.006-.92.037-.92.238 0 .363.776.313.94-.162.527-.294.619-.294.619"/>
    <path fill="#fff" d="M17.927 8.581c.02.238-.168.532-.168.532l.168-.532Z"/>
    <path stroke="#000" stroke-width=".026" d="M17.927 8.581c.02.238-.168.532-.168.532"/>
    <path fill="#fff" d="M17.771 9.45c.3-.28.352-1.036.394-1.113.322.063.157.863.157.863-.007.063-.426.564-.426.564"/>
    <path stroke="#000" stroke-width=".026" d="M17.771 9.45c.3-.28.352-1.036.394-1.113.322.063.157.863.157.863-.007.063-.426.564-.426.564"/>
    <path fill="#fff" d="M18.203 8.838c.106.212-.375.844-.375.844l.375-.844Z"/>
    <path stroke="#000" stroke-width=".026" d="M18.203 8.838c.106.212-.375.844-.375.844"/>
    <path fill="#fff" stroke="#000" stroke-width=".026" d="M17.396 11.24s.081-1.088-.057-1.251l.407-.6.526 1.044-.476.87-.4-.063Z"/>
    <path stroke="#000" stroke-width=".026" d="M17.396 11.24s.081-1.088-.057-1.251l.407-.6.526 1.044-.476.87-.4-.063Z"/>
    <path fill="#fff" d="M17.779 13.613c-.179.228-.266.743-.266.743l-.053-.168c-.025.016-.04.146-.075.146-.016 0-.013-.134-.049-.142-.015-.003-.005.186-.04.186-.028 0-.03-.134-.04-.128-.022.015-.026.179-.044.093.025-.88-1.698-1.599-1.663-2.584-.044-1.02 1.053-1.407 1.725-2.265 0 0 .19-.563-.159-.315-.282-.043-.257-.322-.257-.322h-.155c-.068-.601.536-.46.536-.46.56 0 .61.579.61.579.144.754-.833 1.652-.833 1.652-.144.313.002.852.002.852l1.36 1.281"/>
    <path stroke="#000" stroke-width=".026" d="M17.779 13.613c-.179.228-.266.743-.266.743l-.053-.168c-.025.016-.04.146-.075.146-.016 0-.013-.134-.049-.142-.015-.003-.005.186-.04.186-.028 0-.03-.134-.04-.128-.022.015-.026.179-.044.093.025-.88-1.698-1.599-1.663-2.584-.044-1.02 1.053-1.407 1.725-2.265 0 0 .19-.563-.159-.315-.282-.043-.257-.322-.257-.322h-.155c-.068-.601.536-.46.536-.46.56 0 .61.579.61.579.144.754-.833 1.652-.833 1.652-.144.313.002.852.002.852l1.36 1.281"/>
    <path fill="#fff" d="M18.362 12.751c.075.09.46.548.554.708.133.146-.125.105-.125.105s.382.404.567.522c-.057.17-.423-.077-.423-.077s.357.22.338.263c-.109.083-.425-.15-.425-.15s.075.106.012.144c-.106 0-.35-.194-.35-.194s.05.113-.007.131c-.101-.064-.738-.594-.738-.594"/>
    <path stroke="#000" stroke-width=".026" d="M18.362 12.751c.075.09.46.548.554.708.133.146-.125.105-.125.105s.382.404.567.522c-.057.17-.423-.077-.423-.077s.357.22.338.263c-.109.083-.425-.15-.425-.15s.075.106.012.144c-.106 0-.35-.194-.35-.194s.05.113-.007.131c-.101-.064-.738-.594-.738-.594m.351-1.129s.19.253.062.213"/>
    <path fill="#fff" d="M18.142 11.826c.155.3.353.797.138 1.017-.071.023-.26-.706-.407-.774l-.12-.407"/>
    <path stroke="#000" stroke-width=".026" d="M18.142 11.826c.155.3.353.797.138 1.017-.071.023-.26-.706-.407-.774l-.12-.407"/>
    <path fill="#fff" d="M17.902 11.79c-.08 0 .163.164.25.389l-.25-.388Z"/>
    <path stroke="#000" stroke-width=".026" d="M17.902 11.79c-.08 0 .163.164.25.389"/>
    <path fill="#fff" d="M17.837 11.848c.12.562.009.681-.04.686-.07-.036-.194-.549-.336-.58"/>
    <path stroke="#000" stroke-width=".026" d="M17.837 11.848c.12.562.009.681-.04.686-.07-.036-.194-.549-.336-.58"/>
    <path fill="#fff" d="M18.443 9.246c.496-.464.562-.995.615-1 .234-.019-.08.943-.08.943l-.592.473"/>
    <path stroke="#000" stroke-width=".026" d="M18.443 9.246c.496-.464.562-.995.615-1 .234-.019-.08.943-.08.943l-.592.473"/>
    <path fill="#fff" d="M18.522 9.363s.238-.181.363-.425l-.363.425Z"/>
    <path stroke="#000" stroke-width=".026" d="M18.522 9.363s.238-.181.363-.425"/>
    <path fill="#fff" d="M18.443 9.583c.735-.407.823-1.071.885-1.049.226.09-.062.7-.062.7-.04.167-.624.694-.624.694"/>
    <path stroke="#000" stroke-width=".026" d="M18.443 9.583c.735-.407.823-1.071.885-1.049.226.09-.062.7-.062.7-.04.167-.624.694-.624.694"/>
    <path fill="#fff" d="M18.585 9.776s.312-.231.563-.613l-.563.613Z"/>
    <path stroke="#000" stroke-width=".026" d="M18.585 9.776s.312-.231.563-.613"/>
    <path fill="#fff" d="M18.669 9.88c.88-.488.898-1.045.995-1.01.21.567-.557 1.102-1.097 1.505"/>
    <path stroke="#000" stroke-width=".026" d="M18.669 9.88c.88-.488.898-1.045.995-1.01.21.567-.557 1.102-1.097 1.505"/>
    <path fill="#fff" d="M18.622 10.12s.4-.144.65-.525l-.65.525Z"/>
    <path stroke="#000" stroke-width=".026" d="M18.622 10.12s.4-.144.65-.525"/>
    <path fill="#fff" d="M18.585 10.361c.765-.243 1.135-.956 1.23-.92.221.084-.243.681-.243.681-.377.35-.996.607-.996.607"/>
    <path stroke="#000" stroke-width=".026" d="M18.585 10.361c.765-.243 1.135-.956 1.23-.92.221.084-.243.681-.243.681-.377.35-.996.607-.996.607"/>
    <path fill="#fff" d="M18.566 10.47s.532-.1.82-.394l-.82.395Z"/>
    <path stroke="#000" stroke-width=".026" d="M18.566 10.47s.532-.1.82-.394"/>
    <path fill="#fff" d="M18.58 10.684c1.226-.393 1.275-.778 1.39-.747.218.166-.482.716-.482.716-.089.133-.983.377-.983.377"/>
    <path stroke="#000" stroke-width=".026" d="M18.58 10.684c1.226-.393 1.275-.778 1.39-.747.218.166-.482.716-.482.716-.089.133-.983.377-.983.377"/>
    <path fill="#fff" d="M18.484 10.746s.62.012.883-.2l-.883.2Z"/>
    <path stroke="#000" stroke-width=".026" d="M18.484 10.746s.62.012.883-.2"/>
    <path fill="#fff" d="M18.523 11.025c1.172-.248 1.345-.593 1.438-.57.147.198-.562.632-.562.632-.438.252-1.03.287-1.03.287"/>
    <path stroke="#000" stroke-width=".026" d="M18.523 11.025c1.172-.248 1.345-.593 1.438-.57.147.198-.562.632-.562.632-.438.252-1.03.287-1.03.287"/>
    <path fill="#fff" d="M18.39 11.165s.413.013.676-.131l-.675.131Z"/>
    <path stroke="#000" stroke-width=".026" d="M18.39 11.165s.413.013.676-.131"/>
    <path fill="#fff" d="M18.558 11.795c.328.3.514.863.346.898-.093.004-.346-.655-.713-.748l-.234-.203"/>
    <path stroke="#000" stroke-width=".026" d="M18.558 11.795c.328.3.514.863.346.898-.093.004-.346-.655-.713-.748l-.234-.203"/>
    <path fill="#fff" d="M18.09 11.71c-.081 0 .425.156.513.381l-.513-.381Z"/>
    <path stroke="#000" stroke-width=".026" d="M18.09 11.71c-.081 0 .425.156.513.381"/>
    <path fill="#fff" d="M18.73 11.52c.479.359.632.783.563.806-.106.035-.531-.407-.686-.434-.075-.013-.522-.252-.522-.252"/>
    <path stroke="#000" stroke-width=".026" d="M18.73 11.52c.479.359.632.783.563.806-.106.035-.531-.407-.686-.434-.075-.013-.522-.252-.522-.252"/>
    <path fill="#fff" d="M18.44 11.566c-.08 0 .332.144.42.369l-.42-.37Z"/>
    <path stroke="#000" stroke-width=".026" d="M18.44 11.566c-.08 0 .332.144.42.369"/>
    <path fill="#fff" d="M18.39 11.366c.522.062 1.438-.496 1.456-.447.227.266-.757.712-.974.69l-.77.049"/>
    <path stroke="#000" stroke-width=".026" d="M18.39 11.366c.522.062 1.438-.496 1.456-.447.227.266-.757.712-.974.69l-.77.049"/>
    <path fill="#fff" d="M18.184 11.516s.632.006.92-.126l-.92.126Z"/>
    <path stroke="#000" stroke-width=".026" d="M18.184 11.516s.632.006.92-.126"/>
    <path fill="#fff" d="M16.751 11.428s0-.294.144-.307c0 0 .326-.025.688.038.83-.496.18-1.132.295-1.352.037-.337.594-.844.594-.844.056.05-.011.365.031.344.113-.056.043.191.075.256.107-.037.101.124.075.244.088.013.057.163.038.27.172-.095-.052.267.006.256.263-.038-.037.25-.037.25.15.057.08.168-.025.213.131.094-.004.244-.05.25.118.063-.014.153-.082.22.107.1-.087.142-.181.18.075.12-.013.145-.094.182.05.094-.073.087-.15.075.094.1-.063.144-.125.132 0 0-.034.13-.144.081.031.1-.194.088-.194.088 0 .1-.332.062-.332.062"/>
    <path stroke="#000" stroke-width=".026" d="M16.751 11.428s0-.294.144-.307c0 0 .326-.025.688.038.83-.496.18-1.132.295-1.352.037-.337.594-.844.594-.844.056.05-.011.365.031.344.113-.056.043.191.075.256.107-.037.101.124.075.244.088.013.057.163.038.27.172-.095-.052.267.006.256.263-.038-.037.25-.037.25.15.057.08.168-.025.213.131.094-.004.244-.05.25.118.063-.014.153-.082.22.107.1-.087.142-.181.18.075.12-.013.145-.094.182.05.094-.073.087-.15.075.094.1-.063.144-.125.132 0 0-.034.13-.144.081.031.1-.194.088-.194.088 0 .1-.332.062-.332.062"/>
    <path stroke="#000" stroke-width=".026" d="M18.366 9.729s-.07.181-.15.181m.274-.61s-.087.307-.168.307m.244-.069s-.025.2-.107.2m.194.057s-.069.181-.15.181m.194.082s-.075.162-.156.162m.149.1s-.124.2-.206.2m.182.07s-.131.112-.213.112m.182.1s-.132.113-.213.113m.181.119s-.194.094-.275.094m.188.125s-.22.019-.3.019m.121.16s-.183-.007-.265-.007m.159.185s-.157-.044-.256-.008m.11.109s-.157-.043-.256-.008m.141.127s-.153-.02-.26-.065m.105.145s-.064.02-.172-.025m-.013.105s-.056-.003-.164-.048M16.85 8.86c.13-.244.262-.217.262-.217.066 0 .089.044.164.044.093 0 .07-.098.07-.098"/>
    <path fill="#000" d="M17.059 8.647c.026.115.11.137.11.137s-.017.11-.088.115c-.13.023-.172-.093-.11-.195a.345.345 0 0 1 .088-.057Z"/>
    <path fill="#fff" d="M16.978 8.78c-.004.014.018.034.048.044.031.01.06.007.064-.007.004-.014-.018-.034-.048-.044-.031-.01-.06-.008-.064.007Z"/>
    <path stroke="#000" stroke-width=".026" d="M18.75 13.55c.041.065-.147.082-.197.006 0 .106-.145.11-.197.06-.022.068-.123.05-.188-.014-.01.03-.102.094-.136.082-.067-.024-.326-.39-.382-.422m1.364.798s-.298-.29-.492-.445m.39.551s-.391-.361-.586-.516m.21.445s-.26-.268-.455-.422m.714-.117s-.29-.346-.486-.501m.259.51s-.244-.28-.524-.479m.301.521s-.115-.22-.466-.491m.288.488s-.134-.231-.375-.405m.39.436c.2.204.359.341.359.341m-.071-.323c.199.204.402.367.402.367m-.208-.425c.2.204.253.222.253.222m-.448-.918c.04.066-.051.225-.248.13.063.164-.03.12-.157.06.036.14-.123.05-.188-.013-.01.03-.014.102-.074.108-.07.006-.144-.196-.2-.227m.626.075-.356-.326m.545.343-.173-.263m-.176.3-.213-.234m.028.23-.112-.124m.455.16c.045.048.146.123.146.123m-.336-.075c.098.075.181.155.181.155m-.49-.08c.198.204.154.15.154.15m-.048-.234c.097.076.155.133.155.133m-.354-.628c.283.354-.124.07-.124.07m.488.099s.166.03-.024-.2m-.296-.168.053.084m.009-2.414c.05.144-.088.288-.088.288m.194-.207c.05.144-.181.382-.181.382m.225-.138c.05.144-.206.263-.206.263m.093.1c-.012.107-.2.081-.2.081m.468-1.249s-.016.122-.075.288c.093.093.11.235.11.235m.286-.447s-.069.181-.15.181m.19.044s-.07.182-.15.182m.225.008s-.087.12-.168.12m.137.12s-.087.119-.168.119m.106.133s-.096.022-.177.022m.12.155s-.02.004-.102.004m.004-1.252s.01.102-.07.102m-.025 1.52s-.101-.011-.084-.09m.235-.051s-.177-.052-.16-.131m-.212.476s-.03-.206-.013-.286m-.23.45s.03-.273.093-.308m-.363.374c.066-.23.155-.335.217-.357m-.478.344a.504.504 0 0 1 .305-.34m-.615.349a.504.504 0 0 1 .306-.34m-.09.646c.24.089.35.306.35.306m-.028-3.223c.063 0 .081.038.081.038m.125.332c.027.075-.057.178-.043.156m.04-.763c.061 0 .066.12.066.12m-.403.915-.088.115m.044.222-.093.106m-.297.252-.11.12"/>
    <path fill="#000" d="M16.234 10.92s-.052.146-.09.159c0 0-.042.014-.07-.005-.026-.017 0-.053 0-.053.034-.05.16-.1.16-.1Zm.224.074s.009.154-.02.18c0 0-.034.03-.068.024-.03-.006-.02-.049-.02-.049.012-.06.108-.155.108-.155Zm-.153.544s.009.154-.021.18c0 0-.034.03-.067.024-.03-.005-.02-.049-.02-.049.011-.06.108-.155.108-.155Zm-.379.155.004.007h.008a.02.02 0 0 0 .014-.006c.016-.018.009-.101.002-.153.017-.02.054-.073.049-.1a.024.024 0 0 0-.011-.018l-.008-.005-.008.007c-.009.008-.092.082-.098.123a.575.575 0 0 0 .048.145Zm.837.452c.028 0 .053.085.034.12 0 0-.02.04-.054.046-.03.005-.037-.039-.037-.039-.01-.06 0-.127.057-.127Zm.169 1.243c.012.021.06.05.07.056l.007.005.007-.006c.018-.013.008-.049-.029-.106 0-.025-.002-.091-.024-.11a.025.025 0 0 0-.019-.007l-.01.001-.001.01c-.002.012-.022.121-.001.157Zm.397.116c.007.012.02.016.032.016a.084.084 0 0 0 .03-.006l.004-.002c.02-.017.011-.068.005-.091 0-.024-.002-.093-.024-.113a.024.024 0 0 0-.019-.007l-.009.001-.002.009c-.006.026-.037.158-.017.193Zm-.328-.604c.007.013.02.016.031.016a.088.088 0 0 0 .031-.006l.003-.002c.022-.017.011-.07.006-.093-.005-.012-.027-.071-.065-.067h-.01l-.002.01c-.001.011-.015.107.006.142Zm-.514-.445s.063.14.044.176c0 0-.02.04-.054.046-.03.005-.037-.039-.037-.039-.01-.06.047-.183.047-.183Zm.182.365c.093.03.112.14.105.179 0 0-.007.044-.037.06-.027.015-.047-.025-.047-.025-.027-.054-.087-.164-.02-.214Zm.5-.546c.063.042.063.079.064.118 0 0 0 .045-.026.067-.024.019-.107-.017-.107-.017-.037-.048.066-.05.07-.168Zm-.669-.604c.063.042.063.035.063.119 0 0-.021.066-.048.088-.024.019-.05-.042-.05-.042-.037-.048-.018-.15.035-.165Zm-.46.334c.028 0 .053.085.035.12 0 0-.021.04-.055.046-.03.005-.036-.038-.036-.038-.01-.06 0-.128.056-.128Zm.194.241c.04.13.087.17.069.205 0 0-.046.011-.08.017-.03.005-.036-.038-.036-.038-.01-.06.038-.043.047-.184Zm1.095 1.515c.028 0 .053.085.035.12 0 0-.021.04-.055.046-.03.005-.036-.039-.036-.039-.01-.06 0-.127.056-.127Z"/>
    <path fill="#EACE24" stroke="#806600" stroke-width=".026" d="M11.842 9.5c.008-.076.004-.22-.035-.285-.014-.022-.046-.048-.07-.047-.026.001-.06.009-.071.031a.2.2 0 0 0-.015.089c.003.032.04.098.04.098s-.132-.027-.176-.062a.33.33 0 0 1-.106-.156c-.005-.019-.024-.08 0-.154a.352.352 0 0 1 .087-.128c.084-.075.247-.053.28-.035a.281.281 0 0 1 .116.125 1.513 1.513 0 0 1 .075.38c.005.055.017.105.006.16-.006.03-.014.098-.03.142-.018.045-.044.067-.066.087-.046.04-.191.062-.191.062s.08-.104.1-.15c.025-.056.05-.096.056-.156Zm.357 0c-.008-.076-.004-.22.035-.285.013-.022.046-.048.07-.047.025.001.06.009.071.031a.195.195 0 0 1 .015.089.402.402 0 0 1-.04.098s.132-.027.176-.062a.331.331 0 0 0 .106-.156c.005-.019.024-.08 0-.154a.352.352 0 0 0-.088-.128c-.083-.075-.246-.053-.28-.035a.282.282 0 0 0-.115.125 1.513 1.513 0 0 0-.075.38c-.005.055-.017.105-.006.16.006.03.014.098.03.142a.21.21 0 0 0 .066.087c.045.04.191.062.191.062s-.08-.104-.1-.15c-.025-.056-.05-.096-.056-.156Z"/>
    <path fill="#EACE24" stroke="#806600" stroke-width=".026" d="M12.02 10.068s.117-.1.137-.212c.017-.102-.06-.22-.067-.268-.023-.19.027-.445.031-.466.018-.082.04-.118.053-.145a.943.943 0 0 1 .058-.095c.014-.022.046-.062.062-.103a.332.332 0 0 0 .001-.217.227.227 0 0 0-.088-.11l-.105-.067c-.05-.033-.082-.142-.082-.142-.001 0-.032.109-.083.142l-.103.066a.227.227 0 0 0-.088.111.327.327 0 0 0 .001.217c.016.041.048.081.062.103a.92.92 0 0 1 .058.095c.012.027.035.063.053.145.004.02.054.275.03.466-.005.048-.085.166-.068.268.02.112.138.212.138.212Z"/>
    <path fill="#EACE24" stroke="#806600" stroke-width=".026" d="m12.284 9.456-.057-.081h-.413l-.057.08.057.081h.413l.057-.08ZM9.616 9.5c.008-.076.004-.22-.035-.285-.013-.022-.045-.048-.07-.047-.025.001-.06.009-.071.031a.201.201 0 0 0-.015.089c.003.032.04.098.04.098s-.132-.027-.176-.062a.331.331 0 0 1-.106-.156c-.005-.019-.024-.08 0-.154a.351.351 0 0 1 .088-.128c.084-.075.246-.053.28-.035a.282.282 0 0 1 .115.125 1.518 1.518 0 0 1 .076.38c.004.055.017.105.005.16-.006.03-.014.098-.03.142-.017.045-.043.067-.066.087-.045.04-.19.062-.19.062s.08-.104.1-.15c.024-.056.049-.096.055-.156Zm.357 0c-.008-.076-.003-.22.035-.285.014-.022.046-.048.071-.047.025.001.059.009.07.031a.2.2 0 0 1 .016.089.402.402 0 0 1-.04.098s.131-.027.176-.062a.331.331 0 0 0 .105-.156c.005-.019.024-.08 0-.154a.352.352 0 0 0-.087-.128c-.084-.075-.247-.053-.28-.035a.282.282 0 0 0-.116.125 1.524 1.524 0 0 0-.076.38c-.004.055-.016.105-.005.16.007.03.014.098.031.142.017.045.043.067.065.087.046.04.191.062.191.062s-.08-.104-.1-.15c-.025-.056-.05-.096-.056-.156Z"/>
    <path fill="#EACE24" stroke="#806600" stroke-width=".026" d="M9.794 10.068s.117-.1.137-.212c.017-.102-.06-.22-.066-.268-.024-.19.026-.445.03-.466.018-.082.041-.118.053-.145a.938.938 0 0 1 .058-.095c.014-.022.046-.062.062-.103a.332.332 0 0 0 .001-.217.227.227 0 0 0-.088-.11l-.105-.067c-.05-.033-.082-.142-.082-.142s-.032.109-.083.142l-.103.066a.227.227 0 0 0-.088.111.33.33 0 0 0 .002.217c.016.041.047.081.061.103.025.037.05.076.058.095.012.027.035.063.053.145.004.02.055.275.03.466-.005.048-.085.166-.067.268.02.112.137.212.137.212Z"/>
    <path fill="#EACE24" stroke="#806600" stroke-width=".026" d="m10.058 9.456-.056-.081h-.414l-.057.08.057.081h.414l.056-.08Zm4.01.044c.007-.076.003-.22-.036-.285-.013-.022-.045-.048-.07-.047-.025.001-.06.009-.07.031a.2.2 0 0 0-.016.089c.004.032.04.098.04.098s-.131-.027-.176-.062a.332.332 0 0 1-.106-.156c-.004-.019-.023-.08 0-.154a.35.35 0 0 1 .088-.128c.084-.075.247-.053.28-.035a.282.282 0 0 1 .116.125 1.53 1.53 0 0 1 .075.38c.005.055.017.105.005.16-.006.03-.014.098-.03.142-.017.045-.043.067-.065.087-.046.04-.192.062-.192.062s.08-.104.101-.15c.025-.056.05-.096.056-.156Zm.357 0c-.008-.076-.004-.22.035-.285.013-.022.045-.048.07-.047.025.001.06.009.07.031a.183.183 0 0 1 .016.089.402.402 0 0 1-.04.098s.131-.027.176-.062a.331.331 0 0 0 .106-.156c.005-.019.023-.08 0-.154a.352.352 0 0 0-.088-.128c-.084-.075-.247-.053-.28-.035a.282.282 0 0 0-.116.125 1.513 1.513 0 0 0-.075.38c-.005.055-.017.105-.005.16.006.03.014.098.03.142.017.045.043.067.066.087.045.04.19.062.19.062s-.08-.104-.1-.15c-.024-.056-.05-.096-.055-.156Z"/>
    <path fill="#EACE24" stroke="#806600" stroke-width=".026" d="M14.245 10.068s.118-.1.137-.212c.018-.102-.06-.22-.066-.268-.024-.19.026-.445.03-.466.019-.082.041-.118.053-.145a.943.943 0 0 1 .058-.095c.015-.022.046-.062.062-.103a.332.332 0 0 0 .001-.217.227.227 0 0 0-.087-.11l-.106-.067c-.05-.033-.081-.142-.082-.142 0 0-.032.109-.082.142l-.104.066a.226.226 0 0 0-.087.111.33.33 0 0 0 0 .217c.017.041.049.081.063.103a.92.92 0 0 1 .058.095c.012.027.034.063.052.145.005.02.055.275.031.466-.006.048-.085.166-.068.268.02.112.137.212.137.212Z"/>
    <path fill="#EACE24" stroke="#806600" stroke-width=".026" d="m14.51 9.456-.057-.081h-.413l-.057.08.057.081h.413l.056-.08Z"/>
    <path fill="#EACE24" stroke="#806600" stroke-miterlimit="10" stroke-width=".026" d="M11.396 15.248h1.246v.292h-1.246v-.291Zm0-.063c-.002-.274-.04-.556-.158-.797a.16.16 0 0 1 .193.214.16.16 0 1 1 .034.3c.012.109.068.19.134.19.051 0 .096-.048.119-.12.023.072.068.12.119.12.071 0 .13-.094.135-.214a.16.16 0 1 1-.092-.29.16.16 0 1 1 .277 0 .16.16 0 1 1-.091.29c.005.12.064.214.135.214.051 0 .096-.048.12-.12.022.072.067.12.118.12.066 0 .122-.081.134-.189a.159.159 0 0 1-.193-.156.16.16 0 0 1 .227-.145.16.16 0 0 1 .193-.214c-.117.24-.156.523-.158.797h-1.246Z"/>
    <path fill="#806600" d="m12.056 14.746.17-.026-.179-.028-.028-.179-.028.179-.178.028.17.026h.073Zm-.666.55a.025.025 0 0 1 .024.017l.03.064a.025.025 0 0 1 0 .021l-.03.066a.025.025 0 0 1-.024.015v-.182Zm.015-.505.163-.055-.18.003-.059-.171.044.215.032.008Z"/>
    <path fill="#806600" d="M11.359 14.707h.006c.003 0 .006.002.009.004a.1.1 0 0 1 .008.007l.001.001a.065.065 0 0 1 .008.008v.001a.09.09 0 0 1 .02.057.089.089 0 0 1-.002.024l-.002.004v.001a.087.087 0 0 1-.007.016.018.018 0 0 1-.007.007.062.062 0 0 1-.004.003l-.004.001a1.742 1.742 0 0 0-.03-.134h.004Z"/>
    <path fill="#FF8080" d="m11.9 15.39.112-.066.112.066-.112.067-.112-.067Z"/>
    <path stroke="#9E7800" stroke-linejoin="round" stroke-width=".026" d="m11.9 15.39.112-.066.112.066-.112.067-.112-.067Z"/>
    <path fill="#FF8080" d="m11.9 15.39.112-.066.112.066-.112.067-.112-.067Z"/>
    <path fill="#BA0028" d="m12.124 15.39-.11.065-.002.002v-.066h.112Z"/>
    <path fill="#CF1E45" d="M12.012 15.39v.067l-.112-.066h.112Z"/>
    <path fill="#FF083C" d="M12.012 15.325v.065h.112l-.003-.001-.101-.06-.008-.005Z"/>
    <path fill="#F9C" d="m11.33 15.388.066-.066.03.066-.03.066-.066-.066Z"/>
    <path fill="red" d="M11.33 15.388h.096l-.03.066-.066-.066Z"/>
    <path fill="#CCC" d="M11.357 14.725h.006a.074.074 0 0 1 .021.097.052.052 0 0 1-.08-.045c0-.029.024-.052.053-.052Z"/>
    <path stroke="#9E7800" stroke-width=".026" d="M11.357 14.725h.006a.074.074 0 0 1 .021.097.052.052 0 0 1-.08-.045c0-.029.024-.052.053-.052Z"/>
    <path fill="#fff" d="M11.332 14.746a.025.025 0 1 1 0 .05.025.025 0 0 1 0-.05Z"/>
    <path fill="#806600" d="m12.633 14.791-.163-.055.18.003.059-.171-.044.215-.032.008Z"/>
    <path fill="#806600" d="M12.68 14.707h-.007a.018.018 0 0 0-.009.004.1.1 0 0 0-.008.007l-.001.001a.063.063 0 0 0-.007.008l-.001.001a.091.091 0 0 0-.02.057c0 .009 0 .017.003.024v.004h.001v.001a.08.08 0 0 0 .008.016.018.018 0 0 0 .006.007c.002 0 .003.002.005.003l.003.001a1.79 1.79 0 0 1 .03-.134h-.004Z"/>
    <path fill="#CCC" d="M12.681 14.725h-.006a.073.073 0 0 0-.021.097.052.052 0 1 0 .027-.097Z"/>
    <path stroke="#9E7800" stroke-width=".026" d="M12.681 14.725h-.006a.073.073 0 0 0-.021.097.052.052 0 1 0 .027-.097Z"/>
    <path fill="#fff" d="M12.69 14.736a.025.025 0 1 0 0 .05.025.025 0 0 0 0-.05Z"/>
    <path fill="#806600" d="M12.648 15.296a.025.025 0 0 0-.024.017l-.03.064a.026.026 0 0 0 0 .021l.03.066c.005.01.014.015.024.015v-.182Z"/>
    <path fill="#FF083C" d="m12.708 15.388-.066-.066-.03.066.03.066.066-.066Z"/>
    <path fill="#BA0028" d="M12.708 15.388h-.096l.03.066.066-.066Z"/>
    <path fill="#CCC" stroke="#9E7800" stroke-width=".013" d="M12.02 14.778a.059.059 0 1 0 0-.117.059.059 0 0 0 0 .117Z"/>
    <path fill="#fff" d="M12.009 14.727a.025.025 0 1 0 0-.05.025.025 0 0 0 0 .05Z"/>
    <path fill="#CCC" stroke="#9E7800" stroke-width=".013" d="M11.727 15.375a.043.043 0 1 0 0-.085.043.043 0 0 0 0 .085Z"/>
    <path fill="#fff" d="M11.72 15.337c.01 0 .017-.008.017-.017a.017.017 0 1 0-.017.017Z"/>
    <path fill="#CCC" stroke="#9E7800" stroke-width=".013" d="M11.727 15.5a.043.043 0 1 0 0-.086.043.043 0 0 0 0 .085Z"/>
    <path fill="#fff" d="M11.72 15.461c.01 0 .017-.008.017-.017a.017.017 0 1 0-.018.017Z"/>
    <path fill="#CCC" stroke="#9E7800" stroke-width=".013" d="M12.318 15.375a.043.043 0 1 0 0-.085.043.043 0 0 0 0 .085Z"/>
    <path fill="#fff" d="M12.31 15.337a.017.017 0 1 0 0-.035.017.017 0 0 0 0 .035Z"/>
    <path fill="#CCC" stroke="#9E7800" stroke-width=".013" d="M12.318 15.5a.043.043 0 1 0 0-.086.043.043 0 0 0 0 .085Z"/>
    <path fill="#fff" d="M12.31 15.461a.017.017 0 1 0 0-.034.017.017 0 0 0 0 .034Z"/>
    <path fill="#EACE24" stroke="#806600" stroke-miterlimit="10" stroke-width=".026" d="M10.138 13.838h1.246v.292h-1.246v-.292Zm0-.064c-.002-.274-.041-.556-.158-.797a.16.16 0 0 1 .193.215.16.16 0 1 1 .034.3c.012.108.067.19.134.19.05 0 .095-.049.119-.12.023.071.067.12.119.12.07 0 .13-.095.135-.214a.16.16 0 1 1-.092-.291.16.16 0 1 1 .277 0 .16.16 0 1 1-.092.29c.006.12.065.215.136.215.051 0 .096-.049.119-.12.023.071.068.12.119.12.066 0 .121-.082.133-.19a.16.16 0 1 1 .034-.3.159.159 0 0 1 .148-.221.16.16 0 0 1 .045.006c-.116.241-.155.523-.157.797h-1.247Z"/>
    <path fill="#806600" d="m10.797 13.336.17-.027-.178-.028-.028-.179-.028.179-.179.028.17.027h.073Zm-.665.55c.007 0 .013.002.018.007a.027.027 0 0 1 .006.01l.03.064a.025.025 0 0 1 0 .02l-.03.067a.025.025 0 0 1-.024.015v-.183Zm.015-.506.162-.055-.18.003-.058-.17.043.214.033.009Z"/>
    <path fill="#806600" d="M10.1 13.296h.006l.01.005a.099.099 0 0 1 .008.007h.001a.073.073 0 0 1 .007.008l.001.002c.013.015.02.035.02.057a.09.09 0 0 1-.003.024v.003l-.001.001a.09.09 0 0 1-.008.017.017.017 0 0 1-.006.006l-.005.003-.003.002a1.745 1.745 0 0 0-.03-.134h.004Z"/>
    <path fill="#FF8080" d="m10.642 13.98.112-.066.112.066-.112.066-.112-.066Z"/>
    <path stroke="#9E7800" stroke-linejoin="round" stroke-width=".026" d="m10.642 13.98.112-.066.112.066-.112.066-.112-.066Z"/>
    <path fill="#FF8080" d="m10.642 13.98.112-.066.112.066-.112.066-.112-.066Z"/>
    <path fill="#BA0028" d="m10.865 13.98-.11.065h-.001v-.065h.111Z"/>
    <path fill="#CF1E45" d="M10.754 13.98v.066l-.112-.066h.112Z"/>
    <path fill="#FF083C" d="M10.754 13.914v.066h.111l-.002-.002-.101-.06-.008-.004Z"/>
    <path fill="#F9C" d="m10.072 13.978.066-.066.03.066-.03.066-.066-.066Z"/>
    <path fill="red" d="M10.072 13.978h.096l-.03.066-.066-.066Z"/>
    <path fill="#CCC" d="M10.099 13.314h.005a.074.074 0 0 1 .022.097.052.052 0 0 1-.08-.044c0-.03.024-.053.053-.053Z"/>
    <path stroke="#9E7800" stroke-width=".026" d="M10.099 13.314h.005a.074.074 0 0 1 .022.097.052.052 0 0 1-.08-.044c0-.03.024-.053.053-.053Z"/>
    <path fill="#fff" d="M10.073 13.335a.025.025 0 1 1 0 .05.025.025 0 0 1 0-.05Z"/>
    <path fill="#806600" d="m11.375 13.38-.163-.055.18.003.059-.17-.044.214-.032.009Z"/>
    <path fill="#806600" d="M11.421 13.296h-.006a.017.017 0 0 0-.009.005.099.099 0 0 0-.008.007h-.002a.084.084 0 0 0-.007.008v.002a.09.09 0 0 0-.017.081v.003l.001.001a.09.09 0 0 0 .007.017.018.018 0 0 0 .007.006l.004.003.004.002c.008-.046.018-.09.03-.134h-.004Z"/>
    <path fill="#CCC" d="M11.423 13.314h-.006a.074.074 0 0 0-.021.097.052.052 0 1 0 .027-.097Z"/>
    <path stroke="#9E7800" stroke-width=".026" d="M11.423 13.314h-.006a.074.074 0 0 0-.021.097.052.052 0 1 0 .027-.097Z"/>
    <path fill="#fff" d="M11.432 13.325a.025.025 0 1 0 0 .05.025.025 0 0 0 0-.05Z"/>
    <path fill="#806600" d="M11.39 13.886a.026.026 0 0 0-.018.007.027.027 0 0 0-.006.01l-.03.064a.026.026 0 0 0 0 .02l.03.067c.005.01.014.015.024.015v-.183Z"/>
    <path fill="#FF083C" d="m11.45 13.978-.066-.066-.03.066.03.066.066-.066Z"/>
    <path fill="#BA0028" d="M11.45 13.978h-.096l.03.066.066-.066Z"/>
    <path fill="#CCC" stroke="#9E7800" stroke-width=".013" d="M10.76 13.368a.059.059 0 1 0 0-.117.059.059 0 0 0 0 .117Z"/>
    <path fill="#fff" d="M10.75 13.316a.025.025 0 1 0 0-.05.025.025 0 0 0 0 .05Z"/>
    <path fill="#CCC" stroke="#9E7800" stroke-width=".013" d="M10.469 13.964a.043.043 0 1 0 0-.085.043.043 0 0 0 0 .085Z"/>
    <path fill="#fff" d="M10.461 13.926c.01 0 .018-.007.018-.017a.017.017 0 1 0-.017.017Z"/>
    <path fill="#CCC" stroke="#9E7800" stroke-width=".013" d="M10.469 14.088a.043.043 0 1 0 0-.085.043.043 0 0 0 0 .085Z"/>
    <path fill="#fff" d="M10.461 14.05c.01 0 .018-.007.018-.017a.017.017 0 1 0-.017.017Z"/>
    <path fill="#CCC" stroke="#9E7800" stroke-width=".013" d="M11.06 13.964a.043.043 0 1 0 0-.085.043.043 0 0 0 0 .085Z"/>
    <path fill="#fff" d="M11.052 13.926a.017.017 0 1 0 0-.034.017.017 0 0 0 0 .034Z"/>
    <path fill="#CCC" stroke="#9E7800" stroke-width=".013" d="M11.06 14.088a.043.043 0 1 0 0-.085.043.043 0 0 0 0 .085Z"/>
    <path fill="#fff" d="M11.052 14.05a.017.017 0 1 0 0-.034.017.017 0 0 0 0 .034Z"/>
    <path fill="#EACE24" stroke="#806600" stroke-miterlimit="10" stroke-width=".026" d="M12.654 13.838H13.9v.292h-1.246v-.292Zm0-.064c-.002-.274-.04-.556-.157-.797a.16.16 0 0 1 .205.153.157.157 0 0 1-.012.062.16.16 0 1 1 .034.3c.012.108.067.19.133.19.051 0 .096-.049.12-.12.022.071.067.12.118.12.071 0 .13-.095.135-.214a.16.16 0 1 1-.092-.29.16.16 0 1 1 .277 0 .16.16 0 1 1-.091.29c.006.12.064.214.135.214.052 0 .096-.049.12-.12.023.071.067.12.118.12.067 0 .122-.082.134-.19a.16.16 0 1 1 .034-.3.159.159 0 0 1 .147-.221.16.16 0 0 1 .046.006c-.117.241-.155.523-.158.797h-1.246Z"/>
    <path fill="#806600" d="m13.314 13.336.17-.027-.179-.028-.028-.179-.028.179-.178.028.17.027h.073Zm-.665.55a.025.025 0 0 1 .023.016l.03.065a.025.025 0 0 1 0 .02l-.03.067a.025.025 0 0 1-.024.015v-.183Zm.014-.506.163-.055-.18.003-.059-.17.044.214.032.009Z"/>
    <path fill="#806600" d="M12.617 13.296h.006l.009.005a.073.073 0 0 1 .017.016.09.09 0 0 1 .02.058.086.086 0 0 1-.002.024l-.001.003v.001h-.001a.09.09 0 0 1-.007.017.017.017 0 0 1-.007.006l-.004.003-.004.002a1.793 1.793 0 0 0-.03-.134h.004Z"/>
    <path fill="#FF8080" d="m13.158 13.98.112-.066.112.066-.112.066-.112-.066Z"/>
    <path stroke="#9E7800" stroke-linejoin="round" stroke-width=".026" d="m13.158 13.98.112-.066.112.066-.112.066-.112-.066Z"/>
    <path fill="#FF8080" d="m13.158 13.98.112-.066.112.066-.112.066-.112-.066Z"/>
    <path fill="#BA0028" d="m13.382 13.98-.11.065h-.002v-.065h.112Z"/>
    <path fill="#CF1E45" d="M13.27 13.98v.066l-.112-.066h.112Z"/>
    <path fill="#FF083C" d="M13.27 13.914v.066h.112l-.003-.002-.1-.06-.009-.004Z"/>
    <path fill="#F9C" d="m12.588 13.978.066-.066.03.066-.03.066-.066-.066Z"/>
    <path fill="red" d="M12.588 13.978h.096l-.03.066-.066-.066Z"/>
    <path fill="#CCC" d="M12.615 13.314h.006a.074.074 0 0 1 .021.097.052.052 0 0 1-.08-.044c0-.03.024-.053.053-.053Z"/>
    <path stroke="#9E7800" stroke-width=".026" d="M12.615 13.314h.006a.074.074 0 0 1 .021.097.052.052 0 0 1-.08-.044c0-.03.024-.053.053-.053Z"/>
    <path fill="#fff" d="M12.59 13.335a.025.025 0 1 1 0 .05.025.025 0 0 1 0-.05Z"/>
    <path fill="#806600" d="m13.892 13.38-.163-.055.18.003.058-.17-.043.214-.032.009Z"/>
    <path fill="#806600" d="M13.938 13.296h-.006a.018.018 0 0 0-.01.005.099.099 0 0 0-.008.007h-.001a.072.072 0 0 0-.007.008l-.001.002a.091.091 0 0 0-.02.057c0 .008 0 .016.003.024l.001.003v.001a.083.083 0 0 0 .008.017.017.017 0 0 0 .006.006l.005.003.003.002c.008-.046.018-.09.03-.134h-.003Z"/>
    <path fill="#CCC" d="M13.94 13.314h-.006a.073.073 0 0 0-.022.097.052.052 0 1 0 .027-.097Z"/>
    <path stroke="#9E7800" stroke-width=".026" d="M13.94 13.314h-.006a.073.073 0 0 0-.022.097.052.052 0 1 0 .027-.097Z"/>
    <path fill="#fff" d="M13.949 13.325a.025.025 0 1 0 0 .05.025.025 0 0 0 0-.05Z"/>
    <path fill="#806600" d="M13.906 13.886a.026.026 0 0 0-.018.007.027.027 0 0 0-.005.01l-.03.064a.026.026 0 0 0 0 .02l.03.067c.004.01.014.015.023.015v-.183Z"/>
    <path fill="#FF083C" d="m13.966 13.978-.066-.066-.03.066.03.066.066-.066Z"/>
    <path fill="#BA0028" d="M13.966 13.978h-.096l.03.066.066-.066Z"/>
    <path fill="#CCC" stroke="#9E7800" stroke-width=".013" d="M13.277 13.368a.059.059 0 1 0 0-.117.059.059 0 0 0 0 .117Z"/>
    <path fill="#fff" d="M13.267 13.316a.025.025 0 1 0 0-.05.025.025 0 0 0 0 .05Z"/>
    <path fill="#CCC" stroke="#9E7800" stroke-width=".013" d="M12.985 13.964a.043.043 0 1 0 0-.085.043.043 0 0 0 0 .085Z"/>
    <path fill="#fff" d="M12.978 13.926c.01 0 .017-.007.017-.017a.017.017 0 1 0-.017.017Z"/>
    <path fill="#CCC" stroke="#9E7800" stroke-width=".013" d="M12.985 14.088a.043.043 0 1 0 0-.085.043.043 0 0 0 0 .085Z"/>
    <path fill="#fff" d="M12.978 14.05c.01 0 .017-.007.017-.017a.017.017 0 1 0-.017.017Z"/>
    <path fill="#CCC" stroke="#9E7800" stroke-width=".013" d="M13.576 13.964a.043.043 0 1 0 0-.085.043.043 0 0 0 0 .085Z"/>
    <path fill="#fff" d="M13.569 13.926c.01 0 .017-.007.017-.017a.017.017 0 0 0-.017-.017.017.017 0 0 0-.018.017c0 .01.008.017.018.017Z"/>
    <path fill="#CCC" stroke="#9E7800" stroke-width=".013" d="M13.576 14.088a.043.043 0 1 0 0-.085.043.043 0 0 0 0 .085Z"/>
    <path fill="#fff" d="M13.569 14.05c.01 0 .017-.007.017-.017a.017.017 0 0 0-.017-.017.017.017 0 0 0-.018.017c0 .01.008.018.018.018Z"/>
  </g>
  <defs>
    <clipPath id="saint-barthelemy__a">
      <path fill="#fff" d="M0 4h24v16H0z"/>
    </clipPath>
  </defs>
</svg>
