<svg xmlns="http://www.w3.org/2000/svg" fill="none" viewBox="0 0 24 24">
  <g clip-path="url(#brunei__a)">
    <path fill="#EDEDED" d="M12 23.998c6.627 0 11.998-5.372 11.998-11.998C23.998 5.374 18.627.002 12 .002 5.374.002.002 5.374.002 12c0 6.627 5.372 11.998 11.998 11.998Z"/>
    <path fill="#000" d="M1.61 6A12.006 12.006 0 0 0 .401 8.919l20.066 11.585A12.006 12.006 0 0 0 22.39 18L1.609 6.001Z"/>
    <path fill="#FFDA44" d="M18 1.61C13.197-1.164 7.278-.24 3.531 3.496l20.066 11.585C24.96 9.969 22.8 4.38 17.999 1.609ZM6 22.39c4.802 2.773 10.721 1.849 14.468-1.887L.402 8.918C-.96 14.031 1.2 19.62 6.001 22.391Z"/>
    <path fill="#D80027" d="M15.39 10.696a3.39 3.39 0 1 1-6.373-1.613 4.173 4.173 0 1 0 5.966 0c.26.48.408 1.029.408 1.613Z"/>
    <path fill="#D80027" d="M11.218 6.783h1.565v7.825h-1.565V6.783Z"/>
    <path fill="#D80027" d="M14.608 8.348H9.392c0 .36.313.652.674.652h-.022c0 .36.292.653.652.653 0 .36.292.652.652.652h1.304c.36 0 .652-.292.652-.652.36 0 .652-.292.652-.653h-.021c.36 0 .673-.291.673-.652Zm-6.26 6.782h7.304v1.565H8.348V15.13Z"/>
    <path fill="#D80027" d="M13.565 15.652h3.13v1.565h-3.13v-1.565Zm-6.26 0h3.13v1.565h-3.13v-1.565Z"/>
  </g>
  <defs>
    <clipPath id="brunei__a">
      <path fill="#fff" d="M0 12C0 5.373 5.373 0 12 0s12 5.373 12 12-5.373 12-12 12S0 18.627 0 12Z"/>
    </clipPath>
  </defs>
</svg>
