<svg xmlns="http://www.w3.org/2000/svg" fill="none" viewBox="0 0 24 24">
  <g clip-path="url(#brazil__a)">
    <path fill="#6DA544" d="M12 24c6.627 0 12-5.373 12-12S18.627 0 12 0 0 5.373 0 12s5.373 12 12 12Z"/>
    <path fill="#FFDA44" d="M12 4.696 21.913 12 12 19.304 2.087 12 12 4.696Z"/>
    <path fill="#EDEDED" d="M12 16.174a4.174 4.174 0 1 0 0-8.348 4.174 4.174 0 0 0 0 8.348Z"/>
    <path fill="#0052B4" d="M9.913 11.74a7.05 7.05 0 0 0-2.086.314 4.173 4.173 0 0 0 7.591 2.34 7.033 7.033 0 0 0-5.505-2.655Zm6.183 1.06a4.174 4.174 0 0 0-7.932-2.447 8.584 8.584 0 0 1 7.932 2.447Z"/>
  </g>
  <defs>
    <clipPath id="brazil__a">
      <path fill="#fff" d="M0 12C0 5.373 5.373 0 12 0s12 5.373 12 12-5.373 12-12 12S0 18.627 0 12Z"/>
    </clipPath>
  </defs>
</svg>
