<svg xmlns="http://www.w3.org/2000/svg" fill="none" viewBox="0 0 24 24">
  <g clip-path="url(#belarus__a)">
    <path fill="#F7F2F2" d="M12 24c6.627 0 12-5.373 12-12S18.627 0 12 0 0 5.373 0 12s5.373 12 12 12Z"/>
    <path fill="#A2001D" d="M4.957 11.13 3.652 8.764l1.304-2.33 1.305 2.33-1.304 2.366Zm-2.609 0L1.043 8.764l1.305-2.33 1.304 2.33-1.304 2.366Zm2.609 6.435L3.652 15.2l1.304-2.33 1.305 2.33-1.304 2.366Zm-2.609 0L1.043 15.2l1.305-2.33 1.304 2.33-1.304 2.366ZM6.26 2.33l-.368-.66c-.663.392-1.284.847-1.856 1.355l.92 1.67L6.261 2.33ZM4.956 19.304l-.93 1.662a12.03 12.03 0 0 0 1.855 1.358l.38-.69-1.305-2.33Z"/>
    <path fill="#6DA544" d="M7.304 15.13v7.916C8.747 23.66 10.334 24 12 24c5.16 0 9.558-3.256 11.254-7.826L7.304 15.13Z"/>
    <path fill="#A2001D" d="M23.254 16.174c.482-1.3.746-2.706.746-4.174 0-6.627-5.373-12-12-12-1.666 0-3.253.34-4.696.954v15.22h15.95Z"/>
  </g>
  <defs>
    <clipPath id="belarus__a">
      <path fill="#fff" d="M0 12C0 5.373 5.373 0 12 0s12 5.373 12 12-5.373 12-12 12S0 18.627 0 12Z"/>
    </clipPath>
  </defs>
</svg>
