<svg xmlns="http://www.w3.org/2000/svg" fill="none" viewBox="0 0 24 24">
  <g clip-path="url(#cocos-island__a)">
    <path fill="#6DA544" d="M12 24c6.627 0 12-5.373 12-12S18.627 0 12 0 0 5.373 0 12s5.373 12 12 12Z"/>
    <path fill="#FFDA44" d="m18.421 17.217.33.689.743-.172-.333.687.598.474-.744.168.002.763-.596-.477-.595.477.002-.763-.745-.168.598-.474-.333-.687.744.172.33-.689Zm-3.063-7.304.33.689.743-.172-.333.687.598.474-.745.168.002.763-.595-.478-.596.478.002-.764-.744-.167.598-.474-.333-.687.743.172.33-.689Zm3.063-4.173.33.688.743-.172-.333.687.598.474-.744.168.002.763-.596-.478-.595.478.002-.763-.745-.168.598-.474-.333-.687.744.172.33-.689Zm2.676 3.13.33.688.743-.172-.333.687.598.474-.745.168.002.763-.595-.477-.596.477.002-.763-.744-.168.598-.474-.333-.687.744.172.329-.688Zm-1.914 3.652.26.797h.838l-.678.493.259.797-.678-.493-.678.493.259-.797-.679-.493h.838l.26-.797Z"/>
    <path fill="#FFDA44" d="M13.304 15.391a3.391 3.391 0 1 1 1.614-6.375 4.174 4.174 0 1 0 0 5.967 3.38 3.38 0 0 1-1.614.408ZM7.546 4.696a2.086 2.086 0 0 0-3.614 0h3.614Zm.007.012L5.74 6.522 3.925 4.708a2.087 2.087 0 1 0 3.628 0Z"/>
    <path fill="#A2001D" d="M5.217 6v1.76a2.092 2.092 0 0 0 1.044 0V6H5.217Z"/>
  </g>
  <defs>
    <clipPath id="cocos-island__a">
      <path fill="#fff" d="M0 12C0 5.373 5.373 0 12 0s12 5.373 12 12-5.373 12-12 12S0 18.627 0 12Z"/>
    </clipPath>
  </defs>
</svg>
