<svg xmlns="http://www.w3.org/2000/svg" fill="none" viewBox="0 0 24 24">
  <g clip-path="url(#democratic-republic-of-congo__a)">
    <path fill="#FFDA44" d="M22.668 6.498a11.991 11.991 0 0 0-2.182-2.984c-.9-.9-1.91-1.627-2.984-2.181L9.05 9.048l-7.716 8.454a11.993 11.993 0 0 0 2.181 2.984c.901.9 1.91 1.627 2.984 2.181l8.454-7.716 7.716-8.453Z"/>
    <path fill="#D80027" d="M3.514 20.486c.504.503 1.04.952 1.604 1.347L21.833 5.118a12.068 12.068 0 0 0-2.951-2.951L2.167 18.882c.395.563.844 1.1 1.347 1.604Z"/>
    <path fill="#338AF3" d="M3.514 3.514C-.272 7.3-.998 12.986 1.332 17.502l16.17-16.17C12.986-.997 7.3-.27 3.514 3.515Zm16.972 16.972c3.785-3.786 4.512-9.472 2.181-13.988l-16.17 16.17c4.517 2.33 10.203 1.604 13.989-2.182Z"/>
    <path fill="#FFDA44" d="m6.395 3.652.648 1.993h2.095L7.443 6.876 8.09 8.87 6.395 7.638 4.7 8.869l.647-1.993-1.695-1.231h2.095l.648-1.993Z"/>
  </g>
  <defs>
    <clipPath id="democratic-republic-of-congo__a">
      <path fill="#fff" d="M0 12C0 5.373 5.373 0 12 0s12 5.373 12 12-5.373 12-12 12S0 18.627 0 12Z"/>
    </clipPath>
  </defs>
</svg>
