<svg xmlns="http://www.w3.org/2000/svg" fill="none" viewBox="0 0 24 24">
  <g clip-path="url(#central-african-republic__a)">
    <path fill="#EDEDED" d="M12 24c6.627 0 12-5.373 12-12S18.627 0 12 0 0 5.373 0 12s5.373 12 12 12Z"/>
    <path fill="#0052B4" d="M22.54 6.26A12.027 12.027 0 0 0 15.13.414l-.52 5.846h7.932Zm-21.08 0h7.93L8.87.414A12.027 12.027 0 0 0 1.46 6.26Z"/>
    <path fill="#6DA544" d="M14.609 12v5.74h7.932A11.972 11.972 0 0 0 24 12h-9.391Zm-5.218 0H0c0 2.079.529 4.034 1.46 5.74h7.93V12Z"/>
    <path fill="#FFDA44" d="M1.46 17.74a12.028 12.028 0 0 0 7.41 5.847l.521-5.114-7.932-.734Zm13.67 5.847a12.027 12.027 0 0 0 7.41-5.848l-7.931.734.521 5.114Z"/>
    <path fill="#FFDA44" d="m14.609 18.473 7.932-.734h-7.932v.734Zm-5.218-.733H1.46l7.932.733v-.734Z"/>
    <path fill="#D80027" d="M12 0a12.01 12.01 0 0 0-3.13.413v23.174A12.01 12.01 0 0 0 12 24a12.01 12.01 0 0 0 3.13-.413V.413A12.013 12.013 0 0 0 12 0Z"/>
    <path fill="#FFDA44" d="m6.455 2.609.323.996h1.048l-.847.616.323.996-.847-.615-.848.615.324-.996-.848-.616h1.048l.324-.996Z"/>
  </g>
  <defs>
    <clipPath id="central-african-republic__a">
      <path fill="#fff" d="M0 12C0 5.373 5.373 0 12 0s12 5.373 12 12-5.373 12-12 12S0 18.627 0 12Z"/>
    </clipPath>
  </defs>
</svg>
