<svg xmlns="http://www.w3.org/2000/svg" fill="none" viewBox="0 0 24 24">
  <g clip-path="url(#republic-of-the-congo__a)">
    <path fill="#FFDA44" d="m6.505 22.67 8.815-7.35 7.35-8.815a12.054 12.054 0 0 0-5.168-5.172L8.679 8.68l-7.346 8.822a12.052 12.052 0 0 0 5.172 5.169Z"/>
    <path fill="#D80027" d="M20.486 20.486c3.785-3.786 4.512-9.472 2.181-13.988l-16.17 16.17c4.517 2.33 10.203 1.604 13.989-2.182Z"/>
    <path fill="#6DA544" d="M3.514 3.514C-.272 7.3-.998 12.986 1.332 17.502l16.17-16.17C12.986-.998 7.3-.272 3.514 3.514Z"/>
  </g>
  <defs>
    <clipPath id="republic-of-the-congo__a">
      <path fill="#fff" d="M0 12C0 5.373 5.373 0 12 0s12 5.373 12 12-5.373 12-12 12S0 18.627 0 12Z"/>
    </clipPath>
  </defs>
</svg>
