<svg xmlns="http://www.w3.org/2000/svg" fill="none" viewBox="0 0 24 24">
  <g clip-path="url(#chile__a)">
    <path fill="#EDEDED" d="M12 24c6.627 0 12-5.373 12-12S18.627 0 12 0 0 5.373 0 12s5.373 12 12 12Z"/>
    <path fill="#D80027" d="M24 12c0 6.627-5.373 12-12 12S0 18.627 0 12s12 0 12 0h12Z"/>
    <path fill="#0052B4" d="M0 12C0 5.373 5.373 0 12 0v12H0Z"/>
    <path fill="#EDEDED" d="m7.143 4.174.777 2.391h2.515L8.4 8.043l.777 2.392-2.035-1.478-2.034 1.478.777-2.392-2.034-1.478h2.514l.777-2.391Z"/>
  </g>
  <defs>
    <clipPath id="chile__a">
      <path fill="#fff" d="M0 12C0 5.373 5.373 0 12 0s12 5.373 12 12-5.373 12-12 12S0 18.627 0 12Z"/>
    </clipPath>
  </defs>
</svg>
