<svg xmlns="http://www.w3.org/2000/svg" fill="none" viewBox="0 0 24 24">
  <g clip-path="url(#cameroon__a)">
    <path fill="#D80027" d="M17.217 1.19A11.953 11.953 0 0 0 12 0c-1.87 0-3.64.428-5.217 1.19L5.739 12l1.044 10.81A11.953 11.953 0 0 0 12 24c1.87 0 3.64-.428 5.217-1.19L18.261 12 17.217 1.19Z"/>
    <path fill="#FFDA44" d="m12 7.826 1.036 3.189h3.353l-2.713 1.97 1.036 3.189L12 14.204l-2.713 1.97 1.037-3.189-2.713-1.97h3.353L12 7.825Z"/>
    <path fill="#496E2D" d="M6.783 1.191A12 12 0 0 0 0 12a12 12 0 0 0 6.783 10.809V1.19Z"/>
    <path fill="#FFDA44" d="M17.217 1.191V22.81A12 12 0 0 0 24 12a12 12 0 0 0-6.783-10.809Z"/>
  </g>
  <defs>
    <clipPath id="cameroon__a">
      <path fill="#fff" d="M0 12C0 5.373 5.373 0 12 0s12 5.373 12 12-5.373 12-12 12S0 18.627 0 12Z"/>
    </clipPath>
  </defs>
</svg>
