<svg xmlns="http://www.w3.org/2000/svg" fill="none" viewBox="0 0 24 24">
  <g clip-path="url(#colombia__a)">
    <path fill="#FFDA44" d="M0 12C0 5.373 5.373 0 12 0s12 5.373 12 12l-12 1.043L0 12Z"/>
    <path fill="#D80027" d="M1.606 18C3.68 21.587 7.558 24 12 24s8.32-2.413 10.394-6L12 17.217 1.606 18Z"/>
    <path fill="#0052B4" d="M22.394 18A11.944 11.944 0 0 0 24 12H0c0 2.186.585 4.235 1.606 6h20.788Z"/>
  </g>
  <defs>
    <clipPath id="colombia__a">
      <path fill="#fff" d="M0 12C0 5.373 5.373 0 12 0s12 5.373 12 12-5.373 12-12 12S0 18.627 0 12Z"/>
    </clipPath>
  </defs>
</svg>
