<svg xmlns="http://www.w3.org/2000/svg" fill="none" viewBox="0 0 24 24">
  <g clip-path="url(#cuba__a)">
    <path fill="#FF9811" d="M0 2.087v19.826V2.087Z"/>
    <path fill="#EDEDED" d="M12 24c6.627 0 12-5.373 12-12S18.627 0 12 0 0 5.373 0 12s5.373 12 12 12Z"/>
    <path fill="#0052B4" d="M12 0a11.982 11.982 0 0 0-9.6 4.8h19.2A11.981 11.981 0 0 0 12 0Zm0 24c3.926 0 7.411-1.886 9.6-4.8H2.4A11.982 11.982 0 0 0 12 24ZM0 12c0 .822.083 1.625.24 2.4h23.52a12.055 12.055 0 0 0 0-4.8H.24C.083 10.376 0 11.178 0 12Z"/>
    <path fill="#D80027" d="M3.515 3.515c-4.686 4.686-4.686 12.284 0 16.97L12 12 3.515 3.515Z"/>
    <path fill="#EDEDED" d="m4.857 8.87.777 2.391h2.514l-2.034 1.478.777 2.391-2.034-1.478-2.035 1.478.778-2.391-2.035-1.478H4.08l.777-2.391Z"/>
  </g>
  <defs>
    <clipPath id="cuba__a">
      <path fill="#fff" d="M0 12C0 5.373 5.373 0 12 0s12 5.373 12 12-5.373 12-12 12S0 18.627 0 12Z"/>
    </clipPath>
  </defs>
</svg>
