<svg xmlns="http://www.w3.org/2000/svg" fill="none" viewBox="0 0 24 24">
  <g clip-path="url(#cabo-verde__a)">
    <path fill="#EDEDED" d="M12 24c6.627 0 12-5.373 12-12S18.627 0 12 0 0 5.373 0 12s5.373 12 12 12Z"/>
    <path fill="#0052B4" d="M12 24c3.637 0 6.896-1.618 9.097-4.174H2.903A11.972 11.972 0 0 0 12 24Zm12-12c0-6.627-5.373-12-12-12S0 5.373 0 12c0 1.083.144 2.132.413 3.13h23.174A12.01 12.01 0 0 0 24 12Z"/>
    <path fill="#D80027" d="M.954 16.696c.231.543.502 1.066.807 1.565H22.24c.305-.5.576-1.022.807-1.565H.954Z"/>
    <path fill="#FFDA44" d="m8.578 12.783.194.598H9.4l-.509.369.194.598-.508-.37-.509.37.194-.598-.508-.37h.628l.195-.597Zm0 7.826.194.598H9.4l-.509.37.194.597-.508-.37-.509.37.194-.598-.508-.37h.628l.195-.597Zm-3.643-2.647.194.598h.629l-.509.37.194.597-.508-.37-.509.37.194-.598-.508-.37h.628l.195-.597Zm1.391-4.397.194.598h.63l-.51.37.195.598-.509-.37-.508.37.194-.598-.509-.37h.629l.194-.598Zm-2.214 2.462h.628l.195-.598.194.598h.629l-.509.37.194.598-.508-.37-.509.37.194-.598-.508-.37Zm1.706 5.25.194-.598-.509-.37h.629l.194-.597.195.598h.628l-.508.37.194.597-.509-.37-.508.37Zm6.402-3.315-.195.598h-.629l.509.37-.194.597.508-.37.509.37-.194-.598.508-.37h-.628l-.195-.597Zm-1.392-4.397-.194.598h-.63l.51.37-.195.598.509-.37.508.37-.194-.598.509-.37h-.629l-.194-.598Zm2.214 2.462h-.628l-.195-.598-.194.598h-.629l.509.37-.194.598.508-.37.509.37-.194-.598.508-.37Zm-1.706 5.25-.194-.598.509-.37h-.629l-.194-.597-.194.598h-.63l.51.37-.195.597.509-.37.508.37Z"/>
  </g>
  <defs>
    <clipPath id="cabo-verde__a">
      <path fill="#fff" d="M0 12C0 5.373 5.373 0 12 0s12 5.373 12 12-5.373 12-12 12S0 18.627 0 12Z"/>
    </clipPath>
  </defs>
</svg>
