<svg xmlns="http://www.w3.org/2000/svg" fill="none" viewBox="0 0 24 24">
  <g clip-path="url(#christmas-island__a)">
    <mask id="christmas-island__b" width="24" height="24" x="0" y="0" maskUnits="userSpaceOnUse" style="mask-type:luminance">
      <path fill="#fff" d="M12 24c6.627 0 12-5.373 12-12S18.627 0 12 0 0 5.373 0 12s5.373 12 12 12Z"/>
    </mask>
    <g mask="url(#christmas-island__b)">
      <path fill="#0021AD" d="M12 16.334a4.334 4.334 0 0 1-3.877-6.273L-12 0v24h48L15.877 13.939A4.334 4.334 0 0 1 12 16.334Zm-20.347-1.252-.615-.572-.619.562.067-.835-.825-.135.696-.47-.413-.73.802.25.312-.778.302.783.802-.24-.423.725.687.48-.83.12.057.84Zm3.672-8.093.801.25.312-.778.303.782.801-.24-.422.725.686.48-.83.12.058.835-.615-.571-.619.566.067-.835-.825-.134.696-.47-.413-.73Zm1.829 15.091-.615-.571-.619.561.067-.835-.825-.134.696-.47-.413-.73.801.25.312-.778.303.782.801-.24-.422.725.686.48-.83.12.058.84Zm2.05-5.976-.663-.442-.643.466.225-.749-.653-.451.802-.02.24-.743.269.734.801-.01-.633.476.254.739Zm3.033-2.856-.615-.576-.619.566.067-.835-.825-.134.696-.47-.413-.73.802.25.312-.778.302.782.802-.24-.423.725.687.48-.83.12.057.84Z"/>
      <path fill="#1C8A42" d="M-12 0 8.123 10.061a4.334 4.334 0 1 1 7.754 3.878L36 24V0h-48Zm45.082 9.48c-.164.322-.384.25-.533.346-.034.393-.509.45-.965.49-.398.326-2.126.695-2.746 1.026-.206.072-1.334.677-2.126 1.167-.485.278-.926.125-1.594.59-2.77 1.315-5.635.691-6.801.303-.509-.183-.067-.26 0-.221 4.584.59 6.062.096 8.89-1.81 0 0 .35-.115.523-.768.096-.192.427-.672.412-1.291 0-.029-.038-.326-.547-.658l-.657-.547c-.192-.115-.384-.235-.576-.355-1.148-.562-2.016-1.234-2.938-2.222-.173-.14-.163-.384.355-.332 1.32.404 2.823.404 4.335 1.796.192.033.412.072.412-.236-.014-.484.327-1.392-.139-1.684-.417-.375-.629-.71-.864-1.167 0 0-.053-.384-.465-.835-.03-.024-.044-.34-.044-.34-.043-.183-.13-.313-.177-.495-.163-.274-.288-.576-.451-.85-.044-.307.163-.437.48-.22 1.32 1.065 3.076 2.74 3.273 3.518.303 1.176.221 4.008 1.08 4.056 0 .029.384.081.384.081.082-.038.163-.072.245-.11.26-.125.509-.091.864.029.24.187.58.293.672.547 0 0 .058.13-.302.192Z"/>
      <path fill="#FFC639" d="M12 16.334a4.334 4.334 0 0 0 3.877-2.395l-2.22-1.11a.45.45 0 0 0 .042.193c.039.202-.005.312-.053.514-.043.422-.21.485-.23.634-.077.158.014.902-.058.902-.49.01-.868-.096-1.06-.134.187-.816.115-1.532.115-1.604-.048-.58-.874-.441-.999-.518-.105-.024-.168-.106-.206-.144-.115-.014-.158-.038-.278-.053-.058.029-.024.058-.154.101-.331.038-.475-.288-.475-.288.014-.11-.74.024-1.152-.072-.168.096-.24.37-.38.403-.004.087-.225-.072-.273-.153-.01-.245.216-.356.216-.356.178-.124.283-.144.37-.23.043-.216.019-.374.11-.533.077-.125.192-.067.269-.12.081-.053.12-.417.043-.513l-.258-.235-1.123-.562A4.334 4.334 0 0 0 12 16.334Z"/>
      <path fill="#FFC639" d="M9.154 10.54c-.106-.311.13-.508.196-.489.298.408.744 1.09 1.11.912.282 0 .426.02.465.207.667.115 1.785-.168 2.477-1.076 0 0 .057.01.038-.336.005-.148.206-.12.211-.072.029.077.024.13.063.135.086-.029.201-.221.302-.341.029-.053.014-.11.02-.178.052-.13.182-.1.206-.033.024.043.024.077.048.12.13.086.37.005.384.005.024-.106.09-.096.09-.096.087-.02.054-.01.111.019-.053.576.115.6.101.897.005.332-.1.423-.1.548.033.153.518.158.35.288-.15.081 0 .23-.226.288-.658.336-.787.619-.787.619s-.163.312-.183.312c-.11.206-.25.096-.326.197-.025.083-.051.23-.047.363l2.22 1.11a4.334 4.334 0 1 0-7.754-3.878l1.123.562a3.021 3.021 0 0 0-.092-.082Z"/>
      <path fill="#1C8A42" d="M9.504 10.858c.077.096.038.46-.043.513-.077.053-.192-.005-.269.12-.091.159-.067.317-.11.533-.087.086-.192.106-.37.23 0 0-.226.11-.216.356.048.081.269.24.274.153.139-.033.21-.307.379-.403.413.096 1.166-.038 1.152.072 0 0 .144.326.475.288.13-.043.096-.072.154-.1.12.014.163.038.278.052.038.038.1.12.206.144.125.077.95-.062.999.518 0 .072.072.788-.115 1.604.192.038.57.144 1.06.134.072 0-.019-.744.058-.902.02-.15.187-.212.23-.634.048-.202.092-.312.053-.514a.462.462 0 0 1-.042-.193l-4.411-2.206.258.235Zm4.2 1.608c.077-.101.216.01.326-.197.02 0 .183-.312.183-.312s.13-.283.787-.62c.226-.057.077-.206.226-.287.168-.13-.317-.135-.35-.288 0-.125.105-.216.1-.548.014-.297-.154-.321-.1-.897-.058-.029-.025-.039-.111-.02 0 0-.067-.009-.091.097-.015 0-.255.081-.384-.005-.024-.043-.024-.077-.048-.12-.024-.067-.154-.096-.207.033-.005.068.01.125-.019.178-.1.12-.216.312-.302.34-.039-.004-.034-.057-.063-.134-.005-.048-.206-.076-.211.072.02.346-.038.336-.038.336-.692.908-1.81 1.19-2.477 1.076-.039-.188-.183-.207-.466-.207-.365.178-.811-.504-1.109-.912-.067-.019-.302.178-.196.49.006.004.044.038.092.082l4.412 2.205a1.25 1.25 0 0 1 .046-.363Z"/>
      <path fill="#FFC639" d="M32.712 8.74c-.355-.12-.605-.153-.864-.028-.082.038-.163.072-.245.11 0 0-.384-.052-.384-.081-.859-.048-.777-2.88-1.08-4.056-.197-.778-1.953-2.453-3.273-3.519-.317-.216-.524-.086-.48.221.163.274.288.576.45.85.049.182.135.312.178.494 0 0 .015.317.044.341.412.451.465.835.465.835.235.456.447.792.864 1.167.466.292.125 1.2.14 1.684 0 .308-.221.27-.413.236-1.512-1.392-3.015-1.392-4.335-1.796-.518-.052-.528.192-.355.332.922.988 1.79 1.66 2.938 2.222.192.12.384.24.576.355.22.183.436.365.657.547.509.332.547.63.547.658.015.62-.316 1.1-.412 1.291-.173.653-.524.768-.524.768-2.827 1.906-4.305 2.4-8.89 1.81-.066-.039-.508.038 0 .22 1.167.39 4.033 1.013 6.802-.302.668-.465 1.11-.312 1.594-.59.792-.49 1.92-1.095 2.126-1.167.62-.33 2.348-.7 2.746-1.027.456-.038.931-.096.965-.49.149-.095.37-.023.533-.345.36-.062.302-.192.302-.192-.091-.254-.432-.36-.672-.547Zm-.571.572c-.024.067-.135.096-.245.062-.11-.033-.182-.12-.158-.187.024-.067.134-.096.244-.062.116.033.183.12.159.187Z"/>
      <path fill="#fff" d="m2.323 11.808.423-.725-.802.24-.302-.782-.312.777-.802-.25.413.73-.696.47.825.135-.067.835.62-.566.614.576-.058-.84.83-.12-.686-.48Z"/>
    </g>
  </g>
  <defs>
    <clipPath id="christmas-island__a">
      <path fill="#fff" d="M0 12C0 5.373 5.373 0 12 0s12 5.373 12 12-5.373 12-12 12S0 18.627 0 12Z"/>
    </clipPath>
  </defs>
</svg>
