<svg xmlns="http://www.w3.org/2000/svg" fill="none" viewBox="0 0 26 26">
  <g clip-path="url(#cyprus__a)">
    <path fill="#F7F2F2" d="M13 25c6.627 0 12-5.373 12-12S19.627 1 13 1 1 6.373 1 13s5.373 12 12 12Z"/>
    <path fill="#6DA544" d="M19.783 11.435h-1.566a5.217 5.217 0 0 1-10.434 0H6.218a6.785 6.785 0 0 0 4.93 6.526 1.736 1.736 0 0 0 .181 1.896l1.706-1.367 1.705 1.367c.45-.562.495-1.318.172-1.913a6.785 6.785 0 0 0 4.87-6.51Z"/>
    <path fill="#FFDA44" d="M8.826 10.913s0 2.609 2.609 2.609l.521.521H13s.522-1.565 1.565-1.565c0 0 0-1.043 1.044-1.043h1.565s-.522-2.087 2.087-3.652l-1.044-.522s-3.652 2.609-6.26 2.087v1.043h-1.044l-.522-.521-1.565 1.043Z"/>
  </g>
  <path stroke="#E4E7EC" d="M13 .5C6.096.5.5 6.096.5 13S6.096 25.5 13 25.5 25.5 19.904 25.5 13 19.904.5 13 .5Z"/>
  <defs>
    <clipPath id="cyprus__a">
      <path fill="#fff" d="M1 13C1 6.373 6.373 1 13 1s12 5.373 12 12-5.373 12-12 12S1 19.627 1 13Z"/>
    </clipPath>
  </defs>
</svg>
