<svg xmlns="http://www.w3.org/2000/svg" fill="none" viewBox="0 0 24 24">
  <g clip-path="url(#djibouti__a)">
    <path fill="#338AF3" d="M10.957 13.043s-7.435-9.53-7.442-9.528A11.962 11.962 0 0 1 12 0c6.627 0 12 5.373 12 12l-13.043 1.043Z"/>
    <path fill="#6DA544" d="M10.957 12s-7.435 8.487-7.442 8.485A11.963 11.963 0 0 0 12 24c6.627 0 12-5.373 12-12H10.957Z"/>
    <path fill="#EDEDED" d="M3.515 3.515c-4.687 4.686-4.687 12.284 0 16.97L12 12 3.515 3.515Z"/>
    <path fill="#D80027" d="m4.857 8.87.777 2.39h2.514l-2.034 1.48.777 2.391-2.034-1.478-2.035 1.478.777-2.391-2.034-1.478H4.08l.777-2.391Z"/>
  </g>
  <defs>
    <clipPath id="djibouti__a">
      <path fill="#fff" d="M0 12C0 5.373 5.373 0 12 0s12 5.373 12 12-5.373 12-12 12S0 18.627 0 12Z"/>
    </clipPath>
  </defs>
</svg>
