<svg xmlns="http://www.w3.org/2000/svg" fill="none" viewBox="0 0 24 24">
  <g clip-path="url(#denmark__a)">
    <path fill="#EDEDED" d="M12 24c6.627 0 12-5.373 12-12S18.627 0 12 0 0 5.373 0 12s5.373 12 12 12Z"/>
    <path fill="#D80027" d="M9.391 10.435h14.507C23.131 4.547 18.097 0 12 0c-.896 0-1.769.099-2.609.285v10.15Zm-3.131 0V1.459a12.007 12.007 0 0 0-6.158 8.976H6.26Zm0 3.13H.103a12.007 12.007 0 0 0 6.159 8.976v-8.976Zm3.131 0v10.15c.84.186 1.713.285 2.609.285 6.097 0 11.131-4.547 11.898-10.435H9.391Z"/>
  </g>
  <defs>
    <clipPath id="denmark__a">
      <path fill="#fff" d="M0 12C0 5.373 5.373 0 12 0s12 5.373 12 12-5.373 12-12 12S0 18.627 0 12Z"/>
    </clipPath>
  </defs>
</svg>
