<svg xmlns="http://www.w3.org/2000/svg" fill="none" viewBox="0 0 24 24">
  <g clip-path="url(#dominica__a)">
    <path fill="#EDEDED" d="M12 24c6.627 0 12-5.373 12-12S18.627 0 12 0 0 5.373 0 12s5.373 12 12 12Z"/>
    <path fill="#496E2D" d="M14.348 23.77a12.013 12.013 0 0 0 9.422-9.422h-9.422v9.422ZM.23 14.348a12.013 12.013 0 0 0 9.422 9.422v-9.422H.23Zm23.54-4.696A12.013 12.013 0 0 0 14.348.23v9.422h9.422ZM9.652.23A12.013 12.013 0 0 0 .23 9.652h9.422V.23Z"/>
    <path fill="#FFDA44" d="M11.217 14.348H9.652v9.422c.511.101 1.034.17 1.565.204v-9.626Zm0-4.696V.026C10.685.06 10.163.13 9.652.23v9.422h1.565Z"/>
    <path fill="#000" d="M12.783.026a12.122 12.122 0 0 0-1.566 0v9.626h1.566V.026Zm-1.566 23.948a12.146 12.146 0 0 0 1.566 0v-9.626h-1.566v9.626Z"/>
    <path fill="#FFDA44" d="M9.652 11.217V9.652H.23a12 12 0 0 0-.204 1.565h9.626Zm4.696 0h9.626a12.004 12.004 0 0 0-.204-1.565h-9.422v1.565Z"/>
    <path fill="#000" d="M14.348 12.783h9.626a12.146 12.146 0 0 0 0-1.566h-9.626v1.566ZM.026 11.217a12.155 12.155 0 0 0 0 1.566h9.626v-1.566H.026Z"/>
    <path fill="#D80027" d="M12 17.74a5.74 5.74 0 1 0 0-11.48 5.74 5.74 0 0 0 0 11.48Z"/>
    <path fill="#496E2D" d="M13.307 12.64c-.426-.853-.981-1.719-.981-1.719s.014-.394.014-.628a.64.64 0 0 0-1.278-.056.505.505 0 0 0-.2.951.728.728 0 0 1 .431-.4.696.696 0 0 0 .102.068l.082.04s-.304.857-.304 1.317c0 1.295.854 1.695.854 1.695v.013l-.427.427h.854v-.854l.427.427c.003-.008.808-.517.426-1.28ZM12 7.304l.194.598h.629l-.509.37.195.598L12 8.5l-.509.37.195-.598-.509-.37h.629L12 7.304Zm-2.76.897.508.37.51-.37-.195.598.508.37h-.628l-.194.597-.195-.597h-.628l.508-.37L9.24 8.2Zm-1.706 2.348h.629l.194-.598.194.598h.629l-.509.37.195.597-.509-.37-.509.37.195-.598-.509-.369Zm0 2.902.509-.37-.195-.597.509.37.509-.37-.195.598.509.37h-.629l-.194.597-.194-.598h-.629Zm1.706 2.348.194-.598-.508-.37h.628l.195-.597.194.598h.629l-.51.37.195.597-.508-.37-.509.37Zm2.76.897-.194-.598h-.629l.509-.37-.195-.598.509.37.508-.37-.194.598.509.37h-.629l-.194.598Zm2.76-.897-.508-.37-.51.37.195-.598-.508-.37h.628l.194-.597.195.598h.628l-.508.37.194.597Zm1.706-2.348h-.629l-.194.598-.194-.598h-.629l.509-.37-.195-.597.509.37.508-.37-.194.598.509.369Zm0-2.902-.509.37.195.597-.509-.37-.509.37.195-.598-.509-.369h.629l.194-.598.194.598h.629ZM14.76 8.201l-.194.598.508.37h-.628l-.194.597-.195-.597h-.628l.508-.37-.194-.598.508.37.509-.37Z"/>
  </g>
  <defs>
    <clipPath id="dominica__a">
      <path fill="#fff" d="M0 12C0 5.373 5.373 0 12 0s12 5.373 12 12-5.373 12-12 12S0 18.627 0 12Z"/>
    </clipPath>
  </defs>
</svg>
