<svg xmlns="http://www.w3.org/2000/svg" fill="none" viewBox="0 0 24 24">
  <g clip-path="url(#dominican-republic__a)">
    <path fill="#EDEDED" d="M12 24c6.627 0 12-5.373 12-12S18.627 0 12 0 0 5.373 0 12s5.373 12 12 12Z"/>
    <path fill="#D80027" d="M.413 15.13a12.021 12.021 0 0 0 8.457 8.457V15.13H.413Z"/>
    <path fill="#0052B4" d="M8.87.413A12.02 12.02 0 0 0 .413 8.87H8.87V.413Z"/>
    <path fill="#D80027" d="M23.587 8.87A12.021 12.021 0 0 0 15.13.413V8.87h8.457Z"/>
    <path fill="#0052B4" d="M15.13 23.587a12.021 12.021 0 0 0 8.457-8.457H15.13v8.457Z"/>
    <path fill="#496E2D" d="M15.13 12a3.13 3.13 0 1 1-6.26 0c0-1.729 3.13-3.13 3.13-3.13s3.13 1.401 3.13 3.13Z"/>
    <path fill="#0052B4" d="M8.87 12a3.13 3.13 0 0 1 6.26 0"/>
    <path fill="#D80027" d="M10.24 10.435v1.956a1.76 1.76 0 0 0 3.52 0v-1.956h-3.52Z"/>
  </g>
  <defs>
    <clipPath id="dominican-republic__a">
      <path fill="#fff" d="M0 12C0 5.373 5.373 0 12 0s12 5.373 12 12-5.373 12-12 12S0 18.627 0 12Z"/>
    </clipPath>
  </defs>
</svg>
