<svg xmlns="http://www.w3.org/2000/svg" fill="none" viewBox="0 0 24 24">
  <g clip-path="url(#estonia__a)">
    <path fill="#000" d="M0 12c0 1.468.264 2.874.746 4.174L12 16.696l11.254-.522c.482-1.3.746-2.706.746-4.174 0-1.468-.264-2.874-.746-4.174L12 7.304.746 7.826A11.975 11.975 0 0 0 0 12Z"/>
    <path fill="#0052B4" d="M12 0C6.84 0 2.442 3.256.746 7.826h22.508C21.558 3.256 17.16 0 12 0Z"/>
    <path fill="#EDEDED" d="M23.254 16.174H.746C2.442 20.744 6.84 24 12 24c5.16 0 9.558-3.256 11.254-7.826Z"/>
  </g>
  <defs>
    <clipPath id="estonia__a">
      <path fill="#fff" d="M0 12C0 5.373 5.373 0 12 0s12 5.373 12 12-5.373 12-12 12S0 18.627 0 12Z"/>
    </clipPath>
  </defs>
</svg>
