<svg xmlns="http://www.w3.org/2000/svg" fill="none" viewBox="0 0 24 24">
  <g clip-path="url(#western-sahara__a)">
    <path fill="#EDEDED" d="M1.19 6.783A11.952 11.952 0 0 0 0 12c0 1.87.428 3.64 1.19 5.217L12 18.261l10.81-1.044A11.953 11.953 0 0 0 24 12c0-1.87-.428-3.64-1.19-5.217L12 5.739 1.19 6.783Z"/>
    <path fill="#496E2D" d="M1.191 17.217A12 12 0 0 0 12 24a12 12 0 0 0 10.809-6.783H1.19Z"/>
    <path fill="#000" d="M1.191 6.783H22.81A12 12 0 0 0 12 0 12 12 0 0 0 1.191 6.783Z"/>
    <path fill="#D80027" d="M3.515 3.515c-4.687 4.686-4.687 12.284 0 16.97L12 12 3.515 3.515ZM15.13 12A3.653 3.653 0 0 1 18 8.433a3.652 3.652 0 1 0 0 7.134A3.653 3.653 0 0 1 15.13 12Z"/>
    <path fill="#D80027" d="m18.153 9.652.519 1.595h1.676l-1.356.985.518 1.594-1.357-.985-1.356.985.518-1.594-1.356-.985h1.676l.518-1.595Z"/>
  </g>
  <defs>
    <clipPath id="western-sahara__a">
      <path fill="#fff" d="M0 12C0 5.373 5.373 0 12 0s12 5.373 12 12-5.373 12-12 12S0 18.627 0 12Z"/>
    </clipPath>
  </defs>
</svg>
