<svg xmlns="http://www.w3.org/2000/svg" fill="none" viewBox="0 0 24 24">
  <g clip-path="url(#micronesia__a)">
    <path fill="#338AF3" d="M12 24c6.627 0 12-5.373 12-12S18.627 0 12 0 0 5.373 0 12s5.373 12 12 12Z"/>
    <path fill="#EDEDED" d="m12 5.217.518 1.595h1.676l-1.356.985.518 1.594L12 8.406l-1.356.985.518-1.594-1.356-.985h1.676L12 5.217ZM5.217 12l1.595-.518V9.806l.985 1.356 1.594-.518L8.406 12l.985 1.356-1.594-.518-.985 1.356v-1.676L5.217 12ZM12 18.783l-.518-1.595H9.806l1.356-.985-.518-1.594 1.356.985 1.356-.985-.518 1.594 1.356.985h-1.676L12 18.783ZM18.783 12l-1.595.518v1.676l-.985-1.356-1.594.518.985-1.356-.985-1.356 1.594.518.985-1.356v1.676l1.595.518Z"/>
  </g>
  <defs>
    <clipPath id="micronesia__a">
      <path fill="#fff" d="M0 12C0 5.373 5.373 0 12 0s12 5.373 12 12-5.373 12-12 12S0 18.627 0 12Z"/>
    </clipPath>
  </defs>
</svg>
