<svg xmlns="http://www.w3.org/2000/svg" fill="none" viewBox="0 0 24 24">
  <g clip-path="url(#french-guadeloupe__a)">
    <path fill="#002488" d="M0-1v9h24v-9H0Z"/>
    <path fill="green" d="M15.203 12.158c0 .037.126.119.282.186.259.11.57.222 2.866 1.045.985.356 1.37.46 1.37.364 0-.037-.888-.364-1.977-.72-1.096-.363-2.111-.72-2.26-.8-.155-.075-.28-.104-.28-.075Zm1.045.643c.044.074 2.762 1.187 3.222 1.32.17.052.244-.089.074-.148a71.72 71.72 0 0 1-1.133-.408 58.214 58.214 0 0 1-2.104-.8c-.067-.023-.089-.008-.06.036Z"/>
    <path fill="#DA121A" d="M0 8v16h24V8H0Z"/>
    <path fill="#FCDD09" d="M11.848 1.745c-.35.578-.392 1.04-.153 1.838.115.372.242.928.295 1.23.07.425.063.466.073.558h.383c.014-.147.025-.317.056-.551.037-.273.145-.843.262-1.24.234-.79.218-1.277-.145-1.826-.133-.204-.31-.373-.39-.373-.08 0-.26.156-.38.364Zm1.721 1.635c-.496.212-.794.801-.957 1.613-.03.153-.038.207-.053.378.108 0 .15.002.255.001.022-.116.039-.177.09-.34.2-.635.789-.89.762-.296a.522.522 0 0 1-.155.344c.096-.024.298-.118.462-.212.912-.55.552-1.896-.404-1.488Zm-2.027 2.199c.4.001 1.092.005 1.425.003 0-.086.001-.042.002-.111-.244-.002-1.181.001-1.425.001 0 .045 0 .066-.002.107Zm.118.469c-.144.156-.37.272-.37.272s.2.022.386.009a.999.999 0 0 0 .399-.09c-.03.221-.032.436-.032.436.027.285.058.358.12.497.084.116.132.117.194-.006a1.23 1.23 0 0 0 .125-.493 2.187 2.187 0 0 0-.052-.432c.128.056.21.07.401.088.197.018.377.009.377.009s-.265-.133-.382-.297c-.115-.161-.09-.134-.174-.342-.102-.005-.618 0-.782 0-.09.19-.099.23-.21.349Zm-.729-2.668c.496.212.794.801.957 1.613.03.152.038.206.053.378-.108 0-.15.001-.255 0a2.855 2.855 0 0 0-.09-.34c-.2-.635-.789-.89-.762-.295a.521.521 0 0 0 .155.343 2.452 2.452 0 0 1-.462-.21c-.912-.55-.552-1.898.404-1.49Z"/>
    <path fill="green" d="M4.203 11.244c.215.319.46.549.934.868.348.237.652.422.666.408.03-.038-1.703-1.647-1.822-1.691-.044-.015.052.17.222.415Zm4.46 1.698c.16.075.366.134.47.138.122.004.09-.026-.139-.115a2.406 2.406 0 0 1-.487-.26c-.17-.14-.17-.14-.153-.017.01.07.139.178.309.254Z"/>
    <path fill="green" d="M7.663 11.495c.103.415.533 1.18.681 1.209.133.022.133.015.022-.111-.185-.216-.585-1.002-.585-1.15 0-.082-.037-.14-.081-.14-.052 0-.067.073-.037.192Zm-4.453-.521c-.002.015.137.122.311.243s.377.293.445.38c.115.156.77.543.83.493.06-.042-.782-.725-1.138-.924-.424-.24-.439-.243-.448-.192Z"/>
    <path fill="green" d="M3.449 11.545c0 .015.156.096.348.185.193.09.422.223.504.297.14.133.852.4.903.341.052-.052-.896-.579-1.281-.712-.46-.163-.474-.163-.474-.111Zm3.304.261c.281.52.57.86.688.824.06-.023-.074-.238-.362-.586-.26-.304-.482-.571-.504-.594-.022-.022.06.141.178.357Zm.364-.202c0 .082.289.645.459.883.096.133.207.207.333.207.185 0 .185 0-.096-.319a9.328 9.328 0 0 1-.489-.57c-.111-.142-.207-.23-.207-.2Zm-.681.24c0 .11.541.852.625.852.038 0-.053-.178-.214-.393-.358-.49-.411-.541-.411-.46Zm-.512 2.043c-.489.193-.593.26-.593.364 0 .044.052.037.134-.03.066-.067.31-.156.533-.208.222-.052.489-.14.593-.193l.185-.096h-.222a3.036 3.036 0 0 0-.63.163Z"/>
    <path fill="green" d="M4.536 12.627c.365.333 1.587.961 2.206 1.146.167.05.44.06.593.028l.287-.057-.283-.15c-.456-.236-1.206-.736-1.475-.977-.293-.264-.283-.173.015.192.116.147.46.4.763.559.304.165.517.316.482.329-.09.033-.926-.444-1.562-.891-.69-.49-.719-.504-.462-.187.126.151.36.358.528.455.165.106.278.199.243.211-.07.026-.503-.211-1.068-.573-.158-.109-.372-.244-.465-.304-.103-.066-.011.035.198.22Z"/>
    <path fill="green" d="m4.59 12.524-.297.096.223.037c.118.03.274.015.348-.022a.868.868 0 0 1 .296-.074c.163 0 .163-.008.022-.067-.185-.082-.23-.082-.592.03Zm.365.201c-.126.096-.119.104.155.06.163-.023.4-.067.519-.097.192-.052.178-.06-.156-.067-.222-.007-.43.037-.518.104Z"/>
    <path fill="green" d="M3.115 11.945c1.222.223 3.674 1.046 3.525 1.187-.037.037-.725-.134-.822-.2-.037-.037-.4-.023-.8.03-.748.08-.874.148-.859.452.007.148.007.148.044 0 .067-.275.178-.334.6-.334.46 0 1.719.185 2.274.334.741.207.763.207.519.074-.319-.178-.8-.505-.889-.6-.163-.186-3.118-1.002-3.548-.987-.2.015-.207.015-.044.044Z"/>
    <path fill="green" d="M3.677 12.34a.642.642 0 0 0-.208.349c-.044.215-.044.215.074.074.311-.393.334-.408.719-.415.31-.008.355-.022.207-.067-.311-.096-.622-.074-.792.06Zm3.775.458c.06.104.637.393.682.349.022-.023-.045-.082-.134-.134a1.18 1.18 0 0 1-.274-.193c-.118-.11-.34-.133-.274-.022Zm.045.705c.059.104.637.393.681.348.022-.022-.044-.081-.133-.133a1.183 1.183 0 0 1-.274-.193c-.119-.111-.341-.134-.274-.022Z"/>
    <path fill="green" d="M6.669 12.62c.01-.01.177.045.375.122.197.076.453.15.563.156.193.009.88.336.872.414 0 .074-1.038-.243-1.401-.428-.436-.218-.447-.228-.41-.264Z"/>
    <path fill="green" d="M7.895 13.162c-.138.053-.277.15-.32.219-.05.082-.008.083.17-.007.14-.07.342-.128.453-.137.207-.01.207-.01.075-.093-.075-.047-.235-.042-.378.018Z"/>
    <path fill="green" d="M7.042 13.694c-.422.379-.515.643-.38 1.036l.117.336-.033-.34c-.05-.467.076-.68.587-1.049.24-.171.431-.327.427-.341-.026-.078-.503.155-.718.358Zm-2.613-3.032c.23.438 1.163 1.446 1.681 1.832.141.104.393.208.548.23l.29.044-.215-.237c-.349-.378-.882-1.105-1.052-1.424-.185-.348-.208-.26-.052.186.06.178.296.534.526.786.23.26.378.474.34.474-.096 0-.718-.734-1.162-1.372-.482-.697-.504-.719-.37-.333.066.185.214.46.34.608.118.155.193.282.155.282-.074 0-.4-.371-.807-.905-.111-.156-.267-.356-.333-.445-.074-.097-.022.03.11.274Z"/>
    <path fill="green" d="M6.818 12.739c0 .052.111.185.245.289.392.297 1.437.793 1.57.742.081-.03-.044-.112-.4-.245-.622-.245-1.193-.571-1.193-.682 0-.06.245-.067.852-.03.911.052 1.185-.052.356-.126-.874-.09-1.43-.067-1.43.052Zm-1.955.793c-.319.075-.49.186-.49.32 0 .051.03.044.068-.016.059-.096.666-.274.725-.215.015.015-.007.126-.051.238-.045.11-.06.222-.037.244.022.03.059-.03.081-.11.089-.32.363-.416 1.022-.357.334.03.704.067.822.074.126.008.297.052.386.104.192.104.94.111.874.008-.023-.037-.163-.09-.319-.112a9.054 9.054 0 0 1-.689-.155c-.459-.12-1.926-.134-2.392-.023Zm2.705.856c-.559-.1-.824-.01-1.05.338l-.193.3.248-.236c.337-.327.581-.359 1.187-.183.283.084.523.139.53.127.046-.068-.43-.3-.722-.346Z"/>
    <path fill="green" d="M6.845 14.182c-1.03.282-1.148.385-1 .853.059.178.059.17.066-.06a.692.692 0 0 1 .149-.378c.133-.133.733-.304 1.466-.423.178-.022.296-.074.274-.11-.059-.097-.296-.068-.955.118Zm.875.362c-.519.23-.69.452-.682.868l.008.356.074-.334c.096-.46.281-.623.881-.816.282-.089.511-.178.511-.193 0-.081-.526-.007-.792.12Z"/>
    <path fill="green" d="M7.621 15.18c-.089.12-.155.275-.155.357 0 .096.037.074.14-.097.082-.133.223-.289.312-.356.17-.118.17-.118.014-.118-.088 0-.222.089-.31.215Zm8.009 1.21c.24.104 1.488.419 2.371.678.883.259 1.916.557 2.144.589.327-.713-.268.62.072-.188-.441-.112-2.18-.522-2.877-.722-.602-.169-1.455-.432-1.673-.48-.219-.048-.222.042-.037.122Z"/>
    <path fill="green" d="M15.782 16.204c.244.096 1.503.368 2.394.595.892.228 1.934.49 2.163.514.302-.723-.246.63.065-.19-.445-.097-2.196-.445-2.9-.621-.607-.148-1.469-.38-1.689-.421-.22-.04-.22.05-.033.123Zm-.345.32c.235.117 1.464.497 2.333.802.868.304 1.883.656 2.11.7.363-.695-.3.606.08-.183-.434-.136-2.148-.636-2.834-.873-.592-.2-1.43-.507-1.646-.566-.215-.06-.223.03-.043.12Z"/>
    <path fill="green" d="M15.287 16.676c.228.129 1.437.573 2.288.923.85.35 1.846.754 2.07.81.4-.675-.33.589.09-.18-.426-.157-2.112-.746-2.785-1.019-.58-.23-1.401-.581-1.613-.652-.213-.071-.225.019-.05.118Z"/>
    <path fill="green" d="M15.146 16.867c.224.137 1.416.623 2.254 1.002.838.38 1.82.819 2.041.882.423-.66-.351.577.097-.176-.421-.172-2.085-.82-2.748-1.116-.572-.25-1.38-.63-1.59-.708-.21-.078-.225.01-.054.116Z"/>
    <path fill="green" d="M14.987 17.041c.216.149 1.381.696 2.198 1.12.818.422 1.774.912 1.993.987.456-.637-.382.558.105-.17-.411-.195-2.04-.929-2.686-1.26-.558-.28-1.345-.7-1.55-.79-.206-.089-.226 0-.06.113Z"/>
    <path fill="#FCDD09" d="m12.44 18.618.24.171c.343.24.532.574.514.918l-.013.284.113-.28c.123-.292.106-.735-.04-1.063l-.085-.192.27.118c.387.163.641.45.694.79l.047.281.052-.297c.06-.312-.048-.742-.26-1.032l-.122-.17.289.06c.411.078.72.306.842.628l.104.265-.01-.302c-.006-.317-.202-.715-.469-.955l-.155-.14.295-.003c.419-.008.768.15.954.44l.157.237-.073-.293c-.072-.309-.346-.657-.656-.837l-.181-.105.288-.063c.408-.096.782-.013 1.025.23l.202.2-.132-.27c-.135-.288-.475-.572-.816-.683l-.199-.065.268-.122c.38-.178.763-.176 1.051.013l.24.153-.186-.238c-.191-.253-.583-.46-.94-.497l-.208-.022.237-.176c.335-.253.71-.33 1.03-.206l.267.1-.23-.194c-.24-.208-.667-.329-1.024-.291l-.207.022.195-.221c.274-.318.625-.471.965-.416l.28.042-.265-.142c-.278-.153-.72-.183-1.06-.072l-.2.065.146-.257c.202-.367.513-.59.857-.608l.284-.017-.29-.083c-.303-.092-.742-.03-1.052.15l-.182.105.09-.281c.12-.402.38-.685.712-.774l.274-.075-.3-.021c-.317-.027-.732.126-.999.366l-.155.14.028-.294c.035-.418.23-.748.536-.904l.252-.131-.298.042c-.315.039-.69.275-.9.565l-.123.17-.033-.293c-.052-.417.069-.78.336-.997l.22-.18-.283.103c-.3.104-.617.413-.763.74l-.085.192-.094-.28c-.137-.396-.095-.777.123-1.045l.177-.222-.256.16c-.271.164-.518.532-.592.883l-.044.205-.15-.254c-.216-.36-.253-.741-.096-1.048l.127-.254-.217.21c-.232.216-.396.628-.396.987v.21l-.2-.218c-.286-.306-.401-.672-.312-1.005l.072-.275-.169.25c-.181.26-.257.697-.182 1.049l.043.205-.24-.172c-.343-.24-.533-.573-.514-.917l.013-.285-.113.28c-.123.293-.106.736.04 1.064l.084.191-.27-.118c-.386-.163-.64-.45-.693-.79l-.047-.28-.052.296c-.06.312.048.742.26 1.033l.122.17-.289-.06c-.411-.079-.72-.306-.842-.629l-.104-.264.01.301c.006.318.202.715.468.956l.156.14-.295.002c-.419.009-.768-.15-.955-.44l-.156-.237.073.293c.072.31.345.658.656.837l.181.105-.288.064c-.408.095-.782.013-1.025-.231l-.202-.2.132.271c.134.288.475.572.816.682l.199.065-.269.122c-.379.179-.762.176-1.05-.012l-.24-.153.186.237c.191.254.583.46.94.498l.208.022-.238.175c-.334.254-.709.33-1.03.206l-.266-.1.23.194c.24.208.667.33 1.023.292l.208-.022-.195.22c-.274.318-.625.471-.965.417l-.281-.043.266.142c.278.154.72.183 1.06.072l.2-.065-.146.257c-.202.368-.513.591-.857.608l-.284.017.29.083c.303.093.741.03 1.052-.15l.181-.105-.088.282c-.122.401-.38.684-.713.773l-.274.076.3.02c.317.028.732-.125.999-.366l.155-.14-.028.294c-.036.418-.23.749-.537.905l-.252.13.299-.041c.314-.04.69-.276.9-.566l.123-.17.033.294c.052.416-.069.78-.337.996l-.22.18.284-.102c.3-.104.617-.413.763-.741l.085-.192.094.28c.137.397.094.778-.123 1.045l-.177.223.255-.16c.272-.164.518-.532.593-.884l.043-.205.15.255c.217.359.254.74.097 1.047l-.127.255.217-.21c.232-.217.396-.628.396-.988v-.21l.199.219c.286.306.402.671.313 1.004l-.072.276.168-.25c.182-.261.257-.698.183-1.05l-.044-.204Z"/>
  </g>
  <defs>
    <clipPath id="french-guadeloupe__a">
      <path fill="#fff" d="M0 12C0 5.373 5.373 0 12 0s12 5.373 12 12-5.373 12-12 12S0 18.627 0 12Z"/>
    </clipPath>
  </defs>
</svg>
