<svg xmlns="http://www.w3.org/2000/svg" fill="none" viewBox="0 0 24 24">
  <g clip-path="url(#guinea-bissau__a)">
    <path fill="#FFDA44" d="M12 0a12.01 12.01 0 0 0-3.13.413L7.826 12 8.87 23.587A12.01 12.01 0 0 0 12 24c6.627 0 12-5.373 12-12S18.627 0 12 0Z"/>
    <path fill="#6DA544" d="M7.826 12 8.87 23.587A12.01 12.01 0 0 0 12 24c6.627 0 12-5.373 12-12H7.826Z"/>
    <path fill="#D80027" d="M0 12c0 4.549 2.53 8.506 6.26 10.54V1.46A11.997 11.997 0 0 0 0 12Z"/>
    <path fill="#D80027" d="M0 12c0 5.544 3.76 10.21 8.87 11.587V.413C3.76 1.79 0 6.456 0 12Z"/>
    <path fill="#000" d="m4.535 8.87.776 2.39h2.515l-2.034 1.48.777 2.391-2.034-1.478L2.5 15.131l.777-2.392-2.034-1.478h2.514l.778-2.391Z"/>
  </g>
  <defs>
    <clipPath id="guinea-bissau__a">
      <path fill="#fff" d="M0 12C0 5.373 5.373 0 12 0s12 5.373 12 12-5.373 12-12 12S0 18.627 0 12Z"/>
    </clipPath>
  </defs>
</svg>
