<svg xmlns="http://www.w3.org/2000/svg" fill="none" viewBox="0 0 24 24">
  <g clip-path="url(#heard-and-mc-donald-islands__a)">
    <mask id="heard-and-mc-donald-islands__b" width="24" height="24" x="0" y="0" maskUnits="userSpaceOnUse" style="mask-type:luminance">
      <path fill="#fff" d="M12 24c6.627 0 12-5.373 12-12S18.627 0 12 0 0 5.373 0 12s5.373 12 12 12Z"/>
    </mask>
    <g mask="url(#heard-and-mc-donald-islands__b)">
      <path fill="#00008B" d="M9.317 0H2v3.658L9.317 0ZM12 0v1.34L6.68 4H12v4H6.683L12 10.658V12H9.317L2 8.342V12h-4V8.341L-9.317 12H-12v12h48V0H12ZM1.562 21.244 0 19.6l-1.562 1.644.311-2.246-2.259-.197 1.95-1.157-1.254-1.888 2.12.803L0 14.4l.694 2.158 2.12-.803-1.254 1.889L3.51 18.8l-2.259.196.311 2.246ZM22.66 2.93l1.01.383.33-1.028.33 1.028 1.01-.383-.598.9.929.55-1.076.094.148 1.07L24 4.762l-.744.783.148-1.07-1.076-.093.928-.552-.597-.899Zm-3.916 9.113L18 11.262l-.744.782.148-1.07-1.076-.093.929-.551-.598-.9 1.01.383.33-1.028.331 1.028 1.01-.382-.598.899.928.551-1.075.094.148 1.07Zm6 9.5L24 20.762l-.744.782.148-1.07-1.076-.093.929-.551-.598-.9 1.01.383.33-1.028.331 1.028 1.01-.382-.598.899.928.551-1.075.094.148 1.07Zm2.244-7.735-.588-.364-.588.364.165-.671-.528-.447.69-.05.261-.64.261.64.69.05-.528.447.165.671Zm3.09-3.365-.745-.782-.744.782.148-1.07-1.075-.093.928-.551-.598-.9 1.01.383.33-1.028.33 1.028 1.01-.382-.597.899.928.551-1.075.094.148 1.07h.001Z"/>
      <path fill="#fff" d="M12 4.8V4H6.68L12 1.34V0L4 4H2.211l8-4h-.894L2 3.658V0h-.8v4.8H12ZM1.2 12H2V8.342L9.317 12H12L4 8h1.789L12 11.106v-.448L6.683 8H12v-.8H1.2V12Z"/>
      <path fill="red" d="m4 8 8 4v-.894L5.789 8H4Zm0-4 8-4h-1.789l-8 4H4Z"/>
      <path fill="red" d="M-1.2 12h2.4V7.2H12V4.8H1.2V0h-2.4v4.8H-12v2.4h10.8V12Z"/>
      <path fill="#fff" d="m1.56 17.644 1.255-1.888-2.12.802L0 14.4l-.694 2.158-2.12-.802 1.254 1.888-1.95 1.157 2.26.197-.312 2.246L0 19.6l1.562 1.644-.311-2.246L3.51 18.8l-1.95-1.157Zm23.183 2.186.597-.899-1.01.383-.33-1.028-.33 1.028-1.01-.383.597.9-.928.55 1.075.094-.148 1.07.744-.783.744.782-.148-1.069 1.075-.093-.928-.552Zm-6-9.5.597-.899-1.01.383L18 8.786l-.33 1.028-1.01-.383.597.9-.928.55 1.075.094-.148 1.07.744-.783.744.782-.148-1.069 1.075-.093-.928-.552Zm4.661-5.855-.148 1.07.744-.783.744.782-.148-1.069 1.075-.093-.928-.552.597-.899-1.01.383L24 2.286l-.33 1.028-1.01-.383.597.9-.928.55 1.075.094Z"/>
    </g>
  </g>
  <defs>
    <clipPath id="heard-and-mc-donald-islands__a">
      <path fill="#fff" d="M0 12C0 5.373 5.373 0 12 0s12 5.373 12 12-5.373 12-12 12S0 18.627 0 12Z"/>
    </clipPath>
  </defs>
</svg>
