<svg xmlns="http://www.w3.org/2000/svg" fill="none" viewBox="0 0 24 24">
  <g clip-path="url(#croatia__a)">
    <path fill="#EDEDED" d="M24 12c0-1.468-.264-2.874-.746-4.174L12 7.304.746 7.826A11.975 11.975 0 0 0 0 12c0 1.468.264 2.874.746 4.174L12 16.696l11.254-.522c.482-1.3.746-2.706.746-4.174Z"/>
    <path fill="#0052B4" d="M12 24c5.16 0 9.558-3.256 11.254-7.826H.746C2.442 20.744 6.84 24 12 24Z"/>
    <path fill="#D80027" d="M.746 7.826h22.508C21.558 3.256 17.16 0 12 0 6.84 0 2.442 3.256.746 7.826Z"/>
    <path fill="#338AF3" d="M15.13 8.348h-2.087l.348-2.609 1.392-1.043 1.39 1.043v2.087l-1.042.522Zm-6.26 0h2.087l-.348-2.609-1.392-1.043-1.39 1.043v2.087l1.043.522Z"/>
    <path fill="#0052B4" d="M13.391 8.348H10.61V5.739L12 4.696l1.391 1.043v2.609Z"/>
    <path fill="#EDEDED" d="M7.826 7.826v5.74a4.17 4.17 0 0 0 1.678 3.343l.73-.183.922.927a4.174 4.174 0 0 0 1.683.001l1.052-.876.605.13a4.169 4.169 0 0 0 1.678-3.343V7.826H7.826Z"/>
    <path fill="#D80027" d="M7.826 7.826h1.67v1.67h-1.67v-1.67Zm3.339 0h1.67v1.67h-1.67v-1.67Zm3.339 0h1.67v1.67h-1.67v-1.67Zm-5.008 1.67h1.67v1.67h-1.67v-1.67Zm3.339 0h1.67v1.67h-1.67v-1.67Zm-5.009 1.669h1.67v1.67h-1.67v-1.67Zm1.67 1.669h1.67v1.67h-1.67v-1.67Z"/>
    <path fill="#D80027" d="M11.165 11.165h1.67v1.67h-1.67v-1.67Zm3.339 0h1.67v1.67h-1.67v-1.67Z"/>
    <path fill="#D80027" d="M12.835 12.834h1.67v1.67h-1.67v-1.67Zm-1.67 1.67h1.67v1.67h-1.67v-1.67Zm-1.669 0H7.934a4.16 4.16 0 0 0 .81 1.67h.752v-1.67Zm5.008 1.67h.751a4.16 4.16 0 0 0 .811-1.67h-1.562v1.67Zm-5.008 0v.728a4.157 4.157 0 0 0 1.67.753v-1.481h-1.67Zm3.339 0v1.481a4.155 4.155 0 0 0 1.67-.753v-.728h-1.67Z"/>
  </g>
  <defs>
    <clipPath id="croatia__a">
      <path fill="#fff" d="M0 12C0 5.373 5.373 0 12 0s12 5.373 12 12-5.373 12-12 12S0 18.627 0 12Z"/>
    </clipPath>
  </defs>
</svg>
