<svg xmlns="http://www.w3.org/2000/svg" fill="none" viewBox="0 0 24 24">
  <g clip-path="url(#israel__a)">
    <path fill="#EDEDED" d="M12 24c6.627 0 12-5.373 12-12S18.627 0 12 0 0 5.373 0 12s5.373 12 12 12Z"/>
    <path fill="#0052B4" d="M16.518 9.391h-3.012L12 6.783 10.494 9.39H7.482L8.988 12l-1.506 2.609h3.012L12 17.217l1.506-2.608h3.012L15.012 12l1.506-2.609ZM13.85 12l-.925 1.603h-1.85L10.15 12l.925-1.603h1.85L13.85 12ZM12 8.795l.344.596h-.688L12 8.795Zm-2.776 1.602h.689l-.344.597-.345-.597Zm0 3.206.345-.597.344.597h-.689ZM12 15.205l-.344-.596h.688l-.344.596Zm2.776-1.602h-.689l.344-.597.345.597Zm-.689-3.206h.689l-.345.597-.344-.597Zm5.383-7.788H4.53a12.06 12.06 0 0 0-2.769 3.13H22.24a12.063 12.063 0 0 0-2.77-3.13ZM4.53 21.391h14.94a12.06 12.06 0 0 0 2.769-3.13H1.76a12.064 12.064 0 0 0 2.77 3.13Z"/>
  </g>
  <defs>
    <clipPath id="israel__a">
      <path fill="#fff" d="M0 12C0 5.373 5.373 0 12 0s12 5.373 12 12-5.373 12-12 12S0 18.627 0 12Z"/>
    </clipPath>
  </defs>
</svg>
