<svg xmlns="http://www.w3.org/2000/svg" fill="none" viewBox="0 0 24 24">
  <g clip-path="url(#isle-of-man__a)">
    <path fill="#D80027" d="M12 24c6.627 0 12-5.373 12-12S18.627 0 12 0 0 5.373 0 12s5.373 12 12 12Z"/>
    <path fill="#EDEDED" d="m16.443 8.044-.848 3.027-2.545-.47-1.638-3.376-4.425 1.57-.35-.984L5.48 7.67l.872 2.458 3.046-.778.865 2.438-2.105 3.107 3.573 3.048-.678.793.456 1.075 1.693-1.985-2.197-2.248 1.679-1.97 3.743.27.853-4.617 1.026.19.703-.932-2.566-.474Z"/>
  </g>
  <defs>
    <clipPath id="isle-of-man__a">
      <path fill="#fff" d="M0 12C0 5.373 5.373 0 12 0s12 5.373 12 12-5.373 12-12 12S0 18.627 0 12Z"/>
    </clipPath>
  </defs>
</svg>
