<svg xmlns="http://www.w3.org/2000/svg" fill="none" viewBox="0 0 24 24">
  <g clip-path="url(#jordan__a)">
    <path fill="#EDEDED" d="M12 24c6.627 0 12-5.373 12-12S18.627 0 12 0 0 5.373 0 12s5.373 12 12 12Z"/>
    <path fill="#000" d="M7.304 7.826h15.95C21.558 3.256 17.159 0 12 0a11.96 11.96 0 0 0-8.485 3.515l3.79 4.311Z"/>
    <path fill="#6DA544" d="M7.304 16.174h15.95C21.558 20.744 17.159 24 12 24a11.96 11.96 0 0 1-8.485-3.515l3.79-4.311Z"/>
    <path fill="#D80027" d="M3.515 3.515c-4.687 4.686-4.687 12.284 0 16.97L12 12 3.515 3.515Z"/>
    <path fill="#EDEDED" d="m4.763 9.391.658 1.377 1.488-.343-.667 1.373 1.197.949-1.49.335.005 1.527-1.191-.955-1.191.955.004-1.527-1.489-.335 1.196-.949-.666-1.373 1.487.343.659-1.377Z"/>
  </g>
  <defs>
    <clipPath id="jordan__a">
      <path fill="#fff" d="M0 12C0 5.373 5.373 0 12 0s12 5.373 12 12-5.373 12-12 12S0 18.627 0 12Z"/>
    </clipPath>
  </defs>
</svg>
