<svg xmlns="http://www.w3.org/2000/svg" fill="none" viewBox="0 0 24 24">
  <g clip-path="url(#south-korea__a)">
    <path fill="#EDEDED" d="M12 24c6.627 0 12-5.373 12-12S18.627 0 12 0 0 5.373 0 12s5.373 12 12 12Z"/>
    <path fill="#D80027" d="M16.174 12c0 1.043-1.869 3.652-4.174 3.652-2.305 0-4.174-2.608-4.174-3.652a4.174 4.174 0 1 1 8.348 0Z"/>
    <path fill="#0052B4" d="M16.174 12a4.174 4.174 0 1 1-8.348 0"/>
    <path fill="#000" d="m16.424 15.69 1.106-1.107.738.738-1.106 1.106-.738-.738Zm-1.845 1.844 1.106-1.107.738.738-1.106 1.107-.738-.738Zm4.058.368 1.107-1.106.738.738-1.107 1.106-.738-.738Zm-1.845 1.845 1.107-1.106.738.737-1.107 1.107-.738-.738Zm.738-2.951 1.107-1.106.738.737-1.107 1.107-.738-.738Zm-1.844 1.844 1.107-1.106.737.738-1.106 1.106-.738-.738Zm2.956-10.327-2.95-2.951.737-.738 2.95 2.95-.737.739Zm-2.952-.738L14.585 6.47l.738-.738 1.106 1.106-.737.738Zm1.845 1.845-1.107-1.107.738-.737 1.107 1.106-.738.738Zm.369-4.058-1.107-1.107.738-.738 1.106 1.107-.737.738Zm1.845 1.845L18.642 6.1l.738-.738 1.107 1.107-.738.738ZM4.254 16.794l2.951 2.95-.738.739-2.95-2.951.737-.738Zm2.951.737 1.106 1.107-.737.737-1.107-1.106.738-.738ZM5.36 15.687l1.107 1.107-.738.738-1.106-1.107.737-.738Zm1.107-1.107 2.951 2.951-.738.738-2.95-2.951.737-.738Zm.738-10.327-2.951 2.95-.738-.737 2.951-2.951.738.738ZM8.311 5.36l-2.95 2.95-.738-.738 2.95-2.95.738.737Zm1.108 1.106-2.95 2.951-.739-.737 2.951-2.951.738.737Z"/>
  </g>
  <defs>
    <clipPath id="south-korea__a">
      <path fill="#fff" d="M0 12C0 5.373 5.373 0 12 0s12 5.373 12 12-5.373 12-12 12S0 18.627 0 12Z"/>
    </clipPath>
  </defs>
</svg>
