<svg xmlns="http://www.w3.org/2000/svg" fill="none" viewBox="0 0 24 24">
  <g clip-path="url(#cayman-islands__a)">
    <path fill="#0052B4" d="M24 12c0 6.627-5.373 12-12 12S0 18.627 0 12C0 12.003 12 .001 12 0c6.627 0 12 5.373 12 12Z"/>
    <path fill="#EDEDED" d="M11.968 12H12v-.032l-.032.032Z"/>
    <path fill="#EDEDED" d="M12 6.26V0h-.002C5.371.001 0 5.373 0 12h6.26V8.474L9.787 12h2.182l.032-.032V9.786L8.474 6.261H12Z"/>
    <path fill="#6DA544" d="M17.217 8.87a2.087 2.087 0 1 0 0-4.174 2.087 2.087 0 0 0 0 4.174Z"/>
    <path fill="#D80027" d="M6.071 1.565a12.057 12.057 0 0 0-4.506 4.506V12h3.13V4.696H12v-3.13H6.071Z"/>
    <path fill="#D80027" d="M12 10.524 7.736 6.261H6.261L12 12v-1.476Zm1.565-4.264h7.305v3.131h-7.305v-3.13Z"/>
    <path fill="#FFDA44" d="M13.565 14.087v2.087h1.098a3.637 3.637 0 0 0 2.554 1.043 3.64 3.64 0 0 0 2.555-1.043h1.098v-2.087h-7.305Z"/>
    <path fill="#338AF3" d="M13.565 8.87V12c0 2.796 3.652 3.652 3.652 3.652S20.87 14.796 20.87 12V8.87h-7.305Z"/>
    <path fill="#F3F3F3" d="M17.217 10.542c-.913 0-.913.835-1.826.835s-.913-.835-1.826-.835v1.46c.913 0 .913.835 1.826.835s.913-.835 1.826-.835.913.835 1.826.835.913-.835 1.827-.835v-1.46c-.914 0-.914.835-1.827.835-.913 0-.913-.835-1.826-.835Zm0-2.925c-.913 0-.913.835-1.826.835s-.913-.835-1.826-.835v1.461c.913 0 .913.835 1.826.835s.913-.835 1.826-.835.913.835 1.826.835.913-.835 1.827-.835v-1.46c-.914 0-.914.834-1.827.834-.913 0-.913-.835-1.826-.835Z"/>
  </g>
  <defs>
    <clipPath id="cayman-islands__a">
      <path fill="#fff" d="M0 12C0 5.373 5.373 0 12 0s12 5.373 12 12-5.373 12-12 12S0 18.627 0 12Z"/>
    </clipPath>
  </defs>
</svg>
