<svg xmlns="http://www.w3.org/2000/svg" fill="none" viewBox="0 0 24 24">
  <g clip-path="url(#laos__a)">
    <path fill="#D80027" d="M22.81 6.783A12 12 0 0 0 12 0 12 12 0 0 0 1.19 6.783L12 7.826l10.81-1.043ZM1.19 17.217A12 12 0 0 0 12 24a12 12 0 0 0 10.81-6.783L12 16.174 1.19 17.217Z"/>
    <path fill="#0052B4" d="M22.81 6.783H1.19A11.952 11.952 0 0 0 0 12c0 1.87.428 3.64 1.19 5.217h21.62A11.95 11.95 0 0 0 24 12c0-1.87-.428-3.64-1.19-5.217Z"/>
    <path fill="#EDEDED" d="M12 16.174a4.174 4.174 0 1 0 0-8.348 4.174 4.174 0 0 0 0 8.348Z"/>
  </g>
  <defs>
    <clipPath id="laos__a">
      <path fill="#fff" d="M0 12C0 5.373 5.373 0 12 0s12 5.373 12 12-5.373 12-12 12S0 18.627 0 12Z"/>
    </clipPath>
  </defs>
</svg>
