<svg xmlns="http://www.w3.org/2000/svg" fill="none" viewBox="0 0 24 24">
  <g clip-path="url(#lesotho__a)">
    <path fill="#EDEDED" d="M0 12c0 1.87.428 3.64 1.19 5.217L12 17.74l10.81-.522A11.952 11.952 0 0 0 24 12c0-1.87-.428-3.64-1.19-5.217L12 6.26l-10.81.522A11.952 11.952 0 0 0 0 12Z"/>
    <path fill="#6DA544" d="M12 24a12 12 0 0 0 10.81-6.783H1.19A12 12 0 0 0 12 24Z"/>
    <path fill="#0052B4" d="M12 0A12 12 0 0 0 1.19 6.783h21.62A12 12 0 0 0 12 0Z"/>
    <path fill="#000" d="M12.783 11.74V8.87h-1.566v2.87l-1.89 1.89c.55.9 1.541 1.5 2.673 1.5 1.132 0 2.123-.6 2.673-1.5l-1.89-1.89Z"/>
  </g>
  <defs>
    <clipPath id="lesotho__a">
      <path fill="#fff" d="M0 12C0 5.373 5.373 0 12 0s12 5.373 12 12-5.373 12-12 12S0 18.627 0 12Z"/>
    </clipPath>
  </defs>
</svg>
