<svg xmlns="http://www.w3.org/2000/svg" fill="none" viewBox="0 0 24 24">
  <g clip-path="url(#latvia__a)">
    <path fill="#EDEDED" d="M12 24c6.627 0 12-5.373 12-12S18.627 0 12 0 0 5.373 0 12s5.373 12 12 12Z"/>
    <path fill="#A2001D" d="M12 0C6.456 0 1.79 3.76.413 8.87h23.174C22.209 3.76 17.544 0 12 0Zm0 24c5.544 0 10.21-3.76 11.587-8.87H.413C1.79 20.24 6.456 24 12 24Z"/>
  </g>
  <defs>
    <clipPath id="latvia__a">
      <path fill="#fff" d="M0 12C0 5.373 5.373 0 12 0s12 5.373 12 12-5.373 12-12 12S0 18.627 0 12Z"/>
    </clipPath>
  </defs>
</svg>
