<svg xmlns="http://www.w3.org/2000/svg" fill="none" viewBox="0 0 24 24">
  <g clip-path="url(#madagascar__a)">
    <path fill="#EDEDED" d="M12 24c6.627 0 12-5.373 12-12S18.627 0 12 0 0 5.373 0 12s5.373 12 12 12Z"/>
    <path fill="#6DA544" d="M7.826 12v11.254c1.3.482 2.706.746 4.174.746 6.627 0 12-5.373 12-12S7.826 12 7.826 12Z"/>
    <path fill="#D80027" d="M12 0c-1.468 0-2.874.264-4.174.746V12H24c0-6.627-5.373-12-12-12Z"/>
  </g>
  <defs>
    <clipPath id="madagascar__a">
      <path fill="#fff" d="M0 12C0 5.373 5.373 0 12 0s12 5.373 12 12-5.373 12-12 12S0 18.627 0 12Z"/>
    </clipPath>
  </defs>
</svg>
