<svg xmlns="http://www.w3.org/2000/svg" fill="none" viewBox="0 0 24 24">
  <g clip-path="url(#republic-of-macedonia__a)">
    <path fill="#FFDA44" d="M12 24c6.627 0 12-5.373 12-12S18.627 0 12 0 0 5.373 0 12s5.373 12 12 12Z"/>
    <path fill="#D80027" d="M13.825 23.862a11.935 11.935 0 0 0 5.271-2.185L12 12l1.825 11.862ZM10.175.138a11.937 11.937 0 0 0-5.271 2.185L12 12 10.175.138ZM4.904 21.677a11.936 11.936 0 0 0 5.27 2.185L12 12l-7.096 9.677ZM2.323 4.904a11.937 11.937 0 0 0-2.185 5.271L12 12 2.323 4.904ZM.138 13.825a11.935 11.935 0 0 0 2.185 5.271L12 12 .138 13.825Zm23.724-3.65a11.937 11.937 0 0 0-2.185-5.271L12 12l11.862-1.825Zm-4.766-7.852A11.936 11.936 0 0 0 13.825.138L12 12l7.096-9.677Zm2.581 16.773a11.937 11.937 0 0 0 2.185-5.271L12 12l9.677 7.096Z"/>
    <path fill="#D80027" d="M12 16.174a4.174 4.174 0 1 0 0-8.348 4.174 4.174 0 0 0 0 8.348Z"/>
    <path fill="#FFDA44" d="M12 15.13a3.13 3.13 0 1 0 0-6.26 3.13 3.13 0 0 0 0 6.26Z"/>
  </g>
  <defs>
    <clipPath id="republic-of-macedonia__a">
      <path fill="#fff" d="M0 12C0 5.373 5.373 0 12 0s12 5.373 12 12-5.373 12-12 12S0 18.627 0 12Z"/>
    </clipPath>
  </defs>
</svg>
