<svg xmlns="http://www.w3.org/2000/svg" fill="none" viewBox="0 0 24 24">
  <g clip-path="url(#mongolia__a)">
    <path fill="#0052B4" d="M12 24c1.468 0 2.874-.264 4.174-.746L16.696 12 16.174.746A11.974 11.974 0 0 0 12 0c-1.468 0-2.874.264-4.174.746L7.304 12l.522 11.254c1.3.482 2.706.746 4.174.746Z"/>
    <path fill="#A2001D" d="M0 12c0 5.16 3.256 9.558 7.826 11.254V.746C3.256 2.442 0 6.84 0 12ZM16.174.746v22.508C20.744 21.558 24 17.16 24 12c0-5.16-3.256-9.558-7.826-11.254Z"/>
    <path fill="#FFDA44" d="M5.74 12h1.043v4.174H5.739V12Zm-4.175 0H2.61v4.174H1.565V12Zm2.609 2.609a1.043 1.043 0 1 0 0-2.087 1.043 1.043 0 0 0 0 2.087Zm0-4.174a.522.522 0 1 0 0-1.044.522.522 0 0 0 0 1.044ZM3.13 15.13h2.087v1.044H3.13V15.13Zm0-4.173h2.087V12H3.13v-1.043ZM4.174 6.26l.37 1.138h1.195l-.967.703.37 1.137-.968-.703-.967.703.369-1.137-.967-.703h1.195l.37-1.137Z"/>
  </g>
  <defs>
    <clipPath id="mongolia__a">
      <path fill="#fff" d="M0 12C0 5.373 5.373 0 12 0s12 5.373 12 12-5.373 12-12 12S0 18.627 0 12Z"/>
    </clipPath>
  </defs>
</svg>
