<svg xmlns="http://www.w3.org/2000/svg" fill="none" viewBox="0 0 24 24">
  <g clip-path="url(#macao__a)">
    <path fill="#496E2D" d="M12 24c6.627 0 12-5.373 12-12S18.627 0 12 0 0 5.373 0 12s5.373 12 12 12Z"/>
    <path fill="#EDEDED" d="M14.087 11.5c-.295 0-.574.058-.834.152a2.56 2.56 0 0 0 .238-1.047c0-1.49-1.49-2.608-1.49-2.608s-1.492 1.118-1.492 2.608c0 .377.096.73.238 1.047a2.459 2.459 0 0 0-.834-.152c-1.49 0-2.609 1.49-2.609 1.49s1.118 1.491 2.61 1.491c.873 0 1.619-.512 2.086-.936.468.424 1.213.936 2.087.936 1.49 0 2.609-1.49 2.609-1.49S15.578 11.5 14.087 11.5Z"/>
    <path fill="#FFDA44" d="m12 4.696.308.947h.996l-.806.586.308.948L12 6.59l-.806.586.308-.948-.806-.586h.996L12 4.696ZM8.21 6.353l.593.533.69-.398-.324.728.593.534-.793-.084-.324.728-.166-.78-.793-.083.69-.398-.165-.78ZM5.437 9.127l.78.166.398-.69.084.792.78.166-.729.324.084.793-.534-.593-.728.325.399-.69-.534-.593Zm10.352-2.774-.592.533-.69-.398.324.728-.593.534.793-.084.324.728.166-.78.793-.083-.69-.398.165-.78Zm2.774 2.774-.78.166-.398-.69-.084.792-.78.166.729.324-.084.793.534-.593.728.325-.399-.69.534-.593Z"/>
    <path fill="#EDEDED" d="M12 18.655a5.193 5.193 0 0 0 3.151-1.06H8.85a5.193 5.193 0 0 0 3.15 1.06Zm-4.783-3.131c.166.38.376.735.622 1.06h8.322c.246-.325.456-.68.622-1.06H7.217Z"/>
  </g>
  <defs>
    <clipPath id="macao__a">
      <path fill="#fff" d="M0 12C0 5.373 5.373 0 12 0s12 5.373 12 12-5.373 12-12 12S0 18.627 0 12Z"/>
    </clipPath>
  </defs>
</svg>
