<svg xmlns="http://www.w3.org/2000/svg" fill="none" viewBox="0 0 24 24">
  <g clip-path="url(#martinique__a)">
    <path fill="#EDEDED" d="M12 24c6.627 0 12-5.373 12-12S18.627 0 12 0 0 5.373 0 12s5.373 12 12 12Z"/>
    <path fill="#0052B4" d="M23.897 10.435a11.946 11.946 0 0 0-3.412-6.92 11.946 11.946 0 0 0-6.92-3.412v10.332h10.332ZM10.435.103a11.946 11.946 0 0 0-6.92 3.412 11.947 11.947 0 0 0-3.412 6.92h10.332V.103ZM.103 13.565a11.947 11.947 0 0 0 3.412 6.92 11.948 11.948 0 0 0 6.92 3.412V13.565H.103Zm13.462 10.332a11.947 11.947 0 0 0 6.92-3.412 11.947 11.947 0 0 0 3.412-6.92H13.565v10.332Z"/>
    <path fill="#EDEDED" d="M16.096 7.614c0-.16.13-.289.29-.289h.62a1.78 1.78 0 0 0 1.777-1.777 1.78 1.78 0 0 0-1.777-1.777h-.59a1.224 1.224 0 0 0-.733-.233c-.594 0-1.074.384-1.074.859 0 .47.471.85 1.056.858v.004h1.34a.29.29 0 0 1 0 .578h-.62a1.778 1.778 0 0 0 .001 3.554h2.396V7.904h-2.396a.29.29 0 0 1-.29-.29Zm-9.391 0c0-.16.13-.289.29-.289h.62A1.78 1.78 0 0 0 9.39 5.548a1.78 1.78 0 0 0-1.777-1.777h-.588a1.225 1.225 0 0 0-.735-.233c-.593 0-1.074.384-1.074.859 0 .47.472.85 1.057.858v.004h1.34a.29.29 0 0 1 0 .578h-.62c-.98 0-1.777.797-1.777 1.777 0 .98.798 1.777 1.777 1.777H9.39V7.904H6.994a.29.29 0 0 1-.289-.29Zm9.391 11.071c0-.16.13-.289.29-.289h.62a1.78 1.78 0 0 0 1.777-1.777 1.78 1.78 0 0 0-1.777-1.777h-.59a1.225 1.225 0 0 0-.733-.233c-.594 0-1.074.384-1.074.859 0 .47.471.85 1.056.858v.004h1.34a.29.29 0 0 1 0 .578h-.62a1.778 1.778 0 0 0 .001 3.554h2.397v-1.487h-2.397a.29.29 0 0 1-.29-.29Zm-9.391 0c0-.16.13-.289.29-.289h.62A1.78 1.78 0 0 0 9.39 16.62a1.78 1.78 0 0 0-1.777-1.777h-.588a1.225 1.225 0 0 0-.735-.233c-.593 0-1.074.384-1.074.859 0 .47.472.85 1.057.858v.004h1.34a.29.29 0 0 1 0 .578h-.62c-.98 0-1.777.797-1.777 1.777 0 .98.797 1.777 1.777 1.777H9.39v-1.487H6.994a.29.29 0 0 1-.289-.29Z"/>
  </g>
  <defs>
    <clipPath id="martinique__a">
      <path fill="#fff" d="M0 12C0 5.373 5.373 0 12 0s12 5.373 12 12-5.373 12-12 12S0 18.627 0 12Z"/>
    </clipPath>
  </defs>
</svg>
