<svg xmlns="http://www.w3.org/2000/svg" fill="none" viewBox="0 0 24 24">
  <g clip-path="url(#mexico__a)">
    <path fill="#EDEDED" d="M12 24c6.627 0 12-5.373 12-12S18.627 0 12 0 0 5.373 0 12s5.373 12 12 12Z"/>
    <path fill="#D80027" d="M24 12a12 12 0 0 0-6.783-10.81v21.62A12 12 0 0 0 24 12Z"/>
    <path fill="#6DA544" d="M0 12a12 12 0 0 0 6.783 10.81V1.19A12 12 0 0 0 0 12Zm8.87 0a3.13 3.13 0 1 0 6.26 0v-1.043H8.87V12Z"/>
    <path fill="#FF9811" d="M16.174 9.913h-3.13a1.044 1.044 0 0 0-2.088 0h-3.13c0 .576.502 1.043 1.078 1.043H8.87c0 .577.468 1.044 1.044 1.044 0 .576.467 1.043 1.043 1.043h2.087c.577 0 1.044-.467 1.044-1.043.576 0 1.043-.467 1.043-1.043h-.034c.576 0 1.078-.468 1.078-1.044Z"/>
  </g>
  <defs>
    <clipPath id="mexico__a">
      <path fill="#fff" d="M0 12C0 5.373 5.373 0 12 0s12 5.373 12 12-5.373 12-12 12S0 18.627 0 12Z"/>
    </clipPath>
  </defs>
</svg>
