<svg xmlns="http://www.w3.org/2000/svg" fill="none" viewBox="0 0 24 24">
  <g clip-path="url(#malaysia__a)">
    <path fill="#EDEDED" d="M12 24c6.627 0 12-5.373 12-12S18.627 0 12 0 0 5.373 0 12s5.373 12 12 12Z"/>
    <path fill="#D80027" d="M11.478 12H24a12.01 12.01 0 0 0-.413-3.13H11.478V12Zm0-6.26h10.76a12.063 12.063 0 0 0-2.768-3.131h-7.992v3.13ZM12 24c2.824 0 5.42-.976 7.47-2.609H4.53A11.949 11.949 0 0 0 12 24ZM1.761 18.26H22.24a11.926 11.926 0 0 0 1.348-3.13H.413a11.928 11.928 0 0 0 1.348 3.13Z"/>
    <path fill="#0052B4" d="M12 12V0C5.373 0 0 5.373 0 12h12Z"/>
    <path fill="#FFDA44" d="M7.98 10.272a2.967 2.967 0 1 1 1.41-5.578 3.652 3.652 0 1 0 0 5.221c-.42.228-.9.357-1.411.357Z"/>
    <path fill="#FFDA44" d="m8.816 5.217.527 1.102 1.19-.275L10 7.143l.957.759-1.192.268.004 1.221-.953-.764-.953.764.004-1.22-1.192-.27.957-.758-.533-1.099 1.19.275.527-1.102Z"/>
  </g>
  <defs>
    <clipPath id="malaysia__a">
      <path fill="#fff" d="M0 12C0 5.373 5.373 0 12 0s12 5.373 12 12-5.373 12-12 12S0 18.627 0 12Z"/>
    </clipPath>
  </defs>
</svg>
