<svg xmlns="http://www.w3.org/2000/svg" fill="none" viewBox="0 0 24 24">
  <g clip-path="url(#niger__a)">
    <path fill="#EDEDED" d="M1.19 6.783A11.952 11.952 0 0 0 0 12c0 1.87.428 3.64 1.19 5.217L12 18.261l10.81-1.044A11.953 11.953 0 0 0 24 12c0-1.87-.428-3.64-1.19-5.217L12 5.739 1.19 6.783Z"/>
    <path fill="#6DA544" d="M1.191 17.217A12 12 0 0 0 12 24a12 12 0 0 0 10.809-6.783H1.19Z"/>
    <path fill="#FF9811" d="M1.191 6.783H22.81A12 12 0 0 0 12 0 12 12 0 0 0 1.191 6.783ZM12 16.174a4.174 4.174 0 1 0 0-8.348 4.174 4.174 0 0 0 0 8.348Z"/>
  </g>
  <defs>
    <clipPath id="niger__a">
      <path fill="#fff" d="M0 12C0 5.373 5.373 0 12 0s12 5.373 12 12-5.373 12-12 12S0 18.627 0 12Z"/>
    </clipPath>
  </defs>
</svg>
