<svg xmlns="http://www.w3.org/2000/svg" fill="none" viewBox="0 0 24 24">
  <g clip-path="url(#norway__a)">
    <path fill="#EDEDED" d="M12 24c6.627 0 12-5.373 12-12S18.627 0 12 0 0 5.373 0 12s5.373 12 12 12Z"/>
    <path fill="#D80027" d="M.413 15.13a12.01 12.01 0 0 0 4.283 6.39v-6.39H.413Zm10.544 8.824c.343.03.691.046 1.043.046 5.544 0 10.21-3.76 11.587-8.87h-12.63v8.824ZM23.587 8.87C22.21 3.76 17.544 0 12 0c-.352 0-.7.016-1.043.046V8.87h12.63ZM4.696 2.48A12.01 12.01 0 0 0 .413 8.87h4.283V2.48Z"/>
    <path fill="#0052B4" d="M23.898 10.435H9.391V.285C8.282.531 7.231.93 6.261 1.46v8.976H.1a12.102 12.102 0 0 0 0 3.13h6.16v8.976c.97.53 2.021.928 3.13 1.174v-10.15h14.507a12.121 12.121 0 0 0 0-3.13Z"/>
  </g>
  <defs>
    <clipPath id="norway__a">
      <path fill="#fff" d="M0 12C0 5.373 5.373 0 12 0s12 5.373 12 12-5.373 12-12 12S0 18.627 0 12Z"/>
    </clipPath>
  </defs>
</svg>
