<svg xmlns="http://www.w3.org/2000/svg" fill="none" viewBox="0 0 24 24">
  <g clip-path="url(#nauru__a)">
    <path fill="#0052B4" d="M12 24c6.627 0 12-5.373 12-12S18.627 0 12 0 0 5.373 0 12s5.373 12 12 12Z"/>
    <path fill="#FFDA44" d="M12 24c6.627 0 12-5.373 12-12S18.627 0 12 0 0 5.373 0 12s5.373 12 12 12Z"/>
    <path fill="#0052B4" d="M12 0C5.724 0 .575 4.818.046 10.957h23.908C23.425 4.817 18.276 0 12 0Zm0 24c6.276 0 11.425-4.818 11.954-10.957H.046C.575 19.183 5.724 24 12 24Z"/>
    <path fill="#EDEDED" d="m9.913 16.174-1.345.632.716 1.303-1.46-.28-.185 1.475-1.017-1.084-1.017 1.084-.185-1.475-1.46.28.716-1.303-1.345-.632 1.345-.633-.716-1.302 1.46.28.185-1.476 1.017 1.085 1.017-1.085.185 1.476 1.46-.28-.716 1.302 1.345.633Z"/>
  </g>
  <defs>
    <clipPath id="nauru__a">
      <path fill="#fff" d="M0 12C0 5.373 5.373 0 12 0s12 5.373 12 12-5.373 12-12 12S0 18.627 0 12Z"/>
    </clipPath>
  </defs>
</svg>
