<svg xmlns="http://www.w3.org/2000/svg" fill="none" viewBox="0 0 24 24">
  <g clip-path="url(#french-polynesia__a)">
    <path fill="#EDEDED" d="M12 24c6.627 0 12-5.373 12-12S18.627 0 12 0 0 5.373 0 12s5.373 12 12 12Z"/>
    <path fill="#D80027" d="M1.46 6.26h21.08A11.997 11.997 0 0 0 12 0C7.451 0 3.494 2.53 1.46 6.26ZM12 24c4.549 0 8.506-2.53 10.54-6.26H1.46A11.997 11.997 0 0 0 12 24Z"/>
    <path fill="#FFDA44" d="M16.174 12c0 2.305-1.869 3.652-4.174 3.652-2.305 0-4.174-1.347-4.174-3.652a4.174 4.174 0 1 1 8.348 0Z"/>
    <path fill="#0052B4" d="M16.174 12a4.174 4.174 0 1 1-8.348 0"/>
    <path fill="#D80027" d="M9.391 10.957h1.044v2.086H9.39v-2.086Zm4.174 0h1.044v2.086h-1.044v-2.086Zm-2.087-1.566h1.044v3.652h-1.044V9.392Z"/>
  </g>
  <defs>
    <clipPath id="french-polynesia__a">
      <path fill="#fff" d="M0 12C0 5.373 5.373 0 12 0s12 5.373 12 12-5.373 12-12 12S0 18.627 0 12Z"/>
    </clipPath>
  </defs>
</svg>
