<svg xmlns="http://www.w3.org/2000/svg" fill="none" viewBox="0 0 24 24">
  <g clip-path="url(#papua-new-guinea__a)">
    <path fill="#000" d="M20.485 20.485c-4.686 4.687-12.284 4.687-16.97 0-4.687-4.686-4.687-12.284 0-16.97C8.2-1.172 15.06-.434 19.747 4.253c4.687 4.686 5.425 11.546.738 16.232Z"/>
    <path fill="#A2001D" d="M3.515 3.515c4.686-4.687 12.284-4.686 16.97 0 4.687 4.686 4.687 12.284 0 16.97"/>
    <path fill="#EDEDED" d="m9.17 16.174.195.598h.629l-.509.37.194.597-.508-.37-.509.37.194-.598-.508-.37h.628l.195-.597Zm-1.605-5.739.324.996h1.048l-.848.616.324.996-.848-.615-.847.615.323-.996-.847-.616H7.24l.324-.996Zm0 7.305.324.996h1.048l-.848.615.324.997-.848-.616-.847.616.323-.997-.847-.615H7.24l.324-.997Zm3.064-4.697.323.997H12l-.848.616.324.996-.848-.616-.847.616.324-.996-.848-.616h1.048l.324-.996Zm-6.127 0 .324.997h1.047l-.847.616.323.996-.847-.616-.848.616.324-.996-.848-.616h1.048l.324-.996Z"/>
    <path fill="#FFDA44" d="M20.088 8.886a3.106 3.106 0 0 0-1.982-.908l2.242-1.743a4.163 4.163 0 0 0-3.257-1.211 3.116 3.116 0 0 0-.801-1.372l-.886 1.771a1.303 1.303 0 0 0-2.066-.295 1.304 1.304 0 0 0 .296 2.066l-1.771.885c.395.396.87.662 1.372.802a4.161 4.161 0 0 0 1.21 3.257l1.959-2.518a.777.777 0 0 1 .549-.226c.209 0 .405.082.553.23a.778.778 0 0 1 0 1.107l.738.737c.345-.345.535-.803.535-1.291 0-.4-.128-.778-.363-1.092a2.09 2.09 0 0 1 .934 3.49l.738.738a3.11 3.11 0 0 0 .917-2.214 3.11 3.11 0 0 0-.917-2.213Z"/>
  </g>
  <defs>
    <clipPath id="papua-new-guinea__a">
      <path fill="#fff" d="M0 12C0 5.373 5.373 0 12 0s12 5.373 12 12-5.373 12-12 12S0 18.627 0 12Z"/>
    </clipPath>
  </defs>
</svg>
