<svg xmlns="http://www.w3.org/2000/svg" fill="none" viewBox="0 0 24 24">
  <g clip-path="url(#pakistan__a)">
    <path fill="#EDEDED" d="M12 24c6.627 0 12-5.373 12-12S18.627 0 12 0 0 5.373 0 12s5.373 12 12 12Z"/>
    <path fill="#EDEDED" d="M0 12c0 4.549 2.53 8.506 6.26 10.54V1.46A11.997 11.997 0 0 0 0 12Z"/>
    <path fill="#496E2D" d="M12 0C9.921 0 7.966.529 6.26 1.46v21.08A11.939 11.939 0 0 0 12 24c6.627 0 12-5.373 12-12S18.627 0 12 0Z"/>
    <path fill="#EDEDED" d="M17.13 13.985a3.391 3.391 0 1 1-2.425-6.112A4.174 4.174 0 1 0 18.2 12.71a3.377 3.377 0 0 1-1.07 1.275Zm-.064-6.159.855.922 1.14-.529-.612 1.098.855.922-1.233-.243-.613 1.098-.15-1.248-1.233-.243 1.14-.529-.15-1.248Z"/>
  </g>
  <defs>
    <clipPath id="pakistan__a">
      <path fill="#fff" d="M0 12C0 5.373 5.373 0 12 0s12 5.373 12 12-5.373 12-12 12S0 18.627 0 12Z"/>
    </clipPath>
  </defs>
</svg>
