<svg xmlns="http://www.w3.org/2000/svg" fill="none" viewBox="0 0 24 24">
  <g clip-path="url(#saint-pierre-and-miquelon__a)">
    <path fill="#18191B" d="M3 16h.75v1H3zm-1.5 0h.75v1H1.5z"/>
    <path fill="#C00" d="M0 24h6v-8H0v8Z"/>
    <path fill="#FFCF00" stroke="#650000" stroke-width=".05" d="M2.002 18.154c-.057-.093 0-.263.05-.19-.026-.07.018-.125.037-.09-.009-.056.033-.094.054-.042-.008-.063.054-.1.07-.03.002-.063.062-.112.076-.02.012-.07.08-.08.085.02.02-.058.07-.054.074.03.022-.04.078.02.069.09.035-.012.077.088.035.162.076-.057.093.127.047.21.024.021.026.003.047.018.021.016.06.04.094.052.032 0 .147-.005.171-.01.024-.006.056-.023.095-.041.04-.019.099-.02.152-.038.042-.006 1.23.027 1.263.022.035-.005.084-.051.082-.107-.003-.056-.042-.097-.082-.102a1.687 1.687 0 0 0-.278.005.23.23 0 0 0-.116.072c-.012.01-.033.054-.05.083-.017.02-.064.022-.064-.004 0-.016-.004.004-.015.01-.015.013-.083.017-.08 0 .006-.019 0-.025-.018-.005-.013.015-.106.021-.123.006.01-.024.01-.023-.017-.003-.018.01-.091.02-.096-.002-.001-.016-.01-.008-.02-.003-.083.03-.09-.005-.078-.02.014-.016.033-.103.012-.098-.02.005-.152.04-.197.05-.044.011-.367 0-.412-.004-.045-.005-.095-.065-.097-.149-.005-.134.073-.168.12-.189a.804.804 0 0 1 .213-.05c.048 0 .183.023.22.003a.945.945 0 0 1 .18-.082.275.275 0 0 1 .243.123c-.033.021-.049.034-.011.015.034-.01.18-.053.215-.065.118-.007.087.019.03.04-.02.085-.194.206-.25.221a.584.584 0 0 1-.197-.002c-.027-.003-.151-.012-.196-.053a.474.474 0 0 0-.268-.114c-.055.002-.213.025-.212.102-.001.136.147.143.21.138.063-.005.22-.015.265-.04a.49.49 0 0 1 .194-.032c.052 0 .13.016.153.011.023-.005.079-.006.105-.032a.221.221 0 0 1 .141-.052c.058 0 .487-.023.544-.018.084 0 .143.128.144.237 0 .05-.017.126-.032.138.026.003.09.014.112.02.04.011.105.074.113.13-.03-.026-.08-.065-.124-.07-.01 0-.945-.002-1.019-.001.2.033.353.25.391.373.034.077.119.046.15.036.032-.01.068-.056.095-.092.026-.035.067-.044.086-.035.04-.006.048.056.032.086-.016.031.002.019.044.019.042 0 .08.021.104.068-.023.03-.035.005-.001.01.034.006.075.094.05.118-.022.016-.029.01 0 .015.043.005.055.045.06.114-.036.01-.018-.006 0 .02.019.025.045.138-.02.142-.024-.015-.024-.018-.019.017.005.035-.008.121-.045.121-.05.014-.097-.025-.102-.071-.006-.046-.005.088-.077.11a.084.084 0 0 1-.11-.06c-.005-.025-.002-.004-.029-.01-.026-.005-.059-.005-.073-.066 0-.036.005-.083.052-.09.02-.004.027-.043.01-.048-.015-.005-.002-.082.032-.061.035.02.113.025.132.05.018.026.023-.02-.006-.06-.028-.041-.204-.123-.252-.092a.488.488 0 0 1-.325.056c-.032-.01-.123.017-.166-.169-.035-.19-.167-.284-.227-.294-.299-.04-.282-.01-.089.004-.001.035-.008.108.023.119.052-.01.162-.043.188-.013.026.031.053.056.047.128-.005.072.003.051-.02.082-.024.03-.014.092.023.112.037.02.052.046.076.077.024.03-.01.092-.031.071-.021-.02-.021-.02-.024.02-.003.042-.029.119-.073.125-.01-.005-.007-.026-.006-.042.003-.036-.009.044-.022.066-.01.015-.084.045-.105.03.01-.033.004-.02-.014-.004-.018.01-.115.029-.072-.036.012-.024-.015.03-.03.038-.012.011-.07.018-.07-.013-.018.023-.061.023-.068.005-.013-.02-.014.016-.038.02-.023.006-.075-.004-.077-.045-.003-.041.005-.015-.024-.01-.07.065-.105-.026-.105-.057 0-.03-.003-.066.005-.086.008-.02-.049-.027-.031-.067.02-.05.04-.086.078-.077.019.006.016-.01.008-.03-.008-.02.021-.03.056-.01.034.02.057.071.068.117.01.046.092.01.126.015.034.006.037-.076.016-.102-.021-.025-.08-.117-.103-.148-.023-.03-.008-.138.013-.163.123-.116.056-.154.01-.143a.441.441 0 0 0-.195.13c-.037.057-.323.332-.35.363-.025.03-.064.038-.08.002-.015-.036-.026-.01-.023.041.02.193-.102.255-.124.252a.095.095 0 0 1-.052-.032c-.016.108-.083.118-.145.108 0-.013.012-.037.005-.027-.02.037-.082.033-.136.027-.003-.023.019-.05.008-.035-.018.048-.049.04-.099.034 0-.01.024-.043.013-.023-.022.034-.068.023-.103.024-.004-.008.018-.06-.002-.026-.02.03-.062.035-.101.027-.008-.025.008-.025.012-.041.01-.026-.005 0-.018 0-.014 0-.032.005-.04-.02-.008-.026-.003.025-.01.04-.008.011-.017.04-.043.05-.027.01-.095.02-.105-.026a.119.119 0 0 1-.01-.092c.01-.025-.05.05-.077.056-.077.021-.087-.148-.053-.163.035-.015.03-.041.01-.061-.017-.02-.028-.103-.004-.128.023-.026.078-.04.113-.01.02.02.063.086.055.035a.115.115 0 0 1 .026-.088c.014-.019.06-.024.071.017.028.094.047.134.081.133a.991.991 0 0 1 .2-.06c.037-.012.234-.04.234-.065-.118.057-.166-.017-.179-.012-.013.005-.045-.016-.045-.03 0-.031.03-.027-.013-.017-.025-.003-.047-.005-.068-.042-.004-.018.028-.083.039-.138-.027-.01-.087.058-.107.119-.014-.023-.02-.002-.068.015-.024.014-.061.009-.082-.006-.021-.016-.104-.103-.064-.115-.01-.007-.022-.011-.03-.014-.03-.017-.057-.051-.048-.06-.008-.016.008-.016-.003-.019-.016-.005-.055-.045-.045-.06-.01-.01-.034-.023-.044-.03a.219.219 0 0 1-.04-.095c-.016.003-.052-.043-.036-.056-.027-.029-.051-.076-.033-.091-.016-.018-.027-.05-.016-.039-.016-.029-.011-.059.002-.059s.008-.082-.016-.082-.062.026-.09 0c-.022-.024-.041-.132-.02-.178.02-.047.063-.098.084-.093.02.006.01.016.005-.03s.03-.08.053-.092c.027-.018.081-.005.097.015s.02.02.02-.015c0-.025.021-.038.04-.045.03-.01.053.002.063.02.017.032.027.07.006.102-.021.03-.003.004.03-.006.023-.01.063.003.07.036.008.036.015.097-.009.128-.023.03-.057.107-.039.133.018.025.076.138.09.153.013.015.028.051.05.046l.062-.015c.073-.02.106-.032.013-.027.02-.042.065-.055.084-.062-.017-.035.045-.11.045-.12Zm0 2.784c-.057-.093 0-.263.05-.19-.026-.07.018-.125.037-.09-.009-.056.033-.094.054-.042-.008-.063.054-.1.07-.03.002-.063.062-.112.076-.02.012-.07.08-.08.085.02.02-.058.07-.054.074.03.022-.04.078.02.069.09.035-.012.077.088.035.162.076-.057.093.127.047.21.024.021.026.003.047.018.021.016.06.04.094.052.032 0 .147-.005.171-.01.024-.006.056-.023.095-.041.04-.019.099-.02.152-.038.042-.006 1.23.027 1.263.022.035-.005.084-.05.082-.107-.003-.056-.042-.097-.082-.102a1.687 1.687 0 0 0-.278.005.23.23 0 0 0-.116.072c-.012.01-.033.054-.05.083-.017.02-.064.022-.064-.003 0-.017-.004.003-.015.01-.015.012-.083.016-.08 0 .006-.02 0-.026-.018-.006-.013.015-.106.021-.123.006.01-.024.01-.023-.017-.003-.018.01-.091.02-.096-.002-.001-.016-.01-.008-.02-.003-.083.03-.09-.005-.078-.02.014-.016.033-.103.012-.098-.02.005-.152.04-.197.05-.044.011-.367 0-.412-.004-.045-.005-.095-.064-.097-.148-.005-.135.073-.17.12-.19a.804.804 0 0 1 .213-.05c.048 0 .183.023.22.002.036-.02.148-.077.18-.081a.275.275 0 0 1 .243.123c-.033.021-.049.034-.011.015.034-.01.18-.053.215-.065.118-.007.087.019.03.04-.02.085-.194.206-.25.221a.584.584 0 0 1-.197-.002c-.027-.003-.151-.012-.196-.053a.474.474 0 0 0-.268-.114c-.055.002-.213.025-.212.102-.001.136.147.143.21.138.063-.005.22-.015.265-.04a.491.491 0 0 1 .194-.032c.052 0 .13.016.153.011.023-.005.079-.006.105-.032a.221.221 0 0 1 .141-.052c.058 0 .487-.023.544-.018.084 0 .143.127.144.237 0 .05-.017.126-.032.138.026.003.09.014.112.02.04.011.105.073.113.13-.03-.026-.08-.065-.124-.07-.01 0-.945-.002-1.019-.001.2.033.353.25.391.373.034.077.119.047.15.036.032-.01.068-.056.095-.092.026-.035.067-.044.086-.035.04-.005.048.056.032.086-.016.031.002.018.044.018.042 0 .08.022.104.069-.023.03-.035.005-.001.01.034.006.075.094.05.118-.022.016-.029.01 0 .015.043.005.055.045.06.114-.036.01-.018-.006 0 .02.019.025.045.138-.02.142-.024-.015-.024-.018-.019.017.005.035-.008.121-.045.121-.05.014-.097-.025-.102-.071-.006-.046-.005.088-.077.11a.084.084 0 0 1-.11-.06c-.005-.025-.002-.004-.029-.01-.026-.005-.059-.005-.073-.066 0-.036.005-.083.052-.09.02-.004.027-.043.01-.048-.015-.005-.002-.082.032-.061.035.02.113.025.132.05.018.026.023-.02-.006-.06-.028-.041-.204-.123-.252-.092a.488.488 0 0 1-.325.056c-.032-.01-.123.017-.166-.169-.035-.19-.167-.284-.227-.294-.299-.04-.282-.01-.089.004-.001.035-.008.108.023.118.052-.01.162-.042.188-.012.026.031.053.056.047.128-.005.072.003.051-.02.082-.024.03-.014.092.023.112.037.02.052.046.076.077.024.03-.01.092-.031.071-.021-.02-.021-.02-.024.02-.003.042-.029.119-.073.125-.01-.005-.007-.026-.006-.043.003-.035-.009.045-.022.067-.01.015-.084.045-.105.03.01-.033.004-.02-.014-.004-.018.01-.115.029-.072-.036.012-.024-.015.03-.03.038-.012.011-.07.018-.07-.013-.018.023-.061.023-.068.005-.013-.02-.014.016-.038.02-.023.006-.075-.004-.077-.045-.003-.041.005-.015-.024-.01-.07.065-.105-.026-.105-.057 0-.03-.003-.066.005-.086.008-.02-.049-.027-.031-.067.02-.05.04-.085.078-.076.019.005.016-.01.008-.031-.008-.02.021-.03.056-.01.034.02.057.071.068.117.01.046.092.01.126.015.034.006.037-.076.016-.102-.021-.025-.08-.117-.103-.148-.023-.03-.008-.138.013-.163.123-.117.056-.154.01-.143a.442.442 0 0 0-.195.13c-.037.057-.323.332-.35.363-.025.03-.064.038-.08.002-.015-.036-.026-.01-.023.041.02.193-.102.255-.124.252a.096.096 0 0 1-.052-.032c-.016.108-.083.119-.145.108 0-.013.012-.037.005-.027-.02.037-.082.033-.136.027-.003-.023.019-.05.008-.035-.018.048-.049.04-.099.034 0-.01.024-.043.013-.023-.022.034-.068.023-.103.024-.004-.008.018-.06-.002-.026-.02.03-.062.035-.101.027-.008-.025.008-.025.012-.041.01-.026-.005 0-.018 0-.014 0-.032.005-.04-.02-.008-.026-.003.025-.01.04-.008.011-.017.04-.043.05-.027.01-.095.02-.105-.026a.119.119 0 0 1-.01-.092c.01-.025-.05.05-.077.056-.077.021-.087-.148-.053-.163.035-.015.03-.041.01-.061-.017-.02-.028-.103-.004-.128.023-.026.078-.04.113-.01.02.02.063.086.055.035a.114.114 0 0 1 .026-.088c.014-.019.06-.024.071.017.028.094.047.134.081.133a.991.991 0 0 1 .2-.06c.037-.012.234-.04.234-.065-.118.057-.166-.017-.179-.012-.013.006-.045-.016-.045-.03 0-.031.03-.027-.013-.017-.025-.003-.047-.005-.068-.042-.004-.018.028-.083.039-.138-.027-.01-.087.059-.107.119-.014-.023-.02-.002-.068.015-.024.014-.061.009-.082-.006-.021-.016-.104-.103-.064-.115-.01-.007-.022-.011-.03-.014-.03-.017-.057-.051-.048-.06-.008-.016.008-.016-.003-.019-.016-.005-.055-.045-.045-.06-.01-.01-.034-.023-.044-.03a.219.219 0 0 1-.04-.095c-.016.003-.052-.043-.036-.056-.027-.029-.051-.076-.033-.091-.016-.018-.027-.05-.016-.039-.016-.028-.011-.059.002-.059s.008-.082-.016-.082-.062.026-.09 0c-.022-.024-.041-.133-.02-.178.02-.046.063-.098.084-.092.02.005.01.015.005-.031s.03-.08.053-.092c.027-.018.081-.005.097.015s.02.02.02-.015c0-.025.021-.038.04-.045.03-.01.053.002.063.02.017.032.027.07.006.102-.021.03-.003.004.03-.006.023-.01.063.003.07.036.008.036.015.097-.009.128-.023.03-.057.107-.039.133.018.025.076.138.09.153.013.015.028.051.05.046l.062-.015c.073-.02.106-.032.013-.027.02-.042.065-.054.084-.062-.017-.035.045-.11.045-.12Z"/>
    <path fill="#EDEDED" d="M0 8h6v8H0V8Z"/>
    <path fill="#18191B" d="M3.3 13.6h.75v1H3.3zm-1.5 0h.75v1H1.8zm1.5-2h.75v1H3.3zm-1.5 0h.75v1H1.8zm1.5-2h.75v1H3.3zm-1.5 0h.75v1H1.8z"/>
    <path fill="#0092C8" d="M6 0h18v24H6V0Z"/>
    <path fill="#FFCF00" fill-rule="evenodd" d="M14.734 3.098c.279-.093.728-.122.969-.067.048.012.136.024.224.035.142.018.285.036.263.062-.05.063-.221.672-.221.79 0 .043 1.133 1.092 1.18 1.092.064 0 .159.152.133.211a1.968 1.968 0 0 1-.155.212c-.07.087-.182.54-.291 1.044.04-.074.114-.15.247-.27.165-.148 1.624-1.624 2.048-2.073.047-.046-.073-.076-.323-.072-.2.005-.399.039-.63.115-.337.112-.588-.238-.696-.388-.022-.03-.038-.052-.048-.06-.095-.085-.23-.347-.23-.445 0-.02.091-.004.211.038.279.106.526.102.842-.008a1.87 1.87 0 0 1 .909-.068l.042.01c.056.011.095.02.117.02.02.181.157.776.183.803.05.06 1.168.648 1.253.66.127.021.178.089.178.233 0 .14-.13.27-.314.317-.215.055-.753.884-1.13 1.738-.253.576-.393 1.003-.393 1.21 0 .211.096 1.02.194 1.633.06.363.076.427.107.368.035-.06.13-.068.763-.068h.728l.247-.571c.136-.317.244-.584.238-.588a10.85 10.85 0 0 0-.82-.089c-.444-.038-.81-.076-.817-.08a20.19 20.19 0 0 1 .345-.859l.351-.846.716.161.223.05c.3.067.543.122.58.132.07.017.096 0 .153-.131.016-.04.03-.08.04-.117v.02c-.01.274-.03.967-.252 1.54l-.548 1.39v.96h-.127a.51.51 0 0 0-.126.01l.025.198.022.17c.026.194.038.325.029.342-.01.021-.092.038-.18.038l-.165.005-.092.32c-.162.478-.576 1.37-.928 1.992l-.075.132.177.11c.25.152.51.516.68.955.133.347.14.373.14.74 0 .36-.073.821-.133.825-.01.004-.33.069-.765.158l-.35.07c-.601.123-1.107.216-1.13.208-.066-.034-.224-.39-.278-.622l-.02-.085a4.646 4.646 0 0 0-.047-.185c-.006-.034-.13.025-.383.198a4.4 4.4 0 0 1-1.279.614 4.278 4.278 0 0 1-3.105-.254c-.304-.148-.921-.554-1.26-.833-.585-.483-.826-.766-1.804-2.132-.317-.44-.399-.529-.614-.672-.219-.144-.282-.165-.472-.165-.177 0-.225-.013-.263-.08-.079-.149-.047-.322.105-.542 0 0 .047-.142.031-.156l-.37-.322c-.286-.195.747-2.487 1.175-3.088.208-.296.218-.313.218-.516 0-.406.193-1.205.399-1.67.095-.212.104-.25.073-.347-.06-.178 0-.28.386-.647.766-.732 1.212-1.18 1.225-1.231.022-.093-.31-.06-.567.06-.513.24-.975.295-1.196.143-.102-.068-.257-.304-.257-.393 0-.013.105-.013.235 0 .096.01.077-.202.061-.386a2.172 2.172 0 0 1-.01-.173c0-.059.002-.105.009-.105.002 0 .045.02.099.047l.034.016c.224.106.566.08 1.003-.08a3.9 3.9 0 0 1 .601-.174s.646-.16.551-.025c-.05.072-.104.254-.155.512-.044.22-.076.402-.076.406l.098.026c.127.035.367.101.637.173.48.13.763.19.832.173.12-.034.196.034.196.173 0 .119-.063.19-.316.347a2.69 2.69 0 0 0-.396.322c-.26.262-.728.913-.927 1.294-.086.162-.127.24-.147.324-.018.077-.018.158-.018.314 0 .356.063.897.146 1.27l.05.232.089-.317a5.73 5.73 0 0 1 .488-1.24c.142-.262.167-.334.126-.355-.066-.034 0-.376.057-.423.057-.046.437-.495.842-1.002l.735-.922v-.245c0-.237.003-.246.098-.271a1.11 1.11 0 0 1 .215-.026c.092-.004.149-.046.304-.232.101-.127.177-.245.161-.262-.012-.017-.14-.043-.282-.047-.205-.013-.345.013-.674.114-.465.148-.693.161-.908.064-.15-.068.072-.186.212-.237 0 0-.33-.757-.279-.736.437.178.617.186.994.06Zm7.426 4.04c-.006-.022-.008.015-.01.094a.221.221 0 0 0 .01-.095Zm-2.826-3.909c-.012-.016-.014.004-.01.047.03 0 .031-.012.01-.047Zm-2.542 3.457c-.139.667-.26 1.348-.26 1.348l.111-.321c.06-.178.149-.901.149-1.011v-.016Zm.283-1.524-.003-.002.003.002Zm-.003-.002a203.36 203.36 0 0 1-1.157-1.08l-.038.169c-.036.158.893.726 1.139.876l.056.035Zm-4.11-.336c.664.182.677.186.553.233l-.318.12-.387.146-.615.228.023-.114c.07-.389.152-.765.167-.765.013 0 .27.067.576.152Zm-1.108.854.063-.304.08-.356c.009-.025.009-.05.005-.05-.01 0-1.035 1.002-1.06 1.032-.006.012.082-.017.203-.06.12-.046.329-.127.462-.173l.247-.089Zm4.624 2.546-.079.347a11.26 11.26 0 0 0-.212 1.383c-.032.338-.057.436-.165.673-.066.152-.139.33-.155.397-.084.26-.093.075-.107-.516a9.745 9.745 0 0 1 .117-1.882c.066-.402.475-.748.519-.626l.082.224Zm-3.991 1.37c.025-.143.015-.232-.048-.481-.095-.377-.174-.863-.177-1.108.006-.422-.027-.45-.146-.047-.202.605-.247.867-.247 1.493 0 .343.016.643.042.749.034.16.05.182.133.182h.094v.528c0 .44-.006.529-.047.529-.066 0-.06.046.035.347.152.486.95 1.62.87 1.412-.26-.715-.633-2.165-.573-2.973.02-.25.048-.537.064-.63Zm6.786.77c.042.216.042.254-.015.474l-.02.08c-.038.15-.096.38-.164.483-.149.22-.152.224-.19.13-.152-.384-.209-1.361-.114-2.025.041-.292.203-1.07.222-1.07.006 0 .025.156.047.347.041.389.165 1.226.234 1.581ZM9.97 9.02l.206.935s-.282-.782-.288-.863l.082-.071Zm1.852 1.324c0 .021-.13.038-.288.038h-.288l-.788.016c.005-.026.225-.147.481-.288h.002l.154-.086c.296.02.59.046.62.096.06.106.107.207.107.224Zm-.726-.32-.12-.008c-.258-.017-.49-.033-.518-.06l.924-.25.352-.096c-.013.061-.326.24-.639.414Zm-.588 1.416-.205-.432c0-.35-.013-.478-.07-.655-.038-.123-.088-.269-.1-.269-.006 0-.045.199-.103.493l-.142.715-.238 1.159.095.046c.054.025.24.156.415.296.177.14.345.254.374.254.1 0 .114-.173.05-.533a4.939 4.939 0 0 1-.07-.702l-.006-.372Zm5.733.35c.073.491.206.952.412 1.435.098.228.174.422.167.431-.031.038-.354.106-.383.085-.044-.039-.221-.55-.342-.99-.136-.495-.26-1.18-.237-1.307.01-.06.08-.27.152-.47l.13-.359.025.414c.013.229.044.572.076.762Zm2.523.06c.006-.072-.029-.114-.152-.199-.165-.11-.605.25-.605.25.102.28.377.765.45.765.019 0 .142-.127.278-.283.263-.305.292-.406.124-.427-.086-.013-.102-.03-.095-.106Zm-.396.922-.082.076c-.111.102-.839.58-.855.563-.006-.009.073-.39.171-.846l.154-.296c.032.08.123.11.216.14.082.027.165.055.212.118l.184.245Zm-1.45.757c.013-.021.099-.35.19-.727.089-.381-.202-.09-.24.253-.022.225.01.53.05.474Zm-3.45-.757a7.08 7.08 0 0 1-.158.584c-.013.02-.08 0-.149-.047-.104-.072-.13-.114-.165-.3-.038-.207-.038-.224.041-.406.102-.229.25-.385.418-.44.171-.055.18-.055.165.004a18.03 18.03 0 0 0-.094.371v.001l-.058.233Zm1.035.61a4.46 4.46 0 0 1-.225-.783c-.044-.288-.066-.351-.123-.373-.127-.046-.14-.025-.222.343l-.102.44v.003l-.06.25-.075.326.323.09a6 6 0 0 0 .484.113l.165.026-.165-.436Zm.351-.8.33.211-.146.22c-.082.123-.17.309-.2.415-.028.105-.06.207-.072.224-.057.084-.412-1.015-.412-1.273 0-.09.118-.039.5.203Zm1.02 1.269c.2-.022.38-.039.396-.039.063-.008-.402-.477-.75-.76a1.919 1.919 0 0 0-.229-.174c-.006 0-.07.084-.139.186a1.57 1.57 0 0 0-.269.643l-.019.13.323.026c.177.013.487.004.687-.012Z" clip-rule="evenodd"/>
    <path fill="#18191B" d="m15.703 3.03.039-.144-.006-.002-.033.147Zm-.969.068-.047-.142.047.142Zm1.193-.032.018-.15-.018.15Zm.263.062-.116-.096v.002l.116.094Zm1.092 2.093.135.068.003-.009-.138-.059Zm-.155.212-.116-.095.116.095Zm-.291 1.044-.147-.032.279.103-.132-.071Zm.247-.27-.1-.112.1.112Zm2.048-2.073-.105-.107-.004.004.109.103Zm-.323-.072-.002-.15h-.001l.003.15Zm-.63.115-.047-.143.047.143Zm-.696-.388-.122.088.122-.088Zm-.048-.06.1-.113-.1.112Zm-.019-.407.054-.14-.004-.001-.05.141Zm.842-.008-.048-.142.048.142Zm.909-.068.031-.147h-.008l-.023.147Zm.042.01.03-.148-.03.147Zm.3.823.114-.097-.005-.005-.11.102Zm1.253.66.025-.148h-.003l-.022.148Zm-.136.55-.037-.145.037.145Zm-1.13 1.738-.137-.06.137.06Zm-.2 2.843-.148.023v.001l.149-.024Zm.108.368-.13-.077-.002.006.132.07Zm1.491-.068v.15h.099l.039-.09-.138-.06Zm.247-.571.138.06v-.001l-.138-.06Zm.238-.588-.12.09.015.02.021.015.083-.125Zm-.82-.089-.013.15.013-.15Zm-.817-.08-.14.053.017.045.04.026.083-.124Zm.345-.859-.139-.057.139.057Zm.351-.846.033-.146-.123-.028-.048.117.138.057Zm.716.161-.033.146.033-.146Zm.223.05-.033.146.033-.146Zm.58.132-.038.145h.003l.036-.145Zm.153-.131.137.06.001-.003-.138-.057Zm.04-.098L22 7.247v.004h.15Zm0 0 .15.005V7.25h-.15Zm-.252 1.54.14.055-.14-.055Zm-.548 1.392-.14-.055-.01.026v.029h.15Zm0 .96v.15h.15v-.15h-.15Zm-.228.207.149-.02-.149.02Zm0 0-.149.019.15-.02Zm.022.17.149-.02-.149.02Zm.029.342-.131-.073-.006.012.137.061Zm-.18.038v-.15h-.005l.004.15Zm-.165.005-.004-.15-.11.003-.03.105.144.042Zm-.092.32.142.049.002-.007-.144-.042Zm-.928 1.992.13.076.001-.002-.13-.074Zm-.075.132-.13-.076-.073.126.123.077.08-.127Zm.177.11-.08.127h.002l.078-.127Zm.68.955.14-.053-.14.053Zm.007 1.565-.01-.15-.02.002-.018.006.048.142Zm-.765.158-.03-.147.03.147Zm0 0 .029.147-.03-.147Zm-.35.07-.03-.146.03.147Zm-1.13.208-.068.134.007.003.008.003.053-.14Zm-.278-.622.146-.034-.146.034Zm-.02-.085.145-.035v-.001l-.146.035Zm0 0-.147.034v.001l.146-.036Zm-.047-.185-.147.027.002.01.003.008.142-.045Zm-.383.198.084.125h.001l-.085-.125Zm-1.279.614.044.143-.044-.143Zm-3.105-.254-.066.135h.001l.065-.135Zm-1.26-.833.096-.116-.096.116Zm-1.804-2.132.122-.087-.122.087Zm-.614-.672.083-.125-.083.124Zm-.735-.246-.132.07.002.004.13-.074Zm.105-.541.123.085.012-.018.007-.02-.142-.047Zm.031-.156-.098.113.098-.113Zm-.37-.322.098-.114-.007-.005-.007-.005-.085.124ZM9.767 9.09l.122.087-.122-.087Zm.617-2.186-.137-.062v.001l.137.06Zm.073-.347.142-.047-.142.048Zm.386-.647.103.108-.103-.108Zm1.225-1.231.145.036v-.001l-.145-.035Zm-.567.06-.063-.137.063.136Zm-1.196.143.085-.124h-.002l-.083.124Zm-.022-.393.014-.15-.014.15Zm.061-.386h-.15v.014l.15-.014Zm0 0h.15v-.009l-.001-.01-.149.02Zm0 0-.15.014.001.005.15-.019Zm.098-.231-.066.134.066-.134Zm0 0 .065-.135-.065.135Zm.034.016-.066.135h.002l.064-.135Zm1.003-.08.052.14-.052-.14Zm.601-.174.023.149.007-.001.007-.002-.037-.146Zm.551-.025.123.086-.123-.086Zm-.155.512.147.03V4.15l-.147-.03Zm-.076.406h-.15v.15h.15v-.15Zm.098.026-.04.145.04-.145Zm0 0-.04.145h.002l.038-.145Zm0 0 .04-.144h-.002l-.038.144Zm.637.173.04-.145h-.002l-.038.145Zm.832.173.036.146.005-.002-.04-.144Zm-.12.52-.079-.127h-.001l.08.127Zm-.396.322.107.105-.107-.105Zm-.927 1.294.132.07-.132-.07Zm-.147.324.146.034-.146-.034Zm.128 1.583.146-.032-.146.032Zm.05.233-.146.032.29.008-.144-.04Zm.089-.317.144.04-.144-.04Zm.488-1.24L13 7.548l.132.071Zm.126-.355.069-.133-.069.133Zm.057-.423-.095-.116.095.116Zm.842-1.002.117.093-.117-.093Zm.735-.922.117.093.033-.04v-.053h-.15Zm.098-.516-.035-.146-.004.001.039.145Zm.215-.026v.15h.007l-.007-.15Zm.304-.232.115.096.002-.003-.117-.093Zm.161-.262-.12.09.005.006.006.006.11-.102Zm-.282-.047-.009.15h.005l.004-.15Zm-.674.114-.044-.143h-.001l.045.143Zm-.908.064-.062.136.062-.136Zm.212-.237.051.14.15-.054-.064-.146-.137.06Zm-.279-.736-.058.138h.002l.056-.138Zm8.42 4.098.145-.04-.001-.004-.144.044ZM19.334 3.23l.127-.08-.005-.007-.122.087Zm-2.802 4.805-.148-.026.29.075-.142-.049Zm.26-1.348h.15l-.297-.031.147.03Zm-.149 1.027.142.048-.142-.048Zm.149-1.011-.15-.001h.15Zm.283-1.54.12-.09-.014-.019-.02-.013-.086.122Zm-1.16-1.083.103-.109-.192-.18-.057.256.146.033Zm-.038.17.146.033-.146-.033Zm1.139.876.08-.127h-.002l-.078.127Zm0 0-.08.128h.002l.078-.128Zm-3.5-.068-.053-.14-.005.001.057.139Zm-.555-.233-.04.145.04-.145Zm.236.353-.052-.14.052.14Zm-.387.146.052.14-.053-.14Zm-.615.228-.147-.028-.05.262.25-.093-.053-.14Zm.023-.114.147.029v-.002l-.147-.027Zm-.301-.063-.146-.034v.003l.146.03Zm-.063.304.05.141.08-.028.017-.082-.147-.03Zm.142-.66-.14-.052-.004.01-.003.01.147.032ZM10.942 6l-.114-.098-.012.014-.008.016.134.068Zm.203-.06.05.142.004-.002-.054-.14Zm.462-.173.05.141-.05-.141Zm4.792 2.804-.146-.033.146.033Zm.08-.347.146.034.01-.044-.016-.041-.14.051Zm-.292 1.73-.15-.014.15.014Zm-.165.673-.136-.062-.001.002.138.06Zm-.155.397.144.047.003-.013-.147-.034Zm-.107-.516.15-.003v-.002l-.15.005Zm.117-1.882-.148-.024.148.024ZM16.396 8l-.141.051.141-.05Zm-3.957 1.113-.145.036.145-.036Zm.048.482-.148-.026.148.026Zm-.225-1.59-.15-.003v.004l.15-.001Zm-.146-.047.143.048L12.26 8l-.144-.043Zm-.205 2.242.146-.032v-.003l-.146.035Zm.227.182h.15v-.15h-.15v.15Zm-.012 1.404.143-.045-.143.045Zm.87 1.412-.14.051v.003l.14-.054Zm-.573-2.973-.15-.011.15.011Zm6.835.613.145.039v-.001l-.145-.038Zm.015-.474.148-.028-.148.028Zm-.036.554.146.036-.146-.036Zm0 0-.145-.036v.002l.145.034Zm0 0 .146.036v-.002l-.146-.034Zm-.163.483.124.084-.124-.084Zm-.19.13-.14.056.001.001.14-.056Zm-.114-2.025.149.021-.149-.021Zm.27-.723.148-.016v-.002l-.149.018Zm-8.864 1.171-.141.051.287-.083-.146.032ZM9.97 9.02l.147-.033-.055-.247-.19.167.098.113Zm-.082.071-.099-.113-.057.05.006.075.15-.012Zm1.358 1.29v-.15h-.003l.003.15Zm-.788.016-.148-.03-.036.184.187-.004-.003-.15Zm.481-.288-.072-.132.072.132Zm0 0 .073.131-.072-.131Zm.002 0-.072-.132.072.131Zm.773.01.13-.074v-.002l-.13.076Zm-.738-.104.01-.15-.01.15Zm-.518-.06-.04-.146-.25.068.184.183.106-.106Zm.924-.25.04.144-.04-.144Zm.352-.096.147.03.05-.239-.236.064.039.145Zm-1.431 1.398h-.15v.034l.014.03.136-.064Zm.205.432.15-.003v-.033l-.014-.029-.136.065Zm-.275-1.087-.144.044.001.002.143-.046Zm-.203.224-.147-.029v.001l.147.028Zm0 0 .147.03v-.002l-.147-.028Zm-.142.715.147.03-.147-.03ZM9.65 12.45l-.147-.03-.023.113.104.051.066-.134Zm.095.046-.066.135h.002l.064-.135Zm.415.296-.094.117.001.001.093-.118Zm.424-.279.148-.026v-.002l-.148.028Zm-.07-.702.15-.002-.15.002Zm6.139 1.413-.138.059.137-.06Zm-.412-1.434.148-.022v-.003l-.148.025Zm.58 1.865.115.096.005-.006-.12-.09Zm-.384.085-.098.114.009.006.09-.12Zm-.342-.99.145-.04-.145.04Zm-.237-1.307.148.026v-.002l-.148-.024Zm.152-.47.14.052h.001l-.141-.052Zm.13-.359.15-.01-.291-.04.14.05Zm.025.414.15-.008-.15.008Zm2.447.622.085-.123-.002-.002-.083.125Zm.152.199-.15-.013.15.013Zm-.757.051-.095-.116-.082.068.036.1.141-.052Zm.728.482.114.098-.114-.098Zm.124-.427-.022.148h.003l.019-.148Zm-.573.892.101.11-.101-.11Zm.082-.076.102.11.1-.091-.082-.109-.12.09Zm-.937.639-.12.09.005.006.006.006.11-.102Zm.171-.846-.133-.07-.01.018-.004.02.147.032Zm.154-.296.14-.055-.12-.306-.153.291.133.07Zm.216.14.046-.142-.046.143Zm.212.118-.12.09.12-.09Zm-1.076.275.146.035v-.001l-.146-.034Zm-.19.727.12.09.005-.006.004-.007-.129-.077Zm-.05-.474-.15-.016v.002l.15.014Zm-3.558.3-.12-.09-.005.007-.004.007.129.077Zm.158-.583-.146-.036.146.036Zm-.307.537-.085.124.002.001.083-.125Zm-.165-.3-.147.027.147-.027Zm.041-.406-.137-.06.137.06Zm.418-.44-.046-.143.046.143Zm.165.004.143.046.002-.007-.145-.039Zm-.094.371.146.037-.146-.037Zm0 0-.146-.036v.002l.146.035Zm0 .001.146.036v-.001l-.146-.035Zm.752.06-.148.022v.003l.148-.025Zm.225.782.14-.053-.14.053Zm-.348-1.155.052-.14-.052.14Zm-.222.343.147.034V12.6l-.147-.033Zm-.102.44.146.034-.146-.034Zm0 0-.146-.034.146.034Zm0 .003.145.034-.146-.034Zm-.06.25.147.035-.146-.034Zm-.075.326-.146-.034-.033.14.14.039.039-.145Zm.323.09-.04.144h.001l.039-.145Zm.484.113.023-.148h-.002l-.02.148Zm.165.026-.023.148.254.04-.091-.241-.14.053Zm.516-1.024.125.083.084-.127-.128-.082-.081.126Zm-.33-.211.082-.127h-.002l-.08.127Zm.184.431.125.084v-.001l-.125-.083Zm-.2.415.146.039-.145-.04Zm-.072.224-.12-.09-.005.006.125.084Zm1.504.16v.15h.02l-.02-.15Zm-.396.039.012.149h.004l-.016-.15Zm-.355-.8-.096.115.002.001.094-.116Zm-.367.013.123.086v-.001l-.123-.085Zm-.269.643.149.021-.149-.021Zm-.019.13-.148-.02-.023.158.16.012.011-.15Zm.323.026-.012.15h.001l.01-.15Zm.55-10.978a1.885 1.885 0 0 0-.514-.025 2.26 2.26 0 0 0-.536.097l.095.284c.123-.04.292-.07.461-.082.17-.011.326-.004.426.019l.067-.293Zm.208.033a2.09 2.09 0 0 1-.204-.031l-.077.29c.06.016.162.028.244.038l.037-.297Zm.361.306a.158.158 0 0 0 .008-.19.173.173 0 0 0-.074-.06.437.437 0 0 0-.091-.027c-.057-.01-.134-.02-.204-.03l-.037.298c.073.01.138.018.183.027.025.005.03.007.026.005a.131.131 0 0 1-.049-.042.142.142 0 0 1 .006-.172l.232.191Zm-.187.696v-.01l.005-.03a5.061 5.061 0 0 1 .18-.646c.011-.025.012-.023.003-.012l-.234-.187a.358.358 0 0 0-.045.084 1.21 1.21 0 0 0-.036.095 4.915 4.915 0 0 0-.142.508 1.064 1.064 0 0 0-.031.198h.3Zm1.03.94c.029 0 .05.01.053.01l.013.007c.003.002.003.002 0 0a4.83 4.83 0 0 1-.171-.143 21.682 21.682 0 0 1-.947-.89c-.003-.004-.002-.004 0 0a.108.108 0 0 1 .008.014.137.137 0 0 1 .014.062h-.3c0 .035.012.061.015.067a.186.186 0 0 0 .032.048l.043.047c.033.035.079.08.133.133a22.382 22.382 0 0 0 .949.867.99.99 0 0 0 .077.057.159.159 0 0 0 .081.022v-.3Zm.271.421a.238.238 0 0 0 .006-.157.429.429 0 0 0-.127-.201.231.231 0 0 0-.15-.062v.3a.104.104 0 0 1-.041-.01c-.006-.002-.008-.004-.006-.002a.165.165 0 0 1 .035.056v-.018c.002-.006.003-.014.008-.024l.275.118Zm-.177.248c.039-.047.076-.096.106-.136a.922.922 0 0 0 .068-.104l-.269-.134-.01.015-.032.046c-.026.037-.06.08-.095.123l.232.19Zm-.26.98c.054-.25.108-.487.158-.67.025-.093.048-.169.068-.226.023-.065.036-.086.035-.085l-.233-.188a.622.622 0 0 0-.085.173c-.024.067-.05.152-.075.247-.051.191-.107.433-.162.686l.294.063Zm0-.413c-.131.119-.225.21-.279.31l.264.143c.026-.048.08-.107.215-.23l-.2-.223Zm2.04-2.064c-.425.449-1.88 1.92-2.04 2.064l.2.223a105.26 105.26 0 0 0 2.057-2.08l-.218-.207Zm-.212.181c.122-.002.2.005.237.014l.008.002s-.015-.006-.03-.024a.133.133 0 0 1-.033-.108.121.121 0 0 1 .033-.069l.21.215a.18.18 0 0 0 .053-.103.168.168 0 0 0-.043-.138.207.207 0 0 0-.071-.049.349.349 0 0 0-.06-.019 1.396 1.396 0 0 0-.31-.02l.006.3Zm-.586.107c.218-.072.403-.103.586-.107l-.006-.3c-.216.005-.43.042-.674.122l.094.285Zm-.865-.442c.053.073.154.216.292.323.14.11.34.197.574.119l-.095-.285c-.104.035-.198.004-.295-.07a1.254 1.254 0 0 1-.233-.262l-.243.175Zm-.025-.037-.007-.006.006.007.026.036.243-.175a.509.509 0 0 0-.03-.042.312.312 0 0 0-.039-.044l-.2.224Zm-.282-.556a.45.45 0 0 0 .032.15c.017.047.04.098.065.146a.978.978 0 0 0 .185.26l.2-.224a.723.723 0 0 1-.119-.174.912.912 0 0 1-.049-.11c-.013-.036-.014-.05-.014-.048h-.3Zm.412-.103a1.2 1.2 0 0 0-.174-.05.34.34 0 0 0-.082-.005.18.18 0 0 0-.073.02.157.157 0 0 0-.083.138h.3a.144.144 0 0 1-.074.126.117.117 0 0 1-.05.015c-.008 0-.007 0 .009.002a.916.916 0 0 1 .128.037l.1-.283Zm.743-.009c-.288.1-.499.101-.74.01l-.106.28c.317.12.6.113.945-.006l-.099-.284Zm.981-.074a2.02 2.02 0 0 0-.98.074l.097.284a1.72 1.72 0 0 1 .836-.062l.047-.296Zm.05.01-.042-.009-.062.294.041.009.063-.294Zm.09.018-.022-.004a2.99 2.99 0 0 1-.068-.014l-.063.294c.048.01.105.023.145.024l.007-.3Zm.288.851c.014.014.02.027.02.029.003.003.004.006.003.005l-.004-.013a6.499 6.499 0 0 1-.076-.296 5.208 5.208 0 0 1-.086-.442l-.298.032c.01.1.052.303.092.477a6.853 6.853 0 0 0 .083.322.502.502 0 0 0 .021.054c.003.005.011.02.026.037l.22-.205Zm1.166.614c.014.002.02.005.005 0a4.747 4.747 0 0 1-.185-.086 17.937 17.937 0 0 1-.989-.532c-.013-.01-.004-.005.008.009l-.228.195c.018.02.042.037.05.043l.05.032.145.084a17.783 17.783 0 0 0 1.04.534.292.292 0 0 0 .06.018l.044-.297Zm.305.38a.408.408 0 0 0-.071-.252.35.35 0 0 0-.231-.128l-.05.296a.13.13 0 0 1 .042.013l.001.003a.245.245 0 0 1 .01.069h.3Zm-.426.463c.219-.055.427-.226.427-.462h-.3c0 .043-.053.134-.2.172l.073.29Zm-1.03 1.654c.186-.42.41-.834.614-1.148.103-.157.197-.286.277-.377a.925.925 0 0 1 .102-.103c.03-.024.042-.027.037-.026l-.074-.29a.411.411 0 0 0-.153.085c-.044.036-.09.083-.137.136a3.716 3.716 0 0 0-.303.412 8.769 8.769 0 0 0-.637 1.19l.274.12Zm-.38 1.149c0-.078.029-.218.095-.42.064-.199.16-.444.285-.73l-.274-.12c-.128.29-.228.546-.297.757a1.83 1.83 0 0 0-.108.513h.3Zm.192 1.609c-.099-.615-.191-1.411-.191-1.609h-.3c0 .225.097 1.045.195 1.656l.296-.047Zm-.173.32c-.002.005.004-.009.02-.024a.142.142 0 0 1 .202.016c.008.01.012.017.013.02l-.002-.007a4.08 4.08 0 0 1-.06-.326l-.296.05c.029.177.05.294.068.358a.34.34 0 0 0 .02.056c.006.011.028.057.08.082a.157.157 0 0 0 .176-.026.208.208 0 0 0 .043-.057l-.264-.141Zm.895-.146c-.314 0-.503.002-.619.012a.574.574 0 0 0-.153.03.23.23 0 0 0-.12.1l.258.152a.076.076 0 0 1-.017.02c-.007.006-.013.008-.013.008a.332.332 0 0 1 .072-.011c.099-.009.273-.011.592-.011v-.3Zm.728 0h-.728v.3h.728v-.3Zm.11-.48-.248.57.276.12.247-.572-.276-.119Zm.291-.404a.15.15 0 0 1-.066-.13c0-.011.002-.02.003-.022 0-.005.002-.007 0-.004a22.028 22.028 0 0 1-.23.56l.277.118a21.533 21.533 0 0 0 .225-.546.941.941 0 0 0 .015-.043l.006-.023a.169.169 0 0 0 0-.068.15.15 0 0 0-.063-.092l-.167.25Zm-.75-.064a24.903 24.903 0 0 1 .745.076l.044.006h.003s-.005 0-.012-.003a.14.14 0 0 1-.018-.008c-.005-.003-.028-.015-.048-.042l.24-.18c-.02-.027-.045-.04-.05-.043a.16.16 0 0 0-.04-.015 25.172 25.172 0 0 0-.838-.09l-.025.299Zm-.886-.106a.152.152 0 0 0 .064.025.571.571 0 0 0 .07.009l.179.019c.148.014.352.034.574.053l.026-.3a42.657 42.657 0 0 1-.8-.077h.004l.01.003a.141.141 0 0 1 .04.02l-.167.248Zm.29-1.04a62.65 62.65 0 0 0-.322.79 2.177 2.177 0 0 0-.028.077l-.004.016-.002.02s-.004.031.009.066l.28-.106c.013.034.01.064.01.065a.135.135 0 0 1-.003.016l-.001.007-.001.002.002-.008.018-.048.073-.183c.062-.155.15-.367.245-.6l-.277-.114Zm.35-.846-.35.846.276.115.352-.846-.277-.115Zm.888.072-.716-.161-.066.293.716.16.066-.292Zm.223.05-.223-.05-.066.292.223.05.066-.292Zm.587.133c-.043-.011-.29-.067-.587-.133l-.066.292.575.13.078-.289Zm-.025-.046a.63.63 0 0 1-.03.063c-.008.013-.008.01 0 .003a.083.083 0 0 1 .046-.02H22h-.007l-.07.29a.286.286 0 0 0 .094.01.213.213 0 0 0 .118-.05.308.308 0 0 0 .066-.083.94.94 0 0 0 .046-.093l-.275-.12Zm.033-.095a.804.804 0 0 1-.034.098l.277.114c.019-.045.035-.092.047-.136l-.29-.076Zm.294.062v-.02l-.3-.009v.02l.3.009Zm0-.005H22h.3Zm-.261 1.594c.233-.6.253-1.317.261-1.59l-.3-.008c-.008.277-.03.945-.241 1.49l.28.108Zm-.548 1.393.547-1.392-.279-.11-.548 1.392.28.11Zm.01.905v-.96h-.3v.96h.3Zm-.277.15h.127v-.3h-.127v.3Zm.024-.142a.15.15 0 0 1-.114.145l.011-.001.08-.002v-.3a1.498 1.498 0 0 0-.14.007.208.208 0 0 0-.029.006c-.005.002-.02.006-.035.016a.15.15 0 0 0-.073.13h.3Zm.024.179-.018-.139a2.708 2.708 0 0 1-.007-.05v.01h-.3a.144.144 0 0 0 .002.022l.002.014.005.042.018.14.298-.039Zm0 0-.298.039.298-.038Zm.022.17-.022-.17-.298.04.023.169.297-.04Zm.01.436c.019-.033.021-.066.022-.072a1.236 1.236 0 0 0-.004-.12 5.964 5.964 0 0 0-.028-.244l-.297.039a5.693 5.693 0 0 1 .03.292v.006l.002-.011c0-.004.004-.02.014-.037l.261.147Zm-.31.114a.762.762 0 0 0 .15-.014.37.37 0 0 0 .07-.021.212.212 0 0 0 .043-.025.17.17 0 0 0 .054-.066l-.274-.123a.131.131 0 0 1 .04-.051.056.056 0 0 1 .017-.01l-.012.002a.463.463 0 0 1-.089.008v.3Zm-.161.005.164-.005-.008-.3-.164.005.008.3Zm.048.212.092-.321-.289-.083-.091.321.288.083Zm-.941 2.024c.354-.627.774-1.528.939-2.018l-.284-.096c-.158.467-.568 1.35-.916 1.967l.261.147Zm-.077.133.076-.131-.26-.15-.075.13.26.15Zm.127-.093-.178-.11-.158.255.178.11.158-.255Zm.741 1.03c-.176-.454-.452-.854-.742-1.03l-.156.256c.21.127.453.456.619.882l.28-.109Zm.15.794c0-.181-.002-.294-.023-.406a2.311 2.311 0 0 0-.127-.388l-.28.107c.068.177.097.257.113.337.015.079.017.163.017.35h.3Zm-.273.974a.169.169 0 0 0 .105-.048.215.215 0 0 0 .038-.05.456.456 0 0 0 .036-.087 1.69 1.69 0 0 0 .048-.22c.027-.168.046-.381.046-.57h-.3c0 .172-.018.369-.042.523a1.4 1.4 0 0 1-.038.178l-.011.029.003-.006a.132.132 0 0 1 .094-.049l.021.3Zm-.745.154a456.307 456.307 0 0 0 .703-.143l.045-.01a.864.864 0 0 0 .034-.008l-.095-.285.009-.003-.011.003a5.759 5.759 0 0 1-.204.042l-.541.11.06.294Zm0 0-.06-.293H19.8l.06.294Zm-.35.072.349-.071-.06-.294-.349.07.06.295Zm-1.213.2a.182.182 0 0 0 .07.01l.03-.002.078-.011a42.91 42.91 0 0 0 1.035-.197l-.06-.294a42.329 42.329 0 0 1-1.022.194 1.658 1.658 0 0 1-.075.01h.002a.14.14 0 0 1 .049.01l-.107.28Zm-.371-.728a2.436 2.436 0 0 0 .232.586c.014.025.03.049.047.07.013.016.04.046.077.066l.136-.268c.022.011.028.023.02.013a1.393 1.393 0 0 1-.095-.177 2.153 2.153 0 0 1-.125-.358l-.292.068Zm-.02-.085.02.086.292-.07-.02-.085-.293.07Zm0 .001.29-.071-.29.071Zm-.044-.175v.002l.002.004.003.013.01.04.028.115.292-.07c-.02-.081-.04-.166-.049-.195l-.285.091Zm-.155.277c.125-.086.213-.14.268-.167.029-.015.038-.017.035-.016a.124.124 0 0 1-.054-.003.139.139 0 0 1-.098-.109l.295-.055a.16.16 0 0 0-.114-.125.188.188 0 0 0-.092-.002.465.465 0 0 0-.109.043 2.802 2.802 0 0 0-.3.187l.169.247Zm-1.32.633c.49-.148.851-.32 1.319-.632l-.167-.25c-.444.297-.78.456-1.24.595l.088.287Zm-3.214-.262c1.02.49 2.148.582 3.213.262l-.086-.287a4.128 4.128 0 0 1-2.997-.245l-.13.27Zm-1.29-.853c.346.285.973.698 1.29.853l.13-.27a8.336 8.336 0 0 1-1.23-.814l-.19.231Zm-1.831-2.16c.979 1.367 1.229 1.665 1.83 2.16l.192-.231c-.57-.469-.8-.738-1.778-2.103l-.244.174Zm-.576-.635c.102.068.166.118.242.202.08.088.175.213.334.434l.244-.176a5.311 5.311 0 0 0-.356-.46 1.473 1.473 0 0 0-.297-.25l-.167.25Zm-.388-.14c.09 0 .133.006.176.02.047.017.104.049.213.12l.165-.25a1.31 1.31 0 0 0-.28-.153.792.792 0 0 0-.274-.036v.3Zm-.393-.156a.275.275 0 0 0 .167.136.823.823 0 0 0 .226.02v-.3a1.336 1.336 0 0 1-.14-.008c-.003 0 .001 0 .007.005.005.005.005.007.001 0l-.261.147Zm.111-.7c-.164.238-.231.475-.113.697l.265-.142c-.04-.074-.044-.183.095-.385l-.247-.17Zm.057.042a.142.142 0 0 1-.049-.095v-.009a1.097 1.097 0 0 1-.02.08l-.005.015-.001.004.142.048.142.047.001-.002.002-.005a1.15 1.15 0 0 0 .036-.145.257.257 0 0 0 .003-.047.158.158 0 0 0-.055-.117l-.196.226Zm-.371-.322.37.322.197-.226-.37-.322-.197.226Zm1.151-3.288c-.224.315-.594 1.051-.871 1.726-.14.34-.258.67-.324.932a1.65 1.65 0 0 0-.057.35.501.501 0 0 0 .017.148.254.254 0 0 0 .098.143l.169-.248c.02.014.023.03.02.022a.216.216 0 0 1-.004-.059c.002-.066.017-.16.048-.283.06-.241.174-.557.31-.89.276-.67.635-1.38.839-1.667l-.245-.174Zm.191-.429c0 .102-.004.129-.019.164-.02.049-.063.111-.172.266l.245.173c.1-.142.167-.236.203-.32a.656.656 0 0 0 .043-.283h-.3Zm.412-1.73c-.108.243-.21.568-.286.882a4.027 4.027 0 0 0-.126.848h.3c0-.185.045-.473.118-.778.073-.303.17-.61.268-.832l-.274-.12Zm.067-.24c.011.033.01.039.007.052a1.15 1.15 0 0 1-.074.186l.274.123c.045-.101.08-.18.093-.246a.373.373 0 0 0-.015-.209l-.285.093Zm.425-.803c-.19.181-.317.313-.386.427a.44.44 0 0 0-.065.193.456.456 0 0 0 .027.184l.284-.096a.161.161 0 0 1-.012-.064.147.147 0 0 1 .024-.063c.044-.073.139-.177.335-.364l-.207-.217Zm1.183-1.158c.006-.025.017-.039.014-.033l-.01.012a9.04 9.04 0 0 1-.294.31c-.208.21-.51.504-.893.87l.207.216c.384-.366.688-.662.898-.873.105-.106.188-.19.245-.254a1.74 1.74 0 0 0 .096-.115.197.197 0 0 0 .028-.06l-.29-.073Zm-.358.231c.113-.052.245-.086.34-.095a.305.305 0 0 1 .084-.001c.004 0-.015-.002-.036-.024a.12.12 0 0 1-.03-.11l.292.07a.18.18 0 0 0-.046-.168.223.223 0 0 0-.107-.06.563.563 0 0 0-.187-.006 1.456 1.456 0 0 0-.436.122l.126.272Zm-1.344.132c.155.106.37.127.592.1.227-.027.486-.106.753-.232l-.128-.272a2.232 2.232 0 0 1-.661.207c-.193.023-.32-.005-.386-.05l-.17.247Zm-.322-.517c0 .056.022.112.04.15.02.045.046.092.075.136a.86.86 0 0 0 .208.232l.167-.25a.605.605 0 0 1-.124-.146.73.73 0 0 1-.053-.095c-.015-.032-.013-.039-.013-.027h-.3Zm.4-.15a1.947 1.947 0 0 0-.181-.01.518.518 0 0 0-.07.004.212.212 0 0 0-.047.011.153.153 0 0 0-.101.144h.3a.147.147 0 0 1-.092.137.109.109 0 0 1-.02.005h.002a.188.188 0 0 1 .028 0c.036 0 .09.002.15.008l.03-.299Zm-.103-.222c.008.096.015.18.01.24-.002.033-.006.038-.002.03a.102.102 0 0 1 .094-.048l-.03.299a.2.2 0 0 0 .2-.108.376.376 0 0 0 .038-.15c.006-.09-.004-.202-.011-.29l-.3.027Zm0-.014h.3-.3Zm0 .02.298-.038-.298.037Zm-.012-.193c0 .056.006.124.012.187l.299-.027a2.112 2.112 0 0 1-.01-.16h-.3Zm.16-.255a.152.152 0 0 0-.137.085.173.173 0 0 0-.014.04 1.101 1.101 0 0 0-.009.13h.3l.002-.062v-.002s-.003.013-.01.028a.148.148 0 0 1-.132.081v-.3Zm.164.062a10.785 10.785 0 0 0-.105-.05l-.01-.004a.17.17 0 0 0-.013-.004c-.002 0-.017-.004-.036-.004v.3a.148.148 0 0 1-.047-.008l-.007-.002c-.001 0-.001 0 0 0l.02.009.067.032.131-.27Zm0 0-.13.27.13-.27Zm.034.016-.034-.016-.13.27.033.016.131-.27Zm.886-.086c-.427.157-.72.164-.888.085l-.127.272c.281.132.673.089 1.119-.075l-.104-.282Zm.631-.181c-.128.02-.412.1-.631.181l.104.281c.211-.078.473-.15.572-.165l-.044-.297Zm.696.21a.195.195 0 0 0 .036-.097.17.17 0 0 0-.05-.134.194.194 0 0 0-.081-.048.3.3 0 0 0-.061-.01 1.06 1.06 0 0 0-.23.016 3.767 3.767 0 0 0-.316.064l-.006.001h-.001l.036.146.036.146h.001a1.424 1.424 0 0 1 .094-.022 3.48 3.48 0 0 1 .203-.039.817.817 0 0 1 .158-.014c.005 0 .005.001 0 0a.106.106 0 0 1-.044-.028.131.131 0 0 1-.038-.102.107.107 0 0 1 .017-.052l.246.172Zm-.13.454c.024-.127.05-.231.073-.312a.598.598 0 0 1 .057-.143l-.245-.172a.835.835 0 0 0-.099.229 3.676 3.676 0 0 0-.081.34l.294.058Zm-.074.377v.018l-.001.001v-.005l.005-.023.015-.086c.014-.073.032-.173.054-.282l-.294-.059a15.654 15.654 0 0 0-.075.402l-.002.009v.005l-.001.004v.016h.3Zm-.013-.118a44.428 44.428 0 0 0-.098-.027l-.005-.001-.005-.002h-.007c-.002 0-.01-.002-.022-.002v.3a.151.151 0 0 1-.021-.002h-.007a.119.119 0 0 1-.006-.002h.003l.018.005.071.02.08-.29Zm0 0-.079.289.08-.29Zm-.001 0-.076.29.076-.29Zm.637.172c-.27-.072-.508-.137-.635-.172l-.08.289.638.173.077-.29Zm.759.172c.012-.003.006 0-.039-.005a1.93 1.93 0 0 1-.157-.027 10.215 10.215 0 0 1-.562-.14l-.079.29c.242.065.436.114.58.144.071.015.133.025.183.031a.43.43 0 0 0 .145-.001l-.071-.292Zm.381.32a.343.343 0 0 0-.103-.265.296.296 0 0 0-.284-.053l.082.288c.014-.004.019-.002.017-.003l-.006-.002a.035.035 0 0 1-.008-.005c-.005-.005-.005-.007-.003-.001a.125.125 0 0 1 .005.04h.3Zm-.387.474c.126-.078.222-.145.285-.215a.367.367 0 0 0 .102-.26h-.3c0 .023-.002.034-.024.059a1.103 1.103 0 0 1-.221.16l.158.256Zm-.368.299c.097-.098.265-.235.369-.3l-.16-.254c-.125.079-.31.23-.423.343l.214.211Zm-.901 1.258c.193-.369.653-1.008.9-1.258l-.212-.21c-.272.273-.749.937-.954 1.33l.266.138Zm-.134.29c.015-.061.044-.12.133-.29l-.265-.139c-.082.156-.134.253-.16.36l.292.068Zm-.014.28c0-.164.001-.225.014-.28l-.292-.07c-.023.098-.022.2-.022.35h.3Zm.142 1.236a6.671 6.671 0 0 1-.142-1.237h-.3c0 .368.065.92.15 1.302l.292-.065Zm.05.233-.05-.233-.293.064.05.233.294-.064Zm-.201-.326-.09.318.29.08.088-.317-.288-.08Zm.5-1.27a5.903 5.903 0 0 0-.5 1.271l.289.08c.12-.444.275-.839.474-1.208l-.263-.143Zm.19-.15a.12.12 0 0 1-.064-.093c-.001-.02.004-.026-.004-.004-.014.04-.05.114-.122.247l.263.143a2.4 2.4 0 0 0 .142-.29.295.295 0 0 0 .02-.122.184.184 0 0 0-.098-.148l-.137.267Zm.03-.673a.244.244 0 0 0-.06.078.535.535 0 0 0-.03.071 1.032 1.032 0 0 0-.049.325.329.329 0 0 0 .016.089c.01.028.034.08.093.11l.136-.267a.109.109 0 0 1 .055.058c.002.005 0 .004 0-.007a.732.732 0 0 1 .046-.242c.004-.009 0 .003-.017.017l-.19-.232Zm.82-.98a34.312 34.312 0 0 1-.739.892c-.024.028-.044.05-.06.066l-.02.022.189.232c.026-.02.07-.069.116-.121l.194-.226a34.4 34.4 0 0 0 .554-.678l-.234-.187Zm.734-.922-.734.922.234.187.735-.922-.235-.187Zm-.033-.151v.245h.3v-.245h-.3Zm.21-.416a.356.356 0 0 0-.093.035.215.215 0 0 0-.094.115.415.415 0 0 0-.02.12 3.11 3.11 0 0 0-.002.146h.3l.001-.131c.002-.033.005-.038.003-.033a.086.086 0 0 1-.035.042l-.005.002a.386.386 0 0 1 .022-.006l-.077-.29Zm.254-.03c-.076 0-.186.014-.25.029l.069.292c.044-.01.13-.022.18-.022v-.3Zm.189-.18a1.117 1.117 0 0 1-.152.162c-.02.016-.028.017-.044.018l.014.3a.359.359 0 0 0 .212-.08 1.36 1.36 0 0 0 .2-.207l-.23-.192Zm.167-.063a.143.143 0 0 1-.037-.114c.002-.012.005-.02.003-.016a1.806 1.806 0 0 1-.136.196l.235.187c.053-.066.1-.132.135-.186a.59.59 0 0 0 .043-.081.232.232 0 0 0 .016-.055.162.162 0 0 0-.04-.136l-.22.205Zm-.177.001a1.22 1.22 0 0 1 .213.026c.004.002.004.002 0 0a.134.134 0 0 1-.046-.04l.24-.18c-.026-.033-.06-.048-.067-.052a.704.704 0 0 0-.12-.033 1.515 1.515 0 0 0-.211-.02l-.009.299Zm-.626.108c.324-.1.442-.12.621-.108l.019-.3c-.233-.014-.393.018-.728.12l.088.288Zm-1.014.056c.27.122.545.093 1.016-.057l-.091-.286c-.46.147-.64.143-.802.07l-.123.273Zm.222-.514a.956.956 0 0 0-.257.137.34.34 0 0 0-.06.06.217.217 0 0 0-.042.108c-.011.119.079.183.137.21l.124-.274c-.007-.003.003 0 .015.015a.109.109 0 0 1 .023.077c-.003.026-.013.04-.014.042l.007-.006a.678.678 0 0 1 .17-.087l-.103-.282Zm-.169-.733a.153.153 0 0 0-.164.029c-.044.041-.048.092-.049.101-.002.03.004.056.006.066a.934.934 0 0 0 .03.097c.025.072.062.168.1.262a18.97 18.97 0 0 0 .146.346l.01.024a.413.413 0 0 1 .003.006l.001.002.138-.06.137-.059v-.002l-.003-.006a3.26 3.26 0 0 1-.01-.024c-.01-.02-.022-.05-.037-.085L14 3.342a5.771 5.771 0 0 1-.115-.31c-.002-.009.002.004 0 .024a.147.147 0 0 1-.202.121l.116-.276Zm.888.055c-.18.061-.299.084-.418.077-.12-.007-.257-.046-.471-.133l-.113.278c.222.09.395.145.567.155.175.01.335-.027.531-.093l-.096-.284Zm7.618 4.137a.17.17 0 0 0-.026-.051.151.151 0 0 0-.27.067.263.263 0 0 0-.004.024 1.777 1.777 0 0 0-.004.094l.3.01c0-.042.002-.066.003-.076v.003l-.004.014a.149.149 0 0 1-.278.014l-.004-.01.287-.089Zm-.01.177a.576.576 0 0 0 .016-.076.252.252 0 0 0-.005-.097l-.289.08a.096.096 0 0 1-.004-.021v.002c0 .007-.003.019-.007.036l.29.076Zm-2.838-4.128a.154.154 0 0 0-.151-.067.153.153 0 0 0-.13.132.335.335 0 0 0 0 .085l.299-.032c-.003-.025 0-.02-.003-.006a.147.147 0 0 1-.26.062l.245-.174Zm-.135.284a.19.19 0 0 0 .079-.014.16.16 0 0 0 .096-.122.177.177 0 0 0-.012-.096.295.295 0 0 0-.023-.044l-.255.159c.004.006.003.005 0 0 0-.002-.012-.03-.006-.068a.14.14 0 0 1 .116-.114l.012-.001-.007.3Zm-2.789 4.608.148.026v-.002l.001-.005.004-.023.016-.086a64.032 64.032 0 0 1 .238-1.228l-.294-.061a49.337 49.337 0 0 0-.255 1.322L16.386 8a.139.139 0 0 0-.001.007l.147.027Zm-.03-.37-.112.321.284.098.11-.322-.283-.097Zm.14-.962c0 .042-.02.24-.05.46a4.01 4.01 0 0 1-.091.502l.284.097c.036-.106.075-.347.104-.559a5.87 5.87 0 0 0 .053-.5h-.3Zm0-.017V6.7l.3.002v-.017l-.3-.001Zm.52-1.645-.003-.002-.174.244.003.002.174-.244Zm-.187.234a.185.185 0 0 0 .026.019.15.15 0 0 0 .02.01c.004 0 .034.013.074.008a.15.15 0 0 0 .13-.138.15.15 0 0 0-.014-.073.148.148 0 0 0-.016-.028l-.24.18s-.01-.012-.016-.027a.15.15 0 0 1 .117-.21c.039-.007.07.006.073.007a.145.145 0 0 1 .033.018c.005.004.01.007.007.006l-.194.228Zm-1.06-1.195-.103.11h.001l.002.003.01.008.034.033a116.728 116.728 0 0 0 .507.475c.279.26.572.535.609.566l.194-.228a499.085 499.085 0 0 1-1.105-1.032l-.034-.033-.01-.008a.045.045 0 0 0-.002-.002V3.97l-.103.11Zm.108.202.038-.169-.292-.066-.038.17.292.065Zm1.071.716a13.89 13.89 0 0 1-.667-.43 3.443 3.443 0 0 1-.321-.247.601.601 0 0 1-.079-.083c-.007-.009-.007-.011-.006-.007a.093.093 0 0 1 .002.052l-.292-.067a.21.21 0 0 0 .01.121c.011.03.027.056.043.077a.88.88 0 0 0 .12.13c.093.084.22.178.35.27.263.183.56.365.683.44l.157-.256Zm.001.001-.159.255.16-.255Zm.06.037-.06-.038-.157.256c.03.02.047.03.052.032l.164-.25Zm-3.587.162a.642.642 0 0 0 .086-.041.176.176 0 0 0 .05-.054.16.16 0 0 0-.034-.203.276.276 0 0 0-.078-.046c-.083-.035-.266-.085-.59-.174l-.08.29c.34.093.495.136.554.16.016.007.007.006-.006-.007a.132.132 0 0 1-.039-.062.14.14 0 0 1 .014-.11.126.126 0 0 1 .035-.04l.009-.004a.409.409 0 0 1-.027.01l.106.28Zm-.318.12c.162-.06.29-.108.323-.122l-.115-.277-.313.119.105.28Zm-.387.146.387-.145-.105-.281c-.115.043-.25.093-.388.146l.106.28Zm-.615.229.614-.228-.105-.282-.614.229.105.281Zm-.178-.283-.022.114.295.057.022-.114-.295-.057Zm.315-.887c-.071 0-.11.048-.115.053a.163.163 0 0 0-.021.032.832.832 0 0 0-.031.091 15.008 15.008 0 0 0-.147.713l.294.053a14.727 14.727 0 0 1 .142-.689.542.542 0 0 1 .01-.037c.002-.003.001 0-.002.007-.002.003-.007.014-.018.025a.144.144 0 0 1-.112.052v-.3Zm.616.157a41.356 41.356 0 0 0-.582-.154.235.235 0 0 0-.01-.002l-.024-.001v.3a.145.145 0 0 1-.02-.002h-.003.006c.007.003.018.005.033.009l.124.032c.103.027.243.065.397.108l.08-.29Zm-1.23.664-.064.305.293.06.064-.304-.294-.061Zm.078-.356c-.006.029-.04.189-.078.353l.292.067.08-.357-.294-.063Zm.153.13a.15.15 0 0 1-.139-.094.153.153 0 0 1-.008-.035.09.09 0 0 1 0-.017v-.005l.282.105a.284.284 0 0 0 .016-.115.162.162 0 0 0-.038-.088.15.15 0 0 0-.113-.05v.3Zm-.946.98.044-.044a39.548 39.548 0 0 1 .483-.473 93.032 93.032 0 0 1 .507-.49l.005-.004a.03.03 0 0 1 .001-.002v.001l-.004.003-.011.007a.157.157 0 0 1-.017.01c-.004.001-.028.013-.062.013v-.3a.14.14 0 0 0-.061.013.161.161 0 0 0-.018.009l-.012.009a.214.214 0 0 0-.023.02l-.036.033-.12.115a109.802 109.802 0 0 0-.904.885l.228.195Zm.039-.298c-.06.021-.11.038-.143.048l-.024.007.008-.001a.133.133 0 0 1 .031.001.148.148 0 0 1 .109.213l-.268-.135a.152.152 0 0 0 .113.219.16.16 0 0 0 .06-.002.54.54 0 0 0 .059-.015c.04-.012.095-.031.154-.052l-.1-.283Zm.462-.174c-.136.048-.347.13-.467.175l.109.28c.12-.047.327-.126.457-.172l-.099-.283Zm.246-.088-.247.089.102.282.246-.089-.101-.282Zm4.742 3.067.08-.346-.293-.067-.08.347.293.066Zm-.209 1.365c.05-.52.116-.94.21-1.366l-.293-.064a11.27 11.27 0 0 0-.215 1.4l.298.03Zm-.177.72a1.81 1.81 0 0 0 .12-.325c.026-.107.041-.226.057-.396l-.298-.028a2.45 2.45 0 0 1-.05.353c-.02.082-.05.156-.102.272l.273.124Zm-.145.37a1.39 1.39 0 0 1 .051-.147c.028-.07.062-.15.095-.225l-.275-.12a4.532 4.532 0 0 0-.164.423l.293.068Zm-.404-.547c.007.288.013.497.03.598a.291.291 0 0 0 .03.095c.01.016.036.058.092.076a.16.16 0 0 0 .147-.026.197.197 0 0 0 .046-.052.974.974 0 0 0 .055-.132l-.285-.093a.694.694 0 0 1-.023.061l-.002.005s.008-.013.026-.027a.14.14 0 0 1 .204.039c.01.017.009.026.005.004a6.098 6.098 0 0 1-.025-.556l-.3.008Zm.119-1.91a9.897 9.897 0 0 0-.12 1.912l.3-.011a9.594 9.594 0 0 1 .116-1.853l-.296-.048Zm.808-.653a.187.187 0 0 0-.16-.123.264.264 0 0 0-.136.028.744.744 0 0 0-.205.159c-.13.136-.268.35-.307.589l.296.049a.874.874 0 0 1 .228-.431.462.462 0 0 1 .117-.095c.013-.006.003.002-.02 0a.112.112 0 0 1-.057-.023.112.112 0 0 1-.038-.05l.282-.103Zm.082.224-.082-.225-.282.104.082.224.282-.103Zm-4.325.977c.061.243.065.307.045.419l.295.052c.031-.176.015-.29-.05-.545l-.29.074Zm-.182-1.144c.003.263.085.762.182 1.143l.29-.073c-.093-.372-.17-.845-.172-1.073l-.3.003Zm.148-.005c.03-.1.052-.168.069-.207l.01-.022c-.002.001-.011.016-.032.029a.138.138 0 0 1-.129.01.134.134 0 0 1-.067-.06c-.006-.011-.007-.019-.007-.017a2.487 2.487 0 0 1 .008.268l.3.005a3.11 3.11 0 0 0-.004-.255.555.555 0 0 0-.012-.09.23.23 0 0 0-.02-.051.16.16 0 0 0-.23-.064.189.189 0 0 0-.052.05.414.414 0 0 0-.042.082c-.023.055-.05.135-.08.236l.288.086Zm-.24 1.45c0-.31.01-.522.045-.73.034-.208.093-.415.194-.715l-.285-.096a4.82 4.82 0 0 0-.205.762c-.039.231-.05.463-.05.779h.3Zm.036.714a1.838 1.838 0 0 1-.026-.259 8.724 8.724 0 0 1-.01-.455h-.3c0 .173.003.337.01.471.008.13.018.245.035.313l.291-.07Zm-.012.067h-.013l.009.001a.083.083 0 0 1 .04.03c.005.006.004.007-.002-.012a1.075 1.075 0 0 1-.02-.083l-.294.063c.009.041.017.078.027.11.01.03.023.066.047.099a.215.215 0 0 0 .108.078.308.308 0 0 0 .098.013v-.3Zm.094 0h-.095v.3h.095v-.3Zm.15.678v-.528h-.3v.528h.3Zm-.197.679c.035 0 .074-.01.107-.038a.19.19 0 0 0 .056-.075.424.424 0 0 0 .026-.124 6.18 6.18 0 0 0 .008-.442h-.3c0 .223-.001.347-.007.416-.004.038-.007.042-.004.034a.114.114 0 0 1 .034-.043.129.129 0 0 1 .08-.028v.3Zm.178.151a5.324 5.324 0 0 1-.053-.175.58.58 0 0 1-.019-.081c-.002-.02.008.02-.025.06a.121.121 0 0 1-.075.044h-.006v-.3c-.025 0-.1.003-.153.069a.212.212 0 0 0-.04.158c.008.068.04.173.085.316l.286-.09Zm.587 1.512-.002-.008a.143.143 0 0 1 .014-.091.148.148 0 0 1 .18-.07.121.121 0 0 1 .036.019l-.012-.014a6.099 6.099 0 0 1-.298-.418c-.21-.32-.436-.709-.505-.93l-.286.09c.083.266.332.688.54 1.004.105.161.204.302.274.392.031.04.066.082.095.106.006.005.025.021.053.031a.153.153 0 0 0 .207-.145.177.177 0 0 0-.004-.034.26.26 0 0 0-.012-.04l-.28.108Zm-.582-3.038c-.032.426.05 1.008.17 1.564.119.559.279 1.107.411 1.471l.282-.102c-.127-.35-.283-.885-.4-1.432-.118-.55-.193-1.097-.164-1.479l-.3-.022Zm.065-.644c-.017.1-.046.395-.065.644l.299.022c.019-.25.047-.53.061-.616l-.295-.05Zm7.064 1.306c.028-.11.047-.189.05-.272a1.21 1.21 0 0 0-.032-.268l-.295.057c.021.11.028.157.026.202a.962.962 0 0 1-.04.205l.29.076Zm-.02.078.02-.077-.29-.077a6.184 6.184 0 0 0-.021.082l.291.072Zm0 0-.291-.072.29.072Zm0-.002-.292-.068.292.068Zm-.184.532a1.09 1.09 0 0 0 .112-.262c.029-.094.053-.193.072-.268l-.291-.072a4.846 4.846 0 0 1-.068.251.815.815 0 0 1-.075.184l.25.167Zm-.454.104c.005.012.01.026.017.039a.236.236 0 0 0 .033.052.17.17 0 0 0 .113.06.174.174 0 0 0 .116-.033.395.395 0 0 0 .084-.09 4.9 4.9 0 0 0 .09-.131l-.248-.168a4.467 4.467 0 0 1-.105.148c-.005.006-.002.002.007-.004a.127.127 0 0 1 .084-.021.13.13 0 0 1 .087.044c.009.01.012.018.01.013a.468.468 0 0 1-.01-.022l-.278.113Zm-.123-2.103c-.05.344-.059.764-.037 1.147.021.378.074.739.16.955l.279-.11c-.067-.17-.118-.49-.14-.862a5.806 5.806 0 0 1 .035-1.088l-.297-.042Zm.37-1.2a.152.152 0 0 0-.132.077.509.509 0 0 0-.026.066l-.025.1a12.428 12.428 0 0 0-.187.958l.297.04a12.385 12.385 0 0 1 .204-1.015l.003-.012-.001.004a.13.13 0 0 1-.027.038.148.148 0 0 1-.106.045v-.3Zm.196.48a16.791 16.791 0 0 0-.041-.327.467.467 0 0 0-.007-.032.158.158 0 0 0-.027-.059c-.004-.005-.044-.061-.121-.061v.3a.15.15 0 0 1-.138-.091l-.004-.011v-.005.01a18.276 18.276 0 0 1 .04.311l.298-.035Zm.233 1.57a25.638 25.638 0 0 1-.233-1.568l-.298.031c.042.393.166 1.235.236 1.595l.295-.057Zm-9.099-.413-.205-.935-.293.065.205.934.293-.064Zm-.584-.819a.514.514 0 0 0 .02.09c.009.031.02.07.035.113a15.562 15.562 0 0 0 .197.575l.033.09.009.025.002.007v.002l.142-.05.141-.052V9.9l-.003-.006a2.479 2.479 0 0 0-.04-.115 37.367 37.367 0 0 1-.196-.566 3.16 3.16 0 0 1-.032-.104c-.01-.033-.01-.038-.009-.03l-.299.023Zm.133-.196-.082.071.198.226.082-.072-.198-.225Zm1.663 1.624c.083 0 .162-.004.223-.012a.61.61 0 0 0 .087-.018.217.217 0 0 0 .053-.024.16.16 0 0 0 .075-.134h-.3a.144.144 0 0 1 .063-.118.1.1 0 0 1 .019-.01h-.002a1.518 1.518 0 0 1-.218.016v.3Zm-.288 0h.288v-.3h-.288v.3Zm-.785.016.788-.016-.006-.3-.788.016.006.3Zm.406-.57c-.127.07-.248.137-.338.19a2.031 2.031 0 0 0-.158.103.23.23 0 0 0-.026.026.164.164 0 0 0-.035.072l.295.059c-.007.035-.026.057-.028.06a.079.079 0 0 1-.007.007l-.002.002.004-.003a16.566 16.566 0 0 1 .44-.253l-.145-.263Zm0 0 .144.263h.001l-.144-.263Zm.002 0h-.001l.144.263h.001l-.144-.263Zm.154-.085-.154.085.144.262.155-.085-.145-.262Zm.82.15a.2.2 0 0 0-.086-.076.406.406 0 0 0-.071-.025 1.32 1.32 0 0 0-.162-.03 7.185 7.185 0 0 0-.418-.038l-.02.3c.147.01.29.021.399.036a.857.857 0 0 1 .123.022l.018.005-.011-.007a.119.119 0 0 1-.03-.033l.258-.153Zm.129.301a.159.159 0 0 0-.009-.054 1.04 1.04 0 0 0-.037-.089c-.02-.044-.05-.1-.081-.155l-.261.148a2.242 2.242 0 0 1 .092.184l-.001-.007c0-.002-.003-.012-.003-.027h.3Zm-1.006-.178.12.008.02-.3-.12-.008-.02.3Zm-.614-.105c.03.03.067.043.079.047a.45.45 0 0 0 .055.013c.036.007.081.013.13.018.097.01.222.018.35.027l.02-.3a11.09 11.09 0 0 1-.34-.026 1.32 1.32 0 0 1-.122-.018l.002.001.006.003a.123.123 0 0 1 .032.023l-.213.212Zm.99-.5-.924.25.079.289.924-.25-.078-.29Zm.353-.096-.352.096.078.29.352-.096-.078-.29Zm-.527.69c.156-.086.316-.176.439-.253.06-.038.116-.075.158-.108a.534.534 0 0 0 .06-.053.213.213 0 0 0 .056-.1l-.294-.061c.008-.036.027-.053.02-.044a1.624 1.624 0 0 1-.158.112c-.116.072-.27.158-.426.245l.145.262Zm-1 .918.205.431.27-.129-.205-.431-.27.129Zm-.078-.674c.05.154.063.262.063.61h.3c0-.355-.013-.501-.077-.702l-.286.092Zm.042-.165a.148.148 0 0 1-.104-.044.122.122 0 0 1-.017-.02c-.002-.004-.002-.005 0 0l.021.054c.018.048.039.113.057.173l.287-.089a4.325 4.325 0 0 0-.092-.261.306.306 0 0 0-.019-.036.179.179 0 0 0-.023-.03.15.15 0 0 0-.11-.047v.3Zm.045.372.07-.356a4.426 4.426 0 0 1 .026-.116l-.003.008-.011.022a.148.148 0 0 1-.127.07v-.3a.15.15 0 0 0-.128.071l-.013.026a4.81 4.81 0 0 0-.038.16l-.07.357.294.058Zm0 0-.295-.057.295.056Zm-.142.715c.053-.261.102-.511.142-.715l-.294-.058-.142.714.294.06Zm-.238 1.16.238-1.16-.294-.06-.238 1.16.294.06Zm.014-.119-.095-.046-.132.27.095.046.132-.27Zm.443.314a5.742 5.742 0 0 0-.26-.196 1.555 1.555 0 0 0-.185-.119l-.128.272.004.002a.36.36 0 0 1 .042.025l.094.065c.073.051.16.117.245.185l.188-.234Zm.28.22c.031 0 .052.012.043.009a4.35 4.35 0 0 1-.325-.23l-.185.236c.091.071.18.137.251.185a1.513 1.513 0 0 0 .138.083c.007.003.039.018.078.018v-.3Zm-.098-.356c.032.178.041.295.035.362-.003.034-.009.038-.003.03a.083.083 0 0 1 .066-.035v.3a.218.218 0 0 0 .184-.1.363.363 0 0 0 .052-.168 1.82 1.82 0 0 0-.038-.441l-.295.052Zm-.071-.726c.003.211.035.537.072.728l.295-.056a4.82 4.82 0 0 1-.067-.676l-.3.004Zm-.007-.372.007.372.3-.005-.007-.372-.3.005Zm6.432 1.724a5.576 5.576 0 0 1-.4-1.397l-.297.044c.074.504.211.977.422 1.47l.275-.117Zm.15.58a.146.146 0 0 0 .03-.082.16.16 0 0 0-.006-.056 2.432 2.432 0 0 0-.049-.14 9.258 9.258 0 0 0-.125-.303l-.275.119a9.3 9.3 0 0 1 .153.381l.004.012.001.003v.001-.002l-.001-.009a.135.135 0 0 1-.001-.025c0-.006.002-.042.029-.079l.24.18Zm-.592.115a.159.159 0 0 0 .073.03.518.518 0 0 0 .1 0 1.479 1.479 0 0 0 .337-.083.207.207 0 0 0 .078-.056l-.231-.192c.013-.015.025-.022.026-.024l.002-.001a1.167 1.167 0 0 1-.271.06h.009a.14.14 0 0 1 .056.025l-.18.241Zm-.397-1.07a10.086 10.086 0 0 0 .292.898 1.228 1.228 0 0 0 .058.12.205.205 0 0 0 .039.045l.195-.227a.116.116 0 0 1 .016.016l.002.004h.001l-.001-.002a10.74 10.74 0 0 1-.313-.934l-.29.08Zm-.24-1.373a.5.5 0 0 0-.005.105 5.651 5.651 0 0 0 .063.463c.046.253.112.552.182.805l.289-.08a9.47 9.47 0 0 1-.175-.778 5.459 5.459 0 0 1-.05-.318 1.56 1.56 0 0 1-.009-.106v-.04l-.296-.05Zm.158-.495c-.037.1-.073.205-.101.292a1.715 1.715 0 0 0-.058.205l.296.048c.003-.016.018-.072.047-.16a8.29 8.29 0 0 1 .098-.282l-.282-.103Zm.13-.359-.13.36.282.101.13-.36-.282-.1Zm.316.456-.026-.414-.3.018.026.415.3-.019Zm.074.746a8.489 8.489 0 0 1-.074-.745l-.3.017c.013.23.045.58.078.777l.296-.049Zm2.138.009a.924.924 0 0 1 .091.072c.002.002 0 0-.002-.006s-.001-.009-.002-.004l.3.026a.275.275 0 0 0-.059-.2.696.696 0 0 0-.158-.136l-.17.248Zm-.52.127.095.116.001-.001.003-.002.013-.01a2.04 2.04 0 0 1 .205-.14.773.773 0 0 1 .165-.077c.054-.015.056-.001.04-.012l.166-.25c-.098-.065-.213-.048-.288-.026a1.058 1.058 0 0 0-.235.106 2.178 2.178 0 0 0-.238.162l-.015.012-.005.004h-.001v.001l.094.116Zm.45.614a.12.12 0 0 1 .061.016l.006.004a.332.332 0 0 1-.034-.04 3.271 3.271 0 0 1-.342-.645l-.282.102a3.547 3.547 0 0 0 .384.723.628.628 0 0 0 .068.078.267.267 0 0 0 .046.035.18.18 0 0 0 .093.027v-.3Zm.165-.232a4.687 4.687 0 0 1-.232.247l-.007.006.013-.007a.129.129 0 0 1 .06-.014v.3c.037 0 .064-.013.071-.016a.398.398 0 0 0 .06-.043.885.885 0 0 0 .072-.069 5.17 5.17 0 0 0 .19-.207l-.227-.197Zm.218-.18c.035.005.02.01 0-.01-.035-.036-.025-.076-.026-.072a.351.351 0 0 1-.048.082c-.032.047-.08.106-.144.18l.227.197a2.88 2.88 0 0 0 .163-.204.607.607 0 0 0 .09-.172.22.22 0 0 0-.047-.221.293.293 0 0 0-.177-.077l-.038.298Zm-.226-.266a.244.244 0 0 0 .052.19c.03.033.065.05.093.059a.447.447 0 0 0 .078.017l.044-.297a.415.415 0 0 1-.02-.003l-.006-.001s.017.005.033.023c.018.02.023.04.024.048.001.005 0 .004.001-.012l-.299-.024Zm-.226 1.12.082-.076-.204-.22-.082.076.204.22Zm-1.066.555a.152.152 0 0 0 .145.044.432.432 0 0 0 .072-.03 10.093 10.093 0 0 0 .655-.423 2.33 2.33 0 0 0 .193-.145l-.203-.221c-.018.017-.076.06-.162.12a12.84 12.84 0 0 1-.544.358 1.909 1.909 0 0 1-.081.047l-.013.007s.003 0 .005-.002a.143.143 0 0 1 .05-.007.153.153 0 0 1 .102.047l-.22.205Zm.133-.98a61.33 61.33 0 0 0-.161.78 1.756 1.756 0 0 0-.013.08.184.184 0 0 0 .002.044.148.148 0 0 0 .028.064l.24-.18a.13.13 0 0 1 .027.062l.003.02v.013-.004l.008-.046.035-.18.125-.59-.294-.063Zm.168-.334-.154.297.266.138.154-.296-.266-.139Zm.395.068a.632.632 0 0 1-.104-.04.078.078 0 0 1-.017-.012l-.001-.001-.28.11a.327.327 0 0 0 .152.165c.054.03.114.05.157.063l.093-.285Zm.287.17a.399.399 0 0 0-.148-.117c-.048-.024-.1-.04-.139-.053l-.093.285a.82.82 0 0 1 .1.037.105.105 0 0 1 .04.028l.24-.18Zm.183.245-.183-.245-.24.18.183.245.24-.18Zm-1.526.084a34.637 34.637 0 0 1-.179.696.18.18 0 0 1-.002.008c-.002.005.001-.005.009-.018l.257.154a.19.19 0 0 0 .022-.053l.016-.053a34.186 34.186 0 0 0 .17-.663l-.293-.07Zm.055.306a.605.605 0 0 1 .126-.31c.01-.01.006-.002-.014.004a.126.126 0 0 1-.136-.044c-.023-.031-.018-.055-.018-.035a.427.427 0 0 1-.013.08l.292.069a.706.706 0 0 0 .02-.144.24.24 0 0 0-.04-.149.174.174 0 0 0-.201-.06.274.274 0 0 0-.105.07.892.892 0 0 0-.21.486l.299.033Zm-.219.367a.142.142 0 0 1 .194-.026.125.125 0 0 1 .035.039l.005.009a.475.475 0 0 1-.014-.08 1.668 1.668 0 0 1-.001-.31l-.299-.03c-.012.123-.01.265.002.372.006.05.014.105.028.146.004.011.01.025.018.04a.177.177 0 0 0 .049.056.158.158 0 0 0 .223-.036l-.24-.18Zm-3.368.007a.173.173 0 0 0 .021-.038.38.38 0 0 0 .022-.065l.038-.133c.03-.108.066-.251.103-.402l-.292-.071a15.778 15.778 0 0 1-.136.519.965.965 0 0 1-.01.032l-.001.003.002-.005a.136.136 0 0 1 .013-.02l.24.18Zm-.352-.012c.043.029.09.053.134.067.02.007.05.014.083.013.029 0 .101-.01.143-.081l-.257-.154a.13.13 0 0 1 .106-.065c.014 0 .02.003.015 0a.254.254 0 0 1-.058-.03l-.166.25Zm-.23-.397a.79.79 0 0 0 .073.238.46.46 0 0 0 .155.158l.17-.247c-.046-.032-.055-.045-.062-.057a.537.537 0 0 1-.04-.148l-.295.056Zm.052-.494a.792.792 0 0 0-.076.239c-.008.078.007.157.025.254l.295-.054a.694.694 0 0 1-.022-.171.54.54 0 0 1 .053-.148l-.275-.12Zm.509-.522c-.223.072-.397.27-.509.521l.275.122c.091-.206.214-.321.327-.358l-.093-.285Zm.356.185a.366.366 0 0 0 .007-.034.19.19 0 0 0 0-.064.162.162 0 0 0-.067-.106.171.171 0 0 0-.094-.03.34.34 0 0 0-.096.016c-.028.007-.063.019-.106.032l.092.286a2.463 2.463 0 0 1 .114-.034h-.011a.138.138 0 0 1-.127-.112.109.109 0 0 1 0-.037l-.002.006.29.077Zm-.093.369a113.617 113.617 0 0 1 .082-.33l.007-.024.002-.008-.286-.091c-.009.027-.048.187-.096.38l.29.073Zm0 0-.291-.073.29.073Zm0 0-.291-.073.29.073Zm0-.001-.292-.07.292.07Zm-.058.234.058-.233-.292-.072-.058.233.292.072Zm.517-.184c.04.232.122.52.232.81l.28-.106a4.315 4.315 0 0 1-.217-.755l-.295.051Zm-.028-.257a.067.067 0 0 1-.028-.02c-.005-.006-.002-.006.004.013.014.04.029.115.051.261l.297-.045a2.103 2.103 0 0 0-.063-.31.339.339 0 0 0-.055-.107.232.232 0 0 0-.102-.073l-.104.281Zm-.023.235a4.594 4.594 0 0 1 .066-.262c.005-.013.008-.017.008-.016-.001 0-.007.01-.021.02a.095.095 0 0 1-.046.014c-.015.001-.02-.004.016.01l.104-.282c-.028-.01-.081-.03-.137-.027a.206.206 0 0 0-.1.033.231.231 0 0 0-.069.07.567.567 0 0 0-.06.152 4.732 4.732 0 0 0-.054.222l.293.066Zm-.103.441.103-.44-.293-.067-.102.439.292.068Zm0 0-.292-.068.292.069Zm0 .003v-.002l-.292-.069v.003l.291.068Zm-.059.25.058-.25-.292-.068-.058.25.292.069Zm-.076.326.076-.325-.292-.068-.076.325.292.068Zm.217-.09-.323-.088-.08.289.323.089.08-.29Zm.465.11a5.748 5.748 0 0 1-.466-.11l-.078.29c.17.046.4.104.503.118l.04-.297Zm.167.027-.165-.026-.046.297.165.025.046-.296Zm-.328-.235.164.436.281-.106-.165-.436-.28.106Zm.902-.767-.33-.212-.162.253.33.211.162-.252Zm-.102.429.146-.22-.25-.166-.146.22.25.166Zm-.18.37a1.61 1.61 0 0 1 .18-.37l-.25-.167a1.85 1.85 0 0 0-.22.46l.29.078Zm-.097.276c.018-.024.029-.054.033-.064l.02-.06c.014-.043.03-.097.044-.152l-.29-.078a3.382 3.382 0 0 1-.054.183l-.003.005v.002l.001-.003.009-.013.24.18Zm-.682-1.363c0 .085.027.219.061.355a7.1 7.1 0 0 0 .131.456c.048.15.1.293.144.394a.854.854 0 0 0 .068.132.2.2 0 0 0 .066.066c.02.012.06.03.11.022a.16.16 0 0 0 .106-.069l-.248-.167a.14.14 0 0 1 .188-.042c.024.014.032.031.026.022a.626.626 0 0 1-.04-.083 6.734 6.734 0 0 1-.259-.803 1.548 1.548 0 0 1-.053-.283h-.3Zm.73.076a3.284 3.284 0 0 0-.416-.237.448.448 0 0 0-.075-.025.227.227 0 0 0-.098 0 .178.178 0 0 0-.114.082.2.2 0 0 0-.027.104h.3c0 .002 0 .024-.015.05a.123.123 0 0 1-.076.056c-.022.005-.035.001-.032.002l.023.008c.063.026.177.091.37.213l.16-.253Zm1.336 1.207c-.018 0-.078.006-.144.012l-.268.027.032.299.265-.027c.078-.008.116-.01.114-.01v-.3Zm-.845-.495c.169.138.368.323.517.473.075.076.134.14.17.184a.384.384 0 0 1 .025.034l-.005-.012a.142.142 0 0 1 .028-.133.143.143 0 0 1 .09-.05l.04.298a.156.156 0 0 0 .135-.156.186.186 0 0 0-.022-.085.532.532 0 0 0-.058-.085 3.057 3.057 0 0 0-.19-.206 7.312 7.312 0 0 0-.541-.494l-.19.232Zm-.134-.14a.145.145 0 0 1-.067-.016l.006.004.044.033c.04.03.092.071.15.118l.191-.23a4.802 4.802 0 0 0-.216-.169.46.46 0 0 0-.043-.025s-.028-.014-.065-.014v.3Zm-.015.122a3.921 3.921 0 0 1 .116-.16l.001-.002a.137.137 0 0 1-.056.034.149.149 0 0 1-.046.007v-.3a.151.151 0 0 0-.111.048 4.247 4.247 0 0 0-.151.203l.247.17Zm-.244.579c.024-.176.112-.391.243-.578l-.246-.172a1.705 1.705 0 0 0-.294.708l.297.041Zm-.02.131.02-.13-.297-.044-.02.131.297.043Zm.187-.145-.323-.026-.024.3.323.025.024-.3Zm.662-.013a5.268 5.268 0 0 1-.663.013l-.022.299c.188.013.506.004.71-.013l-.025-.299Z"/>
    <path fill="#0091C8" d="M22.582 17.428v5.152H7.006v-5.468c.015.087.253.194.422.282.307.152.33.152.63-.131.406-.382.66-.371 1.12.043.69.622.875.633 1.082.088.153-.426.499-.426 1.09.01.253.186.514.328.59.328.07 0 .238-.175.369-.382.291-.48.46-.447 1.212.174.606.513.813.546.875.12.084-.534.153-.621.506-.621.215.01.538.142.868.36.283.196.575.349.629.349.061 0 .13-.153.16-.338.024-.186.124-.404.208-.491.207-.186.422-.11 1.097.382.676.48.867.436.867-.208 0-.196.146-.327.369-.327.069 0 .353.196.637.447.614.524.782.524.836-.01.054-.546.307-.557.967-.066.491.382 1.042.536 1.042.307Z"/>
    <path stroke="#EDEDED" stroke-linecap="round" stroke-linejoin="round" stroke-width=".5" d="M7.063 17.298c.016.088.176.218.345.306.306.152.329.152.627-.131.406-.382.658-.371 1.118.043.689.622.872.633 1.079.088.153-.426.497-.426 1.087.01.252.186.512.328.589.328.069 0 .237-.175.367-.382.291-.48.46-.447 1.21.175.604.512.81.545.872.12.084-.535.153-.622.505-.622.215.01.536.142.865.36.283.196.574.349.628.349.061 0 .13-.153.16-.338.023-.186.123-.404.207-.491.207-.186.421-.11 1.095.382.673.48.864.436.864-.208 0-.196.146-.327.368-.327.069 0 .352.196.635.447.612.524.78.524.834-.01.054-.546.307-.557.965-.066.49.382.949.513.949.284"/>
    <path fill="#C00" d="M0 0h6v8H0z"/>
    <path fill="#08672F" d="M6 1.04V0h-.734L0 6.96V8h.734L6 1.04Z"/>
    <path fill="#08672F" d="M0 1.04V0h.734L6 6.96V8h-.748L0 1.04Z"/>
    <path fill="#EDEDED" d="M0 3.208 6 3.2v1.59L0 4.8V3.209Z"/>
    <path fill="#EDEDED" d="M2.4.001 3.594 0 3.6 7.999 2.406 8 2.4.001Z"/>
  </g>
  <defs>
    <clipPath id="saint-pierre-and-miquelon__a">
      <path fill="#fff" d="M0 12C0 5.373 5.373 0 12 0s12 5.373 12 12-5.373 12-12 12S0 18.627 0 12Z"/>
    </clipPath>
  </defs>
</svg>
