<svg xmlns="http://www.w3.org/2000/svg" fill="none" viewBox="0 0 24 24">
  <g clip-path="url(#pitcairn-islands__a)">
    <path fill="#0052B4" d="M24 12c0 6.627-5.373 12-12 12S0 18.627 0 12C0 12.003 12 .001 12 0c6.627 0 12 5.373 12 12Z"/>
    <path fill="#EDEDED" d="M11.968 12H12v-.032l-.032.032Z"/>
    <path fill="#EDEDED" d="M12 6.26V0h-.002C5.371.001 0 5.373 0 12h6.26V8.474L9.787 12h2.182l.032-.032V9.786L8.474 6.261H12Z"/>
    <path fill="#D80027" d="M6.071 1.565a12.057 12.057 0 0 0-4.506 4.506V12h3.13V4.696H12v-3.13H6.071Z"/>
    <path fill="#D80027" d="M12 10.524 7.736 6.261H6.261L12 12v-1.476Z"/>
    <path fill="#ACABB1" d="m18.783 7.304-1.566.522-1.565-.522L15.13 6l.522-1.304h3.13L18.262 6l.522 1.304Z"/>
    <path fill="#338AF3" d="M13.565 7.304v5.74c0 2.795 3.652 3.652 3.652 3.652s3.652-.857 3.652-3.653V7.304h-7.304Z"/>
    <path fill="#6DA544" d="M13.895 14.403c.897 1.724 3.322 2.293 3.322 2.293s2.426-.57 3.323-2.293L17.217 8.87l-3.322 5.533Z"/>
    <path fill="#FFDA44" d="m20.87 12.986-3.653-5.682-3.652 5.681v.058c0 .518.126.969.33 1.36l3.322-5.169 3.323 5.17c.204-.392.33-.843.33-1.36v-.059Z"/>
  </g>
  <defs>
    <clipPath id="pitcairn-islands__a">
      <path fill="#fff" d="M0 12C0 5.373 5.373 0 12 0s12 5.373 12 12-5.373 12-12 12S0 18.627 0 12Z"/>
    </clipPath>
  </defs>
</svg>
