<svg xmlns="http://www.w3.org/2000/svg" fill="none" viewBox="0 0 24 24">
  <g clip-path="url(#portugal__a)">
    <path fill="#6DA544" d="M0 12c0 5.16 3.256 9.558 7.826 11.254L8.87 12 7.826.746C3.256 2.442 0 6.84 0 12Z"/>
    <path fill="#D80027" d="M24 12c0-6.627-5.373-12-12-12-1.468 0-2.874.264-4.174.746v22.508c1.3.482 2.706.746 4.174.746 6.627 0 12-5.373 12-12Z"/>
    <path fill="#FFDA44" d="M7.826 16.174a4.174 4.174 0 1 0 0-8.348 4.174 4.174 0 0 0 0 8.348Z"/>
    <path fill="#D80027" d="M5.478 9.913v2.609a2.348 2.348 0 1 0 4.696 0V9.913H5.478Z"/>
    <path fill="#EDEDED" d="M7.826 13.304a.784.784 0 0 1-.783-.782v-1.044H8.61v1.044a.783.783 0 0 1-.783.782Z"/>
  </g>
  <defs>
    <clipPath id="portugal__a">
      <path fill="#fff" d="M0 12C0 5.373 5.373 0 12 0s12 5.373 12 12-5.373 12-12 12S0 18.627 0 12Z"/>
    </clipPath>
  </defs>
</svg>
