<svg xmlns="http://www.w3.org/2000/svg" fill="none" viewBox="0 0 24 24">
  <g clip-path="url(#romania__a)">
    <path fill="#FFDA44" d="M16.174.746A11.975 11.975 0 0 0 12 0c-1.468 0-2.874.264-4.174.746L6.783 12l1.043 11.254c1.3.482 2.706.746 4.174.746 1.468 0 2.874-.264 4.174-.746L17.217 12 16.174.746Z"/>
    <path fill="#D80027" d="M24 12c0-5.16-3.256-9.558-7.826-11.254v22.508C20.744 21.558 24 17.16 24 12Z"/>
    <path fill="#0052B4" d="M0 12c0 5.16 3.256 9.558 7.826 11.254V.746C3.256 2.442 0 6.84 0 12Z"/>
  </g>
  <defs>
    <clipPath id="romania__a">
      <path fill="#fff" d="M0 12C0 5.373 5.373 0 12 0s12 5.373 12 12-5.373 12-12 12S0 18.627 0 12Z"/>
    </clipPath>
  </defs>
</svg>
