<svg xmlns="http://www.w3.org/2000/svg" fill="none" viewBox="0 0 24 24">
  <g clip-path="url(#russia__a)">
    <path fill="#EDEDED" d="M12 24c6.627 0 12-5.373 12-12S18.627 0 12 0 0 5.373 0 12s5.373 12 12 12Z"/>
    <path fill="#0052B4" d="M23.254 16.174c.482-1.3.746-2.706.746-4.174 0-1.468-.264-2.874-.746-4.174H.746A11.974 11.974 0 0 0 0 12c0 1.468.264 2.874.746 4.174L12 17.217l11.254-1.043Z"/>
    <path fill="#D80027" d="M12 24c5.16 0 9.558-3.256 11.254-7.826H.746C2.442 20.744 6.84 24 12 24Z"/>
  </g>
  <defs>
    <clipPath id="russia__a">
      <path fill="#fff" d="M0 12C0 5.373 5.373 0 12 0s12 5.373 12 12-5.373 12-12 12S0 18.627 0 12Z"/>
    </clipPath>
  </defs>
</svg>
