<svg xmlns="http://www.w3.org/2000/svg" fill="none" viewBox="0 0 24 24">
  <g clip-path="url(#rwanda__a)">
    <path fill="#FFDA44" d="M0 12c0 2.079.529 4.034 1.46 5.74L12 18.782l10.54-1.044A11.917 11.917 0 0 0 24 12l-12-1.043L0 12Z"/>
    <path fill="#338AF3" d="M22.54 6.26A11.997 11.997 0 0 0 12 0 11.997 11.997 0 0 0 0 12h24c0-2.079-.529-4.034-1.46-5.74Z"/>
    <path fill="#496E2D" d="M12 24c4.549 0 8.506-2.53 10.54-6.26H1.46A11.997 11.997 0 0 0 12 24Z"/>
    <path fill="#FFDA44" d="m13.565 7.023 1.466.69-.78 1.419 1.59-.305.202 1.608 1.109-1.183 1.108 1.183.202-1.608 1.591.305-.78-1.42 1.465-.69-1.465-.688.78-1.42-1.591.305-.202-1.608-1.108 1.182-1.109-1.182-.201 1.608-1.592-.305.78 1.42-1.465.689Z"/>
  </g>
  <defs>
    <clipPath id="rwanda__a">
      <path fill="#fff" d="M0 12C0 5.373 5.373 0 12 0s12 5.373 12 12-5.373 12-12 12S0 18.627 0 12Z"/>
    </clipPath>
  </defs>
</svg>
