<svg xmlns="http://www.w3.org/2000/svg" fill="none" viewBox="0 0 24 24">
  <g clip-path="url(#saudi-arabia__a)">
    <path fill="#6DA544" d="M12 24c6.627 0 12-5.373 12-12S18.627 0 12 0 0 5.373 0 12s5.373 12 12 12Z"/>
    <path fill="#EDEDED" d="M6.783 14.348c0 .864.7 1.565 1.565 1.565h4.695c0 .72.585 1.304 1.305 1.304h1.565c.72 0 1.304-.584 1.304-1.304v-1.565H6.783Zm10.565-7.565v3.652c0 .575-.468 1.043-1.044 1.043v1.566a2.612 2.612 0 0 0 2.609-2.61v-3.65h-1.565ZM6.13 10.435c0 .575-.468 1.043-1.043 1.043v1.566a2.612 2.612 0 0 0 2.609-2.61v-3.65H6.13v3.652Z"/>
    <path fill="#EDEDED" d="M15 6.783h1.565v3.652H15V6.783ZM12.652 8.87a.261.261 0 0 1-.522 0V6.783h-1.565V8.87a.261.261 0 0 1-.521 0V6.783H8.477V8.87a1.83 1.83 0 0 0 1.826 1.826 1.81 1.81 0 0 0 1.044-.33 1.816 1.816 0 0 0 1.274.315 1.044 1.044 0 0 1-1.013.797v1.565a2.612 2.612 0 0 0 2.608-2.608V6.783h-1.565V8.87Z"/>
    <path fill="#EDEDED" d="M8.478 11.478h2.348v1.566H8.478v-1.566Z"/>
  </g>
  <defs>
    <clipPath id="saudi-arabia__a">
      <path fill="#fff" d="M0 12C0 5.373 5.373 0 12 0s12 5.373 12 12-5.373 12-12 12S0 18.627 0 12Z"/>
    </clipPath>
  </defs>
</svg>
