<svg xmlns="http://www.w3.org/2000/svg" fill="none" viewBox="0 0 24 24">
  <g clip-path="url(#seychelles__a)">
    <path fill="#EDEDED" d="M12 24c6.627 0 12-5.373 12-12S18.627 0 12 0 0 5.373 0 12s5.373 12 12 12Z"/>
    <path fill="#FFDA44" d="M20.1 3.147A11.956 11.956 0 0 0 12 0c-.511 0-1.015.032-1.51.094L4.697 6.783.38 15.006a11.925 11.925 0 0 0 1.255 3.043L12 12l8.1-8.853Z"/>
    <path fill="#6DA544" d="m21.99 18.649-16.789 3.24A11.944 11.944 0 0 0 12 24c4.168 0 7.84-2.125 9.99-5.351Z"/>
    <path fill="#D80027" d="M20.102 3.149 1.642 18.06a12.045 12.045 0 0 0 1.72 2.267L24 12c0-3.504-1.502-6.658-3.898-8.851Z"/>
    <path fill="#0052B4" d="M0 12c0 1.038.132 2.045.38 3.006L10.49.094C4.577.836 0 5.884 0 12Z"/>
  </g>
  <defs>
    <clipPath id="seychelles__a">
      <path fill="#fff" d="M0 12C0 5.373 5.373 0 12 0s12 5.373 12 12-5.373 12-12 12S0 18.627 0 12Z"/>
    </clipPath>
  </defs>
</svg>
