<svg xmlns="http://www.w3.org/2000/svg" fill="none" viewBox="0 0 24 24">
  <g clip-path="url(#somalia__a)">
    <path fill="#338AF3" d="M12 24c6.627 0 12-5.373 12-12S18.627 0 12 0 0 5.373 0 12s5.373 12 12 12Z"/>
    <path fill="#EDEDED" d="m12 6.26 1.295 3.987h4.19l-3.39 2.463 1.295 3.986L12 14.232l-3.39 2.464 1.295-3.986-3.39-2.463h4.19L12 6.26Z"/>
  </g>
  <defs>
    <clipPath id="somalia__a">
      <path fill="#fff" d="M0 12C0 5.373 5.373 0 12 0s12 5.373 12 12-5.373 12-12 12S0 18.627 0 12Z"/>
    </clipPath>
  </defs>
</svg>
