<svg xmlns="http://www.w3.org/2000/svg" fill="none" viewBox="0 0 24 24">
  <g clip-path="url(#south-sudan__a)">
    <path fill="#EDEDED" d="M12 24c6.627 0 12-5.373 12-12S18.627 0 12 0 0 5.373 0 12s5.373 12 12 12Z"/>
    <path fill="#000" d="M23.064 7.348C21.247 3.03 16.978 0 12 0a11.96 11.96 0 0 0-8.485 3.515L6.52 7.348h16.544Z"/>
    <path fill="#496E2D" d="m6.554 16.609-3.039 3.876A11.96 11.96 0 0 0 12 24c4.994 0 9.276-3.051 11.082-7.391H6.554Z"/>
    <path fill="#A2001D" d="M2.609 8.826v6.304h20.978A12.01 12.01 0 0 0 24 12c0-1.099-.148-2.163-.425-3.174H2.61Z"/>
    <path fill="#0052B4" d="M3.515 3.515c-4.687 4.686-4.687 12.284 0 16.97L12 12 3.515 3.515Z"/>
    <path fill="#FFDA44" d="m3.909 9.016 1.464 2.044 2.397-.76-1.491 2.024 1.464 2.044-2.386-.792L3.866 15.6l.016-2.515-2.386-.793 2.396-.761.017-2.515Z"/>
  </g>
  <defs>
    <clipPath id="south-sudan__a">
      <path fill="#fff" d="M0 12C0 5.373 5.373 0 12 0s12 5.373 12 12-5.373 12-12 12S0 18.627 0 12Z"/>
    </clipPath>
  </defs>
</svg>
