<svg xmlns="http://www.w3.org/2000/svg" fill="none" viewBox="0 0 24 24">
  <g clip-path="url(#sint-maarten__a)">
    <path fill="#D80027" d="M10.957 13.043s-7.435-9.53-7.442-9.528A11.962 11.962 0 0 1 12 0c6.627 0 12 5.373 12 12l-13.043 1.043Z"/>
    <path fill="#0052B4" d="M10.957 12s-7.435 8.487-7.442 8.485A11.963 11.963 0 0 0 12 24c6.627 0 12-5.373 12-12H10.957Z"/>
    <path fill="#EDEDED" d="M3.515 3.515c-4.687 4.686-4.687 12.284 0 16.97L12 12 3.515 3.515Z"/>
    <path fill="#FFDA44" d="M1.315 12a3.391 3.391 0 1 0 6.76 0h-6.76Zm3.381-1.565a1.043 1.043 0 1 0 0-2.087 1.043 1.043 0 0 0 0 2.087Z"/>
    <path fill="#D80027" d="M2.348 9.13v3.392c0 1.797 2.348 2.348 2.348 2.348s2.348-.551 2.348-2.348V9.13H2.348Z"/>
    <path fill="#338AF3" d="M4.697 13.777c-.436-.156-1.306-.557-1.306-1.255v-2.348H6v2.348c0 .7-.87 1.1-1.303 1.255Z"/>
    <path fill="#F3F3F3" d="M5.217 11.478v-.521l-.521-.261-.522.26v.522l-.261.261v1.044h1.565v-1.044l-.26-.26Z"/>
  </g>
  <defs>
    <clipPath id="sint-maarten__a">
      <path fill="#fff" d="M0 12C0 5.373 5.373 0 12 0s12 5.373 12 12-5.373 12-12 12S0 18.627 0 12Z"/>
    </clipPath>
  </defs>
</svg>
