<svg xmlns="http://www.w3.org/2000/svg" fill="none" viewBox="0 0 24 24">
  <g clip-path="url(#tajikistan__a)">
    <path fill="#EDEDED" d="M1.19 6.783A11.953 11.953 0 0 0 0 12c0 1.87.428 3.64 1.19 5.217L12 18.261l10.81-1.044A11.954 11.954 0 0 0 24 12c0-1.87-.428-3.64-1.19-5.217L12 5.739 1.19 6.783Z"/>
    <path fill="#6DA544" d="M1.191 17.217A12 12 0 0 0 12 24a12 12 0 0 0 10.809-6.783H1.19Z"/>
    <path fill="#D80027" d="M1.191 6.783H22.81A12 12 0 0 0 12 0 12 12 0 0 0 1.191 6.783Z"/>
    <path fill="#FFDA44" d="M9.913 15.13h4.174v-1.774l-.835.418L12 12.522l-1.252 1.252-.835-.417v1.774Zm-2.388-2.087.194.598h.629l-.509.37.195.598-.51-.37-.508.37.195-.598-.509-.37h.629l.194-.598Zm.602-2.086.195.597h.628l-.508.37.194.598-.509-.37-.508.37.194-.598-.509-.37h.629l.194-.598Zm1.722-1.566.194.598h.629l-.509.37.195.598-.509-.37-.508.37.194-.598-.509-.37h.629l.194-.598Zm6.626 3.652-.194.598h-.629l.509.37-.195.598.51-.37.508.37-.195-.598.509-.37h-.629l-.194-.598Zm-.602-2.086-.194.597h-.63l.51.37-.195.598.509-.37.508.37-.194-.598.509-.37h-.629l-.194-.598Zm-1.722-1.566-.194.598h-.629l.509.37-.195.598.509-.37.508.37-.194-.598.509-.37h-.629l-.194-.598ZM12 8.609l.194.597h.629l-.509.37.195.598-.509-.37-.509.37.195-.598-.509-.37h.629L12 8.61Z"/>
  </g>
  <defs>
    <clipPath id="tajikistan__a">
      <path fill="#fff" d="M0 12C0 5.373 5.373 0 12 0s12 5.373 12 12-5.373 12-12 12S0 18.627 0 12Z"/>
    </clipPath>
  </defs>
</svg>
