<svg xmlns="http://www.w3.org/2000/svg" fill="none" viewBox="0 0 24 24">
  <g clip-path="url(#tokelau__a)">
    <path fill="#FFDA44" d="M12 24c6.627 0 12-5.373 12-12S18.627 0 12 0 0 5.373 0 12s5.373 12 12 12Z"/>
    <path fill="#0052B4" d="M19.304 5.74a8.008 8.008 0 0 0-.156 1.617 7.855 7.855 0 0 0 4.591 7.138c.17-.805.261-1.64.261-2.495 0-6.627-5.373-12-12-12S0 5.373 0 12s5.373 12 12 12c4.11 0 7.737-2.067 9.9-5.217H6.783v-1.566h16.026c.164-.339.313-.687.445-1.043H6.783L19.304 5.739Z"/>
    <path fill="#EDEDED" d="m8.816 6.26.259.798h.838l-.678.493.259.797-.678-.493-.678.493.259-.797-.678-.493h.838l.259-.797ZM5.411 12l.324.996h1.048l-.848.616.324.997-.848-.616-.847.616.323-.997-.847-.616h1.047L5.411 12Zm0-8.348.324.997h1.048l-.848.615.324.997-.848-.616-.847.616.323-.997-.847-.615h1.047l.324-.997ZM2.802 8.348l.324.996h1.048l-.848.616.324.996-.848-.615-.847.616.324-.997-.848-.616h1.048l.323-.996Z"/>
  </g>
  <defs>
    <clipPath id="tokelau__a">
      <path fill="#fff" d="M0 12C0 5.373 5.373 0 12 0s12 5.373 12 12-5.373 12-12 12S0 18.627 0 12Z"/>
    </clipPath>
  </defs>
</svg>
