<svg xmlns="http://www.w3.org/2000/svg" fill="none" viewBox="0 0 24 24">
  <g clip-path="url(#east-timor__a)">
    <path fill="#FFDA44" d="M12 24c6.627 0 12-5.373 12-12S18.627 0 12 0 0 5.373 0 12s5.373 12 12 12Z"/>
    <path fill="#D80027" d="M12 0a11.95 11.95 0 0 0-7.715 2.81L17.217 12 4.285 21.19A11.95 11.95 0 0 0 12 24c6.627 0 12-5.373 12-12S18.627 0 12 0Z"/>
    <path fill="#000" d="M3.515 3.515c-4.687 4.686-4.687 12.284 0 16.97L12 12 3.515 3.515Z"/>
    <path fill="#EDEDED" d="m3.327 9.251 1.826 1.728 2.209-1.203-1.08 2.271 1.827 1.729-2.494-.325-1.08 2.271-.46-2.472-2.494-.325 2.208-1.202-.462-2.472Z"/>
  </g>
  <defs>
    <clipPath id="east-timor__a">
      <path fill="#fff" d="M0 12C0 5.373 5.373 0 12 0s12 5.373 12 12-5.373 12-12 12S0 18.627 0 12Z"/>
    </clipPath>
  </defs>
</svg>
