<svg xmlns="http://www.w3.org/2000/svg" fill="none" viewBox="0 0 24 24">
  <g clip-path="url(#turkmenistan__a)">
    <path fill="#496E2D" d="M12 0c-.896 0-1.769.099-2.609.285L8.87 12l.521 11.715c.84.186 1.713.285 2.609.285 6.627 0 12-5.373 12-12S18.627 0 12 0ZM3.13 3.917A11.956 11.956 0 0 0 0 12a11.96 11.96 0 0 0 3.13 8.083L3.653 12 3.13 3.917Z"/>
    <path fill="#EDEDED" d="M17.551 9.052a3.653 3.653 0 0 0-1.496-4.327 3.652 3.652 0 1 1-2.41 6.715 3.653 3.653 0 0 0 3.906-2.388Zm-3.275-4.778-.513.663-.788-.283.471.692-.513.663.805-.235.472.693.025-.838.805-.234-.789-.283.025-.838Z"/>
    <path fill="#EDEDED" d="m15.662 6.434-.513.663-.79-.284.473.693-.513.663.804-.235.472.693.026-.838.804-.235-.789-.283.026-.837ZM11.834 5.06l-.513.663-.789-.283.472.693-.513.663.805-.235.472.693.025-.838.805-.235-.79-.283.026-.838Zm-.056 2.475-.513.662-.79-.283.473.693-.513.663.804-.235.472.693.026-.838.804-.235-.789-.283.026-.837Zm2.354.845-.513.662-.789-.283.472.693-.513.662.805-.234.472.693.025-.838.805-.235-.79-.283.026-.838Z"/>
    <path fill="#D80027" d="M3.13 3.917v16.166a11.988 11.988 0 0 0 6.261 3.632V.285a11.987 11.987 0 0 0-6.26 3.632Z"/>
    <path fill="#EDEDED" d="m5.52 6.318-1.048-.78V4.432l1.048-.78h1.482l1.048.78v1.104l-1.048.781H5.52Z"/>
    <path fill="#FF9811" d="M6.26 3.652h-.74l-1.048.781v.54H6.26v-1.32Zm0 2.666h.742l1.048-.78v-.564H6.26v1.344Z"/>
    <path fill="#EDEDED" d="m5.52 20.348-1.048-.781v-1.104l1.048-.781h1.482l1.048.78v1.105l-1.048.78H5.52Z"/>
    <path fill="#FF9811" d="M6.26 17.682h-.74l-1.048.78v.54H6.26v-1.32Zm0 2.666h.742l1.048-.781v-.563H6.26v1.344Z"/>
    <path fill="#496E2D" d="m5.52 13.333-1.048-.781v-1.104l1.048-.781h1.482l1.048.78v1.105l-1.048.78H5.52Zm2.567 1.717H7.63v-.456h-.802l-.567-.567-.567.567H4.89v.457h-.456v.913h.456v.456h.803l.567.568.567-.568h.802v-.456h.457v-.913Zm0-7.014H7.63v-.457h-.802l-.567-.567-.567.567H4.89v.457h-.456v.913h.456v.457h.803l.567.567.567-.567h.802v-.457h.457v-.913Z"/>
    <path fill="#D80027" d="M5.74 11.478h1.043v1.044H5.739v-1.044Zm.52-2.464a.522.522 0 1 0 0-1.043.522.522 0 0 0 0 1.043Zm0 7.016a.522.522 0 1 0 0-1.044.522.522 0 0 0 0 1.043Z"/>
  </g>
  <defs>
    <clipPath id="turkmenistan__a">
      <path fill="#fff" d="M0 12C0 5.373 5.373 0 12 0s12 5.373 12 12-5.373 12-12 12S0 18.627 0 12Z"/>
    </clipPath>
  </defs>
</svg>
