<svg xmlns="http://www.w3.org/2000/svg" fill="none" viewBox="0 0 24 24">
  <g clip-path="url(#tonga__a)">
    <path fill="#EDEDED" d="M12 24c6.627 0 12-5.373 12-12S18.627 0 12 0 0 5.373 0 12s5.373 12 12 12Z"/>
    <path fill="#D80027" d="M7.826 6.26V4.697H6.261V6.26H4.696v1.565H6.26V9.39h1.565V7.826H9.39V6.261H7.826Z"/>
    <path fill="#D80027" d="M12 0v12H0c0 6.627 5.373 12 12 12s12-5.373 12-12S18.627 0 12 0Z"/>
  </g>
  <defs>
    <clipPath id="tonga__a">
      <path fill="#fff" d="M0 12C0 5.373 5.373 0 12 0s12 5.373 12 12-5.373 12-12 12S0 18.627 0 12Z"/>
    </clipPath>
  </defs>
</svg>
