<svg xmlns="http://www.w3.org/2000/svg" fill="none" viewBox="0 0 24 24">
  <g clip-path="url(#turkey__a)">
    <path fill="#D80027" d="M12 24c6.627 0 12-5.373 12-12S18.627 0 12 0 0 5.373 0 12s5.373 12 12 12Z"/>
    <path fill="#EDEDED" d="m11.509 9.806.984 1.356 1.595-.517-.986 1.356.984 1.357-1.594-.52-.986 1.356.001-1.676L9.913 12l1.595-.517V9.806Z"/>
    <path fill="#EDEDED" d="M8.822 15.391a3.391 3.391 0 1 1 1.613-6.375 4.174 4.174 0 1 0 0 5.967c-.48.26-1.03.408-1.613.408Z"/>
  </g>
  <defs>
    <clipPath id="turkey__a">
      <path fill="#fff" d="M0 12C0 5.373 5.373 0 12 0s12 5.373 12 12-5.373 12-12 12S0 18.627 0 12Z"/>
    </clipPath>
  </defs>
</svg>
