<svg xmlns="http://www.w3.org/2000/svg" fill="none" viewBox="0 0 24 24">
  <g clip-path="url(#tuvalu__a)">
    <path fill="#338AF3" d="M24 12c0 6.627-5.373 12-12 12S0 18.627 0 12C0 12.003 12 .001 12 0c6.627 0 12 5.373 12 12Z"/>
    <path fill="#0052B4" d="M5.74 12h4.046L6.261 7.826l-.522 1.565V12ZM12 9.786 7.826 5.74H12v4.047Z"/>
    <path fill="#EDEDED" d="M11.968 12H12v-.032l-.032.032Z"/>
    <path fill="#EDEDED" d="M12 6.26V0h-.002C5.372.001 0 5.373 0 12h6.26V8.474L9.787 12h2.182l.032-.032V9.786L8.474 6.261H12Z"/>
    <path fill="#D80027" d="M6.071 1.565a12.057 12.057 0 0 0-4.506 4.506V12h3.13V4.696H12v-3.13H6.071Z"/>
    <path fill="#D80027" d="M12 10.524 7.736 6.261H6.261L12 12v-1.476Z"/>
    <path fill="#FFDA44" d="m13.097 19.826.26.797h.837l-.678.493.26.797-.679-.493-.678.493.26-.797-.679-.493h.838l.26-.797Zm6.675-5.217.26.797h.837l-.677.492.259.798-.679-.493-.678.493.26-.798-.679-.492h.838l.26-.797Zm1.673-7.826.259.797h.838l-.678.492.26.798-.679-.493-.678.493.259-.798-.678-.492h.838l.259-.797Zm.415 5.739.258.797h.838l-.677.493.259.797-.679-.493-.678.493.26-.797-.679-.493h.838l.26-.797Zm-7.561 5.429.747.38.593-.592-.131.828.746.38-.828.132-.13.828-.381-.747-.828.13.593-.592-.381-.747Zm0-3.131.747.381.593-.592-.131.828.746.38-.828.131-.13.828-.381-.747-.828.131.593-.592-.381-.747Zm2.609 2.007.747.381.592-.593-.13.828.746.38-.828.132-.131.828-.38-.747-.828.131.592-.593-.38-.747Zm0-6.702.747.38.592-.592-.13.828.746.38-.828.131-.131.828-.38-.746-.828.13.592-.592-.38-.747Zm2.528-.08.747.38.593-.592-.131.828.746.38-.828.131-.13.828-.381-.747-.828.131.593-.592-.381-.747Z"/>
  </g>
  <defs>
    <clipPath id="tuvalu__a">
      <path fill="#fff" d="M0 12C0 5.373 5.373 0 12 0s12 5.373 12 12-5.373 12-12 12S0 18.627 0 12Z"/>
    </clipPath>
  </defs>
</svg>
