<svg xmlns="http://www.w3.org/2000/svg" fill="none" viewBox="0 0 24 24">
  <g clip-path="url(#uruguay__a)">
    <path fill="#EDEDED" d="M12 24c6.627 0 12-5.373 12-12S18.627 0 12 0 0 5.373 0 12s5.373 12 12 12Z"/>
    <path fill="#338AF3" d="M12 8.87h11.587a11.932 11.932 0 0 0-1.348-3.13H12v3.13ZM4.53 21.391h14.94a12.062 12.062 0 0 0 2.769-3.13H1.76a12.062 12.062 0 0 0 2.77 3.13ZM12 0v2.609h7.47A11.949 11.949 0 0 0 12 0Z"/>
    <path fill="#338AF3" d="M12 8.87h11.587a11.932 11.932 0 0 0-1.348-3.13H12v3.13ZM0 12c0 1.083.144 2.132.413 3.13h23.174A12.01 12.01 0 0 0 24 12H0Z"/>
    <path fill="#FFDA44" d="m10.435 7.023-1.466.69.78 1.419-1.59-.305-.202 1.608-1.109-1.183-1.108 1.183-.202-1.608-1.591.305.78-1.42-1.465-.69 1.465-.688-.78-1.42 1.591.305.202-1.608 1.108 1.182 1.109-1.182.201 1.608 1.592-.305-.78 1.42 1.465.689Z"/>
  </g>
  <defs>
    <clipPath id="uruguay__a">
      <path fill="#fff" d="M0 12C0 5.373 5.373 0 12 0s12 5.373 12 12-5.373 12-12 12S0 18.627 0 12Z"/>
    </clipPath>
  </defs>
</svg>
