<svg xmlns="http://www.w3.org/2000/svg" fill="none" viewBox="0 0 24 24">
  <g clip-path="url(#uzbekistan__a)">
    <path fill="#EDEDED" d="M.567 8.348A11.988 11.988 0 0 0 0 12c0 1.274.2 2.5.567 3.652L12 16.174l11.433-.522C23.801 14.501 24 13.274 24 12s-.2-2.5-.567-3.652L12 7.826.567 8.348Z"/>
    <path fill="#D80027" d="M23.433 8.348 12 7.826.567 8.348c-.11.341-.203.69-.282 1.043h23.43a11.936 11.936 0 0 0-.282-1.043ZM.285 14.609c.079.354.173.702.282 1.043L12 16.174l11.433-.522c.11-.341.203-.69.282-1.043H.285Z"/>
    <path fill="#6DA544" d="M12 24c5.354 0 9.888-3.506 11.433-8.348H.567C2.112 20.494 6.647 24 12 24Z"/>
    <path fill="#338AF3" d="M12 0C6.646 0 2.112 3.506.567 8.348h22.866C21.888 3.506 17.353 0 12 0Z"/>
    <path fill="#EDEDED" d="M5.484 4.957a2.35 2.35 0 0 1 1.844-2.294 2.348 2.348 0 1 0 0 4.586 2.348 2.348 0 0 1-1.844-2.292Zm3.232 1.067.159.489h.514l-.416.302.16.49-.417-.303-.416.302.159-.489-.416-.302h.514l.16-.49Zm1.642 0 .159.489h.514l-.416.302.159.49-.416-.303-.416.302.159-.489-.417-.302h.515l.159-.49Zm1.642 0 .158.489h.515l-.416.302.158.49L12 7.001l-.416.302.16-.489-.417-.302h.514l.16-.49Zm1.64 0 .16.489h.514l-.416.302.159.49-.416-.303-.416.302.159-.489-.416-.302h.514l.159-.49Zm1.643 0 .158.489h.515l-.416.302.159.49-.416-.303-.417.302.16-.489-.417-.302h.514l.16-.49Zm-4.925-1.708.159.49h.514l-.416.302.159.489-.416-.302-.416.302.159-.49-.417-.302h.515l.159-.489Zm1.642 0 .158.49h.515l-.416.302.158.489L12 5.295l-.416.302.16-.49-.417-.302h.514l.16-.489Zm1.64 0 .16.49h.514l-.416.302.159.489-.416-.302-.416.302.159-.49-.416-.302h.514l.159-.489Zm1.643 0 .158.49h.515l-.416.302.159.489-.416-.302-.417.302.16-.49-.417-.302h.514l.16-.489ZM12 2.609l.158.489h.515l-.416.302.158.49L12 3.586l-.416.302.16-.489-.417-.302h.514l.16-.49Zm1.64 0 .16.489h.514l-.416.302.159.49-.416-.303-.416.302.159-.489-.416-.302h.514l.159-.49Zm1.643 0 .158.489h.515l-.416.302.159.49-.416-.303-.417.302.16-.489-.417-.302h.514l.16-.49Z"/>
  </g>
  <defs>
    <clipPath id="uzbekistan__a">
      <path fill="#fff" d="M0 12C0 5.373 5.373 0 12 0s12 5.373 12 12-5.373 12-12 12S0 18.627 0 12Z"/>
    </clipPath>
  </defs>
</svg>
