<svg xmlns="http://www.w3.org/2000/svg" fill="none" viewBox="0 0 24 24">
  <g clip-path="url(#vatican-city__a)">
    <path fill="#EDEDED" d="M12 0c6.627 0 12 5.373 12 12s-5.373 12-12 12c0-.522-1.565-12-1.565-12L12 0Z"/>
    <path fill="#FFDA44" d="M12 24C5.373 24 0 18.627 0 12S5.373 0 12 0"/>
    <path fill="#ACABB1" d="m16.595 10.442 2.255 2.983a1.565 1.565 0 1 0 .833-.629l-3.515-4.65-.832.63-1.25.944 1.26 1.664 1.25-.942Zm3.247 3.43a.522.522 0 1 1 .63.832.522.522 0 0 1-.63-.832Z"/>
    <path fill="#FFDA44" d="m20.463 11.384 1.259-1.664-1.249-.944-.832-.63-3.515 4.65a1.566 1.566 0 1 0 .832.63l2.256-2.984 1.25.942Zm-4.395 3.219a.522.522 0 1 1-.832-.63.522.522 0 0 1 .832.63Z"/>
  </g>
  <defs>
    <clipPath id="vatican-city__a">
      <path fill="#fff" d="M0 12C0 5.373 5.373 0 12 0s12 5.373 12 12-5.373 12-12 12S0 18.627 0 12Z"/>
    </clipPath>
  </defs>
</svg>
