<svg xmlns="http://www.w3.org/2000/svg" fill="none" viewBox="0 0 24 24">
  <g clip-path="url(#st-vincent-and-the-grenadines__a)">
    <path fill="#FFDA44" d="M17.74 1.46A11.946 11.946 0 0 0 12 0C9.921 0 7.966.529 6.26 1.46L5.218 12l1.044 10.54A11.917 11.917 0 0 0 12 24c2.079 0 4.034-.529 5.74-1.46L18.782 12 17.739 1.46Z"/>
    <path fill="#338AF3" d="M6.26 22.54V1.46A11.997 11.997 0 0 0 0 12c0 4.549 2.53 8.506 6.26 10.54Z"/>
    <path fill="#6DA544" d="M24 12c0-4.549-2.53-8.506-6.26-10.541v21.082A11.997 11.997 0 0 0 24 12ZM9.391 15.13 7.304 12l2.087-3.13L11.478 12l-2.087 3.13Zm5.218 0L12.522 12l2.087-3.13L16.696 12l-2.087 3.13ZM12 19.304l-2.087-3.13L12 13.044l2.087 3.13L12 19.304Z"/>
  </g>
  <defs>
    <clipPath id="st-vincent-and-the-grenadines__a">
      <path fill="#fff" d="M0 12C0 5.373 5.373 0 12 0s12 5.373 12 12-5.373 12-12 12S0 18.627 0 12Z"/>
    </clipPath>
  </defs>
</svg>
