<svg xmlns="http://www.w3.org/2000/svg" fill="none" viewBox="0 0 24 24">
  <g clip-path="url(#venezuela__a)">
    <path fill="#0052B4" d="M22.81 17.217A11.952 11.952 0 0 0 24 12c0-1.87-.428-3.64-1.19-5.217L12 5.739 1.19 6.783A11.952 11.952 0 0 0 0 12c0 1.87.428 3.64 1.19 5.217L12 18.261l10.81-1.044Z"/>
    <path fill="#D80027" d="M12 24a12 12 0 0 0 10.81-6.783H1.19A12 12 0 0 0 12 24Z"/>
    <path fill="#EDEDED" d="m20.783 14.356-.634.495.275.755-.667-.45-.634.496.222-.773-.667-.45.804-.028.222-.773.275.756.804-.028Zm-1.623-2.812-.427.683.518.616-.78-.195-.427.682-.056-.802-.78-.195.745-.301-.056-.803.517.617.746-.302Zm-2.487-2.086-.167.787.697.402-.8.084-.168.787-.327-.735-.8.084.598-.538-.327-.735.696.402.598-.538Zm-3.05-1.11.112.796.792.14-.723.353.112.796-.559-.578-.723.352.378-.71-.559-.579.792.14.378-.71Zm-3.246 0 .378.71.792-.14-.559.58.378.71-.723-.353-.56.578.113-.796-.723-.353.792-.14.112-.796Zm-3.05 1.11.598.538.696-.402-.327.735.598.538-.8-.084-.328.735-.167-.787-.8-.084.697-.402-.167-.787ZM4.84 11.544l.746.302.517-.616-.056.802.746.302-.78.194-.057.802-.426-.682-.78.195.517-.616-.427-.683Zm-1.623 2.812.804.028.275-.756.222.773.804.028-.667.45.222.773-.634-.495-.667.45.275-.756-.634-.495Z"/>
    <path fill="#FFDA44" d="M22.81 6.783A12 12 0 0 0 12 0 12 12 0 0 0 1.19 6.783h21.62Z"/>
  </g>
  <defs>
    <clipPath id="venezuela__a">
      <path fill="#fff" d="M0 12C0 5.373 5.373 0 12 0s12 5.373 12 12-5.373 12-12 12S0 18.627 0 12Z"/>
    </clipPath>
  </defs>
</svg>
