<svg xmlns="http://www.w3.org/2000/svg" fill="none" viewBox="0 0 24 24">
  <g clip-path="url(#vanuatu__a)">
    <path fill="#000" d="M24 12c0-.53-.035-1.053-.102-1.565H10.435l-6.92-6.92c-4.687 4.686-4.687 12.284 0 16.97l6.92-6.92h13.463c.067-.512.102-1.034.102-1.565Z"/>
    <path fill="#EDEDED" d="m23.997 12.273-.002.07.002-.07Zm-.012.327-.004.07.004-.07Zm-.016.262-.008.101.008-.1Zm-.04-2.17.013.12-.013-.12Zm.052.638.004.07-.004-.07Zm.014.328c0 .023 0 .046.002.07l-.002-.07Zm-.034-.621.008.1-.008-.1Z"/>
    <path fill="#D80027" d="M23.898 10.435c.006.04.01.082.015.123C23.201 4.611 18.14 0 12 0a11.962 11.962 0 0 0-8.485 3.515l6.92 6.92h13.463Z"/>
    <path fill="#6DA544" d="M23.898 13.565H10.434l-6.92 6.92A11.962 11.962 0 0 0 12 24c6.14 0 11.201-4.61 11.913-10.558l-.015.123Z"/>
    <path fill="#EDEDED" d="m23.942 13.188-.013.12.013-.12Z"/>
    <path fill="#000" d="M23.969 11.138Zm-.056-.58.016.134-.015-.134Zm.029.255ZM24 12Zm-.019.67Zm-.02.293Zm-.032.345Zm.068-1.581Zm-.012-.327Zm.01.942Z"/>
    <path fill="#FFDA44" d="M23.988 11.474H9.994L2.805 4.286a6.13 6.13 0 0 0-.64.831l6.875 6.879-6.88 6.88c.136.242.432.601.64.835l7.194-7.194H23.99a12.209 12.209 0 0 0-.002-1.043Z"/>
    <path fill="#FFDA44" d="M2.915 14.558v-1.005a1.821 1.821 0 0 0 1.819-1.819c0-.71-.577-1.287-1.287-1.287a.878.878 0 0 0-.877.877c0 .309.252.56.561.56a.317.317 0 0 0 .317-.316h1.005c0 .729-.593 1.322-1.322 1.322a1.567 1.567 0 0 1-1.566-1.566c0-1.038.845-1.882 1.882-1.882a2.295 2.295 0 0 1 2.292 2.292 2.827 2.827 0 0 1-2.824 2.824Z"/>
  </g>
  <defs>
    <clipPath id="vanuatu__a">
      <path fill="#fff" d="M0 12C0 5.373 5.373 0 12 0s12 5.373 12 12-5.373 12-12 12S0 18.627 0 12Z"/>
    </clipPath>
  </defs>
</svg>
