<svg xmlns="http://www.w3.org/2000/svg" fill="none" viewBox="0 0 24 24">
  <g clip-path="url(#mayotte__a)">
    <path fill="#EDEDED" d="M0 0h24v24H0z"/>
    <path fill="#DFDFDF" d="M8.318 21.229c-.5.201-1.22.614-1.507.845-.093.08-.085.171.06.513.1.222.202.413.22.413.025 0 .304-.15.617-.342.314-.181.714-.42.898-.463.14-.033.269-.064.348-.103.032.093.012.041.07.186.085.209.032.204.177.261.153.06.53-.183.53-.183.44-.181.686-.201 2.269-.201 1.583 0 1.828.02 2.268.211l.4.16c.045.018.07.031.117.018.044-.013.089-.092.11-.14 0 0 .097-.278.122-.375.084.048.238.11.386.166.177.07.575.282.888.463.314.191.593.342.618.342.017 0 .119-.191.22-.413.204-.473.22-.432-.516-.885-.982-.604-1.964-.876-2.057-.584-.017.056-.031.088-.054.16-.099-.027-.356-.1-.615-.15-.795-.17-2.98-.17-3.775 0-.258.05-.432.135-.578.183-.083-.197-.066-.119-.083-.174-.067-.201-.515-.17-1.133.092Z"/>
    <path fill="#171796" d="M9.037 8.793c-.017.328.034.56.168.736.06.084.11.184.11.184s-.068.1-.124.176c-.134.176-.188.404-.188.644 0 .248.054.42.199.643 0 0 .122.082.12.184-.004.102-.131.204-.131.204-.262.408-.253.876.02 1.264l.116.172h5.352l.13-.196c.254-.38.254-.792.004-1.228 0 0-.126-.12-.128-.22-.002-.1.12-.2.12-.2.26-.44.255-.843-.015-1.267-.122-.188-.125-.224-.028-.312.156-.148.253-.648.181-.952-.105-.456-.557-.76-.832-.56a1.952 1.952 0 0 0-.23.22.744.744 0 0 1-.162.156.836.836 0 0 1-.151-.16c-.276-.332-.608-.372-.884.004 0 0-.039.201-.097.208-.058.007-.14-.18-.14-.18-.28-.372-.633-.356-.92.036 0 0-.04.164-.105.144-.065-.02-.118-.212-.118-.212-.168-.216-.274-.212-.468-.216-.11-.002-.313.034-.434.155-.122.122-.1.267-.128.257-.07-.025-.148-.176-.148-.176-.273-.328-.492-.384-.756-.188-.208.152-.316.376-.333.68Z"/>
    <path fill="#D42E12" d="M9.214 14.492s.109.07.105.161c-.004.09-.12.181-.12.181a1.64 1.64 0 0 0-.159.311c-.09.303-.023.709.157.941.108.146.11.205.008.378a1.66 1.66 0 0 0-.12.236c-.213.56.106 1.26.578 1.26.188 0 .33-.083.458-.272.102-.15.156-.153.247-.02.134.205.31.331.458.331.173 0 .281-.075.457-.307 0 0 .07-.182.134-.18.064 0 .122.184.122.184.265.394.532.406.888.032 0 0 .078-.152.145-.15.066.002.125.157.125.157.156.19.273.264.426.264.154 0 .267-.082.447-.326 0 0 .092-.186.147-.197.056-.012.114.141.114.141.219.272.338.359.498.359.164 0 .281-.075.446-.28.154-.193.236-.417.216-.602-.02-.2-.15-.567-.247-.693 0 0-.097-.011-.083-.11.015-.1.128-.2.128-.2.279-.454.282-.804.006-1.253 0 0-.115-.088-.114-.189.002-.1.12-.2.12-.2.267-.437.264-.843-.006-1.24L14.65 13l-2.661.004-2.662.004-.119.185c-.279.429-.276.866.006 1.299Z"/>
    <path fill="#E9D315" fill-rule="evenodd" d="M13.365 13.622c.13 0 .236.117.259.27l.004.06v.615l.552-.39c.122-.087.274-.026.34.135a.404.404 0 0 1-.065.415l-.038.032-.462.328.462.327.038.033a.404.404 0 0 1 .064.415c-.065.16-.217.221-.34.135l-.551-.39v.684c0 .183-.118.33-.263.33-.128 0-.236-.116-.258-.27l-.004-.06v-.601l-.434.307c-.122.086-.274.026-.34-.135a.404.404 0 0 1 .065-.415l.038-.033.462-.327-.462-.328-.038-.033a.404.404 0 0 1-.065-.415c.066-.16.218-.22.34-.134l.434.307v-.532c0-.182.117-.33.262-.33Zm-2.549 0c.129 0 .236.117.258.27l.005.06v.615l.551-.39c.122-.087.274-.026.34.135a.404.404 0 0 1-.064.415l-.038.032-.463.328.463.327.038.033a.404.404 0 0 1 .064.415c-.066.16-.218.221-.34.135l-.551-.39v.684c0 .183-.118.33-.263.33-.129 0-.236-.116-.258-.27l-.004-.06v-.601l-.434.307c-.122.086-.274.026-.34-.135a.404.404 0 0 1 .064-.415l.038-.033.463-.327-.463-.328-.038-.033a.404.404 0 0 1-.064-.415c.066-.16.218-.22.34-.134l.434.307v-.532c0-.182.117-.33.262-.33Z" clip-rule="evenodd"/>
    <path stroke="#18191B" stroke-width=".2" d="M15.848 18.184V6.9H8.152v5.957h.1v.044a.165.165 0 0 1-.1-.044v.685l.002 1.598c0 1.218.002 2.592.005 3.215a.403.403 0 0 0 .064.256c.021.033.047.06.072.086.01.012.02.022.031.032l.047.048a.8.8 0 0 0 .314.17c.139.049.314.09.516.123a5.74 5.74 0 0 0 1.458.03.955.955 0 0 1 .52.144c.13.085.228.198.31.317.041.06.078.119.114.177l.001.003c.035.057.07.113.105.162.068.096.162.197.303.197.142 0 .234-.102.3-.198.035-.05.068-.108.102-.166l.002-.004c.034-.057.068-.116.106-.174a1.07 1.07 0 0 1 .293-.315.878.878 0 0 1 .498-.143 11.08 11.08 0 0 0 1.532-.056 3.01 3.01 0 0 0 .496-.098.653.653 0 0 0 .299-.162l.005-.006a.717.717 0 0 0 .07-.086.665.665 0 0 0 .133-.49l-.002-.018Z"/>
    <path fill="#EDEDED" d="M11.152 9.866c-.202.5-.21.724-.043 1.124.13.308.284.503.493.628.548.33 1.248.087 1.523-.529.17-.378.15-1.009-.037-1.284l-.05-.074-.05.218c-.067.31-.135.468-.271.634-.256.311-.607.382-.97.19-.28-.151-.394-.36-.499-.94l-.026-.143-.07.176Z"/>
    <path fill="#DFDFDF" fill-rule="evenodd" stroke="#18191B" stroke-width=".2" d="M19.332 18.8s-.255-.67.39-1c.645-.33.96.1 1.244.5.285.401.253 1.61.253 1.61l-.702 1.496-2.153.594-.858-.594L16.5 18.8l.075-2.559s.102-.98.102-1.183c0-.203.467-1.775.467-1.775l.443-.585 1.252-.888.589-.392.732-1.233-.081-.982-.834 1.416h-.707l-.735.411-.297.373-.362.015-.141-.388.395-.845.596-.801-.274-.677.406-.247-.078-.373.45.373.34-.373.065-.343-.777-.556s.76-.426 1.119-.381c.358.044.696.606.696.606l1.026-.225s-.275.899-.186.899h.645l-.207 1.116h.794l-.587.86.459.335-.698.632.698.626-.649.568.366.941.575-.467.323.585-.486 1.44-.795.75-.756.255-.74.256-.295.257-.183-.984-1.251 1.143-.65 1.794.191 1.63.459.834.845.403 1.102-.276.576-.935.138-.955s-.334-.648-.576-.594c-.242.054-.747.5-.747.5Z" clip-rule="evenodd"/>
    <path stroke="#18191B" stroke-width=".2" d="M18.065 12.42s1.334.164 1.69-.213m-2.694 1.366s1.334.165 1.69-.212m-1.914 1.272s.72.161.791-.173"/>
    <path fill="#18191B" fill-rule="evenodd" d="M18.563 9.5c-.104 0-.188-.112-.188-.25s.084-.25.188-.25c.103 0 .187.112.187.25s-.084.25-.188.25Z" clip-rule="evenodd"/>
    <path fill="#DFDFDF" fill-rule="evenodd" stroke="#18191B" stroke-width=".2" d="M4.668 18.8s.255-.67-.39-1c-.645-.33-.96.1-1.244.5-.285.401-.253 1.61-.253 1.61l.702 1.496L5.636 22l.858-.594L7.5 18.8l-.075-2.559s-.102-.98-.102-1.183c0-.203-.467-1.775-.467-1.775l-.443-.585-1.252-.887-.589-.393-.732-1.233.081-.982.834 1.416h.707l.735.411.297.373.362.015.141-.388-.394-.845-.597-.801.274-.677-.406-.247.078-.373-.45.373-.34-.373-.065-.343.777-.556s-.76-.426-1.119-.381c-.358.044-.696.606-.696.606l-1.025-.225s.274.899.185.899h-.645l.207 1.116h-.795l.588.86-.459.335.698.632-.698.626.649.568-.366.941-.575-.467-.323.585.486 1.44.795.75.756.255.74.256.295.257.183-.984L6.006 16.4l.65 1.794-.191 1.63-.459.834-.845.403-1.102-.276-.576-.935-.138-.955s.334-.648.576-.594c.242.054.747.5.747.5Z" clip-rule="evenodd"/>
    <path stroke="#18191B" stroke-width=".2" d="M5.935 12.42s-1.334.164-1.69-.213m2.694 1.366s-1.334.165-1.69-.212m1.914 1.272s-.72.161-.791-.173"/>
    <path fill="#18191B" fill-rule="evenodd" d="M5.438 9.5c.103 0 .187-.112.187-.25S5.541 9 5.437 9c-.103 0-.187.112-.187.25s.084.25.188.25Z" clip-rule="evenodd"/>
    <path fill="#FF2500" fill-rule="evenodd" d="M13.533 3.772c0 .732-.354 1.268-.852 1.268s-.849-.536-.849-1.268c0-.736.351-1.268.849-1.268s.852.532.852 1.268ZM6.744 5V3.292L7.251 5h.222l.495-1.708V5h.3V2.544H7.92l-.555 1.888-.561-1.888h-.357V5h.297Zm2.103 0 .189-.68h.705L9.93 5h.318L9.54 2.544h-.3L8.532 5h.315Zm.54-1.948-.252.908h.504l-.252-.908ZM11.133 5v-.98l.669-1.476h-.33l-.486 1.1-.489-1.1h-.339l.666 1.476V5h.309Zm1.548-.332c-.324 0-.534-.376-.534-.896s.21-.896.534-.896c.324 0 .537.376.537.896s-.213.896-.537.896Zm1.866-1.756V5h-.312V2.912h-.612v-.368h1.536v.368h-.612ZM16.263 5V2.912h.612v-.368h-1.536v.368h.612V5h.312Zm2.109-.372V5h-1.203V2.544h1.203v.368h-.897v.648h.813v.364h-.813v.704h.897Z" clip-rule="evenodd"/>
  </g>
  <defs>
    <clipPath id="mayotte__a">
      <path fill="#fff" d="M0 12C0 5.373 5.373 0 12 0s12 5.373 12 12-5.373 12-12 12S0 18.627 0 12Z"/>
    </clipPath>
  </defs>
</svg>
