<svg xmlns="http://www.w3.org/2000/svg" fill="none" viewBox="0 0 24 24">
  <g clip-path="url(#zambia__a)">
    <path fill="#496E2D" d="M12 24c6.627 0 12-5.373 12-12S18.627 0 12 0 0 5.373 0 12s5.373 12 12 12Z"/>
    <path fill="#D80027" d="M16.696 12H12v12a11.98 11.98 0 0 0 4-.684L16.696 12Z"/>
    <path fill="#FF9811" d="M20 20.943c2.455-2.197 4-5.39 4-8.943h-4.696L20 20.943Z"/>
    <path fill="#000" d="M16 12v11.316a11.993 11.993 0 0 0 4-2.372V12h-4Z"/>
    <path fill="#FF9811" d="M22.174 7.826h-3.13a1.044 1.044 0 0 0-2.088 0h-3.13c0 .576.502 1.044 1.078 1.044h-.034c0 .576.467 1.043 1.043 1.043 0 .576.467 1.044 1.043 1.044h2.087c.577 0 1.044-.468 1.044-1.044.576 0 1.043-.467 1.043-1.043h-.034c.576 0 1.078-.468 1.078-1.044Z"/>
  </g>
  <defs>
    <clipPath id="zambia__a">
      <path fill="#fff" d="M0 12C0 5.373 5.373 0 12 0s12 5.373 12 12-5.373 12-12 12S0 18.627 0 12Z"/>
    </clipPath>
  </defs>
</svg>
